%TF.GenerationSoftware,KiCad,Pcbnew,8.0.6*%
%TF.CreationDate,2024-11-21T20:47:18-07:00*%
%TF.ProjectId,SparkFun_Serial_MP3_Player_Shield_MY1690X,53706172-6b46-4756-9e5f-53657269616c,rev?*%
%TF.SameCoordinates,Original*%
%TF.FileFunction,Legend,Top*%
%TF.FilePolarity,Positive*%
%FSLAX46Y46*%
G04 Gerber Fmt 4.6, Leading zero omitted, Abs format (unit mm)*
G04 Created by KiCad (PCBNEW 8.0.6) date 2024-11-21 20:47:18*
%MOMM*%
%LPD*%
G01*
G04 APERTURE LIST*
%ADD10C,0.000000*%
%ADD11C,0.203200*%
%ADD12C,0.120000*%
%ADD13C,0.200000*%
%ADD14C,0.254000*%
G04 APERTURE END LIST*
D10*
%TO.C,kibuzzard-673EA447*%
G36*
X24126974Y18164217D02*
G01*
X24184914Y18143830D01*
X24233197Y18083745D01*
X24248219Y17970011D01*
X24236416Y17859496D01*
X24190279Y17796191D01*
X23456373Y17240397D01*
X24052940Y17240397D01*
X24126974Y17237178D01*
X24184914Y17216792D01*
X24233197Y17156706D01*
X24248219Y17042972D01*
X24233197Y16932457D01*
X24184914Y16874517D01*
X24125901Y16854131D01*
X24050794Y16849839D01*
X22937060Y16849839D01*
X22865172Y16854131D01*
X22808305Y16875590D01*
X22762167Y16934603D01*
X22748219Y17047264D01*
X22761094Y17144903D01*
X22787918Y17199624D01*
X22831910Y17238251D01*
X23552940Y17774732D01*
X22937060Y17774732D01*
X22866245Y17779024D01*
X22809378Y17800483D01*
X22763240Y17860569D01*
X22748219Y17972157D01*
X22763240Y18083745D01*
X22812597Y18143830D01*
X22871609Y18164217D01*
X22945644Y18167436D01*
X24052940Y18167436D01*
X24126974Y18164217D01*
G37*
G36*
X24246073Y18482886D02*
G01*
X24231052Y18374517D01*
X24184914Y18315504D01*
X24124828Y18292972D01*
X24048648Y18287607D01*
X22939206Y18287607D01*
X22867318Y18290826D01*
X22808305Y18311212D01*
X22760021Y18371298D01*
X22746073Y18485032D01*
X22746073Y18851985D01*
X23138777Y18851985D01*
X23138777Y18680311D01*
X23853369Y18680311D01*
X23853369Y18854131D01*
X23827350Y18989861D01*
X23749292Y19105204D01*
X23634217Y19184067D01*
X23497146Y19210354D01*
X23359807Y19184067D01*
X23243927Y19105204D01*
X23165064Y18989324D01*
X23138777Y18851985D01*
X22746073Y18851985D01*
X22746073Y18854131D01*
X22759753Y19002200D01*
X22800794Y19139539D01*
X22869195Y19266148D01*
X22964957Y19382028D01*
X23079764Y19478729D01*
X23205300Y19547800D01*
X23341567Y19589244D01*
X23488562Y19603058D01*
X23639514Y19589244D01*
X23779067Y19547800D01*
X23907218Y19478729D01*
X24023970Y19382028D01*
X24121140Y19265746D01*
X24190547Y19137929D01*
X24232192Y18998578D01*
X24246073Y18847693D01*
X24246073Y18680311D01*
X24246073Y18482886D01*
G37*
G36*
X24077618Y16641685D02*
G01*
X24136363Y16581062D01*
X24185987Y16502200D01*
X24232482Y16383459D01*
X24260379Y16241828D01*
X24269678Y16077307D01*
X24255059Y15928165D01*
X24211202Y15789753D01*
X24138106Y15662071D01*
X24035773Y15545118D01*
X23913053Y15447479D01*
X23778798Y15377736D01*
X23633010Y15335891D01*
X23475687Y15321942D01*
X23325673Y15336092D01*
X23186792Y15378541D01*
X23059042Y15449289D01*
X22942425Y15548337D01*
X22845255Y15667234D01*
X22775848Y15797532D01*
X22734203Y15939230D01*
X22720322Y16092328D01*
X22728101Y16203648D01*
X22751438Y16323015D01*
X22788723Y16435944D01*
X22838348Y16527951D01*
X22881266Y16588036D01*
X22926330Y16627736D01*
X22988562Y16648122D01*
X23108734Y16598766D01*
X23194034Y16519367D01*
X23222468Y16439968D01*
X23173112Y16324088D01*
X23128047Y16214109D01*
X23113026Y16081599D01*
X23139582Y15940504D01*
X23219249Y15821942D01*
X23337543Y15741470D01*
X23479979Y15714646D01*
X23626974Y15742543D01*
X23754657Y15826234D01*
X23843176Y15946942D01*
X23872682Y16085891D01*
X23865708Y16209281D01*
X23844785Y16300483D01*
X23660236Y16300483D01*
X23660236Y16141685D01*
X23657017Y16083745D01*
X23639850Y16038680D01*
X23589421Y16002200D01*
X23492854Y15991470D01*
X23398433Y16003273D01*
X23348004Y16042972D01*
X23330837Y16090182D01*
X23327618Y16148122D01*
X23327618Y16523659D01*
X23342639Y16606277D01*
X23370536Y16656706D01*
X23413455Y16682457D01*
X23460665Y16692114D01*
X23514313Y16693187D01*
X23954227Y16693187D01*
X24077618Y16641685D01*
G37*
%TO.C,kibuzzard-673EAF28*%
G36*
X49308544Y44932833D02*
G01*
X49337157Y44830544D01*
X49337157Y44086624D01*
X49308544Y43986481D01*
X49206971Y43957868D01*
X49106828Y43986481D01*
X49078215Y44088054D01*
X49078215Y44571602D01*
X49063909Y44558727D01*
X48975926Y44517239D01*
X48890805Y44567310D01*
X48846456Y44661731D01*
X48862908Y44707511D01*
X48906541Y44756152D01*
X49088230Y44919242D01*
X49111119Y44937840D01*
X49208401Y44962160D01*
X49308544Y44932833D01*
G37*
G36*
X48398315Y44942847D02*
G01*
X48447314Y44884907D01*
X48806398Y44142418D01*
X48825712Y44040844D01*
X48746313Y43970744D01*
X48640447Y43950000D01*
X48570347Y44032260D01*
X48504539Y44168169D01*
X48259903Y44168169D01*
X48152607Y44168169D01*
X48086799Y44030830D01*
X48015268Y43951431D01*
X47910833Y43972175D01*
X47830719Y44041559D01*
X47849317Y44142418D01*
X47969472Y44391345D01*
X48259903Y44391345D01*
X48394381Y44391345D01*
X48327142Y44530114D01*
X48259903Y44391345D01*
X47969472Y44391345D01*
X48208401Y44886338D01*
X48258473Y44941416D01*
X48328573Y44962160D01*
X48398315Y44942847D01*
G37*
D11*
%TO.C,SW1*%
X46990000Y11477500D02*
X46990000Y14557500D01*
X48290000Y15557500D02*
X50800000Y15557500D01*
X50770000Y10477500D02*
X48290000Y10477500D01*
X52070000Y14557500D02*
X52070000Y11477500D01*
X50800000Y13017500D02*
G75*
G02*
X48260000Y13017500I-1270000J0D01*
G01*
X48260000Y13017500D02*
G75*
G02*
X50800000Y13017500I1270000J0D01*
G01*
D10*
%TO.C,kibuzzard-673EA5F5*%
G36*
X7253644Y49530000D02*
G01*
X7758333Y48772966D01*
X7253644Y48772966D01*
X7015208Y48772966D01*
X6860701Y48772966D01*
X5581731Y48772966D01*
X5003763Y48772966D01*
X3882161Y48772966D01*
X3751975Y48772966D01*
X3036667Y48772966D01*
X3036667Y49673777D01*
X3751975Y49673777D01*
X3754121Y49624421D01*
X3767711Y49585079D01*
X3807769Y49552175D01*
X3882161Y49542160D01*
X3957983Y49551459D01*
X3998040Y49581502D01*
X4011631Y49617983D01*
X4013777Y49663763D01*
X4041674Y49752818D01*
X4125365Y49782504D01*
X4197611Y49763190D01*
X4229085Y49725994D01*
X4234092Y49688083D01*
X4221395Y49633004D01*
X4183305Y49579356D01*
X4128763Y49530715D01*
X4066710Y49490658D01*
X3997683Y49450422D01*
X3922218Y49401245D01*
X3853191Y49348491D01*
X3803477Y49297525D01*
X3764850Y49231359D01*
X3751975Y49158755D01*
X3790601Y49065050D01*
X3882161Y49025708D01*
X4398613Y49025708D01*
X4447969Y49028569D01*
X4488741Y49042876D01*
X4521646Y49082217D01*
X4531660Y49155894D01*
X4521646Y49231717D01*
X4489457Y49271774D01*
X4450830Y49286080D01*
X4401474Y49288941D01*
X4222647Y49288941D01*
X4308484Y49339728D01*
X4395751Y49414835D01*
X4437060Y49465622D01*
X4469428Y49526423D01*
X4490351Y49594378D01*
X4492077Y49612260D01*
X4560272Y49612260D01*
X4567425Y49546452D01*
X4599256Y49509971D01*
X4663277Y49497811D01*
X5003763Y49497811D01*
X5075294Y49510687D01*
X5100329Y49545737D01*
X5108198Y49610830D01*
X5099614Y49676638D01*
X5068856Y49712046D01*
X5005194Y49723848D01*
X4664707Y49723848D01*
X4596038Y49710973D01*
X4568856Y49676638D01*
X4560272Y49612260D01*
X4492077Y49612260D01*
X4497325Y49666624D01*
X4485244Y49766290D01*
X4449002Y49855465D01*
X4397384Y49922704D01*
X5146824Y49922704D01*
X5155408Y49858326D01*
X5182590Y49824707D01*
X5214779Y49813262D01*
X5255551Y49811116D01*
X5454407Y49811116D01*
X5454407Y49157325D01*
X5456553Y49109399D01*
X5469428Y49070773D01*
X5508055Y49038584D01*
X5581731Y49028569D01*
X5656123Y49038584D01*
X5696181Y49070057D01*
X5709771Y49107969D01*
X5711917Y49155894D01*
X5711917Y49811116D01*
X5909342Y49811116D01*
X5950115Y49813262D01*
X5983019Y49824707D01*
X6010916Y49858326D01*
X6016964Y49902675D01*
X6053119Y49902675D01*
X6101045Y49811116D01*
X6358555Y49529285D01*
X6102475Y49247454D01*
X6053119Y49155179D01*
X6109628Y49064335D01*
X6206910Y49013548D01*
X6294178Y49072918D01*
X6534521Y49336152D01*
X6773434Y49072918D01*
X6860701Y49013548D01*
X6957983Y49064335D01*
X7014493Y49155179D01*
X6965136Y49247454D01*
X6709056Y49529285D01*
X6966567Y49811116D01*
X7015208Y49902675D01*
X6959414Y49995665D01*
X6862132Y50046452D01*
X6774864Y49987082D01*
X6534521Y49722418D01*
X6292747Y49987082D01*
X6205480Y50046452D01*
X6108198Y49995665D01*
X6053119Y49902675D01*
X6016964Y49902675D01*
X6019500Y49921273D01*
X6010916Y49984220D01*
X5983734Y50017840D01*
X5951545Y50029285D01*
X5910773Y50031431D01*
X5256982Y50031431D01*
X5216209Y50029285D01*
X5183305Y50017840D01*
X5155408Y49984936D01*
X5146824Y49922704D01*
X4397384Y49922704D01*
X4388598Y49934149D01*
X4310868Y49995347D01*
X4222647Y50032066D01*
X4123935Y50044306D01*
X4020294Y50031590D01*
X3930643Y49993440D01*
X3854979Y49929857D01*
X3797754Y49850537D01*
X3763420Y49765177D01*
X3751975Y49673777D01*
X3036667Y49673777D01*
X3036667Y50287034D01*
X3751975Y50287034D01*
X7015208Y50287034D01*
X7253644Y50287034D01*
X7758333Y50287034D01*
X7253644Y49530000D01*
G37*
%TO.C,kibuzzard-673EAE8B*%
G36*
X4248290Y28413534D02*
G01*
X4276903Y28311245D01*
X4276903Y27567325D01*
X4248290Y27467182D01*
X4146717Y27438569D01*
X4046574Y27467182D01*
X4017961Y27568755D01*
X4017961Y28052303D01*
X4003655Y28039428D01*
X3915672Y27997940D01*
X3830551Y28048011D01*
X3786202Y28142432D01*
X3802654Y28188212D01*
X3846288Y28236853D01*
X4027976Y28399943D01*
X4050866Y28418541D01*
X4148147Y28442861D01*
X4248290Y28413534D01*
G37*
G36*
X4812310Y28447868D02*
G01*
X4889206Y28419971D01*
X4952868Y28378305D01*
X5000794Y28327697D01*
X5037096Y28267969D01*
X5065887Y28198941D01*
X5086631Y28128305D01*
X5098791Y28063748D01*
X5104692Y28001874D01*
X5106660Y27939285D01*
X5104514Y27875086D01*
X5098076Y27811245D01*
X5085379Y27745436D01*
X5064456Y27675336D01*
X5035665Y27607561D01*
X4999363Y27548727D01*
X4951795Y27499013D01*
X4889206Y27458598D01*
X4813741Y27431774D01*
X4727546Y27422833D01*
X4721824Y27423289D01*
X4651366Y27428913D01*
X4583054Y27447153D01*
X4524578Y27476302D01*
X4477904Y27515107D01*
X4407804Y27609528D01*
X4382232Y27663176D01*
X4364170Y27722546D01*
X4344142Y27836280D01*
X4338497Y27939285D01*
X4600222Y27939285D01*
X4607822Y27828501D01*
X4630622Y27749371D01*
X4668623Y27701892D01*
X4721824Y27686066D01*
X4781195Y27705379D01*
X4817675Y27749013D01*
X4836273Y27813391D01*
X4844142Y27876338D01*
X4844857Y27933562D01*
X4844857Y27940715D01*
X4837257Y28052124D01*
X4814456Y28131702D01*
X4776456Y28179449D01*
X4723255Y28195365D01*
X4669428Y28179360D01*
X4630980Y28131345D01*
X4607911Y28051320D01*
X4600222Y27939285D01*
X4338497Y27939285D01*
X4338419Y27940715D01*
X4340207Y28000801D01*
X4345572Y28060887D01*
X4357196Y28124549D01*
X4377761Y28195365D01*
X4406552Y28265107D01*
X4442854Y28325551D01*
X4491137Y28376874D01*
X4555873Y28419256D01*
X4634557Y28447690D01*
X4724685Y28457167D01*
X4812310Y28447868D01*
G37*
%TO.C,kibuzzard-673EAF2D*%
G36*
X48248816Y47475694D02*
G01*
X48297815Y47417754D01*
X48656899Y46675265D01*
X48676212Y46573691D01*
X48596813Y46503591D01*
X48490948Y46482847D01*
X48420848Y46565107D01*
X48355039Y46701016D01*
X48110404Y46701016D01*
X48003108Y46701016D01*
X47937300Y46563677D01*
X47865769Y46484278D01*
X47761334Y46505021D01*
X47681220Y46574406D01*
X47699818Y46675265D01*
X47819973Y46924192D01*
X48110404Y46924192D01*
X48244882Y46924192D01*
X48177643Y47062961D01*
X48110404Y46924192D01*
X47819973Y46924192D01*
X48058902Y47419185D01*
X48108974Y47474263D01*
X48179074Y47495007D01*
X48248816Y47475694D01*
G37*
G36*
X49177643Y47497074D02*
G01*
X49265864Y47460354D01*
X49343594Y47399156D01*
X49403998Y47320472D01*
X49440240Y47231297D01*
X49452321Y47131631D01*
X49445347Y47059385D01*
X49424424Y46991431D01*
X49392057Y46930629D01*
X49350747Y46879843D01*
X49263480Y46804735D01*
X49177643Y46753948D01*
X49356470Y46753948D01*
X49405826Y46751087D01*
X49444453Y46736781D01*
X49476642Y46696724D01*
X49486656Y46620901D01*
X49476642Y46547225D01*
X49443737Y46507883D01*
X49402965Y46493577D01*
X49353609Y46490715D01*
X48837157Y46490715D01*
X48745597Y46530057D01*
X48706971Y46623763D01*
X48719846Y46696366D01*
X48758473Y46762532D01*
X48808187Y46813498D01*
X48877214Y46866252D01*
X48952679Y46915429D01*
X49021706Y46955665D01*
X49083759Y46995722D01*
X49138301Y47044363D01*
X49176391Y47098011D01*
X49189088Y47153090D01*
X49184081Y47191001D01*
X49152607Y47228197D01*
X49080361Y47247511D01*
X48996670Y47217825D01*
X48968773Y47128770D01*
X48966627Y47082990D01*
X48953036Y47046509D01*
X48912979Y47016466D01*
X48837157Y47007167D01*
X48762765Y47017182D01*
X48722707Y47050086D01*
X48709117Y47089428D01*
X48706971Y47138784D01*
X48718416Y47230184D01*
X48752750Y47315544D01*
X48809975Y47394864D01*
X48885639Y47458447D01*
X48975290Y47496597D01*
X49078931Y47509313D01*
X49177643Y47497074D01*
G37*
%TO.C,kibuzzard-673EAEBB*%
G36*
X4242568Y23325665D02*
G01*
X4271180Y23223376D01*
X4271180Y22479456D01*
X4242568Y22379313D01*
X4140994Y22350701D01*
X4040851Y22379313D01*
X4012239Y22480887D01*
X4012239Y22964435D01*
X3997933Y22951559D01*
X3909950Y22910072D01*
X3824828Y22960143D01*
X3780479Y23054564D01*
X3796931Y23100343D01*
X3840565Y23148984D01*
X4022253Y23312074D01*
X4045143Y23330672D01*
X4142425Y23354993D01*
X4242568Y23325665D01*
G37*
G36*
X4803369Y23357059D02*
G01*
X4891590Y23320340D01*
X4969320Y23259142D01*
X5029724Y23180458D01*
X5065966Y23091283D01*
X5078047Y22991617D01*
X5071073Y22919371D01*
X5050150Y22851416D01*
X5017783Y22790615D01*
X4976474Y22739828D01*
X4889206Y22664721D01*
X4803369Y22613934D01*
X4982196Y22613934D01*
X5031552Y22611073D01*
X5070179Y22596767D01*
X5102368Y22556710D01*
X5112382Y22480887D01*
X5102368Y22407210D01*
X5069464Y22367868D01*
X5028691Y22353562D01*
X4979335Y22350701D01*
X4462883Y22350701D01*
X4371323Y22390043D01*
X4332697Y22483748D01*
X4345572Y22556352D01*
X4384199Y22622518D01*
X4433913Y22673484D01*
X4502940Y22726237D01*
X4578405Y22775415D01*
X4647432Y22815651D01*
X4709485Y22855708D01*
X4764027Y22904349D01*
X4802117Y22957997D01*
X4814814Y23013076D01*
X4809807Y23050987D01*
X4778333Y23088183D01*
X4706087Y23107496D01*
X4622396Y23077811D01*
X4594499Y22988755D01*
X4592353Y22942976D01*
X4578763Y22906495D01*
X4538705Y22876452D01*
X4462883Y22867153D01*
X4388491Y22877167D01*
X4348433Y22910072D01*
X4334843Y22949413D01*
X4332697Y22998770D01*
X4344142Y23090170D01*
X4378476Y23175530D01*
X4435701Y23254850D01*
X4511365Y23318433D01*
X4601017Y23356582D01*
X4704657Y23369299D01*
X4803369Y23357059D01*
G37*
%TO.C,kibuzzard-673EAACD*%
G36*
X15694320Y38503723D02*
G01*
X15773004Y38437915D01*
X15800186Y38359231D01*
X15804478Y38263380D01*
X15800186Y38166098D01*
X15773004Y38090275D01*
X15694320Y38025898D01*
X15544106Y38005869D01*
X15396753Y38025898D01*
X15318069Y38091706D01*
X15290887Y38170390D01*
X15286595Y38266241D01*
X15290887Y38362092D01*
X15318069Y38439345D01*
X15398183Y38503723D01*
X15546967Y38523752D01*
X15694320Y38503723D01*
G37*
G36*
X38309485Y38503723D02*
G01*
X38388169Y38437915D01*
X38415351Y38359231D01*
X38419642Y38263380D01*
X38415351Y38166098D01*
X38388169Y38090275D01*
X38309485Y38025898D01*
X38159270Y38005869D01*
X38011917Y38025898D01*
X37933233Y38091706D01*
X37906052Y38170390D01*
X37901760Y38266241D01*
X37906052Y38362092D01*
X37933233Y38439345D01*
X38013348Y38503723D01*
X38162132Y38523752D01*
X38309485Y38503723D01*
G37*
G36*
X30079156Y37759803D02*
G01*
X30436810Y37219031D01*
X30662847Y37722607D01*
X30791602Y37882836D01*
X31003333Y37851363D01*
X31164993Y37716885D01*
X31134950Y37525182D01*
X30433948Y35954367D01*
X30306624Y35792707D01*
X30093462Y35828473D01*
X29930372Y35967242D01*
X29967568Y36166098D01*
X30190744Y36663952D01*
X29644249Y37487986D01*
X29584163Y37676828D01*
X29721502Y37831334D01*
X29927511Y37895712D01*
X30079156Y37759803D01*
G37*
G36*
X15694320Y37845640D02*
G01*
X15773004Y37779832D01*
X15800186Y37701148D01*
X15804478Y37602436D01*
X15804478Y36672536D01*
X15800186Y36575254D01*
X15773004Y36499431D01*
X15694320Y36435054D01*
X15544106Y36415025D01*
X15396753Y36435054D01*
X15318069Y36499431D01*
X15290887Y36576685D01*
X15286595Y36675397D01*
X15286595Y37608158D01*
X15290887Y37704009D01*
X15318069Y37781263D01*
X15398183Y37845640D01*
X15546967Y37865669D01*
X15694320Y37845640D01*
G37*
G36*
X38309485Y37845640D02*
G01*
X38388169Y37779832D01*
X38415351Y37701148D01*
X38419642Y37602436D01*
X38419642Y36672536D01*
X38415351Y36575254D01*
X38388169Y36499431D01*
X38309485Y36435054D01*
X38159270Y36415025D01*
X38011917Y36435054D01*
X37933233Y36499431D01*
X37906052Y36576685D01*
X37901760Y36675397D01*
X37901760Y37608158D01*
X37906052Y37704009D01*
X37933233Y37781263D01*
X38013348Y37845640D01*
X38162132Y37865669D01*
X38309485Y37845640D01*
G37*
G36*
X18006195Y38509446D02*
G01*
X18083448Y38443637D01*
X18110629Y38363523D01*
X18116352Y38266241D01*
X18116352Y37033051D01*
X18126366Y36931477D01*
X18193605Y36915740D01*
X18253691Y36911448D01*
X18309485Y36887128D01*
X18358126Y36812736D01*
X18373863Y36672536D01*
X18358126Y36523752D01*
X18309485Y36445068D01*
X18253691Y36419317D01*
X18190744Y36415025D01*
X18030515Y36419675D01*
X17910343Y36433623D01*
X17732947Y36513737D01*
X17627082Y36691134D01*
X17605622Y36826685D01*
X17598469Y37001577D01*
X17598469Y38269102D01*
X17602761Y38367815D01*
X17629943Y38445068D01*
X17710057Y38509446D01*
X17858841Y38529474D01*
X18006195Y38509446D01*
G37*
G36*
X27577010Y38509446D02*
G01*
X27654263Y38443637D01*
X27681445Y38363523D01*
X27687167Y38266241D01*
X27687167Y37033051D01*
X27697182Y36931477D01*
X27764421Y36915740D01*
X27824506Y36911448D01*
X27880300Y36887128D01*
X27928941Y36812736D01*
X27944678Y36672536D01*
X27928941Y36523752D01*
X27880300Y36445068D01*
X27824506Y36419317D01*
X27761559Y36415025D01*
X27601330Y36419675D01*
X27481159Y36433623D01*
X27303763Y36513737D01*
X27197897Y36691134D01*
X27176438Y36826685D01*
X27169285Y37001577D01*
X27169285Y38269102D01*
X27173577Y38367815D01*
X27200758Y38445068D01*
X27280873Y38509446D01*
X27429657Y38529474D01*
X27577010Y38509446D01*
G37*
G36*
X40558412Y38509446D02*
G01*
X40635665Y38443637D01*
X40662847Y38363523D01*
X40668569Y38266241D01*
X40668569Y37033051D01*
X40678584Y36931477D01*
X40745823Y36915740D01*
X40805908Y36911448D01*
X40861702Y36887128D01*
X40910343Y36812736D01*
X40926080Y36672536D01*
X40910343Y36523752D01*
X40861702Y36445068D01*
X40805908Y36419317D01*
X40742961Y36415025D01*
X40582732Y36419675D01*
X40462561Y36433623D01*
X40285165Y36513737D01*
X40179299Y36691134D01*
X40157840Y36826685D01*
X40150687Y37001577D01*
X40150687Y38269102D01*
X40154979Y38367815D01*
X40182160Y38445068D01*
X40262275Y38509446D01*
X40411059Y38529474D01*
X40558412Y38509446D01*
G37*
G36*
X14926080Y37875683D02*
G01*
X15029084Y37849932D01*
X15122074Y37785554D01*
X15157840Y37676828D01*
X15142103Y37542707D01*
X15094893Y37432192D01*
X14934664Y37333480D01*
X14824506Y37354939D01*
X14754406Y37376398D01*
X14612775Y37334911D01*
X14556981Y37230476D01*
X14556981Y36672536D01*
X14552690Y36575254D01*
X14525508Y36499431D01*
X14445393Y36435054D01*
X14293748Y36415025D01*
X14146395Y36435054D01*
X14067711Y36500862D01*
X14040529Y36579546D01*
X14036237Y36678258D01*
X14036237Y37611019D01*
X14040529Y37708301D01*
X14067711Y37784124D01*
X14146395Y37848501D01*
X14296609Y37868530D01*
X14462561Y37839202D01*
X14542675Y37751220D01*
X14687167Y37849932D01*
X14840243Y37882836D01*
X14926080Y37875683D01*
G37*
G36*
X33707196Y37875683D02*
G01*
X33810200Y37849932D01*
X33903190Y37785554D01*
X33938956Y37676828D01*
X33923219Y37542707D01*
X33876009Y37432192D01*
X33715780Y37333480D01*
X33605622Y37354939D01*
X33535522Y37376398D01*
X33393891Y37334911D01*
X33338097Y37230476D01*
X33338097Y36672536D01*
X33333805Y36575254D01*
X33306624Y36499431D01*
X33226509Y36435054D01*
X33074864Y36415025D01*
X32927511Y36435054D01*
X32848827Y36500862D01*
X32821645Y36579546D01*
X32817353Y36678258D01*
X32817353Y37611019D01*
X32821645Y37708301D01*
X32848827Y37784124D01*
X32927511Y37848501D01*
X33077725Y37868530D01*
X33243677Y37839202D01*
X33323791Y37751220D01*
X33468283Y37849932D01*
X33621359Y37882836D01*
X33707196Y37875683D01*
G37*
G36*
X17302332Y37848501D02*
G01*
X17381016Y37782693D01*
X17408197Y37704009D01*
X17412489Y37608158D01*
X17412489Y36678258D01*
X17408197Y36580976D01*
X17381016Y36505154D01*
X17300901Y36440776D01*
X17152117Y36420747D01*
X16989742Y36446499D01*
X16908913Y36523752D01*
X16772289Y36446499D01*
X16680014Y36431993D01*
X16608484Y36420747D01*
X16443009Y36445227D01*
X16289933Y36518665D01*
X16149256Y36641062D01*
X16037191Y36795251D01*
X15969952Y36964063D01*
X15948238Y37141778D01*
X16465422Y37141778D01*
X16529800Y37000147D01*
X16680014Y36938630D01*
X16818784Y37000147D01*
X16877439Y37144639D01*
X16818784Y37290562D01*
X16674292Y37350647D01*
X16526938Y37287700D01*
X16465422Y37141778D01*
X15948238Y37141778D01*
X15947539Y37147500D01*
X15970111Y37326168D01*
X16037827Y37492119D01*
X16150687Y37645354D01*
X16291841Y37767751D01*
X16444440Y37841189D01*
X16608484Y37865669D01*
X16776581Y37837057D01*
X16908913Y37751220D01*
X16981874Y37839202D01*
X17154979Y37868530D01*
X17302332Y37848501D01*
G37*
G36*
X29356695Y37848501D02*
G01*
X29435379Y37782693D01*
X29462561Y37704009D01*
X29466853Y37608158D01*
X29466853Y36678258D01*
X29462561Y36580976D01*
X29435379Y36505154D01*
X29355265Y36440776D01*
X29206481Y36420747D01*
X29044106Y36446499D01*
X28963276Y36523752D01*
X28826652Y36446499D01*
X28734378Y36431993D01*
X28662847Y36420747D01*
X28497372Y36445227D01*
X28344297Y36518665D01*
X28203619Y36641062D01*
X28091555Y36795251D01*
X28024316Y36964063D01*
X28002602Y37141778D01*
X28519785Y37141778D01*
X28584163Y37000147D01*
X28734378Y36938630D01*
X28873147Y37000147D01*
X28931803Y37144639D01*
X28873147Y37290562D01*
X28728655Y37350647D01*
X28581302Y37287700D01*
X28519785Y37141778D01*
X28002602Y37141778D01*
X28001903Y37147500D01*
X28024475Y37326168D01*
X28092190Y37492119D01*
X28205050Y37645354D01*
X28346204Y37767751D01*
X28498803Y37841189D01*
X28662847Y37865669D01*
X28830944Y37837057D01*
X28963276Y37751220D01*
X29036237Y37839202D01*
X29209342Y37868530D01*
X29356695Y37848501D01*
G37*
G36*
X22424649Y38406441D02*
G01*
X22545536Y38372107D01*
X22665708Y38316313D01*
X22780157Y38240490D01*
X22882089Y38139274D01*
X22964707Y38007300D01*
X23019428Y37852436D01*
X23037668Y37682550D01*
X23019785Y37513380D01*
X22966137Y37360662D01*
X22884235Y37230833D01*
X22781588Y37130333D01*
X22665708Y37054510D01*
X22544106Y36998716D01*
X22422146Y36964381D01*
X22305193Y36952936D01*
X21999041Y36952936D01*
X21999041Y36678258D01*
X21994750Y36579546D01*
X21967568Y36502293D01*
X21887454Y36437915D01*
X21735808Y36417886D01*
X21587024Y36437915D01*
X21506910Y36503723D01*
X21479728Y36582407D01*
X21475436Y36681119D01*
X21475436Y37476541D01*
X21999041Y37476541D01*
X22308054Y37476541D01*
X22449685Y37528044D01*
X22516924Y37685411D01*
X22455408Y37834195D01*
X22305193Y37894281D01*
X21999041Y37894281D01*
X21999041Y37476541D01*
X21475436Y37476541D01*
X21475436Y38157514D01*
X21479728Y38253366D01*
X21506910Y38332049D01*
X21587024Y38397858D01*
X21738670Y38417886D01*
X22308054Y38417886D01*
X22424649Y38406441D01*
G37*
G36*
X26416066Y38406441D02*
G01*
X26536953Y38372107D01*
X26657124Y38316313D01*
X26771574Y38240490D01*
X26873505Y38139274D01*
X26956123Y38007300D01*
X27010844Y37852436D01*
X27029084Y37682550D01*
X27011202Y37513380D01*
X26957554Y37360662D01*
X26875651Y37230833D01*
X26773004Y37130333D01*
X26657124Y37054510D01*
X26535522Y36998716D01*
X26413562Y36964381D01*
X26296609Y36952936D01*
X25990458Y36952936D01*
X25990458Y36678258D01*
X25986166Y36579546D01*
X25958984Y36502293D01*
X25878870Y36437915D01*
X25727225Y36417886D01*
X25578441Y36437915D01*
X25498326Y36503723D01*
X25471144Y36582407D01*
X25466853Y36681119D01*
X25466853Y37476541D01*
X25990458Y37476541D01*
X26299471Y37476541D01*
X26441102Y37528044D01*
X26508340Y37685411D01*
X26446824Y37834195D01*
X26296609Y37894281D01*
X25990458Y37894281D01*
X25990458Y37476541D01*
X25466853Y37476541D01*
X25466853Y38157514D01*
X25471144Y38253366D01*
X25498326Y38332049D01*
X25578441Y38397858D01*
X25730086Y38417886D01*
X26299471Y38417886D01*
X26416066Y38406441D01*
G37*
G36*
X36678584Y38503723D02*
G01*
X36757268Y38439345D01*
X36784449Y38362092D01*
X36788741Y38263380D01*
X36788741Y37742636D01*
X36924649Y37834911D01*
X37074864Y37865669D01*
X37248127Y37842461D01*
X37401680Y37772838D01*
X37535522Y37656799D01*
X37638844Y37506743D01*
X37700838Y37335070D01*
X37721502Y37141778D01*
X37721502Y36672536D01*
X37717210Y36576685D01*
X37690029Y36499431D01*
X37609914Y36435054D01*
X37461130Y36415025D01*
X37313777Y36435054D01*
X37235093Y36498001D01*
X37206481Y36576685D01*
X37200758Y36678258D01*
X37200758Y37144639D01*
X37149256Y37291992D01*
X37009056Y37347786D01*
X36865994Y37299145D01*
X36788741Y37187557D01*
X36788741Y36672536D01*
X36784449Y36575254D01*
X36757268Y36499431D01*
X36677153Y36435054D01*
X36528369Y36415025D01*
X36381016Y36435054D01*
X36302332Y36499431D01*
X36275150Y36576685D01*
X36270858Y36675397D01*
X36270858Y38266241D01*
X36275150Y38362092D01*
X36302332Y38439345D01*
X36381016Y38503723D01*
X36531230Y38523752D01*
X36678584Y38503723D01*
G37*
G36*
X13443486Y37879339D02*
G01*
X13607053Y37817346D01*
X13737239Y37714024D01*
X13864921Y37523036D01*
X13907482Y37322035D01*
X13887811Y37180046D01*
X13828798Y37074539D01*
X13737597Y37009088D01*
X13621359Y36987271D01*
X13011917Y36987271D01*
X13097754Y36878544D01*
X13266567Y36838487D01*
X13498326Y36875683D01*
X13629943Y36912879D01*
X13724363Y36878544D01*
X13801617Y36775540D01*
X13838813Y36643923D01*
X13801617Y36530011D01*
X13690029Y36448644D01*
X13504049Y36399825D01*
X13243677Y36383552D01*
X13051974Y36401077D01*
X12883162Y36453652D01*
X12743319Y36534839D01*
X12638526Y36638201D01*
X12561989Y36755511D01*
X12506910Y36878544D01*
X12473648Y37005869D01*
X12462561Y37136055D01*
X12476395Y37256227D01*
X13011917Y37256227D01*
X13332375Y37256227D01*
X13409628Y37324896D01*
X13363848Y37409303D01*
X13240815Y37439345D01*
X13079156Y37383552D01*
X13011917Y37256227D01*
X12476395Y37256227D01*
X12486881Y37347309D01*
X12559843Y37530905D01*
X12681445Y37686842D01*
X12841515Y37805265D01*
X13029879Y37876319D01*
X13246538Y37900004D01*
X13443486Y37879339D01*
G37*
G36*
X32224602Y37879339D02*
G01*
X32388169Y37817346D01*
X32518355Y37714024D01*
X32646037Y37523036D01*
X32688598Y37322035D01*
X32668927Y37180046D01*
X32609914Y37074539D01*
X32518712Y37009088D01*
X32402475Y36987271D01*
X31793033Y36987271D01*
X31878870Y36878544D01*
X32047682Y36838487D01*
X32279442Y36875683D01*
X32411059Y36912879D01*
X32505479Y36878544D01*
X32582732Y36775540D01*
X32619928Y36643923D01*
X32582732Y36530011D01*
X32471144Y36448644D01*
X32285165Y36399825D01*
X32024793Y36383552D01*
X31833090Y36401077D01*
X31664278Y36453652D01*
X31524435Y36534839D01*
X31419642Y36638201D01*
X31343104Y36755511D01*
X31288026Y36878544D01*
X31254764Y37005869D01*
X31243677Y37136055D01*
X31257511Y37256227D01*
X31793033Y37256227D01*
X32113491Y37256227D01*
X32190744Y37324896D01*
X32144964Y37409303D01*
X32021931Y37439345D01*
X31860272Y37383552D01*
X31793033Y37256227D01*
X31257511Y37256227D01*
X31267997Y37347309D01*
X31340959Y37530905D01*
X31462561Y37686842D01*
X31622631Y37805265D01*
X31810995Y37876319D01*
X32027654Y37900004D01*
X32224602Y37879339D01*
G37*
G36*
X39543629Y37879339D02*
G01*
X39707196Y37817346D01*
X39837382Y37714024D01*
X39965064Y37523036D01*
X40007625Y37322035D01*
X39987954Y37180046D01*
X39928941Y37074539D01*
X39837740Y37009088D01*
X39721502Y36987271D01*
X39112060Y36987271D01*
X39197897Y36878544D01*
X39366710Y36838487D01*
X39598469Y36875683D01*
X39730086Y36912879D01*
X39824506Y36878544D01*
X39901760Y36775540D01*
X39938956Y36643923D01*
X39901760Y36530011D01*
X39790172Y36448644D01*
X39604192Y36399825D01*
X39343820Y36383552D01*
X39152117Y36401077D01*
X38983305Y36453652D01*
X38843462Y36534839D01*
X38738670Y36638201D01*
X38662132Y36755511D01*
X38607053Y36878544D01*
X38573791Y37005869D01*
X38562704Y37136055D01*
X38576538Y37256227D01*
X39112060Y37256227D01*
X39432518Y37256227D01*
X39509771Y37324896D01*
X39463991Y37409303D01*
X39340959Y37439345D01*
X39179299Y37383552D01*
X39112060Y37256227D01*
X38576538Y37256227D01*
X38587024Y37347309D01*
X38659986Y37530905D01*
X38781588Y37686842D01*
X38941658Y37805265D01*
X39130022Y37876319D01*
X39346681Y37900004D01*
X39543629Y37879339D01*
G37*
G36*
X42329514Y38503723D02*
G01*
X42408197Y38439345D01*
X42435379Y38362092D01*
X42439671Y38266241D01*
X42439671Y36678258D01*
X42435379Y36582407D01*
X42408197Y36503723D01*
X42329514Y36437915D01*
X42182160Y36417886D01*
X42029084Y36444353D01*
X41947539Y36523752D01*
X41808770Y36446499D01*
X41712918Y36431496D01*
X41644249Y36420747D01*
X41478774Y36445227D01*
X41325699Y36518665D01*
X41185021Y36641062D01*
X41072957Y36795251D01*
X41005718Y36964063D01*
X40984004Y37141778D01*
X41504049Y37141778D01*
X41566996Y36997285D01*
X41712918Y36935769D01*
X41855980Y36997285D01*
X41916066Y37141778D01*
X41855980Y37287700D01*
X41710057Y37347786D01*
X41564134Y37287700D01*
X41504049Y37141778D01*
X40984004Y37141778D01*
X40983305Y37147500D01*
X41005877Y37326168D01*
X41073592Y37492119D01*
X41186452Y37645354D01*
X41327606Y37767751D01*
X41480205Y37841189D01*
X41644249Y37865669D01*
X41800901Y37842064D01*
X41933233Y37771248D01*
X41933233Y38263380D01*
X41931803Y38337772D01*
X41943247Y38409303D01*
X41980443Y38469388D01*
X42054835Y38509446D01*
X42179299Y38523752D01*
X42329514Y38503723D01*
G37*
G36*
X21183591Y38394996D02*
G01*
X21262275Y38330619D01*
X21289456Y38251935D01*
X21295179Y38151792D01*
X21295179Y36675397D01*
X21289456Y36578115D01*
X21260844Y36500862D01*
X21182160Y36437915D01*
X21031946Y36417886D01*
X20883162Y36437915D01*
X20803047Y36503723D01*
X20775866Y36582407D01*
X20771574Y36681119D01*
X20771574Y37493709D01*
X20436810Y37038773D01*
X20419642Y37015883D01*
X20392461Y36984410D01*
X20355265Y36955798D01*
X20295179Y36930046D01*
X20216495Y36921463D01*
X20087740Y36950790D01*
X19993319Y37038773D01*
X19661416Y37490848D01*
X19661416Y36675397D01*
X19657124Y36579546D01*
X19629943Y36502293D01*
X19549828Y36437915D01*
X19398183Y36417886D01*
X19250830Y36437915D01*
X19173577Y36502293D01*
X19146395Y36580976D01*
X19140672Y36681119D01*
X19140672Y38157514D01*
X19144964Y38253366D01*
X19172146Y38330619D01*
X19252260Y38394996D01*
X19403906Y38415025D01*
X19479728Y38410733D01*
X19531230Y38403580D01*
X19568426Y38390705D01*
X19592747Y38376398D01*
X19614206Y38354939D01*
X19632804Y38334911D01*
X20216495Y37585268D01*
X20797325Y38332049D01*
X20883162Y38397858D01*
X21034807Y38415025D01*
X21183591Y38394996D01*
G37*
G36*
X11834362Y38430285D02*
G01*
X12016527Y38373060D01*
X12164993Y38277686D01*
X12267997Y38130333D01*
X12199328Y37954367D01*
X12030515Y37815597D01*
X11838813Y37868530D01*
X11805908Y37895712D01*
X11765851Y37928616D01*
X11710057Y37950075D01*
X11615637Y37960089D01*
X11509771Y37924324D01*
X11463991Y37837057D01*
X11514063Y37744067D01*
X11627082Y37693995D01*
X11801617Y37658230D01*
X11984735Y37613881D01*
X12146753Y37539489D01*
X12272289Y37430762D01*
X12352761Y37275540D01*
X12379585Y37061663D01*
X12367425Y36925039D01*
X12330944Y36801291D01*
X12206481Y36608158D01*
X12030515Y36480833D01*
X11834521Y36407872D01*
X11644249Y36386413D01*
X11484020Y36399288D01*
X11349542Y36430762D01*
X11239385Y36477972D01*
X11150687Y36532335D01*
X11082017Y36588129D01*
X11031946Y36638201D01*
X11000472Y36678258D01*
X10983305Y36698287D01*
X10911774Y36884267D01*
X11031946Y37067386D01*
X11150846Y37133512D01*
X11274832Y37114437D01*
X11403906Y37010161D01*
X11519785Y36905726D01*
X11632804Y36878544D01*
X11801617Y36920032D01*
X11853119Y37053079D01*
X11778727Y37141778D01*
X11554120Y37209016D01*
X11417854Y37245855D01*
X11309485Y37284839D01*
X11149256Y37376398D01*
X11034807Y37499431D01*
X10966137Y37653938D01*
X10943247Y37839918D01*
X10964548Y38005392D01*
X11028449Y38150838D01*
X11134950Y38276255D01*
X11273879Y38372424D01*
X11435061Y38430126D01*
X11618498Y38449360D01*
X11834362Y38430285D01*
G37*
G36*
X35605463Y38430285D02*
G01*
X35787628Y38373060D01*
X35936094Y38277686D01*
X36039099Y38130333D01*
X35970429Y37954367D01*
X35801617Y37815597D01*
X35609914Y37868530D01*
X35577010Y37895712D01*
X35536953Y37928616D01*
X35481159Y37950075D01*
X35386738Y37960089D01*
X35280873Y37924324D01*
X35235093Y37837057D01*
X35285165Y37744067D01*
X35398183Y37693995D01*
X35572718Y37658230D01*
X35755837Y37613881D01*
X35917854Y37539489D01*
X36043391Y37430762D01*
X36123863Y37275540D01*
X36150687Y37061663D01*
X36138526Y36925039D01*
X36102046Y36801291D01*
X35977582Y36608158D01*
X35801617Y36480833D01*
X35605622Y36407872D01*
X35415351Y36386413D01*
X35255122Y36399288D01*
X35120644Y36430762D01*
X35010486Y36477972D01*
X34921788Y36532335D01*
X34853119Y36588129D01*
X34803047Y36638201D01*
X34771574Y36678258D01*
X34754406Y36698287D01*
X34682876Y36884267D01*
X34803047Y37067386D01*
X34921947Y37133512D01*
X35045934Y37114437D01*
X35175007Y37010161D01*
X35290887Y36905726D01*
X35403906Y36878544D01*
X35572718Y36920032D01*
X35624220Y37053079D01*
X35549828Y37141778D01*
X35325222Y37209016D01*
X35188956Y37245855D01*
X35080587Y37284839D01*
X34920358Y37376398D01*
X34805908Y37499431D01*
X34737239Y37653938D01*
X34714349Y37839918D01*
X34735649Y38005392D01*
X34799550Y38150838D01*
X34906052Y38276255D01*
X35044980Y38372424D01*
X35206163Y38430126D01*
X35389599Y38449360D01*
X35605463Y38430285D01*
G37*
G36*
X24089806Y38424880D02*
G01*
X24267679Y38360026D01*
X24415351Y38251935D01*
X24525826Y38117457D01*
X24592111Y37973442D01*
X24614206Y37819889D01*
X24564850Y37610304D01*
X24416781Y37467958D01*
X24577010Y37313451D01*
X24634950Y37199002D01*
X24654263Y37061663D01*
X24629943Y36876478D01*
X24556981Y36713865D01*
X24435379Y36573823D01*
X24276581Y36466527D01*
X24092031Y36402149D01*
X23881731Y36380690D01*
X23686214Y36402149D01*
X23507864Y36466527D01*
X23346681Y36573823D01*
X23219515Y36709414D01*
X23143216Y36858675D01*
X23117783Y37021606D01*
X23189313Y37156799D01*
X23403906Y37201863D01*
X23561273Y37170390D01*
X23644249Y37035912D01*
X23649971Y37020175D01*
X23671431Y36985840D01*
X23714349Y36942922D01*
X23783019Y36908587D01*
X23884592Y36892851D01*
X24063419Y36937200D01*
X24130658Y37055941D01*
X24075579Y37180404D01*
X23910343Y37221892D01*
X23831660Y37221892D01*
X23765851Y37234768D01*
X23701474Y37270533D01*
X23667139Y37344925D01*
X23649971Y37470819D01*
X23668569Y37613881D01*
X23728655Y37688273D01*
X23801617Y37712593D01*
X23893176Y37716885D01*
X23913205Y37716885D01*
X24046252Y37735483D01*
X24087740Y37808444D01*
X24040529Y37907157D01*
X23910343Y37942922D01*
X23787310Y37914310D01*
X23704335Y37828473D01*
X23617226Y37710527D01*
X23497055Y37677146D01*
X23343820Y37728330D01*
X23202189Y37885697D01*
X23243677Y38083122D01*
X23247969Y38093137D01*
X23263705Y38124610D01*
X23292318Y38171820D01*
X23338097Y38229045D01*
X23401044Y38290562D01*
X23485451Y38349217D01*
X23591316Y38399288D01*
X23722933Y38433623D01*
X23881731Y38446499D01*
X24089806Y38424880D01*
G37*
D12*
%TO.C,C8*%
X26810580Y23370000D02*
X26529420Y23370000D01*
X26810580Y22350000D02*
X26529420Y22350000D01*
D10*
%TO.C,kibuzzard-673EAF7F*%
G36*
X48515413Y32237840D02*
G01*
X48555470Y32204936D01*
X48569061Y32165594D01*
X48571207Y32116237D01*
X48571207Y31378040D01*
X48569061Y31328684D01*
X48555470Y31290057D01*
X48515413Y31257868D01*
X48439590Y31247854D01*
X48365914Y31255722D01*
X48323711Y31286481D01*
X47953181Y31775751D01*
X47953181Y31378040D01*
X47951035Y31328684D01*
X47937445Y31290057D01*
X47897387Y31257868D01*
X47821565Y31247854D01*
X47747888Y31257868D01*
X47709261Y31290057D01*
X47695671Y31329399D01*
X47692809Y31379471D01*
X47692809Y32121960D01*
X47695671Y32169886D01*
X47709977Y32207797D01*
X47749319Y32238555D01*
X47824426Y32247854D01*
X47889519Y32239270D01*
X47926000Y32221388D01*
X47951751Y32192060D01*
X48309405Y31711373D01*
X48309405Y32121960D01*
X48312266Y32169170D01*
X48326572Y32207082D01*
X48366629Y32237840D01*
X48441021Y32247854D01*
X48515413Y32237840D01*
G37*
G36*
X49127716Y32240165D02*
G01*
X49219276Y32212804D01*
X49303682Y32167203D01*
X49380935Y32103362D01*
X49445402Y32026824D01*
X49491450Y31943133D01*
X49519079Y31852289D01*
X49528289Y31754292D01*
X49519079Y31653657D01*
X49491450Y31560622D01*
X49445402Y31475188D01*
X49380935Y31397353D01*
X49303414Y31332573D01*
X49218203Y31286302D01*
X49125302Y31258539D01*
X49024712Y31249285D01*
X48913124Y31249285D01*
X48781508Y31249285D01*
X48709261Y31259299D01*
X48669920Y31290057D01*
X48654898Y31330114D01*
X48651322Y31380901D01*
X48651322Y31511087D01*
X48913124Y31511087D01*
X49029004Y31511087D01*
X49119490Y31528433D01*
X49196386Y31580472D01*
X49248961Y31657189D01*
X49266486Y31748569D01*
X49248961Y31840129D01*
X49196386Y31917382D01*
X49119133Y31969957D01*
X49027573Y31987482D01*
X48913124Y31987482D01*
X48913124Y31511087D01*
X48651322Y31511087D01*
X48651322Y32120529D01*
X48653467Y32168455D01*
X48667058Y32207797D01*
X48707116Y32239986D01*
X48782938Y32249285D01*
X49029004Y32249285D01*
X49127716Y32240165D01*
G37*
G36*
X47262015Y32261266D02*
G01*
X47341593Y32245708D01*
X47416879Y32220851D01*
X47478217Y32187768D01*
X47518274Y32159156D01*
X47544741Y32129113D01*
X47558332Y32087625D01*
X47525427Y32007511D01*
X47472495Y31950644D01*
X47419562Y31931688D01*
X47342309Y31964592D01*
X47268990Y31994635D01*
X47180649Y32004649D01*
X47086586Y31986946D01*
X47007545Y31933834D01*
X46953897Y31854971D01*
X46936014Y31760014D01*
X46954612Y31662017D01*
X47010406Y31576896D01*
X47090878Y31517883D01*
X47183510Y31498212D01*
X47265771Y31502861D01*
X47326572Y31516810D01*
X47326572Y31639843D01*
X47220706Y31639843D01*
X47182080Y31641989D01*
X47152037Y31653433D01*
X47127716Y31687053D01*
X47120563Y31751431D01*
X47128432Y31814378D01*
X47154898Y31847997D01*
X47186372Y31859442D01*
X47224998Y31861588D01*
X47475356Y31861588D01*
X47530435Y31851574D01*
X47564054Y31832976D01*
X47581221Y31804363D01*
X47587659Y31772890D01*
X47588374Y31737124D01*
X47588374Y31443848D01*
X47554040Y31361588D01*
X47513625Y31322425D01*
X47461050Y31289342D01*
X47381889Y31258345D01*
X47287468Y31239747D01*
X47177788Y31233548D01*
X47078360Y31243294D01*
X46986085Y31272532D01*
X46900964Y31321263D01*
X46822995Y31389485D01*
X46757902Y31471298D01*
X46711407Y31560801D01*
X46683510Y31657994D01*
X46674211Y31762876D01*
X46683644Y31862884D01*
X46711944Y31955472D01*
X46759109Y32040638D01*
X46825141Y32118383D01*
X46904406Y32183163D01*
X46991271Y32229435D01*
X47085737Y32257198D01*
X47187802Y32266452D01*
X47262015Y32261266D01*
G37*
%TO.C,kibuzzard-673EA5FE*%
G36*
X5690458Y47198155D02*
G01*
X5721216Y47123763D01*
X5688312Y47045079D01*
X5619643Y47019328D01*
X5462275Y47019328D01*
X5462275Y47228197D01*
X5616782Y47228197D01*
X5690458Y47198155D01*
G37*
G36*
X7731867Y46990000D02*
G01*
X7227177Y46232966D01*
X6988741Y46232966D01*
X6834235Y46232966D01*
X5828513Y46232966D01*
X5028799Y46232966D01*
X4160415Y46232966D01*
X3778441Y46232966D01*
X3063133Y46232966D01*
X3063133Y46791860D01*
X3778441Y46791860D01*
X3791158Y46710394D01*
X3829307Y46635764D01*
X3892890Y46567969D01*
X3973482Y46514320D01*
X4062657Y46482132D01*
X4160415Y46471402D01*
X4265565Y46482132D01*
X4357840Y46514320D01*
X4437239Y46567969D01*
X4498040Y46637989D01*
X4534521Y46719296D01*
X4546681Y46811888D01*
X4537025Y46880558D01*
X4508055Y46937783D01*
X4427940Y47015036D01*
X4487465Y47072260D01*
X4585308Y47072260D01*
X4592461Y47006452D01*
X4624292Y46969971D01*
X4688312Y46957811D01*
X5028799Y46957811D01*
X5100329Y46970687D01*
X5125365Y47005737D01*
X5133234Y47070830D01*
X5124650Y47136638D01*
X5093892Y47172046D01*
X5030229Y47183848D01*
X4689743Y47183848D01*
X4621073Y47170973D01*
X4593892Y47136638D01*
X4585308Y47072260D01*
X4487465Y47072260D01*
X4501975Y47086209D01*
X4526653Y47191001D01*
X4515605Y47267778D01*
X4482463Y47339785D01*
X4466009Y47359814D01*
X5200473Y47359814D01*
X5200473Y46621617D01*
X5202618Y46572260D01*
X5216209Y46532918D01*
X5256266Y46500014D01*
X5330658Y46490000D01*
X5406481Y46500014D01*
X5446538Y46532203D01*
X5460129Y46570830D01*
X5462275Y46620186D01*
X5462275Y46758956D01*
X5595322Y46758956D01*
X5748398Y46551516D01*
X5828513Y46484993D01*
X5930086Y46524335D01*
X5998756Y46608741D01*
X5960129Y46707454D01*
X5857125Y46844793D01*
X5927066Y46922682D01*
X5969031Y47015195D01*
X5983019Y47122332D01*
X5974078Y47207275D01*
X5947254Y47284707D01*
X5906302Y47350694D01*
X5894152Y47362675D01*
X6026653Y47362675D01*
X6074578Y47271116D01*
X6332089Y46989285D01*
X6076009Y46707454D01*
X6026653Y46615179D01*
X6083162Y46524335D01*
X6180444Y46473548D01*
X6267711Y46532918D01*
X6508055Y46796152D01*
X6746967Y46532918D01*
X6834235Y46473548D01*
X6931517Y46524335D01*
X6988026Y46615179D01*
X6938670Y46707454D01*
X6682590Y46989285D01*
X6940101Y47271116D01*
X6988741Y47362675D01*
X6932947Y47455665D01*
X6835666Y47506452D01*
X6748398Y47447082D01*
X6508055Y47182418D01*
X6266281Y47447082D01*
X6179013Y47506452D01*
X6081731Y47455665D01*
X6026653Y47362675D01*
X5894152Y47362675D01*
X5854979Y47401302D01*
X5797397Y47439213D01*
X5737668Y47467110D01*
X5677761Y47484278D01*
X5619643Y47490000D01*
X5332089Y47490000D01*
X5256266Y47479986D01*
X5216209Y47447082D01*
X5202618Y47407740D01*
X5200473Y47359814D01*
X4466009Y47359814D01*
X4427225Y47407024D01*
X4353389Y47461070D01*
X4264453Y47493497D01*
X4160415Y47504306D01*
X4081016Y47497868D01*
X4015208Y47480701D01*
X3962275Y47455665D01*
X3920072Y47426338D01*
X3888598Y47395579D01*
X3865709Y47366967D01*
X3851402Y47343362D01*
X3843534Y47327625D01*
X3841388Y47322618D01*
X3820644Y47223906D01*
X3891460Y47145222D01*
X3968077Y47119630D01*
X4028163Y47136320D01*
X4071717Y47195293D01*
X4113205Y47238212D01*
X4174721Y47252518D01*
X4239814Y47234635D01*
X4263420Y47185279D01*
X4242676Y47148798D01*
X4176152Y47139499D01*
X4166138Y47139499D01*
X4120358Y47137353D01*
X4083877Y47125193D01*
X4053834Y47087997D01*
X4044535Y47016466D01*
X4053119Y46953519D01*
X4070287Y46916323D01*
X4102475Y46898441D01*
X4135380Y46892003D01*
X4174721Y46892003D01*
X4257339Y46871259D01*
X4284879Y46809027D01*
X4251259Y46749657D01*
X4161846Y46727482D01*
X4111059Y46735351D01*
X4076724Y46752518D01*
X4055265Y46773977D01*
X4044535Y46791144D01*
X4041674Y46799013D01*
X4000186Y46866252D01*
X3921503Y46881989D01*
X3814206Y46859456D01*
X3778441Y46791860D01*
X3063133Y46791860D01*
X3063133Y47747034D01*
X3778441Y47747034D01*
X6988741Y47747034D01*
X7227177Y47747034D01*
X7731867Y46990000D01*
G37*
%TO.C,kibuzzard-673EAF7B*%
G36*
X48872158Y29634177D02*
G01*
X49098196Y29077668D01*
X49324233Y29634177D01*
X49391472Y29715007D01*
X49497337Y29694263D01*
X49579598Y29625594D01*
X49563146Y29526881D01*
X49224090Y28781531D01*
X49174734Y28729313D01*
X49101057Y28710000D01*
X49020942Y28727883D01*
X48972302Y28781531D01*
X48633246Y29526881D01*
X48618940Y29626309D01*
X48699054Y29694263D01*
X48806350Y29715722D01*
X48872158Y29634177D01*
G37*
G36*
X48407209Y29711431D02*
G01*
X48456565Y29708569D01*
X48495191Y29694979D01*
X48527380Y29654921D01*
X48537394Y29576953D01*
X48528095Y29505422D01*
X48497337Y29467511D01*
X48460141Y29454635D01*
X48414362Y29452489D01*
X48194047Y29452489D01*
X48184033Y29376667D01*
X48208353Y29379528D01*
X48215506Y29379528D01*
X48302456Y29368321D01*
X48382093Y29334702D01*
X48454419Y29278670D01*
X48511643Y29207854D01*
X48545978Y29129886D01*
X48557423Y29044764D01*
X48546296Y28949946D01*
X48512915Y28865778D01*
X48457280Y28792260D01*
X48385272Y28735433D01*
X48302774Y28701337D01*
X48209784Y28689971D01*
X48132530Y28696230D01*
X48061000Y28715007D01*
X47963718Y28764363D01*
X47933675Y28790114D01*
X47879312Y28877382D01*
X47932244Y28974664D01*
X48020942Y29023305D01*
X48118224Y28976094D01*
X48201200Y28953205D01*
X48269869Y28974664D01*
X48294190Y29034750D01*
X48268439Y29094120D01*
X48205492Y29117725D01*
X48149698Y29097697D01*
X48069583Y29063362D01*
X47976593Y29091974D01*
X47912931Y29134893D01*
X47895048Y29176381D01*
X47947981Y29582675D01*
X47955134Y29622732D01*
X47971586Y29662074D01*
X48011643Y29699986D01*
X48079598Y29712861D01*
X48407209Y29711431D01*
G37*
%TO.C,kibuzzard-673EAF33*%
G36*
X48274567Y52554979D02*
G01*
X48323566Y52497039D01*
X48682650Y51754549D01*
X48701964Y51652976D01*
X48622564Y51582876D01*
X48516699Y51562132D01*
X48446599Y51644392D01*
X48380790Y51780300D01*
X48136155Y51780300D01*
X48028859Y51780300D01*
X47963051Y51642961D01*
X47891520Y51563562D01*
X47787085Y51584306D01*
X47706971Y51653691D01*
X47725569Y51754549D01*
X47845724Y52003476D01*
X48136155Y52003476D01*
X48270633Y52003476D01*
X48203394Y52142246D01*
X48136155Y52003476D01*
X47845724Y52003476D01*
X48084653Y52498469D01*
X48134725Y52553548D01*
X48204825Y52574292D01*
X48274567Y52554979D01*
G37*
G36*
X49405111Y52565708D02*
G01*
X49444453Y52532804D01*
X49458044Y52492747D01*
X49460905Y52444106D01*
X49460905Y51704478D01*
X49458044Y51655122D01*
X49443737Y51615780D01*
X49403680Y51584306D01*
X49327858Y51574292D01*
X49253466Y51584306D01*
X49213408Y51617210D01*
X49199818Y51656552D01*
X49197672Y51705908D01*
X49197672Y51854692D01*
X48850032Y51854692D01*
X48775640Y51864707D01*
X48735583Y51897611D01*
X48721992Y51936953D01*
X48719846Y51986309D01*
X48724138Y52032089D01*
X48834295Y52477010D01*
X48887943Y52571431D01*
X48995955Y52570000D01*
X49078931Y52528512D01*
X49098959Y52465565D01*
X49010261Y52100758D01*
X49197672Y52100758D01*
X49197672Y52451259D01*
X49199818Y52498469D01*
X49213408Y52535665D01*
X49254181Y52566423D01*
X49330719Y52575722D01*
X49405111Y52565708D01*
G37*
%TO.C,kibuzzard-673EA442*%
G36*
X19094185Y16645976D02*
G01*
X19145687Y16604131D01*
X19163927Y16552629D01*
X19167146Y16491470D01*
X19167146Y15772586D01*
X19152124Y15660998D01*
X19102768Y15600912D01*
X19043755Y15580526D01*
X18969721Y15577307D01*
X17860279Y15577307D01*
X17788391Y15580526D01*
X17729378Y15600912D01*
X17680021Y15660998D01*
X17665000Y15774732D01*
X17680021Y15886320D01*
X17729378Y15946406D01*
X17788391Y15966792D01*
X17862425Y15970011D01*
X18832382Y15970011D01*
X18832382Y16493616D01*
X18835601Y16554775D01*
X18852768Y16604131D01*
X18903197Y16645976D01*
X18999764Y16658852D01*
X19094185Y16645976D01*
G37*
G36*
X17922511Y19334818D02*
G01*
X17972940Y19292972D01*
X17990107Y19243616D01*
X17993326Y19182457D01*
X17993326Y18886320D01*
X18976159Y18886320D01*
X19048047Y18883101D01*
X19104914Y18862715D01*
X19152124Y18802629D01*
X19167146Y18691041D01*
X19152124Y18580526D01*
X19103841Y18522586D01*
X19045901Y18503273D01*
X18974013Y18500054D01*
X17993326Y18500054D01*
X17993326Y18201770D01*
X17990107Y18140612D01*
X17972940Y18092328D01*
X17922511Y18051556D01*
X17825944Y18038680D01*
X17732597Y18051556D01*
X17683240Y18093401D01*
X17666073Y18142758D01*
X17662854Y18203916D01*
X17662854Y19184603D01*
X17666073Y19245762D01*
X17683240Y19294045D01*
X17733670Y19334818D01*
X17828090Y19347693D01*
X17922511Y19334818D01*
G37*
G36*
X17975086Y17937822D02*
G01*
X18034099Y17888466D01*
X18054485Y17829453D01*
X18057704Y17755418D01*
X18057704Y17165290D01*
X18248691Y17165290D01*
X18248691Y17560139D01*
X18251910Y17629882D01*
X18270150Y17681384D01*
X18321652Y17722157D01*
X18420365Y17733959D01*
X18513712Y17722157D01*
X18563069Y17680311D01*
X18580236Y17627736D01*
X18583455Y17557994D01*
X18583455Y17165290D01*
X18971867Y17165290D01*
X19045901Y17162071D01*
X19103841Y17141685D01*
X19152124Y17081599D01*
X19167146Y16967865D01*
X19152124Y16856277D01*
X19102768Y16796191D01*
X19043755Y16775805D01*
X18969721Y16772586D01*
X17860279Y16772586D01*
X17706845Y16816577D01*
X17665000Y16974303D01*
X17665000Y17759710D01*
X17668219Y17831599D01*
X17688605Y17889539D01*
X17748691Y17937822D01*
X17862425Y17952843D01*
X17975086Y17937822D01*
G37*
D12*
%TO.C,R1*%
X17860242Y25605000D02*
X18334758Y25605000D01*
X17860242Y24560000D02*
X18334758Y24560000D01*
D11*
%TO.C,U2*%
X21412200Y26374702D02*
X21412200Y27279600D01*
X21412223Y29505300D02*
X21412200Y28549600D01*
X31546800Y29886300D02*
X21793200Y29886300D01*
X31546800Y25993700D02*
X21793200Y25993700D01*
X31927800Y26374700D02*
X31927800Y29505300D01*
X21412223Y29505300D02*
G75*
G02*
X21793200Y29886307I380927J80D01*
G01*
X21463000Y28549600D02*
G75*
G02*
X21463000Y27279600I0J-635000D01*
G01*
X21793200Y25993700D02*
G75*
G02*
X21412200Y26374702I-100J380900D01*
G01*
X31546800Y29886300D02*
G75*
G02*
X31927800Y29505298I100J-380900D01*
G01*
X31927802Y26374700D02*
G75*
G02*
X31546800Y25993700I-380900J-100D01*
G01*
D13*
X21270000Y25540000D02*
G75*
G02*
X21070000Y25540000I-100000J0D01*
G01*
X21070000Y25540000D02*
G75*
G02*
X21270000Y25540000I100000J0D01*
G01*
D12*
%TO.C,C7*%
X30620580Y33530000D02*
X30339420Y33530000D01*
X30620580Y32510000D02*
X30339420Y32510000D01*
D10*
%TO.C,kibuzzard-673EAED1*%
G36*
X4343446Y15732847D02*
G01*
X4392445Y15674907D01*
X4751529Y14932418D01*
X4770842Y14830844D01*
X4691443Y14760744D01*
X4585578Y14740000D01*
X4515477Y14822260D01*
X4449669Y14958169D01*
X4205034Y14958169D01*
X4097738Y14958169D01*
X4031930Y14820830D01*
X3960399Y14741431D01*
X3855964Y14762175D01*
X3775849Y14831559D01*
X3794447Y14932418D01*
X3914602Y15181345D01*
X4205034Y15181345D01*
X4339512Y15181345D01*
X4272273Y15320114D01*
X4205034Y15181345D01*
X3914602Y15181345D01*
X4153532Y15676338D01*
X4203603Y15731416D01*
X4273704Y15752160D01*
X4343446Y15732847D01*
G37*
G36*
X7268696Y15750014D02*
G01*
X7307323Y15736423D01*
X7339512Y15696366D01*
X7349526Y15620544D01*
X7339512Y15545436D01*
X7306608Y15506094D01*
X7267266Y15492504D01*
X7217910Y15490358D01*
X6824490Y15490358D01*
X6824490Y15363033D01*
X7087724Y15363033D01*
X7134219Y15360887D01*
X7168553Y15348727D01*
X7195735Y15314392D01*
X7203603Y15248584D01*
X7195735Y15186352D01*
X7167838Y15153448D01*
X7132788Y15142003D01*
X7086293Y15139857D01*
X6824490Y15139857D01*
X6824490Y14880916D01*
X6822344Y14831559D01*
X6808754Y14792933D01*
X6768696Y14760744D01*
X6692874Y14750730D01*
X6618482Y14760744D01*
X6578425Y14793648D01*
X6564834Y14832990D01*
X6562688Y14882346D01*
X6562688Y15621974D01*
X6592015Y15724263D01*
X6697166Y15752160D01*
X7220771Y15752160D01*
X7268696Y15750014D01*
G37*
G36*
X6407466Y15750014D02*
G01*
X6446093Y15736423D01*
X6478281Y15696366D01*
X6488296Y15620544D01*
X6478281Y15546152D01*
X6445377Y15506094D01*
X6406035Y15492504D01*
X6356679Y15490358D01*
X5961829Y15490358D01*
X5961829Y15363033D01*
X6226493Y15363033D01*
X6272988Y15360887D01*
X6307323Y15349442D01*
X6334505Y15315107D01*
X6342373Y15250014D01*
X6334505Y15186352D01*
X6306608Y15153448D01*
X6270842Y15142003D01*
X6223632Y15139857D01*
X5961829Y15139857D01*
X5961829Y15012532D01*
X6358110Y15012532D01*
X6407466Y15010386D01*
X6446093Y14996795D01*
X6478281Y14956738D01*
X6488296Y14880916D01*
X6478281Y14806524D01*
X6445377Y14766466D01*
X6406035Y14752876D01*
X6356679Y14750730D01*
X5830213Y14750730D01*
X5755821Y14760744D01*
X5715764Y14793648D01*
X5702173Y14832990D01*
X5700027Y14882346D01*
X5700027Y15621974D01*
X5729354Y15724263D01*
X5834505Y15752160D01*
X6358110Y15752160D01*
X6407466Y15750014D01*
G37*
G36*
X5308932Y15746438D02*
G01*
X5368839Y15729270D01*
X5428568Y15701373D01*
X5486150Y15663462D01*
X5537473Y15612854D01*
X5578425Y15546867D01*
X5605249Y15469435D01*
X5614190Y15384492D01*
X5600202Y15277355D01*
X5558237Y15184842D01*
X5488296Y15106953D01*
X5591300Y14969614D01*
X5629927Y14870901D01*
X5561257Y14786495D01*
X5459683Y14747153D01*
X5379569Y14813677D01*
X5226493Y15021116D01*
X5093446Y15021116D01*
X5093446Y14882346D01*
X5091300Y14832990D01*
X5077709Y14794363D01*
X5037652Y14762175D01*
X4961829Y14752160D01*
X4887437Y14762175D01*
X4847380Y14795079D01*
X4833789Y14834421D01*
X4831643Y14883777D01*
X4831643Y15281488D01*
X5093446Y15281488D01*
X5250814Y15281488D01*
X5319483Y15307239D01*
X5352387Y15385923D01*
X5321629Y15460315D01*
X5247952Y15490358D01*
X5093446Y15490358D01*
X5093446Y15281488D01*
X4831643Y15281488D01*
X4831643Y15621974D01*
X4833789Y15669900D01*
X4847380Y15709242D01*
X4887437Y15742146D01*
X4963260Y15752160D01*
X5250814Y15752160D01*
X5308932Y15746438D01*
G37*
%TO.C,kibuzzard-673EAEA7*%
G36*
X4437943Y37319986D02*
G01*
X4478001Y37287082D01*
X4491592Y37247740D01*
X4493737Y37198383D01*
X4480683Y37115050D01*
X4441520Y37016695D01*
X4386978Y36914943D01*
X4327786Y36821416D01*
X4268594Y36727532D01*
X4214052Y36624707D01*
X4174889Y36525279D01*
X4161835Y36441588D01*
X4158974Y36396524D01*
X4143952Y36362904D01*
X4103895Y36337868D01*
X4030218Y36330000D01*
X3955111Y36337153D01*
X3915769Y36362904D01*
X3901463Y36397239D01*
X3898602Y36444449D01*
X3908616Y36547990D01*
X3938659Y36655465D01*
X3980683Y36755787D01*
X4026642Y36837868D01*
X4074567Y36909757D01*
X4122493Y36979499D01*
X4177572Y37068197D01*
X3891448Y37068197D01*
X3842808Y37071059D01*
X3803466Y37085365D01*
X3771277Y37125422D01*
X3761263Y37199814D01*
X3771277Y37273491D01*
X3801320Y37312833D01*
X3838516Y37327139D01*
X3884295Y37330000D01*
X4363552Y37330000D01*
X4437943Y37319986D01*
G37*
D14*
%TO.C,J1*%
X17655000Y12180000D02*
X17655000Y10980000D01*
X17655000Y12180000D02*
X24255000Y12180000D01*
X17655000Y6980000D02*
X17655000Y9380000D01*
X17655000Y3980000D02*
X17655000Y5380000D01*
X17655000Y480000D02*
X17655000Y2380000D01*
X24255000Y480000D02*
X24255000Y10480000D01*
D10*
%TO.C,kibuzzard-673EAE7C*%
G36*
X4374996Y39876438D02*
G01*
X4412908Y39862132D01*
X4443666Y39822790D01*
X4452965Y39747682D01*
X4442951Y39673290D01*
X4410046Y39633233D01*
X4370705Y39619642D01*
X4321348Y39617496D01*
X4227107Y39606052D01*
X4156112Y39571717D01*
X4105147Y39523791D01*
X4070991Y39471574D01*
X4146813Y39485880D01*
X4232571Y39475945D01*
X4310539Y39446141D01*
X4380719Y39396466D01*
X4435957Y39333599D01*
X4469099Y39264214D01*
X4480147Y39188312D01*
X4469099Y39101442D01*
X4435957Y39023950D01*
X4380719Y38955837D01*
X4309427Y38902984D01*
X4228120Y38871272D01*
X4136799Y38860701D01*
X4131077Y38861367D01*
X4032285Y38872861D01*
X3943825Y38909342D01*
X3871420Y38970143D01*
X3817772Y39052244D01*
X3785583Y39152626D01*
X3782744Y39184020D01*
X4043809Y39184020D01*
X4063838Y39123934D01*
X4131077Y39105336D01*
X4199746Y39123219D01*
X4221205Y39181159D01*
X4198315Y39231946D01*
X4139660Y39251259D01*
X4069560Y39232661D01*
X4043809Y39184020D01*
X3782744Y39184020D01*
X3774853Y39271288D01*
X3780976Y39375379D01*
X3799345Y39471345D01*
X3829961Y39559185D01*
X3872822Y39638898D01*
X3927929Y39710486D01*
X4010279Y39784342D01*
X4104253Y39837096D01*
X4209850Y39868748D01*
X4327071Y39879299D01*
X4374996Y39876438D01*
G37*
%TO.C,kibuzzard-673EAEB6*%
G36*
X4392067Y25872818D02*
G01*
X4420680Y25770529D01*
X4420680Y25026609D01*
X4392067Y24926466D01*
X4290494Y24897854D01*
X4190351Y24926466D01*
X4161738Y25028040D01*
X4161738Y25511588D01*
X4147432Y25498712D01*
X4059449Y25457225D01*
X3974328Y25507296D01*
X3929979Y25601717D01*
X3946431Y25647496D01*
X3990064Y25696137D01*
X4171753Y25859227D01*
X4194642Y25877825D01*
X4291924Y25902146D01*
X4392067Y25872818D01*
G37*
G36*
X4934270Y25872818D02*
G01*
X4962883Y25770529D01*
X4962883Y25026609D01*
X4934270Y24926466D01*
X4832697Y24897854D01*
X4732554Y24926466D01*
X4703941Y25028040D01*
X4703941Y25511588D01*
X4689635Y25498712D01*
X4601652Y25457225D01*
X4516531Y25507296D01*
X4472182Y25601717D01*
X4488634Y25647496D01*
X4532268Y25696137D01*
X4713956Y25859227D01*
X4736845Y25877825D01*
X4834127Y25902146D01*
X4934270Y25872818D01*
G37*
%TO.C,kibuzzard-673EAF71*%
G36*
X49501774Y24645737D02*
G01*
X47018226Y24645737D01*
X47018226Y24764955D01*
X49501774Y24764955D01*
X49501774Y24645737D01*
G37*
G36*
X49433820Y24510067D02*
G01*
X49466009Y24498622D01*
X49493190Y24465002D01*
X49501774Y24402055D01*
X49493190Y24339108D01*
X49465293Y24305489D01*
X49432389Y24294044D01*
X49391617Y24291898D01*
X49194192Y24291898D01*
X49194192Y23636676D01*
X49192046Y23588751D01*
X49178455Y23550839D01*
X49138398Y23519366D01*
X49064006Y23509351D01*
X48990329Y23519366D01*
X48951702Y23551555D01*
X48938827Y23590181D01*
X48936681Y23638107D01*
X48936681Y24291898D01*
X48737825Y24291898D01*
X48697053Y24294044D01*
X48664864Y24305489D01*
X48637682Y24339108D01*
X48629099Y24403486D01*
X48637682Y24465718D01*
X48665579Y24498622D01*
X48698484Y24510067D01*
X48739256Y24512213D01*
X49393047Y24512213D01*
X49433820Y24510067D01*
G37*
G36*
X47495515Y24505060D02*
G01*
X47555422Y24487892D01*
X47615150Y24459995D01*
X47672732Y24422084D01*
X47724056Y24371476D01*
X47765007Y24305489D01*
X47791831Y24228057D01*
X47800773Y24143114D01*
X47786784Y24035977D01*
X47744820Y23943464D01*
X47674878Y23865575D01*
X47777883Y23728236D01*
X47816509Y23629523D01*
X47747840Y23545117D01*
X47646266Y23505775D01*
X47566152Y23572299D01*
X47413076Y23779738D01*
X47280029Y23779738D01*
X47280029Y23640968D01*
X47277883Y23591612D01*
X47264292Y23552985D01*
X47224235Y23520796D01*
X47148412Y23510782D01*
X47074020Y23520796D01*
X47033963Y23553701D01*
X47020372Y23593042D01*
X47018226Y23642399D01*
X47018226Y24040110D01*
X47280029Y24040110D01*
X47437396Y24040110D01*
X47506066Y24065861D01*
X47538970Y24144545D01*
X47508212Y24218937D01*
X47434535Y24248979D01*
X47280029Y24248979D01*
X47280029Y24040110D01*
X47018226Y24040110D01*
X47018226Y24380596D01*
X47020372Y24428522D01*
X47033963Y24467864D01*
X47074020Y24500768D01*
X47149843Y24510782D01*
X47437396Y24510782D01*
X47495515Y24505060D01*
G37*
G36*
X48314999Y24516981D02*
G01*
X48406082Y24488369D01*
X48480315Y24440682D01*
X48531817Y24367005D01*
X48497482Y24279022D01*
X48413076Y24209638D01*
X48317225Y24236104D01*
X48300773Y24249695D01*
X48280744Y24266147D01*
X48252847Y24276876D01*
X48205637Y24281884D01*
X48152704Y24264001D01*
X48129814Y24220367D01*
X48154850Y24173872D01*
X48211359Y24148836D01*
X48298627Y24130954D01*
X48390186Y24108779D01*
X48471195Y24071583D01*
X48533963Y24017220D01*
X48574199Y23939609D01*
X48587611Y23832670D01*
X48581531Y23764359D01*
X48563290Y23702485D01*
X48501059Y23605918D01*
X48413076Y23542256D01*
X48315079Y23505775D01*
X48219943Y23495045D01*
X48139828Y23501483D01*
X48072589Y23517220D01*
X48017511Y23540825D01*
X47973162Y23568007D01*
X47938827Y23595904D01*
X47913791Y23620939D01*
X47898054Y23640968D01*
X47889471Y23650982D01*
X47853705Y23743972D01*
X47913791Y23835532D01*
X47973241Y23868595D01*
X48035234Y23859057D01*
X48099771Y23806919D01*
X48157711Y23754702D01*
X48214220Y23741111D01*
X48298627Y23761855D01*
X48324378Y23828379D01*
X48287182Y23872728D01*
X48174878Y23906347D01*
X48106745Y23924766D01*
X48052561Y23944258D01*
X47972446Y23990038D01*
X47915222Y24051555D01*
X47880887Y24128808D01*
X47869442Y24221798D01*
X47880092Y24304535D01*
X47912043Y24377258D01*
X47965293Y24439967D01*
X48034758Y24488051D01*
X48115349Y24516902D01*
X48207067Y24526519D01*
X48314999Y24516981D01*
G37*
%TO.C,kibuzzard-673EAEE5*%
G36*
X5792446Y10649986D02*
G01*
X5832504Y10617082D01*
X5846094Y10577740D01*
X5848240Y10528383D01*
X5848240Y9881745D01*
X6197310Y9881745D01*
X6238083Y9879599D01*
X6270987Y9868155D01*
X6298884Y9834535D01*
X6307468Y9770157D01*
X6298884Y9707210D01*
X6270987Y9672876D01*
X6236652Y9660715D01*
X6195880Y9658569D01*
X5716624Y9658569D01*
X5642232Y9668584D01*
X5602175Y9701488D01*
X5588584Y9740830D01*
X5586438Y9790186D01*
X5586438Y10529814D01*
X5588584Y10577740D01*
X5602175Y10617082D01*
X5642232Y10649986D01*
X5718054Y10660000D01*
X5792446Y10649986D01*
G37*
G36*
X4319549Y10666199D02*
G01*
X4410631Y10637587D01*
X4484864Y10589900D01*
X4536366Y10516223D01*
X4502031Y10428240D01*
X4417625Y10358856D01*
X4321774Y10385322D01*
X4305322Y10398913D01*
X4285293Y10415365D01*
X4257396Y10426094D01*
X4210186Y10431102D01*
X4157253Y10413219D01*
X4134363Y10369585D01*
X4159399Y10323090D01*
X4215908Y10298054D01*
X4303176Y10280172D01*
X4394735Y10257997D01*
X4475744Y10220801D01*
X4538512Y10166438D01*
X4578748Y10088827D01*
X4592160Y9981888D01*
X4586080Y9913577D01*
X4567840Y9851702D01*
X4505608Y9755136D01*
X4417625Y9691474D01*
X4319628Y9654993D01*
X4224492Y9644263D01*
X4144378Y9650701D01*
X4077139Y9666438D01*
X4022060Y9690043D01*
X3977711Y9717225D01*
X3943376Y9745122D01*
X3918340Y9770157D01*
X3902604Y9790186D01*
X3894020Y9800200D01*
X3858255Y9893190D01*
X3918340Y9984750D01*
X3977790Y10017813D01*
X4039784Y10008275D01*
X4104320Y9956137D01*
X4162260Y9903920D01*
X4218770Y9890329D01*
X4303176Y9911073D01*
X4328927Y9977597D01*
X4291731Y10021946D01*
X4179428Y10055565D01*
X4111295Y10073984D01*
X4057110Y10093476D01*
X3976996Y10139256D01*
X3919771Y10200773D01*
X3885436Y10278026D01*
X3873991Y10371016D01*
X3884642Y10453753D01*
X3916592Y10526476D01*
X3969843Y10589185D01*
X4039307Y10637269D01*
X4119898Y10666120D01*
X4211617Y10675737D01*
X4319549Y10666199D01*
G37*
G36*
X5239593Y10661113D02*
G01*
X5327337Y10634408D01*
X5417625Y10589900D01*
X5456252Y10562718D01*
X5482718Y10532675D01*
X5496309Y10489757D01*
X5464835Y10409642D01*
X5411187Y10351702D01*
X5361831Y10332389D01*
X5284578Y10365293D01*
X5275279Y10371731D01*
X5263119Y10379599D01*
X5249528Y10387468D01*
X5230215Y10394621D01*
X5207325Y10400343D01*
X5178712Y10405351D01*
X5144378Y10406781D01*
X5062833Y10392475D01*
X4982003Y10350272D01*
X4918340Y10272303D01*
X4900100Y10218655D01*
X4894020Y10157854D01*
X4904928Y10079707D01*
X4937654Y10014077D01*
X4983970Y9963827D01*
X5035651Y9931817D01*
X5144378Y9908927D01*
X5219843Y9920730D01*
X5291731Y9956137D01*
X5363262Y9984750D01*
X5411903Y9964363D01*
X5463405Y9903205D01*
X5494878Y9820229D01*
X5474850Y9768011D01*
X5416195Y9724378D01*
X5331311Y9679870D01*
X5242613Y9653165D01*
X5150100Y9644263D01*
X5089478Y9648555D01*
X5024921Y9661431D01*
X4957325Y9684499D01*
X4887582Y9719371D01*
X4820522Y9764435D01*
X4760973Y9818083D01*
X4710007Y9884070D01*
X4668698Y9966152D01*
X4641338Y10060930D01*
X4632217Y10165007D01*
X4641159Y10265150D01*
X4667983Y10356710D01*
X4708755Y10436288D01*
X4759542Y10500486D01*
X4819092Y10552704D01*
X4886152Y10596338D01*
X4956252Y10630136D01*
X5024921Y10652847D01*
X5091266Y10665722D01*
X5154392Y10670014D01*
X5239593Y10661113D01*
G37*
D12*
%TO.C,R2*%
X13889758Y10047500D02*
X13415242Y10047500D01*
X13889758Y9002500D02*
X13415242Y9002500D01*
%TO.C,R6*%
X30242742Y23382500D02*
X30717258Y23382500D01*
X30242742Y22337500D02*
X30717258Y22337500D01*
%TO.C,R9*%
X42307742Y28462500D02*
X42782258Y28462500D01*
X42307742Y27417500D02*
X42782258Y27417500D01*
D10*
%TO.C,kibuzzard-673EAE53*%
G36*
X5640898Y55075665D02*
G01*
X5696692Y54982675D01*
X5648051Y54891116D01*
X5390540Y54609285D01*
X5646620Y54327454D01*
X5695976Y54235179D01*
X5639467Y54144335D01*
X5542185Y54093548D01*
X5454918Y54152918D01*
X5216005Y54416152D01*
X4975662Y54152918D01*
X4888394Y54093548D01*
X4791112Y54144335D01*
X4734603Y54235179D01*
X4783959Y54327454D01*
X5040039Y54609285D01*
X4782529Y54891116D01*
X4734603Y54982675D01*
X4789682Y55075665D01*
X4886964Y55126452D01*
X4974231Y55067082D01*
X5216005Y54802418D01*
X5456348Y55067082D01*
X5543616Y55126452D01*
X5640898Y55075665D01*
G37*
G36*
X4633029Y55109285D02*
G01*
X4665218Y55097840D01*
X4692400Y55064220D01*
X4700984Y55001273D01*
X4692400Y54938326D01*
X4664503Y54904707D01*
X4631599Y54893262D01*
X4590826Y54891116D01*
X4393401Y54891116D01*
X4393401Y54235894D01*
X4391255Y54187969D01*
X4377665Y54150057D01*
X4337607Y54118584D01*
X4263215Y54108569D01*
X4189539Y54118584D01*
X4150912Y54150773D01*
X4138036Y54189399D01*
X4135891Y54237325D01*
X4135891Y54891116D01*
X3937035Y54891116D01*
X3896263Y54893262D01*
X3864074Y54904707D01*
X3836892Y54938326D01*
X3828308Y55002704D01*
X3836892Y55064936D01*
X3864789Y55097840D01*
X3897693Y55109285D01*
X3938466Y55111431D01*
X4592257Y55111431D01*
X4633029Y55109285D01*
G37*
%TO.C,kibuzzard-673EAF45*%
G36*
X47390186Y37244878D02*
G01*
X47616223Y36688369D01*
X47842260Y37244878D01*
X47909499Y37325708D01*
X48015365Y37304964D01*
X48097625Y37236295D01*
X48081173Y37137582D01*
X47742117Y36392232D01*
X47692761Y36340014D01*
X47619084Y36320701D01*
X47538970Y36338584D01*
X47490329Y36392232D01*
X47151273Y37137582D01*
X47136967Y37237010D01*
X47217082Y37304964D01*
X47324378Y37326423D01*
X47390186Y37244878D01*
G37*
G36*
X48383033Y37310687D02*
G01*
X48423090Y37277783D01*
X48436681Y37238441D01*
X48438827Y37189084D01*
X48438827Y36449456D01*
X48436681Y36400100D01*
X48423090Y36361474D01*
X48383033Y36329285D01*
X48307210Y36319270D01*
X48232818Y36329285D01*
X48192761Y36362189D01*
X48179170Y36401531D01*
X48177024Y36450887D01*
X48177024Y37190515D01*
X48179170Y37238441D01*
X48192761Y37277783D01*
X48232818Y37310687D01*
X48308641Y37320701D01*
X48383033Y37310687D01*
G37*
G36*
X49341545Y37309256D02*
G01*
X49381602Y37276352D01*
X49395193Y37237010D01*
X49397339Y37187654D01*
X49397339Y36449456D01*
X49395193Y36400100D01*
X49381602Y36361474D01*
X49341545Y36329285D01*
X49265722Y36319270D01*
X49192046Y36327139D01*
X49149843Y36357897D01*
X48779313Y36847167D01*
X48779313Y36449456D01*
X48777167Y36400100D01*
X48763577Y36361474D01*
X48723519Y36329285D01*
X48647697Y36319270D01*
X48574020Y36329285D01*
X48535393Y36361474D01*
X48521803Y36400815D01*
X48518941Y36450887D01*
X48518941Y37193376D01*
X48521803Y37241302D01*
X48536109Y37279213D01*
X48575451Y37309971D01*
X48650558Y37319270D01*
X48715651Y37310687D01*
X48752132Y37292804D01*
X48777883Y37263476D01*
X49135536Y36782790D01*
X49135536Y37193376D01*
X49138398Y37240587D01*
X49152704Y37278498D01*
X49192761Y37309256D01*
X49267153Y37319270D01*
X49341545Y37309256D01*
G37*
D11*
%TO.C,Q1*%
X16697500Y28640000D02*
X16697500Y27840000D01*
X17297500Y28640000D02*
X16697500Y28640000D01*
X18897500Y28640000D02*
X19497500Y28640000D01*
X19497500Y28640000D02*
X19497500Y27840000D01*
D10*
%TO.C,kibuzzard-673EAEAD*%
G36*
X4219775Y33529696D02*
G01*
X4298935Y33498700D01*
X4368559Y33447039D01*
X4422604Y33380436D01*
X4455031Y33304613D01*
X4465840Y33219571D01*
X4447958Y33138026D01*
X4394310Y33056481D01*
X4395740Y33055050D01*
X4394310Y33053619D01*
X4449945Y32987811D01*
X4483326Y32918188D01*
X4494453Y32844750D01*
X4481895Y32748342D01*
X4444222Y32665128D01*
X4381434Y32595107D01*
X4303386Y32542254D01*
X4219934Y32510542D01*
X4131077Y32499971D01*
X4129646Y32500129D01*
X4031808Y32510939D01*
X3943825Y32543844D01*
X3869274Y32597149D01*
X3867128Y32598684D01*
X3807916Y32669897D01*
X3772390Y32751919D01*
X3761277Y32839027D01*
X4022350Y32839027D01*
X4050962Y32773934D01*
X4129646Y32750329D01*
X4205469Y32773934D01*
X4232650Y32839027D01*
X4204753Y32902690D01*
X4129646Y32924050D01*
X4126785Y32924864D01*
X4049531Y32901974D01*
X4022350Y32839027D01*
X3761277Y32839027D01*
X3760547Y32844750D01*
X3771833Y32920095D01*
X3805691Y32989719D01*
X3862121Y33053619D01*
X3860690Y33055050D01*
X3862121Y33056481D01*
X3863552Y33055050D01*
X3862121Y33053619D01*
X3869274Y33047897D01*
X3869274Y33049328D01*
X3863552Y33055050D01*
X3870092Y33060773D01*
X4385726Y33060773D01*
X4392879Y33055050D01*
X4394310Y33056481D01*
X4388587Y33060773D01*
X4385726Y33060773D01*
X3870092Y33060773D01*
X3874996Y33065064D01*
X3873566Y33065064D01*
X3862121Y33056481D01*
X3807400Y33133019D01*
X3789160Y33225293D01*
X3789351Y33226724D01*
X4053823Y33226724D01*
X4073852Y33182375D01*
X4129646Y33166638D01*
X4185440Y33181660D01*
X4204038Y33226724D01*
X4184009Y33271073D01*
X4128215Y33286810D01*
X4072421Y33271788D01*
X4053823Y33226724D01*
X3789351Y33226724D01*
X3800287Y33308587D01*
X3833668Y33382979D01*
X3889303Y33448469D01*
X3960674Y33499336D01*
X4041266Y33529855D01*
X4131077Y33540029D01*
X4219775Y33529696D01*
G37*
%TO.C,kibuzzard-673EAE78*%
G36*
X4316341Y42420014D02*
G01*
X4365697Y42417153D01*
X4404324Y42403562D01*
X4436513Y42363505D01*
X4446527Y42285536D01*
X4437228Y42214006D01*
X4406470Y42176094D01*
X4369274Y42163219D01*
X4323494Y42161073D01*
X4103180Y42161073D01*
X4093165Y42085250D01*
X4117486Y42088112D01*
X4124639Y42088112D01*
X4211588Y42076905D01*
X4291226Y42043286D01*
X4363552Y41987253D01*
X4420776Y41916438D01*
X4455111Y41838469D01*
X4466556Y41753348D01*
X4455429Y41658530D01*
X4422048Y41574362D01*
X4366413Y41500844D01*
X4294405Y41444017D01*
X4211906Y41409921D01*
X4118916Y41398555D01*
X4041663Y41404814D01*
X3970132Y41423591D01*
X3872851Y41472947D01*
X3842808Y41498698D01*
X3788444Y41585966D01*
X3841377Y41683247D01*
X3930075Y41731888D01*
X4027357Y41684678D01*
X4110333Y41661788D01*
X4179002Y41683247D01*
X4203323Y41743333D01*
X4177572Y41802704D01*
X4114624Y41826309D01*
X4058830Y41806280D01*
X3978716Y41771946D01*
X3885726Y41800558D01*
X3822064Y41843476D01*
X3804181Y41884964D01*
X3857114Y42291259D01*
X3864267Y42331316D01*
X3880719Y42370658D01*
X3920776Y42408569D01*
X3988730Y42421445D01*
X4316341Y42420014D01*
G37*
%TO.C,kibuzzard-673EAF83*%
G36*
X48515413Y34777840D02*
G01*
X48555470Y34744936D01*
X48569061Y34705594D01*
X48571207Y34656237D01*
X48571207Y33918040D01*
X48569061Y33868684D01*
X48555470Y33830057D01*
X48515413Y33797868D01*
X48439590Y33787854D01*
X48365914Y33795722D01*
X48323711Y33826481D01*
X47953181Y34315751D01*
X47953181Y33918040D01*
X47951035Y33868684D01*
X47937445Y33830057D01*
X47897387Y33797868D01*
X47821565Y33787854D01*
X47747888Y33797868D01*
X47709261Y33830057D01*
X47695671Y33869399D01*
X47692809Y33919471D01*
X47692809Y34661960D01*
X47695671Y34709886D01*
X47709977Y34747797D01*
X47749319Y34778555D01*
X47824426Y34787854D01*
X47889519Y34779270D01*
X47926000Y34761388D01*
X47951751Y34732060D01*
X48309405Y34251373D01*
X48309405Y34661960D01*
X48312266Y34709170D01*
X48326572Y34747082D01*
X48366629Y34777840D01*
X48441021Y34787854D01*
X48515413Y34777840D01*
G37*
G36*
X49127716Y34780165D02*
G01*
X49219276Y34752804D01*
X49303682Y34707203D01*
X49380935Y34643362D01*
X49445402Y34566824D01*
X49491450Y34483133D01*
X49519079Y34392289D01*
X49528289Y34294292D01*
X49519079Y34193657D01*
X49491450Y34100622D01*
X49445402Y34015188D01*
X49380935Y33937353D01*
X49303414Y33872573D01*
X49218203Y33826302D01*
X49125302Y33798539D01*
X49024712Y33789285D01*
X48913124Y33789285D01*
X48781508Y33789285D01*
X48709261Y33799299D01*
X48669920Y33830057D01*
X48654898Y33870114D01*
X48651322Y33920901D01*
X48651322Y34051087D01*
X48913124Y34051087D01*
X49029004Y34051087D01*
X49119490Y34068433D01*
X49196386Y34120472D01*
X49248961Y34197189D01*
X49266486Y34288569D01*
X49248961Y34380129D01*
X49196386Y34457382D01*
X49119133Y34509957D01*
X49027573Y34527482D01*
X48913124Y34527482D01*
X48913124Y34051087D01*
X48651322Y34051087D01*
X48651322Y34660529D01*
X48653467Y34708455D01*
X48667058Y34747797D01*
X48707116Y34779986D01*
X48782938Y34789285D01*
X49029004Y34789285D01*
X49127716Y34780165D01*
G37*
G36*
X47262015Y34801266D02*
G01*
X47341593Y34785708D01*
X47416879Y34760851D01*
X47478217Y34727768D01*
X47518274Y34699156D01*
X47544741Y34669113D01*
X47558332Y34627625D01*
X47525427Y34547511D01*
X47472495Y34490644D01*
X47419562Y34471688D01*
X47342309Y34504592D01*
X47268990Y34534635D01*
X47180649Y34544649D01*
X47086586Y34526946D01*
X47007545Y34473834D01*
X46953897Y34394971D01*
X46936014Y34300014D01*
X46954612Y34202017D01*
X47010406Y34116896D01*
X47090878Y34057883D01*
X47183510Y34038212D01*
X47265771Y34042861D01*
X47326572Y34056810D01*
X47326572Y34179843D01*
X47220706Y34179843D01*
X47182080Y34181989D01*
X47152037Y34193433D01*
X47127716Y34227053D01*
X47120563Y34291431D01*
X47128432Y34354378D01*
X47154898Y34387997D01*
X47186372Y34399442D01*
X47224998Y34401588D01*
X47475356Y34401588D01*
X47530435Y34391574D01*
X47564054Y34372976D01*
X47581221Y34344363D01*
X47587659Y34312890D01*
X47588374Y34277124D01*
X47588374Y33983848D01*
X47554040Y33901588D01*
X47513625Y33862425D01*
X47461050Y33829342D01*
X47381889Y33798345D01*
X47287468Y33779747D01*
X47177788Y33773548D01*
X47078360Y33783294D01*
X46986085Y33812532D01*
X46900964Y33861263D01*
X46822995Y33929485D01*
X46757902Y34011298D01*
X46711407Y34100801D01*
X46683510Y34197994D01*
X46674211Y34302876D01*
X46683644Y34402884D01*
X46711944Y34495472D01*
X46759109Y34580638D01*
X46825141Y34658383D01*
X46904406Y34723163D01*
X46991271Y34769435D01*
X47085737Y34797198D01*
X47187802Y34806452D01*
X47262015Y34801266D01*
G37*
%TO.C,kibuzzard-673AC551*%
G36*
X47547436Y9009292D02*
G01*
X47637296Y8983541D01*
X47726888Y8941695D01*
X47813262Y8884828D01*
X47890247Y8808916D01*
X47951674Y8709936D01*
X47991910Y8593788D01*
X48005322Y8466373D01*
X47984340Y8305668D01*
X47921392Y8166898D01*
X47816481Y8050064D01*
X47970987Y7844056D01*
X48028927Y7695987D01*
X47925923Y7569378D01*
X47773562Y7510365D01*
X47653391Y7610150D01*
X47423777Y7921309D01*
X47224206Y7921309D01*
X47224206Y7713155D01*
X47220987Y7639120D01*
X47200601Y7581180D01*
X47140515Y7532897D01*
X47026781Y7517876D01*
X46915193Y7532897D01*
X46855107Y7582253D01*
X46834721Y7641266D01*
X46831502Y7715300D01*
X46831502Y8311867D01*
X47224206Y8311867D01*
X47460258Y8311867D01*
X47563262Y8350494D01*
X47612618Y8468519D01*
X47566481Y8580107D01*
X47455966Y8625172D01*
X47224206Y8625172D01*
X47224206Y8311867D01*
X46831502Y8311867D01*
X46831502Y8822597D01*
X46834721Y8894485D01*
X46855107Y8953498D01*
X46915193Y9002854D01*
X47028927Y9017876D01*
X47460258Y9017876D01*
X47547436Y9009292D01*
G37*
G36*
X48820415Y8613965D02*
G01*
X48943090Y8567470D01*
X49040730Y8489979D01*
X49136491Y8346738D01*
X49168412Y8195987D01*
X49153659Y8089496D01*
X49109399Y8010365D01*
X49040998Y7961277D01*
X48953820Y7944914D01*
X48496738Y7944914D01*
X48561116Y7863369D01*
X48687725Y7833326D01*
X48861545Y7861223D01*
X48960258Y7889120D01*
X49031073Y7863369D01*
X49089013Y7786116D01*
X49116910Y7687403D01*
X49089013Y7601969D01*
X49005322Y7540944D01*
X48865837Y7504329D01*
X48670558Y7492124D01*
X48526781Y7505268D01*
X48400172Y7544700D01*
X48295290Y7605590D01*
X48216695Y7683112D01*
X48159292Y7771094D01*
X48117983Y7863369D01*
X48093036Y7958863D01*
X48084721Y8056502D01*
X48095097Y8146631D01*
X48496738Y8146631D01*
X48737082Y8146631D01*
X48795021Y8198133D01*
X48760687Y8261438D01*
X48668412Y8283970D01*
X48547167Y8242124D01*
X48496738Y8146631D01*
X48095097Y8146631D01*
X48102961Y8214943D01*
X48157682Y8352639D01*
X48248884Y8469592D01*
X48368937Y8558410D01*
X48510210Y8611700D01*
X48672704Y8629464D01*
X48820415Y8613965D01*
G37*
G36*
X50949170Y8613965D02*
G01*
X51071845Y8567470D01*
X51169485Y8489979D01*
X51265247Y8346738D01*
X51297167Y8195987D01*
X51282414Y8089496D01*
X51238155Y8010365D01*
X51169753Y7961277D01*
X51082575Y7944914D01*
X50625494Y7944914D01*
X50689871Y7863369D01*
X50816481Y7833326D01*
X50990300Y7861223D01*
X51089013Y7889120D01*
X51159828Y7863369D01*
X51217768Y7786116D01*
X51245665Y7687403D01*
X51217768Y7601969D01*
X51134077Y7540944D01*
X50994592Y7504329D01*
X50799313Y7492124D01*
X50655536Y7505268D01*
X50528927Y7544700D01*
X50424045Y7605590D01*
X50345451Y7683112D01*
X50288047Y7771094D01*
X50246738Y7863369D01*
X50221792Y7958863D01*
X50213476Y8056502D01*
X50223852Y8146631D01*
X50625494Y8146631D01*
X50865837Y8146631D01*
X50923777Y8198133D01*
X50889442Y8261438D01*
X50797167Y8283970D01*
X50675923Y8242124D01*
X50625494Y8146631D01*
X50223852Y8146631D01*
X50231717Y8214943D01*
X50286438Y8352639D01*
X50377639Y8469592D01*
X50497692Y8558410D01*
X50638965Y8611700D01*
X50801459Y8629464D01*
X50949170Y8613965D01*
G37*
G36*
X51836867Y8951352D02*
G01*
X51895880Y8903069D01*
X51917339Y8842983D01*
X51921631Y8771094D01*
X51921631Y8599421D01*
X52035365Y8603712D01*
X52092232Y8602639D01*
X52142661Y8590837D01*
X52188798Y8560794D01*
X52216695Y8501781D01*
X52228498Y8406288D01*
X52212403Y8300064D01*
X52165193Y8241052D01*
X52106180Y8218519D01*
X52033219Y8213155D01*
X51921631Y8215300D01*
X51921631Y7966373D01*
X51933433Y7901996D01*
X51979571Y7884828D01*
X52058970Y7880536D01*
X52116910Y7860150D01*
X52159828Y7807575D01*
X52172704Y7708863D01*
X52156609Y7598348D01*
X52106180Y7539335D01*
X52047167Y7518948D01*
X51977425Y7515730D01*
X51839013Y7527413D01*
X51727067Y7562463D01*
X51641588Y7620880D01*
X51581383Y7703856D01*
X51545260Y7812582D01*
X51533219Y7947060D01*
X51533219Y8219592D01*
X51479571Y8219592D01*
X51379785Y8266803D01*
X51350815Y8408433D01*
X51385150Y8546845D01*
X51488155Y8592983D01*
X51533219Y8592983D01*
X51533219Y8779678D01*
X51536438Y8851567D01*
X51556824Y8907361D01*
X51615837Y8952425D01*
X51728498Y8966373D01*
X51836867Y8951352D01*
G37*
G36*
X49870665Y8609614D02*
G01*
X50020343Y8556502D01*
X50103498Y8467446D01*
X50056824Y8333326D01*
X49949528Y8251781D01*
X49831502Y8290408D01*
X49698455Y8329034D01*
X49619056Y8286116D01*
X49622275Y8266803D01*
X49631931Y8251781D01*
X49645880Y8239979D01*
X49666266Y8230322D01*
X49689871Y8222811D01*
X49717768Y8215300D01*
X49747811Y8208863D01*
X49782146Y8203498D01*
X49816481Y8198133D01*
X49933433Y8170236D01*
X50036438Y8120880D01*
X50120129Y8022167D01*
X50149099Y7867661D01*
X50129957Y7734013D01*
X50072532Y7630064D01*
X49976824Y7555815D01*
X49842833Y7511266D01*
X49670558Y7496416D01*
X49528659Y7510901D01*
X49381931Y7554356D01*
X49270075Y7619270D01*
X49232790Y7698133D01*
X49252639Y7774313D01*
X49312189Y7874099D01*
X49395880Y7917017D01*
X49545021Y7864442D01*
X49704893Y7811867D01*
X49786438Y7846202D01*
X49755322Y7883755D01*
X49649099Y7913798D01*
X49533219Y7942768D01*
X49417741Y7994941D01*
X49335258Y8069914D01*
X49285767Y8167688D01*
X49269270Y8288262D01*
X49297972Y8433916D01*
X49384077Y8540408D01*
X49472656Y8588691D01*
X49585317Y8617661D01*
X49722060Y8627318D01*
X49870665Y8609614D01*
G37*
%TO.C,kibuzzard-673EAF11*%
G36*
X48254539Y50015694D02*
G01*
X48303537Y49957754D01*
X48662622Y49215265D01*
X48681935Y49113691D01*
X48602536Y49043591D01*
X48496670Y49022847D01*
X48426570Y49105107D01*
X48360762Y49241016D01*
X48116127Y49241016D01*
X48008830Y49241016D01*
X47943022Y49103677D01*
X47871491Y49024278D01*
X47767057Y49045021D01*
X47686942Y49114406D01*
X47705540Y49215265D01*
X47825695Y49464192D01*
X48116127Y49464192D01*
X48250604Y49464192D01*
X48183366Y49602961D01*
X48116127Y49464192D01*
X47825695Y49464192D01*
X48064624Y49959185D01*
X48114696Y50014263D01*
X48184796Y50035007D01*
X48254539Y50015694D01*
G37*
G36*
X49198705Y50038504D02*
G01*
X49287641Y50006077D01*
X49361477Y49952031D01*
X49416715Y49884793D01*
X49449857Y49812785D01*
X49460905Y49736009D01*
X49436227Y49631216D01*
X49362192Y49560043D01*
X49442307Y49482790D01*
X49471277Y49425565D01*
X49480933Y49356896D01*
X49468773Y49264303D01*
X49432293Y49182996D01*
X49371491Y49112976D01*
X49292092Y49059328D01*
X49199818Y49027139D01*
X49094667Y49016409D01*
X48996909Y49027139D01*
X48907734Y49059328D01*
X48827142Y49112976D01*
X48763559Y49180771D01*
X48725410Y49255401D01*
X48712693Y49336867D01*
X48748459Y49404464D01*
X48855755Y49426996D01*
X48934438Y49411259D01*
X48975926Y49344020D01*
X48978788Y49336152D01*
X48989517Y49318984D01*
X49010976Y49297525D01*
X49045311Y49280358D01*
X49096098Y49272489D01*
X49185511Y49294664D01*
X49219131Y49354034D01*
X49191592Y49416266D01*
X49108974Y49437010D01*
X49069632Y49437010D01*
X49036727Y49443448D01*
X49004539Y49461330D01*
X48987371Y49498526D01*
X48978788Y49561474D01*
X48988087Y49633004D01*
X49018129Y49670200D01*
X49054610Y49682361D01*
X49100390Y49684506D01*
X49110404Y49684506D01*
X49176928Y49693805D01*
X49197672Y49730286D01*
X49174067Y49779642D01*
X49108974Y49797525D01*
X49047457Y49783219D01*
X49005969Y49740300D01*
X48962415Y49681327D01*
X48902329Y49664637D01*
X48825712Y49690229D01*
X48754896Y49768913D01*
X48775640Y49867625D01*
X48777786Y49872632D01*
X48785655Y49888369D01*
X48799961Y49911974D01*
X48822851Y49940587D01*
X48854324Y49971345D01*
X48896527Y50000672D01*
X48949460Y50025708D01*
X49015268Y50042876D01*
X49094667Y50049313D01*
X49198705Y50038504D01*
G37*
%TO.C,kibuzzard-673EAEB1*%
G36*
X4222080Y30977139D02*
G01*
X4311016Y30940658D01*
X4383580Y30879857D01*
X4437228Y30797756D01*
X4469417Y30697374D01*
X4480147Y30578712D01*
X4474024Y30473648D01*
X4455655Y30377053D01*
X4425039Y30288927D01*
X4382178Y30209270D01*
X4327071Y30138083D01*
X4261892Y30077825D01*
X4188816Y30030959D01*
X4107843Y29997482D01*
X4018974Y29977396D01*
X3922207Y29970701D01*
X3877142Y29973562D01*
X3839946Y29987868D01*
X3809903Y30027926D01*
X3800604Y30102318D01*
X3810619Y30176710D01*
X3843523Y30216767D01*
X3883580Y30230358D01*
X3933652Y30232504D01*
X4040789Y30248558D01*
X4123765Y30296722D01*
X4182579Y30376996D01*
X4115340Y30365578D01*
X4106756Y30364120D01*
X4021793Y30373976D01*
X3944302Y30403542D01*
X3874281Y30452818D01*
X3819043Y30515289D01*
X3785901Y30584435D01*
X3774853Y30660258D01*
X3775927Y30668841D01*
X4032364Y30668841D01*
X4055254Y30618054D01*
X4115340Y30598741D01*
X4185440Y30616624D01*
X4211191Y30665980D01*
X4190447Y30726066D01*
X4122493Y30744664D01*
X4053823Y30726781D01*
X4032364Y30668841D01*
X3775927Y30668841D01*
X3785821Y30747922D01*
X3818726Y30825891D01*
X3873566Y30894163D01*
X3944461Y30947016D01*
X4025529Y30978728D01*
X4116770Y30989299D01*
X4222080Y30977139D01*
G37*
%TO.C,G\u002A\u002A\u002A*%
G36*
X27428588Y41093189D02*
G01*
X27990462Y41677282D01*
X28517774Y41677282D01*
X27905506Y41080553D01*
X28586465Y40054541D01*
X28046664Y40054541D01*
X27601260Y40779648D01*
X27428588Y40613076D01*
X27428588Y40054541D01*
X26982893Y40054541D01*
X26982893Y42051091D01*
X27428588Y42295504D01*
X27428588Y41093189D01*
G37*
G36*
X26719614Y41721011D02*
G01*
X26726014Y41720788D01*
X26732349Y41720423D01*
X26738623Y41719923D01*
X26751003Y41718537D01*
X26763190Y41716676D01*
X26775222Y41714386D01*
X26787132Y41711713D01*
X26798957Y41708703D01*
X26810733Y41705403D01*
X26810733Y41291221D01*
X26794285Y41294474D01*
X26775943Y41297448D01*
X26756145Y41300095D01*
X26735325Y41302367D01*
X26713921Y41304218D01*
X26692366Y41305599D01*
X26671097Y41306462D01*
X26650550Y41306760D01*
X26620298Y41306085D01*
X26591313Y41304082D01*
X26563574Y41300782D01*
X26537061Y41296218D01*
X26511755Y41290422D01*
X26487634Y41283426D01*
X26464680Y41275263D01*
X26442872Y41265964D01*
X26422190Y41255561D01*
X26402614Y41244087D01*
X26384124Y41231574D01*
X26366699Y41218054D01*
X26350321Y41203559D01*
X26334967Y41188121D01*
X26320620Y41171773D01*
X26307257Y41154547D01*
X26294861Y41136474D01*
X26283409Y41117587D01*
X26272883Y41097918D01*
X26263262Y41077500D01*
X26254525Y41056364D01*
X26246654Y41034542D01*
X26239628Y41012067D01*
X26233427Y40988970D01*
X26228030Y40965285D01*
X26223418Y40941043D01*
X26216468Y40891016D01*
X26212416Y40839148D01*
X26211101Y40785695D01*
X26211101Y40054488D01*
X25765406Y40054488D01*
X25765406Y41601567D01*
X26189171Y41677228D01*
X26189171Y41375742D01*
X26195271Y41375742D01*
X26203587Y41394698D01*
X26212618Y41413269D01*
X26222343Y41431443D01*
X26232742Y41449205D01*
X26243794Y41466540D01*
X26255479Y41483434D01*
X26267774Y41499874D01*
X26280661Y41515843D01*
X26294117Y41531329D01*
X26308123Y41546317D01*
X26322657Y41560793D01*
X26337698Y41574742D01*
X26353227Y41588149D01*
X26369221Y41601002D01*
X26385661Y41613285D01*
X26402525Y41624984D01*
X26419793Y41636085D01*
X26437444Y41646574D01*
X26455457Y41656435D01*
X26473812Y41665656D01*
X26492487Y41674221D01*
X26511463Y41682116D01*
X26530717Y41689327D01*
X26550230Y41695840D01*
X26569980Y41701641D01*
X26589948Y41706714D01*
X26610111Y41711046D01*
X26630450Y41714623D01*
X26650943Y41717429D01*
X26671570Y41719452D01*
X26692310Y41720676D01*
X26713142Y41721087D01*
X26719614Y41721011D01*
G37*
G36*
X29430320Y42295050D02*
G01*
X29460041Y42293939D01*
X29489857Y42292314D01*
X29519646Y42290361D01*
X29578653Y42286210D01*
X29607625Y42284385D01*
X29636080Y42282973D01*
X29636080Y41950118D01*
X29615951Y41952406D01*
X29595590Y41954372D01*
X29575079Y41956022D01*
X29554500Y41957360D01*
X29533935Y41958392D01*
X29513465Y41959123D01*
X29493172Y41959558D01*
X29473138Y41959702D01*
X29451033Y41959105D01*
X29440630Y41958349D01*
X29430653Y41957279D01*
X29421097Y41955890D01*
X29411956Y41954175D01*
X29403227Y41952127D01*
X29394903Y41949741D01*
X29386979Y41947009D01*
X29379451Y41943926D01*
X29372313Y41940486D01*
X29365559Y41936681D01*
X29359185Y41932506D01*
X29353186Y41927955D01*
X29347556Y41923020D01*
X29342291Y41917696D01*
X29337384Y41911976D01*
X29332832Y41905855D01*
X29328628Y41899325D01*
X29324768Y41892380D01*
X29321246Y41885014D01*
X29318058Y41877221D01*
X29315198Y41868994D01*
X29312660Y41860328D01*
X29310441Y41851215D01*
X29308534Y41841649D01*
X29306935Y41831625D01*
X29305638Y41821135D01*
X29303931Y41798734D01*
X29303371Y41774395D01*
X29303371Y41677240D01*
X29610811Y41677240D01*
X29610811Y41379094D01*
X29303371Y41379094D01*
X29303371Y40054353D01*
X28857676Y40054353D01*
X28857676Y41379094D01*
X28418080Y41379094D01*
X28721891Y41677240D01*
X28857676Y41677240D01*
X28857676Y41802424D01*
X28858200Y41829265D01*
X28859775Y41855586D01*
X28862402Y41881366D01*
X28866081Y41906583D01*
X28870813Y41931215D01*
X28876600Y41955239D01*
X28883443Y41978636D01*
X28891343Y42001382D01*
X28900300Y42023455D01*
X28910317Y42044835D01*
X28921394Y42065499D01*
X28933531Y42085425D01*
X28946732Y42104591D01*
X28960995Y42122977D01*
X28976323Y42140559D01*
X28992716Y42157317D01*
X29010177Y42173228D01*
X29028704Y42188270D01*
X29048301Y42202422D01*
X29068968Y42215662D01*
X29090705Y42227968D01*
X29113515Y42239319D01*
X29137398Y42249691D01*
X29162355Y42259065D01*
X29188387Y42267418D01*
X29215496Y42274727D01*
X29243683Y42280972D01*
X29272948Y42286130D01*
X29303292Y42290180D01*
X29334718Y42293100D01*
X29367226Y42294868D01*
X29400816Y42295462D01*
X29430320Y42295050D01*
G37*
G36*
X30181881Y40760821D02*
G01*
X30182779Y40712356D01*
X30185530Y40667056D01*
X30190221Y40624914D01*
X30196939Y40585925D01*
X30205771Y40550085D01*
X30216803Y40517388D01*
X30223172Y40502217D01*
X30230123Y40487829D01*
X30237667Y40474225D01*
X30245816Y40461404D01*
X30254581Y40449364D01*
X30263971Y40438106D01*
X30273998Y40427629D01*
X30284673Y40417932D01*
X30296007Y40409014D01*
X30308010Y40400875D01*
X30320693Y40393514D01*
X30334068Y40386931D01*
X30348144Y40381125D01*
X30362934Y40376094D01*
X30378447Y40371840D01*
X30394695Y40368360D01*
X30411688Y40365655D01*
X30429437Y40363724D01*
X30447954Y40362565D01*
X30467248Y40362179D01*
X30489526Y40362577D01*
X30510998Y40363776D01*
X30531671Y40365789D01*
X30551552Y40368626D01*
X30570646Y40372297D01*
X30588961Y40376814D01*
X30606503Y40382188D01*
X30623278Y40388429D01*
X30639293Y40395547D01*
X30654554Y40403555D01*
X30669068Y40412463D01*
X30682840Y40422282D01*
X30695878Y40433022D01*
X30708188Y40444694D01*
X30719777Y40457310D01*
X30730649Y40470880D01*
X30740814Y40485414D01*
X30750275Y40500925D01*
X30759041Y40517422D01*
X30767117Y40534917D01*
X30774511Y40553420D01*
X30781227Y40572942D01*
X30787273Y40593494D01*
X30792656Y40615088D01*
X30797381Y40637732D01*
X30801455Y40661440D01*
X30804885Y40686221D01*
X30807677Y40712086D01*
X30809837Y40739047D01*
X30811372Y40767113D01*
X30812593Y40826607D01*
X30812593Y41677188D01*
X31258432Y41677188D01*
X31258432Y40054448D01*
X30834521Y40054448D01*
X30834521Y40280563D01*
X30825082Y40280563D01*
X30814279Y40263497D01*
X30803012Y40247017D01*
X30791296Y40231119D01*
X30779148Y40215801D01*
X30766583Y40201059D01*
X30753619Y40186891D01*
X30740271Y40173294D01*
X30726556Y40160265D01*
X30712489Y40147801D01*
X30698087Y40135899D01*
X30683365Y40124557D01*
X30668341Y40113772D01*
X30637449Y40093860D01*
X30605538Y40076141D01*
X30572740Y40060591D01*
X30539182Y40047189D01*
X30504995Y40035911D01*
X30470307Y40026735D01*
X30435248Y40019637D01*
X30399948Y40014596D01*
X30364535Y40011588D01*
X30329140Y40010590D01*
X30285746Y40011367D01*
X30244388Y40013682D01*
X30205021Y40017512D01*
X30167603Y40022831D01*
X30132090Y40029617D01*
X30098440Y40037844D01*
X30066609Y40047489D01*
X30036555Y40058528D01*
X30008233Y40070936D01*
X29981602Y40084690D01*
X29956617Y40099765D01*
X29933237Y40116137D01*
X29911417Y40133783D01*
X29891114Y40152677D01*
X29872286Y40172797D01*
X29854890Y40194117D01*
X29838882Y40216615D01*
X29824219Y40240265D01*
X29810858Y40265044D01*
X29798756Y40290927D01*
X29787870Y40317891D01*
X29778157Y40345911D01*
X29769573Y40374964D01*
X29762076Y40405024D01*
X29750169Y40468074D01*
X29742091Y40534867D01*
X29737497Y40605211D01*
X29736042Y40678914D01*
X29736042Y41677188D01*
X30181881Y41677188D01*
X30181881Y40760821D01*
G37*
G36*
X32477094Y41720208D02*
G01*
X32518453Y41717892D01*
X32557819Y41714060D01*
X32595237Y41708738D01*
X32630750Y41701950D01*
X32664400Y41693719D01*
X32696231Y41684070D01*
X32726285Y41673028D01*
X32754607Y41660615D01*
X32781238Y41646857D01*
X32806223Y41631777D01*
X32829603Y41615400D01*
X32851423Y41597750D01*
X32871726Y41578851D01*
X32890554Y41558728D01*
X32907950Y41537404D01*
X32923958Y41514903D01*
X32938621Y41491250D01*
X32951982Y41466469D01*
X32964084Y41440584D01*
X32974970Y41413620D01*
X32984684Y41385600D01*
X32993267Y41356549D01*
X33000765Y41326490D01*
X33012672Y41263448D01*
X33020750Y41196667D01*
X33025344Y41126341D01*
X33026798Y41052662D01*
X33026798Y40054388D01*
X32581104Y40054388D01*
X32581104Y40970755D01*
X32580203Y41019221D01*
X32577443Y41064527D01*
X32572738Y41106676D01*
X32566001Y41145674D01*
X32557147Y41181525D01*
X32546090Y41214234D01*
X32539709Y41229412D01*
X32532744Y41243806D01*
X32525186Y41257417D01*
X32517024Y41270245D01*
X32508246Y41282291D01*
X32498842Y41293556D01*
X32488801Y41304040D01*
X32478114Y41313744D01*
X32466767Y41322668D01*
X32454752Y41330813D01*
X32442057Y41338179D01*
X32428672Y41344768D01*
X32414586Y41350579D01*
X32399788Y41355614D01*
X32384267Y41359872D01*
X32368012Y41363355D01*
X32351014Y41366063D01*
X32333261Y41367996D01*
X32314742Y41369156D01*
X32295446Y41369543D01*
X32273196Y41369145D01*
X32251750Y41367945D01*
X32231102Y41365932D01*
X32211245Y41363095D01*
X32192174Y41359423D01*
X32173881Y41354906D01*
X32156361Y41349531D01*
X32139607Y41343289D01*
X32123612Y41336168D01*
X32108370Y41328157D01*
X32093875Y41319247D01*
X32080120Y41309424D01*
X32067098Y41298680D01*
X32054804Y41287003D01*
X32043231Y41274382D01*
X32032372Y41260805D01*
X32022221Y41246263D01*
X32012772Y41230745D01*
X32004017Y41214238D01*
X31995952Y41196733D01*
X31988568Y41178219D01*
X31981861Y41158684D01*
X31975823Y41138119D01*
X31970447Y41116511D01*
X31965728Y41093850D01*
X31961660Y41070125D01*
X31958234Y41045325D01*
X31955447Y41019440D01*
X31953289Y40992458D01*
X31951756Y40964368D01*
X31950538Y40904823D01*
X31950538Y40054388D01*
X31504553Y40054388D01*
X31504553Y41677128D01*
X31928173Y41677128D01*
X31928173Y41451159D01*
X31937759Y41451159D01*
X31948574Y41468211D01*
X31959851Y41484679D01*
X31971575Y41500565D01*
X31983728Y41515873D01*
X31996296Y41530605D01*
X32009263Y41544763D01*
X32022611Y41558352D01*
X32036325Y41571373D01*
X32050390Y41583829D01*
X32064789Y41595724D01*
X32079506Y41607060D01*
X32094525Y41617840D01*
X32125405Y41637742D01*
X32157302Y41655453D01*
X32190087Y41670997D01*
X32223633Y41684394D01*
X32257811Y41695669D01*
X32292493Y41704843D01*
X32327551Y41711939D01*
X32362857Y41716980D01*
X32398283Y41719988D01*
X32433701Y41720986D01*
X32477094Y41720208D01*
G37*
G36*
X23168470Y41719770D02*
G01*
X23213692Y41716234D01*
X23257296Y41710421D01*
X23299291Y41702397D01*
X23339686Y41692229D01*
X23378491Y41679982D01*
X23415714Y41665723D01*
X23451366Y41649518D01*
X23485454Y41631433D01*
X23517989Y41611533D01*
X23548979Y41589886D01*
X23578433Y41566557D01*
X23606362Y41541612D01*
X23632773Y41515117D01*
X23657677Y41487139D01*
X23681081Y41457744D01*
X23702997Y41426998D01*
X23723432Y41394966D01*
X23742395Y41361715D01*
X23759897Y41327311D01*
X23775946Y41291821D01*
X23790551Y41255310D01*
X23803721Y41217844D01*
X23815467Y41179489D01*
X23825796Y41140312D01*
X23834718Y41100379D01*
X23848378Y41018508D01*
X23856520Y40934405D01*
X23859218Y40848599D01*
X23856458Y40767773D01*
X23848171Y40688168D01*
X23834348Y40610336D01*
X23814981Y40534827D01*
X23790060Y40462193D01*
X23759575Y40392984D01*
X23742244Y40359836D01*
X23723518Y40327752D01*
X23703398Y40296799D01*
X23681880Y40267047D01*
X23658965Y40238564D01*
X23634651Y40211420D01*
X23608938Y40185683D01*
X23581823Y40161422D01*
X23553306Y40138707D01*
X23523386Y40117605D01*
X23492061Y40098186D01*
X23459330Y40080519D01*
X23425193Y40064672D01*
X23389648Y40050715D01*
X23352693Y40038716D01*
X23314329Y40028745D01*
X23274553Y40020869D01*
X23233364Y40015158D01*
X23190762Y40011681D01*
X23146745Y40010507D01*
X23109868Y40011499D01*
X23073513Y40014463D01*
X23037754Y40019387D01*
X23002664Y40026255D01*
X22968316Y40035053D01*
X22934783Y40045766D01*
X22902138Y40058380D01*
X22870455Y40072881D01*
X22839807Y40089254D01*
X22810266Y40107484D01*
X22781907Y40127558D01*
X22754802Y40149460D01*
X22729024Y40173176D01*
X22704647Y40198692D01*
X22681744Y40225993D01*
X22660388Y40255065D01*
X22653853Y40255065D01*
X22653853Y39086731D01*
X22208158Y39483197D01*
X22208158Y40861088D01*
X22638313Y40861088D01*
X22639508Y40811873D01*
X22643178Y40763302D01*
X22649453Y40715726D01*
X22658466Y40669494D01*
X22670345Y40624953D01*
X22685221Y40582455D01*
X22703224Y40542347D01*
X22713440Y40523299D01*
X22724486Y40504979D01*
X22736380Y40487431D01*
X22749136Y40470700D01*
X22762773Y40454828D01*
X22777305Y40439858D01*
X22792750Y40425836D01*
X22809123Y40412804D01*
X22826442Y40400806D01*
X22844721Y40389886D01*
X22863978Y40380087D01*
X22884229Y40371453D01*
X22905489Y40364028D01*
X22927777Y40357855D01*
X22951107Y40352978D01*
X22975496Y40349440D01*
X23000960Y40347285D01*
X23027516Y40346557D01*
X23054305Y40347285D01*
X23079953Y40349440D01*
X23104480Y40352978D01*
X23127904Y40357855D01*
X23150244Y40364028D01*
X23171519Y40371453D01*
X23191749Y40380087D01*
X23210953Y40389886D01*
X23229149Y40400806D01*
X23246356Y40412804D01*
X23262594Y40425836D01*
X23277882Y40439858D01*
X23292238Y40454828D01*
X23305683Y40470700D01*
X23318233Y40487431D01*
X23329910Y40504979D01*
X23340731Y40523299D01*
X23350717Y40542347D01*
X23359885Y40562080D01*
X23368255Y40582455D01*
X23375846Y40603427D01*
X23382677Y40624953D01*
X23388767Y40646990D01*
X23394136Y40669494D01*
X23402783Y40715726D01*
X23408770Y40763302D01*
X23412251Y40811873D01*
X23413378Y40861088D01*
X23412147Y40909885D01*
X23408377Y40958369D01*
X23401954Y41006148D01*
X23392760Y41052833D01*
X23380683Y41098031D01*
X23365605Y41141350D01*
X23347412Y41182401D01*
X23337112Y41201954D01*
X23325989Y41220792D01*
X23314030Y41238868D01*
X23301220Y41256131D01*
X23287544Y41272535D01*
X23272989Y41288028D01*
X23257540Y41302563D01*
X23241182Y41316091D01*
X23223902Y41328562D01*
X23205684Y41339929D01*
X23186514Y41350141D01*
X23166378Y41359150D01*
X23145262Y41366907D01*
X23123150Y41373364D01*
X23100029Y41378471D01*
X23075885Y41382179D01*
X23050702Y41384440D01*
X23024466Y41385205D01*
X22997663Y41384449D01*
X22972002Y41382213D01*
X22947462Y41378544D01*
X22924024Y41373489D01*
X22901671Y41367096D01*
X22880382Y41359411D01*
X22860139Y41350483D01*
X22840922Y41340357D01*
X22822714Y41329082D01*
X22805494Y41316705D01*
X22789244Y41303272D01*
X22773944Y41288832D01*
X22759576Y41273431D01*
X22746121Y41257116D01*
X22733559Y41239935D01*
X22721872Y41221935D01*
X22711041Y41203164D01*
X22701046Y41183668D01*
X22691869Y41163494D01*
X22683490Y41142690D01*
X22675891Y41121304D01*
X22669052Y41099382D01*
X22662955Y41076971D01*
X22657581Y41054119D01*
X22648923Y41007281D01*
X22642927Y40959244D01*
X22639442Y40910387D01*
X22638313Y40861088D01*
X22208158Y40861088D01*
X22208158Y41601590D01*
X22632069Y41677106D01*
X22632069Y41470016D01*
X22638313Y41470016D01*
X22648802Y41486209D01*
X22659651Y41501816D01*
X22670855Y41516842D01*
X22682406Y41531292D01*
X22694299Y41545170D01*
X22706528Y41558481D01*
X22719085Y41571229D01*
X22731965Y41583420D01*
X22745162Y41595059D01*
X22758669Y41606149D01*
X22772480Y41616695D01*
X22786589Y41626703D01*
X22800989Y41636176D01*
X22815675Y41645121D01*
X22830639Y41653540D01*
X22845876Y41661440D01*
X22861379Y41668825D01*
X22877143Y41675698D01*
X22909424Y41687934D01*
X22942671Y41698183D01*
X22976832Y41706485D01*
X23011858Y41712876D01*
X23047699Y41717394D01*
X23084303Y41720078D01*
X23121621Y41720964D01*
X23168470Y41719770D01*
G37*
G36*
X24861546Y41720037D02*
G01*
X24923727Y41717086D01*
X24986118Y41711729D01*
X25048054Y41703607D01*
X25108868Y41692362D01*
X25167893Y41677633D01*
X25224461Y41659064D01*
X25277907Y41636293D01*
X25303250Y41623221D01*
X25327562Y41608964D01*
X25350760Y41593477D01*
X25372760Y41576716D01*
X25393480Y41558636D01*
X25412835Y41539192D01*
X25430742Y41518339D01*
X25447118Y41496031D01*
X25461880Y41472225D01*
X25474944Y41446876D01*
X25486227Y41419938D01*
X25495646Y41391367D01*
X25503116Y41361118D01*
X25508556Y41329146D01*
X25511880Y41295406D01*
X25513007Y41259853D01*
X25513007Y40415225D01*
X25513761Y40360102D01*
X25516093Y40305924D01*
X25520114Y40253647D01*
X25525932Y40204232D01*
X25529549Y40180897D01*
X25533656Y40158636D01*
X25538267Y40137569D01*
X25543396Y40117816D01*
X25549055Y40099498D01*
X25555259Y40082732D01*
X25562021Y40067641D01*
X25569355Y40054342D01*
X25117705Y40054342D01*
X25111931Y40073334D01*
X25106525Y40092593D01*
X25101559Y40112073D01*
X25097102Y40131729D01*
X25093223Y40151514D01*
X25089993Y40171382D01*
X25087480Y40191288D01*
X25085756Y40211185D01*
X25058619Y40184616D01*
X25030098Y40160198D01*
X25000291Y40137873D01*
X24969293Y40117578D01*
X24937201Y40099255D01*
X24904113Y40082841D01*
X24870125Y40068278D01*
X24835334Y40055504D01*
X24799837Y40044459D01*
X24763730Y40035083D01*
X24727111Y40027315D01*
X24690075Y40021095D01*
X24652721Y40016362D01*
X24615144Y40013056D01*
X24577442Y40011117D01*
X24539711Y40010484D01*
X24482319Y40012291D01*
X24426800Y40017737D01*
X24373406Y40026859D01*
X24322389Y40039695D01*
X24297851Y40047517D01*
X24274003Y40056283D01*
X24250875Y40065995D01*
X24228499Y40076660D01*
X24206908Y40088281D01*
X24186131Y40100864D01*
X24166202Y40114413D01*
X24147150Y40128933D01*
X24129010Y40144428D01*
X24111810Y40160904D01*
X24095584Y40178365D01*
X24080363Y40196815D01*
X24066178Y40216260D01*
X24053060Y40236704D01*
X24041043Y40258152D01*
X24030156Y40280609D01*
X24020432Y40304078D01*
X24011902Y40328566D01*
X24004598Y40354076D01*
X23998551Y40380614D01*
X23993792Y40408183D01*
X23990355Y40436790D01*
X23988269Y40466438D01*
X23987567Y40497132D01*
X23988603Y40515721D01*
X24432971Y40515721D01*
X24433345Y40500765D01*
X24434453Y40486495D01*
X24436274Y40472897D01*
X24438789Y40459957D01*
X24441975Y40447661D01*
X24445812Y40435995D01*
X24450280Y40424946D01*
X24455358Y40414499D01*
X24461026Y40404641D01*
X24467262Y40395359D01*
X24474045Y40386637D01*
X24481356Y40378463D01*
X24489174Y40370822D01*
X24497477Y40363701D01*
X24506246Y40357086D01*
X24515459Y40350963D01*
X24525095Y40345319D01*
X24535135Y40340138D01*
X24545557Y40335408D01*
X24556341Y40331115D01*
X24567466Y40327245D01*
X24578911Y40323784D01*
X24590656Y40320718D01*
X24602680Y40318034D01*
X24627481Y40313754D01*
X24653150Y40310834D01*
X24679521Y40309163D01*
X24706429Y40308630D01*
X24738104Y40309417D01*
X24767870Y40311723D01*
X24795787Y40315465D01*
X24821915Y40320564D01*
X24846312Y40326936D01*
X24869038Y40334500D01*
X24890151Y40343175D01*
X24909712Y40352879D01*
X24927779Y40363529D01*
X24944411Y40375045D01*
X24959668Y40387345D01*
X24973608Y40400347D01*
X24986292Y40413969D01*
X24997777Y40428129D01*
X25008124Y40442747D01*
X25017392Y40457740D01*
X25025639Y40473026D01*
X25032925Y40488525D01*
X25039309Y40504153D01*
X25044851Y40519830D01*
X25053643Y40551003D01*
X25059775Y40581390D01*
X25063719Y40610337D01*
X25065951Y40637190D01*
X25067167Y40682003D01*
X25067167Y40848576D01*
X25059866Y40842563D01*
X25052105Y40836904D01*
X25043903Y40831583D01*
X25035280Y40826585D01*
X25016839Y40817493D01*
X24996928Y40809504D01*
X24975696Y40802492D01*
X24953288Y40796333D01*
X24929851Y40790903D01*
X24905532Y40786075D01*
X24696844Y40754180D01*
X24671121Y40749202D01*
X24645854Y40743493D01*
X24621208Y40736928D01*
X24597349Y40729379D01*
X24574445Y40720718D01*
X24552661Y40710819D01*
X24532163Y40699554D01*
X24522448Y40693369D01*
X24513117Y40686796D01*
X24504191Y40679817D01*
X24495690Y40672418D01*
X24487635Y40664582D01*
X24480047Y40656292D01*
X24472947Y40647535D01*
X24466355Y40638292D01*
X24460292Y40628550D01*
X24454780Y40618291D01*
X24449838Y40607499D01*
X24445488Y40596160D01*
X24441750Y40584256D01*
X24438645Y40571773D01*
X24436194Y40558693D01*
X24434417Y40545002D01*
X24433336Y40530683D01*
X24432971Y40515721D01*
X23988603Y40515721D01*
X23991240Y40562994D01*
X24000876Y40622566D01*
X24016073Y40676194D01*
X24036428Y40724226D01*
X24061538Y40767006D01*
X24091002Y40804883D01*
X24124417Y40838201D01*
X24161380Y40867308D01*
X24201490Y40892549D01*
X24244345Y40914272D01*
X24289541Y40932823D01*
X24336677Y40948548D01*
X24385350Y40961793D01*
X24435158Y40972905D01*
X24536571Y40990116D01*
X24735314Y41014182D01*
X24826208Y41026580D01*
X24907159Y41042917D01*
X24942900Y41053428D01*
X24974949Y41065962D01*
X25002903Y41080868D01*
X25026359Y41098489D01*
X25044916Y41119174D01*
X25058172Y41143268D01*
X25065723Y41171118D01*
X25067167Y41203070D01*
X25066784Y41220273D01*
X25065647Y41236581D01*
X25063775Y41252017D01*
X25061189Y41266603D01*
X25057908Y41280362D01*
X25053952Y41293318D01*
X25049340Y41305493D01*
X25044093Y41316910D01*
X25038229Y41327592D01*
X25031768Y41337562D01*
X25024730Y41346843D01*
X25017135Y41355458D01*
X25009003Y41363429D01*
X25000352Y41370780D01*
X24991203Y41377533D01*
X24981575Y41383711D01*
X24971489Y41389338D01*
X24960962Y41394435D01*
X24950016Y41399027D01*
X24938670Y41403135D01*
X24926944Y41406783D01*
X24914856Y41409994D01*
X24902428Y41412790D01*
X24889678Y41415195D01*
X24863292Y41418921D01*
X24835855Y41421356D01*
X24807526Y41422683D01*
X24778461Y41423085D01*
X24746863Y41422262D01*
X24716848Y41419759D01*
X24688452Y41415520D01*
X24661711Y41409493D01*
X24648973Y41405791D01*
X24636663Y41401622D01*
X24624785Y41396979D01*
X24613344Y41391854D01*
X24602345Y41386242D01*
X24591792Y41380135D01*
X24581689Y41373527D01*
X24572042Y41366411D01*
X24562855Y41358780D01*
X24554132Y41350627D01*
X24545878Y41341947D01*
X24538098Y41332731D01*
X24530797Y41322973D01*
X24523978Y41312667D01*
X24517647Y41301805D01*
X24511808Y41290381D01*
X24506465Y41278389D01*
X24501624Y41265821D01*
X24497289Y41252670D01*
X24493465Y41238930D01*
X24490156Y41224595D01*
X24487366Y41209657D01*
X24485101Y41194109D01*
X24483364Y41177946D01*
X24037524Y41177946D01*
X24040889Y41215957D01*
X24046230Y41252323D01*
X24053481Y41287072D01*
X24062577Y41320234D01*
X24073453Y41351838D01*
X24086042Y41381911D01*
X24100279Y41410483D01*
X24116100Y41437583D01*
X24133437Y41463238D01*
X24152226Y41487479D01*
X24172401Y41510333D01*
X24193897Y41531830D01*
X24216648Y41551998D01*
X24240588Y41570866D01*
X24265653Y41588462D01*
X24291776Y41604816D01*
X24318892Y41619956D01*
X24346936Y41633911D01*
X24375842Y41646709D01*
X24405544Y41658380D01*
X24435977Y41668952D01*
X24467076Y41678454D01*
X24498774Y41686915D01*
X24531007Y41694363D01*
X24596813Y41706336D01*
X24663971Y41714603D01*
X24731956Y41719395D01*
X24800244Y41720941D01*
X24861546Y41720037D01*
G37*
G36*
X21336000Y41719500D02*
G01*
X21400721Y41715039D01*
X21464117Y41707316D01*
X21525789Y41696096D01*
X21585340Y41681145D01*
X21642369Y41662225D01*
X21696479Y41639104D01*
X21722315Y41625893D01*
X21747271Y41611544D01*
X21771298Y41596026D01*
X21794346Y41579311D01*
X21816365Y41561368D01*
X21837305Y41542169D01*
X21857117Y41521684D01*
X21875750Y41499883D01*
X21893155Y41476738D01*
X21909283Y41452218D01*
X21924082Y41426295D01*
X21937503Y41398939D01*
X21949498Y41370121D01*
X21960014Y41339810D01*
X21969004Y41307979D01*
X21976416Y41274597D01*
X21982202Y41239634D01*
X21986311Y41203062D01*
X21562690Y41203062D01*
X21561133Y41218886D01*
X21558897Y41233989D01*
X21555997Y41248386D01*
X21552452Y41262092D01*
X21548276Y41275121D01*
X21543487Y41287486D01*
X21538102Y41299203D01*
X21532136Y41310286D01*
X21525607Y41320749D01*
X21518531Y41330605D01*
X21510925Y41339870D01*
X21502805Y41348558D01*
X21494187Y41356683D01*
X21485089Y41364259D01*
X21475527Y41371301D01*
X21465517Y41377822D01*
X21455076Y41383838D01*
X21444220Y41389362D01*
X21432967Y41394409D01*
X21421333Y41398993D01*
X21409334Y41403127D01*
X21396986Y41406828D01*
X21384307Y41410108D01*
X21371313Y41412983D01*
X21344447Y41417571D01*
X21316519Y41420706D01*
X21287662Y41422504D01*
X21258009Y41423078D01*
X21238660Y41422866D01*
X21218491Y41422128D01*
X21197787Y41420714D01*
X21176833Y41418472D01*
X21155914Y41415251D01*
X21135317Y41410901D01*
X21115327Y41405271D01*
X21096228Y41398209D01*
X21087103Y41394093D01*
X21078308Y41389564D01*
X21069878Y41384600D01*
X21061850Y41379185D01*
X21054260Y41373298D01*
X21047142Y41366921D01*
X21040532Y41360035D01*
X21034467Y41352622D01*
X21028982Y41344661D01*
X21024112Y41336135D01*
X21019894Y41327025D01*
X21016362Y41317311D01*
X21013553Y41306975D01*
X21011503Y41295998D01*
X21010246Y41284361D01*
X21009820Y41272045D01*
X21010558Y41257466D01*
X21012740Y41243661D01*
X21016320Y41230598D01*
X21021249Y41218245D01*
X21027481Y41206570D01*
X21034969Y41195540D01*
X21043664Y41185125D01*
X21053521Y41175291D01*
X21064491Y41166007D01*
X21076528Y41157241D01*
X21089584Y41148961D01*
X21103611Y41141136D01*
X21118564Y41133732D01*
X21134393Y41126718D01*
X21151053Y41120062D01*
X21168496Y41113731D01*
X21205541Y41101921D01*
X21245150Y41091031D01*
X21286946Y41080805D01*
X21330551Y41070988D01*
X21421673Y41051553D01*
X21468434Y41041425D01*
X21515492Y41030681D01*
X21564159Y41019017D01*
X21612325Y41006294D01*
X21659627Y40992258D01*
X21705700Y40976658D01*
X21750180Y40959239D01*
X21792703Y40939751D01*
X21832905Y40917940D01*
X21870421Y40893553D01*
X21888059Y40880314D01*
X21904888Y40866337D01*
X21920864Y40851590D01*
X21935940Y40836040D01*
X21950073Y40819658D01*
X21963215Y40802410D01*
X21975322Y40784265D01*
X21986347Y40765192D01*
X21996246Y40745160D01*
X22004973Y40724136D01*
X22012482Y40702088D01*
X22018728Y40678987D01*
X22023665Y40654799D01*
X22027248Y40629493D01*
X22029431Y40603038D01*
X22030169Y40575402D01*
X22029086Y40536216D01*
X22025883Y40498696D01*
X22020629Y40462815D01*
X22013395Y40428543D01*
X22004250Y40395854D01*
X21993264Y40364721D01*
X21980506Y40335115D01*
X21966045Y40307008D01*
X21949952Y40280374D01*
X21932295Y40255184D01*
X21913145Y40231411D01*
X21892571Y40209027D01*
X21870643Y40188004D01*
X21847430Y40168316D01*
X21823002Y40149933D01*
X21797428Y40132829D01*
X21770778Y40116976D01*
X21743122Y40102346D01*
X21714529Y40088912D01*
X21685068Y40076645D01*
X21654810Y40065519D01*
X21623824Y40055506D01*
X21592180Y40046577D01*
X21559947Y40038706D01*
X21493992Y40026024D01*
X21426517Y40017240D01*
X21358078Y40012131D01*
X21289232Y40010477D01*
X21218809Y40012166D01*
X21149040Y40017377D01*
X21080435Y40026327D01*
X21013505Y40039234D01*
X20948759Y40056315D01*
X20886710Y40077787D01*
X20827867Y40103866D01*
X20799807Y40118702D01*
X20772740Y40134772D01*
X20746730Y40152102D01*
X20721841Y40170719D01*
X20698136Y40190652D01*
X20675680Y40211927D01*
X20654536Y40234571D01*
X20634768Y40258612D01*
X20616439Y40284076D01*
X20599614Y40310990D01*
X20584357Y40339383D01*
X20570730Y40369281D01*
X20558799Y40400710D01*
X20548627Y40433699D01*
X20540277Y40468275D01*
X20533814Y40504464D01*
X20529301Y40542294D01*
X20526802Y40581791D01*
X20950277Y40581791D01*
X20950770Y40564167D01*
X20952226Y40547181D01*
X20954616Y40530826D01*
X20957909Y40515099D01*
X20962075Y40499994D01*
X20967082Y40485506D01*
X20972900Y40471629D01*
X20979499Y40458359D01*
X20986849Y40445691D01*
X20994917Y40433620D01*
X21003675Y40422139D01*
X21013091Y40411245D01*
X21023135Y40400933D01*
X21033776Y40391196D01*
X21044984Y40382030D01*
X21056727Y40373430D01*
X21068976Y40365391D01*
X21081700Y40357908D01*
X21094868Y40350975D01*
X21108450Y40344587D01*
X21122416Y40338740D01*
X21136733Y40333428D01*
X21151373Y40328646D01*
X21166304Y40324390D01*
X21181496Y40320653D01*
X21196918Y40317431D01*
X21228330Y40312511D01*
X21260296Y40309589D01*
X21292572Y40308624D01*
X21316528Y40309225D01*
X21341140Y40311083D01*
X21366104Y40314281D01*
X21391116Y40318903D01*
X21415873Y40325031D01*
X21440072Y40332747D01*
X21463407Y40342136D01*
X21485576Y40353280D01*
X21496128Y40359536D01*
X21506274Y40366262D01*
X21515977Y40373468D01*
X21525198Y40381165D01*
X21533900Y40389363D01*
X21542045Y40398072D01*
X21549594Y40407303D01*
X21556509Y40417066D01*
X21562753Y40427371D01*
X21568288Y40438229D01*
X21573076Y40449651D01*
X21577078Y40461646D01*
X21580257Y40474225D01*
X21582574Y40487398D01*
X21583993Y40501176D01*
X21584474Y40515569D01*
X21583924Y40527986D01*
X21582281Y40539925D01*
X21579557Y40551404D01*
X21575761Y40562443D01*
X21570906Y40573058D01*
X21565002Y40583269D01*
X21558059Y40593093D01*
X21550090Y40602549D01*
X21541104Y40611656D01*
X21531113Y40620431D01*
X21520127Y40628893D01*
X21508159Y40637061D01*
X21495217Y40644951D01*
X21481314Y40652584D01*
X21466461Y40659976D01*
X21450667Y40667147D01*
X21433945Y40674114D01*
X21416305Y40680897D01*
X21397759Y40687512D01*
X21378316Y40693979D01*
X21336786Y40706541D01*
X21291803Y40718729D01*
X21243455Y40730688D01*
X21191828Y40742566D01*
X21137012Y40754509D01*
X21079092Y40766662D01*
X20982175Y40790619D01*
X20934849Y40804131D01*
X20888761Y40819013D01*
X20844275Y40835529D01*
X20801753Y40853939D01*
X20761558Y40874506D01*
X20724054Y40897491D01*
X20706424Y40909973D01*
X20689602Y40923157D01*
X20673635Y40937077D01*
X20658567Y40951765D01*
X20644444Y40967255D01*
X20631311Y40983578D01*
X20619213Y41000767D01*
X20608196Y41018856D01*
X20598305Y41037877D01*
X20589586Y41057863D01*
X20582084Y41078845D01*
X20575844Y41100859D01*
X20570912Y41123935D01*
X20567333Y41148106D01*
X20565152Y41173406D01*
X20564415Y41199868D01*
X20565452Y41237829D01*
X20568516Y41274022D01*
X20573541Y41308486D01*
X20580459Y41341256D01*
X20589204Y41372370D01*
X20599708Y41401863D01*
X20611904Y41429774D01*
X20625725Y41456140D01*
X20641104Y41480996D01*
X20657974Y41504379D01*
X20676267Y41526328D01*
X20695917Y41546877D01*
X20716855Y41566065D01*
X20739016Y41583929D01*
X20762332Y41600504D01*
X20786736Y41615828D01*
X20812161Y41629938D01*
X20838539Y41642870D01*
X20865803Y41654662D01*
X20893887Y41665350D01*
X20922723Y41674971D01*
X20952243Y41683563D01*
X20982382Y41691161D01*
X21013071Y41697803D01*
X21075833Y41708365D01*
X21139992Y41715545D01*
X21205011Y41719636D01*
X21270353Y41720934D01*
X21336000Y41719500D01*
G37*
G36*
X28993372Y44929281D02*
G01*
X29022182Y44927311D01*
X29050257Y44923866D01*
X29077540Y44919099D01*
X29103971Y44913164D01*
X29129490Y44906212D01*
X29154039Y44898396D01*
X29177558Y44889870D01*
X29199988Y44880787D01*
X29221271Y44871298D01*
X29241346Y44861558D01*
X29277639Y44841933D01*
X29308395Y44823134D01*
X29333139Y44806383D01*
X29351399Y44792905D01*
X29366575Y44780655D01*
X29358459Y44782401D01*
X29336144Y44785990D01*
X29320616Y44787703D01*
X29302682Y44788949D01*
X29282724Y44789420D01*
X29261124Y44788806D01*
X29238263Y44786798D01*
X29214522Y44783087D01*
X29190283Y44777365D01*
X29178095Y44773652D01*
X29165927Y44769321D01*
X29153824Y44764332D01*
X29141835Y44758647D01*
X29130008Y44752227D01*
X29118390Y44745034D01*
X29107029Y44737028D01*
X29095972Y44728172D01*
X29085268Y44718426D01*
X29074964Y44707753D01*
X29062253Y44692955D01*
X29051012Y44677902D01*
X29041305Y44662573D01*
X29033196Y44646949D01*
X29029760Y44639019D01*
X29026748Y44631007D01*
X29024168Y44622912D01*
X29022027Y44614729D01*
X29020333Y44606457D01*
X29019095Y44598093D01*
X29018320Y44589635D01*
X29018017Y44581080D01*
X29018194Y44572425D01*
X29018858Y44563668D01*
X29020017Y44554807D01*
X29021680Y44545838D01*
X29023854Y44536759D01*
X29026548Y44527569D01*
X29029770Y44518263D01*
X29033527Y44508840D01*
X29037827Y44499297D01*
X29042680Y44489631D01*
X29048091Y44479840D01*
X29054070Y44469922D01*
X29060625Y44459873D01*
X29067763Y44449692D01*
X29083822Y44428921D01*
X29098651Y44411898D01*
X29115018Y44395027D01*
X29132733Y44378464D01*
X29151604Y44362369D01*
X29171441Y44346900D01*
X29192053Y44332214D01*
X29213249Y44318469D01*
X29234838Y44305825D01*
X29256630Y44294437D01*
X29278434Y44284466D01*
X29300058Y44276068D01*
X29321313Y44269403D01*
X29342007Y44264627D01*
X29352084Y44262997D01*
X29361949Y44261899D01*
X29371578Y44261352D01*
X29380949Y44261377D01*
X29390036Y44261993D01*
X29398815Y44263219D01*
X29410690Y44265925D01*
X29421589Y44269454D01*
X29431551Y44273747D01*
X29440616Y44278744D01*
X29448823Y44284386D01*
X29456211Y44290613D01*
X29462820Y44297365D01*
X29468688Y44304584D01*
X29473856Y44312208D01*
X29478362Y44320179D01*
X29482245Y44328436D01*
X29485545Y44336921D01*
X29488302Y44345573D01*
X29490554Y44354333D01*
X29492340Y44363141D01*
X29493701Y44371938D01*
X29495301Y44389259D01*
X29495669Y44405819D01*
X29495117Y44421140D01*
X29493962Y44434746D01*
X29492516Y44446158D01*
X29491095Y44454901D01*
X29489580Y44462468D01*
X29513767Y44453137D01*
X29538071Y44440766D01*
X29562359Y44425467D01*
X29586499Y44407348D01*
X29633801Y44363094D01*
X29678917Y44308888D01*
X29720786Y44245613D01*
X29758347Y44174152D01*
X29790539Y44095387D01*
X29816300Y44010202D01*
X29834569Y43919478D01*
X29840563Y43872316D01*
X29844286Y43824100D01*
X29845606Y43774941D01*
X29844390Y43724950D01*
X29840504Y43674236D01*
X29833818Y43622910D01*
X29824197Y43571083D01*
X29811510Y43518864D01*
X29795624Y43466364D01*
X29776405Y43413694D01*
X29753722Y43360963D01*
X29727442Y43308283D01*
X29697432Y43255763D01*
X29663560Y43203515D01*
X29625124Y43150704D01*
X29584463Y43100578D01*
X29541549Y43053278D01*
X29496356Y43008945D01*
X29448857Y42967722D01*
X29399026Y42929749D01*
X29346834Y42895170D01*
X29292256Y42864124D01*
X29235265Y42836755D01*
X29175834Y42813203D01*
X29113937Y42793611D01*
X29049545Y42778119D01*
X28982633Y42766871D01*
X28913174Y42760006D01*
X28841140Y42757668D01*
X28766506Y42759998D01*
X28746779Y42761179D01*
X28727705Y42761385D01*
X28709243Y42760633D01*
X28691348Y42758942D01*
X28673980Y42756329D01*
X28657095Y42752813D01*
X28640652Y42748410D01*
X28624606Y42743138D01*
X28608917Y42737017D01*
X28593540Y42730062D01*
X28578435Y42722293D01*
X28563558Y42713726D01*
X28534319Y42694274D01*
X28505483Y42671847D01*
X28476710Y42646588D01*
X28447660Y42618639D01*
X28417993Y42588144D01*
X28387368Y42555245D01*
X28248489Y42402455D01*
X28180324Y42328480D01*
X28116267Y42257058D01*
X28057853Y42190441D01*
X28006618Y42130884D01*
X27964096Y42080640D01*
X27931822Y42041961D01*
X27904162Y42008315D01*
X27904162Y43479151D01*
X27903606Y43508319D01*
X27903830Y43536394D01*
X27904815Y43563398D01*
X27906540Y43589355D01*
X27908986Y43614285D01*
X27912131Y43638211D01*
X27915956Y43661156D01*
X27920441Y43683142D01*
X27925565Y43704190D01*
X27931308Y43724323D01*
X27937651Y43743563D01*
X27944572Y43761932D01*
X27952053Y43779453D01*
X27960072Y43796148D01*
X27968610Y43812038D01*
X27977646Y43827146D01*
X27987160Y43841494D01*
X27997132Y43855104D01*
X28007542Y43867999D01*
X28018370Y43880201D01*
X28029596Y43891732D01*
X28041199Y43902613D01*
X28053159Y43912868D01*
X28065457Y43922518D01*
X28078071Y43931585D01*
X28090982Y43940093D01*
X28104170Y43948062D01*
X28117614Y43955515D01*
X28145192Y43968962D01*
X28173554Y43980612D01*
X28189472Y43986288D01*
X28205218Y43991274D01*
X28220770Y43995605D01*
X28236105Y43999314D01*
X28251203Y44002434D01*
X28266041Y44004998D01*
X28280597Y44007040D01*
X28294850Y44008593D01*
X28308778Y44009690D01*
X28322358Y44010366D01*
X28335570Y44010653D01*
X28348391Y44010584D01*
X28360799Y44010194D01*
X28372773Y44009514D01*
X28395330Y44007424D01*
X28415887Y44004580D01*
X28434270Y44001248D01*
X28450305Y43997697D01*
X28463815Y43994193D01*
X28474627Y43991002D01*
X28482566Y43988393D01*
X28489127Y43985985D01*
X28468859Y43977726D01*
X28447313Y43967697D01*
X28434791Y43961295D01*
X28421525Y43954000D01*
X28407830Y43945837D01*
X28394022Y43936830D01*
X28380416Y43927005D01*
X28367329Y43916386D01*
X28355075Y43904998D01*
X28349360Y43899023D01*
X28343971Y43892865D01*
X28338949Y43886528D01*
X28334333Y43880013D01*
X28330162Y43873324D01*
X28326475Y43866465D01*
X28322873Y43858183D01*
X28319936Y43849615D01*
X28317661Y43840792D01*
X28316048Y43831745D01*
X28315093Y43822507D01*
X28314796Y43813110D01*
X28315154Y43803584D01*
X28316166Y43793962D01*
X28317831Y43784275D01*
X28320145Y43774556D01*
X28323108Y43764835D01*
X28326718Y43755144D01*
X28330972Y43745516D01*
X28335870Y43735981D01*
X28341409Y43726572D01*
X28347587Y43717320D01*
X28354403Y43708257D01*
X28361856Y43699414D01*
X28369942Y43690824D01*
X28378661Y43682518D01*
X28388010Y43674528D01*
X28397989Y43666885D01*
X28408594Y43659621D01*
X28419825Y43652767D01*
X28431679Y43646357D01*
X28444155Y43640420D01*
X28457251Y43634990D01*
X28470966Y43630096D01*
X28485296Y43625773D01*
X28500241Y43622050D01*
X28515799Y43618960D01*
X28531968Y43616534D01*
X28555857Y43614261D01*
X28579358Y43613613D01*
X28602398Y43614533D01*
X28624903Y43616965D01*
X28646798Y43620852D01*
X28668010Y43626137D01*
X28688464Y43632764D01*
X28708087Y43640677D01*
X28726804Y43649819D01*
X28744542Y43660132D01*
X28761226Y43671561D01*
X28776782Y43684049D01*
X28791136Y43697540D01*
X28804215Y43711976D01*
X28815943Y43727302D01*
X28826248Y43743460D01*
X28835054Y43760394D01*
X28842289Y43778048D01*
X28847877Y43796364D01*
X28851745Y43815287D01*
X28853818Y43834760D01*
X28854024Y43854725D01*
X28852287Y43875128D01*
X28848533Y43895910D01*
X28842689Y43917015D01*
X28834680Y43938387D01*
X28824433Y43959970D01*
X28811873Y43981706D01*
X28796927Y44003539D01*
X28779519Y44025412D01*
X28759577Y44047270D01*
X28737025Y44069054D01*
X28686423Y44117496D01*
X28640635Y44166644D01*
X28619644Y44191430D01*
X28599971Y44216329D01*
X28581657Y44241320D01*
X28564739Y44266382D01*
X28549256Y44291494D01*
X28535247Y44316635D01*
X28522750Y44341783D01*
X28511804Y44366917D01*
X28502447Y44392017D01*
X28494718Y44417061D01*
X28488656Y44442028D01*
X28484298Y44466897D01*
X28481684Y44491647D01*
X28480852Y44516256D01*
X28481841Y44540705D01*
X28484689Y44564971D01*
X28489435Y44589033D01*
X28496117Y44612871D01*
X28504774Y44636462D01*
X28515445Y44659787D01*
X28528167Y44682824D01*
X28542980Y44705552D01*
X28559922Y44727949D01*
X28579032Y44749995D01*
X28600348Y44771669D01*
X28623909Y44792949D01*
X28649753Y44813814D01*
X28677919Y44834243D01*
X28710816Y44855427D01*
X28743569Y44873608D01*
X28776122Y44888939D01*
X28808413Y44901572D01*
X28840384Y44911660D01*
X28871976Y44919357D01*
X28903130Y44924814D01*
X28933787Y44928185D01*
X28963887Y44929623D01*
X28993372Y44929281D01*
G37*
%TO.C,kibuzzard-673EAF59*%
G36*
X48498816Y19541416D02*
G01*
X48538873Y19508512D01*
X48552464Y19469170D01*
X48554610Y19419814D01*
X48554610Y18681617D01*
X48552464Y18632260D01*
X48538873Y18593634D01*
X48498816Y18561445D01*
X48422994Y18551431D01*
X48349317Y18559299D01*
X48307114Y18590057D01*
X47936584Y19079328D01*
X47936584Y18681617D01*
X47934438Y18632260D01*
X47920848Y18593634D01*
X47880790Y18561445D01*
X47804968Y18551431D01*
X47731291Y18561445D01*
X47692665Y18593634D01*
X47679074Y18632976D01*
X47676212Y18683047D01*
X47676212Y19425536D01*
X47679074Y19473462D01*
X47693380Y19511373D01*
X47732722Y19542132D01*
X47807829Y19551431D01*
X47872922Y19542847D01*
X47909403Y19524964D01*
X47935154Y19495637D01*
X48292808Y19014950D01*
X48292808Y19425536D01*
X48295669Y19472747D01*
X48309975Y19510658D01*
X48350032Y19541416D01*
X48424424Y19551431D01*
X48498816Y19541416D01*
G37*
G36*
X49222072Y19553974D02*
G01*
X49309816Y19527269D01*
X49400104Y19482761D01*
X49438730Y19455579D01*
X49465197Y19425536D01*
X49478788Y19382618D01*
X49447314Y19302504D01*
X49393666Y19244564D01*
X49344310Y19225250D01*
X49267057Y19258155D01*
X49257758Y19264592D01*
X49245597Y19272461D01*
X49232006Y19280329D01*
X49212693Y19287482D01*
X49189803Y19293205D01*
X49161191Y19298212D01*
X49126856Y19299642D01*
X49045311Y19285336D01*
X48964481Y19243133D01*
X48900819Y19165165D01*
X48882579Y19111516D01*
X48876499Y19050715D01*
X48887407Y18972568D01*
X48920132Y18906938D01*
X48966448Y18856688D01*
X49018129Y18824678D01*
X49126856Y18801788D01*
X49202321Y18813591D01*
X49274210Y18848999D01*
X49345740Y18877611D01*
X49394381Y18857225D01*
X49445883Y18796066D01*
X49477357Y18713090D01*
X49457328Y18660873D01*
X49398673Y18617239D01*
X49313790Y18572731D01*
X49225092Y18546026D01*
X49132579Y18537124D01*
X49071956Y18541416D01*
X49007400Y18554292D01*
X48939803Y18577361D01*
X48870061Y18612232D01*
X48803001Y18657296D01*
X48743451Y18710944D01*
X48692486Y18776931D01*
X48651177Y18859013D01*
X48623816Y18953791D01*
X48614696Y19057868D01*
X48623637Y19158011D01*
X48650461Y19249571D01*
X48691234Y19329149D01*
X48742021Y19393348D01*
X48801570Y19445565D01*
X48868630Y19489199D01*
X48938730Y19522997D01*
X49007400Y19545708D01*
X49073745Y19558584D01*
X49136871Y19562876D01*
X49222072Y19553974D01*
G37*
D11*
%TO.C,J6*%
X27725000Y6127500D02*
X27725000Y12627500D01*
X38025000Y14627500D02*
X40525000Y14627500D01*
X42125000Y13027500D02*
X42125000Y6127500D01*
D10*
%TO.C,kibuzzard-673EAF5F*%
G36*
X47531053Y22082847D02*
G01*
X47571111Y22049943D01*
X47584701Y22010601D01*
X47586847Y21961245D01*
X47586847Y21221617D01*
X47584701Y21172260D01*
X47571111Y21133634D01*
X47531053Y21101445D01*
X47455231Y21091431D01*
X47380839Y21101445D01*
X47340781Y21134349D01*
X47327191Y21173691D01*
X47325045Y21223047D01*
X47325045Y21962675D01*
X47327191Y22010601D01*
X47340781Y22049943D01*
X47380839Y22082847D01*
X47456661Y22092861D01*
X47531053Y22082847D01*
G37*
G36*
X49185739Y22087139D02*
G01*
X49245646Y22069971D01*
X49305374Y22042074D01*
X49362956Y22004163D01*
X49414279Y21953555D01*
X49455231Y21887568D01*
X49482055Y21810136D01*
X49490996Y21725193D01*
X49477008Y21618056D01*
X49435043Y21525543D01*
X49365102Y21447654D01*
X49468106Y21310315D01*
X49506733Y21211602D01*
X49438063Y21127196D01*
X49336490Y21087854D01*
X49256375Y21154378D01*
X49103299Y21361817D01*
X48970252Y21361817D01*
X48970252Y21223047D01*
X48968106Y21173691D01*
X48954515Y21135064D01*
X48914458Y21102876D01*
X48838636Y21092861D01*
X48764244Y21102876D01*
X48724186Y21135780D01*
X48710595Y21175122D01*
X48708450Y21224478D01*
X48708450Y21622189D01*
X48970252Y21622189D01*
X49127620Y21622189D01*
X49196289Y21647940D01*
X49229193Y21726624D01*
X49198435Y21801016D01*
X49124759Y21831059D01*
X48970252Y21831059D01*
X48970252Y21622189D01*
X48708450Y21622189D01*
X48708450Y21962675D01*
X48710595Y22010601D01*
X48724186Y22049943D01*
X48764244Y22082847D01*
X48840066Y22092861D01*
X49127620Y22092861D01*
X49185739Y22087139D01*
G37*
G36*
X48238135Y22094962D02*
G01*
X48330767Y22066931D01*
X48415531Y22020213D01*
X48492427Y21954807D01*
X48556268Y21875899D01*
X48601869Y21788677D01*
X48629229Y21693138D01*
X48638349Y21589285D01*
X48629363Y21487219D01*
X48602405Y21392754D01*
X48557475Y21305889D01*
X48494573Y21226624D01*
X48419063Y21160592D01*
X48336311Y21113426D01*
X48246316Y21085127D01*
X48149079Y21075694D01*
X48141926Y21076359D01*
X48049115Y21084993D01*
X47956661Y21112890D01*
X47871719Y21159385D01*
X47794286Y21224478D01*
X47729819Y21302715D01*
X47683771Y21388641D01*
X47656143Y21482257D01*
X47646933Y21583562D01*
X47647422Y21589285D01*
X47908736Y21589285D01*
X47926082Y21493433D01*
X47978121Y21411888D01*
X48053764Y21356094D01*
X48141926Y21337496D01*
X48232949Y21355558D01*
X48308593Y21409742D01*
X48359558Y21490751D01*
X48376547Y21589285D01*
X48359379Y21687103D01*
X48307877Y21768827D01*
X48232412Y21824084D01*
X48143357Y21842504D01*
X48053228Y21824084D01*
X47977405Y21768827D01*
X47925903Y21687103D01*
X47908736Y21589285D01*
X47647422Y21589285D01*
X47655874Y21688176D01*
X47682698Y21784564D01*
X47727405Y21872725D01*
X47789995Y21952661D01*
X47865370Y22019006D01*
X47948435Y22066395D01*
X48039190Y22094828D01*
X48137634Y22104306D01*
X48238135Y22094962D01*
G37*
D12*
%TO.C,R4*%
X18334758Y31320000D02*
X17860242Y31320000D01*
X18334758Y30275000D02*
X17860242Y30275000D01*
D10*
%TO.C,kibuzzard-673EA43C*%
G36*
X20455000Y19428165D02*
G01*
X20505429Y19386320D01*
X20522597Y19336964D01*
X20525815Y19275805D01*
X20525815Y18979667D01*
X21508648Y18979667D01*
X21580536Y18976448D01*
X21637403Y18956062D01*
X21684614Y18895976D01*
X21699635Y18784388D01*
X21684614Y18673873D01*
X21636330Y18615933D01*
X21578391Y18596620D01*
X21506502Y18593401D01*
X20525815Y18593401D01*
X20525815Y18295118D01*
X20522597Y18233959D01*
X20505429Y18185676D01*
X20455000Y18144903D01*
X20358433Y18132028D01*
X20265086Y18144903D01*
X20215730Y18186749D01*
X20198562Y18236105D01*
X20195343Y18297264D01*
X20195343Y19277951D01*
X20198562Y19339109D01*
X20215730Y19387393D01*
X20266159Y19428165D01*
X20360579Y19441041D01*
X20455000Y19428165D01*
G37*
G36*
X21576245Y18036534D02*
G01*
X21634185Y18016148D01*
X21682468Y17956062D01*
X21697489Y17842328D01*
X21682468Y17730740D01*
X21633112Y17670655D01*
X21574099Y17650268D01*
X21500064Y17647049D01*
X21115944Y17647049D01*
X21115944Y17157779D01*
X21502210Y17157779D01*
X21576245Y17154560D01*
X21634185Y17134174D01*
X21682468Y17074088D01*
X21697489Y16960354D01*
X21682468Y16848766D01*
X21633112Y16788680D01*
X21574099Y16768294D01*
X21500064Y16765075D01*
X20392768Y16765075D01*
X20320880Y16768294D01*
X20261867Y16788680D01*
X20212511Y16848766D01*
X20197489Y16962500D01*
X20212511Y17074088D01*
X20261867Y17134174D01*
X20320880Y17154560D01*
X20394914Y17157779D01*
X20781180Y17157779D01*
X20781180Y17647049D01*
X20392768Y17647049D01*
X20320880Y17650268D01*
X20261867Y17670655D01*
X20212511Y17730740D01*
X20197489Y17844474D01*
X20212511Y17956062D01*
X20261867Y18016148D01*
X20320880Y18036534D01*
X20394914Y18039753D01*
X21502210Y18039753D01*
X21576245Y18036534D01*
G37*
G36*
X21502210Y15876663D02*
G01*
X21576245Y15873444D01*
X21634185Y15853058D01*
X21682468Y15792972D01*
X21697489Y15679238D01*
X21682468Y15567650D01*
X21633112Y15507564D01*
X21574099Y15487178D01*
X21500064Y15483959D01*
X20392768Y15483959D01*
X20320880Y15487178D01*
X20261867Y15507564D01*
X20212511Y15567650D01*
X20197489Y15681384D01*
X20197489Y16108423D01*
X20590193Y16108423D01*
X20590193Y15876663D01*
X20903498Y15876663D01*
X20903498Y16112715D01*
X20864871Y16215719D01*
X20746845Y16265075D01*
X20635258Y16218938D01*
X20590193Y16108423D01*
X20197489Y16108423D01*
X20197489Y16112715D01*
X20206073Y16199893D01*
X20231824Y16289753D01*
X20273670Y16379345D01*
X20330536Y16465719D01*
X20406448Y16542704D01*
X20505429Y16604131D01*
X20621577Y16644367D01*
X20748991Y16657779D01*
X20909697Y16636797D01*
X21048467Y16573850D01*
X21165300Y16468938D01*
X21371309Y16623444D01*
X21519378Y16681384D01*
X21645987Y16578380D01*
X21705000Y16426019D01*
X21605215Y16305848D01*
X21294056Y16076234D01*
X21294056Y15876663D01*
X21502210Y15876663D01*
G37*
%TO.C,kibuzzard-673EAEDE*%
G36*
X6156132Y13184979D02*
G01*
X6205131Y13127039D01*
X6564215Y12384549D01*
X6583528Y12282976D01*
X6504129Y12212876D01*
X6398264Y12192132D01*
X6328163Y12274392D01*
X6262355Y12410300D01*
X6017720Y12410300D01*
X5910424Y12410300D01*
X5844616Y12272961D01*
X5773085Y12193562D01*
X5668650Y12214306D01*
X5588535Y12283691D01*
X5607133Y12384549D01*
X5727288Y12633476D01*
X6017720Y12633476D01*
X6152198Y12633476D01*
X6084959Y12772246D01*
X6017720Y12633476D01*
X5727288Y12633476D01*
X5966218Y13128469D01*
X6016289Y13183548D01*
X6086389Y13204292D01*
X6156132Y13184979D01*
G37*
G36*
X5156490Y13195172D02*
G01*
X5248049Y13167811D01*
X5332455Y13122210D01*
X5409709Y13058369D01*
X5474176Y12981831D01*
X5520224Y12898140D01*
X5547852Y12807296D01*
X5557062Y12709299D01*
X5547852Y12608664D01*
X5520224Y12515629D01*
X5474176Y12430195D01*
X5409709Y12352361D01*
X5332187Y12287580D01*
X5246976Y12241309D01*
X5154075Y12213546D01*
X5053485Y12204292D01*
X4941897Y12204292D01*
X4810281Y12204292D01*
X4738035Y12214306D01*
X4698693Y12245064D01*
X4683671Y12285122D01*
X4680095Y12335908D01*
X4680095Y12466094D01*
X4941897Y12466094D01*
X5057777Y12466094D01*
X5148264Y12483441D01*
X5225159Y12535479D01*
X5277734Y12612196D01*
X5295259Y12703577D01*
X5277734Y12795136D01*
X5225159Y12872389D01*
X5147906Y12924964D01*
X5056347Y12942489D01*
X4941897Y12942489D01*
X4941897Y12466094D01*
X4680095Y12466094D01*
X4680095Y13075536D01*
X4682241Y13123462D01*
X4695832Y13162804D01*
X4735889Y13194993D01*
X4811711Y13204292D01*
X5057777Y13204292D01*
X5156490Y13195172D01*
G37*
G36*
X4347397Y13210491D02*
G01*
X4438480Y13181879D01*
X4512713Y13134192D01*
X4564215Y13060515D01*
X4529880Y12972532D01*
X4445474Y12903147D01*
X4349623Y12929614D01*
X4333171Y12943205D01*
X4313142Y12959657D01*
X4285245Y12970386D01*
X4238035Y12975393D01*
X4185102Y12957511D01*
X4162212Y12913877D01*
X4187248Y12867382D01*
X4243757Y12842346D01*
X4331025Y12824464D01*
X4422584Y12802289D01*
X4503593Y12765093D01*
X4566361Y12710730D01*
X4606597Y12633119D01*
X4620009Y12526180D01*
X4613929Y12457868D01*
X4595688Y12395994D01*
X4533457Y12299428D01*
X4445474Y12235765D01*
X4347477Y12199285D01*
X4252341Y12188555D01*
X4172226Y12194993D01*
X4104987Y12210730D01*
X4049909Y12234335D01*
X4005560Y12261516D01*
X3971225Y12289413D01*
X3946189Y12314449D01*
X3930452Y12334478D01*
X3921869Y12344492D01*
X3886103Y12437482D01*
X3946189Y12529041D01*
X4005639Y12562105D01*
X4067633Y12552567D01*
X4132169Y12500429D01*
X4190109Y12448212D01*
X4246618Y12434621D01*
X4331025Y12455365D01*
X4356776Y12521888D01*
X4319580Y12566237D01*
X4207276Y12599857D01*
X4139143Y12618276D01*
X4084959Y12637768D01*
X4004844Y12683548D01*
X3947620Y12745064D01*
X3913285Y12822318D01*
X3901840Y12915308D01*
X3912490Y12998045D01*
X3944441Y13070768D01*
X3997691Y13133476D01*
X4067156Y13181561D01*
X4147747Y13210412D01*
X4239465Y13220029D01*
X4347397Y13210491D01*
G37*
%TO.C,kibuzzard-673EAEC1*%
G36*
X4248290Y20792818D02*
G01*
X4276903Y20690529D01*
X4276903Y19946609D01*
X4248290Y19846466D01*
X4146717Y19817854D01*
X4046574Y19846466D01*
X4017961Y19948040D01*
X4017961Y20431588D01*
X4003655Y20418712D01*
X3915672Y20377225D01*
X3830551Y20427296D01*
X3786202Y20521717D01*
X3802654Y20567496D01*
X3846288Y20616137D01*
X4027976Y20779227D01*
X4050866Y20797825D01*
X4148147Y20822146D01*
X4248290Y20792818D01*
G37*
G36*
X4824431Y20825643D02*
G01*
X4913368Y20793216D01*
X4987203Y20739170D01*
X5042441Y20671931D01*
X5075583Y20599924D01*
X5086631Y20523147D01*
X5061953Y20418355D01*
X4987918Y20347182D01*
X5068033Y20269928D01*
X5097003Y20212704D01*
X5106660Y20144034D01*
X5094499Y20051442D01*
X5058019Y19970135D01*
X4997217Y19900114D01*
X4917818Y19846466D01*
X4825544Y19814278D01*
X4720393Y19803548D01*
X4622635Y19814278D01*
X4533460Y19846466D01*
X4452868Y19900114D01*
X4389285Y19967910D01*
X4351136Y20042540D01*
X4338419Y20124006D01*
X4374185Y20191602D01*
X4481481Y20214134D01*
X4560165Y20198398D01*
X4601652Y20131159D01*
X4604514Y20123290D01*
X4615243Y20106123D01*
X4636702Y20084664D01*
X4671037Y20067496D01*
X4721824Y20059628D01*
X4811237Y20081803D01*
X4844857Y20141173D01*
X4817318Y20203405D01*
X4734700Y20224149D01*
X4695358Y20224149D01*
X4662454Y20230587D01*
X4630265Y20248469D01*
X4613097Y20285665D01*
X4604514Y20348612D01*
X4613813Y20420143D01*
X4643856Y20457339D01*
X4680336Y20469499D01*
X4726116Y20471645D01*
X4736130Y20471645D01*
X4802654Y20480944D01*
X4823398Y20517425D01*
X4799793Y20566781D01*
X4734700Y20584664D01*
X4673183Y20570358D01*
X4631695Y20527439D01*
X4588141Y20468466D01*
X4528055Y20451776D01*
X4451438Y20477368D01*
X4380622Y20556052D01*
X4401366Y20654764D01*
X4403512Y20659771D01*
X4411381Y20675508D01*
X4425687Y20699113D01*
X4448577Y20727725D01*
X4480050Y20758484D01*
X4522253Y20787811D01*
X4575186Y20812847D01*
X4640994Y20830014D01*
X4720393Y20836452D01*
X4824431Y20825643D01*
G37*
%TO.C,kibuzzard-673EAF38*%
G36*
X48306041Y55101416D02*
G01*
X48355039Y55043476D01*
X48714124Y54300987D01*
X48733437Y54199413D01*
X48654038Y54129313D01*
X48548172Y54108569D01*
X48478072Y54190830D01*
X48412264Y54326738D01*
X48167629Y54326738D01*
X48060333Y54326738D01*
X47994524Y54189399D01*
X47922994Y54110000D01*
X47818559Y54130744D01*
X47738444Y54200129D01*
X47757042Y54300987D01*
X47877197Y54549914D01*
X48167629Y54549914D01*
X48302107Y54549914D01*
X48234868Y54688684D01*
X48167629Y54549914D01*
X47877197Y54549914D01*
X48116127Y55044907D01*
X48166198Y55099986D01*
X48236298Y55120730D01*
X48306041Y55101416D01*
G37*
G36*
X49279217Y55122160D02*
G01*
X49328573Y55119299D01*
X49367200Y55105708D01*
X49399388Y55065651D01*
X49409403Y54987682D01*
X49400104Y54916152D01*
X49369345Y54878240D01*
X49332149Y54865365D01*
X49286370Y54863219D01*
X49066055Y54863219D01*
X49056041Y54787396D01*
X49080361Y54790258D01*
X49087514Y54790258D01*
X49174464Y54779051D01*
X49254101Y54745432D01*
X49326427Y54689399D01*
X49383652Y54618584D01*
X49417986Y54540615D01*
X49429431Y54455494D01*
X49418304Y54360676D01*
X49384923Y54276508D01*
X49329288Y54202990D01*
X49257281Y54146163D01*
X49174782Y54112066D01*
X49081792Y54100701D01*
X49004539Y54106960D01*
X48933008Y54125737D01*
X48835726Y54175093D01*
X48805683Y54200844D01*
X48751320Y54288112D01*
X48804253Y54385393D01*
X48892951Y54434034D01*
X48990232Y54386824D01*
X49073208Y54363934D01*
X49141878Y54385393D01*
X49166198Y54445479D01*
X49140447Y54504850D01*
X49077500Y54528455D01*
X49021706Y54508426D01*
X48941592Y54474092D01*
X48848602Y54502704D01*
X48784939Y54545622D01*
X48767057Y54587110D01*
X48819989Y54993405D01*
X48827142Y55033462D01*
X48843594Y55072804D01*
X48883652Y55110715D01*
X48951606Y55123591D01*
X49279217Y55122160D01*
G37*
D12*
%TO.C,C1*%
X23000580Y33530000D02*
X22719420Y33530000D01*
X23000580Y32510000D02*
X22719420Y32510000D01*
D10*
%TO.C,kibuzzard-673EA3A1*%
G36*
X45388348Y25756223D02*
G01*
X45465601Y25736910D01*
X45535343Y25688627D01*
X45562167Y25607082D01*
X45550365Y25506491D01*
X45514957Y25423605D01*
X45394785Y25349571D01*
X45312167Y25365665D01*
X45259592Y25381760D01*
X45153369Y25350644D01*
X45111524Y25272318D01*
X45111524Y24853863D01*
X45108305Y24780901D01*
X45087918Y24724034D01*
X45027833Y24675751D01*
X44914099Y24660730D01*
X44803584Y24675751D01*
X44744571Y24725107D01*
X44724185Y24784120D01*
X44720966Y24858155D01*
X44720966Y25557725D01*
X44724185Y25630687D01*
X44744571Y25687554D01*
X44803584Y25735837D01*
X44916245Y25750858D01*
X45040708Y25728863D01*
X45100794Y25662876D01*
X45209163Y25736910D01*
X45323970Y25761588D01*
X45388348Y25756223D01*
G37*
G36*
X41476927Y25758250D02*
G01*
X41611762Y25703171D01*
X41730622Y25611373D01*
X41823016Y25493109D01*
X41878453Y25358631D01*
X41896931Y25207940D01*
X41877260Y25049857D01*
X41818247Y24913233D01*
X41719893Y24798069D01*
X41597933Y24711040D01*
X41468104Y24658822D01*
X41330408Y24641416D01*
X41326116Y24641965D01*
X41191400Y24659180D01*
X41060498Y24712470D01*
X40937704Y24801288D01*
X40838753Y24917287D01*
X40779382Y25052122D01*
X40759592Y25205794D01*
X40759860Y25207940D01*
X41152296Y25207940D01*
X41208090Y25077039D01*
X41326116Y25034120D01*
X41446288Y25077039D01*
X41504227Y25210086D01*
X41454871Y25336695D01*
X41323970Y25383906D01*
X41202725Y25333476D01*
X41152296Y25207940D01*
X40759860Y25207940D01*
X40778190Y25354459D01*
X40833984Y25488579D01*
X40926974Y25608155D01*
X41045715Y25701741D01*
X41178763Y25757892D01*
X41326116Y25776609D01*
X41476927Y25758250D01*
G37*
G36*
X40239742Y26154292D02*
G01*
X40330408Y26128541D01*
X40420536Y26086695D01*
X40506373Y26029828D01*
X40582822Y25953916D01*
X40644785Y25854936D01*
X40685826Y25738788D01*
X40699506Y25611373D01*
X40686094Y25484496D01*
X40645858Y25369957D01*
X40584431Y25272586D01*
X40507446Y25197210D01*
X40420536Y25140343D01*
X40329335Y25098498D01*
X40237865Y25072747D01*
X40150150Y25064163D01*
X39920536Y25064163D01*
X39920536Y24858155D01*
X39917318Y24784120D01*
X39896931Y24726180D01*
X39836845Y24677897D01*
X39723112Y24662876D01*
X39611524Y24677897D01*
X39551438Y24727253D01*
X39531052Y24786266D01*
X39527833Y24860300D01*
X39527833Y25456867D01*
X39920536Y25456867D01*
X40152296Y25456867D01*
X40258519Y25495494D01*
X40308948Y25613519D01*
X40262811Y25725107D01*
X40150150Y25770172D01*
X39920536Y25770172D01*
X39920536Y25456867D01*
X39527833Y25456867D01*
X39527833Y25967597D01*
X39531052Y26039485D01*
X39551438Y26098498D01*
X39611524Y26147854D01*
X39725258Y26162876D01*
X40152296Y26162876D01*
X40239742Y26154292D01*
G37*
G36*
X44276402Y25758965D02*
G01*
X44399077Y25712470D01*
X44496717Y25634979D01*
X44592479Y25491738D01*
X44624399Y25340987D01*
X44609646Y25234496D01*
X44565386Y25155365D01*
X44496985Y25106277D01*
X44409807Y25089914D01*
X43952725Y25089914D01*
X44017103Y25008369D01*
X44143712Y24978326D01*
X44317532Y25006223D01*
X44416245Y25034120D01*
X44487060Y25008369D01*
X44545000Y24931116D01*
X44572897Y24832403D01*
X44545000Y24746969D01*
X44461309Y24685944D01*
X44321824Y24649329D01*
X44126545Y24637124D01*
X43982768Y24650268D01*
X43856159Y24689700D01*
X43751277Y24750590D01*
X43672682Y24828112D01*
X43615279Y24916094D01*
X43573970Y25008369D01*
X43549024Y25103863D01*
X43540708Y25201502D01*
X43551084Y25291631D01*
X43952725Y25291631D01*
X44193069Y25291631D01*
X44251009Y25343133D01*
X44216674Y25406438D01*
X44124399Y25428970D01*
X44003155Y25387124D01*
X43952725Y25291631D01*
X43551084Y25291631D01*
X43558948Y25359943D01*
X43613670Y25497639D01*
X43704871Y25614592D01*
X43824924Y25703410D01*
X43966197Y25756700D01*
X44128691Y25774464D01*
X44276402Y25758965D01*
G37*
G36*
X42262454Y25737744D02*
G01*
X42315386Y25656438D01*
X42431266Y25336695D01*
X42532124Y25613519D01*
X42603476Y25718133D01*
X42714528Y25753004D01*
X42833627Y25717597D01*
X42907661Y25611373D01*
X43006373Y25336695D01*
X43109378Y25622103D01*
X43169702Y25723200D01*
X43253393Y25763257D01*
X43360451Y25742275D01*
X43458686Y25677659D01*
X43498743Y25598259D01*
X43480622Y25504077D01*
X43193069Y24806652D01*
X43186631Y24790558D01*
X43178047Y24771245D01*
X43168391Y24751931D01*
X43156588Y24730472D01*
X43142639Y24711159D01*
X43124399Y24692918D01*
X43102940Y24677897D01*
X43076116Y24665021D01*
X43045000Y24657511D01*
X43008519Y24654292D01*
X42924828Y24666094D01*
X42870107Y24705794D01*
X42841137Y24751931D01*
X42817532Y24806652D01*
X42718820Y25070601D01*
X42620107Y24806652D01*
X42609378Y24778755D01*
X42598648Y24750858D01*
X42588991Y24727253D01*
X42575043Y24705794D01*
X42558948Y24689700D01*
X42537489Y24673605D01*
X42509592Y24663948D01*
X42474185Y24656438D01*
X42431266Y24654292D01*
X42348648Y24668240D01*
X42290708Y24714378D01*
X42261738Y24759442D01*
X42242425Y24806652D01*
X41957017Y25508369D01*
X41949506Y25648927D01*
X42062167Y25735837D01*
X42178047Y25764211D01*
X42262454Y25737744D01*
G37*
D12*
%TO.C,D4*%
X41145000Y30345000D02*
X41145000Y29345000D01*
D10*
%TO.C,kibuzzard-673EAF76*%
G36*
X48033963Y27093462D02*
G01*
X48260000Y26536953D01*
X48486037Y27093462D01*
X48553276Y27174292D01*
X48659142Y27153548D01*
X48741402Y27084878D01*
X48724950Y26986166D01*
X48385894Y26240815D01*
X48336538Y26188598D01*
X48262861Y26169285D01*
X48182747Y26187167D01*
X48134106Y26240815D01*
X47795050Y26986166D01*
X47780744Y27085594D01*
X47860858Y27153548D01*
X47968155Y27175007D01*
X48033963Y27093462D01*
G37*
G36*
X47436999Y27172782D02*
G01*
X47525935Y27140354D01*
X47599771Y27086309D01*
X47655009Y27019070D01*
X47688151Y26947062D01*
X47699199Y26870286D01*
X47674521Y26765494D01*
X47600486Y26694320D01*
X47680601Y26617067D01*
X47709571Y26559843D01*
X47719227Y26491173D01*
X47707067Y26398581D01*
X47670587Y26317274D01*
X47609785Y26247253D01*
X47530386Y26193605D01*
X47438112Y26161416D01*
X47332961Y26150687D01*
X47235203Y26161416D01*
X47146028Y26193605D01*
X47065436Y26247253D01*
X47001853Y26315048D01*
X46963704Y26389679D01*
X46950987Y26471144D01*
X46986753Y26538741D01*
X47094049Y26561273D01*
X47172732Y26545536D01*
X47214220Y26478298D01*
X47217082Y26470429D01*
X47227811Y26453262D01*
X47249270Y26431803D01*
X47283605Y26414635D01*
X47334392Y26406767D01*
X47423805Y26428941D01*
X47457425Y26488312D01*
X47429886Y26550544D01*
X47347268Y26571288D01*
X47307926Y26571288D01*
X47275021Y26577725D01*
X47242833Y26595608D01*
X47225665Y26632804D01*
X47217082Y26695751D01*
X47226381Y26767282D01*
X47256423Y26804478D01*
X47292904Y26816638D01*
X47338684Y26818784D01*
X47348698Y26818784D01*
X47415222Y26828083D01*
X47435966Y26864564D01*
X47412361Y26913920D01*
X47347268Y26931803D01*
X47285751Y26917496D01*
X47244263Y26874578D01*
X47200709Y26815605D01*
X47140623Y26798914D01*
X47064006Y26824506D01*
X46993190Y26903190D01*
X47013934Y27001903D01*
X47016080Y27006910D01*
X47023948Y27022647D01*
X47038255Y27046252D01*
X47061144Y27074864D01*
X47092618Y27105622D01*
X47134821Y27134950D01*
X47187754Y27159986D01*
X47253562Y27177153D01*
X47332961Y27183591D01*
X47436999Y27172782D01*
G37*
G36*
X49286784Y27172782D02*
G01*
X49375721Y27140354D01*
X49449557Y27086309D01*
X49504794Y27019070D01*
X49537937Y26947062D01*
X49548984Y26870286D01*
X49524306Y26765494D01*
X49450272Y26694320D01*
X49530386Y26617067D01*
X49559356Y26559843D01*
X49569013Y26491173D01*
X49556853Y26398581D01*
X49520372Y26317274D01*
X49459571Y26247253D01*
X49380172Y26193605D01*
X49287897Y26161416D01*
X49182747Y26150687D01*
X49084988Y26161416D01*
X48995813Y26193605D01*
X48915222Y26247253D01*
X48851639Y26315048D01*
X48813489Y26389679D01*
X48800773Y26471144D01*
X48836538Y26538741D01*
X48943834Y26561273D01*
X49022518Y26545536D01*
X49064006Y26478298D01*
X49066867Y26470429D01*
X49077597Y26453262D01*
X49099056Y26431803D01*
X49133391Y26414635D01*
X49184177Y26406767D01*
X49273591Y26428941D01*
X49307210Y26488312D01*
X49279671Y26550544D01*
X49197053Y26571288D01*
X49157711Y26571288D01*
X49124807Y26577725D01*
X49092618Y26595608D01*
X49075451Y26632804D01*
X49066867Y26695751D01*
X49076166Y26767282D01*
X49106209Y26804478D01*
X49142690Y26816638D01*
X49188469Y26818784D01*
X49198484Y26818784D01*
X49265007Y26828083D01*
X49285751Y26864564D01*
X49262146Y26913920D01*
X49197053Y26931803D01*
X49135536Y26917496D01*
X49094049Y26874578D01*
X49050494Y26815605D01*
X48990409Y26798914D01*
X48913791Y26824506D01*
X48842976Y26903190D01*
X48863720Y27001903D01*
X48865866Y27006910D01*
X48873734Y27022647D01*
X48888040Y27046252D01*
X48910930Y27074864D01*
X48942403Y27105622D01*
X48984607Y27134950D01*
X49037539Y27159986D01*
X49103348Y27177153D01*
X49182747Y27183591D01*
X49286784Y27172782D01*
G37*
%TO.C,kibuzzard-673EAE60*%
G36*
X5600840Y52535665D02*
G01*
X5656634Y52442675D01*
X5607994Y52351116D01*
X5350483Y52069285D01*
X5606563Y51787454D01*
X5655919Y51695179D01*
X5599410Y51604335D01*
X5502128Y51553548D01*
X5414861Y51612918D01*
X5175948Y51876152D01*
X4935604Y51612918D01*
X4848337Y51553548D01*
X4751055Y51604335D01*
X4694546Y51695179D01*
X4743902Y51787454D01*
X4999982Y52069285D01*
X4742471Y52351116D01*
X4694546Y52442675D01*
X4749624Y52535665D01*
X4846906Y52586452D01*
X4934174Y52527082D01*
X5175948Y52262418D01*
X5416291Y52527082D01*
X5503559Y52586452D01*
X5600840Y52535665D01*
G37*
G36*
X4345655Y52564278D02*
G01*
X4405562Y52547110D01*
X4465290Y52519213D01*
X4522872Y52481302D01*
X4574195Y52430694D01*
X4615147Y52364707D01*
X4641971Y52287275D01*
X4650912Y52202332D01*
X4636924Y52095195D01*
X4594959Y52002682D01*
X4525018Y51924793D01*
X4628022Y51787454D01*
X4666649Y51688741D01*
X4597979Y51604335D01*
X4496406Y51564993D01*
X4416291Y51631516D01*
X4263215Y51838956D01*
X4130168Y51838956D01*
X4130168Y51700186D01*
X4128022Y51650830D01*
X4114431Y51612203D01*
X4074374Y51580014D01*
X3998552Y51570000D01*
X3924160Y51580014D01*
X3884102Y51612918D01*
X3870511Y51652260D01*
X3868366Y51701617D01*
X3868366Y52099328D01*
X4130168Y52099328D01*
X4287536Y52099328D01*
X4356205Y52125079D01*
X4389109Y52203763D01*
X4358351Y52278155D01*
X4284675Y52308197D01*
X4130168Y52308197D01*
X4130168Y52099328D01*
X3868366Y52099328D01*
X3868366Y52439814D01*
X3870511Y52487740D01*
X3884102Y52527082D01*
X3924160Y52559986D01*
X3999982Y52570000D01*
X4287536Y52570000D01*
X4345655Y52564278D01*
G37*
D12*
%TO.C,R3*%
X8174758Y10047500D02*
X7700242Y10047500D01*
X8174758Y9002500D02*
X7700242Y9002500D01*
D11*
%TO.C,J4*%
X15115000Y4150000D02*
X15115000Y2350000D01*
X6475000Y4150000D02*
X6475000Y2350000D01*
D10*
%TO.C,kibuzzard-673EAEC8*%
G36*
X5652913Y18267840D02*
G01*
X5692970Y18234936D01*
X5706561Y18195594D01*
X5708707Y18146237D01*
X5708707Y17408040D01*
X5706561Y17358684D01*
X5692970Y17320057D01*
X5652913Y17287868D01*
X5577090Y17277854D01*
X5503414Y17285722D01*
X5461211Y17316481D01*
X5090681Y17805751D01*
X5090681Y17408040D01*
X5088535Y17358684D01*
X5074945Y17320057D01*
X5034887Y17287868D01*
X4959065Y17277854D01*
X4885388Y17287868D01*
X4846761Y17320057D01*
X4833171Y17359399D01*
X4830309Y17409471D01*
X4830309Y18151960D01*
X4833171Y18199886D01*
X4847477Y18237797D01*
X4886819Y18268555D01*
X4961926Y18277854D01*
X5027019Y18269270D01*
X5063500Y18251388D01*
X5089251Y18222060D01*
X5446905Y17741373D01*
X5446905Y18151960D01*
X5449766Y18199170D01*
X5464072Y18237082D01*
X5504129Y18267840D01*
X5578521Y18277854D01*
X5652913Y18267840D01*
G37*
G36*
X6265216Y18270165D02*
G01*
X6356776Y18242804D01*
X6441182Y18197203D01*
X6518435Y18133362D01*
X6582902Y18056824D01*
X6628950Y17973133D01*
X6656579Y17882289D01*
X6665789Y17784292D01*
X6656579Y17683657D01*
X6628950Y17590622D01*
X6582902Y17505188D01*
X6518435Y17427353D01*
X6440914Y17362573D01*
X6355703Y17316302D01*
X6262802Y17288539D01*
X6162212Y17279285D01*
X6050624Y17279285D01*
X5919008Y17279285D01*
X5846761Y17289299D01*
X5807420Y17320057D01*
X5792398Y17360114D01*
X5788822Y17410901D01*
X5788822Y17541087D01*
X6050624Y17541087D01*
X6166504Y17541087D01*
X6256990Y17558433D01*
X6333886Y17610472D01*
X6386461Y17687189D01*
X6403986Y17778569D01*
X6386461Y17870129D01*
X6333886Y17947382D01*
X6256633Y17999957D01*
X6165073Y18017482D01*
X6050624Y18017482D01*
X6050624Y17541087D01*
X5788822Y17541087D01*
X5788822Y18150529D01*
X5790967Y18198455D01*
X5804558Y18237797D01*
X5844616Y18269986D01*
X5920438Y18279285D01*
X6166504Y18279285D01*
X6265216Y18270165D01*
G37*
G36*
X4399515Y18291266D02*
G01*
X4479093Y18275708D01*
X4554379Y18250851D01*
X4615717Y18217768D01*
X4655774Y18189156D01*
X4682241Y18159113D01*
X4695832Y18117625D01*
X4662927Y18037511D01*
X4609995Y17980644D01*
X4557062Y17961688D01*
X4479809Y17994592D01*
X4406490Y18024635D01*
X4318149Y18034649D01*
X4224086Y18016946D01*
X4145045Y17963834D01*
X4091397Y17884971D01*
X4073514Y17790014D01*
X4092112Y17692017D01*
X4147906Y17606896D01*
X4228378Y17547883D01*
X4321010Y17528212D01*
X4403271Y17532861D01*
X4464072Y17546810D01*
X4464072Y17669843D01*
X4358206Y17669843D01*
X4319580Y17671989D01*
X4289537Y17683433D01*
X4265216Y17717053D01*
X4258063Y17781431D01*
X4265932Y17844378D01*
X4292398Y17877997D01*
X4323872Y17889442D01*
X4362498Y17891588D01*
X4612856Y17891588D01*
X4667935Y17881574D01*
X4701554Y17862976D01*
X4718721Y17834363D01*
X4725159Y17802890D01*
X4725874Y17767124D01*
X4725874Y17473848D01*
X4691540Y17391588D01*
X4651125Y17352425D01*
X4598550Y17319342D01*
X4519389Y17288345D01*
X4424968Y17269747D01*
X4315288Y17263548D01*
X4215860Y17273294D01*
X4123585Y17302532D01*
X4038464Y17351263D01*
X3960495Y17419485D01*
X3895402Y17501298D01*
X3848907Y17590801D01*
X3821010Y17687994D01*
X3811711Y17792876D01*
X3821144Y17892884D01*
X3849444Y17985472D01*
X3896609Y18070638D01*
X3962641Y18148383D01*
X4041906Y18213163D01*
X4128771Y18259435D01*
X4223237Y18287198D01*
X4325302Y18296452D01*
X4399515Y18291266D01*
G37*
%TO.C,kibuzzard-673EAF23*%
G36*
X48254539Y42395694D02*
G01*
X48303537Y42337754D01*
X48662622Y41595265D01*
X48681935Y41493691D01*
X48602536Y41423591D01*
X48496670Y41402847D01*
X48426570Y41485107D01*
X48360762Y41621016D01*
X48116127Y41621016D01*
X48008830Y41621016D01*
X47943022Y41483677D01*
X47871491Y41404278D01*
X47767057Y41425021D01*
X47686942Y41494406D01*
X47705540Y41595265D01*
X47825695Y41844192D01*
X48116127Y41844192D01*
X48250604Y41844192D01*
X48183366Y41982961D01*
X48116127Y41844192D01*
X47825695Y41844192D01*
X48064624Y42339185D01*
X48114696Y42394263D01*
X48184796Y42415007D01*
X48254539Y42395694D01*
G37*
G36*
X49186584Y42420014D02*
G01*
X49263480Y42392117D01*
X49327142Y42350451D01*
X49375068Y42299843D01*
X49411370Y42240114D01*
X49440161Y42171087D01*
X49460905Y42100451D01*
X49473065Y42035894D01*
X49478966Y41974020D01*
X49480933Y41911431D01*
X49478788Y41847232D01*
X49472350Y41783391D01*
X49459653Y41717582D01*
X49438730Y41647482D01*
X49409939Y41579707D01*
X49373637Y41520873D01*
X49326069Y41471159D01*
X49263480Y41430744D01*
X49188015Y41403920D01*
X49101820Y41394979D01*
X49096098Y41395435D01*
X49025640Y41401059D01*
X48957328Y41419299D01*
X48898852Y41448448D01*
X48852178Y41487253D01*
X48782078Y41581674D01*
X48756506Y41635322D01*
X48738444Y41694692D01*
X48718416Y41808426D01*
X48712771Y41911431D01*
X48974496Y41911431D01*
X48982096Y41800647D01*
X49004896Y41721516D01*
X49042897Y41674038D01*
X49096098Y41658212D01*
X49155469Y41677525D01*
X49191949Y41721159D01*
X49210547Y41785536D01*
X49218416Y41848484D01*
X49219131Y41905708D01*
X49219131Y41912861D01*
X49211531Y42024270D01*
X49188730Y42103848D01*
X49150730Y42151595D01*
X49097529Y42167511D01*
X49043702Y42151506D01*
X49005254Y42103491D01*
X48982185Y42023466D01*
X48974496Y41911431D01*
X48712771Y41911431D01*
X48712693Y41912861D01*
X48714481Y41972947D01*
X48719846Y42033033D01*
X48731470Y42096695D01*
X48752035Y42167511D01*
X48780826Y42237253D01*
X48817128Y42297697D01*
X48865411Y42349020D01*
X48930147Y42391402D01*
X49008830Y42419835D01*
X49098959Y42429313D01*
X49186584Y42420014D01*
G37*
%TO.C,kibuzzard-673EA5E2*%
G36*
X5634900Y44676037D02*
G01*
X5649921Y44631688D01*
X5639907Y44587339D01*
X5605572Y44577325D01*
X5588405Y44577325D01*
X5501137Y44553720D01*
X5475386Y44471459D01*
X5499707Y44386338D01*
X5581252Y44361302D01*
X5599850Y44361302D01*
X5659935Y44347711D01*
X5678533Y44288340D01*
X5670665Y44243276D01*
X5649206Y44218956D01*
X5627031Y44211087D01*
X5607003Y44209657D01*
X5402425Y44209657D01*
X5402425Y44687482D01*
X5575529Y44687482D01*
X5634900Y44676037D01*
G37*
G36*
X8859745Y44450000D02*
G01*
X9364911Y43692251D01*
X8859745Y43692251D01*
X8621309Y43692251D01*
X8166373Y43692251D01*
X7322310Y43692251D01*
X6449635Y43692251D01*
X5270808Y43692251D01*
X4976101Y43692251D01*
X4340908Y43692251D01*
X3732897Y43692251D01*
X3017589Y43692251D01*
X3017589Y44359871D01*
X3732897Y44359871D01*
X3735043Y44310515D01*
X3748634Y44271173D01*
X3788691Y44238269D01*
X3863083Y44228255D01*
X4210722Y44228255D01*
X4210722Y44079471D01*
X4212868Y44030114D01*
X4226459Y43990773D01*
X4266516Y43957868D01*
X4340908Y43947854D01*
X4416731Y43957868D01*
X4456788Y43989342D01*
X4471094Y44028684D01*
X4473955Y44078040D01*
X4473955Y44530114D01*
X4532611Y44530114D01*
X4539764Y44464306D01*
X4571595Y44427825D01*
X4635615Y44415665D01*
X4976101Y44415665D01*
X5047632Y44428541D01*
X5072668Y44463591D01*
X5080536Y44528684D01*
X5071953Y44594492D01*
X5041194Y44629900D01*
X4977532Y44641702D01*
X4637046Y44641702D01*
X4568376Y44628827D01*
X4541194Y44594492D01*
X4532611Y44530114D01*
X4473955Y44530114D01*
X4473955Y44817668D01*
X4473871Y44819099D01*
X5140622Y44819099D01*
X5140622Y44080901D01*
X5142768Y44030830D01*
X5156359Y43990773D01*
X5196416Y43957868D01*
X5270808Y43947854D01*
X5621309Y43947854D01*
X5704046Y43958345D01*
X5778676Y43989819D01*
X5845200Y44042275D01*
X5897418Y44109832D01*
X5929130Y44186608D01*
X5940336Y44272604D01*
X5921380Y44382403D01*
X5864513Y44482904D01*
X5899921Y44559442D01*
X5911724Y44643133D01*
X5901868Y44722373D01*
X5872302Y44794142D01*
X5854273Y44817668D01*
X6009006Y44817668D01*
X6009006Y44417096D01*
X6016159Y44330544D01*
X6037618Y44245422D01*
X6072489Y44164235D01*
X6119878Y44089485D01*
X6181573Y44024928D01*
X6259363Y43974320D01*
X6349850Y43941595D01*
X6449635Y43930687D01*
X6549599Y43941416D01*
X6640622Y43973605D01*
X6719127Y44023498D01*
X6781538Y44087339D01*
X6829642Y44161552D01*
X6838205Y44181044D01*
X6956073Y44181044D01*
X6991838Y44088054D01*
X7000422Y44078040D01*
X7016159Y44058011D01*
X7041194Y44032976D01*
X7075529Y44005079D01*
X7119878Y43977897D01*
X7174957Y43954292D01*
X7242196Y43938555D01*
X7322310Y43932117D01*
X7417446Y43942847D01*
X7515443Y43979328D01*
X7603426Y44042990D01*
X7665658Y44139557D01*
X7683898Y44201431D01*
X7689978Y44269742D01*
X7676566Y44376681D01*
X7636330Y44454292D01*
X7573562Y44508655D01*
X7492553Y44545851D01*
X7400994Y44568026D01*
X7313727Y44585908D01*
X7257217Y44610944D01*
X7232181Y44657439D01*
X7255071Y44701073D01*
X7308004Y44718956D01*
X7355214Y44713948D01*
X7383111Y44703219D01*
X7403140Y44686767D01*
X7419592Y44673176D01*
X7515443Y44646710D01*
X7599850Y44716094D01*
X7634184Y44804077D01*
X7604683Y44846280D01*
X7718591Y44846280D01*
X7750064Y44750429D01*
X8034757Y44324106D01*
X8034757Y44076609D01*
X8036903Y44026538D01*
X8050493Y43986481D01*
X8090551Y43953577D01*
X8166373Y43943562D01*
X8242196Y43953577D01*
X8282253Y43985765D01*
X8295844Y44024392D01*
X8297990Y44073748D01*
X8297990Y44324106D01*
X8582682Y44750429D01*
X8614156Y44844134D01*
X8545486Y44926395D01*
X8440336Y44960730D01*
X8360937Y44890629D01*
X8162081Y44584478D01*
X7971810Y44890629D01*
X7894556Y44960730D01*
X7848777Y44956438D01*
X7788691Y44926395D01*
X7718591Y44846280D01*
X7604683Y44846280D01*
X7582682Y44877754D01*
X7508449Y44925441D01*
X7417367Y44954053D01*
X7309435Y44963591D01*
X7217716Y44953974D01*
X7137125Y44925123D01*
X7067661Y44877039D01*
X7014410Y44814330D01*
X6982460Y44741607D01*
X6971810Y44658870D01*
X6983254Y44565880D01*
X7017589Y44488627D01*
X7074814Y44427110D01*
X7154928Y44381330D01*
X7209113Y44361838D01*
X7277246Y44343419D01*
X7389549Y44309800D01*
X7426745Y44265451D01*
X7400994Y44198927D01*
X7316588Y44178183D01*
X7260078Y44191774D01*
X7202139Y44243991D01*
X7137602Y44296129D01*
X7075609Y44305667D01*
X7016159Y44272604D01*
X6956073Y44181044D01*
X6838205Y44181044D01*
X6865229Y44242561D01*
X6887224Y44327682D01*
X6894556Y44414235D01*
X6894556Y44816237D01*
X6892410Y44865594D01*
X6878820Y44905651D01*
X6838762Y44939270D01*
X6764370Y44949285D01*
X6689978Y44939270D01*
X6649921Y44908512D01*
X6635615Y44871316D01*
X6632754Y44824821D01*
X6632754Y44418526D01*
X6620594Y44326967D01*
X6584113Y44255436D01*
X6527246Y44209299D01*
X6453927Y44193920D01*
X6392768Y44203398D01*
X6343769Y44231831D01*
X6286545Y44316237D01*
X6272239Y44417096D01*
X6272239Y44816237D01*
X6269377Y44867024D01*
X6255071Y44907082D01*
X6215729Y44939270D01*
X6140622Y44949285D01*
X6064800Y44939270D01*
X6024742Y44906366D01*
X6011151Y44867024D01*
X6009006Y44817668D01*
X5854273Y44817668D01*
X5823026Y44858441D01*
X5759602Y44908910D01*
X5687594Y44939191D01*
X5607003Y44949285D01*
X5272239Y44949285D01*
X5196416Y44939270D01*
X5156359Y44906366D01*
X5142768Y44867024D01*
X5140622Y44819099D01*
X4473871Y44819099D01*
X4471094Y44866309D01*
X4457503Y44906366D01*
X4418161Y44939270D01*
X4343769Y44949285D01*
X4267232Y44939986D01*
X4226459Y44909227D01*
X4212868Y44872031D01*
X4210722Y44824821D01*
X4210722Y44474320D01*
X4023312Y44474320D01*
X4112010Y44839127D01*
X4091981Y44902074D01*
X4009006Y44943562D01*
X3900994Y44944993D01*
X3847346Y44850572D01*
X3737189Y44405651D01*
X3732897Y44359871D01*
X3017589Y44359871D01*
X3017589Y45207749D01*
X3732897Y45207749D01*
X8621309Y45207749D01*
X8859745Y45207749D01*
X9364911Y45207749D01*
X8859745Y44450000D01*
G37*
D12*
%TO.C,C3*%
X34784420Y20512500D02*
X35065580Y20512500D01*
X34784420Y19492500D02*
X35065580Y19492500D01*
%TO.C,C2*%
X34784420Y17972500D02*
X35065580Y17972500D01*
X34784420Y16952500D02*
X35065580Y16952500D01*
%TD*%
M02*
