%TF.GenerationSoftware,KiCad,Pcbnew,8.0.6*%
%TF.CreationDate,2024-11-21T20:47:18-07:00*%
%TF.ProjectId,SparkFun_Serial_MP3_Player_Shield_MY1690X,53706172-6b46-4756-9e5f-53657269616c,rev?*%
%TF.SameCoordinates,Original*%
%TF.FileFunction,Legend,Bot*%
%TF.FilePolarity,Positive*%
%FSLAX46Y46*%
G04 Gerber Fmt 4.6, Leading zero omitted, Abs format (unit mm)*
G04 Created by KiCad (PCBNEW 8.0.6) date 2024-11-21 20:47:18*
%MOMM*%
%LPD*%
G01*
G04 APERTURE LIST*
%ADD10C,0.000000*%
%ADD11C,0.018437*%
%ADD12C,0.152400*%
G04 APERTURE END LIST*
D10*
%TO.C,kibuzzard-673EAACD*%
G36*
X37941817Y38503723D02*
G01*
X38021931Y38439345D01*
X38049113Y38362092D01*
X38053405Y38266241D01*
X38049113Y38170390D01*
X38021931Y38091706D01*
X37943247Y38025898D01*
X37795894Y38005869D01*
X37645680Y38025898D01*
X37566996Y38090275D01*
X37539814Y38166098D01*
X37535522Y38263380D01*
X37539814Y38359231D01*
X37566996Y38437915D01*
X37645680Y38503723D01*
X37793033Y38523752D01*
X37941817Y38503723D01*
G37*
G36*
X15326652Y38503723D02*
G01*
X15406767Y38439345D01*
X15433948Y38362092D01*
X15438240Y38266241D01*
X15433948Y38170390D01*
X15406767Y38091706D01*
X15328083Y38025898D01*
X15180730Y38005869D01*
X15030515Y38025898D01*
X14951831Y38090275D01*
X14924649Y38166098D01*
X14920358Y38263380D01*
X14924649Y38359231D01*
X14951831Y38437915D01*
X15030515Y38503723D01*
X15177868Y38523752D01*
X15326652Y38503723D01*
G37*
G36*
X23618498Y37831334D02*
G01*
X23755837Y37676828D01*
X23695751Y37487986D01*
X23149256Y36663952D01*
X23372432Y36166098D01*
X23409628Y35967242D01*
X23246538Y35828473D01*
X23033376Y35792707D01*
X22906052Y35954367D01*
X22205050Y37525182D01*
X22175007Y37716885D01*
X22336667Y37851363D01*
X22548398Y37882836D01*
X22677153Y37722607D01*
X22903190Y37219031D01*
X23260844Y37759803D01*
X23412489Y37895712D01*
X23618498Y37831334D01*
G37*
G36*
X37941817Y37845640D02*
G01*
X38021931Y37781263D01*
X38049113Y37704009D01*
X38053405Y37608158D01*
X38053405Y36675397D01*
X38049113Y36576685D01*
X38021931Y36499431D01*
X37943247Y36435054D01*
X37795894Y36415025D01*
X37645680Y36435054D01*
X37566996Y36499431D01*
X37539814Y36575254D01*
X37535522Y36672536D01*
X37535522Y37602436D01*
X37539814Y37701148D01*
X37566996Y37779832D01*
X37645680Y37845640D01*
X37793033Y37865669D01*
X37941817Y37845640D01*
G37*
G36*
X15326652Y37845640D02*
G01*
X15406767Y37781263D01*
X15433948Y37704009D01*
X15438240Y37608158D01*
X15438240Y36675397D01*
X15433948Y36576685D01*
X15406767Y36499431D01*
X15328083Y36435054D01*
X15180730Y36415025D01*
X15030515Y36435054D01*
X14951831Y36499431D01*
X14924649Y36575254D01*
X14920358Y36672536D01*
X14920358Y37602436D01*
X14924649Y37701148D01*
X14951831Y37779832D01*
X15030515Y37845640D01*
X15177868Y37865669D01*
X15326652Y37845640D01*
G37*
G36*
X35629943Y38509446D02*
G01*
X35710057Y38445068D01*
X35737239Y38367815D01*
X35741531Y38269102D01*
X35741531Y37001577D01*
X35734378Y36826685D01*
X35712918Y36691134D01*
X35607053Y36513737D01*
X35429657Y36433623D01*
X35309485Y36419675D01*
X35149256Y36415025D01*
X35086309Y36419317D01*
X35030515Y36445068D01*
X34981874Y36523752D01*
X34966137Y36672536D01*
X34981874Y36812736D01*
X35030515Y36887128D01*
X35086309Y36911448D01*
X35146395Y36915740D01*
X35213634Y36931477D01*
X35223648Y37033051D01*
X35223648Y38266241D01*
X35229371Y38363523D01*
X35256552Y38443637D01*
X35333805Y38509446D01*
X35481159Y38529474D01*
X35629943Y38509446D01*
G37*
G36*
X26059127Y38509446D02*
G01*
X26139242Y38445068D01*
X26166423Y38367815D01*
X26170715Y38269102D01*
X26170715Y37001577D01*
X26163562Y36826685D01*
X26142103Y36691134D01*
X26036237Y36513737D01*
X25858841Y36433623D01*
X25738670Y36419675D01*
X25578441Y36415025D01*
X25515494Y36419317D01*
X25459700Y36445068D01*
X25411059Y36523752D01*
X25395322Y36672536D01*
X25411059Y36812736D01*
X25459700Y36887128D01*
X25515494Y36911448D01*
X25575579Y36915740D01*
X25642818Y36931477D01*
X25652833Y37033051D01*
X25652833Y38266241D01*
X25658555Y38363523D01*
X25685737Y38443637D01*
X25762990Y38509446D01*
X25910343Y38529474D01*
X26059127Y38509446D01*
G37*
G36*
X13077725Y38509446D02*
G01*
X13157840Y38445068D01*
X13185021Y38367815D01*
X13189313Y38269102D01*
X13189313Y37001577D01*
X13182160Y36826685D01*
X13160701Y36691134D01*
X13054835Y36513737D01*
X12877439Y36433623D01*
X12757268Y36419675D01*
X12597039Y36415025D01*
X12534092Y36419317D01*
X12478298Y36445068D01*
X12429657Y36523752D01*
X12413920Y36672536D01*
X12429657Y36812736D01*
X12478298Y36887128D01*
X12534092Y36911448D01*
X12594177Y36915740D01*
X12661416Y36931477D01*
X12671431Y37033051D01*
X12671431Y38266241D01*
X12677153Y38363523D01*
X12704335Y38443637D01*
X12781588Y38509446D01*
X12928941Y38529474D01*
X13077725Y38509446D01*
G37*
G36*
X38652833Y37849932D02*
G01*
X38797325Y37751220D01*
X38877439Y37839202D01*
X39043391Y37868530D01*
X39193605Y37848501D01*
X39272289Y37784124D01*
X39299471Y37708301D01*
X39303763Y37611019D01*
X39303763Y36678258D01*
X39299471Y36579546D01*
X39272289Y36500862D01*
X39193605Y36435054D01*
X39046252Y36415025D01*
X38894607Y36435054D01*
X38814492Y36499431D01*
X38787310Y36575254D01*
X38783019Y36672536D01*
X38783019Y37230476D01*
X38727225Y37334911D01*
X38585594Y37376398D01*
X38515494Y37354939D01*
X38405336Y37333480D01*
X38245107Y37432192D01*
X38197897Y37542707D01*
X38182160Y37676828D01*
X38217926Y37785554D01*
X38310916Y37849932D01*
X38413920Y37875683D01*
X38499757Y37882836D01*
X38652833Y37849932D01*
G37*
G36*
X19871717Y37849932D02*
G01*
X20016209Y37751220D01*
X20096323Y37839202D01*
X20262275Y37868530D01*
X20412489Y37848501D01*
X20491173Y37784124D01*
X20518355Y37708301D01*
X20522647Y37611019D01*
X20522647Y36678258D01*
X20518355Y36579546D01*
X20491173Y36500862D01*
X20412489Y36435054D01*
X20265136Y36415025D01*
X20113491Y36435054D01*
X20033376Y36499431D01*
X20006195Y36575254D01*
X20001903Y36672536D01*
X20001903Y37230476D01*
X19946109Y37334911D01*
X19804478Y37376398D01*
X19734378Y37354939D01*
X19624220Y37333480D01*
X19463991Y37432192D01*
X19416781Y37542707D01*
X19401044Y37676828D01*
X19436810Y37785554D01*
X19529800Y37849932D01*
X19632804Y37875683D01*
X19718641Y37882836D01*
X19871717Y37849932D01*
G37*
G36*
X36358126Y37839202D02*
G01*
X36431087Y37751220D01*
X36563419Y37837057D01*
X36731516Y37865669D01*
X36895560Y37841189D01*
X37048159Y37767751D01*
X37189313Y37645354D01*
X37302173Y37492119D01*
X37369889Y37326168D01*
X37392461Y37147500D01*
X37370048Y36964063D01*
X37302809Y36795251D01*
X37190744Y36641062D01*
X37050067Y36518665D01*
X36896991Y36445227D01*
X36731516Y36420747D01*
X36659986Y36431993D01*
X36567711Y36446499D01*
X36431087Y36523752D01*
X36350258Y36446499D01*
X36187883Y36420747D01*
X36039099Y36440776D01*
X35958984Y36505154D01*
X35931803Y36580976D01*
X35927511Y36678258D01*
X35927511Y37144639D01*
X36462561Y37144639D01*
X36521216Y37000147D01*
X36659986Y36938630D01*
X36810200Y37000147D01*
X36874578Y37141778D01*
X36813062Y37287700D01*
X36665708Y37350647D01*
X36521216Y37290562D01*
X36462561Y37144639D01*
X35927511Y37144639D01*
X35927511Y37608158D01*
X35931803Y37704009D01*
X35958984Y37782693D01*
X36037668Y37848501D01*
X36185021Y37868530D01*
X36358126Y37839202D01*
G37*
G36*
X24303763Y37839202D02*
G01*
X24376724Y37751220D01*
X24509056Y37837057D01*
X24677153Y37865669D01*
X24841197Y37841189D01*
X24993796Y37767751D01*
X25134950Y37645354D01*
X25247810Y37492119D01*
X25315525Y37326168D01*
X25338097Y37147500D01*
X25315684Y36964063D01*
X25248445Y36795251D01*
X25136381Y36641062D01*
X24995703Y36518665D01*
X24842628Y36445227D01*
X24677153Y36420747D01*
X24605622Y36431993D01*
X24513348Y36446499D01*
X24376724Y36523752D01*
X24295894Y36446499D01*
X24133519Y36420747D01*
X23984735Y36440776D01*
X23904621Y36505154D01*
X23877439Y36580976D01*
X23873147Y36678258D01*
X23873147Y37144639D01*
X24408197Y37144639D01*
X24466853Y37000147D01*
X24605622Y36938630D01*
X24755837Y37000147D01*
X24820215Y37141778D01*
X24758698Y37287700D01*
X24611345Y37350647D01*
X24466853Y37290562D01*
X24408197Y37144639D01*
X23873147Y37144639D01*
X23873147Y37608158D01*
X23877439Y37704009D01*
X23904621Y37782693D01*
X23983305Y37848501D01*
X24130658Y37868530D01*
X24303763Y37839202D01*
G37*
G36*
X31752976Y38397858D02*
G01*
X31833090Y38332049D01*
X31860272Y38253366D01*
X31864564Y38157514D01*
X31864564Y36681119D01*
X31860272Y36582407D01*
X31833090Y36503723D01*
X31752976Y36437915D01*
X31604192Y36417886D01*
X31452546Y36437915D01*
X31372432Y36502293D01*
X31345250Y36579546D01*
X31340959Y36678258D01*
X31340959Y36952936D01*
X31034807Y36952936D01*
X30917854Y36964381D01*
X30795894Y36998716D01*
X30674292Y37054510D01*
X30558412Y37130333D01*
X30455765Y37230833D01*
X30373863Y37360662D01*
X30320215Y37513380D01*
X30302332Y37682550D01*
X30302639Y37685411D01*
X30823076Y37685411D01*
X30890315Y37528044D01*
X31031946Y37476541D01*
X31340959Y37476541D01*
X31340959Y37894281D01*
X31034807Y37894281D01*
X30884592Y37834195D01*
X30823076Y37685411D01*
X30302639Y37685411D01*
X30320572Y37852436D01*
X30375293Y38007300D01*
X30457911Y38139274D01*
X30559843Y38240490D01*
X30674292Y38316313D01*
X30794464Y38372107D01*
X30915351Y38406441D01*
X31031946Y38417886D01*
X31601330Y38417886D01*
X31752976Y38397858D01*
G37*
G36*
X27761559Y38397858D02*
G01*
X27841674Y38332049D01*
X27868856Y38253366D01*
X27873147Y38157514D01*
X27873147Y36681119D01*
X27868856Y36582407D01*
X27841674Y36503723D01*
X27761559Y36437915D01*
X27612775Y36417886D01*
X27461130Y36437915D01*
X27381016Y36502293D01*
X27353834Y36579546D01*
X27349542Y36678258D01*
X27349542Y36952936D01*
X27043391Y36952936D01*
X26926438Y36964381D01*
X26804478Y36998716D01*
X26682876Y37054510D01*
X26566996Y37130333D01*
X26464349Y37230833D01*
X26382446Y37360662D01*
X26328798Y37513380D01*
X26310916Y37682550D01*
X26311223Y37685411D01*
X26831660Y37685411D01*
X26898898Y37528044D01*
X27040529Y37476541D01*
X27349542Y37476541D01*
X27349542Y37894281D01*
X27043391Y37894281D01*
X26893176Y37834195D01*
X26831660Y37685411D01*
X26311223Y37685411D01*
X26329156Y37852436D01*
X26383877Y38007300D01*
X26466495Y38139274D01*
X26568426Y38240490D01*
X26682876Y38316313D01*
X26803047Y38372107D01*
X26923934Y38406441D01*
X27040529Y38417886D01*
X27609914Y38417886D01*
X27761559Y38397858D01*
G37*
G36*
X16958984Y38503723D02*
G01*
X17037668Y38439345D01*
X17064850Y38362092D01*
X17069142Y38266241D01*
X17069142Y36675397D01*
X17064850Y36576685D01*
X17037668Y36499431D01*
X16958984Y36435054D01*
X16811631Y36415025D01*
X16662847Y36435054D01*
X16582732Y36499431D01*
X16555551Y36575254D01*
X16551259Y36672536D01*
X16551259Y37187557D01*
X16474006Y37299145D01*
X16330944Y37347786D01*
X16190744Y37291992D01*
X16139242Y37144639D01*
X16139242Y36678258D01*
X16133519Y36576685D01*
X16104907Y36498001D01*
X16026223Y36435054D01*
X15878870Y36415025D01*
X15730086Y36435054D01*
X15649971Y36499431D01*
X15622790Y36576685D01*
X15618498Y36672536D01*
X15618498Y37141778D01*
X15639162Y37335070D01*
X15701156Y37506743D01*
X15804478Y37656799D01*
X15938320Y37772838D01*
X16091873Y37842461D01*
X16265136Y37865669D01*
X16415351Y37834911D01*
X16551259Y37742636D01*
X16551259Y38263380D01*
X16555551Y38362092D01*
X16582732Y38439345D01*
X16661416Y38503723D01*
X16808770Y38523752D01*
X16958984Y38503723D01*
G37*
G36*
X40310121Y37876319D02*
G01*
X40498485Y37805265D01*
X40658555Y37686842D01*
X40780157Y37530905D01*
X40853119Y37347309D01*
X40877439Y37136055D01*
X40866352Y37005869D01*
X40833090Y36878544D01*
X40778011Y36755511D01*
X40701474Y36638201D01*
X40596681Y36534839D01*
X40456838Y36453652D01*
X40288026Y36401077D01*
X40096323Y36383552D01*
X39835951Y36399825D01*
X39649971Y36448644D01*
X39538383Y36530011D01*
X39501187Y36643923D01*
X39538383Y36775540D01*
X39615637Y36878544D01*
X39710057Y36912879D01*
X39841674Y36875683D01*
X40073433Y36838487D01*
X40242246Y36878544D01*
X40328083Y36987271D01*
X39718641Y36987271D01*
X39602403Y37009088D01*
X39511202Y37074539D01*
X39452189Y37180046D01*
X39432518Y37322035D01*
X39433124Y37324896D01*
X39930372Y37324896D01*
X40007625Y37256227D01*
X40328083Y37256227D01*
X40260844Y37383552D01*
X40099185Y37439345D01*
X39976152Y37409303D01*
X39930372Y37324896D01*
X39433124Y37324896D01*
X39475079Y37523036D01*
X39602761Y37714024D01*
X39732947Y37817346D01*
X39896514Y37879339D01*
X40093462Y37900004D01*
X40310121Y37876319D01*
G37*
G36*
X21529005Y37876319D02*
G01*
X21717369Y37805265D01*
X21877439Y37686842D01*
X21999041Y37530905D01*
X22072003Y37347309D01*
X22096323Y37136055D01*
X22085236Y37005869D01*
X22051974Y36878544D01*
X21996896Y36755511D01*
X21920358Y36638201D01*
X21815565Y36534839D01*
X21675722Y36453652D01*
X21506910Y36401077D01*
X21315207Y36383552D01*
X21054835Y36399825D01*
X20868856Y36448644D01*
X20757268Y36530011D01*
X20720072Y36643923D01*
X20757268Y36775540D01*
X20834521Y36878544D01*
X20928941Y36912879D01*
X21060558Y36875683D01*
X21292318Y36838487D01*
X21461130Y36878544D01*
X21546967Y36987271D01*
X20937525Y36987271D01*
X20821288Y37009088D01*
X20730086Y37074539D01*
X20671073Y37180046D01*
X20651402Y37322035D01*
X20652008Y37324896D01*
X21149256Y37324896D01*
X21226509Y37256227D01*
X21546967Y37256227D01*
X21479728Y37383552D01*
X21318069Y37439345D01*
X21195036Y37409303D01*
X21149256Y37324896D01*
X20652008Y37324896D01*
X20693963Y37523036D01*
X20821645Y37714024D01*
X20951831Y37817346D01*
X21115398Y37879339D01*
X21312346Y37900004D01*
X21529005Y37876319D01*
G37*
G36*
X14209978Y37876319D02*
G01*
X14398342Y37805265D01*
X14558412Y37686842D01*
X14680014Y37530905D01*
X14752976Y37347309D01*
X14777296Y37136055D01*
X14766209Y37005869D01*
X14732947Y36878544D01*
X14677868Y36755511D01*
X14601330Y36638201D01*
X14496538Y36534839D01*
X14356695Y36453652D01*
X14187883Y36401077D01*
X13996180Y36383552D01*
X13735808Y36399825D01*
X13549828Y36448644D01*
X13438240Y36530011D01*
X13401044Y36643923D01*
X13438240Y36775540D01*
X13515494Y36878544D01*
X13609914Y36912879D01*
X13741531Y36875683D01*
X13973290Y36838487D01*
X14142103Y36878544D01*
X14227940Y36987271D01*
X13618498Y36987271D01*
X13502260Y37009088D01*
X13411059Y37074539D01*
X13352046Y37180046D01*
X13332375Y37322035D01*
X13332981Y37324896D01*
X13830229Y37324896D01*
X13907482Y37256227D01*
X14227940Y37256227D01*
X14160701Y37383552D01*
X13999041Y37439345D01*
X13876009Y37409303D01*
X13830229Y37324896D01*
X13332981Y37324896D01*
X13374936Y37523036D01*
X13502618Y37714024D01*
X13632804Y37817346D01*
X13796371Y37879339D01*
X13993319Y37900004D01*
X14209978Y37876319D01*
G37*
G36*
X11285165Y38509446D02*
G01*
X11359557Y38469388D01*
X11396753Y38409303D01*
X11408197Y38337772D01*
X11406767Y38263380D01*
X11406767Y37771248D01*
X11539099Y37842064D01*
X11695751Y37865669D01*
X11859795Y37841189D01*
X12012394Y37767751D01*
X12153548Y37645354D01*
X12266408Y37492119D01*
X12334123Y37326168D01*
X12356695Y37147500D01*
X12334282Y36964063D01*
X12267043Y36795251D01*
X12154979Y36641062D01*
X12014301Y36518665D01*
X11861226Y36445227D01*
X11695751Y36420747D01*
X11627082Y36431496D01*
X11531230Y36446499D01*
X11392461Y36523752D01*
X11310916Y36444353D01*
X11157840Y36417886D01*
X11010486Y36437915D01*
X10931803Y36503723D01*
X10904621Y36582407D01*
X10900329Y36678258D01*
X10900329Y37141778D01*
X11423934Y37141778D01*
X11484020Y36997285D01*
X11627082Y36935769D01*
X11773004Y36997285D01*
X11835951Y37141778D01*
X11775866Y37287700D01*
X11629943Y37347786D01*
X11484020Y37287700D01*
X11423934Y37141778D01*
X10900329Y37141778D01*
X10900329Y38266241D01*
X10904621Y38362092D01*
X10931803Y38439345D01*
X11010486Y38503723D01*
X11160701Y38523752D01*
X11285165Y38509446D01*
G37*
G36*
X34087740Y38394996D02*
G01*
X34167854Y38330619D01*
X34195036Y38253366D01*
X34199328Y38157514D01*
X34199328Y36681119D01*
X34193605Y36580976D01*
X34166423Y36502293D01*
X34089170Y36437915D01*
X33941817Y36417886D01*
X33790172Y36437915D01*
X33710057Y36502293D01*
X33682876Y36579546D01*
X33678584Y36675397D01*
X33678584Y37490848D01*
X33346681Y37038773D01*
X33252260Y36950790D01*
X33123505Y36921463D01*
X33044821Y36930046D01*
X32984735Y36955798D01*
X32947539Y36984410D01*
X32920358Y37015883D01*
X32903190Y37038773D01*
X32568426Y37493709D01*
X32568426Y36681119D01*
X32564134Y36582407D01*
X32536953Y36503723D01*
X32456838Y36437915D01*
X32308054Y36417886D01*
X32157840Y36437915D01*
X32079156Y36500862D01*
X32050544Y36578115D01*
X32044821Y36675397D01*
X32044821Y38151792D01*
X32050544Y38251935D01*
X32077725Y38330619D01*
X32156409Y38394996D01*
X32305193Y38415025D01*
X32456838Y38397858D01*
X32542675Y38332049D01*
X33123505Y37585268D01*
X33707196Y38334911D01*
X33725794Y38354939D01*
X33747253Y38376398D01*
X33771574Y38390705D01*
X33808770Y38403580D01*
X33860272Y38410733D01*
X33936094Y38415025D01*
X34087740Y38394996D01*
G37*
G36*
X41904939Y38430126D02*
G01*
X42066121Y38372424D01*
X42205050Y38276255D01*
X42311551Y38150838D01*
X42375452Y38005392D01*
X42396753Y37839918D01*
X42373863Y37653938D01*
X42305193Y37499431D01*
X42190744Y37376398D01*
X42030515Y37284839D01*
X41922146Y37245855D01*
X41785880Y37209016D01*
X41561273Y37141778D01*
X41486881Y37053079D01*
X41538383Y36920032D01*
X41707196Y36878544D01*
X41820215Y36905726D01*
X41936094Y37010161D01*
X42065168Y37114437D01*
X42189154Y37133512D01*
X42308054Y37067386D01*
X42428226Y36884267D01*
X42356695Y36698287D01*
X42339528Y36678258D01*
X42308054Y36638201D01*
X42257983Y36588129D01*
X42189313Y36532335D01*
X42100615Y36477972D01*
X41990458Y36430762D01*
X41855980Y36399288D01*
X41695751Y36386413D01*
X41505479Y36407872D01*
X41309485Y36480833D01*
X41133519Y36608158D01*
X41009056Y36801291D01*
X40972575Y36925039D01*
X40960415Y37061663D01*
X40987239Y37275540D01*
X41067711Y37430762D01*
X41193247Y37539489D01*
X41355265Y37613881D01*
X41538383Y37658230D01*
X41712918Y37693995D01*
X41825937Y37744067D01*
X41876009Y37837057D01*
X41830229Y37924324D01*
X41724363Y37960089D01*
X41629943Y37950075D01*
X41574149Y37928616D01*
X41534092Y37895712D01*
X41501187Y37868530D01*
X41309485Y37815597D01*
X41140672Y37954367D01*
X41072003Y38130333D01*
X41175007Y38277686D01*
X41323473Y38373060D01*
X41505638Y38430285D01*
X41721502Y38449360D01*
X41904939Y38430126D01*
G37*
G36*
X18133837Y38430126D02*
G01*
X18295020Y38372424D01*
X18433948Y38276255D01*
X18540450Y38150838D01*
X18604351Y38005392D01*
X18625651Y37839918D01*
X18602761Y37653938D01*
X18534092Y37499431D01*
X18419642Y37376398D01*
X18259413Y37284839D01*
X18151044Y37245855D01*
X18014778Y37209016D01*
X17790172Y37141778D01*
X17715780Y37053079D01*
X17767282Y36920032D01*
X17936094Y36878544D01*
X18049113Y36905726D01*
X18164993Y37010161D01*
X18294066Y37114437D01*
X18418053Y37133512D01*
X18536953Y37067386D01*
X18657124Y36884267D01*
X18585594Y36698287D01*
X18568426Y36678258D01*
X18536953Y36638201D01*
X18486881Y36588129D01*
X18418212Y36532335D01*
X18329514Y36477972D01*
X18219356Y36430762D01*
X18084878Y36399288D01*
X17924649Y36386413D01*
X17734378Y36407872D01*
X17538383Y36480833D01*
X17362418Y36608158D01*
X17237954Y36801291D01*
X17201474Y36925039D01*
X17189313Y37061663D01*
X17216137Y37275540D01*
X17296609Y37430762D01*
X17422146Y37539489D01*
X17584163Y37613881D01*
X17767282Y37658230D01*
X17941817Y37693995D01*
X18054835Y37744067D01*
X18104907Y37837057D01*
X18059127Y37924324D01*
X17953262Y37960089D01*
X17858841Y37950075D01*
X17803047Y37928616D01*
X17762990Y37895712D01*
X17730086Y37868530D01*
X17538383Y37815597D01*
X17369571Y37954367D01*
X17300901Y38130333D01*
X17403906Y38277686D01*
X17552372Y38373060D01*
X17734537Y38430285D01*
X17950401Y38449360D01*
X18133837Y38430126D01*
G37*
G36*
X29617067Y38433623D02*
G01*
X29748684Y38399288D01*
X29854549Y38349217D01*
X29938956Y38290562D01*
X30001903Y38229045D01*
X30047682Y38171820D01*
X30076295Y38124610D01*
X30092031Y38093137D01*
X30096323Y38083122D01*
X30137811Y37885697D01*
X29996180Y37728330D01*
X29842945Y37677146D01*
X29722774Y37710527D01*
X29635665Y37828473D01*
X29552690Y37914310D01*
X29429657Y37942922D01*
X29299471Y37907157D01*
X29252260Y37808444D01*
X29293748Y37735483D01*
X29426795Y37716885D01*
X29446824Y37716885D01*
X29538383Y37712593D01*
X29611345Y37688273D01*
X29671431Y37613881D01*
X29690029Y37470819D01*
X29672861Y37344925D01*
X29638526Y37270533D01*
X29574149Y37234768D01*
X29508340Y37221892D01*
X29429657Y37221892D01*
X29264421Y37180404D01*
X29209342Y37055941D01*
X29276581Y36937200D01*
X29455408Y36892851D01*
X29556981Y36908587D01*
X29625651Y36942922D01*
X29668569Y36985840D01*
X29690029Y37020175D01*
X29695751Y37035912D01*
X29778727Y37170390D01*
X29936094Y37201863D01*
X30150687Y37156799D01*
X30222217Y37021606D01*
X30196784Y36858675D01*
X30120485Y36709414D01*
X29993319Y36573823D01*
X29832136Y36466527D01*
X29653786Y36402149D01*
X29458269Y36380690D01*
X29247969Y36402149D01*
X29063419Y36466527D01*
X28904621Y36573823D01*
X28783019Y36713865D01*
X28710057Y36876478D01*
X28685737Y37061663D01*
X28705050Y37199002D01*
X28762990Y37313451D01*
X28923219Y37467958D01*
X28775150Y37610304D01*
X28725794Y37819889D01*
X28747889Y37973442D01*
X28814174Y38117457D01*
X28924649Y38251935D01*
X29072321Y38360026D01*
X29250194Y38424880D01*
X29458269Y38446499D01*
X29617067Y38433623D01*
G37*
%TO.C,kibuzzard-673EA691*%
G36*
X38287240Y27966466D02*
G01*
X38129872Y27966466D01*
X38061203Y27992217D01*
X38028299Y28070901D01*
X38059057Y28145293D01*
X38132734Y28175336D01*
X38287240Y28175336D01*
X38287240Y27966466D01*
G37*
G36*
X40493249Y27966466D02*
G01*
X40338742Y27966466D01*
X40267927Y27992217D01*
X40234307Y28070901D01*
X40265066Y28145293D01*
X40340173Y28175336D01*
X40493249Y28175336D01*
X40493249Y27966466D01*
G37*
G36*
X41351141Y27187258D02*
G01*
X40755051Y27187258D01*
X40624865Y27187258D01*
X39539028Y27187258D01*
X37921003Y27187258D01*
X37745037Y27187258D01*
X37506601Y27187258D01*
X37432819Y27190883D01*
X37359748Y27201722D01*
X37288092Y27219671D01*
X37218539Y27244557D01*
X37151761Y27276141D01*
X37088400Y27314118D01*
X37029067Y27358123D01*
X36974332Y27407731D01*
X36924724Y27462466D01*
X36880719Y27521799D01*
X36860292Y27555880D01*
X37750759Y27555880D01*
X37819429Y27471474D01*
X37921003Y27432132D01*
X38001117Y27498655D01*
X38154193Y27706094D01*
X38287240Y27706094D01*
X38287240Y27567325D01*
X38289386Y27517969D01*
X38302977Y27479342D01*
X38343034Y27447153D01*
X38418857Y27437139D01*
X38493249Y27447153D01*
X38533306Y27480057D01*
X38546897Y27519399D01*
X38549043Y27568755D01*
X38549043Y28306953D01*
X38546897Y28354878D01*
X38542202Y28368469D01*
X38627011Y28368469D01*
X38634880Y28264034D01*
X38890960Y27525837D01*
X38935666Y27459313D01*
X39015423Y27437139D01*
X39076224Y27450014D01*
X39116282Y27482203D01*
X39134880Y27512246D01*
X39142748Y27532990D01*
X39277226Y27973619D01*
X39411704Y27534421D01*
X39457841Y27461459D01*
X39539028Y27437139D01*
X39610559Y27457883D01*
X39649186Y27495079D01*
X39662061Y27525837D01*
X39851701Y28069471D01*
X39973935Y28069471D01*
X39982877Y27984886D01*
X40009701Y27908526D01*
X40050652Y27843612D01*
X40101975Y27793362D01*
X40159915Y27755451D01*
X40220716Y27727554D01*
X40281696Y27710386D01*
X40340173Y27704664D01*
X40493249Y27704664D01*
X40493249Y27567325D01*
X40495395Y27517969D01*
X40508985Y27479342D01*
X40549043Y27447153D01*
X40624865Y27437139D01*
X40699257Y27447153D01*
X40739314Y27480057D01*
X40752905Y27519399D01*
X40755051Y27568755D01*
X40755051Y28306953D01*
X40752905Y28354878D01*
X40739314Y28394220D01*
X40699257Y28427124D01*
X40623435Y28437139D01*
X40338742Y28437139D01*
X40280445Y28431416D01*
X40220001Y28414249D01*
X40159915Y28386352D01*
X40102691Y28348441D01*
X40051725Y28297833D01*
X40010416Y28231845D01*
X39983056Y28154413D01*
X39973935Y28069471D01*
X39851701Y28069471D01*
X39919572Y28264034D01*
X39926010Y28369900D01*
X39836596Y28429986D01*
X39730015Y28436423D01*
X39672076Y28348441D01*
X39523292Y27913534D01*
X39405981Y28341288D01*
X39362347Y28413176D01*
X39280087Y28437139D01*
X39238599Y28433562D01*
X39207126Y28421402D01*
X39184951Y28405665D01*
X39169214Y28387067D01*
X39159915Y28369185D01*
X39152762Y28351302D01*
X39148470Y28339857D01*
X39031160Y27910672D01*
X38882376Y28348441D01*
X38824436Y28437139D01*
X38716425Y28431416D01*
X38627011Y28368469D01*
X38542202Y28368469D01*
X38533306Y28394220D01*
X38493249Y28427124D01*
X38417426Y28437139D01*
X38129872Y28437139D01*
X38071754Y28431416D01*
X38011847Y28414249D01*
X37952119Y28386352D01*
X37894536Y28348441D01*
X37843213Y28297833D01*
X37802262Y28231845D01*
X37775438Y28154413D01*
X37766496Y28069471D01*
X37780484Y27962333D01*
X37822449Y27869820D01*
X37892390Y27791931D01*
X37789386Y27654592D01*
X37750759Y27555880D01*
X36860292Y27555880D01*
X36842742Y27585160D01*
X36811158Y27651938D01*
X36786272Y27721491D01*
X36768323Y27793147D01*
X36757484Y27866218D01*
X36753859Y27940000D01*
X36757484Y28013782D01*
X36768323Y28086853D01*
X36786272Y28158509D01*
X36811158Y28228062D01*
X36842742Y28294840D01*
X36880719Y28358201D01*
X36924724Y28417534D01*
X36974332Y28472269D01*
X37029067Y28521877D01*
X37088400Y28565882D01*
X37151761Y28603859D01*
X37218539Y28635443D01*
X37288092Y28660329D01*
X37359748Y28678278D01*
X37432819Y28689117D01*
X37506601Y28692742D01*
X37745037Y28692742D01*
X40755051Y28692742D01*
X41351141Y28692742D01*
X41351141Y27187258D01*
G37*
D11*
%TO.C,Ref\u002A\u002A*%
X2705182Y6960661D02*
X2705882Y6960609D01*
X2706579Y6960523D01*
X2707271Y6960404D01*
X2707958Y6960253D01*
X2708639Y6960072D01*
X2709312Y6959859D01*
X2709976Y6959618D01*
X2710631Y6959348D01*
X2711275Y6959050D01*
X2712527Y6958375D01*
X2713724Y6957600D01*
X2714857Y6956731D01*
X2715918Y6955775D01*
X2716899Y6954739D01*
X2717791Y6953631D01*
X2718201Y6953052D01*
X2718586Y6952457D01*
X2718945Y6951847D01*
X2719276Y6951223D01*
X2719579Y6950587D01*
X2719852Y6949938D01*
X2720095Y6949277D01*
X2720306Y6948607D01*
X2720485Y6947926D01*
X2720630Y6947237D01*
X2778966Y6633744D01*
X2779293Y6632353D01*
X2779741Y6630956D01*
X2780303Y6629564D01*
X2780972Y6628186D01*
X2781739Y6626830D01*
X2782596Y6625506D01*
X2783537Y6624222D01*
X2784553Y6622988D01*
X2785637Y6621814D01*
X2786780Y6620707D01*
X2787974Y6619678D01*
X2789213Y6618735D01*
X2790489Y6617887D01*
X2791792Y6617144D01*
X2793117Y6616514D01*
X2794454Y6616008D01*
X3004587Y6529997D01*
X3005895Y6529422D01*
X3007283Y6528942D01*
X3008736Y6528556D01*
X3010244Y6528263D01*
X3011794Y6528062D01*
X3013373Y6527952D01*
X3014971Y6527933D01*
X3016573Y6528003D01*
X3018169Y6528162D01*
X3019747Y6528409D01*
X3021293Y6528744D01*
X3022796Y6529164D01*
X3024243Y6529671D01*
X3025623Y6530261D01*
X3026923Y6530936D01*
X3028131Y6531693D01*
X3290018Y6711422D01*
X3290610Y6711807D01*
X3291219Y6712161D01*
X3291844Y6712486D01*
X3292484Y6712781D01*
X3293138Y6713046D01*
X3293803Y6713282D01*
X3295165Y6713666D01*
X3296560Y6713934D01*
X3297976Y6714086D01*
X3299402Y6714125D01*
X3300829Y6714050D01*
X3302246Y6713862D01*
X3303641Y6713563D01*
X3305004Y6713154D01*
X3306324Y6712636D01*
X3307591Y6712009D01*
X3308201Y6711655D01*
X3308793Y6711274D01*
X3309367Y6710867D01*
X3309921Y6710433D01*
X3310453Y6709973D01*
X3310963Y6709486D01*
X3531549Y6488918D01*
X3532034Y6488407D01*
X3532493Y6487873D01*
X3532926Y6487318D01*
X3533332Y6486743D01*
X3533712Y6486149D01*
X3534065Y6485538D01*
X3534391Y6484911D01*
X3534691Y6484269D01*
X3534964Y6483614D01*
X3535209Y6482947D01*
X3535618Y6481583D01*
X3535918Y6480187D01*
X3536106Y6478771D01*
X3536182Y6477344D01*
X3536144Y6475918D01*
X3535993Y6474503D01*
X3535874Y6473803D01*
X3535726Y6473110D01*
X3535549Y6472425D01*
X3535343Y6471750D01*
X3535107Y6471086D01*
X3534842Y6470433D01*
X3534548Y6469795D01*
X3534223Y6469171D01*
X3533869Y6468563D01*
X3533485Y6467973D01*
X3356872Y6210586D01*
X3356119Y6209369D01*
X3355450Y6208064D01*
X3354867Y6206683D01*
X3354370Y6205236D01*
X3353960Y6203737D01*
X3353638Y6202197D01*
X3353405Y6200628D01*
X3353260Y6199042D01*
X3353206Y6197450D01*
X3353243Y6195864D01*
X3353371Y6194297D01*
X3353592Y6192761D01*
X3353906Y6191266D01*
X3354314Y6189825D01*
X3354817Y6188450D01*
X3355415Y6187152D01*
X3448340Y5970401D01*
X3448588Y5969734D01*
X3448867Y5969070D01*
X3449516Y5967751D01*
X3450278Y5966452D01*
X3451143Y5965181D01*
X3452103Y5963946D01*
X3453148Y5962755D01*
X3454269Y5961615D01*
X3455457Y5960534D01*
X3456703Y5959521D01*
X3457998Y5958582D01*
X3459333Y5957727D01*
X3460698Y5956962D01*
X3462084Y5956296D01*
X3463483Y5955736D01*
X3464884Y5955291D01*
X3465584Y5955114D01*
X3466280Y5954968D01*
X3769356Y5898605D01*
X3770047Y5898456D01*
X3770729Y5898275D01*
X3771400Y5898061D01*
X3772062Y5897815D01*
X3772711Y5897540D01*
X3773349Y5897235D01*
X3773973Y5896902D01*
X3774583Y5896542D01*
X3775178Y5896156D01*
X3775758Y5895744D01*
X3776321Y5895309D01*
X3776866Y5894850D01*
X3777393Y5894370D01*
X3777901Y5893868D01*
X3778389Y5893347D01*
X3778856Y5892806D01*
X3779301Y5892248D01*
X3779724Y5891672D01*
X3780124Y5891081D01*
X3780499Y5890475D01*
X3780849Y5889855D01*
X3781173Y5889222D01*
X3781470Y5888578D01*
X3781739Y5887922D01*
X3781980Y5887257D01*
X3782192Y5886584D01*
X3782373Y5885902D01*
X3782524Y5885214D01*
X3782642Y5884521D01*
X3782728Y5883823D01*
X3782780Y5883121D01*
X3782797Y5882416D01*
X3782779Y5570472D01*
X3782761Y5569768D01*
X3782709Y5569066D01*
X3782623Y5568367D01*
X3782504Y5567672D01*
X3782354Y5566983D01*
X3782172Y5566300D01*
X3781960Y5565625D01*
X3781718Y5564959D01*
X3781150Y5563655D01*
X3780475Y5562399D01*
X3779700Y5561199D01*
X3778831Y5560062D01*
X3777875Y5558998D01*
X3776840Y5558014D01*
X3775731Y5557120D01*
X3775152Y5556709D01*
X3774557Y5556323D01*
X3773947Y5555964D01*
X3773324Y5555633D01*
X3772687Y5555330D01*
X3772038Y5555057D01*
X3771378Y5554815D01*
X3770707Y5554605D01*
X3770027Y5554428D01*
X3769338Y5554284D01*
X3473692Y5499267D01*
X3472997Y5499124D01*
X3472301Y5498949D01*
X3470907Y5498506D01*
X3469519Y5497947D01*
X3468146Y5497279D01*
X3466798Y5496510D01*
X3465482Y5495648D01*
X3464209Y5494702D01*
X3462987Y5493680D01*
X3461825Y5492589D01*
X3460732Y5491438D01*
X3459718Y5490235D01*
X3458791Y5488989D01*
X3457961Y5487706D01*
X3457236Y5486395D01*
X3456626Y5485065D01*
X3456367Y5484395D01*
X3456139Y5483724D01*
X3363841Y5253163D01*
X3363270Y5251851D01*
X3362793Y5250462D01*
X3362410Y5249008D01*
X3362121Y5247500D01*
X3361923Y5245951D01*
X3361817Y5244373D01*
X3361801Y5242777D01*
X3361875Y5241176D01*
X3362038Y5239581D01*
X3362288Y5238006D01*
X3362626Y5236461D01*
X3363050Y5234959D01*
X3363560Y5233511D01*
X3364154Y5232131D01*
X3364832Y5230829D01*
X3365593Y5229618D01*
X3533521Y4984897D01*
X3533904Y4984306D01*
X3534257Y4983699D01*
X3534580Y4983075D01*
X3534874Y4982436D01*
X3535138Y4981783D01*
X3535373Y4981118D01*
X3535755Y4979757D01*
X3536021Y4978363D01*
X3536173Y4976946D01*
X3536210Y4975518D01*
X3536135Y4974090D01*
X3535948Y4972672D01*
X3535650Y4971274D01*
X3535242Y4969909D01*
X3534724Y4968586D01*
X3534099Y4967316D01*
X3533747Y4966704D01*
X3533367Y4966110D01*
X3532961Y4965534D01*
X3532529Y4964979D01*
X3532070Y4964445D01*
X3531586Y4963933D01*
X3310981Y4743365D01*
X3310471Y4742882D01*
X3309939Y4742425D01*
X3309385Y4741994D01*
X3308811Y4741590D01*
X3308219Y4741211D01*
X3307609Y4740860D01*
X3306983Y4740535D01*
X3306342Y4740237D01*
X3305688Y4739965D01*
X3305022Y4739721D01*
X3303659Y4739314D01*
X3302264Y4739017D01*
X3300847Y4738830D01*
X3299420Y4738754D01*
X3297994Y4738791D01*
X3296578Y4738942D01*
X3295877Y4739060D01*
X3295183Y4739207D01*
X3294498Y4739382D01*
X3293821Y4739587D01*
X3293156Y4739821D01*
X3292502Y4740084D01*
X3291862Y4740376D01*
X3291237Y4740698D01*
X3290628Y4741049D01*
X3290036Y4741430D01*
X3049648Y4906427D01*
X3048439Y4907177D01*
X3047144Y4907834D01*
X3045775Y4908399D01*
X3044343Y4908872D01*
X3042861Y4909252D01*
X3041339Y4909538D01*
X3039791Y4909732D01*
X3038228Y4909831D01*
X3036661Y4909837D01*
X3035103Y4909749D01*
X3033566Y4909566D01*
X3032061Y4909288D01*
X3030600Y4908915D01*
X3029195Y4908446D01*
X3027858Y4907882D01*
X3026601Y4907222D01*
X2920585Y4850619D01*
X2919953Y4850316D01*
X2919315Y4850049D01*
X2918673Y4849819D01*
X2918028Y4849625D01*
X2917380Y4849466D01*
X2916732Y4849341D01*
X2916083Y4849252D01*
X2915436Y4849197D01*
X2914791Y4849175D01*
X2914150Y4849187D01*
X2913513Y4849232D01*
X2912882Y4849309D01*
X2912257Y4849418D01*
X2911640Y4849559D01*
X2911033Y4849731D01*
X2910435Y4849934D01*
X2909849Y4850168D01*
X2909275Y4850431D01*
X2908715Y4850724D01*
X2908169Y4851046D01*
X2907639Y4851397D01*
X2907126Y4851777D01*
X2906630Y4852184D01*
X2906154Y4852618D01*
X2905698Y4853080D01*
X2905263Y4853569D01*
X2904850Y4854083D01*
X2904461Y4854624D01*
X2904097Y4855190D01*
X2903758Y4855780D01*
X2903446Y4856396D01*
X2903162Y4857035D01*
X2684567Y5385214D01*
X2684312Y5385872D01*
X2684091Y5386539D01*
X2683903Y5387214D01*
X2683748Y5387898D01*
X2683625Y5388587D01*
X2683534Y5389281D01*
X2683446Y5390680D01*
X2683480Y5392083D01*
X2683633Y5393482D01*
X2683902Y5394864D01*
X2684283Y5396222D01*
X2684774Y5397544D01*
X2685370Y5398820D01*
X2686069Y5400041D01*
X2686867Y5401196D01*
X2687760Y5402276D01*
X2688242Y5402785D01*
X2688746Y5403270D01*
X2689273Y5403732D01*
X2689822Y5404169D01*
X2690392Y5404579D01*
X2690983Y5404961D01*
X2717515Y5421205D01*
X2719430Y5422421D01*
X2721472Y5423809D01*
X2723603Y5425339D01*
X2725786Y5426980D01*
X2727984Y5428703D01*
X2730160Y5430476D01*
X2732275Y5432271D01*
X2734293Y5434055D01*
X2751853Y5446077D01*
X2768613Y5459130D01*
X2784526Y5473168D01*
X2799546Y5488146D01*
X2813629Y5504019D01*
X2826727Y5520741D01*
X2838795Y5538266D01*
X2849788Y5556550D01*
X2859659Y5575546D01*
X2864159Y5585297D01*
X2868362Y5595209D01*
X2872262Y5605276D01*
X2875852Y5615493D01*
X2879128Y5625855D01*
X2882083Y5636354D01*
X2884713Y5646986D01*
X2887010Y5657746D01*
X2888969Y5668626D01*
X2890585Y5679622D01*
X2891852Y5690728D01*
X2892764Y5701939D01*
X2893315Y5713247D01*
X2893501Y5724649D01*
X2893052Y5742402D01*
X2891719Y5759922D01*
X2889525Y5777188D01*
X2886491Y5794177D01*
X2882639Y5810867D01*
X2877989Y5827238D01*
X2872565Y5843268D01*
X2866388Y5858934D01*
X2859479Y5874216D01*
X2851860Y5889091D01*
X2843553Y5903538D01*
X2834579Y5917535D01*
X2824960Y5931060D01*
X2814718Y5944093D01*
X2803875Y5956610D01*
X2792452Y5968591D01*
X2780470Y5980014D01*
X2767952Y5990857D01*
X2754920Y6001098D01*
X2741394Y6010716D01*
X2727397Y6019690D01*
X2712950Y6027996D01*
X2698075Y6035615D01*
X2682794Y6042523D01*
X2667128Y6048700D01*
X2651099Y6054124D01*
X2634728Y6058772D01*
X2618038Y6062625D01*
X2601051Y6065658D01*
X2583786Y6067852D01*
X2566268Y6069184D01*
X2548516Y6069633D01*
X2530765Y6069184D01*
X2513246Y6067852D01*
X2495982Y6065658D01*
X2478995Y6062625D01*
X2462305Y6058772D01*
X2445935Y6054124D01*
X2429907Y6048700D01*
X2414242Y6042523D01*
X2398961Y6035615D01*
X2384087Y6027996D01*
X2369641Y6019690D01*
X2355644Y6010716D01*
X2342119Y6001098D01*
X2329088Y5990857D01*
X2316571Y5980014D01*
X2304590Y5968591D01*
X2293168Y5956610D01*
X2282325Y5944092D01*
X2272084Y5931060D01*
X2262466Y5917535D01*
X2253493Y5903537D01*
X2245187Y5889091D01*
X2237568Y5874216D01*
X2230660Y5858934D01*
X2224483Y5843268D01*
X2219060Y5827238D01*
X2214411Y5810867D01*
X2210559Y5794176D01*
X2207525Y5777188D01*
X2205331Y5759922D01*
X2203999Y5742402D01*
X2203550Y5724649D01*
X2204286Y5701939D01*
X2206465Y5679622D01*
X2210039Y5657746D01*
X2214965Y5636354D01*
X2221195Y5615493D01*
X2228684Y5595209D01*
X2237386Y5575546D01*
X2247256Y5556550D01*
X2258248Y5538266D01*
X2270316Y5520741D01*
X2283414Y5504019D01*
X2297497Y5488146D01*
X2312518Y5473168D01*
X2328433Y5459130D01*
X2345195Y5446077D01*
X2362758Y5434055D01*
X2364765Y5432271D01*
X2366873Y5430476D01*
X2369044Y5428703D01*
X2371240Y5426980D01*
X2373421Y5425339D01*
X2375551Y5423809D01*
X2377590Y5422421D01*
X2379500Y5421205D01*
X2406031Y5404961D01*
X2406619Y5404579D01*
X2407186Y5404169D01*
X2407732Y5403732D01*
X2408257Y5403270D01*
X2408759Y5402785D01*
X2409239Y5402276D01*
X2409696Y5401747D01*
X2410130Y5401197D01*
X2410540Y5400628D01*
X2410926Y5400041D01*
X2411287Y5399438D01*
X2411623Y5398820D01*
X2411934Y5398188D01*
X2412219Y5397544D01*
X2412478Y5396888D01*
X2412710Y5396222D01*
X2412915Y5395547D01*
X2413093Y5394865D01*
X2413242Y5394176D01*
X2413363Y5393482D01*
X2413456Y5392784D01*
X2413519Y5392084D01*
X2413552Y5391382D01*
X2413555Y5390680D01*
X2413528Y5389980D01*
X2413470Y5389282D01*
X2413380Y5388587D01*
X2413259Y5387898D01*
X2413106Y5387214D01*
X2412919Y5386539D01*
X2412700Y5385872D01*
X2412447Y5385214D01*
X2193870Y4857017D01*
X2193587Y4856377D01*
X2193275Y4855761D01*
X2192936Y4855171D01*
X2192572Y4854605D01*
X2192183Y4854065D01*
X2191771Y4853551D01*
X2191337Y4853063D01*
X2190881Y4852602D01*
X2190405Y4852168D01*
X2189910Y4851761D01*
X2189398Y4851382D01*
X2188868Y4851032D01*
X2188323Y4850711D01*
X2187763Y4850418D01*
X2187190Y4850155D01*
X2186604Y4849922D01*
X2186007Y4849720D01*
X2185400Y4849548D01*
X2184783Y4849408D01*
X2184159Y4849298D01*
X2183528Y4849221D01*
X2182891Y4849177D01*
X2182249Y4849165D01*
X2181604Y4849186D01*
X2180957Y4849241D01*
X2180308Y4849330D01*
X2179658Y4849453D01*
X2179010Y4849611D01*
X2178364Y4849805D01*
X2177720Y4850034D01*
X2177081Y4850299D01*
X2176447Y4850600D01*
X2070432Y4907203D01*
X2069171Y4907864D01*
X2067832Y4908430D01*
X2066426Y4908899D01*
X2064964Y4909274D01*
X2063458Y4909553D01*
X2061921Y4909737D01*
X2060363Y4909827D01*
X2058797Y4909822D01*
X2057235Y4909723D01*
X2055688Y4909529D01*
X2054168Y4909242D01*
X2052687Y4908862D01*
X2051256Y4908388D01*
X2049887Y4907821D01*
X2048593Y4907161D01*
X2047385Y4906408D01*
X1806978Y4741411D01*
X1806388Y4741030D01*
X1805780Y4740679D01*
X1805156Y4740358D01*
X1804517Y4740065D01*
X1803864Y4739802D01*
X1803200Y4739569D01*
X1801839Y4739188D01*
X1800445Y4738923D01*
X1799029Y4738773D01*
X1797603Y4738736D01*
X1796176Y4738811D01*
X1794760Y4738998D01*
X1793365Y4739295D01*
X1792002Y4739702D01*
X1790683Y4740218D01*
X1789417Y4740841D01*
X1788808Y4741192D01*
X1788216Y4741571D01*
X1787643Y4741975D01*
X1787091Y4742406D01*
X1786560Y4742863D01*
X1786052Y4743346D01*
X1565447Y4963914D01*
X1564960Y4964426D01*
X1564500Y4964960D01*
X1564066Y4965515D01*
X1563659Y4966091D01*
X1563278Y4966685D01*
X1562924Y4967297D01*
X1562597Y4967924D01*
X1562297Y4968567D01*
X1562024Y4969222D01*
X1561778Y4969890D01*
X1561369Y4971256D01*
X1561070Y4972653D01*
X1560883Y4974071D01*
X1560808Y4975500D01*
X1560846Y4976927D01*
X1560999Y4978344D01*
X1561119Y4979044D01*
X1561267Y4979738D01*
X1561444Y4980424D01*
X1561651Y4981099D01*
X1561887Y4981764D01*
X1562153Y4982417D01*
X1562448Y4983056D01*
X1562772Y4983680D01*
X1563127Y4984288D01*
X1563511Y4984878D01*
X1731458Y5229599D01*
X1732213Y5230810D01*
X1732886Y5232112D01*
X1733476Y5233492D01*
X1733982Y5234940D01*
X1734404Y5236442D01*
X1734741Y5237987D01*
X1734990Y5239563D01*
X1735153Y5241157D01*
X1735227Y5242758D01*
X1735212Y5244354D01*
X1735106Y5245932D01*
X1734909Y5247481D01*
X1734620Y5248989D01*
X1734238Y5250443D01*
X1733762Y5251832D01*
X1733191Y5253144D01*
X1640893Y5483705D01*
X1640665Y5484377D01*
X1640404Y5485046D01*
X1639793Y5486377D01*
X1639069Y5487687D01*
X1638240Y5488970D01*
X1637315Y5490216D01*
X1636304Y5491419D01*
X1635214Y5492570D01*
X1634056Y5493661D01*
X1632837Y5494683D01*
X1631567Y5495629D01*
X1630254Y5496491D01*
X1628907Y5497260D01*
X1627535Y5497928D01*
X1626148Y5498487D01*
X1625450Y5498724D01*
X1624752Y5498930D01*
X1624055Y5499105D01*
X1623359Y5499247D01*
X1327713Y5554265D01*
X1327026Y5554408D01*
X1326347Y5554586D01*
X1325678Y5554796D01*
X1325018Y5555038D01*
X1324370Y5555311D01*
X1323734Y5555614D01*
X1323111Y5555945D01*
X1322502Y5556304D01*
X1321907Y5556690D01*
X1321328Y5557101D01*
X1320765Y5557536D01*
X1320220Y5557995D01*
X1319692Y5558476D01*
X1319184Y5558978D01*
X1318695Y5559501D01*
X1318227Y5560043D01*
X1317781Y5560603D01*
X1317357Y5561179D01*
X1316957Y5561772D01*
X1316581Y5562380D01*
X1316230Y5563002D01*
X1315905Y5563636D01*
X1315606Y5564282D01*
X1315336Y5564939D01*
X1315094Y5565606D01*
X1314881Y5566281D01*
X1314699Y5566964D01*
X1314548Y5567653D01*
X1314429Y5568347D01*
X1314343Y5569046D01*
X1314290Y5569749D01*
X1314273Y5570453D01*
X1314236Y5882398D01*
X1314252Y5883104D01*
X1314302Y5883807D01*
X1314387Y5884507D01*
X1314504Y5885202D01*
X1314653Y5885891D01*
X1314834Y5886573D01*
X1315045Y5887248D01*
X1315285Y5887914D01*
X1315555Y5888570D01*
X1315851Y5889216D01*
X1316524Y5890470D01*
X1317298Y5891668D01*
X1318166Y5892803D01*
X1319120Y5893866D01*
X1320153Y5894849D01*
X1321260Y5895743D01*
X1322432Y5896541D01*
X1323041Y5896901D01*
X1323663Y5897234D01*
X1324298Y5897539D01*
X1324946Y5897815D01*
X1325605Y5898060D01*
X1326274Y5898274D01*
X1326953Y5898456D01*
X1327640Y5898604D01*
X1630735Y5954968D01*
X1632124Y5955291D01*
X1633521Y5955736D01*
X1634915Y5956296D01*
X1636299Y5956962D01*
X1637662Y5957726D01*
X1638995Y5958582D01*
X1640290Y5959520D01*
X1641537Y5960534D01*
X1642726Y5961614D01*
X1643849Y5962754D01*
X1644896Y5963946D01*
X1645858Y5965181D01*
X1646726Y5966452D01*
X1647491Y5967750D01*
X1648143Y5969069D01*
X1648674Y5970400D01*
X1741581Y6187152D01*
X1742182Y6188449D01*
X1742688Y6189824D01*
X1743098Y6191265D01*
X1743414Y6192760D01*
X1743636Y6194297D01*
X1743765Y6195864D01*
X1743802Y6197450D01*
X1743747Y6199041D01*
X1743602Y6200628D01*
X1743366Y6202197D01*
X1743041Y6203737D01*
X1742628Y6205236D01*
X1742127Y6206682D01*
X1741539Y6208064D01*
X1740864Y6209369D01*
X1740104Y6210585D01*
X1563510Y6467973D01*
X1563129Y6468563D01*
X1562778Y6469171D01*
X1562455Y6469795D01*
X1562163Y6470433D01*
X1561899Y6471085D01*
X1561664Y6471750D01*
X1561282Y6473110D01*
X1561015Y6474503D01*
X1560863Y6475918D01*
X1560823Y6477344D01*
X1560897Y6478771D01*
X1561082Y6480187D01*
X1561379Y6481583D01*
X1561786Y6482947D01*
X1562302Y6484269D01*
X1562927Y6485537D01*
X1563280Y6486149D01*
X1563660Y6486742D01*
X1564066Y6487318D01*
X1564499Y6487873D01*
X1564959Y6488407D01*
X1565445Y6488918D01*
X1786013Y6709486D01*
X1786525Y6709972D01*
X1787058Y6710433D01*
X1787613Y6710866D01*
X1788188Y6711274D01*
X1788782Y6711654D01*
X1789392Y6712008D01*
X1790019Y6712335D01*
X1790660Y6712635D01*
X1791314Y6712908D01*
X1791980Y6713154D01*
X1793343Y6713563D01*
X1794737Y6713862D01*
X1796151Y6714049D01*
X1797576Y6714124D01*
X1799001Y6714086D01*
X1800414Y6713933D01*
X1801113Y6713814D01*
X1801806Y6713666D01*
X1802490Y6713488D01*
X1803164Y6713281D01*
X1803828Y6713046D01*
X1804480Y6712780D01*
X1805118Y6712485D01*
X1805742Y6712161D01*
X1806349Y6711806D01*
X1806939Y6711422D01*
X2068845Y6531693D01*
X2070056Y6530935D01*
X2071359Y6530261D01*
X2072741Y6529670D01*
X2074191Y6529164D01*
X2075695Y6528744D01*
X2077242Y6528409D01*
X2078820Y6528162D01*
X2080417Y6528003D01*
X2082019Y6527932D01*
X2083616Y6527952D01*
X2085194Y6528061D01*
X2086743Y6528262D01*
X2088248Y6528556D01*
X2089700Y6528942D01*
X2091084Y6529422D01*
X2092389Y6529996D01*
X2302503Y6616007D01*
X2303172Y6616245D01*
X2303838Y6616514D01*
X2304501Y6616814D01*
X2305160Y6617144D01*
X2306462Y6617887D01*
X2307737Y6618735D01*
X2308975Y6619678D01*
X2310170Y6620707D01*
X2311313Y6621814D01*
X2312397Y6622988D01*
X2313414Y6624222D01*
X2314356Y6625505D01*
X2315215Y6626830D01*
X2315983Y6628185D01*
X2316653Y6629564D01*
X2317216Y6630956D01*
X2317664Y6632352D01*
X2317843Y6633049D01*
X2317991Y6633744D01*
X2376346Y6947237D01*
X2376491Y6947926D01*
X2376670Y6948607D01*
X2376881Y6949277D01*
X2377124Y6949938D01*
X2377397Y6950587D01*
X2377700Y6951223D01*
X2378032Y6951847D01*
X2378390Y6952457D01*
X2378775Y6953052D01*
X2379186Y6953631D01*
X2379621Y6954194D01*
X2380078Y6954739D01*
X2380559Y6955267D01*
X2381060Y6955775D01*
X2381581Y6956263D01*
X2382122Y6956731D01*
X2382680Y6957176D01*
X2383256Y6957600D01*
X2383847Y6957999D01*
X2384454Y6958375D01*
X2385074Y6958726D01*
X2385707Y6959050D01*
X2386352Y6959348D01*
X2387008Y6959618D01*
X2387673Y6959859D01*
X2388347Y6960072D01*
X2389029Y6960253D01*
X2389717Y6960404D01*
X2390411Y6960523D01*
X2391110Y6960609D01*
X2391812Y6960661D01*
X2392516Y6960678D01*
X2704479Y6960678D01*
X2705182Y6960661D01*
G36*
X2705182Y6960661D02*
G01*
X2705882Y6960609D01*
X2706579Y6960523D01*
X2707271Y6960404D01*
X2707958Y6960253D01*
X2708639Y6960072D01*
X2709312Y6959859D01*
X2709976Y6959618D01*
X2710631Y6959348D01*
X2711275Y6959050D01*
X2712527Y6958375D01*
X2713724Y6957600D01*
X2714857Y6956731D01*
X2715918Y6955775D01*
X2716899Y6954739D01*
X2717791Y6953631D01*
X2718201Y6953052D01*
X2718586Y6952457D01*
X2718945Y6951847D01*
X2719276Y6951223D01*
X2719579Y6950587D01*
X2719852Y6949938D01*
X2720095Y6949277D01*
X2720306Y6948607D01*
X2720485Y6947926D01*
X2720630Y6947237D01*
X2778966Y6633744D01*
X2779293Y6632353D01*
X2779741Y6630956D01*
X2780303Y6629564D01*
X2780972Y6628186D01*
X2781739Y6626830D01*
X2782596Y6625506D01*
X2783537Y6624222D01*
X2784553Y6622988D01*
X2785637Y6621814D01*
X2786780Y6620707D01*
X2787974Y6619678D01*
X2789213Y6618735D01*
X2790489Y6617887D01*
X2791792Y6617144D01*
X2793117Y6616514D01*
X2794454Y6616008D01*
X3004587Y6529997D01*
X3005895Y6529422D01*
X3007283Y6528942D01*
X3008736Y6528556D01*
X3010244Y6528263D01*
X3011794Y6528062D01*
X3013373Y6527952D01*
X3014971Y6527933D01*
X3016573Y6528003D01*
X3018169Y6528162D01*
X3019747Y6528409D01*
X3021293Y6528744D01*
X3022796Y6529164D01*
X3024243Y6529671D01*
X3025623Y6530261D01*
X3026923Y6530936D01*
X3028131Y6531693D01*
X3290018Y6711422D01*
X3290610Y6711807D01*
X3291219Y6712161D01*
X3291844Y6712486D01*
X3292484Y6712781D01*
X3293138Y6713046D01*
X3293803Y6713282D01*
X3295165Y6713666D01*
X3296560Y6713934D01*
X3297976Y6714086D01*
X3299402Y6714125D01*
X3300829Y6714050D01*
X3302246Y6713862D01*
X3303641Y6713563D01*
X3305004Y6713154D01*
X3306324Y6712636D01*
X3307591Y6712009D01*
X3308201Y6711655D01*
X3308793Y6711274D01*
X3309367Y6710867D01*
X3309921Y6710433D01*
X3310453Y6709973D01*
X3310963Y6709486D01*
X3531549Y6488918D01*
X3532034Y6488407D01*
X3532493Y6487873D01*
X3532926Y6487318D01*
X3533332Y6486743D01*
X3533712Y6486149D01*
X3534065Y6485538D01*
X3534391Y6484911D01*
X3534691Y6484269D01*
X3534964Y6483614D01*
X3535209Y6482947D01*
X3535618Y6481583D01*
X3535918Y6480187D01*
X3536106Y6478771D01*
X3536182Y6477344D01*
X3536144Y6475918D01*
X3535993Y6474503D01*
X3535874Y6473803D01*
X3535726Y6473110D01*
X3535549Y6472425D01*
X3535343Y6471750D01*
X3535107Y6471086D01*
X3534842Y6470433D01*
X3534548Y6469795D01*
X3534223Y6469171D01*
X3533869Y6468563D01*
X3533485Y6467973D01*
X3356872Y6210586D01*
X3356119Y6209369D01*
X3355450Y6208064D01*
X3354867Y6206683D01*
X3354370Y6205236D01*
X3353960Y6203737D01*
X3353638Y6202197D01*
X3353405Y6200628D01*
X3353260Y6199042D01*
X3353206Y6197450D01*
X3353243Y6195864D01*
X3353371Y6194297D01*
X3353592Y6192761D01*
X3353906Y6191266D01*
X3354314Y6189825D01*
X3354817Y6188450D01*
X3355415Y6187152D01*
X3448340Y5970401D01*
X3448588Y5969734D01*
X3448867Y5969070D01*
X3449516Y5967751D01*
X3450278Y5966452D01*
X3451143Y5965181D01*
X3452103Y5963946D01*
X3453148Y5962755D01*
X3454269Y5961615D01*
X3455457Y5960534D01*
X3456703Y5959521D01*
X3457998Y5958582D01*
X3459333Y5957727D01*
X3460698Y5956962D01*
X3462084Y5956296D01*
X3463483Y5955736D01*
X3464884Y5955291D01*
X3465584Y5955114D01*
X3466280Y5954968D01*
X3769356Y5898605D01*
X3770047Y5898456D01*
X3770729Y5898275D01*
X3771400Y5898061D01*
X3772062Y5897815D01*
X3772711Y5897540D01*
X3773349Y5897235D01*
X3773973Y5896902D01*
X3774583Y5896542D01*
X3775178Y5896156D01*
X3775758Y5895744D01*
X3776321Y5895309D01*
X3776866Y5894850D01*
X3777393Y5894370D01*
X3777901Y5893868D01*
X3778389Y5893347D01*
X3778856Y5892806D01*
X3779301Y5892248D01*
X3779724Y5891672D01*
X3780124Y5891081D01*
X3780499Y5890475D01*
X3780849Y5889855D01*
X3781173Y5889222D01*
X3781470Y5888578D01*
X3781739Y5887922D01*
X3781980Y5887257D01*
X3782192Y5886584D01*
X3782373Y5885902D01*
X3782524Y5885214D01*
X3782642Y5884521D01*
X3782728Y5883823D01*
X3782780Y5883121D01*
X3782797Y5882416D01*
X3782779Y5570472D01*
X3782761Y5569768D01*
X3782709Y5569066D01*
X3782623Y5568367D01*
X3782504Y5567672D01*
X3782354Y5566983D01*
X3782172Y5566300D01*
X3781960Y5565625D01*
X3781718Y5564959D01*
X3781150Y5563655D01*
X3780475Y5562399D01*
X3779700Y5561199D01*
X3778831Y5560062D01*
X3777875Y5558998D01*
X3776840Y5558014D01*
X3775731Y5557120D01*
X3775152Y5556709D01*
X3774557Y5556323D01*
X3773947Y5555964D01*
X3773324Y5555633D01*
X3772687Y5555330D01*
X3772038Y5555057D01*
X3771378Y5554815D01*
X3770707Y5554605D01*
X3770027Y5554428D01*
X3769338Y5554284D01*
X3473692Y5499267D01*
X3472997Y5499124D01*
X3472301Y5498949D01*
X3470907Y5498506D01*
X3469519Y5497947D01*
X3468146Y5497279D01*
X3466798Y5496510D01*
X3465482Y5495648D01*
X3464209Y5494702D01*
X3462987Y5493680D01*
X3461825Y5492589D01*
X3460732Y5491438D01*
X3459718Y5490235D01*
X3458791Y5488989D01*
X3457961Y5487706D01*
X3457236Y5486395D01*
X3456626Y5485065D01*
X3456367Y5484395D01*
X3456139Y5483724D01*
X3363841Y5253163D01*
X3363270Y5251851D01*
X3362793Y5250462D01*
X3362410Y5249008D01*
X3362121Y5247500D01*
X3361923Y5245951D01*
X3361817Y5244373D01*
X3361801Y5242777D01*
X3361875Y5241176D01*
X3362038Y5239581D01*
X3362288Y5238006D01*
X3362626Y5236461D01*
X3363050Y5234959D01*
X3363560Y5233511D01*
X3364154Y5232131D01*
X3364832Y5230829D01*
X3365593Y5229618D01*
X3533521Y4984897D01*
X3533904Y4984306D01*
X3534257Y4983699D01*
X3534580Y4983075D01*
X3534874Y4982436D01*
X3535138Y4981783D01*
X3535373Y4981118D01*
X3535755Y4979757D01*
X3536021Y4978363D01*
X3536173Y4976946D01*
X3536210Y4975518D01*
X3536135Y4974090D01*
X3535948Y4972672D01*
X3535650Y4971274D01*
X3535242Y4969909D01*
X3534724Y4968586D01*
X3534099Y4967316D01*
X3533747Y4966704D01*
X3533367Y4966110D01*
X3532961Y4965534D01*
X3532529Y4964979D01*
X3532070Y4964445D01*
X3531586Y4963933D01*
X3310981Y4743365D01*
X3310471Y4742882D01*
X3309939Y4742425D01*
X3309385Y4741994D01*
X3308811Y4741590D01*
X3308219Y4741211D01*
X3307609Y4740860D01*
X3306983Y4740535D01*
X3306342Y4740237D01*
X3305688Y4739965D01*
X3305022Y4739721D01*
X3303659Y4739314D01*
X3302264Y4739017D01*
X3300847Y4738830D01*
X3299420Y4738754D01*
X3297994Y4738791D01*
X3296578Y4738942D01*
X3295877Y4739060D01*
X3295183Y4739207D01*
X3294498Y4739382D01*
X3293821Y4739587D01*
X3293156Y4739821D01*
X3292502Y4740084D01*
X3291862Y4740376D01*
X3291237Y4740698D01*
X3290628Y4741049D01*
X3290036Y4741430D01*
X3049648Y4906427D01*
X3048439Y4907177D01*
X3047144Y4907834D01*
X3045775Y4908399D01*
X3044343Y4908872D01*
X3042861Y4909252D01*
X3041339Y4909538D01*
X3039791Y4909732D01*
X3038228Y4909831D01*
X3036661Y4909837D01*
X3035103Y4909749D01*
X3033566Y4909566D01*
X3032061Y4909288D01*
X3030600Y4908915D01*
X3029195Y4908446D01*
X3027858Y4907882D01*
X3026601Y4907222D01*
X2920585Y4850619D01*
X2919953Y4850316D01*
X2919315Y4850049D01*
X2918673Y4849819D01*
X2918028Y4849625D01*
X2917380Y4849466D01*
X2916732Y4849341D01*
X2916083Y4849252D01*
X2915436Y4849197D01*
X2914791Y4849175D01*
X2914150Y4849187D01*
X2913513Y4849232D01*
X2912882Y4849309D01*
X2912257Y4849418D01*
X2911640Y4849559D01*
X2911033Y4849731D01*
X2910435Y4849934D01*
X2909849Y4850168D01*
X2909275Y4850431D01*
X2908715Y4850724D01*
X2908169Y4851046D01*
X2907639Y4851397D01*
X2907126Y4851777D01*
X2906630Y4852184D01*
X2906154Y4852618D01*
X2905698Y4853080D01*
X2905263Y4853569D01*
X2904850Y4854083D01*
X2904461Y4854624D01*
X2904097Y4855190D01*
X2903758Y4855780D01*
X2903446Y4856396D01*
X2903162Y4857035D01*
X2684567Y5385214D01*
X2684312Y5385872D01*
X2684091Y5386539D01*
X2683903Y5387214D01*
X2683748Y5387898D01*
X2683625Y5388587D01*
X2683534Y5389281D01*
X2683446Y5390680D01*
X2683480Y5392083D01*
X2683633Y5393482D01*
X2683902Y5394864D01*
X2684283Y5396222D01*
X2684774Y5397544D01*
X2685370Y5398820D01*
X2686069Y5400041D01*
X2686867Y5401196D01*
X2687760Y5402276D01*
X2688242Y5402785D01*
X2688746Y5403270D01*
X2689273Y5403732D01*
X2689822Y5404169D01*
X2690392Y5404579D01*
X2690983Y5404961D01*
X2717515Y5421205D01*
X2719430Y5422421D01*
X2721472Y5423809D01*
X2723603Y5425339D01*
X2725786Y5426980D01*
X2727984Y5428703D01*
X2730160Y5430476D01*
X2732275Y5432271D01*
X2734293Y5434055D01*
X2751853Y5446077D01*
X2768613Y5459130D01*
X2784526Y5473168D01*
X2799546Y5488146D01*
X2813629Y5504019D01*
X2826727Y5520741D01*
X2838795Y5538266D01*
X2849788Y5556550D01*
X2859659Y5575546D01*
X2864159Y5585297D01*
X2868362Y5595209D01*
X2872262Y5605276D01*
X2875852Y5615493D01*
X2879128Y5625855D01*
X2882083Y5636354D01*
X2884713Y5646986D01*
X2887010Y5657746D01*
X2888969Y5668626D01*
X2890585Y5679622D01*
X2891852Y5690728D01*
X2892764Y5701939D01*
X2893315Y5713247D01*
X2893501Y5724649D01*
X2893052Y5742402D01*
X2891719Y5759922D01*
X2889525Y5777188D01*
X2886491Y5794177D01*
X2882639Y5810867D01*
X2877989Y5827238D01*
X2872565Y5843268D01*
X2866388Y5858934D01*
X2859479Y5874216D01*
X2851860Y5889091D01*
X2843553Y5903538D01*
X2834579Y5917535D01*
X2824960Y5931060D01*
X2814718Y5944093D01*
X2803875Y5956610D01*
X2792452Y5968591D01*
X2780470Y5980014D01*
X2767952Y5990857D01*
X2754920Y6001098D01*
X2741394Y6010716D01*
X2727397Y6019690D01*
X2712950Y6027996D01*
X2698075Y6035615D01*
X2682794Y6042523D01*
X2667128Y6048700D01*
X2651099Y6054124D01*
X2634728Y6058772D01*
X2618038Y6062625D01*
X2601051Y6065658D01*
X2583786Y6067852D01*
X2566268Y6069184D01*
X2548516Y6069633D01*
X2530765Y6069184D01*
X2513246Y6067852D01*
X2495982Y6065658D01*
X2478995Y6062625D01*
X2462305Y6058772D01*
X2445935Y6054124D01*
X2429907Y6048700D01*
X2414242Y6042523D01*
X2398961Y6035615D01*
X2384087Y6027996D01*
X2369641Y6019690D01*
X2355644Y6010716D01*
X2342119Y6001098D01*
X2329088Y5990857D01*
X2316571Y5980014D01*
X2304590Y5968591D01*
X2293168Y5956610D01*
X2282325Y5944092D01*
X2272084Y5931060D01*
X2262466Y5917535D01*
X2253493Y5903537D01*
X2245187Y5889091D01*
X2237568Y5874216D01*
X2230660Y5858934D01*
X2224483Y5843268D01*
X2219060Y5827238D01*
X2214411Y5810867D01*
X2210559Y5794176D01*
X2207525Y5777188D01*
X2205331Y5759922D01*
X2203999Y5742402D01*
X2203550Y5724649D01*
X2204286Y5701939D01*
X2206465Y5679622D01*
X2210039Y5657746D01*
X2214965Y5636354D01*
X2221195Y5615493D01*
X2228684Y5595209D01*
X2237386Y5575546D01*
X2247256Y5556550D01*
X2258248Y5538266D01*
X2270316Y5520741D01*
X2283414Y5504019D01*
X2297497Y5488146D01*
X2312518Y5473168D01*
X2328433Y5459130D01*
X2345195Y5446077D01*
X2362758Y5434055D01*
X2364765Y5432271D01*
X2366873Y5430476D01*
X2369044Y5428703D01*
X2371240Y5426980D01*
X2373421Y5425339D01*
X2375551Y5423809D01*
X2377590Y5422421D01*
X2379500Y5421205D01*
X2406031Y5404961D01*
X2406619Y5404579D01*
X2407186Y5404169D01*
X2407732Y5403732D01*
X2408257Y5403270D01*
X2408759Y5402785D01*
X2409239Y5402276D01*
X2409696Y5401747D01*
X2410130Y5401197D01*
X2410540Y5400628D01*
X2410926Y5400041D01*
X2411287Y5399438D01*
X2411623Y5398820D01*
X2411934Y5398188D01*
X2412219Y5397544D01*
X2412478Y5396888D01*
X2412710Y5396222D01*
X2412915Y5395547D01*
X2413093Y5394865D01*
X2413242Y5394176D01*
X2413363Y5393482D01*
X2413456Y5392784D01*
X2413519Y5392084D01*
X2413552Y5391382D01*
X2413555Y5390680D01*
X2413528Y5389980D01*
X2413470Y5389282D01*
X2413380Y5388587D01*
X2413259Y5387898D01*
X2413106Y5387214D01*
X2412919Y5386539D01*
X2412700Y5385872D01*
X2412447Y5385214D01*
X2193870Y4857017D01*
X2193587Y4856377D01*
X2193275Y4855761D01*
X2192936Y4855171D01*
X2192572Y4854605D01*
X2192183Y4854065D01*
X2191771Y4853551D01*
X2191337Y4853063D01*
X2190881Y4852602D01*
X2190405Y4852168D01*
X2189910Y4851761D01*
X2189398Y4851382D01*
X2188868Y4851032D01*
X2188323Y4850711D01*
X2187763Y4850418D01*
X2187190Y4850155D01*
X2186604Y4849922D01*
X2186007Y4849720D01*
X2185400Y4849548D01*
X2184783Y4849408D01*
X2184159Y4849298D01*
X2183528Y4849221D01*
X2182891Y4849177D01*
X2182249Y4849165D01*
X2181604Y4849186D01*
X2180957Y4849241D01*
X2180308Y4849330D01*
X2179658Y4849453D01*
X2179010Y4849611D01*
X2178364Y4849805D01*
X2177720Y4850034D01*
X2177081Y4850299D01*
X2176447Y4850600D01*
X2070432Y4907203D01*
X2069171Y4907864D01*
X2067832Y4908430D01*
X2066426Y4908899D01*
X2064964Y4909274D01*
X2063458Y4909553D01*
X2061921Y4909737D01*
X2060363Y4909827D01*
X2058797Y4909822D01*
X2057235Y4909723D01*
X2055688Y4909529D01*
X2054168Y4909242D01*
X2052687Y4908862D01*
X2051256Y4908388D01*
X2049887Y4907821D01*
X2048593Y4907161D01*
X2047385Y4906408D01*
X1806978Y4741411D01*
X1806388Y4741030D01*
X1805780Y4740679D01*
X1805156Y4740358D01*
X1804517Y4740065D01*
X1803864Y4739802D01*
X1803200Y4739569D01*
X1801839Y4739188D01*
X1800445Y4738923D01*
X1799029Y4738773D01*
X1797603Y4738736D01*
X1796176Y4738811D01*
X1794760Y4738998D01*
X1793365Y4739295D01*
X1792002Y4739702D01*
X1790683Y4740218D01*
X1789417Y4740841D01*
X1788808Y4741192D01*
X1788216Y4741571D01*
X1787643Y4741975D01*
X1787091Y4742406D01*
X1786560Y4742863D01*
X1786052Y4743346D01*
X1565447Y4963914D01*
X1564960Y4964426D01*
X1564500Y4964960D01*
X1564066Y4965515D01*
X1563659Y4966091D01*
X1563278Y4966685D01*
X1562924Y4967297D01*
X1562597Y4967924D01*
X1562297Y4968567D01*
X1562024Y4969222D01*
X1561778Y4969890D01*
X1561369Y4971256D01*
X1561070Y4972653D01*
X1560883Y4974071D01*
X1560808Y4975500D01*
X1560846Y4976927D01*
X1560999Y4978344D01*
X1561119Y4979044D01*
X1561267Y4979738D01*
X1561444Y4980424D01*
X1561651Y4981099D01*
X1561887Y4981764D01*
X1562153Y4982417D01*
X1562448Y4983056D01*
X1562772Y4983680D01*
X1563127Y4984288D01*
X1563511Y4984878D01*
X1731458Y5229599D01*
X1732213Y5230810D01*
X1732886Y5232112D01*
X1733476Y5233492D01*
X1733982Y5234940D01*
X1734404Y5236442D01*
X1734741Y5237987D01*
X1734990Y5239563D01*
X1735153Y5241157D01*
X1735227Y5242758D01*
X1735212Y5244354D01*
X1735106Y5245932D01*
X1734909Y5247481D01*
X1734620Y5248989D01*
X1734238Y5250443D01*
X1733762Y5251832D01*
X1733191Y5253144D01*
X1640893Y5483705D01*
X1640665Y5484377D01*
X1640404Y5485046D01*
X1639793Y5486377D01*
X1639069Y5487687D01*
X1638240Y5488970D01*
X1637315Y5490216D01*
X1636304Y5491419D01*
X1635214Y5492570D01*
X1634056Y5493661D01*
X1632837Y5494683D01*
X1631567Y5495629D01*
X1630254Y5496491D01*
X1628907Y5497260D01*
X1627535Y5497928D01*
X1626148Y5498487D01*
X1625450Y5498724D01*
X1624752Y5498930D01*
X1624055Y5499105D01*
X1623359Y5499247D01*
X1327713Y5554265D01*
X1327026Y5554408D01*
X1326347Y5554586D01*
X1325678Y5554796D01*
X1325018Y5555038D01*
X1324370Y5555311D01*
X1323734Y5555614D01*
X1323111Y5555945D01*
X1322502Y5556304D01*
X1321907Y5556690D01*
X1321328Y5557101D01*
X1320765Y5557536D01*
X1320220Y5557995D01*
X1319692Y5558476D01*
X1319184Y5558978D01*
X1318695Y5559501D01*
X1318227Y5560043D01*
X1317781Y5560603D01*
X1317357Y5561179D01*
X1316957Y5561772D01*
X1316581Y5562380D01*
X1316230Y5563002D01*
X1315905Y5563636D01*
X1315606Y5564282D01*
X1315336Y5564939D01*
X1315094Y5565606D01*
X1314881Y5566281D01*
X1314699Y5566964D01*
X1314548Y5567653D01*
X1314429Y5568347D01*
X1314343Y5569046D01*
X1314290Y5569749D01*
X1314273Y5570453D01*
X1314236Y5882398D01*
X1314252Y5883104D01*
X1314302Y5883807D01*
X1314387Y5884507D01*
X1314504Y5885202D01*
X1314653Y5885891D01*
X1314834Y5886573D01*
X1315045Y5887248D01*
X1315285Y5887914D01*
X1315555Y5888570D01*
X1315851Y5889216D01*
X1316524Y5890470D01*
X1317298Y5891668D01*
X1318166Y5892803D01*
X1319120Y5893866D01*
X1320153Y5894849D01*
X1321260Y5895743D01*
X1322432Y5896541D01*
X1323041Y5896901D01*
X1323663Y5897234D01*
X1324298Y5897539D01*
X1324946Y5897815D01*
X1325605Y5898060D01*
X1326274Y5898274D01*
X1326953Y5898456D01*
X1327640Y5898604D01*
X1630735Y5954968D01*
X1632124Y5955291D01*
X1633521Y5955736D01*
X1634915Y5956296D01*
X1636299Y5956962D01*
X1637662Y5957726D01*
X1638995Y5958582D01*
X1640290Y5959520D01*
X1641537Y5960534D01*
X1642726Y5961614D01*
X1643849Y5962754D01*
X1644896Y5963946D01*
X1645858Y5965181D01*
X1646726Y5966452D01*
X1647491Y5967750D01*
X1648143Y5969069D01*
X1648674Y5970400D01*
X1741581Y6187152D01*
X1742182Y6188449D01*
X1742688Y6189824D01*
X1743098Y6191265D01*
X1743414Y6192760D01*
X1743636Y6194297D01*
X1743765Y6195864D01*
X1743802Y6197450D01*
X1743747Y6199041D01*
X1743602Y6200628D01*
X1743366Y6202197D01*
X1743041Y6203737D01*
X1742628Y6205236D01*
X1742127Y6206682D01*
X1741539Y6208064D01*
X1740864Y6209369D01*
X1740104Y6210585D01*
X1563510Y6467973D01*
X1563129Y6468563D01*
X1562778Y6469171D01*
X1562455Y6469795D01*
X1562163Y6470433D01*
X1561899Y6471085D01*
X1561664Y6471750D01*
X1561282Y6473110D01*
X1561015Y6474503D01*
X1560863Y6475918D01*
X1560823Y6477344D01*
X1560897Y6478771D01*
X1561082Y6480187D01*
X1561379Y6481583D01*
X1561786Y6482947D01*
X1562302Y6484269D01*
X1562927Y6485537D01*
X1563280Y6486149D01*
X1563660Y6486742D01*
X1564066Y6487318D01*
X1564499Y6487873D01*
X1564959Y6488407D01*
X1565445Y6488918D01*
X1786013Y6709486D01*
X1786525Y6709972D01*
X1787058Y6710433D01*
X1787613Y6710866D01*
X1788188Y6711274D01*
X1788782Y6711654D01*
X1789392Y6712008D01*
X1790019Y6712335D01*
X1790660Y6712635D01*
X1791314Y6712908D01*
X1791980Y6713154D01*
X1793343Y6713563D01*
X1794737Y6713862D01*
X1796151Y6714049D01*
X1797576Y6714124D01*
X1799001Y6714086D01*
X1800414Y6713933D01*
X1801113Y6713814D01*
X1801806Y6713666D01*
X1802490Y6713488D01*
X1803164Y6713281D01*
X1803828Y6713046D01*
X1804480Y6712780D01*
X1805118Y6712485D01*
X1805742Y6712161D01*
X1806349Y6711806D01*
X1806939Y6711422D01*
X2068845Y6531693D01*
X2070056Y6530935D01*
X2071359Y6530261D01*
X2072741Y6529670D01*
X2074191Y6529164D01*
X2075695Y6528744D01*
X2077242Y6528409D01*
X2078820Y6528162D01*
X2080417Y6528003D01*
X2082019Y6527932D01*
X2083616Y6527952D01*
X2085194Y6528061D01*
X2086743Y6528262D01*
X2088248Y6528556D01*
X2089700Y6528942D01*
X2091084Y6529422D01*
X2092389Y6529996D01*
X2302503Y6616007D01*
X2303172Y6616245D01*
X2303838Y6616514D01*
X2304501Y6616814D01*
X2305160Y6617144D01*
X2306462Y6617887D01*
X2307737Y6618735D01*
X2308975Y6619678D01*
X2310170Y6620707D01*
X2311313Y6621814D01*
X2312397Y6622988D01*
X2313414Y6624222D01*
X2314356Y6625505D01*
X2315215Y6626830D01*
X2315983Y6628185D01*
X2316653Y6629564D01*
X2317216Y6630956D01*
X2317664Y6632352D01*
X2317843Y6633049D01*
X2317991Y6633744D01*
X2376346Y6947237D01*
X2376491Y6947926D01*
X2376670Y6948607D01*
X2376881Y6949277D01*
X2377124Y6949938D01*
X2377397Y6950587D01*
X2377700Y6951223D01*
X2378032Y6951847D01*
X2378390Y6952457D01*
X2378775Y6953052D01*
X2379186Y6953631D01*
X2379621Y6954194D01*
X2380078Y6954739D01*
X2380559Y6955267D01*
X2381060Y6955775D01*
X2381581Y6956263D01*
X2382122Y6956731D01*
X2382680Y6957176D01*
X2383256Y6957600D01*
X2383847Y6957999D01*
X2384454Y6958375D01*
X2385074Y6958726D01*
X2385707Y6959050D01*
X2386352Y6959348D01*
X2387008Y6959618D01*
X2387673Y6959859D01*
X2388347Y6960072D01*
X2389029Y6960253D01*
X2389717Y6960404D01*
X2390411Y6960523D01*
X2391110Y6960609D01*
X2391812Y6960661D01*
X2392516Y6960678D01*
X2704479Y6960678D01*
X2705182Y6960661D01*
G37*
D12*
%TO.C,JP2*%
X41325800Y27381200D02*
X41325800Y28498800D01*
X41783000Y28956000D02*
X43307000Y28956000D01*
X43307000Y26924000D02*
X41783000Y26924000D01*
X43764200Y27381200D02*
X43764200Y28498800D01*
X41325800Y28498800D02*
G75*
G02*
X41783000Y28956000I457201J-1D01*
G01*
X41783000Y26924000D02*
G75*
G02*
X41325800Y27381200I1J457201D01*
G01*
X43307000Y28956000D02*
G75*
G02*
X43764200Y28498800I0J-457200D01*
G01*
X43764200Y27381200D02*
G75*
G02*
X43307000Y26924000I-457200J0D01*
G01*
D10*
%TO.C,G\u002A\u002A\u002A*%
G36*
X26357107Y42051091D02*
G01*
X26357107Y40054541D01*
X25911412Y40054541D01*
X25911412Y40613076D01*
X25738740Y40779648D01*
X25293336Y40054541D01*
X24753535Y40054541D01*
X25434494Y41080553D01*
X24822226Y41677282D01*
X25349538Y41677282D01*
X25911412Y41093189D01*
X25911412Y42295504D01*
X26357107Y42051091D01*
G37*
G36*
X26647690Y41720676D02*
G01*
X26668430Y41719452D01*
X26689057Y41717429D01*
X26709550Y41714623D01*
X26729889Y41711046D01*
X26750052Y41706714D01*
X26770020Y41701641D01*
X26789770Y41695840D01*
X26809283Y41689327D01*
X26828537Y41682116D01*
X26847513Y41674221D01*
X26866188Y41665656D01*
X26884543Y41656435D01*
X26902556Y41646574D01*
X26920207Y41636085D01*
X26937475Y41624984D01*
X26954339Y41613285D01*
X26970779Y41601002D01*
X26986773Y41588149D01*
X27002302Y41574742D01*
X27017343Y41560793D01*
X27031877Y41546317D01*
X27045883Y41531329D01*
X27059339Y41515843D01*
X27072226Y41499874D01*
X27084521Y41483434D01*
X27096206Y41466540D01*
X27107258Y41449205D01*
X27117657Y41431443D01*
X27127382Y41413269D01*
X27136413Y41394698D01*
X27144729Y41375742D01*
X27150829Y41375742D01*
X27150829Y41677228D01*
X27574594Y41601567D01*
X27574594Y40054488D01*
X27128899Y40054488D01*
X27128899Y40785695D01*
X27127584Y40839148D01*
X27123532Y40891016D01*
X27116582Y40941043D01*
X27111970Y40965285D01*
X27106573Y40988970D01*
X27100372Y41012067D01*
X27093346Y41034542D01*
X27085475Y41056364D01*
X27076738Y41077500D01*
X27067117Y41097918D01*
X27056591Y41117587D01*
X27045139Y41136474D01*
X27032743Y41154547D01*
X27019380Y41171773D01*
X27005033Y41188121D01*
X26989679Y41203559D01*
X26973301Y41218054D01*
X26955876Y41231574D01*
X26937386Y41244087D01*
X26917810Y41255561D01*
X26897128Y41265964D01*
X26875320Y41275263D01*
X26852366Y41283426D01*
X26828245Y41290422D01*
X26802939Y41296218D01*
X26776426Y41300782D01*
X26748687Y41304082D01*
X26719702Y41306085D01*
X26689450Y41306760D01*
X26668903Y41306462D01*
X26647634Y41305599D01*
X26626079Y41304218D01*
X26604675Y41302367D01*
X26583855Y41300095D01*
X26564057Y41297448D01*
X26545715Y41294474D01*
X26529267Y41291221D01*
X26529267Y41705403D01*
X26541043Y41708703D01*
X26552868Y41711713D01*
X26564778Y41714386D01*
X26576810Y41716676D01*
X26588997Y41718537D01*
X26601377Y41719923D01*
X26607651Y41720423D01*
X26613986Y41720788D01*
X26620386Y41721011D01*
X26626858Y41721087D01*
X26647690Y41720676D01*
G37*
G36*
X23972774Y42294868D02*
G01*
X24005282Y42293100D01*
X24036708Y42290180D01*
X24067052Y42286130D01*
X24096317Y42280972D01*
X24124504Y42274727D01*
X24151613Y42267418D01*
X24177645Y42259065D01*
X24202602Y42249691D01*
X24226485Y42239319D01*
X24249295Y42227968D01*
X24271032Y42215662D01*
X24291699Y42202422D01*
X24311296Y42188270D01*
X24329823Y42173228D01*
X24347284Y42157317D01*
X24363677Y42140559D01*
X24379005Y42122977D01*
X24393268Y42104591D01*
X24406469Y42085425D01*
X24418606Y42065499D01*
X24429683Y42044835D01*
X24439700Y42023455D01*
X24448657Y42001382D01*
X24456557Y41978636D01*
X24463400Y41955239D01*
X24469187Y41931215D01*
X24473919Y41906583D01*
X24477598Y41881366D01*
X24480225Y41855586D01*
X24481800Y41829265D01*
X24482324Y41802424D01*
X24482324Y41677240D01*
X24618109Y41677240D01*
X24921920Y41379094D01*
X24482324Y41379094D01*
X24482324Y40054353D01*
X24036629Y40054353D01*
X24036629Y41379094D01*
X23729189Y41379094D01*
X23729189Y41677240D01*
X24036629Y41677240D01*
X24036629Y41774395D01*
X24036069Y41798734D01*
X24034362Y41821135D01*
X24033065Y41831625D01*
X24031466Y41841649D01*
X24029559Y41851215D01*
X24027340Y41860328D01*
X24024802Y41868994D01*
X24021942Y41877221D01*
X24018754Y41885014D01*
X24015232Y41892380D01*
X24011372Y41899325D01*
X24007168Y41905855D01*
X24002616Y41911976D01*
X23997709Y41917696D01*
X23992444Y41923020D01*
X23986814Y41927955D01*
X23980815Y41932506D01*
X23974441Y41936681D01*
X23967687Y41940486D01*
X23960549Y41943926D01*
X23953021Y41947009D01*
X23945097Y41949741D01*
X23936773Y41952127D01*
X23928044Y41954175D01*
X23918903Y41955890D01*
X23909347Y41957279D01*
X23899370Y41958349D01*
X23888967Y41959105D01*
X23866862Y41959702D01*
X23846828Y41959558D01*
X23826535Y41959123D01*
X23806065Y41958392D01*
X23785500Y41957360D01*
X23764921Y41956022D01*
X23744410Y41954372D01*
X23724049Y41952406D01*
X23703920Y41950118D01*
X23703920Y42282973D01*
X23732375Y42284385D01*
X23761347Y42286210D01*
X23820354Y42290361D01*
X23850143Y42292314D01*
X23879959Y42293939D01*
X23909680Y42295050D01*
X23939184Y42295462D01*
X23972774Y42294868D01*
G37*
G36*
X20941717Y41719988D02*
G01*
X20977143Y41716980D01*
X21012449Y41711939D01*
X21047507Y41704843D01*
X21082189Y41695669D01*
X21116367Y41684394D01*
X21149913Y41670997D01*
X21182698Y41655453D01*
X21214595Y41637742D01*
X21245475Y41617840D01*
X21260494Y41607060D01*
X21275211Y41595724D01*
X21289610Y41583829D01*
X21303675Y41571373D01*
X21317389Y41558352D01*
X21330737Y41544763D01*
X21343704Y41530605D01*
X21356272Y41515873D01*
X21368425Y41500565D01*
X21380149Y41484679D01*
X21391426Y41468211D01*
X21402241Y41451159D01*
X21411827Y41451159D01*
X21411827Y41677128D01*
X21835447Y41677128D01*
X21835447Y40054388D01*
X21389462Y40054388D01*
X21389462Y40904823D01*
X21388244Y40964368D01*
X21386711Y40992458D01*
X21384553Y41019440D01*
X21381766Y41045325D01*
X21378340Y41070125D01*
X21374272Y41093850D01*
X21369553Y41116511D01*
X21364177Y41138119D01*
X21358139Y41158684D01*
X21351432Y41178219D01*
X21344048Y41196733D01*
X21335983Y41214238D01*
X21327228Y41230745D01*
X21317779Y41246263D01*
X21307628Y41260805D01*
X21296769Y41274382D01*
X21285196Y41287003D01*
X21272902Y41298680D01*
X21259880Y41309424D01*
X21246125Y41319247D01*
X21231630Y41328157D01*
X21216388Y41336168D01*
X21200393Y41343289D01*
X21183639Y41349531D01*
X21166119Y41354906D01*
X21147826Y41359423D01*
X21128755Y41363095D01*
X21108898Y41365932D01*
X21088250Y41367945D01*
X21066804Y41369145D01*
X21044554Y41369543D01*
X21025258Y41369156D01*
X21006739Y41367996D01*
X20988986Y41366063D01*
X20971988Y41363355D01*
X20955733Y41359872D01*
X20940212Y41355614D01*
X20925414Y41350579D01*
X20911328Y41344768D01*
X20897943Y41338179D01*
X20885248Y41330813D01*
X20873233Y41322668D01*
X20861886Y41313744D01*
X20851199Y41304040D01*
X20841158Y41293556D01*
X20831754Y41282291D01*
X20822976Y41270245D01*
X20814814Y41257417D01*
X20807256Y41243806D01*
X20800291Y41229412D01*
X20793910Y41214234D01*
X20782853Y41181525D01*
X20773999Y41145674D01*
X20767262Y41106676D01*
X20762557Y41064527D01*
X20759797Y41019221D01*
X20758896Y40970755D01*
X20758896Y40054388D01*
X20313202Y40054388D01*
X20313202Y41052662D01*
X20314656Y41126341D01*
X20319250Y41196667D01*
X20327328Y41263448D01*
X20339235Y41326490D01*
X20346733Y41356549D01*
X20355316Y41385600D01*
X20365030Y41413620D01*
X20375916Y41440584D01*
X20388018Y41466469D01*
X20401379Y41491250D01*
X20416042Y41514903D01*
X20432050Y41537404D01*
X20449446Y41558728D01*
X20468274Y41578851D01*
X20488577Y41597750D01*
X20510397Y41615400D01*
X20533777Y41631777D01*
X20558762Y41646857D01*
X20585393Y41660615D01*
X20613715Y41673028D01*
X20643769Y41684070D01*
X20675600Y41693719D01*
X20709250Y41701950D01*
X20744763Y41708738D01*
X20782181Y41714060D01*
X20821547Y41717892D01*
X20862906Y41720208D01*
X20906299Y41720986D01*
X20941717Y41719988D01*
G37*
G36*
X22527407Y40826607D02*
G01*
X22528628Y40767113D01*
X22530163Y40739047D01*
X22532323Y40712086D01*
X22535115Y40686221D01*
X22538545Y40661440D01*
X22542619Y40637732D01*
X22547344Y40615088D01*
X22552727Y40593494D01*
X22558773Y40572942D01*
X22565489Y40553420D01*
X22572883Y40534917D01*
X22580959Y40517422D01*
X22589725Y40500925D01*
X22599186Y40485414D01*
X22609351Y40470880D01*
X22620223Y40457310D01*
X22631812Y40444694D01*
X22644122Y40433022D01*
X22657160Y40422282D01*
X22670932Y40412463D01*
X22685446Y40403555D01*
X22700707Y40395547D01*
X22716722Y40388429D01*
X22733497Y40382188D01*
X22751039Y40376814D01*
X22769354Y40372297D01*
X22788448Y40368626D01*
X22808329Y40365789D01*
X22829002Y40363776D01*
X22850474Y40362577D01*
X22872752Y40362179D01*
X22892046Y40362565D01*
X22910563Y40363724D01*
X22928312Y40365655D01*
X22945305Y40368360D01*
X22961553Y40371840D01*
X22977066Y40376094D01*
X22991856Y40381125D01*
X23005932Y40386931D01*
X23019307Y40393514D01*
X23031990Y40400875D01*
X23043993Y40409014D01*
X23055327Y40417932D01*
X23066002Y40427629D01*
X23076029Y40438106D01*
X23085419Y40449364D01*
X23094184Y40461404D01*
X23102333Y40474225D01*
X23109877Y40487829D01*
X23116828Y40502217D01*
X23123197Y40517388D01*
X23134229Y40550085D01*
X23143061Y40585925D01*
X23149779Y40624914D01*
X23154470Y40667056D01*
X23157221Y40712356D01*
X23158119Y40760821D01*
X23158119Y41677188D01*
X23603958Y41677188D01*
X23603958Y40678914D01*
X23602503Y40605211D01*
X23597909Y40534867D01*
X23589831Y40468074D01*
X23577924Y40405024D01*
X23570427Y40374964D01*
X23561843Y40345911D01*
X23552130Y40317891D01*
X23541244Y40290927D01*
X23529142Y40265044D01*
X23515781Y40240265D01*
X23501118Y40216615D01*
X23485110Y40194117D01*
X23467714Y40172797D01*
X23448886Y40152677D01*
X23428583Y40133783D01*
X23406763Y40116137D01*
X23383383Y40099765D01*
X23358398Y40084690D01*
X23331767Y40070936D01*
X23303445Y40058528D01*
X23273391Y40047489D01*
X23241560Y40037844D01*
X23207910Y40029617D01*
X23172397Y40022831D01*
X23134979Y40017512D01*
X23095612Y40013682D01*
X23054254Y40011367D01*
X23010860Y40010590D01*
X22975465Y40011588D01*
X22940052Y40014596D01*
X22904752Y40019637D01*
X22869693Y40026735D01*
X22835005Y40035911D01*
X22800818Y40047189D01*
X22767260Y40060591D01*
X22734462Y40076141D01*
X22702551Y40093860D01*
X22671659Y40113772D01*
X22656635Y40124557D01*
X22641913Y40135899D01*
X22627511Y40147801D01*
X22613444Y40160265D01*
X22599729Y40173294D01*
X22586381Y40186891D01*
X22573417Y40201059D01*
X22560852Y40215801D01*
X22548704Y40231119D01*
X22536988Y40247017D01*
X22525721Y40263497D01*
X22514918Y40280563D01*
X22505479Y40280563D01*
X22505479Y40054448D01*
X22081568Y40054448D01*
X22081568Y41677188D01*
X22527407Y41677188D01*
X22527407Y40826607D01*
G37*
G36*
X31131842Y39483197D02*
G01*
X30686147Y39086731D01*
X30686147Y40255065D01*
X30679612Y40255065D01*
X30658256Y40225993D01*
X30635353Y40198692D01*
X30610976Y40173176D01*
X30585198Y40149460D01*
X30558093Y40127558D01*
X30529734Y40107484D01*
X30500193Y40089254D01*
X30469545Y40072881D01*
X30437862Y40058380D01*
X30405217Y40045766D01*
X30371684Y40035053D01*
X30337336Y40026255D01*
X30302246Y40019387D01*
X30266487Y40014463D01*
X30230132Y40011499D01*
X30193255Y40010507D01*
X30149238Y40011681D01*
X30106636Y40015158D01*
X30065447Y40020869D01*
X30025671Y40028745D01*
X29987307Y40038716D01*
X29950352Y40050715D01*
X29914807Y40064672D01*
X29880670Y40080519D01*
X29847939Y40098186D01*
X29816614Y40117605D01*
X29786694Y40138707D01*
X29758177Y40161422D01*
X29731062Y40185683D01*
X29705349Y40211420D01*
X29681035Y40238564D01*
X29658120Y40267047D01*
X29636602Y40296799D01*
X29616482Y40327752D01*
X29597756Y40359836D01*
X29580425Y40392984D01*
X29549940Y40462193D01*
X29525019Y40534827D01*
X29505652Y40610336D01*
X29491829Y40688168D01*
X29483542Y40767773D01*
X29480782Y40848599D01*
X29481175Y40861088D01*
X29926622Y40861088D01*
X29927749Y40811873D01*
X29931230Y40763302D01*
X29937217Y40715726D01*
X29945864Y40669494D01*
X29951233Y40646990D01*
X29957323Y40624953D01*
X29964154Y40603427D01*
X29971745Y40582455D01*
X29980115Y40562080D01*
X29989283Y40542347D01*
X29999269Y40523299D01*
X30010090Y40504979D01*
X30021767Y40487431D01*
X30034317Y40470700D01*
X30047762Y40454828D01*
X30062118Y40439858D01*
X30077406Y40425836D01*
X30093644Y40412804D01*
X30110851Y40400806D01*
X30129047Y40389886D01*
X30148251Y40380087D01*
X30168481Y40371453D01*
X30189756Y40364028D01*
X30212096Y40357855D01*
X30235520Y40352978D01*
X30260047Y40349440D01*
X30285695Y40347285D01*
X30312484Y40346557D01*
X30339040Y40347285D01*
X30364504Y40349440D01*
X30388893Y40352978D01*
X30412223Y40357855D01*
X30434511Y40364028D01*
X30455771Y40371453D01*
X30476022Y40380087D01*
X30495279Y40389886D01*
X30513558Y40400806D01*
X30530877Y40412804D01*
X30547250Y40425836D01*
X30562695Y40439858D01*
X30577227Y40454828D01*
X30590864Y40470700D01*
X30603620Y40487431D01*
X30615514Y40504979D01*
X30626560Y40523299D01*
X30636776Y40542347D01*
X30654779Y40582455D01*
X30669655Y40624953D01*
X30681534Y40669494D01*
X30690547Y40715726D01*
X30696822Y40763302D01*
X30700492Y40811873D01*
X30701687Y40861088D01*
X30700558Y40910387D01*
X30697073Y40959244D01*
X30691077Y41007281D01*
X30682419Y41054119D01*
X30677045Y41076971D01*
X30670948Y41099382D01*
X30664109Y41121304D01*
X30656510Y41142690D01*
X30648131Y41163494D01*
X30638954Y41183668D01*
X30628959Y41203164D01*
X30618128Y41221935D01*
X30606441Y41239935D01*
X30593879Y41257116D01*
X30580424Y41273431D01*
X30566056Y41288832D01*
X30550756Y41303272D01*
X30534506Y41316705D01*
X30517286Y41329082D01*
X30499078Y41340357D01*
X30479861Y41350483D01*
X30459618Y41359411D01*
X30438329Y41367096D01*
X30415976Y41373489D01*
X30392538Y41378544D01*
X30367998Y41382213D01*
X30342337Y41384449D01*
X30315534Y41385205D01*
X30289298Y41384440D01*
X30264115Y41382179D01*
X30239971Y41378471D01*
X30216850Y41373364D01*
X30194738Y41366907D01*
X30173622Y41359150D01*
X30153486Y41350141D01*
X30134316Y41339929D01*
X30116098Y41328562D01*
X30098818Y41316091D01*
X30082460Y41302563D01*
X30067011Y41288028D01*
X30052456Y41272535D01*
X30038780Y41256131D01*
X30025970Y41238868D01*
X30014011Y41220792D01*
X30002888Y41201954D01*
X29992588Y41182401D01*
X29974395Y41141350D01*
X29959317Y41098031D01*
X29947240Y41052833D01*
X29938046Y41006148D01*
X29931623Y40958369D01*
X29927853Y40909885D01*
X29926622Y40861088D01*
X29481175Y40861088D01*
X29483480Y40934405D01*
X29491622Y41018508D01*
X29505282Y41100379D01*
X29514204Y41140312D01*
X29524533Y41179489D01*
X29536279Y41217844D01*
X29549449Y41255310D01*
X29564054Y41291821D01*
X29580103Y41327311D01*
X29597605Y41361715D01*
X29616568Y41394966D01*
X29637003Y41426998D01*
X29658919Y41457744D01*
X29682323Y41487139D01*
X29707227Y41515117D01*
X29733638Y41541612D01*
X29761567Y41566557D01*
X29791021Y41589886D01*
X29822011Y41611533D01*
X29854546Y41631433D01*
X29888634Y41649518D01*
X29924286Y41665723D01*
X29961509Y41679982D01*
X30000314Y41692229D01*
X30040709Y41702397D01*
X30082704Y41710421D01*
X30126308Y41716234D01*
X30171530Y41719770D01*
X30218379Y41720964D01*
X30255697Y41720078D01*
X30292301Y41717394D01*
X30328142Y41712876D01*
X30363168Y41706485D01*
X30397329Y41698183D01*
X30430576Y41687934D01*
X30462857Y41675698D01*
X30478621Y41668825D01*
X30494124Y41661440D01*
X30509361Y41653540D01*
X30524325Y41645121D01*
X30539011Y41636176D01*
X30553411Y41626703D01*
X30567520Y41616695D01*
X30581331Y41606149D01*
X30594838Y41595059D01*
X30608035Y41583420D01*
X30620915Y41571229D01*
X30633472Y41558481D01*
X30645701Y41545170D01*
X30657594Y41531292D01*
X30669145Y41516842D01*
X30680349Y41501816D01*
X30691198Y41486209D01*
X30701687Y41470016D01*
X30707931Y41470016D01*
X30707931Y41677106D01*
X31131842Y41601590D01*
X31131842Y40861088D01*
X31131842Y39483197D01*
G37*
G36*
X29352433Y40497132D02*
G01*
X29351731Y40466438D01*
X29349645Y40436790D01*
X29346208Y40408183D01*
X29341449Y40380614D01*
X29335402Y40354076D01*
X29328098Y40328566D01*
X29319568Y40304078D01*
X29309844Y40280609D01*
X29298957Y40258152D01*
X29286940Y40236704D01*
X29273822Y40216260D01*
X29259637Y40196815D01*
X29244416Y40178365D01*
X29228190Y40160904D01*
X29210990Y40144428D01*
X29192850Y40128933D01*
X29173798Y40114413D01*
X29153869Y40100864D01*
X29133092Y40088281D01*
X29111501Y40076660D01*
X29089125Y40065995D01*
X29065997Y40056283D01*
X29042149Y40047517D01*
X29017611Y40039695D01*
X28966594Y40026859D01*
X28913200Y40017737D01*
X28857681Y40012291D01*
X28800289Y40010484D01*
X28762558Y40011117D01*
X28724856Y40013056D01*
X28687279Y40016362D01*
X28649925Y40021095D01*
X28612889Y40027315D01*
X28576270Y40035083D01*
X28540163Y40044459D01*
X28504666Y40055504D01*
X28469875Y40068278D01*
X28435887Y40082841D01*
X28402799Y40099255D01*
X28370707Y40117578D01*
X28339709Y40137873D01*
X28309902Y40160198D01*
X28281381Y40184616D01*
X28254244Y40211185D01*
X28252520Y40191288D01*
X28250007Y40171382D01*
X28246777Y40151514D01*
X28242898Y40131729D01*
X28238441Y40112073D01*
X28233475Y40092593D01*
X28228069Y40073334D01*
X28222295Y40054342D01*
X27770645Y40054342D01*
X27777979Y40067641D01*
X27784741Y40082732D01*
X27790945Y40099498D01*
X27796604Y40117816D01*
X27801733Y40137569D01*
X27806344Y40158636D01*
X27810451Y40180897D01*
X27814068Y40204232D01*
X27819886Y40253647D01*
X27823907Y40305924D01*
X27826239Y40360102D01*
X27826993Y40415225D01*
X27826993Y40848576D01*
X28272833Y40848576D01*
X28272833Y40682003D01*
X28274049Y40637190D01*
X28276281Y40610337D01*
X28280225Y40581390D01*
X28286357Y40551003D01*
X28295149Y40519830D01*
X28300691Y40504153D01*
X28307075Y40488525D01*
X28314361Y40473026D01*
X28322608Y40457740D01*
X28331876Y40442747D01*
X28342223Y40428129D01*
X28353708Y40413969D01*
X28366392Y40400347D01*
X28380332Y40387345D01*
X28395589Y40375045D01*
X28412221Y40363529D01*
X28430288Y40352879D01*
X28449849Y40343175D01*
X28470962Y40334500D01*
X28493688Y40326936D01*
X28518085Y40320564D01*
X28544213Y40315465D01*
X28572130Y40311723D01*
X28601896Y40309417D01*
X28633571Y40308630D01*
X28660479Y40309163D01*
X28686850Y40310834D01*
X28712519Y40313754D01*
X28737320Y40318034D01*
X28749344Y40320718D01*
X28761089Y40323784D01*
X28772534Y40327245D01*
X28783659Y40331115D01*
X28794443Y40335408D01*
X28804865Y40340138D01*
X28814905Y40345319D01*
X28824541Y40350963D01*
X28833754Y40357086D01*
X28842523Y40363701D01*
X28850826Y40370822D01*
X28858644Y40378463D01*
X28865955Y40386637D01*
X28872738Y40395359D01*
X28878974Y40404641D01*
X28884642Y40414499D01*
X28889720Y40424946D01*
X28894188Y40435995D01*
X28898025Y40447661D01*
X28901211Y40459957D01*
X28903726Y40472897D01*
X28905547Y40486495D01*
X28906655Y40500765D01*
X28907029Y40515721D01*
X28906664Y40530683D01*
X28905583Y40545002D01*
X28903806Y40558693D01*
X28901355Y40571773D01*
X28898250Y40584256D01*
X28894512Y40596160D01*
X28890162Y40607499D01*
X28885220Y40618291D01*
X28879708Y40628550D01*
X28873645Y40638292D01*
X28867053Y40647535D01*
X28859953Y40656292D01*
X28852365Y40664582D01*
X28844310Y40672418D01*
X28835809Y40679817D01*
X28826883Y40686796D01*
X28817552Y40693369D01*
X28807837Y40699554D01*
X28787339Y40710819D01*
X28765555Y40720718D01*
X28742651Y40729379D01*
X28718792Y40736928D01*
X28694146Y40743493D01*
X28668879Y40749202D01*
X28643156Y40754180D01*
X28434468Y40786075D01*
X28410149Y40790903D01*
X28386712Y40796333D01*
X28364304Y40802492D01*
X28343072Y40809504D01*
X28323161Y40817493D01*
X28304720Y40826585D01*
X28296097Y40831583D01*
X28287895Y40836904D01*
X28280134Y40842563D01*
X28272833Y40848576D01*
X27826993Y40848576D01*
X27826993Y41259853D01*
X27828120Y41295406D01*
X27831444Y41329146D01*
X27836884Y41361118D01*
X27844354Y41391367D01*
X27853773Y41419938D01*
X27865056Y41446876D01*
X27878120Y41472225D01*
X27892882Y41496031D01*
X27909258Y41518339D01*
X27927165Y41539192D01*
X27946520Y41558636D01*
X27967240Y41576716D01*
X27989240Y41593477D01*
X28012438Y41608964D01*
X28036750Y41623221D01*
X28062093Y41636293D01*
X28115539Y41659064D01*
X28172107Y41677633D01*
X28231132Y41692362D01*
X28291946Y41703607D01*
X28353882Y41711729D01*
X28416273Y41717086D01*
X28478454Y41720037D01*
X28539756Y41720941D01*
X28608044Y41719395D01*
X28676029Y41714603D01*
X28743187Y41706336D01*
X28808993Y41694363D01*
X28841226Y41686915D01*
X28872924Y41678454D01*
X28904023Y41668952D01*
X28934456Y41658380D01*
X28964158Y41646709D01*
X28993064Y41633911D01*
X29021108Y41619956D01*
X29048224Y41604816D01*
X29074347Y41588462D01*
X29099412Y41570866D01*
X29123352Y41551998D01*
X29146103Y41531830D01*
X29167599Y41510333D01*
X29187774Y41487479D01*
X29206563Y41463238D01*
X29223900Y41437583D01*
X29239721Y41410483D01*
X29253958Y41381911D01*
X29266547Y41351838D01*
X29277423Y41320234D01*
X29286519Y41287072D01*
X29293770Y41252323D01*
X29299111Y41215957D01*
X29302476Y41177946D01*
X28856636Y41177946D01*
X28854899Y41194109D01*
X28852634Y41209657D01*
X28849844Y41224595D01*
X28846535Y41238930D01*
X28842711Y41252670D01*
X28838376Y41265821D01*
X28833535Y41278389D01*
X28828192Y41290381D01*
X28822353Y41301805D01*
X28816022Y41312667D01*
X28809203Y41322973D01*
X28801902Y41332731D01*
X28794122Y41341947D01*
X28785868Y41350627D01*
X28777145Y41358780D01*
X28767958Y41366411D01*
X28758311Y41373527D01*
X28748208Y41380135D01*
X28737655Y41386242D01*
X28726656Y41391854D01*
X28715215Y41396979D01*
X28703337Y41401622D01*
X28691027Y41405791D01*
X28678289Y41409493D01*
X28651548Y41415520D01*
X28623152Y41419759D01*
X28593137Y41422262D01*
X28561539Y41423085D01*
X28532474Y41422683D01*
X28504145Y41421356D01*
X28476708Y41418921D01*
X28450322Y41415195D01*
X28437572Y41412790D01*
X28425144Y41409994D01*
X28413056Y41406783D01*
X28401330Y41403135D01*
X28389984Y41399027D01*
X28379038Y41394435D01*
X28368511Y41389338D01*
X28358425Y41383711D01*
X28348797Y41377533D01*
X28339648Y41370780D01*
X28330997Y41363429D01*
X28322865Y41355458D01*
X28315270Y41346843D01*
X28308232Y41337562D01*
X28301771Y41327592D01*
X28295907Y41316910D01*
X28290660Y41305493D01*
X28286048Y41293318D01*
X28282092Y41280362D01*
X28278811Y41266603D01*
X28276225Y41252017D01*
X28274353Y41236581D01*
X28273216Y41220273D01*
X28272833Y41203070D01*
X28274277Y41171118D01*
X28281828Y41143268D01*
X28295084Y41119174D01*
X28313641Y41098489D01*
X28337097Y41080868D01*
X28365051Y41065962D01*
X28397100Y41053428D01*
X28432841Y41042917D01*
X28513792Y41026580D01*
X28604686Y41014182D01*
X28803429Y40990116D01*
X28904842Y40972905D01*
X28954650Y40961793D01*
X29003323Y40948548D01*
X29050459Y40932823D01*
X29095655Y40914272D01*
X29138510Y40892549D01*
X29178620Y40867308D01*
X29215583Y40838201D01*
X29248998Y40804883D01*
X29278462Y40767006D01*
X29303572Y40724226D01*
X29323927Y40676194D01*
X29339124Y40622566D01*
X29348760Y40562994D01*
X29351397Y40515721D01*
X29352433Y40497132D01*
G37*
G36*
X32134989Y41719636D02*
G01*
X32200008Y41715545D01*
X32264167Y41708365D01*
X32326929Y41697803D01*
X32357618Y41691161D01*
X32387757Y41683563D01*
X32417277Y41674971D01*
X32446113Y41665350D01*
X32474197Y41654662D01*
X32501461Y41642870D01*
X32527839Y41629938D01*
X32553264Y41615828D01*
X32577668Y41600504D01*
X32600984Y41583929D01*
X32623145Y41566065D01*
X32644083Y41546877D01*
X32663733Y41526328D01*
X32682026Y41504379D01*
X32698896Y41480996D01*
X32714275Y41456140D01*
X32728096Y41429774D01*
X32740292Y41401863D01*
X32750796Y41372370D01*
X32759541Y41341256D01*
X32766459Y41308486D01*
X32771484Y41274022D01*
X32774548Y41237829D01*
X32775585Y41199868D01*
X32774848Y41173406D01*
X32772667Y41148106D01*
X32769088Y41123935D01*
X32764156Y41100859D01*
X32757916Y41078845D01*
X32750414Y41057863D01*
X32741695Y41037877D01*
X32731804Y41018856D01*
X32720787Y41000767D01*
X32708689Y40983578D01*
X32695556Y40967255D01*
X32681433Y40951765D01*
X32666365Y40937077D01*
X32650398Y40923157D01*
X32633576Y40909973D01*
X32615946Y40897491D01*
X32578442Y40874506D01*
X32538247Y40853939D01*
X32495725Y40835529D01*
X32451239Y40819013D01*
X32405151Y40804131D01*
X32357825Y40790619D01*
X32260908Y40766662D01*
X32202988Y40754509D01*
X32148172Y40742566D01*
X32096545Y40730688D01*
X32048197Y40718729D01*
X32003214Y40706541D01*
X31961684Y40693979D01*
X31942241Y40687512D01*
X31923695Y40680897D01*
X31906055Y40674114D01*
X31889333Y40667147D01*
X31873539Y40659976D01*
X31858686Y40652584D01*
X31844783Y40644951D01*
X31831841Y40637061D01*
X31819873Y40628893D01*
X31808887Y40620431D01*
X31798896Y40611656D01*
X31789910Y40602549D01*
X31781941Y40593093D01*
X31774998Y40583269D01*
X31769094Y40573058D01*
X31764239Y40562443D01*
X31760443Y40551404D01*
X31757719Y40539925D01*
X31756076Y40527986D01*
X31755526Y40515569D01*
X31756007Y40501176D01*
X31757426Y40487398D01*
X31759743Y40474225D01*
X31762922Y40461646D01*
X31766924Y40449651D01*
X31771712Y40438229D01*
X31777247Y40427371D01*
X31783491Y40417066D01*
X31790406Y40407303D01*
X31797955Y40398072D01*
X31806100Y40389363D01*
X31814802Y40381165D01*
X31824023Y40373468D01*
X31833726Y40366262D01*
X31843872Y40359536D01*
X31854424Y40353280D01*
X31876593Y40342136D01*
X31899928Y40332747D01*
X31924127Y40325031D01*
X31948884Y40318903D01*
X31973896Y40314281D01*
X31998860Y40311083D01*
X32023472Y40309225D01*
X32047428Y40308624D01*
X32079704Y40309589D01*
X32111670Y40312511D01*
X32143082Y40317431D01*
X32158504Y40320653D01*
X32173696Y40324390D01*
X32188627Y40328646D01*
X32203267Y40333428D01*
X32217584Y40338740D01*
X32231550Y40344587D01*
X32245132Y40350975D01*
X32258300Y40357908D01*
X32271024Y40365391D01*
X32283273Y40373430D01*
X32295016Y40382030D01*
X32306224Y40391196D01*
X32316865Y40400933D01*
X32326909Y40411245D01*
X32336325Y40422139D01*
X32345083Y40433620D01*
X32353151Y40445691D01*
X32360501Y40458359D01*
X32367100Y40471629D01*
X32372918Y40485506D01*
X32377925Y40499994D01*
X32382091Y40515099D01*
X32385384Y40530826D01*
X32387774Y40547181D01*
X32389230Y40564167D01*
X32389723Y40581791D01*
X32813198Y40581791D01*
X32810699Y40542294D01*
X32806186Y40504464D01*
X32799723Y40468275D01*
X32791373Y40433699D01*
X32781201Y40400710D01*
X32769270Y40369281D01*
X32755643Y40339383D01*
X32740386Y40310990D01*
X32723561Y40284076D01*
X32705232Y40258612D01*
X32685464Y40234571D01*
X32664320Y40211927D01*
X32641864Y40190652D01*
X32618159Y40170719D01*
X32593270Y40152102D01*
X32567260Y40134772D01*
X32540193Y40118702D01*
X32512133Y40103866D01*
X32453290Y40077787D01*
X32391241Y40056315D01*
X32326495Y40039234D01*
X32259565Y40026327D01*
X32190960Y40017377D01*
X32121191Y40012166D01*
X32050768Y40010477D01*
X31981922Y40012131D01*
X31913483Y40017240D01*
X31846008Y40026024D01*
X31780053Y40038706D01*
X31747820Y40046577D01*
X31716176Y40055506D01*
X31685190Y40065519D01*
X31654932Y40076645D01*
X31625471Y40088912D01*
X31596878Y40102346D01*
X31569222Y40116976D01*
X31542572Y40132829D01*
X31516998Y40149933D01*
X31492570Y40168316D01*
X31469357Y40188004D01*
X31447429Y40209027D01*
X31426855Y40231411D01*
X31407705Y40255184D01*
X31390048Y40280374D01*
X31373955Y40307008D01*
X31359494Y40335115D01*
X31346736Y40364721D01*
X31335750Y40395854D01*
X31326605Y40428543D01*
X31319371Y40462815D01*
X31314117Y40498696D01*
X31310914Y40536216D01*
X31309831Y40575402D01*
X31310569Y40603038D01*
X31312752Y40629493D01*
X31316335Y40654799D01*
X31321272Y40678987D01*
X31327518Y40702088D01*
X31335027Y40724136D01*
X31343754Y40745160D01*
X31353653Y40765192D01*
X31364678Y40784265D01*
X31376785Y40802410D01*
X31389927Y40819658D01*
X31404060Y40836040D01*
X31419136Y40851590D01*
X31435112Y40866337D01*
X31451941Y40880314D01*
X31469579Y40893553D01*
X31507095Y40917940D01*
X31547297Y40939751D01*
X31589820Y40959239D01*
X31634300Y40976658D01*
X31680373Y40992258D01*
X31727675Y41006294D01*
X31775841Y41019017D01*
X31824508Y41030681D01*
X31871566Y41041425D01*
X31918327Y41051553D01*
X32009449Y41070988D01*
X32053054Y41080805D01*
X32094850Y41091031D01*
X32134459Y41101921D01*
X32171504Y41113731D01*
X32188947Y41120062D01*
X32205607Y41126718D01*
X32221436Y41133732D01*
X32236389Y41141136D01*
X32250416Y41148961D01*
X32263472Y41157241D01*
X32275509Y41166007D01*
X32286479Y41175291D01*
X32296336Y41185125D01*
X32305031Y41195540D01*
X32312519Y41206570D01*
X32318751Y41218245D01*
X32323680Y41230598D01*
X32327260Y41243661D01*
X32329442Y41257466D01*
X32330180Y41272045D01*
X32329754Y41284361D01*
X32328497Y41295998D01*
X32326447Y41306975D01*
X32323638Y41317311D01*
X32320106Y41327025D01*
X32315888Y41336135D01*
X32311018Y41344661D01*
X32305533Y41352622D01*
X32299468Y41360035D01*
X32292858Y41366921D01*
X32285740Y41373298D01*
X32278150Y41379185D01*
X32270122Y41384600D01*
X32261692Y41389564D01*
X32252897Y41394093D01*
X32243772Y41398209D01*
X32224673Y41405271D01*
X32204683Y41410901D01*
X32184086Y41415251D01*
X32163167Y41418472D01*
X32142213Y41420714D01*
X32121509Y41422128D01*
X32101340Y41422866D01*
X32081991Y41423078D01*
X32052338Y41422504D01*
X32023481Y41420706D01*
X31995553Y41417571D01*
X31968687Y41412983D01*
X31955693Y41410108D01*
X31943014Y41406828D01*
X31930666Y41403127D01*
X31918667Y41398993D01*
X31907033Y41394409D01*
X31895780Y41389362D01*
X31884924Y41383838D01*
X31874483Y41377822D01*
X31864473Y41371301D01*
X31854911Y41364259D01*
X31845813Y41356683D01*
X31837195Y41348558D01*
X31829075Y41339870D01*
X31821469Y41330605D01*
X31814393Y41320749D01*
X31807864Y41310286D01*
X31801898Y41299203D01*
X31796513Y41287486D01*
X31791724Y41275121D01*
X31787548Y41262092D01*
X31784003Y41248386D01*
X31781103Y41233989D01*
X31778867Y41218886D01*
X31777310Y41203062D01*
X31353689Y41203062D01*
X31357798Y41239634D01*
X31363584Y41274597D01*
X31370996Y41307979D01*
X31379986Y41339810D01*
X31390502Y41370121D01*
X31402497Y41398939D01*
X31415918Y41426295D01*
X31430717Y41452218D01*
X31446845Y41476738D01*
X31464250Y41499883D01*
X31482883Y41521684D01*
X31502695Y41542169D01*
X31523635Y41561368D01*
X31545654Y41579311D01*
X31568702Y41596026D01*
X31592729Y41611544D01*
X31617685Y41625893D01*
X31643521Y41639104D01*
X31697631Y41662225D01*
X31754660Y41681145D01*
X31814211Y41696096D01*
X31875883Y41707316D01*
X31939279Y41715039D01*
X32004000Y41719500D01*
X32069647Y41720934D01*
X32134989Y41719636D01*
G37*
G36*
X24406213Y44928185D02*
G01*
X24436870Y44924814D01*
X24468024Y44919357D01*
X24499616Y44911660D01*
X24531587Y44901572D01*
X24563878Y44888939D01*
X24596431Y44873608D01*
X24629184Y44855427D01*
X24662081Y44834243D01*
X24690247Y44813814D01*
X24716091Y44792949D01*
X24739652Y44771669D01*
X24760968Y44749995D01*
X24780078Y44727949D01*
X24797020Y44705552D01*
X24811833Y44682824D01*
X24824555Y44659787D01*
X24835226Y44636462D01*
X24843883Y44612871D01*
X24850565Y44589033D01*
X24855311Y44564971D01*
X24858159Y44540705D01*
X24859148Y44516256D01*
X24858316Y44491647D01*
X24855702Y44466897D01*
X24851344Y44442028D01*
X24845282Y44417061D01*
X24837553Y44392017D01*
X24828196Y44366917D01*
X24817250Y44341783D01*
X24804753Y44316635D01*
X24790744Y44291494D01*
X24775261Y44266382D01*
X24758343Y44241320D01*
X24740029Y44216329D01*
X24720356Y44191430D01*
X24699365Y44166644D01*
X24653577Y44117496D01*
X24602975Y44069054D01*
X24580423Y44047270D01*
X24560481Y44025412D01*
X24543073Y44003539D01*
X24528127Y43981706D01*
X24515567Y43959970D01*
X24505320Y43938387D01*
X24497311Y43917015D01*
X24491467Y43895910D01*
X24487713Y43875128D01*
X24485976Y43854725D01*
X24486182Y43834760D01*
X24488255Y43815287D01*
X24492123Y43796364D01*
X24497711Y43778048D01*
X24504946Y43760394D01*
X24513752Y43743460D01*
X24524057Y43727302D01*
X24535785Y43711976D01*
X24548864Y43697540D01*
X24563218Y43684049D01*
X24578774Y43671561D01*
X24595458Y43660132D01*
X24613196Y43649819D01*
X24631913Y43640677D01*
X24651536Y43632764D01*
X24671990Y43626137D01*
X24693202Y43620852D01*
X24715097Y43616965D01*
X24737602Y43614533D01*
X24760642Y43613613D01*
X24784143Y43614261D01*
X24808032Y43616534D01*
X24824201Y43618960D01*
X24839759Y43622050D01*
X24854704Y43625773D01*
X24869034Y43630096D01*
X24882749Y43634990D01*
X24895845Y43640420D01*
X24908321Y43646357D01*
X24920175Y43652767D01*
X24931406Y43659621D01*
X24942011Y43666885D01*
X24951990Y43674528D01*
X24961339Y43682518D01*
X24970058Y43690824D01*
X24978144Y43699414D01*
X24985597Y43708257D01*
X24992413Y43717320D01*
X24998591Y43726572D01*
X25004130Y43735981D01*
X25009028Y43745516D01*
X25013282Y43755144D01*
X25016892Y43764835D01*
X25019855Y43774556D01*
X25022169Y43784275D01*
X25023834Y43793962D01*
X25024846Y43803584D01*
X25025204Y43813110D01*
X25024907Y43822507D01*
X25023952Y43831745D01*
X25022339Y43840792D01*
X25020064Y43849615D01*
X25017127Y43858183D01*
X25013525Y43866465D01*
X25009838Y43873324D01*
X25005667Y43880013D01*
X25001051Y43886528D01*
X24996029Y43892865D01*
X24990640Y43899023D01*
X24984925Y43904998D01*
X24972671Y43916386D01*
X24959584Y43927005D01*
X24945978Y43936830D01*
X24932170Y43945837D01*
X24918475Y43954000D01*
X24905209Y43961295D01*
X24892687Y43967697D01*
X24871141Y43977726D01*
X24850873Y43985985D01*
X24857434Y43988393D01*
X24865373Y43991002D01*
X24876185Y43994193D01*
X24889695Y43997697D01*
X24905730Y44001248D01*
X24924113Y44004580D01*
X24944670Y44007424D01*
X24967227Y44009514D01*
X24979201Y44010194D01*
X24991609Y44010584D01*
X25004430Y44010653D01*
X25017642Y44010366D01*
X25031222Y44009690D01*
X25045150Y44008593D01*
X25059403Y44007040D01*
X25073959Y44004998D01*
X25088797Y44002434D01*
X25103895Y43999314D01*
X25119230Y43995605D01*
X25134782Y43991274D01*
X25150528Y43986288D01*
X25166446Y43980612D01*
X25194808Y43968962D01*
X25222386Y43955515D01*
X25235830Y43948062D01*
X25249018Y43940093D01*
X25261929Y43931585D01*
X25274543Y43922518D01*
X25286841Y43912868D01*
X25298801Y43902613D01*
X25310404Y43891732D01*
X25321630Y43880201D01*
X25332458Y43867999D01*
X25342868Y43855104D01*
X25352840Y43841494D01*
X25362354Y43827146D01*
X25371390Y43812038D01*
X25379928Y43796148D01*
X25387947Y43779453D01*
X25395428Y43761932D01*
X25402349Y43743563D01*
X25408692Y43724323D01*
X25414435Y43704190D01*
X25419559Y43683142D01*
X25424044Y43661156D01*
X25427869Y43638211D01*
X25431014Y43614285D01*
X25433460Y43589355D01*
X25435185Y43563398D01*
X25436170Y43536394D01*
X25436394Y43508319D01*
X25435838Y43479151D01*
X25435838Y42008315D01*
X25408178Y42041961D01*
X25375904Y42080640D01*
X25333382Y42130884D01*
X25282147Y42190441D01*
X25223733Y42257058D01*
X25159676Y42328480D01*
X25091511Y42402455D01*
X24952632Y42555245D01*
X24922007Y42588144D01*
X24892340Y42618639D01*
X24863290Y42646588D01*
X24834517Y42671847D01*
X24805681Y42694274D01*
X24776442Y42713726D01*
X24761565Y42722293D01*
X24746460Y42730062D01*
X24731083Y42737017D01*
X24715394Y42743138D01*
X24699348Y42748410D01*
X24682905Y42752813D01*
X24666020Y42756329D01*
X24648652Y42758942D01*
X24630757Y42760633D01*
X24612295Y42761385D01*
X24593221Y42761179D01*
X24573494Y42759998D01*
X24498860Y42757668D01*
X24426826Y42760006D01*
X24357367Y42766871D01*
X24290455Y42778119D01*
X24226063Y42793611D01*
X24164166Y42813203D01*
X24104735Y42836755D01*
X24047744Y42864124D01*
X23993166Y42895170D01*
X23940974Y42929749D01*
X23891143Y42967722D01*
X23843644Y43008945D01*
X23798451Y43053278D01*
X23755537Y43100578D01*
X23714876Y43150704D01*
X23676440Y43203515D01*
X23642568Y43255763D01*
X23612558Y43308283D01*
X23586278Y43360963D01*
X23563595Y43413694D01*
X23544376Y43466364D01*
X23528490Y43518864D01*
X23515803Y43571083D01*
X23506182Y43622910D01*
X23499496Y43674236D01*
X23495610Y43724950D01*
X23494394Y43774941D01*
X23495714Y43824100D01*
X23499437Y43872316D01*
X23505431Y43919478D01*
X23523700Y44010202D01*
X23549461Y44095387D01*
X23581653Y44174152D01*
X23619214Y44245613D01*
X23661083Y44308888D01*
X23706199Y44363094D01*
X23753501Y44407348D01*
X23777641Y44425467D01*
X23801929Y44440766D01*
X23826233Y44453137D01*
X23850420Y44462468D01*
X23848905Y44454901D01*
X23847484Y44446158D01*
X23846038Y44434746D01*
X23844883Y44421140D01*
X23844331Y44405819D01*
X23844699Y44389259D01*
X23846299Y44371938D01*
X23847660Y44363141D01*
X23849446Y44354333D01*
X23851698Y44345573D01*
X23854455Y44336921D01*
X23857755Y44328436D01*
X23861638Y44320179D01*
X23866144Y44312208D01*
X23871312Y44304584D01*
X23877180Y44297365D01*
X23883789Y44290613D01*
X23891177Y44284386D01*
X23899384Y44278744D01*
X23908449Y44273747D01*
X23918411Y44269454D01*
X23929310Y44265925D01*
X23941185Y44263219D01*
X23949964Y44261993D01*
X23959051Y44261377D01*
X23968422Y44261352D01*
X23978051Y44261899D01*
X23987916Y44262997D01*
X23997993Y44264627D01*
X24018687Y44269403D01*
X24039942Y44276068D01*
X24061566Y44284466D01*
X24083370Y44294437D01*
X24105162Y44305825D01*
X24126751Y44318469D01*
X24147947Y44332214D01*
X24168559Y44346900D01*
X24188396Y44362369D01*
X24207267Y44378464D01*
X24224982Y44395027D01*
X24241349Y44411898D01*
X24256178Y44428921D01*
X24272237Y44449692D01*
X24279375Y44459873D01*
X24285930Y44469922D01*
X24291909Y44479840D01*
X24297320Y44489631D01*
X24302173Y44499297D01*
X24306473Y44508840D01*
X24310230Y44518263D01*
X24313452Y44527569D01*
X24316146Y44536759D01*
X24318320Y44545838D01*
X24319983Y44554807D01*
X24321142Y44563668D01*
X24321806Y44572425D01*
X24321983Y44581080D01*
X24321680Y44589635D01*
X24320905Y44598093D01*
X24319667Y44606457D01*
X24317973Y44614729D01*
X24315832Y44622912D01*
X24313252Y44631007D01*
X24310240Y44639019D01*
X24306804Y44646949D01*
X24298695Y44662573D01*
X24288988Y44677902D01*
X24277747Y44692955D01*
X24265036Y44707753D01*
X24254732Y44718426D01*
X24244028Y44728172D01*
X24232971Y44737028D01*
X24221610Y44745034D01*
X24209992Y44752227D01*
X24198165Y44758647D01*
X24186176Y44764332D01*
X24174073Y44769321D01*
X24161905Y44773652D01*
X24149717Y44777365D01*
X24125478Y44783087D01*
X24101737Y44786798D01*
X24078876Y44788806D01*
X24057276Y44789420D01*
X24037318Y44788949D01*
X24019384Y44787703D01*
X24003856Y44785990D01*
X23981541Y44782401D01*
X23973425Y44780655D01*
X23988601Y44792905D01*
X24006861Y44806383D01*
X24031605Y44823134D01*
X24062361Y44841933D01*
X24098654Y44861558D01*
X24118729Y44871298D01*
X24140012Y44880787D01*
X24162442Y44889870D01*
X24185961Y44898396D01*
X24210510Y44906212D01*
X24236029Y44913164D01*
X24262460Y44919099D01*
X24289743Y44923866D01*
X24317818Y44927311D01*
X24346628Y44929281D01*
X24376113Y44929623D01*
X24406213Y44928185D01*
G37*
%TD*%
M02*
