%TF.GenerationSoftware,KiCad,Pcbnew,8.0.6*%
%TF.CreationDate,2024-11-21T20:47:18-07:00*%
%TF.ProjectId,SparkFun_Serial_MP3_Player_Shield_MY1690X,53706172-6b46-4756-9e5f-53657269616c,rev?*%
%TF.SameCoordinates,Original*%
%TF.FileFunction,Copper,L1,Top*%
%TF.FilePolarity,Positive*%
%FSLAX46Y46*%
G04 Gerber Fmt 4.6, Leading zero omitted, Abs format (unit mm)*
G04 Created by KiCad (PCBNEW 8.0.6) date 2024-11-21 20:47:18*
%MOMM*%
%LPD*%
G01*
G04 APERTURE LIST*
G04 Aperture macros list*
%AMRoundRect*
0 Rectangle with rounded corners*
0 $1 Rounding radius*
0 $2 $3 $4 $5 $6 $7 $8 $9 X,Y pos of 4 corners*
0 Add a 4 corners polygon primitive as box body*
4,1,4,$2,$3,$4,$5,$6,$7,$8,$9,$2,$3,0*
0 Add four circle primitives for the rounded corners*
1,1,$1+$1,$2,$3*
1,1,$1+$1,$4,$5*
1,1,$1+$1,$6,$7*
1,1,$1+$1,$8,$9*
0 Add four rect primitives between the rounded corners*
20,1,$1+$1,$2,$3,$4,$5,0*
20,1,$1+$1,$4,$5,$6,$7,0*
20,1,$1+$1,$6,$7,$8,$9,0*
20,1,$1+$1,$8,$9,$2,$3,0*%
G04 Aperture macros list end*
%TA.AperFunction,SMDPad,CuDef*%
%ADD10R,0.762000X1.524000*%
%TD*%
%TA.AperFunction,SMDPad,CuDef*%
%ADD11C,0.500000*%
%TD*%
%TA.AperFunction,ComponentPad*%
%ADD12C,1.879600*%
%TD*%
%TA.AperFunction,SMDPad,CuDef*%
%ADD13RoundRect,0.225000X0.225000X0.250000X-0.225000X0.250000X-0.225000X-0.250000X0.225000X-0.250000X0*%
%TD*%
%TA.AperFunction,SMDPad,CuDef*%
%ADD14RoundRect,0.200000X-0.200000X-0.275000X0.200000X-0.275000X0.200000X0.275000X-0.200000X0.275000X0*%
%TD*%
%TA.AperFunction,SMDPad,CuDef*%
%ADD15R,0.600000X1.200000*%
%TD*%
%TA.AperFunction,SMDPad,CuDef*%
%ADD16R,2.500000X1.200000*%
%TD*%
%TA.AperFunction,SMDPad,CuDef*%
%ADD17RoundRect,0.200000X0.200000X0.275000X-0.200000X0.275000X-0.200000X-0.275000X0.200000X-0.275000X0*%
%TD*%
%TA.AperFunction,SMDPad,CuDef*%
%ADD18R,0.800000X0.900000*%
%TD*%
%TA.AperFunction,SMDPad,CuDef*%
%ADD19R,0.700000X1.600000*%
%TD*%
%TA.AperFunction,SMDPad,CuDef*%
%ADD20R,1.200000X1.600000*%
%TD*%
%TA.AperFunction,SMDPad,CuDef*%
%ADD21R,1.200000X2.200000*%
%TD*%
%TA.AperFunction,SMDPad,CuDef*%
%ADD22R,1.600000X1.400000*%
%TD*%
%TA.AperFunction,SMDPad,CuDef*%
%ADD23RoundRect,0.218750X-0.218750X-0.256250X0.218750X-0.256250X0.218750X0.256250X-0.218750X0.256250X0*%
%TD*%
%TA.AperFunction,SMDPad,CuDef*%
%ADD24R,0.600000X1.000000*%
%TD*%
%TA.AperFunction,ComponentPad*%
%ADD25O,1.000000X1.600000*%
%TD*%
%TA.AperFunction,ComponentPad*%
%ADD26O,1.000000X2.100000*%
%TD*%
%TA.AperFunction,SMDPad,CuDef*%
%ADD27R,0.300000X1.000000*%
%TD*%
%TA.AperFunction,SMDPad,CuDef*%
%ADD28RoundRect,0.225000X-0.225000X-0.250000X0.225000X-0.250000X0.225000X0.250000X-0.225000X0.250000X0*%
%TD*%
%TA.AperFunction,ViaPad*%
%ADD29C,0.560000*%
%TD*%
%TA.AperFunction,Conductor*%
%ADD30C,0.348996*%
%TD*%
%TA.AperFunction,Conductor*%
%ADD31C,0.558800*%
%TD*%
%TA.AperFunction,Conductor*%
%ADD32C,0.177800*%
%TD*%
%TA.AperFunction,Conductor*%
%ADD33C,0.406400*%
%TD*%
%TA.AperFunction,Conductor*%
%ADD34C,0.152400*%
%TD*%
G04 APERTURE END LIST*
D10*
%TO.P,SW1,1,1*%
%TO.N,GND*%
X51435000Y15811500D03*
X51435000Y10223500D03*
%TO.P,SW1,2,2*%
%TO.N,Net-(B1-Pad~{RESET})*%
X47625000Y15811500D03*
X47625000Y10223500D03*
%TD*%
D11*
%TO.P,FID3,*%
%TO.N,*%
X2540000Y1905000D03*
%TD*%
D12*
%TO.P,J3,1,Pin_1*%
%TO.N,DAC_L*%
X18415000Y13970000D03*
%TO.P,J3,2,Pin_2*%
%TO.N,DAC_R*%
X20955000Y13970000D03*
%TO.P,J3,3,Pin_3*%
%TO.N,GND*%
X23495000Y13970000D03*
%TD*%
%TO.P,B1,3.3V,3.3V*%
%TO.N,unconnected-(B1-Pad3.3V)*%
X50800000Y26670000D03*
%TO.P,B1,5V,5V*%
%TO.N,5V*%
X50800000Y29210000D03*
%TO.P,B1,A0,A0*%
%TO.N,unconnected-(B1-PadA0)*%
X50800000Y41910000D03*
%TO.P,B1,A1,A1*%
%TO.N,unconnected-(B1-PadA1)*%
X50800000Y44450000D03*
%TO.P,B1,A2,A2*%
%TO.N,unconnected-(B1-PadA2)*%
X50800000Y46990000D03*
%TO.P,B1,A3,A3*%
%TO.N,unconnected-(B1-PadA3)*%
X50800000Y49530000D03*
%TO.P,B1,A4/SDA,A4/SDA*%
%TO.N,unconnected-(B1-PadA4{slash}SDA)*%
X2540000Y12700000D03*
X50800000Y52070000D03*
%TO.P,B1,A5/SCL,A5/SCL*%
%TO.N,unconnected-(B1-PadA5{slash}SCL)*%
X2540000Y10160000D03*
X50800000Y54610000D03*
%TO.P,B1,AREF,AREF*%
%TO.N,unconnected-(B1-PadAREF)*%
X2540000Y15240000D03*
%TO.P,B1,D0/TXO,D0/TXO*%
%TO.N,unconnected-(B1-PadD0{slash}TXO)*%
X2540000Y54610000D03*
%TO.P,B1,D1/RXI,D1/RXI*%
%TO.N,unconnected-(B1-PadD1{slash}RXI)*%
X2540000Y52070000D03*
%TO.P,B1,D2,D2*%
%TO.N,MY_TX*%
X2540000Y49530000D03*
%TO.P,B1,D3,\u002AD3*%
%TO.N,MY_RX*%
X2540000Y46990000D03*
%TO.P,B1,D4,D4*%
%TO.N,BUSY*%
X2540000Y44450000D03*
%TO.P,B1,D5,\u002AD5*%
%TO.N,unconnected-(B1-\u002AD5-PadD5)*%
X2540000Y41910000D03*
%TO.P,B1,D6,\u002AD6*%
%TO.N,unconnected-(B1-\u002AD6-PadD6)*%
X2540000Y39370000D03*
%TO.P,B1,D7,D7*%
%TO.N,unconnected-(B1-PadD7)*%
X2540000Y36830000D03*
%TO.P,B1,D8,D8*%
%TO.N,unconnected-(B1-PadD8)*%
X2540000Y33020000D03*
%TO.P,B1,D9,\u002AD9*%
%TO.N,unconnected-(B1-\u002AD9-PadD9)*%
X2540000Y30480000D03*
%TO.P,B1,D10,\u002AD10*%
%TO.N,unconnected-(B1-\u002AD10-PadD10)*%
X2540000Y27940000D03*
%TO.P,B1,D11,\u002AD11/PICO*%
%TO.N,unconnected-(B1-\u002AD11{slash}PICO-PadD11)*%
X2540000Y25400000D03*
%TO.P,B1,D12,D12/POCI*%
%TO.N,unconnected-(B1-D12{slash}POCI-PadD12)*%
X2540000Y22860000D03*
%TO.P,B1,D13,D13/SCK*%
%TO.N,unconnected-(B1-D13{slash}SCK-PadD13)*%
X2540000Y20320000D03*
%TO.P,B1,GND,GND*%
%TO.N,GND*%
X2540000Y17780000D03*
X50800000Y34290000D03*
X50800000Y31750000D03*
%TO.P,B1,IOREF,IOREF*%
%TO.N,unconnected-(B1-PadIOREF)*%
X50800000Y21590000D03*
%TO.P,B1,NC,NC*%
%TO.N,unconnected-(B1-PadNC)*%
X50800000Y19050000D03*
%TO.P,B1,VIN,VIN*%
%TO.N,unconnected-(B1-PadVIN)*%
X50800000Y36830000D03*
%TO.P,B1,~{RESET},~{RESET}*%
%TO.N,Net-(B1-Pad~{RESET})*%
X50800000Y24130000D03*
%TD*%
D13*
%TO.P,C8,1*%
%TO.N,3.3V_P*%
X27445000Y22860000D03*
%TO.P,C8,2*%
%TO.N,GND*%
X25895000Y22860000D03*
%TD*%
D14*
%TO.P,R1,1*%
%TO.N,3.3V_P*%
X17272500Y25082500D03*
%TO.P,R1,2*%
%TO.N,MY_RX_LV*%
X18922500Y25082500D03*
%TD*%
D15*
%TO.P,U2,1,DACR*%
%TO.N,DAC_R*%
X22225000Y25140000D03*
%TO.P,U2,2,BUSY*%
%TO.N,BUSY*%
X23495000Y25140000D03*
%TO.P,U2,3,GND*%
%TO.N,GND*%
X24765000Y25140000D03*
%TO.P,U2,4,VCC*%
%TO.N,5V*%
X26035000Y25140000D03*
%TO.P,U2,5,3V3_Reg*%
%TO.N,3.3V_P*%
X27305000Y25140000D03*
%TO.P,U2,6,SDCLK*%
%TO.N,SD_CLK*%
X28575000Y25140000D03*
%TO.P,U2,7,SDCMD*%
%TO.N,SD_CMD*%
X29845000Y25140000D03*
%TO.P,U2,8,SDDAT*%
%TO.N,SD_DAT*%
X31115000Y25140000D03*
%TO.P,U2,9,VCOM*%
%TO.N,Net-(U2-VCOM)*%
X31115000Y30740000D03*
%TO.P,U2,10,DM*%
%TO.N,Net-(U2-DM)*%
X29845000Y30740000D03*
%TO.P,U2,11,DP*%
%TO.N,Net-(U2-DP)*%
X28575000Y30740000D03*
%TO.P,U2,12,RX*%
%TO.N,MY_RX_LV*%
X27305000Y30740000D03*
%TO.P,U2,13,TX*%
%TO.N,MY_TX*%
X26035000Y30740000D03*
%TO.P,U2,14,GND*%
%TO.N,GND*%
X24765000Y30740000D03*
%TO.P,U2,15,VPN*%
%TO.N,Net-(U2-VPN)*%
X23495000Y30740000D03*
%TO.P,U2,16,DACL*%
%TO.N,DAC_L*%
X22225000Y30740000D03*
%TD*%
D13*
%TO.P,C7,1*%
%TO.N,Net-(U2-VCOM)*%
X31255000Y33020000D03*
%TO.P,C7,2*%
%TO.N,GND*%
X29705000Y33020000D03*
%TD*%
D11*
%TO.P,FID4,*%
%TO.N,*%
X47942500Y58102500D03*
%TD*%
D16*
%TO.P,J1,R1*%
%TO.N,DAC_R*%
X17705000Y6180000D03*
%TO.P,J1,R2*%
%TO.N,GND*%
X17705000Y3180000D03*
%TO.P,J1,S*%
X24205000Y11280000D03*
%TO.P,J1,T*%
%TO.N,DAC_L*%
X17705000Y10180000D03*
%TD*%
D17*
%TO.P,R2,1*%
%TO.N,GND*%
X14477500Y9525000D03*
%TO.P,R2,2*%
%TO.N,Net-(J4-CC2)*%
X12827500Y9525000D03*
%TD*%
D14*
%TO.P,R6,1*%
%TO.N,SD_CLK*%
X29655000Y22860000D03*
%TO.P,R6,2*%
%TO.N,GND*%
X31305000Y22860000D03*
%TD*%
%TO.P,R9,1*%
%TO.N,Net-(JP2-A)*%
X41720000Y27940000D03*
%TO.P,R9,2*%
%TO.N,Net-(D4-A)*%
X43370000Y27940000D03*
%TD*%
D18*
%TO.P,Q1,1,G*%
%TO.N,3.3V_P*%
X17147500Y26940000D03*
%TO.P,Q1,2,S*%
%TO.N,MY_RX_LV*%
X19047500Y26940000D03*
%TO.P,Q1,3,D*%
%TO.N,MY_RX*%
X18097500Y29040000D03*
%TD*%
D19*
%TO.P,J6,1,DAT2*%
%TO.N,unconnected-(J6-DAT2-Pad1)*%
X37175000Y14627500D03*
%TO.P,J6,2,DAT3/CD*%
%TO.N,unconnected-(J6-DAT3{slash}CD-Pad2)*%
X36075000Y14627500D03*
%TO.P,J6,3,CMD/SDI*%
%TO.N,SD_CMD*%
X34975000Y14627500D03*
%TO.P,J6,4,VDD*%
%TO.N,3.3V_P*%
X33875000Y14627500D03*
%TO.P,J6,5,CLK/SCK*%
%TO.N,SD_CLK*%
X32775000Y14627500D03*
%TO.P,J6,6,VSS*%
%TO.N,GND*%
X31675000Y14627500D03*
%TO.P,J6,7,DAT0/SDO*%
%TO.N,SD_DAT*%
X30575000Y14627500D03*
%TO.P,J6,8,DAT1*%
%TO.N,unconnected-(J6-DAT1-Pad8)*%
X29475000Y14627500D03*
%TO.P,J6,9,~{DET}*%
%TO.N,unconnected-(J6-~{DET}-Pad9)*%
X28375000Y14627500D03*
D20*
%TO.P,J6,10,SHIELD*%
%TO.N,GND*%
X27175000Y14027500D03*
D21*
%TO.P,J6,11*%
%TO.N,N/C*%
X27175000Y4527500D03*
%TO.P,J6,12*%
X42675000Y4527500D03*
D22*
%TO.P,J6,13*%
X41775000Y14127500D03*
%TD*%
D17*
%TO.P,R4,1*%
%TO.N,5V*%
X18922500Y30797500D03*
%TO.P,R4,2*%
%TO.N,MY_RX*%
X17272500Y30797500D03*
%TD*%
D13*
%TO.P,C1,1*%
%TO.N,Net-(U2-VPN)*%
X23635000Y33020000D03*
%TO.P,C1,2*%
%TO.N,GND*%
X22085000Y33020000D03*
%TD*%
D23*
%TO.P,D4,1,K*%
%TO.N,GND*%
X41757500Y29845000D03*
%TO.P,D4,2,A*%
%TO.N,Net-(D4-A)*%
X43332500Y29845000D03*
%TD*%
D17*
%TO.P,R3,1*%
%TO.N,Net-(J4-CC1)*%
X8762500Y9525000D03*
%TO.P,R3,2*%
%TO.N,GND*%
X7112500Y9525000D03*
%TD*%
D24*
%TO.P,J4,VBUS,VBUS*%
%TO.N,unconnected-(J4-PadVBUS)*%
X13245000Y6010000D03*
X8345000Y6010000D03*
D25*
%TO.P,J4,S,SHIELD*%
%TO.N,GND*%
X15113000Y1255000D03*
D26*
%TO.P,J4,NC3,NC*%
%TO.N,unconnected-(J4-NC-PadNC3)*%
X15113000Y5435000D03*
%TO.P,J4,NC2,NC*%
%TO.N,unconnected-(J4-NC-PadNC2)*%
X6477000Y5435000D03*
D25*
%TO.P,J4,NC1,NC*%
%TO.N,unconnected-(J4-NC-PadNC1)*%
X6477000Y1255000D03*
D24*
%TO.P,J4,GND,GND*%
%TO.N,GND*%
X14020000Y6010000D03*
X7570000Y6010000D03*
D27*
%TO.P,J4,B8,NC*%
%TO.N,unconnected-(J4-NC-PadB8)*%
X9045000Y6010000D03*
%TO.P,J4,B7,D-*%
%TO.N,Net-(U2-DM)*%
X10045000Y6010000D03*
%TO.P,J4,B6,D+*%
%TO.N,Net-(U2-DP)*%
X11545000Y6010000D03*
%TO.P,J4,B5,CC2*%
%TO.N,Net-(J4-CC2)*%
X12545000Y6010000D03*
%TO.P,J4,A8,NC*%
%TO.N,unconnected-(J4-NC-PadA8)*%
X12045000Y6010000D03*
%TO.P,J4,A7,D-*%
%TO.N,Net-(U2-DM)*%
X11045000Y6010000D03*
%TO.P,J4,A6,D+*%
%TO.N,Net-(U2-DP)*%
X10545000Y6010000D03*
%TO.P,J4,A5,CC1*%
%TO.N,Net-(J4-CC1)*%
X9545000Y6010000D03*
%TD*%
D28*
%TO.P,C3,1*%
%TO.N,3.3V_P*%
X34150000Y20002500D03*
%TO.P,C3,2*%
%TO.N,GND*%
X35700000Y20002500D03*
%TD*%
%TO.P,C2,1*%
%TO.N,3.3V_P*%
X34150000Y17462500D03*
%TO.P,C2,2*%
%TO.N,GND*%
X35700000Y17462500D03*
%TD*%
D29*
%TO.N,GND*%
X7620000Y7302500D03*
X27305000Y16510000D03*
X6985000Y11112500D03*
X19685000Y3175000D03*
X24447500Y22860000D03*
X28257500Y33020000D03*
X51435000Y13017500D03*
X37147500Y17462500D03*
X40322500Y29845000D03*
X14922500Y11112500D03*
X32702500Y22860000D03*
X24765000Y32067500D03*
X13970000Y7302500D03*
X24765000Y26987500D03*
X20637500Y33020000D03*
X37147500Y20002500D03*
X31750000Y16510000D03*
X31750000Y13017500D03*
%TO.N,3.3V_P*%
X19050000Y23336250D03*
X27622500Y21113750D03*
%TO.N,unconnected-(B1-PadA5{slash}SCL)*%
X5715000Y42862500D03*
%TO.N,unconnected-(B1-PadA4{slash}SDA)*%
X5715000Y41910000D03*
%TO.N,BUSY*%
X23495000Y23495000D03*
%TO.N,5V*%
X26035000Y29368750D03*
X26035000Y26987500D03*
%TO.N,DAC_L*%
X20637500Y30638750D03*
%TO.N,Net-(U2-DM)*%
X10001250Y7143750D03*
X11066300Y7143750D03*
%TO.N,SD_CLK*%
X32702500Y19685000D03*
X28575000Y21907500D03*
%TO.N,SD_DAT*%
X30638750Y26828750D03*
X30638750Y20320000D03*
%TO.N,Net-(JP2-A)*%
X41751250Y26352500D03*
%TD*%
D30*
%TO.N,GND*%
X7570000Y7252500D02*
X7620000Y7302500D01*
X14020000Y7252500D02*
X13970000Y7302500D01*
X7570000Y6010000D02*
X7570000Y7252500D01*
X14020000Y6010000D02*
X14020000Y7252500D01*
D31*
%TO.N,3.3V_P*%
X17780000Y23336250D02*
X19050000Y23336250D01*
X27305000Y25140000D02*
X27305000Y23812500D01*
X34150000Y20002500D02*
X34150000Y17462500D01*
X27622500Y21113750D02*
X27445000Y21291250D01*
X17272500Y25082500D02*
X17272500Y23843750D01*
X17147500Y26940000D02*
X17147500Y25207500D01*
X17272500Y23843750D02*
X17780000Y23336250D01*
X27305000Y23812500D02*
X27445000Y23672500D01*
X27445000Y21291250D02*
X27445000Y22860000D01*
X33875000Y14627500D02*
X33875000Y17187500D01*
X17147500Y25207500D02*
X17272500Y25082500D01*
X33038750Y21113750D02*
X34150000Y20002500D01*
X27622500Y21113750D02*
X33038750Y21113750D01*
X33875000Y17187500D02*
X34150000Y17462500D01*
X27445000Y23672500D02*
X27445000Y22860000D01*
D32*
%TO.N,unconnected-(B1-PadA5{slash}SCL)*%
X2540000Y10160000D02*
X6236300Y13856300D01*
X6236300Y42341200D02*
X5715000Y42862500D01*
X6236300Y13856300D02*
X6236300Y42341200D01*
%TO.N,MY_RX*%
X10023226Y33801050D02*
X16351250Y33801050D01*
X7766050Y36058226D02*
X10023226Y33801050D01*
X17272500Y32879800D02*
X17272500Y30797500D01*
X7766050Y44780200D02*
X7766050Y36058226D01*
X16351250Y33801050D02*
X17272500Y32879800D01*
X2540000Y46990000D02*
X5556250Y46990000D01*
X18097500Y29040000D02*
X18097500Y29972500D01*
X5556250Y46990000D02*
X7766050Y44780200D01*
X18097500Y29972500D02*
X17272500Y30797500D01*
%TO.N,unconnected-(B1-PadA4{slash}SDA)*%
X4127500Y12700000D02*
X5397500Y13970000D01*
X5397500Y41592500D02*
X5715000Y41910000D01*
X5397500Y13970000D02*
X5397500Y41592500D01*
X2540000Y12700000D02*
X4127500Y12700000D01*
%TO.N,BUSY*%
X23495000Y25140000D02*
X23495000Y23495000D01*
%TO.N,MY_TX*%
X26035000Y30740000D02*
X26035000Y33178750D01*
X25082500Y34131250D02*
X10160000Y34131250D01*
X10160000Y34131250D02*
X8096250Y36195000D01*
X8096250Y46513750D02*
X5080000Y49530000D01*
X8096250Y36195000D02*
X8096250Y46513750D01*
X26035000Y33178750D02*
X25082500Y34131250D01*
X5080000Y49530000D02*
X2540000Y49530000D01*
D33*
%TO.N,5V*%
X45561250Y30956250D02*
X47307500Y29210000D01*
X26511850Y27464350D02*
X31115600Y27464350D01*
D34*
X18922500Y30131250D02*
X18922500Y30797500D01*
D33*
X26035000Y26987500D02*
X26511850Y27464350D01*
X26035000Y25140000D02*
X26035000Y26987500D01*
X34607500Y30956250D02*
X45561250Y30956250D01*
D34*
X26035000Y29368750D02*
X19685000Y29368750D01*
D33*
X31115600Y27464350D02*
X34607500Y30956250D01*
D34*
X19685000Y29368750D02*
X18922500Y30131250D01*
D33*
X47307500Y29210000D02*
X50800000Y29210000D01*
D32*
%TO.N,Net-(U2-VPN)*%
X23495000Y32880000D02*
X23635000Y33020000D01*
X23495000Y30740000D02*
X23495000Y32880000D01*
%TO.N,Net-(U2-VCOM)*%
X31115000Y30740000D02*
X31115000Y32880000D01*
X31115000Y32880000D02*
X31255000Y33020000D01*
%TO.N,Net-(D4-A)*%
X43370000Y29807500D02*
X43332500Y29845000D01*
X43370000Y27940000D02*
X43370000Y29807500D01*
%TO.N,DAC_L*%
X17705000Y13260000D02*
X18415000Y13970000D01*
X20738750Y30740000D02*
X20637500Y30638750D01*
X17705000Y10180000D02*
X17705000Y13260000D01*
X22225000Y30740000D02*
X20738750Y30740000D01*
%TO.N,DAC_R*%
X20955000Y13970000D02*
X20955000Y21113750D01*
X17705000Y7227500D02*
X20955000Y10477500D01*
X17705000Y6180000D02*
X17705000Y7227500D01*
X20955000Y10477500D02*
X20955000Y13970000D01*
X20955000Y21113750D02*
X22225000Y22383750D01*
X22225000Y22383750D02*
X22225000Y25140000D01*
D30*
%TO.N,unconnected-(J4-PadVBUS)*%
X8654498Y5215452D02*
X8345000Y5524950D01*
X12935502Y4998002D02*
X12382500Y4445000D01*
X13245000Y6010000D02*
X13245000Y5524950D01*
X12382500Y4445000D02*
X9207500Y4445000D01*
X12935502Y5215452D02*
X12935502Y4998002D01*
X9207500Y4445000D02*
X8654498Y4998002D01*
X13245000Y5524950D02*
X12935502Y5215452D01*
X8654498Y4998002D02*
X8654498Y5215452D01*
X8345000Y5524950D02*
X8345000Y6010000D01*
D32*
%TO.N,Net-(J4-CC1)*%
X9545000Y6010000D02*
X9545000Y6806250D01*
X9479950Y6871300D02*
X9479950Y8807550D01*
X9545000Y6806250D02*
X9479950Y6871300D01*
X9479950Y8807550D02*
X8762500Y9525000D01*
%TO.N,Net-(U2-DP)*%
X28575000Y29051250D02*
X28575000Y30740000D01*
X10545000Y5330000D02*
X10545000Y6010000D01*
X21440526Y28416250D02*
X27940000Y28416250D01*
X10545000Y18473224D02*
X13833226Y21761450D01*
X18754476Y21761450D02*
X20148550Y23155524D01*
X10545000Y6010000D02*
X10545000Y18473224D01*
X20148550Y27124274D02*
X21440526Y28416250D01*
X11545000Y6010000D02*
X11545000Y5310000D01*
X27940000Y28416250D02*
X28575000Y29051250D01*
X10795000Y5080000D02*
X10545000Y5330000D01*
X11545000Y5310000D02*
X11315000Y5080000D01*
X20148550Y23155524D02*
X20148550Y27124274D01*
X11315000Y5080000D02*
X10795000Y5080000D01*
X13833226Y21761450D02*
X18754476Y21761450D01*
%TO.N,Net-(U2-DM)*%
X18891250Y21431250D02*
X20478750Y23018750D01*
X13970000Y21431250D02*
X18891250Y21431250D01*
X21431250Y27940000D02*
X28892500Y27940000D01*
X20478750Y23018750D02*
X20478750Y26987500D01*
X28892500Y27940000D02*
X29845000Y28892500D01*
X20478750Y26987500D02*
X21431250Y27940000D01*
X11045000Y6010000D02*
X11045000Y18506250D01*
X10045000Y7100000D02*
X10001250Y7143750D01*
X29845000Y28892500D02*
X29845000Y30740000D01*
X10045000Y6010000D02*
X10045000Y7100000D01*
X11045000Y18506250D02*
X13970000Y21431250D01*
%TO.N,Net-(J4-CC2)*%
X12545000Y6010000D02*
X12545000Y9242500D01*
X12545000Y9242500D02*
X12827500Y9525000D01*
%TO.N,SD_CMD*%
X34448750Y21748750D02*
X34925000Y21272500D01*
X30956250Y21748750D02*
X34448750Y21748750D01*
X30480000Y23653750D02*
X30480000Y22225000D01*
X30480000Y22225000D02*
X30956250Y21748750D01*
X29845000Y25140000D02*
X29845000Y24288750D01*
X34925000Y21272500D02*
X34925000Y14677500D01*
X34925000Y14677500D02*
X34975000Y14627500D01*
X29845000Y24288750D02*
X30480000Y23653750D01*
%TO.N,SD_CLK*%
X28575000Y22843567D02*
X28575000Y21907500D01*
X32775000Y14627500D02*
X32775000Y19612500D01*
X29417367Y22843567D02*
X28575000Y22843567D01*
X29655000Y22860000D02*
X29433800Y22860000D01*
X29433800Y22860000D02*
X29417367Y22843567D01*
X28575000Y25140000D02*
X28575000Y23018750D01*
X28575000Y23018750D02*
X28575000Y22843567D01*
X32775000Y19612500D02*
X32702500Y19685000D01*
%TO.N,SD_DAT*%
X31115000Y26352500D02*
X30638750Y26828750D01*
X30638750Y20320000D02*
X30575000Y20256250D01*
X31115000Y25140000D02*
X31115000Y26352500D01*
X30575000Y20256250D02*
X30575000Y14627500D01*
%TO.N,Net-(JP2-A)*%
X41720000Y27940000D02*
X41720000Y26383750D01*
X41720000Y26383750D02*
X41751250Y26352500D01*
%TO.N,MY_RX_LV*%
X19047500Y25207500D02*
X18922500Y25082500D01*
X19047500Y26940000D02*
X20853950Y28746450D01*
X19047500Y26940000D02*
X19047500Y25207500D01*
X20853950Y28746450D02*
X26841450Y28746450D01*
X26841450Y28746450D02*
X27305000Y29210000D01*
X27305000Y29210000D02*
X27305000Y30740000D01*
%TO.N,Net-(B1-Pad~{RESET})*%
X48418750Y24130000D02*
X47625000Y23336250D01*
X47625000Y23336250D02*
X47625000Y15811500D01*
X50800000Y24130000D02*
X48418750Y24130000D01*
X47625000Y15811500D02*
X47625000Y10223500D01*
%TD*%
%TA.AperFunction,Conductor*%
%TO.N,GND*%
G36*
X48280091Y59669435D02*
G01*
X48285745Y59664255D01*
X50800000Y57150000D01*
X53252100Y57150000D01*
X53308601Y57129435D01*
X53338665Y57077364D01*
X53340000Y57062100D01*
X53340000Y2576410D01*
X53319435Y2519909D01*
X53314255Y2514255D01*
X53048245Y2248245D01*
X52993751Y2222834D01*
X52986090Y2222500D01*
X39687500Y2222500D01*
X39687500Y2222499D01*
X39687500Y87900D01*
X39666935Y31399D01*
X39614864Y1335D01*
X39599600Y0D01*
X2576410Y0D01*
X2519909Y20565D01*
X2514255Y25745D01*
X634996Y1905004D01*
X2034353Y1905004D01*
X2034353Y1904997D01*
X2054833Y1762550D01*
X2054834Y1762545D01*
X2054835Y1762543D01*
X2114623Y1631627D01*
X2208872Y1522857D01*
X2329947Y1445047D01*
X2468039Y1404500D01*
X2468040Y1404500D01*
X2611960Y1404500D01*
X2611961Y1404500D01*
X2750053Y1445047D01*
X2871128Y1522857D01*
X2956868Y1621807D01*
X5798700Y1621807D01*
X5798700Y888193D01*
X5805172Y855656D01*
X5824765Y757151D01*
X5824768Y757143D01*
X5875895Y633710D01*
X5875895Y633708D01*
X5949109Y524137D01*
X5950130Y522609D01*
X6044609Y428130D01*
X6155704Y353898D01*
X6155706Y353897D01*
X6155708Y353896D01*
X6279142Y302769D01*
X6279150Y302766D01*
X6345116Y289645D01*
X6410193Y276700D01*
X6410195Y276700D01*
X6543805Y276700D01*
X6543807Y276700D01*
X6630380Y293921D01*
X6674849Y302766D01*
X6674850Y302767D01*
X6674853Y302767D01*
X6798291Y353896D01*
X6798292Y353896D01*
X6798293Y353897D01*
X6798296Y353898D01*
X6909391Y428130D01*
X7003870Y522609D01*
X7078102Y633704D01*
X7129233Y757147D01*
X7155300Y888193D01*
X7155300Y1621807D01*
X7154812Y1624258D01*
X14409800Y1624258D01*
X14409800Y1343901D01*
X14409801Y1343900D01*
X14813000Y1343900D01*
X14813000Y1166100D01*
X14409801Y1166100D01*
X14409800Y1166099D01*
X14409800Y885743D01*
X14436821Y749893D01*
X14436824Y749885D01*
X14489835Y621907D01*
X14566785Y506741D01*
X14664740Y408786D01*
X14779906Y331836D01*
X14907884Y278825D01*
X14907890Y278823D01*
X15024099Y255707D01*
X15024100Y255707D01*
X15024100Y668238D01*
X15073504Y655000D01*
X15152496Y655000D01*
X15201900Y668238D01*
X15201900Y255707D01*
X15318109Y278823D01*
X15318115Y278825D01*
X15446093Y331836D01*
X15561259Y408786D01*
X15659214Y506741D01*
X15736164Y621907D01*
X15789175Y749885D01*
X15789178Y749893D01*
X15816200Y885743D01*
X15816200Y1166099D01*
X15816199Y1166100D01*
X15413000Y1166100D01*
X15413000Y1343900D01*
X15816199Y1343900D01*
X15816200Y1343901D01*
X15816200Y1624258D01*
X15808341Y1663766D01*
X20104500Y1663766D01*
X20104500Y1496235D01*
X20137181Y1331927D01*
X20137183Y1331921D01*
X20137184Y1331918D01*
X20201297Y1177137D01*
X20294374Y1037838D01*
X20412838Y919374D01*
X20552137Y826297D01*
X20706918Y762184D01*
X20706923Y762183D01*
X20706926Y762182D01*
X20790190Y745621D01*
X20871233Y729500D01*
X20871235Y729500D01*
X21038765Y729500D01*
X21038767Y729500D01*
X21146339Y750898D01*
X21203073Y762182D01*
X21203074Y762183D01*
X21203082Y762184D01*
X21357863Y826297D01*
X21497162Y919374D01*
X21615626Y1037838D01*
X21708703Y1177137D01*
X21772816Y1331918D01*
X21775200Y1343900D01*
X21787254Y1404502D01*
X21805500Y1496233D01*
X21805500Y1663767D01*
X21790495Y1739205D01*
X21772818Y1828074D01*
X21772817Y1828077D01*
X21772816Y1828082D01*
X21708703Y1982863D01*
X21615626Y2122162D01*
X21497162Y2240626D01*
X21357863Y2333703D01*
X21203082Y2397816D01*
X21203079Y2397817D01*
X21203073Y2397819D01*
X21079424Y2422413D01*
X21038767Y2430500D01*
X20871233Y2430500D01*
X20835052Y2423304D01*
X20706926Y2397819D01*
X20706918Y2397816D01*
X20552137Y2333703D01*
X20412840Y2240628D01*
X20294372Y2122160D01*
X20201297Y1982863D01*
X20137184Y1828082D01*
X20137181Y1828074D01*
X20104500Y1663766D01*
X15808341Y1663766D01*
X15789178Y1760108D01*
X15789175Y1760116D01*
X15736164Y1888094D01*
X15659214Y2003260D01*
X15561259Y2101215D01*
X15446093Y2178165D01*
X15318122Y2231173D01*
X15318113Y2231176D01*
X15201900Y2254294D01*
X15201900Y1841763D01*
X15152496Y1855000D01*
X15073504Y1855000D01*
X15024100Y1841763D01*
X15024100Y2254294D01*
X14907886Y2231176D01*
X14907877Y2231173D01*
X14779906Y2178165D01*
X14664740Y2101215D01*
X14566785Y2003260D01*
X14489835Y1888094D01*
X14436824Y1760116D01*
X14436821Y1760108D01*
X14409800Y1624258D01*
X7154812Y1624258D01*
X7129233Y1752853D01*
X7078104Y1876292D01*
X7078104Y1876293D01*
X7058920Y1905004D01*
X7003870Y1987391D01*
X6909391Y2081870D01*
X6798296Y2156102D01*
X6798294Y2156103D01*
X6798291Y2156105D01*
X6674857Y2207232D01*
X6674849Y2207235D01*
X6576344Y2226828D01*
X6543807Y2233300D01*
X6410193Y2233300D01*
X6381249Y2227543D01*
X6279150Y2207235D01*
X6279142Y2207232D01*
X6155709Y2156105D01*
X6155707Y2156105D01*
X6044611Y2081872D01*
X5950128Y1987389D01*
X5875895Y1876293D01*
X5875895Y1876291D01*
X5824768Y1752858D01*
X5824765Y1752850D01*
X5807046Y1663767D01*
X5798700Y1621807D01*
X2956868Y1621807D01*
X2965377Y1631627D01*
X3025165Y1762543D01*
X3038458Y1855000D01*
X3045647Y1904997D01*
X3045647Y1905004D01*
X3025166Y2047451D01*
X3025165Y2047452D01*
X3025165Y2047457D01*
X2965377Y2178373D01*
X2871128Y2287143D01*
X2871126Y2287144D01*
X2871124Y2287146D01*
X2750054Y2364953D01*
X2750050Y2364954D01*
X2611967Y2405499D01*
X2611961Y2405500D01*
X2468039Y2405500D01*
X2468038Y2405500D01*
X2468032Y2405499D01*
X2329949Y2364954D01*
X2329945Y2364953D01*
X2208875Y2287146D01*
X2208870Y2287142D01*
X2114622Y2178372D01*
X2054835Y2047457D01*
X2054833Y2047451D01*
X2034353Y1905004D01*
X634996Y1905004D01*
X25745Y2514255D01*
X334Y2568749D01*
X0Y2576410D01*
X0Y3091099D01*
X16251800Y3091099D01*
X16251800Y2559988D01*
X16263589Y2500718D01*
X16263590Y2500715D01*
X16308500Y2433503D01*
X16308502Y2433501D01*
X16375714Y2388591D01*
X16375717Y2388590D01*
X16434988Y2376800D01*
X17616099Y2376800D01*
X17616100Y2376801D01*
X17616100Y3091099D01*
X17793900Y3091099D01*
X17793900Y2376801D01*
X17793901Y2376800D01*
X18975012Y2376800D01*
X19034282Y2388590D01*
X19034285Y2388591D01*
X19101497Y2433501D01*
X19101499Y2433503D01*
X19146409Y2500715D01*
X19146410Y2500718D01*
X19158200Y2559988D01*
X19158200Y3091099D01*
X19158199Y3091100D01*
X17793901Y3091100D01*
X17793900Y3091099D01*
X17616100Y3091099D01*
X17616099Y3091100D01*
X16251801Y3091100D01*
X16251800Y3091099D01*
X0Y3091099D01*
X0Y3800013D01*
X16251800Y3800013D01*
X16251800Y3268901D01*
X16251801Y3268900D01*
X17616099Y3268900D01*
X17616100Y3268901D01*
X17616100Y3983199D01*
X17793900Y3983199D01*
X17793900Y3268901D01*
X17793901Y3268900D01*
X19158199Y3268900D01*
X19158200Y3268901D01*
X19158200Y3800013D01*
X19146410Y3859283D01*
X19146409Y3859286D01*
X19101499Y3926498D01*
X19101497Y3926500D01*
X19034285Y3971410D01*
X19034282Y3971411D01*
X18975012Y3983200D01*
X17793901Y3983200D01*
X17793900Y3983199D01*
X17616100Y3983199D01*
X17616099Y3983200D01*
X16434988Y3983200D01*
X16375717Y3971411D01*
X16375714Y3971410D01*
X16308502Y3926500D01*
X16308500Y3926498D01*
X16263590Y3859286D01*
X16263589Y3859283D01*
X16251800Y3800013D01*
X0Y3800013D01*
X0Y12700001D01*
X1417110Y12700001D01*
X1417110Y12700000D01*
X1436229Y12493667D01*
X1436229Y12493666D01*
X1491297Y12300125D01*
X1492936Y12294365D01*
X1585300Y12108875D01*
X1710174Y11943514D01*
X1801584Y11860182D01*
X1863305Y11803916D01*
X1863308Y11803914D01*
X2039485Y11694830D01*
X2232707Y11619976D01*
X2232711Y11619976D01*
X2232715Y11619974D01*
X2341601Y11599620D01*
X2436393Y11581900D01*
X2436394Y11581900D01*
X2643606Y11581900D01*
X2643607Y11581900D01*
X2778741Y11607162D01*
X2847284Y11619974D01*
X2847286Y11619975D01*
X2847293Y11619976D01*
X3040515Y11694830D01*
X3216692Y11803914D01*
X3369826Y11943514D01*
X3494700Y12108875D01*
X3587064Y12294365D01*
X3608287Y12368955D01*
X3643529Y12417671D01*
X3692831Y12432800D01*
X4180648Y12432800D01*
X4180649Y12432800D01*
X4206452Y12443489D01*
X4266520Y12446112D01*
X4314223Y12409510D01*
X4327238Y12350808D01*
X4302245Y12300125D01*
X3168043Y11165923D01*
X3113549Y11140512D01*
X3059613Y11153345D01*
X3059435Y11153455D01*
X3057119Y11154889D01*
X3040518Y11165169D01*
X3040516Y11165170D01*
X2847296Y11240023D01*
X2847284Y11240027D01*
X2643609Y11278100D01*
X2643607Y11278100D01*
X2436393Y11278100D01*
X2436390Y11278100D01*
X2232715Y11240027D01*
X2232703Y11240023D01*
X2039488Y11165172D01*
X2039482Y11165169D01*
X1863314Y11056091D01*
X1863305Y11056085D01*
X1710173Y10916485D01*
X1585302Y10751129D01*
X1585300Y10751126D01*
X1585300Y10751125D01*
X1504162Y10588178D01*
X1492936Y10565634D01*
X1492934Y10565629D01*
X1436229Y10366335D01*
X1436229Y10366334D01*
X1417110Y10160001D01*
X1417110Y10160000D01*
X1436229Y9953667D01*
X1436229Y9953666D01*
X1492934Y9754372D01*
X1492936Y9754365D01*
X1585300Y9568875D01*
X1585301Y9568874D01*
X1585302Y9568872D01*
X1590163Y9562435D01*
X1710174Y9403514D01*
X1756823Y9360988D01*
X1863305Y9263916D01*
X1863308Y9263914D01*
X2039485Y9154830D01*
X2232707Y9079976D01*
X2232711Y9079976D01*
X2232715Y9079974D01*
X2341601Y9059620D01*
X2436393Y9041900D01*
X2436394Y9041900D01*
X2643606Y9041900D01*
X2643607Y9041900D01*
X2778741Y9067162D01*
X2847284Y9079974D01*
X2847286Y9079975D01*
X2847293Y9079976D01*
X3040515Y9154830D01*
X3216692Y9263914D01*
X3369826Y9403514D01*
X3394433Y9436099D01*
X6509301Y9436099D01*
X6509301Y9218268D01*
X6524253Y9123854D01*
X6582237Y9010053D01*
X6672552Y8919738D01*
X6786353Y8861754D01*
X6880768Y8846801D01*
X7023600Y8846801D01*
X7023600Y9436099D01*
X7201400Y9436099D01*
X7201400Y8846802D01*
X7201401Y8846801D01*
X7344231Y8846801D01*
X7344232Y8846802D01*
X7438646Y8861754D01*
X7552447Y8919738D01*
X7642762Y9010053D01*
X7700746Y9123854D01*
X7715699Y9218269D01*
X7715700Y9218269D01*
X7715700Y9436099D01*
X7715699Y9436100D01*
X7201401Y9436100D01*
X7201400Y9436099D01*
X7023600Y9436099D01*
X7023599Y9436100D01*
X6509302Y9436100D01*
X6509301Y9436099D01*
X3394433Y9436099D01*
X3494700Y9568875D01*
X3587064Y9754365D01*
X3609077Y9831732D01*
X6509300Y9831732D01*
X6509300Y9613901D01*
X6509301Y9613900D01*
X7023599Y9613900D01*
X7023600Y9613901D01*
X7023600Y10203199D01*
X7201400Y10203199D01*
X7201400Y9613901D01*
X7201401Y9613900D01*
X7715698Y9613900D01*
X7715699Y9613901D01*
X7715699Y9831731D01*
X7715698Y9831733D01*
X7700746Y9926147D01*
X7642762Y10039948D01*
X7552447Y10130263D01*
X7438646Y10188247D01*
X7344232Y10203200D01*
X7201401Y10203200D01*
X7201400Y10203199D01*
X7023600Y10203199D01*
X7023600Y10203200D01*
X6880769Y10203200D01*
X6880766Y10203199D01*
X6786353Y10188247D01*
X6672552Y10130263D01*
X6582237Y10039948D01*
X6524253Y9926147D01*
X6509300Y9831732D01*
X3609077Y9831732D01*
X3643771Y9953670D01*
X3662890Y10160000D01*
X3643771Y10366330D01*
X3587064Y10565635D01*
X3527645Y10684963D01*
X3520869Y10744708D01*
X3544173Y10786297D01*
X6462821Y13704943D01*
X6503500Y13803151D01*
X6503500Y13909449D01*
X6503500Y27407560D01*
X16569200Y27407560D01*
X16569200Y26472437D01*
X16569201Y26472435D01*
X16579543Y26420435D01*
X16579543Y26420434D01*
X16579544Y26420432D01*
X16579545Y26420431D01*
X16618953Y26361453D01*
X16650736Y26340217D01*
X16686288Y26291730D01*
X16689800Y26267132D01*
X16689800Y25147242D01*
X16691205Y25141998D01*
X16694200Y25119248D01*
X16694200Y24771596D01*
X16704913Y24698065D01*
X16704913Y24698064D01*
X16704914Y24698062D01*
X16704915Y24698060D01*
X16760361Y24584643D01*
X16760363Y24584641D01*
X16760364Y24584639D01*
X16789055Y24555948D01*
X16814466Y24501455D01*
X16814800Y24493794D01*
X16814800Y23904008D01*
X16814800Y23783492D01*
X16818379Y23770135D01*
X16840877Y23686171D01*
X16845992Y23667084D01*
X16906249Y23562715D01*
X17498965Y22969999D01*
X17532559Y22950604D01*
X17603335Y22909742D01*
X17719743Y22878550D01*
X18973645Y22878550D01*
X18982032Y22877950D01*
X18984106Y22877950D01*
X19115895Y22877950D01*
X19115895Y22877951D01*
X19197140Y22901807D01*
X19199106Y22902358D01*
X19226662Y22909741D01*
X19226663Y22909742D01*
X19226665Y22909742D01*
X19226666Y22909743D01*
X19228383Y22910454D01*
X19237260Y22913587D01*
X19242343Y22915079D01*
X19297488Y22950520D01*
X19301016Y22952670D01*
X19331034Y22969999D01*
X19331038Y22970004D01*
X19335451Y22973390D01*
X19344797Y22980923D01*
X19353209Y22986328D01*
X19353211Y22986332D01*
X19353308Y22986393D01*
X19353436Y22986591D01*
X19389110Y23027762D01*
X19393360Y23032327D01*
X19416251Y23055216D01*
X19418742Y23059533D01*
X19428434Y23073144D01*
X19439511Y23085926D01*
X19458713Y23127975D01*
X19462519Y23135357D01*
X19476508Y23159585D01*
X19479375Y23170289D01*
X19484322Y23184049D01*
X19494258Y23205804D01*
X19499726Y23243842D01*
X19501824Y23254066D01*
X19507700Y23275993D01*
X19507700Y23293013D01*
X19508595Y23305523D01*
X19509576Y23312342D01*
X19513013Y23336250D01*
X19509906Y23357858D01*
X19508595Y23366980D01*
X19507700Y23379489D01*
X19507700Y23396508D01*
X19501824Y23418437D01*
X19499725Y23428666D01*
X19494258Y23466696D01*
X19484320Y23488458D01*
X19479376Y23502211D01*
X19476508Y23512915D01*
X19462530Y23537126D01*
X19458701Y23544553D01*
X19456828Y23548654D01*
X19439511Y23586574D01*
X19428432Y23599360D01*
X19418746Y23612963D01*
X19416251Y23617284D01*
X19393365Y23640170D01*
X19389103Y23644748D01*
X19353209Y23686172D01*
X19353208Y23686173D01*
X19353204Y23686176D01*
X19344794Y23691581D01*
X19335408Y23699144D01*
X19331033Y23702502D01*
X19318869Y23709525D01*
X19301018Y23719831D01*
X19297466Y23721996D01*
X19280721Y23732757D01*
X19242343Y23757421D01*
X19242340Y23757423D01*
X19237265Y23758913D01*
X19228409Y23762036D01*
X19226662Y23762760D01*
X19199138Y23770135D01*
X19197127Y23770699D01*
X19115896Y23794550D01*
X19115894Y23794550D01*
X18984106Y23794550D01*
X18982032Y23794550D01*
X18973645Y23793950D01*
X18005996Y23793950D01*
X17949495Y23814515D01*
X17943841Y23819695D01*
X17755945Y24007591D01*
X17730534Y24062085D01*
X17730200Y24069746D01*
X17730200Y24493794D01*
X17750765Y24550295D01*
X17755934Y24555938D01*
X17784636Y24584639D01*
X17840087Y24698065D01*
X17850800Y24771596D01*
X17850800Y25393404D01*
X17840087Y25466935D01*
X17798550Y25551900D01*
X17784637Y25580360D01*
X17695364Y25669634D01*
X17695361Y25669636D01*
X17654494Y25689615D01*
X17612766Y25732906D01*
X17605200Y25768583D01*
X17605200Y26267132D01*
X17625765Y26323633D01*
X17644259Y26340214D01*
X17676047Y26361453D01*
X17715455Y26420431D01*
X17725800Y26472439D01*
X17725799Y27407560D01*
X17725799Y27407561D01*
X17725799Y27407564D01*
X17725798Y27407566D01*
X17715456Y27459566D01*
X17715456Y27459567D01*
X17715455Y27459569D01*
X17676047Y27518547D01*
X17617069Y27557955D01*
X17565061Y27568300D01*
X17565059Y27568300D01*
X16729936Y27568300D01*
X16729934Y27568299D01*
X16677934Y27557957D01*
X16677933Y27557957D01*
X16618954Y27518548D01*
X16618953Y27518547D01*
X16579545Y27459569D01*
X16572965Y27426486D01*
X16569200Y27407560D01*
X6503500Y27407560D01*
X6503500Y42394349D01*
X6462821Y42492557D01*
X6442797Y42512581D01*
X6387657Y42567722D01*
X6387657Y42567721D01*
X6198423Y42756955D01*
X6173012Y42811449D01*
X6173573Y42831620D01*
X6178013Y42862499D01*
X6178013Y42862504D01*
X6159259Y42992940D01*
X6159258Y42992941D01*
X6159258Y42992946D01*
X6104511Y43112824D01*
X6104510Y43112825D01*
X6104510Y43112826D01*
X6061360Y43162623D01*
X6018209Y43212422D01*
X6018206Y43212424D01*
X6018205Y43212425D01*
X5907346Y43283670D01*
X5907343Y43283671D01*
X5882053Y43291097D01*
X5780898Y43320800D01*
X5780894Y43320800D01*
X5649106Y43320800D01*
X5649101Y43320800D01*
X5522657Y43283671D01*
X5522653Y43283670D01*
X5411794Y43212425D01*
X5411789Y43212420D01*
X5325489Y43112826D01*
X5270742Y42992946D01*
X5270740Y42992940D01*
X5251987Y42862504D01*
X5251987Y42862497D01*
X5270740Y42732061D01*
X5270742Y42732055D01*
X5325489Y42612175D01*
X5364009Y42567721D01*
X5411791Y42512578D01*
X5481202Y42467970D01*
X5493299Y42460196D01*
X5529712Y42412349D01*
X5526851Y42352290D01*
X5493299Y42312304D01*
X5411791Y42259922D01*
X5411789Y42259920D01*
X5325489Y42160326D01*
X5270742Y42040446D01*
X5270740Y42040440D01*
X5251987Y41910004D01*
X5251987Y41910002D01*
X5251987Y41910000D01*
X5256427Y41879118D01*
X5244111Y41820265D01*
X5231577Y41804456D01*
X5170978Y41743856D01*
X5130300Y41645649D01*
X5130300Y14117088D01*
X5109735Y14060587D01*
X5104555Y14054933D01*
X4042567Y12992945D01*
X3988073Y12967534D01*
X3980412Y12967200D01*
X3692831Y12967200D01*
X3636330Y12987765D01*
X3608287Y13031045D01*
X3600645Y13057902D01*
X3587064Y13105635D01*
X3494700Y13291125D01*
X3369826Y13456486D01*
X3261393Y13555336D01*
X3216694Y13596085D01*
X3216685Y13596091D01*
X3040517Y13705169D01*
X3040511Y13705172D01*
X2847296Y13780023D01*
X2847284Y13780027D01*
X2643609Y13818100D01*
X2643607Y13818100D01*
X2436393Y13818100D01*
X2436390Y13818100D01*
X2232715Y13780027D01*
X2232703Y13780023D01*
X2039488Y13705172D01*
X2039482Y13705169D01*
X1863314Y13596091D01*
X1863305Y13596085D01*
X1710173Y13456485D01*
X1585302Y13291129D01*
X1585300Y13291126D01*
X1585300Y13291125D01*
X1543654Y13207488D01*
X1492936Y13105634D01*
X1492934Y13105629D01*
X1436229Y12906335D01*
X1436229Y12906334D01*
X1417110Y12700001D01*
X0Y12700001D01*
X0Y15240001D01*
X1417110Y15240001D01*
X1417110Y15240000D01*
X1436229Y15033667D01*
X1436229Y15033666D01*
X1483911Y14866085D01*
X1492936Y14834365D01*
X1585300Y14648875D01*
X1710174Y14483514D01*
X1754198Y14443381D01*
X1863305Y14343916D01*
X1863308Y14343914D01*
X2039485Y14234830D01*
X2232707Y14159976D01*
X2232711Y14159976D01*
X2232715Y14159974D01*
X2341601Y14139620D01*
X2436393Y14121900D01*
X2436394Y14121900D01*
X2643606Y14121900D01*
X2643607Y14121900D01*
X2778741Y14147162D01*
X2847284Y14159974D01*
X2847286Y14159975D01*
X2847293Y14159976D01*
X3040515Y14234830D01*
X3216692Y14343914D01*
X3369826Y14483514D01*
X3494700Y14648875D01*
X3587064Y14834365D01*
X3643278Y15031937D01*
X3643770Y15033666D01*
X3643770Y15033667D01*
X3643769Y15033667D01*
X3643771Y15033670D01*
X3662890Y15240000D01*
X3643771Y15446330D01*
X3629335Y15497066D01*
X3616723Y15541395D01*
X3587064Y15645635D01*
X3494700Y15831125D01*
X3369826Y15996486D01*
X3285837Y16073052D01*
X3216694Y16136085D01*
X3216685Y16136091D01*
X3040517Y16245169D01*
X3040511Y16245172D01*
X2847296Y16320023D01*
X2847284Y16320027D01*
X2643609Y16358100D01*
X2643607Y16358100D01*
X2436393Y16358100D01*
X2436390Y16358100D01*
X2232715Y16320027D01*
X2232703Y16320023D01*
X2039488Y16245172D01*
X2039482Y16245169D01*
X1863314Y16136091D01*
X1863305Y16136085D01*
X1710173Y15996485D01*
X1585302Y15831129D01*
X1585300Y15831126D01*
X1585300Y15831125D01*
X1509270Y15678436D01*
X1492936Y15645634D01*
X1492934Y15645629D01*
X1436229Y15446335D01*
X1436229Y15446334D01*
X1417110Y15240001D01*
X0Y15240001D01*
X0Y17868901D01*
X1400340Y17868901D01*
X1400341Y17868900D01*
X2037900Y17868900D01*
X2032000Y17846880D01*
X2032000Y17713120D01*
X2037900Y17691100D01*
X1400341Y17691100D01*
X1411648Y17569071D01*
X1411648Y17569070D01*
X1469616Y17365336D01*
X1564039Y17175709D01*
X1691691Y17006671D01*
X1691695Y17006667D01*
X1848235Y16863960D01*
X1848244Y16863954D01*
X2028333Y16752448D01*
X2028347Y16752442D01*
X2225859Y16675925D01*
X2225873Y16675921D01*
X2434080Y16637001D01*
X2434086Y16637000D01*
X2451099Y16637000D01*
X2451100Y16637001D01*
X2451100Y17277901D01*
X2473120Y17272000D01*
X2606880Y17272000D01*
X2628900Y17277901D01*
X2628900Y16637001D01*
X2628901Y16637000D01*
X2645914Y16637000D01*
X2645919Y16637001D01*
X2854126Y16675921D01*
X2854140Y16675925D01*
X3051652Y16752442D01*
X3051666Y16752448D01*
X3231755Y16863954D01*
X3231764Y16863960D01*
X3388304Y17006667D01*
X3388308Y17006671D01*
X3515960Y17175709D01*
X3610383Y17365336D01*
X3668351Y17569070D01*
X3668351Y17569071D01*
X3679659Y17691100D01*
X3042100Y17691100D01*
X3048000Y17713120D01*
X3048000Y17846880D01*
X3042100Y17868900D01*
X3679659Y17868900D01*
X3679659Y17868901D01*
X3668351Y17990930D01*
X3668351Y17990931D01*
X3610383Y18194665D01*
X3515960Y18384292D01*
X3388308Y18553330D01*
X3388304Y18553334D01*
X3231764Y18696041D01*
X3231755Y18696047D01*
X3051666Y18807553D01*
X3051652Y18807559D01*
X2854140Y18884076D01*
X2854126Y18884080D01*
X2645919Y18923000D01*
X2628901Y18923000D01*
X2628900Y18922999D01*
X2628900Y18282100D01*
X2606880Y18288000D01*
X2473120Y18288000D01*
X2451100Y18282100D01*
X2451100Y18922999D01*
X2451099Y18923000D01*
X2434080Y18923000D01*
X2225873Y18884080D01*
X2225859Y18884076D01*
X2028347Y18807559D01*
X2028333Y18807553D01*
X1848244Y18696047D01*
X1848235Y18696041D01*
X1691695Y18553334D01*
X1691691Y18553330D01*
X1564039Y18384292D01*
X1469616Y18194665D01*
X1411648Y17990931D01*
X1411648Y17990930D01*
X1400340Y17868901D01*
X0Y17868901D01*
X0Y20320001D01*
X1417110Y20320001D01*
X1417110Y20320000D01*
X1436229Y20113667D01*
X1436229Y20113666D01*
X1483911Y19946085D01*
X1492936Y19914365D01*
X1585300Y19728875D01*
X1585301Y19728874D01*
X1585302Y19728872D01*
X1591427Y19720761D01*
X1710174Y19563514D01*
X1766144Y19512491D01*
X1863305Y19423916D01*
X1863314Y19423910D01*
X1872160Y19418433D01*
X2039485Y19314830D01*
X2232707Y19239976D01*
X2232711Y19239976D01*
X2232715Y19239974D01*
X2341601Y19219620D01*
X2436393Y19201900D01*
X2436394Y19201900D01*
X2643606Y19201900D01*
X2643607Y19201900D01*
X2778741Y19227162D01*
X2847284Y19239974D01*
X2847286Y19239975D01*
X2847293Y19239976D01*
X3040515Y19314830D01*
X3216692Y19423914D01*
X3369826Y19563514D01*
X3494700Y19728875D01*
X3587064Y19914365D01*
X3643771Y20113670D01*
X3662890Y20320000D01*
X3643771Y20526330D01*
X3587064Y20725635D01*
X3494700Y20911125D01*
X3369826Y21076486D01*
X3270648Y21166899D01*
X3216694Y21216085D01*
X3216685Y21216091D01*
X3040517Y21325169D01*
X3040511Y21325172D01*
X2847296Y21400023D01*
X2847284Y21400027D01*
X2643609Y21438100D01*
X2643607Y21438100D01*
X2436393Y21438100D01*
X2436390Y21438100D01*
X2232715Y21400027D01*
X2232703Y21400023D01*
X2039488Y21325172D01*
X2039482Y21325169D01*
X1863314Y21216091D01*
X1863305Y21216085D01*
X1710173Y21076485D01*
X1585302Y20911129D01*
X1585300Y20911126D01*
X1585300Y20911125D01*
X1503824Y20747499D01*
X1492936Y20725634D01*
X1492934Y20725629D01*
X1436229Y20526335D01*
X1436229Y20526334D01*
X1417110Y20320001D01*
X0Y20320001D01*
X0Y22860001D01*
X1417110Y22860001D01*
X1417110Y22860000D01*
X1436229Y22653667D01*
X1436229Y22653666D01*
X1487253Y22474337D01*
X1492936Y22454365D01*
X1585300Y22268875D01*
X1585301Y22268874D01*
X1585302Y22268872D01*
X1604387Y22243600D01*
X1710174Y22103514D01*
X1791930Y22028984D01*
X1863305Y21963916D01*
X1863308Y21963914D01*
X2039485Y21854830D01*
X2232707Y21779976D01*
X2232711Y21779976D01*
X2232715Y21779974D01*
X2341601Y21759620D01*
X2436393Y21741900D01*
X2436394Y21741900D01*
X2643606Y21741900D01*
X2643607Y21741900D01*
X2778741Y21767162D01*
X2847284Y21779974D01*
X2847286Y21779975D01*
X2847293Y21779976D01*
X3040515Y21854830D01*
X3216692Y21963914D01*
X3369826Y22103514D01*
X3494700Y22268875D01*
X3587064Y22454365D01*
X3643771Y22653670D01*
X3662890Y22860000D01*
X3643771Y23066330D01*
X3643636Y23066803D01*
X3617238Y23159585D01*
X3587064Y23265635D01*
X3494700Y23451125D01*
X3369826Y23616486D01*
X3281851Y23696686D01*
X3216694Y23756085D01*
X3216685Y23756091D01*
X3040517Y23865169D01*
X3040511Y23865172D01*
X2847296Y23940023D01*
X2847284Y23940027D01*
X2643609Y23978100D01*
X2643607Y23978100D01*
X2436393Y23978100D01*
X2436390Y23978100D01*
X2232715Y23940027D01*
X2232703Y23940023D01*
X2039488Y23865172D01*
X2039482Y23865169D01*
X1863314Y23756091D01*
X1863305Y23756085D01*
X1710173Y23616485D01*
X1585302Y23451129D01*
X1585300Y23451126D01*
X1585300Y23451125D01*
X1493219Y23266202D01*
X1492936Y23265634D01*
X1492934Y23265629D01*
X1436229Y23066335D01*
X1436229Y23066334D01*
X1417110Y22860001D01*
X0Y22860001D01*
X0Y25400001D01*
X1417110Y25400001D01*
X1417110Y25400000D01*
X1436229Y25193667D01*
X1436229Y25193666D01*
X1483911Y25026085D01*
X1492936Y24994365D01*
X1585300Y24808875D01*
X1710174Y24643514D01*
X1774757Y24584639D01*
X1863305Y24503916D01*
X1863314Y24503910D01*
X1932544Y24461045D01*
X2039485Y24394830D01*
X2232707Y24319976D01*
X2232711Y24319976D01*
X2232715Y24319974D01*
X2341601Y24299620D01*
X2436393Y24281900D01*
X2436394Y24281900D01*
X2643606Y24281900D01*
X2643607Y24281900D01*
X2778741Y24307162D01*
X2847284Y24319974D01*
X2847286Y24319975D01*
X2847293Y24319976D01*
X3040515Y24394830D01*
X3216692Y24503914D01*
X3369826Y24643514D01*
X3494700Y24808875D01*
X3587064Y24994365D01*
X3643771Y25193670D01*
X3662890Y25400000D01*
X3643771Y25606330D01*
X3587064Y25805635D01*
X3494700Y25991125D01*
X3369826Y26156486D01*
X3276217Y26241822D01*
X3216694Y26296085D01*
X3216685Y26296091D01*
X3040517Y26405169D01*
X3040511Y26405172D01*
X2847296Y26480023D01*
X2847284Y26480027D01*
X2643609Y26518100D01*
X2643607Y26518100D01*
X2436393Y26518100D01*
X2436390Y26518100D01*
X2232715Y26480027D01*
X2232703Y26480023D01*
X2039488Y26405172D01*
X2039482Y26405169D01*
X1863314Y26296091D01*
X1863305Y26296085D01*
X1710173Y26156485D01*
X1585302Y25991129D01*
X1585300Y25991126D01*
X1585300Y25991125D01*
X1494894Y25809566D01*
X1492936Y25805634D01*
X1492934Y25805629D01*
X1436229Y25606335D01*
X1436229Y25606334D01*
X1417110Y25400001D01*
X0Y25400001D01*
X0Y27940001D01*
X1417110Y27940001D01*
X1417110Y27940000D01*
X1436229Y27733667D01*
X1436229Y27733666D01*
X1491062Y27540950D01*
X1492936Y27534365D01*
X1585300Y27348875D01*
X1585301Y27348874D01*
X1585302Y27348872D01*
X1593949Y27337422D01*
X1710174Y27183514D01*
X1801584Y27100182D01*
X1863305Y27043916D01*
X1863308Y27043914D01*
X2039485Y26934830D01*
X2232707Y26859976D01*
X2232711Y26859976D01*
X2232715Y26859974D01*
X2337364Y26840412D01*
X2436393Y26821900D01*
X2436394Y26821900D01*
X2643606Y26821900D01*
X2643607Y26821900D01*
X2778741Y26847162D01*
X2847284Y26859974D01*
X2847286Y26859975D01*
X2847293Y26859976D01*
X3040515Y26934830D01*
X3216692Y27043914D01*
X3369826Y27183514D01*
X3494700Y27348875D01*
X3587064Y27534365D01*
X3643771Y27733670D01*
X3662890Y27940000D01*
X3643771Y28146330D01*
X3587064Y28345635D01*
X3494700Y28531125D01*
X3369826Y28696486D01*
X3278456Y28779781D01*
X3216694Y28836085D01*
X3216685Y28836091D01*
X3040517Y28945169D01*
X3040511Y28945172D01*
X2847296Y29020023D01*
X2847284Y29020027D01*
X2643609Y29058100D01*
X2643607Y29058100D01*
X2436393Y29058100D01*
X2436390Y29058100D01*
X2232715Y29020027D01*
X2232703Y29020023D01*
X2039488Y28945172D01*
X2039482Y28945169D01*
X1863314Y28836091D01*
X1863305Y28836085D01*
X1710173Y28696485D01*
X1585302Y28531129D01*
X1585300Y28531126D01*
X1585300Y28531125D01*
X1498723Y28357255D01*
X1492936Y28345634D01*
X1492934Y28345629D01*
X1436229Y28146335D01*
X1436229Y28146334D01*
X1417110Y27940001D01*
X0Y27940001D01*
X0Y30480001D01*
X1417110Y30480001D01*
X1417110Y30480000D01*
X1436229Y30273667D01*
X1436229Y30273666D01*
X1483911Y30106085D01*
X1492936Y30074365D01*
X1585300Y29888875D01*
X1585301Y29888874D01*
X1585302Y29888872D01*
X1605729Y29861822D01*
X1710174Y29723514D01*
X1797600Y29643815D01*
X1863305Y29583916D01*
X1863314Y29583910D01*
X1980759Y29511192D01*
X2039485Y29474830D01*
X2232707Y29399976D01*
X2232711Y29399976D01*
X2232715Y29399974D01*
X2341601Y29379620D01*
X2436393Y29361900D01*
X2436394Y29361900D01*
X2643606Y29361900D01*
X2643607Y29361900D01*
X2778741Y29387162D01*
X2847284Y29399974D01*
X2847286Y29399975D01*
X2847293Y29399976D01*
X3040515Y29474830D01*
X3216692Y29583914D01*
X3369826Y29723514D01*
X3494700Y29888875D01*
X3587064Y30074365D01*
X3643771Y30273670D01*
X3662890Y30480000D01*
X3643771Y30686330D01*
X3587064Y30885635D01*
X3494700Y31071125D01*
X3369826Y31236486D01*
X3258745Y31337750D01*
X3216694Y31376085D01*
X3216685Y31376091D01*
X3040517Y31485169D01*
X3040511Y31485172D01*
X2847296Y31560023D01*
X2847284Y31560027D01*
X2643609Y31598100D01*
X2643607Y31598100D01*
X2436393Y31598100D01*
X2436390Y31598100D01*
X2232715Y31560027D01*
X2232703Y31560023D01*
X2039488Y31485172D01*
X2039482Y31485169D01*
X1863314Y31376091D01*
X1863305Y31376085D01*
X1710173Y31236485D01*
X1585302Y31071129D01*
X1585300Y31071126D01*
X1585300Y31071125D01*
X1494649Y30889074D01*
X1492936Y30885634D01*
X1492934Y30885629D01*
X1436229Y30686335D01*
X1436229Y30686334D01*
X1417110Y30480001D01*
X0Y30480001D01*
X0Y33020001D01*
X1417110Y33020001D01*
X1417110Y33020000D01*
X1436229Y32813667D01*
X1436229Y32813666D01*
X1484555Y32643820D01*
X1492936Y32614365D01*
X1585300Y32428875D01*
X1585301Y32428874D01*
X1585302Y32428872D01*
X1616814Y32387144D01*
X1710174Y32263514D01*
X1754198Y32223381D01*
X1863305Y32123916D01*
X1863308Y32123914D01*
X2039485Y32014830D01*
X2232707Y31939976D01*
X2232711Y31939976D01*
X2232715Y31939974D01*
X2341601Y31919620D01*
X2436393Y31901900D01*
X2436394Y31901900D01*
X2643606Y31901900D01*
X2643607Y31901900D01*
X2778741Y31927162D01*
X2847284Y31939974D01*
X2847286Y31939975D01*
X2847293Y31939976D01*
X3040515Y32014830D01*
X3216692Y32123914D01*
X3369826Y32263514D01*
X3494700Y32428875D01*
X3587064Y32614365D01*
X3643771Y32813670D01*
X3662890Y33020000D01*
X3661099Y33039323D01*
X3660436Y33046482D01*
X3643771Y33226330D01*
X3642186Y33231899D01*
X3622315Y33301739D01*
X3587064Y33425635D01*
X3494700Y33611125D01*
X3369826Y33776486D01*
X3277058Y33861055D01*
X3216694Y33916085D01*
X3216685Y33916091D01*
X3040517Y34025169D01*
X3040511Y34025172D01*
X2847296Y34100023D01*
X2847284Y34100027D01*
X2643609Y34138100D01*
X2643607Y34138100D01*
X2436393Y34138100D01*
X2436390Y34138100D01*
X2232715Y34100027D01*
X2232703Y34100023D01*
X2039488Y34025172D01*
X2039482Y34025169D01*
X1863314Y33916091D01*
X1863305Y33916085D01*
X1710173Y33776485D01*
X1585302Y33611129D01*
X1492936Y33425634D01*
X1492934Y33425629D01*
X1436229Y33226335D01*
X1436229Y33226334D01*
X1417110Y33020001D01*
X0Y33020001D01*
X0Y36830001D01*
X1417110Y36830001D01*
X1417110Y36830000D01*
X1436229Y36623667D01*
X1436229Y36623666D01*
X1492934Y36424372D01*
X1492936Y36424365D01*
X1585300Y36238875D01*
X1710174Y36073514D01*
X1785245Y36005078D01*
X1863305Y35933916D01*
X1863308Y35933914D01*
X2039485Y35824830D01*
X2232707Y35749976D01*
X2232711Y35749976D01*
X2232715Y35749974D01*
X2341601Y35729620D01*
X2436393Y35711900D01*
X2436394Y35711900D01*
X2643606Y35711900D01*
X2643607Y35711900D01*
X2778741Y35737162D01*
X2847284Y35749974D01*
X2847286Y35749975D01*
X2847293Y35749976D01*
X3040515Y35824830D01*
X3216692Y35933914D01*
X3369826Y36073514D01*
X3494700Y36238875D01*
X3587064Y36424365D01*
X3643771Y36623670D01*
X3662890Y36830000D01*
X3643771Y37036330D01*
X3587064Y37235635D01*
X3494700Y37421125D01*
X3369826Y37586486D01*
X3285837Y37663052D01*
X3216694Y37726085D01*
X3216685Y37726091D01*
X3040517Y37835169D01*
X3040511Y37835172D01*
X2847296Y37910023D01*
X2847284Y37910027D01*
X2643609Y37948100D01*
X2643607Y37948100D01*
X2436393Y37948100D01*
X2436390Y37948100D01*
X2232715Y37910027D01*
X2232703Y37910023D01*
X2039488Y37835172D01*
X2039482Y37835169D01*
X1863314Y37726091D01*
X1863305Y37726085D01*
X1710173Y37586485D01*
X1585302Y37421129D01*
X1492936Y37235634D01*
X1492934Y37235629D01*
X1436229Y37036335D01*
X1436229Y37036334D01*
X1417110Y36830001D01*
X0Y36830001D01*
X0Y39370001D01*
X1417110Y39370001D01*
X1417110Y39370000D01*
X1436229Y39163667D01*
X1436229Y39163666D01*
X1492934Y38964372D01*
X1492936Y38964365D01*
X1585300Y38778875D01*
X1710174Y38613514D01*
X1801584Y38530182D01*
X1863305Y38473916D01*
X1863308Y38473914D01*
X2039485Y38364830D01*
X2232707Y38289976D01*
X2232711Y38289976D01*
X2232715Y38289974D01*
X2341601Y38269620D01*
X2436393Y38251900D01*
X2436394Y38251900D01*
X2643606Y38251900D01*
X2643607Y38251900D01*
X2778741Y38277162D01*
X2847284Y38289974D01*
X2847286Y38289975D01*
X2847293Y38289976D01*
X3040515Y38364830D01*
X3216692Y38473914D01*
X3369826Y38613514D01*
X3494700Y38778875D01*
X3587064Y38964365D01*
X3643771Y39163670D01*
X3662890Y39370000D01*
X3643771Y39576330D01*
X3587064Y39775635D01*
X3494700Y39961125D01*
X3369826Y40126486D01*
X3285837Y40203052D01*
X3216694Y40266085D01*
X3216685Y40266091D01*
X3040517Y40375169D01*
X3040511Y40375172D01*
X2847296Y40450023D01*
X2847284Y40450027D01*
X2643609Y40488100D01*
X2643607Y40488100D01*
X2436393Y40488100D01*
X2436390Y40488100D01*
X2232715Y40450027D01*
X2232703Y40450023D01*
X2039488Y40375172D01*
X2039482Y40375169D01*
X1863314Y40266091D01*
X1863305Y40266085D01*
X1710173Y40126485D01*
X1585302Y39961129D01*
X1492936Y39775634D01*
X1492934Y39775629D01*
X1436229Y39576335D01*
X1436229Y39576334D01*
X1417110Y39370001D01*
X0Y39370001D01*
X0Y41910001D01*
X1417110Y41910001D01*
X1417110Y41910000D01*
X1436229Y41703667D01*
X1436229Y41703666D01*
X1452737Y41645649D01*
X1492936Y41504365D01*
X1585300Y41318875D01*
X1710174Y41153514D01*
X1801584Y41070182D01*
X1863305Y41013916D01*
X1863308Y41013914D01*
X2039485Y40904830D01*
X2232707Y40829976D01*
X2232711Y40829976D01*
X2232715Y40829974D01*
X2341601Y40809620D01*
X2436393Y40791900D01*
X2436394Y40791900D01*
X2643606Y40791900D01*
X2643607Y40791900D01*
X2778741Y40817162D01*
X2847284Y40829974D01*
X2847286Y40829975D01*
X2847293Y40829976D01*
X3040515Y40904830D01*
X3216692Y41013914D01*
X3369826Y41153514D01*
X3494700Y41318875D01*
X3587064Y41504365D01*
X3643771Y41703670D01*
X3662890Y41910000D01*
X3643771Y42116330D01*
X3587064Y42315635D01*
X3494700Y42501125D01*
X3369826Y42666486D01*
X3270586Y42756955D01*
X3216694Y42806085D01*
X3216685Y42806091D01*
X3040517Y42915169D01*
X3040511Y42915172D01*
X2847296Y42990023D01*
X2847284Y42990027D01*
X2643609Y43028100D01*
X2643607Y43028100D01*
X2436393Y43028100D01*
X2436390Y43028100D01*
X2232715Y42990027D01*
X2232703Y42990023D01*
X2039488Y42915172D01*
X2039482Y42915169D01*
X1863314Y42806091D01*
X1863305Y42806085D01*
X1710173Y42666485D01*
X1585302Y42501129D01*
X1585300Y42501126D01*
X1585300Y42501125D01*
X1500673Y42331171D01*
X1492936Y42315634D01*
X1492934Y42315629D01*
X1436229Y42116335D01*
X1436229Y42116334D01*
X1417110Y41910001D01*
X0Y41910001D01*
X0Y44450001D01*
X1417110Y44450001D01*
X1417110Y44450000D01*
X1436229Y44243667D01*
X1436229Y44243666D01*
X1492934Y44044372D01*
X1492936Y44044365D01*
X1585300Y43858875D01*
X1710174Y43693514D01*
X1801584Y43610182D01*
X1863305Y43553916D01*
X1863308Y43553914D01*
X2039485Y43444830D01*
X2232707Y43369976D01*
X2232711Y43369976D01*
X2232715Y43369974D01*
X2341601Y43349620D01*
X2436393Y43331900D01*
X2436394Y43331900D01*
X2643606Y43331900D01*
X2643607Y43331900D01*
X2778741Y43357162D01*
X2847284Y43369974D01*
X2847286Y43369975D01*
X2847293Y43369976D01*
X3040515Y43444830D01*
X3216692Y43553914D01*
X3369826Y43693514D01*
X3494700Y43858875D01*
X3587064Y44044365D01*
X3643771Y44243670D01*
X3662890Y44450000D01*
X3643771Y44656330D01*
X3632692Y44695267D01*
X3622557Y44730887D01*
X3587064Y44855635D01*
X3494700Y45041125D01*
X3369826Y45206486D01*
X3285837Y45283052D01*
X3216694Y45346085D01*
X3216685Y45346091D01*
X3040517Y45455169D01*
X3040511Y45455172D01*
X2847296Y45530023D01*
X2847284Y45530027D01*
X2643609Y45568100D01*
X2643607Y45568100D01*
X2436393Y45568100D01*
X2436390Y45568100D01*
X2232715Y45530027D01*
X2232703Y45530023D01*
X2039488Y45455172D01*
X2039482Y45455169D01*
X1863314Y45346091D01*
X1863305Y45346085D01*
X1710173Y45206485D01*
X1585302Y45041129D01*
X1492936Y44855634D01*
X1492934Y44855629D01*
X1436229Y44656335D01*
X1436229Y44656334D01*
X1417110Y44450001D01*
X0Y44450001D01*
X0Y49530001D01*
X1417110Y49530001D01*
X1417110Y49530000D01*
X1436229Y49323667D01*
X1436229Y49323666D01*
X1471713Y49198955D01*
X1492936Y49124365D01*
X1585300Y48938875D01*
X1710174Y48773514D01*
X1801584Y48690182D01*
X1863305Y48633916D01*
X1863308Y48633914D01*
X2039485Y48524830D01*
X2232707Y48449976D01*
X2232711Y48449976D01*
X2232715Y48449974D01*
X2341601Y48429620D01*
X2436393Y48411900D01*
X2436394Y48411900D01*
X2643606Y48411900D01*
X2643607Y48411900D01*
X2778741Y48437162D01*
X2847284Y48449974D01*
X2847286Y48449975D01*
X2847293Y48449976D01*
X3040515Y48524830D01*
X3216692Y48633914D01*
X3369826Y48773514D01*
X3494700Y48938875D01*
X3587064Y49124365D01*
X3608287Y49198955D01*
X3643529Y49247671D01*
X3692831Y49262800D01*
X4932912Y49262800D01*
X4989413Y49242235D01*
X4995067Y49237055D01*
X7803305Y46428817D01*
X7828716Y46374323D01*
X7829050Y46366662D01*
X7829050Y45307288D01*
X7808485Y45250787D01*
X7756414Y45220723D01*
X7697200Y45231164D01*
X7678995Y45245133D01*
X6830212Y46093916D01*
X5707607Y47216521D01*
X5609399Y47257200D01*
X5609398Y47257200D01*
X3692831Y47257200D01*
X3636330Y47277765D01*
X3608287Y47321045D01*
X3600645Y47347902D01*
X3587064Y47395635D01*
X3494700Y47581125D01*
X3369826Y47746486D01*
X3285837Y47823052D01*
X3216694Y47886085D01*
X3216685Y47886091D01*
X3040517Y47995169D01*
X3040511Y47995172D01*
X2847296Y48070023D01*
X2847284Y48070027D01*
X2643609Y48108100D01*
X2643607Y48108100D01*
X2436393Y48108100D01*
X2436390Y48108100D01*
X2232715Y48070027D01*
X2232703Y48070023D01*
X2039488Y47995172D01*
X2039482Y47995169D01*
X1863314Y47886091D01*
X1863305Y47886085D01*
X1710173Y47746485D01*
X1585302Y47581129D01*
X1492936Y47395634D01*
X1492934Y47395629D01*
X1436229Y47196335D01*
X1436229Y47196334D01*
X1417110Y46990001D01*
X1417110Y46990000D01*
X1436229Y46783667D01*
X1436229Y46783666D01*
X1469962Y46665109D01*
X1492936Y46584365D01*
X1585300Y46398875D01*
X1710174Y46233514D01*
X1801584Y46150182D01*
X1863305Y46093916D01*
X1863308Y46093914D01*
X2039485Y45984830D01*
X2232707Y45909976D01*
X2232711Y45909976D01*
X2232715Y45909974D01*
X2341601Y45889620D01*
X2436393Y45871900D01*
X2436394Y45871900D01*
X2643606Y45871900D01*
X2643607Y45871900D01*
X2778741Y45897162D01*
X2847284Y45909974D01*
X2847286Y45909975D01*
X2847293Y45909976D01*
X3040515Y45984830D01*
X3216692Y46093914D01*
X3369826Y46233514D01*
X3494700Y46398875D01*
X3587064Y46584365D01*
X3608287Y46658955D01*
X3643529Y46707671D01*
X3692831Y46722800D01*
X5409162Y46722800D01*
X5465663Y46702235D01*
X5471317Y46697055D01*
X7473105Y44695267D01*
X7498516Y44640773D01*
X7498850Y44633112D01*
X7498850Y36111375D01*
X7498850Y36005077D01*
X7539529Y35906869D01*
X9796705Y33649693D01*
X9796704Y33649693D01*
X9835269Y33611129D01*
X9871869Y33574529D01*
X9970077Y33533850D01*
X16204162Y33533850D01*
X16260663Y33513285D01*
X16266317Y33508105D01*
X16979555Y32794867D01*
X17004966Y32740373D01*
X17005300Y32732712D01*
X17005300Y31515605D01*
X16984735Y31459104D01*
X16956006Y31436637D01*
X16849642Y31384639D01*
X16760361Y31295358D01*
X16704915Y31181941D01*
X16704914Y31181939D01*
X16704913Y31181937D01*
X16704913Y31181935D01*
X16694200Y31108404D01*
X16694200Y30486596D01*
X16704913Y30413065D01*
X16704913Y30413064D01*
X16704914Y30413062D01*
X16704915Y30413060D01*
X16760361Y30299643D01*
X16760363Y30299641D01*
X16760364Y30299639D01*
X16849639Y30210364D01*
X16849640Y30210364D01*
X16849642Y30210362D01*
X16945050Y30163720D01*
X16963065Y30154913D01*
X17036596Y30144200D01*
X17036600Y30144200D01*
X17511512Y30144200D01*
X17568013Y30123635D01*
X17573667Y30118455D01*
X17804555Y29887567D01*
X17829966Y29833073D01*
X17830300Y29825412D01*
X17830300Y29756200D01*
X17809735Y29699699D01*
X17757664Y29669635D01*
X17742401Y29668300D01*
X17679936Y29668300D01*
X17679934Y29668299D01*
X17627934Y29657957D01*
X17627933Y29657957D01*
X17568954Y29618548D01*
X17568952Y29618546D01*
X17529545Y29559569D01*
X17519200Y29507560D01*
X17519200Y28572437D01*
X17519201Y28572435D01*
X17529543Y28520435D01*
X17529543Y28520434D01*
X17529544Y28520432D01*
X17529545Y28520431D01*
X17568953Y28461453D01*
X17627931Y28422045D01*
X17679939Y28411700D01*
X18515060Y28411701D01*
X18515063Y28411701D01*
X18515065Y28411702D01*
X18567065Y28422044D01*
X18567066Y28422044D01*
X18567066Y28422045D01*
X18567069Y28422045D01*
X18626047Y28461453D01*
X18665455Y28520431D01*
X18675800Y28572439D01*
X18675799Y29507560D01*
X18675799Y29507561D01*
X18675799Y29507564D01*
X18675798Y29507566D01*
X18665456Y29559566D01*
X18665456Y29559567D01*
X18665455Y29559569D01*
X18626047Y29618547D01*
X18567069Y29657955D01*
X18515061Y29668300D01*
X18515059Y29668300D01*
X18452600Y29668300D01*
X18396099Y29688865D01*
X18366035Y29740936D01*
X18364700Y29756200D01*
X18364700Y30025648D01*
X18364700Y30025649D01*
X18324021Y30123857D01*
X18292962Y30154916D01*
X18248857Y30199022D01*
X18248857Y30199021D01*
X17876545Y30571333D01*
X17851134Y30625827D01*
X17850800Y30633488D01*
X17850800Y31108400D01*
X17850800Y31108404D01*
X17840087Y31181935D01*
X17813419Y31236485D01*
X17784638Y31295358D01*
X17784636Y31295360D01*
X17784636Y31295361D01*
X17695361Y31384636D01*
X17695359Y31384637D01*
X17695357Y31384639D01*
X17588994Y31436637D01*
X17547266Y31479927D01*
X17539700Y31515605D01*
X17539700Y32931099D01*
X21431801Y32931099D01*
X21431801Y32718408D01*
X21434511Y32689500D01*
X21434514Y32689487D01*
X21477143Y32567659D01*
X21553795Y32463800D01*
X21553799Y32463796D01*
X21657658Y32387143D01*
X21779489Y32344513D01*
X21779494Y32344512D01*
X21808413Y32341801D01*
X21996100Y32341801D01*
X21996100Y32931099D01*
X22173900Y32931099D01*
X22173900Y32341802D01*
X22173901Y32341801D01*
X22361582Y32341801D01*
X22361592Y32341802D01*
X22390500Y32344512D01*
X22390513Y32344515D01*
X22512341Y32387144D01*
X22616200Y32463796D01*
X22616204Y32463800D01*
X22692857Y32567659D01*
X22735487Y32689490D01*
X22735488Y32689495D01*
X22738199Y32718413D01*
X22738200Y32718415D01*
X22738200Y32931099D01*
X22738199Y32931100D01*
X22173901Y32931100D01*
X22173900Y32931099D01*
X21996100Y32931099D01*
X21996099Y32931100D01*
X21431802Y32931100D01*
X21431801Y32931099D01*
X17539700Y32931099D01*
X17539700Y32932948D01*
X17539700Y32932949D01*
X17499021Y33031157D01*
X17462106Y33068072D01*
X17423857Y33106322D01*
X17423857Y33106321D01*
X16816183Y33713995D01*
X16790772Y33768489D01*
X16806335Y33826567D01*
X16855588Y33861055D01*
X16878338Y33864050D01*
X21743874Y33864050D01*
X21800375Y33843485D01*
X21830439Y33791414D01*
X21819998Y33732200D01*
X21773938Y33693551D01*
X21772905Y33693183D01*
X21657658Y33652857D01*
X21553799Y33576205D01*
X21553795Y33576201D01*
X21477142Y33472342D01*
X21434512Y33350511D01*
X21434511Y33350506D01*
X21431800Y33321588D01*
X21431800Y33108901D01*
X21431801Y33108900D01*
X22738198Y33108900D01*
X22738199Y33108901D01*
X22738199Y33301738D01*
X23006700Y33301738D01*
X23006700Y32738264D01*
X23006701Y32738262D01*
X23021657Y32643823D01*
X23021657Y32643822D01*
X23021658Y32643820D01*
X23079657Y32529991D01*
X23169991Y32439657D01*
X23179803Y32434658D01*
X23220811Y32390685D01*
X23227800Y32356337D01*
X23227800Y31600455D01*
X23207235Y31543954D01*
X23157047Y31514244D01*
X23125433Y31507957D01*
X23066454Y31468548D01*
X23066452Y31468546D01*
X23027045Y31409569D01*
X23016700Y31357560D01*
X23016700Y30122437D01*
X23016701Y30122435D01*
X23027043Y30070435D01*
X23027043Y30070434D01*
X23027044Y30070432D01*
X23027045Y30070431D01*
X23066453Y30011453D01*
X23125431Y29972045D01*
X23177439Y29961700D01*
X23812560Y29961701D01*
X23812563Y29961701D01*
X23812565Y29961702D01*
X23864565Y29972044D01*
X23864566Y29972044D01*
X23864566Y29972045D01*
X23864569Y29972045D01*
X23923547Y30011453D01*
X23962955Y30070431D01*
X23973300Y30122439D01*
X23973300Y30651099D01*
X24261800Y30651099D01*
X24261800Y30119988D01*
X24273589Y30060718D01*
X24273590Y30060715D01*
X24318500Y29993503D01*
X24318502Y29993501D01*
X24385714Y29948591D01*
X24385717Y29948590D01*
X24444988Y29936800D01*
X24676099Y29936800D01*
X24676100Y29936801D01*
X24676100Y30651099D01*
X24853900Y30651099D01*
X24853900Y29936801D01*
X24853901Y29936800D01*
X25085012Y29936800D01*
X25144282Y29948590D01*
X25144285Y29948591D01*
X25211497Y29993501D01*
X25211499Y29993503D01*
X25256409Y30060715D01*
X25256410Y30060718D01*
X25268200Y30119988D01*
X25268200Y30651099D01*
X25268199Y30651100D01*
X24853901Y30651100D01*
X24853900Y30651099D01*
X24676100Y30651099D01*
X24676099Y30651100D01*
X24261801Y30651100D01*
X24261800Y30651099D01*
X23973300Y30651099D01*
X23973299Y31357560D01*
X23973299Y31357561D01*
X23973299Y31357564D01*
X23973298Y31357566D01*
X23972811Y31360013D01*
X24261800Y31360013D01*
X24261800Y30828901D01*
X24261801Y30828900D01*
X24676099Y30828900D01*
X24676100Y30828901D01*
X24676100Y31543199D01*
X24853900Y31543199D01*
X24853900Y30828901D01*
X24853901Y30828900D01*
X25268199Y30828900D01*
X25268200Y30828901D01*
X25268200Y31360013D01*
X25256410Y31419283D01*
X25256409Y31419286D01*
X25211499Y31486498D01*
X25211497Y31486500D01*
X25144285Y31531410D01*
X25144282Y31531411D01*
X25085012Y31543200D01*
X24853901Y31543200D01*
X24853900Y31543199D01*
X24676100Y31543199D01*
X24676099Y31543200D01*
X24444988Y31543200D01*
X24385717Y31531411D01*
X24385714Y31531410D01*
X24318502Y31486500D01*
X24318500Y31486498D01*
X24273590Y31419286D01*
X24273589Y31419283D01*
X24261800Y31360013D01*
X23972811Y31360013D01*
X23962956Y31409566D01*
X23962956Y31409567D01*
X23956462Y31419286D01*
X23923547Y31468547D01*
X23864569Y31507955D01*
X23864568Y31507956D01*
X23832952Y31514244D01*
X23781548Y31545436D01*
X23762200Y31600455D01*
X23762200Y32278801D01*
X23782765Y32335302D01*
X23834836Y32365366D01*
X23850100Y32366701D01*
X23891737Y32366701D01*
X23891738Y32366701D01*
X23986180Y32381658D01*
X24100009Y32439657D01*
X24190343Y32529991D01*
X24248342Y32643820D01*
X24263300Y32738261D01*
X24263299Y33301738D01*
X24248342Y33396180D01*
X24190343Y33510009D01*
X24100009Y33600343D01*
X23986180Y33658342D01*
X23986178Y33658343D01*
X23986177Y33658343D01*
X23927282Y33667671D01*
X23891739Y33673300D01*
X23891737Y33673300D01*
X23378263Y33673300D01*
X23378261Y33673299D01*
X23283822Y33658343D01*
X23169992Y33600344D01*
X23079656Y33510008D01*
X23021657Y33396178D01*
X23006700Y33301738D01*
X22738199Y33301738D01*
X22738199Y33321582D01*
X22738198Y33321593D01*
X22735488Y33350501D01*
X22735485Y33350514D01*
X22692856Y33472342D01*
X22616204Y33576201D01*
X22616200Y33576205D01*
X22512341Y33652858D01*
X22397096Y33693183D01*
X22350557Y33731254D01*
X22339379Y33790333D01*
X22368791Y33842776D01*
X22425031Y33864043D01*
X22426127Y33864050D01*
X24935412Y33864050D01*
X24991913Y33843485D01*
X24997567Y33838305D01*
X25742055Y33093817D01*
X25767466Y33039323D01*
X25767800Y33031662D01*
X25767800Y31600455D01*
X25747235Y31543954D01*
X25697047Y31514244D01*
X25665433Y31507957D01*
X25606454Y31468548D01*
X25606452Y31468546D01*
X25567045Y31409569D01*
X25556700Y31357560D01*
X25556700Y30122437D01*
X25556701Y30122435D01*
X25567043Y30070435D01*
X25567043Y30070434D01*
X25567044Y30070432D01*
X25567045Y30070431D01*
X25606453Y30011453D01*
X25665431Y29972045D01*
X25717439Y29961700D01*
X25816327Y29961701D01*
X25872826Y29941137D01*
X25902890Y29889066D01*
X25892450Y29829852D01*
X25848262Y29792774D01*
X25848373Y29792531D01*
X25847497Y29792132D01*
X25846390Y29791202D01*
X25843082Y29790116D01*
X25842653Y29789920D01*
X25731794Y29718675D01*
X25731789Y29718671D01*
X25675396Y29653588D01*
X25622854Y29624354D01*
X25608965Y29623250D01*
X19826828Y29623250D01*
X19770327Y29643815D01*
X19764673Y29648995D01*
X19335865Y30077803D01*
X19310454Y30132297D01*
X19326017Y30190375D01*
X19340467Y30204957D01*
X19340210Y30205214D01*
X19345358Y30210363D01*
X19345361Y30210364D01*
X19434636Y30299639D01*
X19490087Y30413065D01*
X19500800Y30486596D01*
X19500800Y30638754D01*
X20174487Y30638754D01*
X20174487Y30638747D01*
X20193240Y30508311D01*
X20193241Y30508306D01*
X20193242Y30508304D01*
X20203154Y30486601D01*
X20247989Y30388425D01*
X20279243Y30352357D01*
X20334291Y30288828D01*
X20334293Y30288827D01*
X20334294Y30288826D01*
X20445153Y30217581D01*
X20445154Y30217581D01*
X20445157Y30217579D01*
X20531282Y30192291D01*
X20571601Y30180451D01*
X20571604Y30180451D01*
X20571606Y30180450D01*
X20571607Y30180450D01*
X20703393Y30180450D01*
X20703394Y30180450D01*
X20703396Y30180451D01*
X20703398Y30180451D01*
X20737195Y30190375D01*
X20829843Y30217579D01*
X20940709Y30288828D01*
X21027011Y30388426D01*
X21032940Y30401409D01*
X21042078Y30421416D01*
X21084256Y30464268D01*
X21122034Y30472800D01*
X21658801Y30472800D01*
X21715302Y30452235D01*
X21745366Y30400164D01*
X21746701Y30384900D01*
X21746701Y30122435D01*
X21757043Y30070435D01*
X21757043Y30070434D01*
X21757044Y30070432D01*
X21757045Y30070431D01*
X21796453Y30011453D01*
X21855431Y29972045D01*
X21907439Y29961700D01*
X22542560Y29961701D01*
X22542563Y29961701D01*
X22542565Y29961702D01*
X22594565Y29972044D01*
X22594566Y29972044D01*
X22594566Y29972045D01*
X22594569Y29972045D01*
X22653547Y30011453D01*
X22692955Y30070431D01*
X22703300Y30122439D01*
X22703299Y31357560D01*
X22703299Y31357561D01*
X22703299Y31357564D01*
X22703298Y31357566D01*
X22692956Y31409566D01*
X22692956Y31409567D01*
X22686462Y31419286D01*
X22653547Y31468547D01*
X22594569Y31507955D01*
X22542561Y31518300D01*
X22542559Y31518300D01*
X21907436Y31518300D01*
X21907434Y31518299D01*
X21855434Y31507957D01*
X21855433Y31507957D01*
X21796454Y31468548D01*
X21796452Y31468546D01*
X21757045Y31409569D01*
X21746700Y31357560D01*
X21746700Y31095100D01*
X21726135Y31038599D01*
X21674064Y31008535D01*
X21658800Y31007200D01*
X20937688Y31007200D01*
X20890166Y31021154D01*
X20829844Y31059921D01*
X20829841Y31059922D01*
X20703398Y31097050D01*
X20703394Y31097050D01*
X20571606Y31097050D01*
X20571601Y31097050D01*
X20445157Y31059921D01*
X20445153Y31059920D01*
X20334294Y30988675D01*
X20334289Y30988670D01*
X20247989Y30889076D01*
X20193242Y30769196D01*
X20193240Y30769190D01*
X20174487Y30638754D01*
X19500800Y30638754D01*
X19500800Y31108404D01*
X19490087Y31181935D01*
X19463419Y31236485D01*
X19434638Y31295358D01*
X19434636Y31295360D01*
X19434636Y31295361D01*
X19345361Y31384636D01*
X19345359Y31384637D01*
X19345357Y31384639D01*
X19231940Y31440085D01*
X19231938Y31440086D01*
X19231936Y31440087D01*
X19231935Y31440087D01*
X19158404Y31450800D01*
X18686596Y31450800D01*
X18613065Y31440087D01*
X18613063Y31440087D01*
X18613061Y31440086D01*
X18613059Y31440085D01*
X18499642Y31384639D01*
X18410361Y31295358D01*
X18354915Y31181941D01*
X18354914Y31181939D01*
X18354913Y31181937D01*
X18354913Y31181935D01*
X18344200Y31108404D01*
X18344200Y30486596D01*
X18354913Y30413065D01*
X18354913Y30413064D01*
X18354914Y30413062D01*
X18354915Y30413060D01*
X18410361Y30299643D01*
X18410363Y30299641D01*
X18410364Y30299639D01*
X18499639Y30210364D01*
X18613065Y30154913D01*
X18613068Y30154913D01*
X18618705Y30152157D01*
X18660433Y30108867D01*
X18664689Y30088797D01*
X18666311Y30089119D01*
X18668000Y30080626D01*
X18706743Y29987090D01*
X18706744Y29987089D01*
X18706745Y29987087D01*
X19540837Y29152995D01*
X19634377Y29114249D01*
X19745854Y29114249D01*
X19745862Y29114250D01*
X20631663Y29114250D01*
X20688164Y29093685D01*
X20718228Y29041614D01*
X20707787Y28982400D01*
X20693821Y28964200D01*
X20438817Y28709195D01*
X19323665Y27594045D01*
X19269171Y27568634D01*
X19261510Y27568300D01*
X18629936Y27568300D01*
X18629934Y27568299D01*
X18577934Y27557957D01*
X18577933Y27557957D01*
X18518954Y27518548D01*
X18518953Y27518547D01*
X18479545Y27459569D01*
X18472965Y27426486D01*
X18469200Y27407560D01*
X18469200Y26472437D01*
X18469201Y26472435D01*
X18479543Y26420435D01*
X18479543Y26420434D01*
X18479544Y26420432D01*
X18479545Y26420431D01*
X18518953Y26361453D01*
X18577931Y26322045D01*
X18629939Y26311700D01*
X18692400Y26311701D01*
X18748900Y26291137D01*
X18778964Y26239066D01*
X18780300Y26223801D01*
X18780300Y25823700D01*
X18759735Y25767199D01*
X18707664Y25737135D01*
X18692400Y25735800D01*
X18686596Y25735800D01*
X18613065Y25725087D01*
X18613063Y25725087D01*
X18613061Y25725086D01*
X18613059Y25725085D01*
X18499642Y25669639D01*
X18410361Y25580358D01*
X18354915Y25466941D01*
X18354914Y25466939D01*
X18354913Y25466937D01*
X18354913Y25466935D01*
X18344200Y25393404D01*
X18344200Y24771596D01*
X18354913Y24698065D01*
X18354913Y24698064D01*
X18354914Y24698062D01*
X18354915Y24698060D01*
X18410361Y24584643D01*
X18410363Y24584641D01*
X18410364Y24584639D01*
X18499639Y24495364D01*
X18499640Y24495364D01*
X18499642Y24495362D01*
X18567008Y24462429D01*
X18613065Y24439913D01*
X18686596Y24429200D01*
X18686600Y24429200D01*
X19158399Y24429200D01*
X19158404Y24429200D01*
X19231935Y24439913D01*
X19345361Y24495364D01*
X19434636Y24584639D01*
X19490087Y24698065D01*
X19500800Y24771596D01*
X19500800Y25393404D01*
X19490087Y25466935D01*
X19448550Y25551900D01*
X19434637Y25580360D01*
X19340445Y25674553D01*
X19315034Y25729046D01*
X19314700Y25736707D01*
X19314700Y26223801D01*
X19335265Y26280302D01*
X19387336Y26310366D01*
X19402600Y26311701D01*
X19465064Y26311701D01*
X19465065Y26311702D01*
X19517065Y26322044D01*
X19517066Y26322044D01*
X19517066Y26322045D01*
X19517069Y26322045D01*
X19576047Y26361453D01*
X19615455Y26420431D01*
X19625800Y26472439D01*
X19625799Y27104014D01*
X19646364Y27160514D01*
X19651545Y27166168D01*
X19731296Y27245918D01*
X19785790Y27271329D01*
X19843868Y27255766D01*
X19878355Y27206513D01*
X19881350Y27183763D01*
X19881350Y23302612D01*
X19860785Y23246111D01*
X19855605Y23240457D01*
X19482024Y22866877D01*
X19478478Y22865224D01*
X19472659Y22857512D01*
X18669543Y22054395D01*
X18615049Y22028984D01*
X18607388Y22028650D01*
X13886375Y22028650D01*
X13780077Y22028650D01*
X13739399Y22011801D01*
X13681870Y21987972D01*
X10393643Y18699745D01*
X10393642Y18699746D01*
X10318480Y18624583D01*
X10318478Y18624581D01*
X10277800Y18526373D01*
X10277800Y7657617D01*
X10257235Y7601116D01*
X10205164Y7571052D01*
X10165136Y7573278D01*
X10067150Y7602049D01*
X10067144Y7602050D01*
X9935356Y7602050D01*
X9935355Y7602050D01*
X9859814Y7579869D01*
X9799808Y7583683D01*
X9756292Y7625176D01*
X9747150Y7664209D01*
X9747150Y8860698D01*
X9747150Y8860699D01*
X9706471Y8958907D01*
X9682515Y8982863D01*
X9631307Y9034072D01*
X9631307Y9034071D01*
X9366545Y9298833D01*
X9341134Y9353327D01*
X9340800Y9360988D01*
X9340800Y9835900D01*
X9340800Y9835904D01*
X9330087Y9909435D01*
X9308462Y9953670D01*
X9274638Y10022858D01*
X9274636Y10022860D01*
X9274636Y10022861D01*
X9185361Y10112136D01*
X9185359Y10112137D01*
X9185357Y10112139D01*
X9071940Y10167585D01*
X9071938Y10167586D01*
X9071936Y10167587D01*
X9071935Y10167587D01*
X8998404Y10178300D01*
X8526596Y10178300D01*
X8453065Y10167587D01*
X8453063Y10167587D01*
X8453061Y10167586D01*
X8453059Y10167585D01*
X8339642Y10112139D01*
X8250361Y10022858D01*
X8194915Y9909441D01*
X8194914Y9909439D01*
X8194913Y9909437D01*
X8194913Y9909435D01*
X8184200Y9835904D01*
X8184200Y9214096D01*
X8194913Y9140565D01*
X8194913Y9140564D01*
X8194914Y9140562D01*
X8194915Y9140560D01*
X8250361Y9027143D01*
X8250363Y9027141D01*
X8250364Y9027139D01*
X8339639Y8937864D01*
X8339640Y8937864D01*
X8339642Y8937862D01*
X8440442Y8888584D01*
X8453065Y8882413D01*
X8526596Y8871700D01*
X8526600Y8871700D01*
X9001512Y8871700D01*
X9058013Y8851135D01*
X9063667Y8845955D01*
X9187005Y8722617D01*
X9212416Y8668123D01*
X9212750Y8660462D01*
X9212750Y6818149D01*
X9216194Y6809835D01*
X9218815Y6749765D01*
X9182210Y6702064D01*
X9134984Y6688300D01*
X8877436Y6688300D01*
X8877434Y6688299D01*
X8825431Y6677957D01*
X8825429Y6677956D01*
X8818830Y6673546D01*
X8760426Y6659257D01*
X8721165Y6673548D01*
X8716365Y6676755D01*
X8714568Y6677956D01*
X8672756Y6686272D01*
X8662561Y6688300D01*
X8662559Y6688300D01*
X8027437Y6688300D01*
X8027437Y6688299D01*
X8018038Y6686430D01*
X7958611Y6695581D01*
X7952062Y6699554D01*
X7949284Y6701410D01*
X7949282Y6701411D01*
X7890012Y6713200D01*
X7658901Y6713200D01*
X7658900Y6713199D01*
X7658900Y6009000D01*
X7638335Y5952499D01*
X7586264Y5922435D01*
X7571000Y5921100D01*
X7569000Y5921100D01*
X7512499Y5941665D01*
X7482435Y5993736D01*
X7481100Y6009000D01*
X7481100Y6713199D01*
X7481099Y6713200D01*
X7249988Y6713200D01*
X7190717Y6701411D01*
X7190714Y6701410D01*
X7123502Y6656500D01*
X7123500Y6656498D01*
X7078590Y6589286D01*
X7078589Y6589283D01*
X7069756Y6544876D01*
X7038563Y6493473D01*
X6981627Y6474146D01*
X6925588Y6495939D01*
X6921405Y6499856D01*
X6909391Y6511870D01*
X6798296Y6586102D01*
X6798294Y6586103D01*
X6798291Y6586105D01*
X6674857Y6637232D01*
X6674849Y6637235D01*
X6564132Y6659257D01*
X6543807Y6663300D01*
X6410193Y6663300D01*
X6389868Y6659257D01*
X6279150Y6637235D01*
X6279142Y6637232D01*
X6155709Y6586105D01*
X6155707Y6586105D01*
X6044611Y6511872D01*
X5950128Y6417389D01*
X5875895Y6306293D01*
X5875895Y6306291D01*
X5824768Y6182858D01*
X5824765Y6182850D01*
X5801936Y6068076D01*
X5798700Y6051807D01*
X5798700Y4818193D01*
X5802757Y4797798D01*
X5824765Y4687151D01*
X5824768Y4687143D01*
X5875895Y4563710D01*
X5875895Y4563708D01*
X5929827Y4482994D01*
X5950130Y4452609D01*
X6044609Y4358130D01*
X6155704Y4283898D01*
X6155706Y4283897D01*
X6155708Y4283896D01*
X6279142Y4232769D01*
X6279150Y4232766D01*
X6345116Y4219645D01*
X6410193Y4206700D01*
X6410195Y4206700D01*
X6543805Y4206700D01*
X6543807Y4206700D01*
X6630380Y4223921D01*
X6674849Y4232766D01*
X6674850Y4232767D01*
X6674853Y4232767D01*
X6798291Y4283896D01*
X6798292Y4283896D01*
X6798293Y4283897D01*
X6798296Y4283898D01*
X6909391Y4358130D01*
X7003870Y4452609D01*
X7078102Y4563704D01*
X7129233Y4687147D01*
X7155300Y4818193D01*
X7155300Y4818204D01*
X7155578Y4821022D01*
X7156063Y4822036D01*
X7156142Y4822428D01*
X7156242Y4822408D01*
X7181576Y4875238D01*
X7236342Y4900057D01*
X7294248Y4883868D01*
X7327850Y4834757D01*
X7328009Y4834799D01*
X7328129Y4834348D01*
X7328201Y4834244D01*
X7328315Y4833654D01*
X7368718Y4682867D01*
X7444482Y4551639D01*
X7444485Y4551635D01*
X7551635Y4444485D01*
X7682865Y4368719D01*
X7829234Y4329500D01*
X7980765Y4329500D01*
X7980766Y4329500D01*
X8127135Y4368719D01*
X8258365Y4444485D01*
X8365515Y4551635D01*
X8394773Y4602313D01*
X8440831Y4640960D01*
X8500958Y4640962D01*
X8533051Y4620517D01*
X8990877Y4162691D01*
X9071325Y4116245D01*
X9161053Y4092202D01*
X9161054Y4092202D01*
X12428946Y4092202D01*
X12428947Y4092202D01*
X12518675Y4116245D01*
X12599123Y4162691D01*
X13056949Y4620519D01*
X13111441Y4645927D01*
X13169519Y4630366D01*
X13195225Y4602313D01*
X13224482Y4551639D01*
X13224483Y4551638D01*
X13224485Y4551635D01*
X13331635Y4444485D01*
X13462865Y4368719D01*
X13609234Y4329500D01*
X13760765Y4329500D01*
X13760766Y4329500D01*
X13907135Y4368719D01*
X14038365Y4444485D01*
X14145515Y4551635D01*
X14221281Y4682865D01*
X14260500Y4829234D01*
X14260500Y4829235D01*
X14261991Y4834799D01*
X14265051Y4833979D01*
X14287550Y4877212D01*
X14343097Y4900230D01*
X14400444Y4882157D01*
X14432758Y4831451D01*
X14434420Y4821034D01*
X14434699Y4818198D01*
X14460765Y4687151D01*
X14460768Y4687143D01*
X14511895Y4563710D01*
X14511895Y4563708D01*
X14565827Y4482994D01*
X14586130Y4452609D01*
X14680609Y4358130D01*
X14791704Y4283898D01*
X14791706Y4283897D01*
X14791708Y4283896D01*
X14915142Y4232769D01*
X14915150Y4232766D01*
X14981116Y4219645D01*
X15046193Y4206700D01*
X15046195Y4206700D01*
X15179805Y4206700D01*
X15179807Y4206700D01*
X15266380Y4223921D01*
X15310849Y4232766D01*
X15310850Y4232767D01*
X15310853Y4232767D01*
X15434291Y4283896D01*
X15434292Y4283896D01*
X15434293Y4283897D01*
X15434296Y4283898D01*
X15545391Y4358130D01*
X15639870Y4452609D01*
X15714102Y4563704D01*
X15765233Y4687147D01*
X15791300Y4818193D01*
X15791300Y6051807D01*
X15765233Y6182853D01*
X15714104Y6306292D01*
X15714104Y6306293D01*
X15639871Y6417389D01*
X15639870Y6417391D01*
X15545391Y6511870D01*
X15434296Y6586102D01*
X15434294Y6586103D01*
X15434291Y6586105D01*
X15310857Y6637232D01*
X15310849Y6637235D01*
X15200132Y6659257D01*
X15179807Y6663300D01*
X15046193Y6663300D01*
X15025868Y6659257D01*
X14915150Y6637235D01*
X14915142Y6637232D01*
X14791709Y6586105D01*
X14791707Y6586105D01*
X14680610Y6511871D01*
X14668607Y6499868D01*
X14614112Y6474459D01*
X14556034Y6490023D01*
X14521548Y6539278D01*
X14520243Y6544877D01*
X14511410Y6589283D01*
X14511409Y6589286D01*
X14466499Y6656498D01*
X14466497Y6656500D01*
X14399285Y6701410D01*
X14399282Y6701411D01*
X14340012Y6713200D01*
X14108901Y6713200D01*
X14108900Y6713199D01*
X14108900Y6009000D01*
X14088335Y5952499D01*
X14036264Y5922435D01*
X14021000Y5921100D01*
X14019000Y5921100D01*
X13962499Y5941665D01*
X13932435Y5993736D01*
X13931100Y6009000D01*
X13931100Y6713199D01*
X13931099Y6713200D01*
X13699988Y6713200D01*
X13640713Y6701410D01*
X13637933Y6699552D01*
X13633770Y6698534D01*
X13632716Y6698097D01*
X13632648Y6698260D01*
X13579528Y6685265D01*
X13571957Y6686431D01*
X13562561Y6688300D01*
X13562560Y6688300D01*
X12927436Y6688300D01*
X12917243Y6686272D01*
X12857816Y6695422D01*
X12818175Y6740631D01*
X12812200Y6772484D01*
X12812200Y6797560D01*
X16276700Y6797560D01*
X16276700Y5562437D01*
X16276701Y5562435D01*
X16287043Y5510435D01*
X16287043Y5510434D01*
X16287044Y5510432D01*
X16287045Y5510431D01*
X16326453Y5451453D01*
X16385431Y5412045D01*
X16437439Y5401700D01*
X18972560Y5401701D01*
X18972563Y5401701D01*
X18972565Y5401702D01*
X19024565Y5412044D01*
X19024566Y5412044D01*
X19024566Y5412045D01*
X19024569Y5412045D01*
X19083547Y5451453D01*
X19122955Y5510431D01*
X19133300Y5562439D01*
X19133300Y5645060D01*
X26396700Y5645060D01*
X26396700Y3409937D01*
X26396701Y3409935D01*
X26407043Y3357935D01*
X26407043Y3357934D01*
X26407044Y3357932D01*
X26407045Y3357931D01*
X26446453Y3298953D01*
X26505431Y3259545D01*
X26557439Y3249200D01*
X27792560Y3249201D01*
X27792563Y3249201D01*
X27792565Y3249202D01*
X27844565Y3259544D01*
X27844566Y3259544D01*
X27844566Y3259545D01*
X27844569Y3259545D01*
X27903547Y3298953D01*
X27942955Y3357931D01*
X27953300Y3409939D01*
X27953300Y4201417D01*
X29224500Y4201417D01*
X29224500Y4053584D01*
X29253340Y3908591D01*
X29253342Y3908587D01*
X29309914Y3772007D01*
X29309916Y3772004D01*
X29392045Y3649089D01*
X29392046Y3649088D01*
X29392049Y3649084D01*
X29496584Y3544549D01*
X29496587Y3544547D01*
X29496588Y3544546D01*
X29619503Y3462417D01*
X29619506Y3462415D01*
X29687796Y3434129D01*
X29756087Y3405842D01*
X29756088Y3405842D01*
X29756090Y3405841D01*
X29829076Y3391324D01*
X29901082Y3377000D01*
X29901084Y3377000D01*
X30048916Y3377000D01*
X30048918Y3377000D01*
X30144708Y3396055D01*
X30193909Y3405841D01*
X30193909Y3405842D01*
X30193913Y3405842D01*
X30330495Y3462416D01*
X30453416Y3544549D01*
X30557951Y3649084D01*
X30640084Y3772005D01*
X30696658Y3908587D01*
X30725500Y4053582D01*
X30725500Y4201417D01*
X37224500Y4201417D01*
X37224500Y4053584D01*
X37253340Y3908591D01*
X37253342Y3908587D01*
X37309914Y3772007D01*
X37309916Y3772004D01*
X37392045Y3649089D01*
X37392046Y3649088D01*
X37392049Y3649084D01*
X37496584Y3544549D01*
X37496587Y3544547D01*
X37496588Y3544546D01*
X37619503Y3462417D01*
X37619506Y3462415D01*
X37687796Y3434129D01*
X37756087Y3405842D01*
X37756088Y3405842D01*
X37756090Y3405841D01*
X37829076Y3391324D01*
X37901082Y3377000D01*
X37901084Y3377000D01*
X38048916Y3377000D01*
X38048918Y3377000D01*
X38144708Y3396055D01*
X38193909Y3405841D01*
X38193909Y3405842D01*
X38193913Y3405842D01*
X38330495Y3462416D01*
X38453416Y3544549D01*
X38557951Y3649084D01*
X38640084Y3772005D01*
X38696658Y3908587D01*
X38725500Y4053582D01*
X38725500Y4201418D01*
X38709093Y4283898D01*
X38696659Y4346410D01*
X38696658Y4346412D01*
X38696658Y4346413D01*
X38656036Y4444484D01*
X38640085Y4482994D01*
X38640083Y4482997D01*
X38557954Y4605912D01*
X38557953Y4605913D01*
X38557951Y4605916D01*
X38453416Y4710451D01*
X38453412Y4710454D01*
X38453411Y4710455D01*
X38330496Y4792584D01*
X38330493Y4792586D01*
X38193913Y4849158D01*
X38193909Y4849160D01*
X38084919Y4870839D01*
X38048918Y4878000D01*
X37901082Y4878000D01*
X37869056Y4871630D01*
X37756090Y4849160D01*
X37756086Y4849158D01*
X37619506Y4792586D01*
X37619503Y4792584D01*
X37496588Y4710455D01*
X37392045Y4605912D01*
X37309916Y4482997D01*
X37309914Y4482994D01*
X37253342Y4346414D01*
X37253340Y4346410D01*
X37224500Y4201417D01*
X30725500Y4201417D01*
X30725500Y4201418D01*
X30709093Y4283898D01*
X30696659Y4346410D01*
X30696658Y4346412D01*
X30696658Y4346413D01*
X30656036Y4444484D01*
X30640085Y4482994D01*
X30640083Y4482997D01*
X30557954Y4605912D01*
X30557953Y4605913D01*
X30557951Y4605916D01*
X30453416Y4710451D01*
X30453412Y4710454D01*
X30453411Y4710455D01*
X30330496Y4792584D01*
X30330493Y4792586D01*
X30193913Y4849158D01*
X30193909Y4849160D01*
X30084919Y4870839D01*
X30048918Y4878000D01*
X29901082Y4878000D01*
X29869056Y4871630D01*
X29756090Y4849160D01*
X29756086Y4849158D01*
X29619506Y4792586D01*
X29619503Y4792584D01*
X29496588Y4710455D01*
X29392045Y4605912D01*
X29309916Y4482997D01*
X29309914Y4482994D01*
X29253342Y4346414D01*
X29253340Y4346410D01*
X29224500Y4201417D01*
X27953300Y4201417D01*
X27953299Y5645060D01*
X41896700Y5645060D01*
X41896700Y3409937D01*
X41896701Y3409935D01*
X41907043Y3357935D01*
X41907043Y3357934D01*
X41907044Y3357932D01*
X41907045Y3357931D01*
X41946453Y3298953D01*
X42005431Y3259545D01*
X42057439Y3249200D01*
X43292560Y3249201D01*
X43292563Y3249201D01*
X43292565Y3249202D01*
X43344565Y3259544D01*
X43344566Y3259544D01*
X43344566Y3259545D01*
X43344569Y3259545D01*
X43403547Y3298953D01*
X43442955Y3357931D01*
X43453300Y3409939D01*
X43453299Y5645060D01*
X43453299Y5645061D01*
X43453299Y5645064D01*
X43453298Y5645066D01*
X43442956Y5697066D01*
X43442956Y5697067D01*
X43442955Y5697069D01*
X43403547Y5756047D01*
X43344569Y5795455D01*
X43292561Y5805800D01*
X43292559Y5805800D01*
X42057436Y5805800D01*
X42057434Y5805799D01*
X42005434Y5795457D01*
X42005433Y5795457D01*
X41946454Y5756048D01*
X41946452Y5756046D01*
X41907045Y5697069D01*
X41896700Y5645060D01*
X27953299Y5645060D01*
X27953299Y5645061D01*
X27953299Y5645064D01*
X27953298Y5645066D01*
X27942956Y5697066D01*
X27942956Y5697067D01*
X27942955Y5697069D01*
X27903547Y5756047D01*
X27844569Y5795455D01*
X27792561Y5805800D01*
X27792559Y5805800D01*
X26557436Y5805800D01*
X26557434Y5805799D01*
X26505434Y5795457D01*
X26505433Y5795457D01*
X26446454Y5756048D01*
X26446452Y5756046D01*
X26407045Y5697069D01*
X26396700Y5645060D01*
X19133300Y5645060D01*
X19133299Y6797560D01*
X19133299Y6797561D01*
X19133299Y6797564D01*
X19133298Y6797566D01*
X19122956Y6849566D01*
X19122956Y6849567D01*
X19122955Y6849569D01*
X19083547Y6908547D01*
X19024569Y6947955D01*
X18972561Y6958300D01*
X18972559Y6958300D01*
X18060100Y6958300D01*
X18003599Y6978865D01*
X17973535Y7030936D01*
X17972200Y7046200D01*
X17972200Y7080413D01*
X17992765Y7136914D01*
X17997934Y7142557D01*
X19519143Y8663766D01*
X20104500Y8663766D01*
X20104500Y8496235D01*
X20137181Y8331927D01*
X20137183Y8331921D01*
X20137184Y8331918D01*
X20201297Y8177137D01*
X20294374Y8037838D01*
X20412838Y7919374D01*
X20552137Y7826297D01*
X20706918Y7762184D01*
X20706923Y7762183D01*
X20706926Y7762182D01*
X20790190Y7745621D01*
X20871233Y7729500D01*
X20871235Y7729500D01*
X21038765Y7729500D01*
X21038767Y7729500D01*
X21146339Y7750898D01*
X21203073Y7762182D01*
X21203074Y7762183D01*
X21203082Y7762184D01*
X21357863Y7826297D01*
X21497162Y7919374D01*
X21615626Y8037838D01*
X21708703Y8177137D01*
X21729564Y8227500D01*
X28825000Y8227500D01*
X28825001Y8227500D01*
X37824999Y8227500D01*
X37825000Y8227500D01*
X37825000Y10227500D01*
X28825000Y10227500D01*
X28825000Y8227500D01*
X21729564Y8227500D01*
X21772816Y8331918D01*
X21805500Y8496233D01*
X21805500Y8663767D01*
X21772932Y8827500D01*
X27225000Y8827500D01*
X27225001Y8827500D01*
X27924999Y8827500D01*
X27925000Y8827500D01*
X27925000Y12827500D01*
X27225000Y12827500D01*
X27225000Y8827500D01*
X21772932Y8827500D01*
X21772816Y8828082D01*
X21708703Y8982863D01*
X21615626Y9122162D01*
X21497162Y9240626D01*
X21357863Y9333703D01*
X21203082Y9397816D01*
X21203079Y9397817D01*
X21203073Y9397819D01*
X21079424Y9422413D01*
X21038767Y9430500D01*
X20871233Y9430500D01*
X20835052Y9423304D01*
X20706926Y9397819D01*
X20706918Y9397816D01*
X20552137Y9333703D01*
X20412840Y9240628D01*
X20294372Y9122160D01*
X20201297Y8982863D01*
X20137184Y8828082D01*
X20137181Y8828074D01*
X20116206Y8722617D01*
X20105367Y8668123D01*
X20104500Y8663766D01*
X19519143Y8663766D01*
X21181521Y10326143D01*
X21222200Y10424351D01*
X21222200Y10530649D01*
X21222200Y11191099D01*
X22751800Y11191099D01*
X22751800Y10659988D01*
X22763589Y10600718D01*
X22763590Y10600715D01*
X22808500Y10533503D01*
X22808502Y10533501D01*
X22875714Y10488591D01*
X22875717Y10488590D01*
X22934988Y10476800D01*
X24116099Y10476800D01*
X24116100Y10476801D01*
X24116100Y11191099D01*
X24293900Y11191099D01*
X24293900Y10476801D01*
X24293901Y10476800D01*
X25475012Y10476800D01*
X25534282Y10488590D01*
X25534285Y10488591D01*
X25601497Y10533501D01*
X25601499Y10533503D01*
X25646409Y10600715D01*
X25646410Y10600718D01*
X25658200Y10659988D01*
X25658200Y11191099D01*
X25658199Y11191100D01*
X24293901Y11191100D01*
X24293900Y11191099D01*
X24116100Y11191099D01*
X24116099Y11191100D01*
X22751801Y11191100D01*
X22751800Y11191099D01*
X21222200Y11191099D01*
X21222200Y11900013D01*
X22751800Y11900013D01*
X22751800Y11368901D01*
X22751801Y11368900D01*
X24116099Y11368900D01*
X24116100Y11368901D01*
X24116100Y12083199D01*
X24293900Y12083199D01*
X24293900Y11368901D01*
X24293901Y11368900D01*
X25658199Y11368900D01*
X25658200Y11368901D01*
X25658200Y11900013D01*
X25646410Y11959283D01*
X25646409Y11959286D01*
X25601499Y12026498D01*
X25601497Y12026500D01*
X25534285Y12071410D01*
X25534282Y12071411D01*
X25475012Y12083200D01*
X24293901Y12083200D01*
X24293900Y12083199D01*
X24116100Y12083199D01*
X24116099Y12083200D01*
X22934988Y12083200D01*
X22875717Y12071411D01*
X22875714Y12071410D01*
X22808502Y12026500D01*
X22808500Y12026498D01*
X22763590Y11959286D01*
X22763589Y11959283D01*
X22751800Y11900013D01*
X21222200Y11900013D01*
X21222200Y12814231D01*
X21242765Y12870732D01*
X21278347Y12896195D01*
X21397724Y12942442D01*
X21455515Y12964830D01*
X21631692Y13073914D01*
X21784826Y13213514D01*
X21909700Y13378875D01*
X22002064Y13564365D01*
X22057138Y13757931D01*
X22058770Y13763666D01*
X22058770Y13763667D01*
X22058769Y13763667D01*
X22058771Y13763670D01*
X22077890Y13970000D01*
X22069652Y14058901D01*
X22355340Y14058901D01*
X22355341Y14058900D01*
X22992900Y14058900D01*
X22987000Y14036880D01*
X22987000Y13903120D01*
X22992900Y13881100D01*
X22355341Y13881100D01*
X22366648Y13759071D01*
X22366648Y13759070D01*
X22424616Y13555336D01*
X22519039Y13365709D01*
X22646691Y13196671D01*
X22646695Y13196667D01*
X22803235Y13053960D01*
X22803244Y13053954D01*
X22983333Y12942448D01*
X22983347Y12942442D01*
X23180859Y12865925D01*
X23180873Y12865921D01*
X23389080Y12827001D01*
X23389086Y12827000D01*
X23406099Y12827000D01*
X23406100Y12827001D01*
X23406100Y13467901D01*
X23428120Y13462000D01*
X23561880Y13462000D01*
X23583900Y13467901D01*
X23583900Y12827001D01*
X23583901Y12827000D01*
X23600914Y12827000D01*
X23600919Y12827001D01*
X23809126Y12865921D01*
X23809140Y12865925D01*
X24006652Y12942442D01*
X24006666Y12942448D01*
X24186755Y13053954D01*
X24186764Y13053960D01*
X24343304Y13196667D01*
X24343308Y13196671D01*
X24470960Y13365709D01*
X24565383Y13555336D01*
X24623351Y13759070D01*
X24623351Y13759071D01*
X24634659Y13881100D01*
X23997100Y13881100D01*
X24003000Y13903120D01*
X24003000Y13938599D01*
X26371800Y13938599D01*
X26371800Y13207488D01*
X26383589Y13148218D01*
X26383590Y13148215D01*
X26428500Y13081003D01*
X26428502Y13081001D01*
X26495714Y13036091D01*
X26495717Y13036090D01*
X26554988Y13024300D01*
X27086099Y13024300D01*
X27086100Y13024301D01*
X27086100Y13938599D01*
X27086099Y13938600D01*
X26371801Y13938600D01*
X26371800Y13938599D01*
X24003000Y13938599D01*
X24003000Y14036880D01*
X23997100Y14058900D01*
X24634659Y14058900D01*
X24634659Y14058901D01*
X24623351Y14180930D01*
X24623351Y14180931D01*
X24565383Y14384665D01*
X24470960Y14574292D01*
X24343308Y14743330D01*
X24343304Y14743334D01*
X24229027Y14847513D01*
X26371800Y14847513D01*
X26371800Y14116401D01*
X26371801Y14116400D01*
X27086099Y14116400D01*
X27086100Y14116401D01*
X27086100Y15030699D01*
X27086099Y15030700D01*
X26554988Y15030700D01*
X26495717Y15018911D01*
X26495714Y15018910D01*
X26428502Y14974000D01*
X26428500Y14973998D01*
X26383590Y14906786D01*
X26383589Y14906783D01*
X26371800Y14847513D01*
X24229027Y14847513D01*
X24186764Y14886041D01*
X24186755Y14886047D01*
X24006666Y14997553D01*
X24006652Y14997559D01*
X23809140Y15074076D01*
X23809126Y15074080D01*
X23600919Y15113000D01*
X23583901Y15113000D01*
X23583900Y15112999D01*
X23583900Y14472100D01*
X23561880Y14478000D01*
X23428120Y14478000D01*
X23406100Y14472100D01*
X23406100Y15112999D01*
X23406099Y15113000D01*
X23389080Y15113000D01*
X23180873Y15074080D01*
X23180859Y15074076D01*
X22983347Y14997559D01*
X22983333Y14997553D01*
X22803244Y14886047D01*
X22803235Y14886041D01*
X22646695Y14743334D01*
X22646691Y14743330D01*
X22519039Y14574292D01*
X22424616Y14384665D01*
X22366648Y14180931D01*
X22366648Y14180930D01*
X22355340Y14058901D01*
X22069652Y14058901D01*
X22058771Y14176330D01*
X22057462Y14180930D01*
X22028728Y14281920D01*
X22002064Y14375635D01*
X21909700Y14561125D01*
X21784826Y14726486D01*
X21700837Y14803052D01*
X21631694Y14866085D01*
X21631685Y14866091D01*
X21455517Y14975169D01*
X21455511Y14975172D01*
X21278347Y15043805D01*
X21233090Y15083391D01*
X21222200Y15125769D01*
X21222200Y20966663D01*
X21242765Y21023164D01*
X21247934Y21028807D01*
X22451521Y22232393D01*
X22492200Y22330601D01*
X22492200Y22436899D01*
X22492200Y22771099D01*
X25241801Y22771099D01*
X25241801Y22558408D01*
X25244511Y22529500D01*
X25244514Y22529487D01*
X25287143Y22407659D01*
X25363795Y22303800D01*
X25363799Y22303796D01*
X25467658Y22227143D01*
X25589489Y22184513D01*
X25589494Y22184512D01*
X25618413Y22181801D01*
X25806100Y22181801D01*
X25806100Y22771099D01*
X25983900Y22771099D01*
X25983900Y22181802D01*
X25983901Y22181801D01*
X26171582Y22181801D01*
X26171592Y22181802D01*
X26200500Y22184512D01*
X26200513Y22184515D01*
X26322341Y22227144D01*
X26426200Y22303796D01*
X26426204Y22303800D01*
X26502857Y22407659D01*
X26545487Y22529490D01*
X26545488Y22529495D01*
X26548199Y22558413D01*
X26548200Y22558415D01*
X26548200Y22771099D01*
X26548199Y22771100D01*
X25983901Y22771100D01*
X25983900Y22771099D01*
X25806100Y22771099D01*
X25806099Y22771100D01*
X25241802Y22771100D01*
X25241801Y22771099D01*
X22492200Y22771099D01*
X22492200Y24279546D01*
X22512765Y24336047D01*
X22562953Y24365757D01*
X22594569Y24372045D01*
X22653547Y24411453D01*
X22692955Y24470431D01*
X22703300Y24522439D01*
X22703299Y25757560D01*
X23016700Y25757560D01*
X23016700Y24522437D01*
X23016701Y24522435D01*
X23027043Y24470435D01*
X23027043Y24470434D01*
X23027044Y24470432D01*
X23027045Y24470431D01*
X23066453Y24411453D01*
X23115251Y24378847D01*
X23125431Y24372045D01*
X23157048Y24365756D01*
X23208452Y24334564D01*
X23227800Y24279545D01*
X23227800Y23916061D01*
X23207235Y23859560D01*
X23196000Y23849667D01*
X23196543Y23849040D01*
X23191792Y23844924D01*
X23105488Y23745323D01*
X23050742Y23625446D01*
X23050740Y23625440D01*
X23031987Y23495004D01*
X23031987Y23494997D01*
X23050740Y23364561D01*
X23050742Y23364555D01*
X23105489Y23244675D01*
X23152423Y23190511D01*
X23191791Y23145078D01*
X23191793Y23145077D01*
X23191794Y23145076D01*
X23302653Y23073831D01*
X23302654Y23073831D01*
X23302657Y23073829D01*
X23383899Y23049974D01*
X23429101Y23036701D01*
X23429104Y23036701D01*
X23429106Y23036700D01*
X23429107Y23036700D01*
X23560893Y23036700D01*
X23560894Y23036700D01*
X23560896Y23036701D01*
X23560898Y23036701D01*
X23575927Y23041115D01*
X23687343Y23073829D01*
X23798209Y23145078D01*
X23812515Y23161588D01*
X25241800Y23161588D01*
X25241800Y22948901D01*
X25241801Y22948900D01*
X25806099Y22948900D01*
X25806100Y22948901D01*
X25806100Y23538199D01*
X25983900Y23538199D01*
X25983900Y22948901D01*
X25983901Y22948900D01*
X26548198Y22948900D01*
X26548199Y22948901D01*
X26548199Y23141738D01*
X26816700Y23141738D01*
X26816700Y22578264D01*
X26816701Y22578262D01*
X26831657Y22483823D01*
X26831657Y22483822D01*
X26831658Y22483820D01*
X26889657Y22369991D01*
X26961555Y22298093D01*
X26986966Y22243600D01*
X26987300Y22235939D01*
X26987300Y21351508D01*
X26987300Y21230992D01*
X26994337Y21204729D01*
X27015590Y21125412D01*
X27018492Y21114584D01*
X27068009Y21028818D01*
X27078750Y21010214D01*
X27279140Y20809824D01*
X27283403Y20805245D01*
X27314443Y20769423D01*
X27319290Y20763829D01*
X27319293Y20763827D01*
X27327694Y20758428D01*
X27337127Y20750827D01*
X27341461Y20747502D01*
X27341463Y20747501D01*
X27341465Y20747499D01*
X27371491Y20730165D01*
X27375044Y20727998D01*
X27401683Y20710879D01*
X27430157Y20692579D01*
X27435226Y20691091D01*
X27444107Y20687958D01*
X27445828Y20687245D01*
X27445834Y20687242D01*
X27473401Y20679856D01*
X27475387Y20679299D01*
X27554563Y20656050D01*
X27556603Y20655451D01*
X27556605Y20655450D01*
X27556606Y20655450D01*
X27690468Y20655450D01*
X27698855Y20656050D01*
X30151613Y20656050D01*
X30208114Y20635485D01*
X30238178Y20583414D01*
X30231570Y20531635D01*
X30194492Y20450446D01*
X30194490Y20450440D01*
X30175737Y20320004D01*
X30175737Y20319997D01*
X30194490Y20189561D01*
X30194491Y20189556D01*
X30194492Y20189554D01*
X30249239Y20069676D01*
X30286330Y20026870D01*
X30307789Y19970704D01*
X30307800Y19969309D01*
X30307800Y15693700D01*
X30287235Y15637199D01*
X30235164Y15607135D01*
X30219905Y15605800D01*
X30207438Y15605800D01*
X30207434Y15605799D01*
X30155434Y15595457D01*
X30155433Y15595457D01*
X30096454Y15556048D01*
X30090332Y15549925D01*
X30088671Y15551586D01*
X30049591Y15522936D01*
X29989593Y15526873D01*
X29960786Y15551044D01*
X29959668Y15549925D01*
X29953549Y15556044D01*
X29953547Y15556047D01*
X29894569Y15595455D01*
X29842561Y15605800D01*
X29842559Y15605800D01*
X29107436Y15605800D01*
X29107434Y15605799D01*
X29055434Y15595457D01*
X29055433Y15595457D01*
X28996454Y15556048D01*
X28990332Y15549925D01*
X28988671Y15551586D01*
X28949591Y15522936D01*
X28889593Y15526873D01*
X28860786Y15551044D01*
X28859668Y15549925D01*
X28853549Y15556044D01*
X28853547Y15556047D01*
X28794569Y15595455D01*
X28742561Y15605800D01*
X28742559Y15605800D01*
X28007436Y15605800D01*
X28007434Y15605799D01*
X27955434Y15595457D01*
X27955433Y15595457D01*
X27896454Y15556048D01*
X27896452Y15556046D01*
X27893110Y15551044D01*
X27857045Y15497069D01*
X27846953Y15446330D01*
X27846700Y15445060D01*
X27846700Y15118600D01*
X27826135Y15062099D01*
X27774064Y15032035D01*
X27758800Y15030700D01*
X27263901Y15030700D01*
X27263900Y15030699D01*
X27263900Y13024301D01*
X27263901Y13024300D01*
X27795012Y13024300D01*
X27854282Y13036090D01*
X27854285Y13036091D01*
X27921497Y13081001D01*
X27921499Y13081003D01*
X27966409Y13148215D01*
X27966410Y13148218D01*
X27978200Y13207488D01*
X27978200Y13561301D01*
X27998765Y13617802D01*
X28050836Y13647866D01*
X28066089Y13649201D01*
X28742560Y13649201D01*
X28742564Y13649201D01*
X28742565Y13649202D01*
X28794565Y13659544D01*
X28794566Y13659544D01*
X28794566Y13659545D01*
X28794569Y13659545D01*
X28853547Y13698953D01*
X28853551Y13698960D01*
X28859668Y13705075D01*
X28861329Y13703414D01*
X28900401Y13732063D01*
X28960399Y13728132D01*
X28989212Y13703956D01*
X28990332Y13705075D01*
X28996450Y13698957D01*
X28996453Y13698953D01*
X29055431Y13659545D01*
X29107439Y13649200D01*
X29842560Y13649201D01*
X29842563Y13649201D01*
X29842565Y13649202D01*
X29894565Y13659544D01*
X29894566Y13659544D01*
X29894566Y13659545D01*
X29894569Y13659545D01*
X29953547Y13698953D01*
X29953551Y13698960D01*
X29959668Y13705075D01*
X29961329Y13703414D01*
X30000401Y13732063D01*
X30060399Y13728132D01*
X30089212Y13703956D01*
X30090332Y13705075D01*
X30096450Y13698957D01*
X30096453Y13698953D01*
X30155431Y13659545D01*
X30207439Y13649200D01*
X30942560Y13649201D01*
X30942563Y13649201D01*
X30942565Y13649202D01*
X30994565Y13659544D01*
X30994566Y13659544D01*
X30994566Y13659545D01*
X30994569Y13659545D01*
X31053547Y13698953D01*
X31053548Y13698955D01*
X31058553Y13702299D01*
X31116957Y13716591D01*
X31170883Y13689998D01*
X31176490Y13683013D01*
X31178502Y13681001D01*
X31245714Y13636091D01*
X31245717Y13636090D01*
X31304988Y13624300D01*
X31586099Y13624300D01*
X31586100Y13624301D01*
X31586100Y15630699D01*
X31586099Y15630700D01*
X31304988Y15630700D01*
X31245717Y15618911D01*
X31245714Y15618910D01*
X31178502Y15574000D01*
X31172380Y15567877D01*
X31170570Y15569687D01*
X31131968Y15541395D01*
X31071970Y15545339D01*
X31058553Y15552702D01*
X31053547Y15556047D01*
X30994569Y15595455D01*
X30942561Y15605800D01*
X30942559Y15605800D01*
X30930100Y15605800D01*
X30873599Y15626365D01*
X30843535Y15678436D01*
X30842200Y15693700D01*
X30842200Y19857970D01*
X30862765Y19914471D01*
X30882578Y19931917D01*
X30941959Y19970078D01*
X31028261Y20069676D01*
X31083008Y20189554D01*
X31083284Y20191478D01*
X31101763Y20319997D01*
X31101763Y20320004D01*
X31083009Y20450440D01*
X31083008Y20450441D01*
X31083008Y20450446D01*
X31045930Y20531635D01*
X31041165Y20591573D01*
X31076043Y20640551D01*
X31125887Y20656050D01*
X32812754Y20656050D01*
X32869255Y20635485D01*
X32874909Y20630305D01*
X33495955Y20009259D01*
X33521366Y19954765D01*
X33521700Y19947104D01*
X33521700Y19720764D01*
X33521701Y19720761D01*
X33536657Y19626323D01*
X33536657Y19626322D01*
X33536658Y19626320D01*
X33594657Y19512491D01*
X33666555Y19440593D01*
X33691966Y19386100D01*
X33692300Y19378439D01*
X33692300Y18086561D01*
X33671735Y18030060D01*
X33666565Y18024418D01*
X33618229Y17976081D01*
X33594656Y17952508D01*
X33536657Y17838678D01*
X33521700Y17744239D01*
X33521700Y17514520D01*
X33509924Y17470570D01*
X33448492Y17364166D01*
X33417300Y17247758D01*
X33417300Y15613304D01*
X33399501Y15564405D01*
X33401254Y15563233D01*
X33398077Y15558480D01*
X33397079Y15557749D01*
X33396735Y15556803D01*
X33391555Y15551149D01*
X33390331Y15549925D01*
X33388670Y15551586D01*
X33349582Y15522935D01*
X33289584Y15526877D01*
X33260787Y15551045D01*
X33259668Y15549925D01*
X33253549Y15556044D01*
X33253547Y15556047D01*
X33194569Y15595455D01*
X33142561Y15605800D01*
X33142559Y15605800D01*
X33130100Y15605800D01*
X33073599Y15626365D01*
X33043535Y15678436D01*
X33042200Y15693700D01*
X33042200Y19344407D01*
X33062765Y19400908D01*
X33063604Y19401893D01*
X33092011Y19434676D01*
X33146758Y19554554D01*
X33159205Y19641125D01*
X33165513Y19684997D01*
X33165513Y19685004D01*
X33146759Y19815440D01*
X33146758Y19815441D01*
X33146758Y19815446D01*
X33092011Y19935324D01*
X33092010Y19935325D01*
X33092010Y19935326D01*
X33012684Y20026872D01*
X33005709Y20034922D01*
X33005706Y20034924D01*
X33005705Y20034925D01*
X32894846Y20106170D01*
X32894843Y20106171D01*
X32869304Y20113670D01*
X32768398Y20143300D01*
X32768394Y20143300D01*
X32636606Y20143300D01*
X32636601Y20143300D01*
X32510157Y20106171D01*
X32510153Y20106170D01*
X32399294Y20034925D01*
X32399289Y20034920D01*
X32312989Y19935326D01*
X32258242Y19815446D01*
X32258240Y19815440D01*
X32239487Y19685004D01*
X32239487Y19684997D01*
X32258240Y19554561D01*
X32258241Y19554556D01*
X32258242Y19554554D01*
X32277451Y19512493D01*
X32312989Y19434675D01*
X32342249Y19400908D01*
X32399291Y19335078D01*
X32467422Y19291293D01*
X32503836Y19243448D01*
X32507800Y19217348D01*
X32507800Y15693700D01*
X32487235Y15637199D01*
X32435164Y15607135D01*
X32419905Y15605800D01*
X32407438Y15605800D01*
X32407434Y15605799D01*
X32355434Y15595457D01*
X32355429Y15595455D01*
X32291445Y15552702D01*
X32233041Y15538411D01*
X32179115Y15565004D01*
X32173511Y15571986D01*
X32171497Y15574000D01*
X32104285Y15618910D01*
X32104282Y15618911D01*
X32045012Y15630700D01*
X31763901Y15630700D01*
X31763900Y15630699D01*
X31763900Y13624301D01*
X31763901Y13624300D01*
X32045012Y13624300D01*
X32104282Y13636090D01*
X32104285Y13636091D01*
X32171497Y13681001D01*
X32177620Y13687123D01*
X32179431Y13685312D01*
X32218008Y13713600D01*
X32278007Y13709671D01*
X32291446Y13702299D01*
X32296452Y13698954D01*
X32296453Y13698953D01*
X32355431Y13659545D01*
X32407439Y13649200D01*
X33142560Y13649201D01*
X33142563Y13649201D01*
X33142565Y13649202D01*
X33194565Y13659544D01*
X33194566Y13659544D01*
X33194566Y13659545D01*
X33194569Y13659545D01*
X33253547Y13698953D01*
X33253551Y13698960D01*
X33259668Y13705075D01*
X33261329Y13703414D01*
X33300401Y13732063D01*
X33360399Y13728132D01*
X33389212Y13703956D01*
X33390332Y13705075D01*
X33396450Y13698957D01*
X33396453Y13698953D01*
X33455431Y13659545D01*
X33507439Y13649200D01*
X34242560Y13649201D01*
X34242563Y13649201D01*
X34242565Y13649202D01*
X34294565Y13659544D01*
X34294566Y13659544D01*
X34294566Y13659545D01*
X34294569Y13659545D01*
X34353547Y13698953D01*
X34353551Y13698960D01*
X34359668Y13705075D01*
X34361329Y13703414D01*
X34400401Y13732063D01*
X34460399Y13728132D01*
X34489212Y13703956D01*
X34490332Y13705075D01*
X34496450Y13698957D01*
X34496453Y13698953D01*
X34555431Y13659545D01*
X34607439Y13649200D01*
X35342560Y13649201D01*
X35342563Y13649201D01*
X35342565Y13649202D01*
X35394565Y13659544D01*
X35394566Y13659544D01*
X35394566Y13659545D01*
X35394569Y13659545D01*
X35453547Y13698953D01*
X35453551Y13698960D01*
X35459668Y13705075D01*
X35461329Y13703414D01*
X35500401Y13732063D01*
X35560399Y13728132D01*
X35589212Y13703956D01*
X35590332Y13705075D01*
X35596450Y13698957D01*
X35596453Y13698953D01*
X35655431Y13659545D01*
X35707439Y13649200D01*
X36442560Y13649201D01*
X36442563Y13649201D01*
X36442565Y13649202D01*
X36494565Y13659544D01*
X36494566Y13659544D01*
X36494566Y13659545D01*
X36494569Y13659545D01*
X36553547Y13698953D01*
X36553551Y13698960D01*
X36559668Y13705075D01*
X36561329Y13703414D01*
X36600401Y13732063D01*
X36660399Y13728132D01*
X36689212Y13703956D01*
X36690332Y13705075D01*
X36696450Y13698957D01*
X36696453Y13698953D01*
X36755431Y13659545D01*
X36807439Y13649200D01*
X37542560Y13649201D01*
X37542563Y13649201D01*
X37542565Y13649202D01*
X37594565Y13659544D01*
X37594566Y13659544D01*
X37594566Y13659545D01*
X37594569Y13659545D01*
X37653547Y13698953D01*
X37692955Y13757931D01*
X37703300Y13809939D01*
X37703299Y14845060D01*
X40796700Y14845060D01*
X40796700Y13409937D01*
X40796701Y13409935D01*
X40807043Y13357935D01*
X40807043Y13357934D01*
X40807044Y13357932D01*
X40807045Y13357931D01*
X40846453Y13298953D01*
X40905431Y13259545D01*
X40957439Y13249200D01*
X42592560Y13249201D01*
X42592563Y13249201D01*
X42592565Y13249202D01*
X42644565Y13259544D01*
X42644566Y13259544D01*
X42644566Y13259545D01*
X42644569Y13259545D01*
X42703547Y13298953D01*
X42742955Y13357931D01*
X42753300Y13409939D01*
X42753299Y14845060D01*
X42753299Y14845061D01*
X42753299Y14845064D01*
X42753298Y14845066D01*
X42742956Y14897066D01*
X42742956Y14897067D01*
X42726996Y14920953D01*
X42703547Y14956047D01*
X42644569Y14995455D01*
X42592561Y15005800D01*
X42592559Y15005800D01*
X40957436Y15005800D01*
X40957434Y15005799D01*
X40905434Y14995457D01*
X40905433Y14995457D01*
X40846454Y14956048D01*
X40846453Y14956047D01*
X40807045Y14897069D01*
X40796947Y14846300D01*
X40796700Y14845060D01*
X37703299Y14845060D01*
X37703299Y15445060D01*
X37703299Y15445061D01*
X37703299Y15445064D01*
X37703298Y15445066D01*
X37692956Y15497066D01*
X37692956Y15497067D01*
X37692955Y15497069D01*
X37653547Y15556047D01*
X37594569Y15595455D01*
X37542561Y15605800D01*
X37542559Y15605800D01*
X36807436Y15605800D01*
X36807434Y15605799D01*
X36755434Y15595457D01*
X36755433Y15595457D01*
X36696454Y15556048D01*
X36690332Y15549925D01*
X36688671Y15551586D01*
X36649591Y15522936D01*
X36589593Y15526873D01*
X36560786Y15551044D01*
X36559668Y15549925D01*
X36553549Y15556044D01*
X36553547Y15556047D01*
X36494569Y15595455D01*
X36442561Y15605800D01*
X36442559Y15605800D01*
X35707436Y15605800D01*
X35707434Y15605799D01*
X35655434Y15595457D01*
X35655433Y15595457D01*
X35596454Y15556048D01*
X35590332Y15549925D01*
X35588671Y15551586D01*
X35549591Y15522936D01*
X35489593Y15526873D01*
X35460786Y15551044D01*
X35459668Y15549925D01*
X35453549Y15556044D01*
X35453547Y15556047D01*
X35394569Y15595455D01*
X35342561Y15605800D01*
X35342559Y15605800D01*
X35280100Y15605800D01*
X35223599Y15626365D01*
X35193535Y15678436D01*
X35192200Y15693700D01*
X35192200Y16591060D01*
X47065700Y16591060D01*
X47065700Y15031937D01*
X47065701Y15031935D01*
X47076043Y14979935D01*
X47076043Y14979934D01*
X47076044Y14979932D01*
X47076045Y14979931D01*
X47115453Y14920953D01*
X47174431Y14881545D01*
X47226439Y14871200D01*
X47269899Y14871201D01*
X47326400Y14850637D01*
X47356464Y14798566D01*
X47357800Y14783301D01*
X47357800Y11251700D01*
X47337235Y11195199D01*
X47285164Y11165135D01*
X47269902Y11163800D01*
X47226436Y11163800D01*
X47226434Y11163799D01*
X47174434Y11153457D01*
X47174433Y11153457D01*
X47115454Y11114048D01*
X47115452Y11114046D01*
X47076045Y11055069D01*
X47065700Y11003060D01*
X47065700Y9443937D01*
X47065701Y9443935D01*
X47076043Y9391935D01*
X47076043Y9391934D01*
X47076044Y9391932D01*
X47076045Y9391931D01*
X47115453Y9332953D01*
X47174431Y9293545D01*
X47226439Y9283200D01*
X48023560Y9283201D01*
X48023563Y9283201D01*
X48023565Y9283202D01*
X48075565Y9293544D01*
X48075566Y9293544D01*
X48075566Y9293545D01*
X48075569Y9293545D01*
X48134547Y9332953D01*
X48173955Y9391931D01*
X48184300Y9443939D01*
X48184300Y10134599D01*
X50850800Y10134599D01*
X50850800Y9441488D01*
X50862589Y9382218D01*
X50862590Y9382215D01*
X50907500Y9315003D01*
X50907502Y9315001D01*
X50974714Y9270091D01*
X50974717Y9270090D01*
X51033988Y9258300D01*
X51346099Y9258300D01*
X51346100Y9258301D01*
X51346100Y10134599D01*
X51523900Y10134599D01*
X51523900Y9258301D01*
X51523901Y9258300D01*
X51836012Y9258300D01*
X51895282Y9270090D01*
X51895285Y9270091D01*
X51962497Y9315001D01*
X51962499Y9315003D01*
X52007409Y9382215D01*
X52007410Y9382218D01*
X52019200Y9441488D01*
X52019200Y10134599D01*
X52019199Y10134600D01*
X51523901Y10134600D01*
X51523900Y10134599D01*
X51346100Y10134599D01*
X51346099Y10134600D01*
X50850801Y10134600D01*
X50850800Y10134599D01*
X48184300Y10134599D01*
X48184299Y11003060D01*
X48184299Y11003061D01*
X48184299Y11003064D01*
X48184298Y11003066D01*
X48183811Y11005513D01*
X50850800Y11005513D01*
X50850800Y10312401D01*
X50850801Y10312400D01*
X51346099Y10312400D01*
X51346100Y10312401D01*
X51346100Y11188699D01*
X51523900Y11188699D01*
X51523900Y10312401D01*
X51523901Y10312400D01*
X52019199Y10312400D01*
X52019200Y10312401D01*
X52019200Y11005513D01*
X52007410Y11064783D01*
X52007409Y11064786D01*
X51962499Y11131998D01*
X51962497Y11132000D01*
X51895285Y11176910D01*
X51895282Y11176911D01*
X51836012Y11188700D01*
X51523901Y11188700D01*
X51523900Y11188699D01*
X51346100Y11188699D01*
X51346099Y11188700D01*
X51033988Y11188700D01*
X50974717Y11176911D01*
X50974714Y11176910D01*
X50907502Y11132000D01*
X50907500Y11131998D01*
X50862590Y11064786D01*
X50862589Y11064783D01*
X50850800Y11005513D01*
X48183811Y11005513D01*
X48173956Y11055066D01*
X48173956Y11055067D01*
X48167462Y11064786D01*
X48134547Y11114047D01*
X48075569Y11153455D01*
X48023561Y11163800D01*
X48023559Y11163800D01*
X47980100Y11163800D01*
X47923599Y11184365D01*
X47893535Y11236436D01*
X47892200Y11251700D01*
X47892200Y14783301D01*
X47912765Y14839802D01*
X47964836Y14869866D01*
X47980100Y14871201D01*
X48023564Y14871201D01*
X48023565Y14871202D01*
X48075565Y14881544D01*
X48075566Y14881544D01*
X48075566Y14881545D01*
X48075569Y14881545D01*
X48134547Y14920953D01*
X48173955Y14979931D01*
X48184300Y15031939D01*
X48184300Y15722599D01*
X50850800Y15722599D01*
X50850800Y15029488D01*
X50862589Y14970218D01*
X50862590Y14970215D01*
X50907500Y14903003D01*
X50907502Y14903001D01*
X50974714Y14858091D01*
X50974717Y14858090D01*
X51033988Y14846300D01*
X51346099Y14846300D01*
X51346100Y14846301D01*
X51346100Y15722599D01*
X51523900Y15722599D01*
X51523900Y14846301D01*
X51523901Y14846300D01*
X51836012Y14846300D01*
X51895282Y14858090D01*
X51895285Y14858091D01*
X51962497Y14903001D01*
X51962499Y14903003D01*
X52007409Y14970215D01*
X52007410Y14970218D01*
X52019200Y15029488D01*
X52019200Y15722599D01*
X52019199Y15722600D01*
X51523901Y15722600D01*
X51523900Y15722599D01*
X51346100Y15722599D01*
X51346099Y15722600D01*
X50850801Y15722600D01*
X50850800Y15722599D01*
X48184300Y15722599D01*
X48184299Y16591060D01*
X48184299Y16591061D01*
X48184299Y16591064D01*
X48184298Y16591066D01*
X48183811Y16593513D01*
X50850800Y16593513D01*
X50850800Y15900401D01*
X50850801Y15900400D01*
X51346099Y15900400D01*
X51346100Y15900401D01*
X51346100Y16776699D01*
X51523900Y16776699D01*
X51523900Y15900401D01*
X51523901Y15900400D01*
X52019199Y15900400D01*
X52019200Y15900401D01*
X52019200Y16593513D01*
X52007410Y16652783D01*
X52007409Y16652786D01*
X51962499Y16719998D01*
X51962497Y16720000D01*
X51895285Y16764910D01*
X51895282Y16764911D01*
X51836012Y16776700D01*
X51523901Y16776700D01*
X51523900Y16776699D01*
X51346100Y16776699D01*
X51346099Y16776700D01*
X51033988Y16776700D01*
X50974717Y16764911D01*
X50974714Y16764910D01*
X50907502Y16720000D01*
X50907500Y16719998D01*
X50862590Y16652786D01*
X50862589Y16652783D01*
X50850800Y16593513D01*
X48183811Y16593513D01*
X48173956Y16643066D01*
X48173956Y16643067D01*
X48167462Y16652786D01*
X48134547Y16702047D01*
X48075569Y16741455D01*
X48023561Y16751800D01*
X48023559Y16751800D01*
X47980100Y16751800D01*
X47923599Y16772365D01*
X47893535Y16824436D01*
X47892200Y16839700D01*
X47892200Y19050001D01*
X49677110Y19050001D01*
X49677110Y19050000D01*
X49696229Y18843667D01*
X49696229Y18843666D01*
X49737179Y18699745D01*
X49752936Y18644365D01*
X49845300Y18458875D01*
X49970174Y18293514D01*
X50014198Y18253381D01*
X50123305Y18153916D01*
X50123314Y18153910D01*
X50217879Y18095358D01*
X50299485Y18044830D01*
X50492707Y17969976D01*
X50492711Y17969976D01*
X50492715Y17969974D01*
X50586146Y17952509D01*
X50696393Y17931900D01*
X50696394Y17931900D01*
X50903606Y17931900D01*
X50903607Y17931900D01*
X51038741Y17957162D01*
X51107284Y17969974D01*
X51107286Y17969975D01*
X51107293Y17969976D01*
X51300515Y18044830D01*
X51476692Y18153914D01*
X51629826Y18293514D01*
X51754700Y18458875D01*
X51847064Y18644365D01*
X51903771Y18843670D01*
X51922890Y19050000D01*
X51903771Y19256330D01*
X51901206Y19265344D01*
X51862333Y19401970D01*
X51847064Y19455635D01*
X51754700Y19641125D01*
X51629826Y19806486D01*
X51545837Y19883052D01*
X51476694Y19946085D01*
X51476685Y19946091D01*
X51300517Y20055169D01*
X51300511Y20055172D01*
X51107296Y20130023D01*
X51107284Y20130027D01*
X50903609Y20168100D01*
X50903607Y20168100D01*
X50696393Y20168100D01*
X50696390Y20168100D01*
X50492715Y20130027D01*
X50492703Y20130023D01*
X50299488Y20055172D01*
X50299482Y20055169D01*
X50123314Y19946091D01*
X50123305Y19946085D01*
X49970173Y19806485D01*
X49845302Y19641129D01*
X49845300Y19641126D01*
X49845300Y19641125D01*
X49757574Y19464948D01*
X49752936Y19455634D01*
X49752934Y19455629D01*
X49696229Y19256335D01*
X49696229Y19256334D01*
X49677110Y19050001D01*
X47892200Y19050001D01*
X47892200Y21590001D01*
X49677110Y21590001D01*
X49677110Y21590000D01*
X49696229Y21383667D01*
X49696229Y21383666D01*
X49743911Y21216085D01*
X49752936Y21184365D01*
X49845300Y20998875D01*
X49970174Y20833514D01*
X50058146Y20753317D01*
X50123305Y20693916D01*
X50123314Y20693910D01*
X50197496Y20647979D01*
X50299485Y20584830D01*
X50492707Y20509976D01*
X50492711Y20509976D01*
X50492715Y20509974D01*
X50601601Y20489620D01*
X50696393Y20471900D01*
X50696394Y20471900D01*
X50903606Y20471900D01*
X50903607Y20471900D01*
X51038741Y20497162D01*
X51107284Y20509974D01*
X51107286Y20509975D01*
X51107293Y20509976D01*
X51300515Y20584830D01*
X51476692Y20693914D01*
X51629826Y20833514D01*
X51754700Y20998875D01*
X51847064Y21184365D01*
X51903771Y21383670D01*
X51922890Y21590000D01*
X51903771Y21796330D01*
X51847064Y21995635D01*
X51754700Y22181125D01*
X51629826Y22346486D01*
X51530648Y22436899D01*
X51476694Y22486085D01*
X51476685Y22486091D01*
X51300517Y22595169D01*
X51300511Y22595172D01*
X51107296Y22670023D01*
X51107284Y22670027D01*
X50903609Y22708100D01*
X50903607Y22708100D01*
X50696393Y22708100D01*
X50696390Y22708100D01*
X50492715Y22670027D01*
X50492703Y22670023D01*
X50299488Y22595172D01*
X50299482Y22595169D01*
X50123314Y22486091D01*
X50123305Y22486085D01*
X49970173Y22346485D01*
X49845302Y22181129D01*
X49845300Y22181126D01*
X49845300Y22181125D01*
X49782196Y22054395D01*
X49752936Y21995634D01*
X49752934Y21995629D01*
X49696229Y21796335D01*
X49696229Y21796334D01*
X49677110Y21590001D01*
X47892200Y21590001D01*
X47892200Y23189162D01*
X47912765Y23245663D01*
X47917945Y23251317D01*
X48503683Y23837055D01*
X48558177Y23862466D01*
X48565838Y23862800D01*
X49647169Y23862800D01*
X49703670Y23842235D01*
X49731713Y23798955D01*
X49743911Y23756085D01*
X49752936Y23724365D01*
X49845300Y23538875D01*
X49845301Y23538874D01*
X49845302Y23538872D01*
X49864613Y23513300D01*
X49970174Y23373514D01*
X50011051Y23336250D01*
X50123305Y23233916D01*
X50123314Y23233910D01*
X50204886Y23183403D01*
X50299485Y23124830D01*
X50492707Y23049976D01*
X50492711Y23049976D01*
X50492715Y23049974D01*
X50587039Y23032342D01*
X50696393Y23011900D01*
X50696394Y23011900D01*
X50903606Y23011900D01*
X50903607Y23011900D01*
X51038741Y23037162D01*
X51107284Y23049974D01*
X51107286Y23049975D01*
X51107293Y23049976D01*
X51300515Y23124830D01*
X51476692Y23233914D01*
X51629826Y23373514D01*
X51754700Y23538875D01*
X51847064Y23724365D01*
X51903771Y23923670D01*
X51922890Y24130000D01*
X51903771Y24336330D01*
X51903637Y24336800D01*
X51874299Y24439913D01*
X51847064Y24535635D01*
X51754700Y24721125D01*
X51629826Y24886486D01*
X51545837Y24963052D01*
X51476694Y25026085D01*
X51476685Y25026091D01*
X51300517Y25135169D01*
X51300511Y25135172D01*
X51107296Y25210023D01*
X51107284Y25210027D01*
X50903609Y25248100D01*
X50903607Y25248100D01*
X50696393Y25248100D01*
X50696390Y25248100D01*
X50492715Y25210027D01*
X50492703Y25210023D01*
X50299488Y25135172D01*
X50299482Y25135169D01*
X50123314Y25026091D01*
X50123305Y25026085D01*
X49970173Y24886485D01*
X49845302Y24721129D01*
X49845300Y24721126D01*
X49845300Y24721125D01*
X49763052Y24555949D01*
X49752936Y24535634D01*
X49752934Y24535629D01*
X49731713Y24461045D01*
X49696471Y24412329D01*
X49647169Y24397200D01*
X48471899Y24397200D01*
X48365601Y24397200D01*
X48324923Y24380351D01*
X48267394Y24356522D01*
X47473643Y23562771D01*
X47473642Y23562772D01*
X47398480Y23487609D01*
X47398478Y23487607D01*
X47357800Y23389399D01*
X47357800Y16839700D01*
X47337235Y16783199D01*
X47285164Y16753135D01*
X47269902Y16751800D01*
X47226436Y16751800D01*
X47226434Y16751799D01*
X47174434Y16741457D01*
X47174433Y16741457D01*
X47115454Y16702048D01*
X47115452Y16702046D01*
X47076045Y16643069D01*
X47065700Y16591060D01*
X35192200Y16591060D01*
X35192200Y16733914D01*
X35212765Y16790415D01*
X35264836Y16820479D01*
X35309132Y16816881D01*
X35394493Y16787012D01*
X35423413Y16784301D01*
X35611100Y16784301D01*
X35611100Y17373599D01*
X35788900Y17373599D01*
X35788900Y16784302D01*
X35788901Y16784301D01*
X35976582Y16784301D01*
X35976592Y16784302D01*
X36005500Y16787012D01*
X36005513Y16787015D01*
X36127341Y16829644D01*
X36231200Y16906296D01*
X36231204Y16906300D01*
X36307857Y17010159D01*
X36350487Y17131990D01*
X36350488Y17131995D01*
X36353199Y17160913D01*
X36353200Y17160915D01*
X36353200Y17373599D01*
X36353199Y17373600D01*
X35788901Y17373600D01*
X35788900Y17373599D01*
X35611100Y17373599D01*
X35611100Y18140699D01*
X35788900Y18140699D01*
X35788900Y17551401D01*
X35788901Y17551400D01*
X36353198Y17551400D01*
X36353199Y17551401D01*
X36353199Y17764082D01*
X36353198Y17764093D01*
X36350488Y17793001D01*
X36350485Y17793014D01*
X36307856Y17914842D01*
X36231204Y18018701D01*
X36231200Y18018705D01*
X36127341Y18095358D01*
X36005510Y18137988D01*
X36005505Y18137989D01*
X35976587Y18140700D01*
X35788901Y18140700D01*
X35788900Y18140699D01*
X35611100Y18140699D01*
X35611100Y18140700D01*
X35423418Y18140700D01*
X35423407Y18140699D01*
X35394499Y18137989D01*
X35394493Y18137988D01*
X35309131Y18108119D01*
X35249008Y18108870D01*
X35203434Y18148090D01*
X35192200Y18191087D01*
X35192200Y19273914D01*
X35212765Y19330415D01*
X35264836Y19360479D01*
X35309132Y19356881D01*
X35394493Y19327012D01*
X35423413Y19324301D01*
X35611100Y19324301D01*
X35611100Y19913599D01*
X35788900Y19913599D01*
X35788900Y19324302D01*
X35788901Y19324301D01*
X35976582Y19324301D01*
X35976592Y19324302D01*
X36005500Y19327012D01*
X36005513Y19327015D01*
X36127341Y19369644D01*
X36231200Y19446296D01*
X36231204Y19446300D01*
X36307857Y19550159D01*
X36350487Y19671990D01*
X36350488Y19671995D01*
X36353199Y19700913D01*
X36353200Y19700915D01*
X36353200Y19913599D01*
X36353199Y19913600D01*
X35788901Y19913600D01*
X35788900Y19913599D01*
X35611100Y19913599D01*
X35611100Y20680699D01*
X35788900Y20680699D01*
X35788900Y20091401D01*
X35788901Y20091400D01*
X36353198Y20091400D01*
X36353199Y20091401D01*
X36353199Y20304082D01*
X36353198Y20304093D01*
X36350488Y20333001D01*
X36350485Y20333014D01*
X36307856Y20454842D01*
X36231204Y20558701D01*
X36231200Y20558705D01*
X36127341Y20635358D01*
X36005510Y20677988D01*
X36005505Y20677989D01*
X35976587Y20680700D01*
X35788901Y20680700D01*
X35788900Y20680699D01*
X35611100Y20680699D01*
X35611100Y20680700D01*
X35423418Y20680700D01*
X35423407Y20680699D01*
X35394499Y20677989D01*
X35394493Y20677988D01*
X35309131Y20648119D01*
X35249008Y20648870D01*
X35203434Y20688090D01*
X35192200Y20731087D01*
X35192200Y21325648D01*
X35192200Y21325649D01*
X35151521Y21423857D01*
X35114393Y21460985D01*
X35076357Y21499022D01*
X35076357Y21499021D01*
X34600107Y21975271D01*
X34600105Y21975272D01*
X34600106Y21975272D01*
X34542577Y21999101D01*
X34501899Y22015950D01*
X34501898Y22015950D01*
X31606470Y22015950D01*
X31549969Y22036515D01*
X31519905Y22088586D01*
X31530346Y22147800D01*
X31576406Y22186449D01*
X31592721Y22190668D01*
X31631146Y22196754D01*
X31744947Y22254738D01*
X31835262Y22345053D01*
X31893246Y22458854D01*
X31908199Y22553269D01*
X31908200Y22553269D01*
X31908200Y22771099D01*
X31908199Y22771100D01*
X31304000Y22771100D01*
X31247499Y22791665D01*
X31217435Y22843736D01*
X31216100Y22859000D01*
X31216100Y23538199D01*
X31393900Y23538199D01*
X31393900Y22948901D01*
X31393901Y22948900D01*
X31908198Y22948900D01*
X31908199Y22948901D01*
X31908199Y23166731D01*
X31908198Y23166733D01*
X31893246Y23261147D01*
X31835262Y23374948D01*
X31744947Y23465263D01*
X31631146Y23523247D01*
X31536732Y23538200D01*
X31393901Y23538200D01*
X31393900Y23538199D01*
X31216100Y23538199D01*
X31216100Y23538200D01*
X31073269Y23538200D01*
X31073266Y23538199D01*
X30978853Y23523247D01*
X30875006Y23470334D01*
X30815327Y23463007D01*
X30764900Y23495755D01*
X30747200Y23548654D01*
X30747200Y23706898D01*
X30747200Y23706899D01*
X30706521Y23805107D01*
X30669393Y23842235D01*
X30631357Y23880272D01*
X30631357Y23880271D01*
X30245353Y24266275D01*
X30219942Y24320769D01*
X30235505Y24378847D01*
X30258671Y24401514D01*
X30273547Y24411453D01*
X30312955Y24470431D01*
X30323300Y24522439D01*
X30323299Y25757560D01*
X30323299Y25757561D01*
X30323299Y25757564D01*
X30323298Y25757566D01*
X30312956Y25809566D01*
X30312956Y25809567D01*
X30303513Y25823700D01*
X30273547Y25868547D01*
X30214569Y25907955D01*
X30162561Y25918300D01*
X30162559Y25918300D01*
X29527436Y25918300D01*
X29527434Y25918299D01*
X29475434Y25907957D01*
X29475433Y25907957D01*
X29416457Y25868550D01*
X29416453Y25868547D01*
X29377045Y25809569D01*
X29368893Y25768583D01*
X29366700Y25757560D01*
X29366700Y24522437D01*
X29366701Y24522435D01*
X29377043Y24470435D01*
X29377043Y24470434D01*
X29377044Y24470432D01*
X29377045Y24470431D01*
X29416453Y24411453D01*
X29465251Y24378847D01*
X29475431Y24372045D01*
X29507048Y24365756D01*
X29558452Y24334564D01*
X29577800Y24279546D01*
X29577800Y24235601D01*
X29618479Y24137393D01*
X30157082Y23598790D01*
X30182493Y23544297D01*
X30166930Y23486219D01*
X30117677Y23451731D01*
X30057779Y23456972D01*
X30056322Y23457667D01*
X29964438Y23502586D01*
X29964436Y23502587D01*
X29964435Y23502587D01*
X29890904Y23513300D01*
X29419096Y23513300D01*
X29345565Y23502587D01*
X29345563Y23502587D01*
X29345561Y23502586D01*
X29345559Y23502585D01*
X29232142Y23447139D01*
X29142861Y23357858D01*
X29087415Y23244441D01*
X29087414Y23244439D01*
X29087413Y23244437D01*
X29087413Y23244435D01*
X29079361Y23189162D01*
X29078899Y23185994D01*
X29050403Y23133048D01*
X28994541Y23110806D01*
X28991917Y23110767D01*
X28930100Y23110767D01*
X28873599Y23131332D01*
X28843535Y23183403D01*
X28842200Y23198667D01*
X28842200Y24279546D01*
X28862765Y24336047D01*
X28912953Y24365757D01*
X28944569Y24372045D01*
X29003547Y24411453D01*
X29042955Y24470431D01*
X29053300Y24522439D01*
X29053299Y25757560D01*
X29053299Y25757561D01*
X29053299Y25757564D01*
X29053298Y25757566D01*
X29042956Y25809566D01*
X29042956Y25809567D01*
X29033513Y25823700D01*
X29003547Y25868547D01*
X28944569Y25907955D01*
X28892561Y25918300D01*
X28892559Y25918300D01*
X28257436Y25918300D01*
X28257434Y25918299D01*
X28205434Y25907957D01*
X28205433Y25907957D01*
X28146457Y25868550D01*
X28146453Y25868547D01*
X28107045Y25809569D01*
X28098893Y25768583D01*
X28096700Y25757560D01*
X28096700Y24522437D01*
X28096701Y24522435D01*
X28107043Y24470435D01*
X28107043Y24470434D01*
X28107044Y24470432D01*
X28107045Y24470431D01*
X28146453Y24411453D01*
X28195251Y24378847D01*
X28205431Y24372045D01*
X28237048Y24365756D01*
X28288452Y24334564D01*
X28307800Y24279545D01*
X28307800Y22328561D01*
X28287235Y22272060D01*
X28276000Y22262167D01*
X28276543Y22261540D01*
X28271792Y22257424D01*
X28185488Y22157823D01*
X28130742Y22037946D01*
X28130740Y22037940D01*
X28111987Y21907504D01*
X28111987Y21907497D01*
X28130740Y21777061D01*
X28130741Y21777056D01*
X28130742Y21777054D01*
X28156111Y21721505D01*
X28167820Y21695865D01*
X28172585Y21635927D01*
X28137707Y21586949D01*
X28087863Y21571450D01*
X27990600Y21571450D01*
X27934099Y21592015D01*
X27904035Y21644086D01*
X27902700Y21659350D01*
X27902700Y22235939D01*
X27923265Y22292440D01*
X27928434Y22298083D01*
X28000343Y22369991D01*
X28058342Y22483820D01*
X28073300Y22578261D01*
X28073299Y23141738D01*
X28058342Y23236180D01*
X28000343Y23350009D01*
X27928444Y23421908D01*
X27903034Y23476400D01*
X27902700Y23484061D01*
X27902700Y23732758D01*
X27871508Y23849166D01*
X27857887Y23872758D01*
X27811251Y23953535D01*
X27788445Y23976341D01*
X27763034Y24030835D01*
X27762700Y24038496D01*
X27762700Y24428420D01*
X27772644Y24461192D01*
X27769642Y24462435D01*
X27772951Y24470427D01*
X27772955Y24470431D01*
X27783300Y24522439D01*
X27783299Y25757560D01*
X27783299Y25757561D01*
X27783299Y25757564D01*
X27783298Y25757566D01*
X27772956Y25809566D01*
X27772956Y25809567D01*
X27763513Y25823700D01*
X27733547Y25868547D01*
X27674569Y25907955D01*
X27622561Y25918300D01*
X27622559Y25918300D01*
X26987436Y25918300D01*
X26987434Y25918299D01*
X26935434Y25907957D01*
X26935433Y25907957D01*
X26876457Y25868550D01*
X26876453Y25868547D01*
X26837045Y25809569D01*
X26828893Y25768583D01*
X26826700Y25757560D01*
X26826700Y24522437D01*
X26837045Y24470431D01*
X26840359Y24462429D01*
X26837347Y24461182D01*
X26847300Y24428420D01*
X26847300Y23872758D01*
X26847300Y23752242D01*
X26878492Y23635834D01*
X26938749Y23531465D01*
X26938750Y23531464D01*
X26942776Y23527438D01*
X26968187Y23472944D01*
X26952624Y23414866D01*
X26942776Y23403129D01*
X26889657Y23350010D01*
X26831657Y23236178D01*
X26816700Y23141738D01*
X26548199Y23141738D01*
X26548199Y23161582D01*
X26548198Y23161593D01*
X26545488Y23190501D01*
X26545485Y23190514D01*
X26502856Y23312342D01*
X26426204Y23416201D01*
X26426200Y23416205D01*
X26322341Y23492858D01*
X26200510Y23535488D01*
X26200505Y23535489D01*
X26171587Y23538200D01*
X25983901Y23538200D01*
X25983900Y23538199D01*
X25806100Y23538199D01*
X25806100Y23538200D01*
X25618418Y23538200D01*
X25618407Y23538199D01*
X25589499Y23535489D01*
X25589486Y23535486D01*
X25467658Y23492857D01*
X25363799Y23416205D01*
X25363795Y23416201D01*
X25287142Y23312342D01*
X25244512Y23190511D01*
X25244511Y23190506D01*
X25241800Y23161588D01*
X23812515Y23161588D01*
X23884511Y23244676D01*
X23939258Y23364554D01*
X23947504Y23421906D01*
X23958013Y23494997D01*
X23958013Y23495004D01*
X23939259Y23625440D01*
X23939258Y23625441D01*
X23939258Y23625446D01*
X23884511Y23745324D01*
X23798209Y23844922D01*
X23798208Y23844923D01*
X23798207Y23844924D01*
X23793457Y23849040D01*
X23795505Y23851405D01*
X23766162Y23889969D01*
X23762200Y23916061D01*
X23762200Y24279546D01*
X23782765Y24336047D01*
X23832953Y24365757D01*
X23864569Y24372045D01*
X23923547Y24411453D01*
X23962955Y24470431D01*
X23973300Y24522439D01*
X23973300Y25051099D01*
X24261800Y25051099D01*
X24261800Y24519988D01*
X24273589Y24460718D01*
X24273590Y24460715D01*
X24318500Y24393503D01*
X24318502Y24393501D01*
X24385714Y24348591D01*
X24385717Y24348590D01*
X24444988Y24336800D01*
X24676099Y24336800D01*
X24676100Y24336801D01*
X24676100Y25051099D01*
X24853900Y25051099D01*
X24853900Y24336801D01*
X24853901Y24336800D01*
X25085012Y24336800D01*
X25144282Y24348590D01*
X25144285Y24348591D01*
X25211497Y24393501D01*
X25211499Y24393503D01*
X25256409Y24460715D01*
X25256410Y24460718D01*
X25268200Y24519988D01*
X25268200Y25051099D01*
X25268199Y25051100D01*
X24853901Y25051100D01*
X24853900Y25051099D01*
X24676100Y25051099D01*
X24676099Y25051100D01*
X24261801Y25051100D01*
X24261800Y25051099D01*
X23973300Y25051099D01*
X23973299Y25757560D01*
X23973299Y25757561D01*
X23973299Y25757564D01*
X23973298Y25757566D01*
X23972811Y25760013D01*
X24261800Y25760013D01*
X24261800Y25228901D01*
X24261801Y25228900D01*
X24676099Y25228900D01*
X24676100Y25228901D01*
X24676100Y25943199D01*
X24853900Y25943199D01*
X24853900Y25228901D01*
X24853901Y25228900D01*
X25268199Y25228900D01*
X25268200Y25228901D01*
X25268200Y25760013D01*
X25256410Y25819283D01*
X25256409Y25819286D01*
X25211499Y25886498D01*
X25211497Y25886500D01*
X25144285Y25931410D01*
X25144282Y25931411D01*
X25085012Y25943200D01*
X24853901Y25943200D01*
X24853900Y25943199D01*
X24676100Y25943199D01*
X24676099Y25943200D01*
X24444988Y25943200D01*
X24385717Y25931411D01*
X24385714Y25931410D01*
X24318502Y25886500D01*
X24318500Y25886498D01*
X24273590Y25819286D01*
X24273589Y25819283D01*
X24261800Y25760013D01*
X23972811Y25760013D01*
X23962956Y25809566D01*
X23962956Y25809567D01*
X23953513Y25823700D01*
X23923547Y25868547D01*
X23864569Y25907955D01*
X23812561Y25918300D01*
X23812559Y25918300D01*
X23177436Y25918300D01*
X23177434Y25918299D01*
X23125434Y25907957D01*
X23125433Y25907957D01*
X23066457Y25868550D01*
X23066453Y25868547D01*
X23027045Y25809569D01*
X23018893Y25768583D01*
X23016700Y25757560D01*
X22703299Y25757560D01*
X22703299Y25757561D01*
X22703299Y25757564D01*
X22703298Y25757566D01*
X22692956Y25809566D01*
X22692956Y25809567D01*
X22683513Y25823700D01*
X22653547Y25868547D01*
X22594569Y25907955D01*
X22542561Y25918300D01*
X22542559Y25918300D01*
X21907436Y25918300D01*
X21907434Y25918299D01*
X21855434Y25907957D01*
X21855433Y25907957D01*
X21796457Y25868550D01*
X21796453Y25868547D01*
X21757045Y25809569D01*
X21748893Y25768583D01*
X21746700Y25757560D01*
X21746700Y24522437D01*
X21746701Y24522435D01*
X21757043Y24470435D01*
X21757043Y24470434D01*
X21757044Y24470432D01*
X21757045Y24470431D01*
X21796453Y24411453D01*
X21845251Y24378847D01*
X21855431Y24372045D01*
X21887048Y24365756D01*
X21938452Y24334564D01*
X21957800Y24279545D01*
X21957800Y22530838D01*
X21937235Y22474337D01*
X21932055Y22468683D01*
X20803643Y21340271D01*
X20803642Y21340272D01*
X20728480Y21265109D01*
X20728478Y21265107D01*
X20687800Y21166899D01*
X20687800Y15125769D01*
X20667235Y15069268D01*
X20631653Y15043805D01*
X20454488Y14975172D01*
X20454482Y14975169D01*
X20278314Y14866091D01*
X20278305Y14866085D01*
X20125173Y14726485D01*
X20000302Y14561129D01*
X20000300Y14561126D01*
X20000300Y14561125D01*
X19912433Y14384665D01*
X19907936Y14375634D01*
X19907934Y14375629D01*
X19851229Y14176335D01*
X19851229Y14176334D01*
X19832110Y13970001D01*
X19832110Y13970000D01*
X19851229Y13763667D01*
X19851229Y13763666D01*
X19898911Y13596085D01*
X19907936Y13564365D01*
X20000300Y13378875D01*
X20000301Y13378874D01*
X20000302Y13378872D01*
X20043033Y13322287D01*
X20125174Y13213514D01*
X20196804Y13148215D01*
X20278305Y13073916D01*
X20278314Y13073910D01*
X20339394Y13036091D01*
X20454485Y12964830D01*
X20454488Y12964829D01*
X20631653Y12896195D01*
X20676910Y12856609D01*
X20687800Y12814231D01*
X20687800Y10624588D01*
X20667235Y10568087D01*
X20662055Y10562433D01*
X17553643Y7454021D01*
X17553642Y7454022D01*
X17478480Y7378859D01*
X17478478Y7378857D01*
X17437800Y7280649D01*
X17437800Y7046200D01*
X17417235Y6989699D01*
X17365164Y6959635D01*
X17349900Y6958300D01*
X16437436Y6958300D01*
X16437434Y6958299D01*
X16385434Y6947957D01*
X16385433Y6947957D01*
X16326454Y6908548D01*
X16326453Y6908547D01*
X16287045Y6849569D01*
X16279142Y6809835D01*
X16276700Y6797560D01*
X12812200Y6797560D01*
X12812200Y8783800D01*
X12832765Y8840301D01*
X12884836Y8870365D01*
X12900100Y8871700D01*
X13063399Y8871700D01*
X13063404Y8871700D01*
X13136935Y8882413D01*
X13250361Y8937864D01*
X13339636Y9027139D01*
X13395087Y9140565D01*
X13405800Y9214096D01*
X13405800Y9436099D01*
X13874301Y9436099D01*
X13874301Y9218268D01*
X13889253Y9123854D01*
X13947237Y9010053D01*
X14037552Y8919738D01*
X14151353Y8861754D01*
X14245768Y8846801D01*
X14388600Y8846801D01*
X14388600Y9436099D01*
X14566400Y9436099D01*
X14566400Y8846802D01*
X14566401Y8846801D01*
X14709231Y8846801D01*
X14709232Y8846802D01*
X14803646Y8861754D01*
X14917447Y8919738D01*
X15007762Y9010053D01*
X15065746Y9123854D01*
X15080699Y9218269D01*
X15080700Y9218269D01*
X15080700Y9436099D01*
X15080699Y9436100D01*
X14566401Y9436100D01*
X14566400Y9436099D01*
X14388600Y9436099D01*
X14388599Y9436100D01*
X13874302Y9436100D01*
X13874301Y9436099D01*
X13405800Y9436099D01*
X13405800Y9831732D01*
X13874300Y9831732D01*
X13874300Y9613901D01*
X13874301Y9613900D01*
X14388599Y9613900D01*
X14388600Y9613901D01*
X14388600Y10203199D01*
X14566400Y10203199D01*
X14566400Y9613901D01*
X14566401Y9613900D01*
X15080698Y9613900D01*
X15080699Y9613901D01*
X15080699Y9831731D01*
X15080698Y9831733D01*
X15065746Y9926147D01*
X15007762Y10039948D01*
X14917447Y10130263D01*
X14803646Y10188247D01*
X14709232Y10203200D01*
X14566401Y10203200D01*
X14566400Y10203199D01*
X14388600Y10203199D01*
X14388600Y10203200D01*
X14245769Y10203200D01*
X14245766Y10203199D01*
X14151353Y10188247D01*
X14037552Y10130263D01*
X13947237Y10039948D01*
X13889253Y9926147D01*
X13874300Y9831732D01*
X13405800Y9831732D01*
X13405800Y9835904D01*
X13395087Y9909435D01*
X13373462Y9953670D01*
X13339638Y10022858D01*
X13339636Y10022860D01*
X13339636Y10022861D01*
X13250361Y10112136D01*
X13250359Y10112137D01*
X13250357Y10112139D01*
X13136940Y10167585D01*
X13136938Y10167586D01*
X13136936Y10167587D01*
X13136935Y10167587D01*
X13063404Y10178300D01*
X12591596Y10178300D01*
X12518065Y10167587D01*
X12518063Y10167587D01*
X12518061Y10167586D01*
X12518059Y10167585D01*
X12404642Y10112139D01*
X12315361Y10022858D01*
X12259915Y9909441D01*
X12259914Y9909439D01*
X12259913Y9909437D01*
X12259913Y9909435D01*
X12249200Y9835904D01*
X12249200Y9214096D01*
X12259913Y9140565D01*
X12259914Y9140563D01*
X12268868Y9122248D01*
X12277800Y9083641D01*
X12277800Y6776200D01*
X12257235Y6719699D01*
X12205164Y6689635D01*
X12189900Y6688300D01*
X11877436Y6688300D01*
X11877434Y6688299D01*
X11816939Y6676267D01*
X11816445Y6678750D01*
X11773179Y6676867D01*
X11773060Y6676266D01*
X11770605Y6676755D01*
X11768556Y6676665D01*
X11765545Y6677761D01*
X11751911Y6680473D01*
X11712561Y6688300D01*
X11712559Y6688300D01*
X11470541Y6688300D01*
X11414040Y6708865D01*
X11383976Y6760936D01*
X11394417Y6820150D01*
X11404102Y6833752D01*
X11455811Y6893426D01*
X11510558Y7013304D01*
X11520207Y7080413D01*
X11529313Y7143747D01*
X11529313Y7143754D01*
X11510559Y7274190D01*
X11510558Y7274191D01*
X11510558Y7274196D01*
X11455811Y7394074D01*
X11369509Y7493672D01*
X11369508Y7493673D01*
X11352577Y7504554D01*
X11316164Y7552402D01*
X11312200Y7578500D01*
X11312200Y10797560D01*
X16276700Y10797560D01*
X16276700Y9562437D01*
X16276701Y9562435D01*
X16287043Y9510435D01*
X16287043Y9510434D01*
X16287044Y9510432D01*
X16287045Y9510431D01*
X16326453Y9451453D01*
X16385431Y9412045D01*
X16437439Y9401700D01*
X18972560Y9401701D01*
X18972563Y9401701D01*
X18972565Y9401702D01*
X19024565Y9412044D01*
X19024566Y9412044D01*
X19024566Y9412045D01*
X19024569Y9412045D01*
X19083547Y9451453D01*
X19122955Y9510431D01*
X19133300Y9562439D01*
X19133299Y10797560D01*
X19133299Y10797561D01*
X19133299Y10797564D01*
X19133298Y10797566D01*
X19122956Y10849566D01*
X19122956Y10849567D01*
X19122955Y10849569D01*
X19083547Y10908547D01*
X19024569Y10947955D01*
X18972561Y10958300D01*
X18972559Y10958300D01*
X18060100Y10958300D01*
X18003599Y10978865D01*
X17973535Y11030936D01*
X17972200Y11046200D01*
X17972200Y12814154D01*
X17992765Y12870655D01*
X18044836Y12900719D01*
X18091852Y12896119D01*
X18107702Y12889978D01*
X18107707Y12889976D01*
X18107715Y12889974D01*
X18210652Y12870732D01*
X18311393Y12851900D01*
X18311394Y12851900D01*
X18518606Y12851900D01*
X18518607Y12851900D01*
X18653741Y12877162D01*
X18722284Y12889974D01*
X18722286Y12889975D01*
X18722293Y12889976D01*
X18915515Y12964830D01*
X19091692Y13073914D01*
X19244826Y13213514D01*
X19369700Y13378875D01*
X19462064Y13564365D01*
X19517138Y13757931D01*
X19518770Y13763666D01*
X19518770Y13763667D01*
X19518769Y13763667D01*
X19518771Y13763670D01*
X19537890Y13970000D01*
X19518771Y14176330D01*
X19517462Y14180930D01*
X19488728Y14281920D01*
X19462064Y14375635D01*
X19369700Y14561125D01*
X19244826Y14726486D01*
X19160837Y14803052D01*
X19091694Y14866085D01*
X19091685Y14866091D01*
X18915517Y14975169D01*
X18915511Y14975172D01*
X18722296Y15050023D01*
X18722284Y15050027D01*
X18518609Y15088100D01*
X18518607Y15088100D01*
X18311393Y15088100D01*
X18311390Y15088100D01*
X18107715Y15050027D01*
X18107703Y15050023D01*
X17914488Y14975172D01*
X17914482Y14975169D01*
X17738314Y14866091D01*
X17738305Y14866085D01*
X17585173Y14726485D01*
X17460302Y14561129D01*
X17460300Y14561126D01*
X17460300Y14561125D01*
X17372433Y14384665D01*
X17367936Y14375634D01*
X17367934Y14375629D01*
X17311229Y14176335D01*
X17311229Y14176334D01*
X17292110Y13970001D01*
X17292110Y13970000D01*
X17311229Y13763667D01*
X17311229Y13763666D01*
X17358911Y13596085D01*
X17367936Y13564365D01*
X17444831Y13409941D01*
X17445035Y13409531D01*
X17451811Y13349786D01*
X17447560Y13336715D01*
X17437800Y13313152D01*
X17437800Y11046200D01*
X17417235Y10989699D01*
X17365164Y10959635D01*
X17349900Y10958300D01*
X16437436Y10958300D01*
X16437434Y10958299D01*
X16385434Y10947957D01*
X16385433Y10947957D01*
X16326454Y10908548D01*
X16326452Y10908546D01*
X16287045Y10849569D01*
X16276700Y10797560D01*
X11312200Y10797560D01*
X11312200Y18359162D01*
X11332765Y18415663D01*
X11337945Y18421317D01*
X14054933Y21138305D01*
X14109427Y21163716D01*
X14117088Y21164050D01*
X18944398Y21164050D01*
X18944399Y21164050D01*
X19042607Y21204729D01*
X20705271Y22867393D01*
X20745950Y22965601D01*
X20745950Y23071899D01*
X20745950Y26840412D01*
X20766515Y26896913D01*
X20771695Y26902567D01*
X21516183Y27647055D01*
X21570677Y27672466D01*
X21578338Y27672800D01*
X25968566Y27672800D01*
X26025067Y27652235D01*
X26055131Y27600164D01*
X26044690Y27540950D01*
X26030720Y27522745D01*
X25963266Y27455292D01*
X25925877Y27433108D01*
X25842657Y27408672D01*
X25842654Y27408671D01*
X25731794Y27337425D01*
X25731789Y27337420D01*
X25645489Y27237826D01*
X25590742Y27117946D01*
X25590740Y27117940D01*
X25571987Y26987504D01*
X25571987Y26987497D01*
X25590740Y26857061D01*
X25590743Y26857049D01*
X25645556Y26737028D01*
X25653500Y26700513D01*
X25653500Y25946967D01*
X25632935Y25890466D01*
X25614438Y25873883D01*
X25606456Y25868550D01*
X25606454Y25868548D01*
X25606453Y25868547D01*
X25567045Y25809569D01*
X25558893Y25768583D01*
X25556700Y25757560D01*
X25556700Y24522437D01*
X25556701Y24522435D01*
X25567043Y24470435D01*
X25567043Y24470434D01*
X25567044Y24470432D01*
X25567045Y24470431D01*
X25606453Y24411453D01*
X25665431Y24372045D01*
X25717439Y24361700D01*
X26352560Y24361701D01*
X26352563Y24361701D01*
X26352565Y24361702D01*
X26404565Y24372044D01*
X26404566Y24372044D01*
X26404566Y24372045D01*
X26404569Y24372045D01*
X26463547Y24411453D01*
X26502955Y24470431D01*
X26513300Y24522439D01*
X26513299Y25757560D01*
X26513299Y25757561D01*
X26513299Y25757564D01*
X26513298Y25757566D01*
X26502956Y25809566D01*
X26502956Y25809567D01*
X26493513Y25823700D01*
X26463547Y25868547D01*
X26463543Y25868550D01*
X26455562Y25873883D01*
X26420010Y25922374D01*
X26416500Y25946967D01*
X26416500Y26700513D01*
X26424443Y26737028D01*
X26426120Y26740700D01*
X26479258Y26857054D01*
X26481001Y26869184D01*
X26505853Y26918831D01*
X26644129Y27057105D01*
X26698623Y27082516D01*
X26706283Y27082850D01*
X30114188Y27082850D01*
X30170689Y27062285D01*
X30200753Y27010214D01*
X30195055Y26965581D01*
X30196263Y26965226D01*
X30194490Y26959190D01*
X30175737Y26828754D01*
X30175737Y26828747D01*
X30194490Y26698311D01*
X30194492Y26698305D01*
X30249239Y26578425D01*
X30300247Y26519559D01*
X30335541Y26478828D01*
X30335543Y26478827D01*
X30335544Y26478826D01*
X30446403Y26407581D01*
X30446404Y26407581D01*
X30446407Y26407579D01*
X30532532Y26382291D01*
X30572851Y26370451D01*
X30572854Y26370451D01*
X30572856Y26370450D01*
X30572857Y26370450D01*
X30682762Y26370450D01*
X30739263Y26349885D01*
X30744917Y26344705D01*
X30822055Y26267567D01*
X30847466Y26213073D01*
X30847800Y26205412D01*
X30847800Y26000455D01*
X30827235Y25943954D01*
X30777047Y25914244D01*
X30745433Y25907957D01*
X30686457Y25868550D01*
X30686453Y25868547D01*
X30647045Y25809569D01*
X30638893Y25768583D01*
X30636700Y25757560D01*
X30636700Y24522437D01*
X30636701Y24522435D01*
X30647043Y24470435D01*
X30647043Y24470434D01*
X30647044Y24470432D01*
X30647045Y24470431D01*
X30686453Y24411453D01*
X30745431Y24372045D01*
X30797439Y24361700D01*
X31432560Y24361701D01*
X31432563Y24361701D01*
X31432565Y24361702D01*
X31484565Y24372044D01*
X31484566Y24372044D01*
X31484566Y24372045D01*
X31484569Y24372045D01*
X31543547Y24411453D01*
X31582955Y24470431D01*
X31593300Y24522439D01*
X31593299Y25757560D01*
X31593299Y25757561D01*
X31593299Y25757564D01*
X31593298Y25757566D01*
X31582956Y25809566D01*
X31582956Y25809567D01*
X31573513Y25823700D01*
X31543547Y25868547D01*
X31484569Y25907955D01*
X31484568Y25907956D01*
X31452952Y25914244D01*
X31401548Y25945436D01*
X31382200Y26000455D01*
X31382200Y26405648D01*
X31382200Y26405649D01*
X31341521Y26503857D01*
X31327278Y26518100D01*
X31266357Y26579022D01*
X31266357Y26579021D01*
X31122173Y26723205D01*
X31096762Y26777699D01*
X31097323Y26797870D01*
X31101763Y26828749D01*
X31101763Y26828754D01*
X31083009Y26959190D01*
X31083008Y26959191D01*
X31083008Y26959196D01*
X31083005Y26959201D01*
X31081237Y26965226D01*
X31082780Y26965680D01*
X31078589Y27018370D01*
X31113465Y27067349D01*
X31160143Y27081865D01*
X31160113Y27082098D01*
X31161467Y27082277D01*
X31163312Y27082850D01*
X31165824Y27082850D01*
X31165825Y27082850D01*
X31262854Y27108849D01*
X31349847Y27159074D01*
X31420876Y27230103D01*
X31420876Y27230104D01*
X32441676Y28250904D01*
X41141700Y28250904D01*
X41141700Y27629096D01*
X41152413Y27555565D01*
X41152413Y27555564D01*
X41152414Y27555562D01*
X41152415Y27555560D01*
X41207861Y27442143D01*
X41207863Y27442141D01*
X41207864Y27442139D01*
X41297139Y27352864D01*
X41403506Y27300864D01*
X41445233Y27257575D01*
X41452800Y27221896D01*
X41452800Y26740700D01*
X41432235Y26684199D01*
X41431331Y26683138D01*
X41361738Y26602823D01*
X41306992Y26482946D01*
X41306990Y26482940D01*
X41288237Y26352504D01*
X41288237Y26352497D01*
X41306990Y26222061D01*
X41306991Y26222056D01*
X41306992Y26222054D01*
X41334365Y26162115D01*
X41361739Y26102175D01*
X41412747Y26043309D01*
X41448041Y26002578D01*
X41448043Y26002577D01*
X41448044Y26002576D01*
X41558903Y25931331D01*
X41558904Y25931331D01*
X41558907Y25931329D01*
X41638508Y25907956D01*
X41685351Y25894201D01*
X41685354Y25894201D01*
X41685356Y25894200D01*
X41685357Y25894200D01*
X41817143Y25894200D01*
X41817144Y25894200D01*
X41817146Y25894201D01*
X41817148Y25894201D01*
X41836839Y25899983D01*
X41943593Y25931329D01*
X42054459Y26002578D01*
X42140761Y26102176D01*
X42195508Y26222054D01*
X42203883Y26280302D01*
X42214263Y26352497D01*
X42214263Y26352504D01*
X42195509Y26482940D01*
X42195508Y26482941D01*
X42195508Y26482946D01*
X42140761Y26602824D01*
X42082552Y26670001D01*
X49677110Y26670001D01*
X49677110Y26670000D01*
X49696229Y26463667D01*
X49696229Y26463666D01*
X49752025Y26267567D01*
X49752936Y26264365D01*
X49845300Y26078875D01*
X49970174Y25913514D01*
X50019502Y25868546D01*
X50123305Y25773916D01*
X50123314Y25773910D01*
X50182708Y25737135D01*
X50299485Y25664830D01*
X50492707Y25589976D01*
X50492711Y25589976D01*
X50492715Y25589974D01*
X50601601Y25569620D01*
X50696393Y25551900D01*
X50696394Y25551900D01*
X50903606Y25551900D01*
X50903607Y25551900D01*
X51055858Y25580361D01*
X51107284Y25589974D01*
X51107286Y25589975D01*
X51107293Y25589976D01*
X51300515Y25664830D01*
X51476692Y25773914D01*
X51629826Y25913514D01*
X51754700Y26078875D01*
X51847064Y26264365D01*
X51903771Y26463670D01*
X51922890Y26670000D01*
X51903771Y26876330D01*
X51891678Y26918831D01*
X51872139Y26987504D01*
X51847064Y27075635D01*
X51754700Y27261125D01*
X51629826Y27426486D01*
X51524235Y27522745D01*
X51476694Y27566085D01*
X51476685Y27566091D01*
X51300517Y27675169D01*
X51300511Y27675172D01*
X51107296Y27750023D01*
X51107284Y27750027D01*
X50903609Y27788100D01*
X50903607Y27788100D01*
X50696393Y27788100D01*
X50696390Y27788100D01*
X50492715Y27750027D01*
X50492703Y27750023D01*
X50299488Y27675172D01*
X50299482Y27675169D01*
X50123314Y27566091D01*
X50123305Y27566085D01*
X49970173Y27426485D01*
X49845302Y27261129D01*
X49845300Y27261126D01*
X49845300Y27261125D01*
X49754649Y27079074D01*
X49752936Y27075634D01*
X49752934Y27075629D01*
X49696229Y26876335D01*
X49696229Y26876334D01*
X49677110Y26670001D01*
X42082552Y26670001D01*
X42054459Y26702422D01*
X42054458Y26702423D01*
X42027577Y26719698D01*
X41991164Y26767546D01*
X41987200Y26793644D01*
X41987200Y27221896D01*
X42007765Y27278397D01*
X42036493Y27300864D01*
X42142861Y27352864D01*
X42232136Y27442139D01*
X42287587Y27555565D01*
X42298300Y27629096D01*
X42298300Y28250904D01*
X42287587Y28324435D01*
X42271542Y28357255D01*
X42232138Y28437858D01*
X42232136Y28437860D01*
X42232136Y28437861D01*
X42142861Y28527136D01*
X42142859Y28527137D01*
X42142857Y28527139D01*
X42029440Y28582585D01*
X42029438Y28582586D01*
X42029436Y28582587D01*
X42029435Y28582587D01*
X41955904Y28593300D01*
X41484096Y28593300D01*
X41410565Y28582587D01*
X41410563Y28582587D01*
X41410561Y28582586D01*
X41410559Y28582585D01*
X41297142Y28527139D01*
X41207861Y28437858D01*
X41152415Y28324441D01*
X41152414Y28324439D01*
X41152413Y28324437D01*
X41152413Y28324435D01*
X41141700Y28250904D01*
X32441676Y28250904D01*
X33946871Y29756099D01*
X41116801Y29756099D01*
X41116801Y29555540D01*
X41132448Y29456738D01*
X41193129Y29337644D01*
X41287643Y29243130D01*
X41406737Y29182449D01*
X41505540Y29166801D01*
X41668600Y29166801D01*
X41668600Y29756099D01*
X41846400Y29756099D01*
X41846400Y29166802D01*
X41846401Y29166801D01*
X42009459Y29166801D01*
X42009460Y29166802D01*
X42108262Y29182449D01*
X42227356Y29243130D01*
X42321870Y29337644D01*
X42382551Y29456738D01*
X42398199Y29555541D01*
X42398200Y29555541D01*
X42398200Y29756099D01*
X42398199Y29756100D01*
X41846401Y29756100D01*
X41846400Y29756099D01*
X41668600Y29756099D01*
X41668599Y29756100D01*
X41116802Y29756100D01*
X41116801Y29756099D01*
X33946871Y29756099D01*
X34739777Y30549005D01*
X34794271Y30574416D01*
X34801932Y30574750D01*
X41203313Y30574750D01*
X41259814Y30554185D01*
X41289878Y30502114D01*
X41279437Y30442900D01*
X41265468Y30424695D01*
X41193129Y30352357D01*
X41132448Y30233263D01*
X41116800Y30134460D01*
X41116800Y29933901D01*
X41116801Y29933900D01*
X42398198Y29933900D01*
X42398199Y29933901D01*
X42398199Y30134459D01*
X42398198Y30134461D01*
X42382551Y30233263D01*
X42321870Y30352357D01*
X42249532Y30424695D01*
X42224121Y30479189D01*
X42239684Y30537267D01*
X42288937Y30571755D01*
X42311687Y30574750D01*
X42813528Y30574750D01*
X42870029Y30554185D01*
X42900093Y30502114D01*
X42889652Y30442900D01*
X42875686Y30424700D01*
X42803344Y30352357D01*
X42788523Y30337536D01*
X42731425Y30225476D01*
X42731425Y30225475D01*
X42716700Y30132496D01*
X42716700Y29557506D01*
X42716701Y29557504D01*
X42731425Y29464528D01*
X42731427Y29464522D01*
X42788523Y29352465D01*
X42788524Y29352464D01*
X42788526Y29352461D01*
X42877461Y29263526D01*
X42877463Y29263525D01*
X42877464Y29263524D01*
X42989524Y29206426D01*
X42998660Y29204980D01*
X43028650Y29200230D01*
X43081238Y29171081D01*
X43102787Y29114948D01*
X43102800Y29113412D01*
X43102800Y28658105D01*
X43082235Y28601604D01*
X43053506Y28579137D01*
X42947142Y28527139D01*
X42857861Y28437858D01*
X42802415Y28324441D01*
X42802414Y28324439D01*
X42802413Y28324437D01*
X42802413Y28324435D01*
X42791700Y28250904D01*
X42791700Y27629096D01*
X42802413Y27555565D01*
X42802413Y27555564D01*
X42802414Y27555562D01*
X42802415Y27555560D01*
X42857861Y27442143D01*
X42857863Y27442141D01*
X42857864Y27442139D01*
X42947139Y27352864D01*
X42947140Y27352864D01*
X42947142Y27352862D01*
X43047942Y27303584D01*
X43060565Y27297413D01*
X43134096Y27286700D01*
X43134100Y27286700D01*
X43605899Y27286700D01*
X43605904Y27286700D01*
X43679435Y27297413D01*
X43792861Y27352864D01*
X43882136Y27442139D01*
X43937587Y27555565D01*
X43948300Y27629096D01*
X43948300Y28250904D01*
X43937587Y28324435D01*
X43921542Y28357255D01*
X43882138Y28437858D01*
X43882136Y28437860D01*
X43882136Y28437861D01*
X43792861Y28527136D01*
X43792859Y28527137D01*
X43792857Y28527139D01*
X43686494Y28579137D01*
X43644766Y28622427D01*
X43637200Y28658105D01*
X43637200Y29133059D01*
X43657765Y29189560D01*
X43685190Y29211377D01*
X43787539Y29263526D01*
X43876474Y29352461D01*
X43933574Y29464525D01*
X43948300Y29557503D01*
X43948299Y30132496D01*
X43933574Y30225475D01*
X43900685Y30290023D01*
X43876476Y30337536D01*
X43876475Y30337537D01*
X43876474Y30337539D01*
X43789316Y30424697D01*
X43763906Y30479189D01*
X43779469Y30537267D01*
X43828722Y30571755D01*
X43851472Y30574750D01*
X45366817Y30574750D01*
X45423318Y30554185D01*
X45428972Y30549005D01*
X47002222Y28975756D01*
X47002222Y28975755D01*
X47073249Y28904727D01*
X47073251Y28904726D01*
X47073253Y28904724D01*
X47160246Y28854499D01*
X47160248Y28854499D01*
X47160249Y28854498D01*
X47257275Y28828500D01*
X47357725Y28828500D01*
X49686493Y28828500D01*
X49742994Y28807935D01*
X49765176Y28779783D01*
X49845300Y28618875D01*
X49845301Y28618874D01*
X49845302Y28618872D01*
X49880365Y28572441D01*
X49970174Y28453514D01*
X50016040Y28411702D01*
X50123305Y28313916D01*
X50123308Y28313914D01*
X50299485Y28204830D01*
X50492707Y28129976D01*
X50492711Y28129976D01*
X50492715Y28129974D01*
X50601601Y28109620D01*
X50696393Y28091900D01*
X50696394Y28091900D01*
X50903606Y28091900D01*
X50903607Y28091900D01*
X51038741Y28117162D01*
X51107284Y28129974D01*
X51107286Y28129975D01*
X51107293Y28129976D01*
X51300515Y28204830D01*
X51476692Y28313914D01*
X51629826Y28453514D01*
X51754700Y28618875D01*
X51847064Y28804365D01*
X51897915Y28983087D01*
X51903770Y29003666D01*
X51903770Y29003667D01*
X51903769Y29003667D01*
X51903771Y29003670D01*
X51922890Y29210000D01*
X51903771Y29416330D01*
X51890058Y29464525D01*
X51863604Y29557503D01*
X51847064Y29615635D01*
X51754700Y29801125D01*
X51629826Y29966486D01*
X51526462Y30060715D01*
X51476694Y30106085D01*
X51476685Y30106091D01*
X51300517Y30215169D01*
X51300511Y30215172D01*
X51107296Y30290023D01*
X51107284Y30290027D01*
X50903609Y30328100D01*
X50903607Y30328100D01*
X50696393Y30328100D01*
X50696390Y30328100D01*
X50492715Y30290027D01*
X50492703Y30290023D01*
X50299488Y30215172D01*
X50299482Y30215169D01*
X50123314Y30106091D01*
X50123305Y30106085D01*
X49970173Y29966485D01*
X49845302Y29801129D01*
X49845300Y29801126D01*
X49845300Y29801125D01*
X49766969Y29643815D01*
X49765178Y29640219D01*
X49721584Y29598808D01*
X49686493Y29591500D01*
X47501932Y29591500D01*
X47445431Y29612065D01*
X47439777Y29617245D01*
X45795498Y31261525D01*
X45795497Y31261526D01*
X45708504Y31311751D01*
X45708503Y31311752D01*
X45708500Y31311753D01*
X45611475Y31337750D01*
X34557275Y31337750D01*
X34460249Y31311753D01*
X34373251Y31261525D01*
X30983322Y27871595D01*
X30928828Y27846184D01*
X30921167Y27845850D01*
X29388438Y27845850D01*
X29331937Y27866415D01*
X29301873Y27918486D01*
X29312314Y27977700D01*
X29326283Y27995905D01*
X29476713Y28146335D01*
X30071521Y28741143D01*
X30112200Y28839351D01*
X30112200Y28945649D01*
X30112200Y29879546D01*
X30132765Y29936047D01*
X30182953Y29965757D01*
X30214569Y29972045D01*
X30273547Y30011453D01*
X30312955Y30070431D01*
X30323300Y30122439D01*
X30323299Y31357560D01*
X30323299Y31357561D01*
X30323299Y31357564D01*
X30323298Y31357566D01*
X30312956Y31409566D01*
X30312956Y31409567D01*
X30306462Y31419286D01*
X30273547Y31468547D01*
X30214569Y31507955D01*
X30162561Y31518300D01*
X30162559Y31518300D01*
X29527436Y31518300D01*
X29527434Y31518299D01*
X29475434Y31507957D01*
X29475433Y31507957D01*
X29416454Y31468548D01*
X29416452Y31468546D01*
X29377045Y31409569D01*
X29366700Y31357560D01*
X29366700Y30122437D01*
X29366701Y30122435D01*
X29377043Y30070435D01*
X29377043Y30070434D01*
X29377044Y30070432D01*
X29377045Y30070431D01*
X29416453Y30011453D01*
X29475430Y29972046D01*
X29475431Y29972045D01*
X29507048Y29965756D01*
X29558452Y29934564D01*
X29577800Y29879545D01*
X29577800Y29039588D01*
X29557235Y28983087D01*
X29552055Y28977433D01*
X28807567Y28232945D01*
X28753073Y28207534D01*
X28745412Y28207200D01*
X28321038Y28207200D01*
X28264537Y28227765D01*
X28234473Y28279836D01*
X28244914Y28339050D01*
X28258883Y28357255D01*
X28380878Y28479250D01*
X28801521Y28899893D01*
X28842200Y28998101D01*
X28842200Y29104399D01*
X28842200Y29879546D01*
X28862765Y29936047D01*
X28912953Y29965757D01*
X28944569Y29972045D01*
X29003547Y30011453D01*
X29042955Y30070431D01*
X29053300Y30122439D01*
X29053299Y31357560D01*
X29053299Y31357561D01*
X29053299Y31357564D01*
X29053298Y31357566D01*
X29042956Y31409566D01*
X29042956Y31409567D01*
X29036462Y31419286D01*
X29003547Y31468547D01*
X28944569Y31507955D01*
X28892561Y31518300D01*
X28892559Y31518300D01*
X28257436Y31518300D01*
X28257434Y31518299D01*
X28205434Y31507957D01*
X28205433Y31507957D01*
X28146454Y31468548D01*
X28146452Y31468546D01*
X28107045Y31409569D01*
X28096700Y31357560D01*
X28096700Y30122437D01*
X28096701Y30122435D01*
X28107043Y30070435D01*
X28107043Y30070434D01*
X28107044Y30070432D01*
X28107045Y30070431D01*
X28146453Y30011453D01*
X28205430Y29972046D01*
X28205431Y29972045D01*
X28237048Y29965756D01*
X28288452Y29934564D01*
X28307800Y29879545D01*
X28307800Y29198338D01*
X28287235Y29141837D01*
X28282055Y29136183D01*
X27855067Y28709195D01*
X27800573Y28683784D01*
X27792912Y28683450D01*
X27368538Y28683450D01*
X27312037Y28704015D01*
X27281973Y28756086D01*
X27292414Y28815300D01*
X27306383Y28833505D01*
X27327377Y28854499D01*
X27531521Y29058643D01*
X27572200Y29156851D01*
X27572200Y29263149D01*
X27572200Y29879546D01*
X27592765Y29936047D01*
X27642953Y29965757D01*
X27674569Y29972045D01*
X27733547Y30011453D01*
X27772955Y30070431D01*
X27783300Y30122439D01*
X27783299Y31357560D01*
X27783299Y31357561D01*
X27783299Y31357564D01*
X27783298Y31357566D01*
X27772956Y31409566D01*
X27772956Y31409567D01*
X27766462Y31419286D01*
X27733547Y31468547D01*
X27674569Y31507955D01*
X27622561Y31518300D01*
X27622559Y31518300D01*
X26987436Y31518300D01*
X26987434Y31518299D01*
X26935434Y31507957D01*
X26935433Y31507957D01*
X26876454Y31468548D01*
X26876452Y31468546D01*
X26837045Y31409569D01*
X26826700Y31357560D01*
X26826700Y30122437D01*
X26826701Y30122435D01*
X26837043Y30070435D01*
X26837043Y30070434D01*
X26837044Y30070432D01*
X26837045Y30070431D01*
X26876453Y30011453D01*
X26935430Y29972046D01*
X26935431Y29972045D01*
X26967048Y29965756D01*
X27018452Y29934564D01*
X27037800Y29879545D01*
X27037800Y29357088D01*
X27017235Y29300587D01*
X27012055Y29294933D01*
X26756517Y29039395D01*
X26702023Y29013984D01*
X26694362Y29013650D01*
X26513437Y29013650D01*
X26456936Y29034215D01*
X26426872Y29086286D01*
X26433480Y29138065D01*
X26446603Y29166801D01*
X26479258Y29238304D01*
X26488213Y29300587D01*
X26498013Y29368747D01*
X26498013Y29368754D01*
X26479259Y29499190D01*
X26479258Y29499191D01*
X26479258Y29499196D01*
X26424511Y29619074D01*
X26424510Y29619075D01*
X26424510Y29619076D01*
X26354649Y29699699D01*
X26338209Y29718672D01*
X26338206Y29718674D01*
X26338205Y29718675D01*
X26227346Y29789920D01*
X26221627Y29792531D01*
X26222409Y29794245D01*
X26180487Y29825113D01*
X26166313Y29883545D01*
X26193014Y29937418D01*
X26248097Y29961524D01*
X26253666Y29961701D01*
X26352560Y29961701D01*
X26352564Y29961701D01*
X26352565Y29961702D01*
X26404565Y29972044D01*
X26404566Y29972044D01*
X26404566Y29972045D01*
X26404569Y29972045D01*
X26463547Y30011453D01*
X26502955Y30070431D01*
X26513300Y30122439D01*
X26513299Y31357560D01*
X26513299Y31357561D01*
X26513299Y31357564D01*
X26513298Y31357566D01*
X26502956Y31409566D01*
X26502956Y31409567D01*
X26496462Y31419286D01*
X26463547Y31468547D01*
X26404569Y31507955D01*
X26404568Y31507956D01*
X26372952Y31514244D01*
X26321548Y31545436D01*
X26302200Y31600455D01*
X26302200Y32931099D01*
X29051801Y32931099D01*
X29051801Y32718408D01*
X29054511Y32689500D01*
X29054514Y32689487D01*
X29097143Y32567659D01*
X29173795Y32463800D01*
X29173799Y32463796D01*
X29277658Y32387143D01*
X29399489Y32344513D01*
X29399494Y32344512D01*
X29428413Y32341801D01*
X29616100Y32341801D01*
X29616100Y32931099D01*
X29793900Y32931099D01*
X29793900Y32341802D01*
X29793901Y32341801D01*
X29981582Y32341801D01*
X29981592Y32341802D01*
X30010500Y32344512D01*
X30010513Y32344515D01*
X30132341Y32387144D01*
X30236200Y32463796D01*
X30236204Y32463800D01*
X30312857Y32567659D01*
X30355487Y32689490D01*
X30355488Y32689495D01*
X30358199Y32718413D01*
X30358200Y32718415D01*
X30358200Y32931099D01*
X30358199Y32931100D01*
X29793901Y32931100D01*
X29793900Y32931099D01*
X29616100Y32931099D01*
X29616099Y32931100D01*
X29051802Y32931100D01*
X29051801Y32931099D01*
X26302200Y32931099D01*
X26302200Y33231898D01*
X26302200Y33231899D01*
X26265050Y33321588D01*
X29051800Y33321588D01*
X29051800Y33108901D01*
X29051801Y33108900D01*
X29616099Y33108900D01*
X29616100Y33108901D01*
X29616100Y33698199D01*
X29793900Y33698199D01*
X29793900Y33108901D01*
X29793901Y33108900D01*
X30358198Y33108900D01*
X30358199Y33108901D01*
X30358199Y33301738D01*
X30626700Y33301738D01*
X30626700Y32738264D01*
X30626701Y32738262D01*
X30641657Y32643823D01*
X30641657Y32643822D01*
X30641658Y32643820D01*
X30699657Y32529991D01*
X30789991Y32439657D01*
X30799803Y32434658D01*
X30840811Y32390685D01*
X30847800Y32356337D01*
X30847800Y31600455D01*
X30827235Y31543954D01*
X30777047Y31514244D01*
X30745433Y31507957D01*
X30686454Y31468548D01*
X30686452Y31468546D01*
X30647045Y31409569D01*
X30636700Y31357560D01*
X30636700Y30122437D01*
X30636701Y30122435D01*
X30647043Y30070435D01*
X30647043Y30070434D01*
X30647044Y30070432D01*
X30647045Y30070431D01*
X30686453Y30011453D01*
X30745431Y29972045D01*
X30797439Y29961700D01*
X31432560Y29961701D01*
X31432563Y29961701D01*
X31432565Y29961702D01*
X31484565Y29972044D01*
X31484566Y29972044D01*
X31484566Y29972045D01*
X31484569Y29972045D01*
X31543547Y30011453D01*
X31582955Y30070431D01*
X31593300Y30122439D01*
X31593299Y31357560D01*
X31593299Y31357561D01*
X31593299Y31357564D01*
X31593298Y31357566D01*
X31582956Y31409566D01*
X31582956Y31409567D01*
X31576462Y31419286D01*
X31543547Y31468547D01*
X31484569Y31507955D01*
X31484568Y31507956D01*
X31452952Y31514244D01*
X31401548Y31545436D01*
X31382200Y31600455D01*
X31382200Y31838901D01*
X49660340Y31838901D01*
X49660341Y31838900D01*
X50297900Y31838900D01*
X50292000Y31816880D01*
X50292000Y31683120D01*
X50297900Y31661100D01*
X49660341Y31661100D01*
X49671648Y31539071D01*
X49671648Y31539070D01*
X49729616Y31335336D01*
X49824039Y31145709D01*
X49951691Y30976671D01*
X49951695Y30976667D01*
X50108235Y30833960D01*
X50108244Y30833954D01*
X50288333Y30722448D01*
X50288347Y30722442D01*
X50485859Y30645925D01*
X50485873Y30645921D01*
X50694080Y30607001D01*
X50694086Y30607000D01*
X50711099Y30607000D01*
X50711100Y30607001D01*
X50711100Y31247901D01*
X50733120Y31242000D01*
X50866880Y31242000D01*
X50888900Y31247901D01*
X50888900Y30607001D01*
X50888901Y30607000D01*
X50905914Y30607000D01*
X50905919Y30607001D01*
X51114126Y30645921D01*
X51114140Y30645925D01*
X51311652Y30722442D01*
X51311666Y30722448D01*
X51491755Y30833954D01*
X51491764Y30833960D01*
X51648304Y30976667D01*
X51648308Y30976671D01*
X51775960Y31145709D01*
X51870383Y31335336D01*
X51928351Y31539070D01*
X51928351Y31539071D01*
X51939659Y31661100D01*
X51302100Y31661100D01*
X51308000Y31683120D01*
X51308000Y31816880D01*
X51302100Y31838900D01*
X51939659Y31838900D01*
X51939659Y31838901D01*
X51928351Y31960930D01*
X51928351Y31960931D01*
X51870383Y32164665D01*
X51775960Y32354292D01*
X51648308Y32523330D01*
X51648304Y32523334D01*
X51491764Y32666041D01*
X51491755Y32666047D01*
X51311666Y32777553D01*
X51311652Y32777559D01*
X51114140Y32854076D01*
X51114126Y32854080D01*
X50905919Y32893000D01*
X50888901Y32893000D01*
X50888900Y32892999D01*
X50888900Y32252100D01*
X50866880Y32258000D01*
X50733120Y32258000D01*
X50711100Y32252100D01*
X50711100Y32892999D01*
X50711099Y32893000D01*
X50694080Y32893000D01*
X50485873Y32854080D01*
X50485859Y32854076D01*
X50288347Y32777559D01*
X50288333Y32777553D01*
X50108244Y32666047D01*
X50108235Y32666041D01*
X49951695Y32523334D01*
X49951691Y32523330D01*
X49824039Y32354292D01*
X49729616Y32164665D01*
X49671648Y31960931D01*
X49671648Y31960930D01*
X49660340Y31838901D01*
X31382200Y31838901D01*
X31382200Y32278801D01*
X31402765Y32335302D01*
X31454836Y32365366D01*
X31470100Y32366701D01*
X31511737Y32366701D01*
X31511738Y32366701D01*
X31606180Y32381658D01*
X31720009Y32439657D01*
X31810343Y32529991D01*
X31868342Y32643820D01*
X31883300Y32738261D01*
X31883299Y33301738D01*
X31868342Y33396180D01*
X31810343Y33510009D01*
X31720009Y33600343D01*
X31606180Y33658342D01*
X31606178Y33658343D01*
X31606177Y33658343D01*
X31547282Y33667671D01*
X31511739Y33673300D01*
X31511737Y33673300D01*
X30998263Y33673300D01*
X30998261Y33673299D01*
X30903822Y33658343D01*
X30789992Y33600344D01*
X30699656Y33510008D01*
X30641657Y33396178D01*
X30626700Y33301738D01*
X30358199Y33301738D01*
X30358199Y33321582D01*
X30358198Y33321593D01*
X30355488Y33350501D01*
X30355485Y33350514D01*
X30312856Y33472342D01*
X30236204Y33576201D01*
X30236200Y33576205D01*
X30132341Y33652858D01*
X30010510Y33695488D01*
X30010505Y33695489D01*
X29981587Y33698200D01*
X29793901Y33698200D01*
X29793900Y33698199D01*
X29616100Y33698199D01*
X29616100Y33698200D01*
X29428418Y33698200D01*
X29428407Y33698199D01*
X29399499Y33695489D01*
X29399486Y33695486D01*
X29277658Y33652857D01*
X29173799Y33576205D01*
X29173795Y33576201D01*
X29097142Y33472342D01*
X29054512Y33350511D01*
X29054511Y33350506D01*
X29051800Y33321588D01*
X26265050Y33321588D01*
X26261521Y33330107D01*
X26241114Y33350514D01*
X26186357Y33405272D01*
X26186357Y33405271D01*
X25233857Y34357771D01*
X25233855Y34357772D01*
X25233856Y34357772D01*
X25182845Y34378901D01*
X49660340Y34378901D01*
X49660341Y34378900D01*
X50297900Y34378900D01*
X50292000Y34356880D01*
X50292000Y34223120D01*
X50297900Y34201100D01*
X49660341Y34201100D01*
X49671648Y34079071D01*
X49671648Y34079070D01*
X49729616Y33875336D01*
X49824039Y33685709D01*
X49951691Y33516671D01*
X49951695Y33516667D01*
X50108235Y33373960D01*
X50108244Y33373954D01*
X50288333Y33262448D01*
X50288347Y33262442D01*
X50485859Y33185925D01*
X50485873Y33185921D01*
X50694080Y33147001D01*
X50694086Y33147000D01*
X50711099Y33147000D01*
X50711100Y33147001D01*
X50711100Y33787901D01*
X50733120Y33782000D01*
X50866880Y33782000D01*
X50888900Y33787901D01*
X50888900Y33147001D01*
X50888901Y33147000D01*
X50905914Y33147000D01*
X50905919Y33147001D01*
X51114126Y33185921D01*
X51114140Y33185925D01*
X51311652Y33262442D01*
X51311666Y33262448D01*
X51491755Y33373954D01*
X51491764Y33373960D01*
X51648304Y33516667D01*
X51648308Y33516671D01*
X51775960Y33685709D01*
X51870383Y33875336D01*
X51928351Y34079070D01*
X51928351Y34079071D01*
X51939659Y34201100D01*
X51302100Y34201100D01*
X51308000Y34223120D01*
X51308000Y34356880D01*
X51302100Y34378900D01*
X51939659Y34378900D01*
X51939659Y34378901D01*
X51928351Y34500930D01*
X51928351Y34500931D01*
X51870383Y34704665D01*
X51775960Y34894292D01*
X51648308Y35063330D01*
X51648304Y35063334D01*
X51491764Y35206041D01*
X51491755Y35206047D01*
X51311666Y35317553D01*
X51311652Y35317559D01*
X51114140Y35394076D01*
X51114126Y35394080D01*
X50905919Y35433000D01*
X50888901Y35433000D01*
X50888900Y35432999D01*
X50888900Y34792100D01*
X50866880Y34798000D01*
X50733120Y34798000D01*
X50711100Y34792100D01*
X50711100Y35432999D01*
X50711099Y35433000D01*
X50694080Y35433000D01*
X50485873Y35394080D01*
X50485859Y35394076D01*
X50288347Y35317559D01*
X50288333Y35317553D01*
X50108244Y35206047D01*
X50108235Y35206041D01*
X49951695Y35063334D01*
X49951691Y35063330D01*
X49824039Y34894292D01*
X49729616Y34704665D01*
X49671648Y34500931D01*
X49671648Y34500930D01*
X49660340Y34378901D01*
X25182845Y34378901D01*
X25176327Y34381601D01*
X25135649Y34398450D01*
X25135648Y34398450D01*
X10307088Y34398450D01*
X10250587Y34419015D01*
X10244933Y34424195D01*
X8389195Y36279933D01*
X8363784Y36334427D01*
X8363450Y36342088D01*
X8363450Y36830001D01*
X49677110Y36830001D01*
X49677110Y36830000D01*
X49696229Y36623667D01*
X49696229Y36623666D01*
X49752934Y36424372D01*
X49752936Y36424365D01*
X49845300Y36238875D01*
X49970174Y36073514D01*
X50045245Y36005078D01*
X50123305Y35933916D01*
X50123308Y35933914D01*
X50299485Y35824830D01*
X50492707Y35749976D01*
X50492711Y35749976D01*
X50492715Y35749974D01*
X50601601Y35729620D01*
X50696393Y35711900D01*
X50696394Y35711900D01*
X50903606Y35711900D01*
X50903607Y35711900D01*
X51038741Y35737162D01*
X51107284Y35749974D01*
X51107286Y35749975D01*
X51107293Y35749976D01*
X51300515Y35824830D01*
X51476692Y35933914D01*
X51629826Y36073514D01*
X51754700Y36238875D01*
X51847064Y36424365D01*
X51903771Y36623670D01*
X51922890Y36830000D01*
X51903771Y37036330D01*
X51847064Y37235635D01*
X51754700Y37421125D01*
X51629826Y37586486D01*
X51545837Y37663052D01*
X51476694Y37726085D01*
X51476685Y37726091D01*
X51300517Y37835169D01*
X51300511Y37835172D01*
X51107296Y37910023D01*
X51107284Y37910027D01*
X50903609Y37948100D01*
X50903607Y37948100D01*
X50696393Y37948100D01*
X50696390Y37948100D01*
X50492715Y37910027D01*
X50492703Y37910023D01*
X50299488Y37835172D01*
X50299482Y37835169D01*
X50123314Y37726091D01*
X50123305Y37726085D01*
X49970173Y37586485D01*
X49845302Y37421129D01*
X49752936Y37235634D01*
X49752934Y37235629D01*
X49696229Y37036335D01*
X49696229Y37036334D01*
X49677110Y36830001D01*
X8363450Y36830001D01*
X8363450Y41910001D01*
X49677110Y41910001D01*
X49677110Y41910000D01*
X49696229Y41703667D01*
X49696229Y41703666D01*
X49712737Y41645649D01*
X49752936Y41504365D01*
X49845300Y41318875D01*
X49970174Y41153514D01*
X50061584Y41070182D01*
X50123305Y41013916D01*
X50123308Y41013914D01*
X50299485Y40904830D01*
X50492707Y40829976D01*
X50492711Y40829976D01*
X50492715Y40829974D01*
X50601601Y40809620D01*
X50696393Y40791900D01*
X50696394Y40791900D01*
X50903606Y40791900D01*
X50903607Y40791900D01*
X51038741Y40817162D01*
X51107284Y40829974D01*
X51107286Y40829975D01*
X51107293Y40829976D01*
X51300515Y40904830D01*
X51476692Y41013914D01*
X51629826Y41153514D01*
X51754700Y41318875D01*
X51847064Y41504365D01*
X51903771Y41703670D01*
X51922890Y41910000D01*
X51903771Y42116330D01*
X51847064Y42315635D01*
X51754700Y42501125D01*
X51629826Y42666486D01*
X51530586Y42756955D01*
X51476694Y42806085D01*
X51476685Y42806091D01*
X51300517Y42915169D01*
X51300511Y42915172D01*
X51107296Y42990023D01*
X51107284Y42990027D01*
X50903609Y43028100D01*
X50903607Y43028100D01*
X50696393Y43028100D01*
X50696390Y43028100D01*
X50492715Y42990027D01*
X50492703Y42990023D01*
X50299488Y42915172D01*
X50299482Y42915169D01*
X50123314Y42806091D01*
X50123305Y42806085D01*
X49970173Y42666485D01*
X49845302Y42501129D01*
X49845300Y42501126D01*
X49845300Y42501125D01*
X49760673Y42331171D01*
X49752936Y42315634D01*
X49752934Y42315629D01*
X49696229Y42116335D01*
X49696229Y42116334D01*
X49677110Y41910001D01*
X8363450Y41910001D01*
X8363450Y44450001D01*
X49677110Y44450001D01*
X49677110Y44450000D01*
X49696229Y44243667D01*
X49696229Y44243666D01*
X49752934Y44044372D01*
X49752936Y44044365D01*
X49845300Y43858875D01*
X49970174Y43693514D01*
X50061584Y43610182D01*
X50123305Y43553916D01*
X50123308Y43553914D01*
X50299485Y43444830D01*
X50492707Y43369976D01*
X50492711Y43369976D01*
X50492715Y43369974D01*
X50601601Y43349620D01*
X50696393Y43331900D01*
X50696394Y43331900D01*
X50903606Y43331900D01*
X50903607Y43331900D01*
X51038741Y43357162D01*
X51107284Y43369974D01*
X51107286Y43369975D01*
X51107293Y43369976D01*
X51300515Y43444830D01*
X51476692Y43553914D01*
X51629826Y43693514D01*
X51754700Y43858875D01*
X51847064Y44044365D01*
X51903771Y44243670D01*
X51922890Y44450000D01*
X51903771Y44656330D01*
X51892692Y44695267D01*
X51882557Y44730887D01*
X51847064Y44855635D01*
X51754700Y45041125D01*
X51629826Y45206486D01*
X51545837Y45283052D01*
X51476694Y45346085D01*
X51476685Y45346091D01*
X51300517Y45455169D01*
X51300511Y45455172D01*
X51107296Y45530023D01*
X51107284Y45530027D01*
X50903609Y45568100D01*
X50903607Y45568100D01*
X50696393Y45568100D01*
X50696390Y45568100D01*
X50492715Y45530027D01*
X50492703Y45530023D01*
X50299488Y45455172D01*
X50299482Y45455169D01*
X50123314Y45346091D01*
X50123305Y45346085D01*
X49970173Y45206485D01*
X49845302Y45041129D01*
X49752936Y44855634D01*
X49752934Y44855629D01*
X49696229Y44656335D01*
X49696229Y44656334D01*
X49677110Y44450001D01*
X8363450Y44450001D01*
X8363450Y46566898D01*
X8363450Y46566899D01*
X8322771Y46665107D01*
X8285643Y46702235D01*
X8247607Y46740272D01*
X8247607Y46740271D01*
X7997877Y46990001D01*
X49677110Y46990001D01*
X49677110Y46990000D01*
X49696229Y46783667D01*
X49696229Y46783666D01*
X49729962Y46665109D01*
X49752936Y46584365D01*
X49845300Y46398875D01*
X49970174Y46233514D01*
X50061584Y46150182D01*
X50123305Y46093916D01*
X50123308Y46093914D01*
X50299485Y45984830D01*
X50492707Y45909976D01*
X50492711Y45909976D01*
X50492715Y45909974D01*
X50601601Y45889620D01*
X50696393Y45871900D01*
X50696394Y45871900D01*
X50903606Y45871900D01*
X50903607Y45871900D01*
X51038741Y45897162D01*
X51107284Y45909974D01*
X51107286Y45909975D01*
X51107293Y45909976D01*
X51300515Y45984830D01*
X51476692Y46093914D01*
X51629826Y46233514D01*
X51754700Y46398875D01*
X51847064Y46584365D01*
X51903771Y46783670D01*
X51922890Y46990000D01*
X51903771Y47196330D01*
X51847064Y47395635D01*
X51754700Y47581125D01*
X51629826Y47746486D01*
X51545837Y47823052D01*
X51476694Y47886085D01*
X51476685Y47886091D01*
X51300517Y47995169D01*
X51300511Y47995172D01*
X51107296Y48070023D01*
X51107284Y48070027D01*
X50903609Y48108100D01*
X50903607Y48108100D01*
X50696393Y48108100D01*
X50696390Y48108100D01*
X50492715Y48070027D01*
X50492703Y48070023D01*
X50299488Y47995172D01*
X50299482Y47995169D01*
X50123314Y47886091D01*
X50123305Y47886085D01*
X49970173Y47746485D01*
X49845302Y47581129D01*
X49752936Y47395634D01*
X49752934Y47395629D01*
X49696229Y47196335D01*
X49696229Y47196334D01*
X49677110Y46990001D01*
X7997877Y46990001D01*
X5457877Y49530001D01*
X49677110Y49530001D01*
X49677110Y49530000D01*
X49696229Y49323667D01*
X49696229Y49323666D01*
X49731713Y49198955D01*
X49752936Y49124365D01*
X49845300Y48938875D01*
X49970174Y48773514D01*
X50061584Y48690182D01*
X50123305Y48633916D01*
X50123308Y48633914D01*
X50299485Y48524830D01*
X50492707Y48449976D01*
X50492711Y48449976D01*
X50492715Y48449974D01*
X50601601Y48429620D01*
X50696393Y48411900D01*
X50696394Y48411900D01*
X50903606Y48411900D01*
X50903607Y48411900D01*
X51038741Y48437162D01*
X51107284Y48449974D01*
X51107286Y48449975D01*
X51107293Y48449976D01*
X51300515Y48524830D01*
X51476692Y48633914D01*
X51629826Y48773514D01*
X51754700Y48938875D01*
X51847064Y49124365D01*
X51903771Y49323670D01*
X51922890Y49530000D01*
X51903771Y49736330D01*
X51847064Y49935635D01*
X51754700Y50121125D01*
X51629826Y50286486D01*
X51545837Y50363052D01*
X51476694Y50426085D01*
X51476685Y50426091D01*
X51300517Y50535169D01*
X51300511Y50535172D01*
X51107296Y50610023D01*
X51107284Y50610027D01*
X50903609Y50648100D01*
X50903607Y50648100D01*
X50696393Y50648100D01*
X50696390Y50648100D01*
X50492715Y50610027D01*
X50492703Y50610023D01*
X50299488Y50535172D01*
X50299482Y50535169D01*
X50123314Y50426091D01*
X50123305Y50426085D01*
X49970173Y50286485D01*
X49845302Y50121129D01*
X49752936Y49935634D01*
X49752934Y49935629D01*
X49696229Y49736335D01*
X49696229Y49736334D01*
X49677110Y49530001D01*
X5457877Y49530001D01*
X5231357Y49756521D01*
X5133149Y49797200D01*
X5133148Y49797200D01*
X3692831Y49797200D01*
X3636330Y49817765D01*
X3608287Y49861045D01*
X3600645Y49887902D01*
X3587064Y49935635D01*
X3494700Y50121125D01*
X3369826Y50286486D01*
X3285837Y50363052D01*
X3216694Y50426085D01*
X3216685Y50426091D01*
X3040517Y50535169D01*
X3040511Y50535172D01*
X2847296Y50610023D01*
X2847284Y50610027D01*
X2643609Y50648100D01*
X2643607Y50648100D01*
X2436393Y50648100D01*
X2436390Y50648100D01*
X2232715Y50610027D01*
X2232703Y50610023D01*
X2039488Y50535172D01*
X2039482Y50535169D01*
X1863314Y50426091D01*
X1863305Y50426085D01*
X1710173Y50286485D01*
X1585302Y50121129D01*
X1492936Y49935634D01*
X1492934Y49935629D01*
X1436229Y49736335D01*
X1436229Y49736334D01*
X1417110Y49530001D01*
X0Y49530001D01*
X0Y52070001D01*
X1417110Y52070001D01*
X1417110Y52070000D01*
X1436229Y51863667D01*
X1436229Y51863666D01*
X1492934Y51664372D01*
X1492936Y51664365D01*
X1585300Y51478875D01*
X1710174Y51313514D01*
X1801584Y51230182D01*
X1863305Y51173916D01*
X1863308Y51173914D01*
X2039485Y51064830D01*
X2232707Y50989976D01*
X2232711Y50989976D01*
X2232715Y50989974D01*
X2341601Y50969620D01*
X2436393Y50951900D01*
X2436394Y50951900D01*
X2643606Y50951900D01*
X2643607Y50951900D01*
X2778741Y50977162D01*
X2847284Y50989974D01*
X2847286Y50989975D01*
X2847293Y50989976D01*
X3040515Y51064830D01*
X3216692Y51173914D01*
X3369826Y51313514D01*
X3494700Y51478875D01*
X3587064Y51664365D01*
X3643771Y51863670D01*
X3662890Y52070000D01*
X3662890Y52070001D01*
X49677110Y52070001D01*
X49677110Y52070000D01*
X49696229Y51863667D01*
X49696229Y51863666D01*
X49752934Y51664372D01*
X49752936Y51664365D01*
X49845300Y51478875D01*
X49970174Y51313514D01*
X50061584Y51230182D01*
X50123305Y51173916D01*
X50123308Y51173914D01*
X50299485Y51064830D01*
X50492707Y50989976D01*
X50492711Y50989976D01*
X50492715Y50989974D01*
X50601601Y50969620D01*
X50696393Y50951900D01*
X50696394Y50951900D01*
X50903606Y50951900D01*
X50903607Y50951900D01*
X51038741Y50977162D01*
X51107284Y50989974D01*
X51107286Y50989975D01*
X51107293Y50989976D01*
X51300515Y51064830D01*
X51476692Y51173914D01*
X51629826Y51313514D01*
X51754700Y51478875D01*
X51847064Y51664365D01*
X51903771Y51863670D01*
X51922890Y52070000D01*
X51903771Y52276330D01*
X51847064Y52475635D01*
X51754700Y52661125D01*
X51629826Y52826486D01*
X51545837Y52903052D01*
X51476694Y52966085D01*
X51476685Y52966091D01*
X51300517Y53075169D01*
X51300511Y53075172D01*
X51107296Y53150023D01*
X51107284Y53150027D01*
X50903609Y53188100D01*
X50903607Y53188100D01*
X50696393Y53188100D01*
X50696390Y53188100D01*
X50492715Y53150027D01*
X50492703Y53150023D01*
X50299488Y53075172D01*
X50299482Y53075169D01*
X50123314Y52966091D01*
X50123305Y52966085D01*
X49970173Y52826485D01*
X49845302Y52661129D01*
X49752936Y52475634D01*
X49752934Y52475629D01*
X49696229Y52276335D01*
X49696229Y52276334D01*
X49677110Y52070001D01*
X3662890Y52070001D01*
X3643771Y52276330D01*
X3587064Y52475635D01*
X3494700Y52661125D01*
X3369826Y52826486D01*
X3285837Y52903052D01*
X3216694Y52966085D01*
X3216685Y52966091D01*
X3040517Y53075169D01*
X3040511Y53075172D01*
X2847296Y53150023D01*
X2847284Y53150027D01*
X2643609Y53188100D01*
X2643607Y53188100D01*
X2436393Y53188100D01*
X2436390Y53188100D01*
X2232715Y53150027D01*
X2232703Y53150023D01*
X2039488Y53075172D01*
X2039482Y53075169D01*
X1863314Y52966091D01*
X1863305Y52966085D01*
X1710173Y52826485D01*
X1585302Y52661129D01*
X1492936Y52475634D01*
X1492934Y52475629D01*
X1436229Y52276335D01*
X1436229Y52276334D01*
X1417110Y52070001D01*
X0Y52070001D01*
X0Y54610001D01*
X1417110Y54610001D01*
X1417110Y54610000D01*
X1436229Y54403667D01*
X1436229Y54403666D01*
X1492934Y54204372D01*
X1492936Y54204365D01*
X1585300Y54018875D01*
X1710174Y53853514D01*
X1801584Y53770182D01*
X1863305Y53713916D01*
X1863308Y53713914D01*
X2039485Y53604830D01*
X2232707Y53529976D01*
X2232711Y53529976D01*
X2232715Y53529974D01*
X2341601Y53509620D01*
X2436393Y53491900D01*
X2436394Y53491900D01*
X2643606Y53491900D01*
X2643607Y53491900D01*
X2778741Y53517162D01*
X2847284Y53529974D01*
X2847286Y53529975D01*
X2847293Y53529976D01*
X3040515Y53604830D01*
X3216692Y53713914D01*
X3369826Y53853514D01*
X3494700Y54018875D01*
X3587064Y54204365D01*
X3643771Y54403670D01*
X3662890Y54610000D01*
X3662890Y54610001D01*
X49677110Y54610001D01*
X49677110Y54610000D01*
X49696229Y54403667D01*
X49696229Y54403666D01*
X49752934Y54204372D01*
X49752936Y54204365D01*
X49845300Y54018875D01*
X49970174Y53853514D01*
X50061584Y53770182D01*
X50123305Y53713916D01*
X50123308Y53713914D01*
X50299485Y53604830D01*
X50492707Y53529976D01*
X50492711Y53529976D01*
X50492715Y53529974D01*
X50601601Y53509620D01*
X50696393Y53491900D01*
X50696394Y53491900D01*
X50903606Y53491900D01*
X50903607Y53491900D01*
X51038741Y53517162D01*
X51107284Y53529974D01*
X51107286Y53529975D01*
X51107293Y53529976D01*
X51300515Y53604830D01*
X51476692Y53713914D01*
X51629826Y53853514D01*
X51754700Y54018875D01*
X51847064Y54204365D01*
X51903771Y54403670D01*
X51922890Y54610000D01*
X51903771Y54816330D01*
X51847064Y55015635D01*
X51754700Y55201125D01*
X51629826Y55366486D01*
X51545837Y55443052D01*
X51476694Y55506085D01*
X51476685Y55506091D01*
X51300517Y55615169D01*
X51300511Y55615172D01*
X51107296Y55690023D01*
X51107284Y55690027D01*
X50903609Y55728100D01*
X50903607Y55728100D01*
X50696393Y55728100D01*
X50696390Y55728100D01*
X50492715Y55690027D01*
X50492703Y55690023D01*
X50299488Y55615172D01*
X50299482Y55615169D01*
X50123314Y55506091D01*
X50123305Y55506085D01*
X49970173Y55366485D01*
X49845302Y55201129D01*
X49752936Y55015634D01*
X49752934Y55015629D01*
X49696229Y54816335D01*
X49696229Y54816334D01*
X49677110Y54610001D01*
X3662890Y54610001D01*
X3643771Y54816330D01*
X3587064Y55015635D01*
X3494700Y55201125D01*
X3369826Y55366486D01*
X3285837Y55443052D01*
X3216694Y55506085D01*
X3216685Y55506091D01*
X3040517Y55615169D01*
X3040511Y55615172D01*
X2847296Y55690023D01*
X2847284Y55690027D01*
X2643609Y55728100D01*
X2643607Y55728100D01*
X2436393Y55728100D01*
X2436390Y55728100D01*
X2232715Y55690027D01*
X2232703Y55690023D01*
X2039488Y55615172D01*
X2039482Y55615169D01*
X1863314Y55506091D01*
X1863305Y55506085D01*
X1710173Y55366485D01*
X1585302Y55201129D01*
X1492936Y55015634D01*
X1492934Y55015629D01*
X1436229Y54816335D01*
X1436229Y54816334D01*
X1417110Y54610001D01*
X0Y54610001D01*
X0Y55843590D01*
X20565Y55900091D01*
X25745Y55905745D01*
X1244255Y57124255D01*
X1298749Y57149666D01*
X1306410Y57150000D01*
X12699999Y57150000D01*
X12700000Y57150000D01*
X13652504Y58102504D01*
X47436853Y58102504D01*
X47436853Y58102497D01*
X47457333Y57960050D01*
X47457334Y57960045D01*
X47457335Y57960043D01*
X47517123Y57829127D01*
X47611372Y57720357D01*
X47732447Y57642547D01*
X47870539Y57602000D01*
X47870540Y57602000D01*
X48014460Y57602000D01*
X48014461Y57602000D01*
X48152553Y57642547D01*
X48273628Y57720357D01*
X48367877Y57829127D01*
X48427665Y57960043D01*
X48448147Y58102500D01*
X48448147Y58102504D01*
X48427666Y58244951D01*
X48427665Y58244952D01*
X48427665Y58244957D01*
X48367877Y58375873D01*
X48273628Y58484643D01*
X48273626Y58484644D01*
X48273624Y58484646D01*
X48152554Y58562453D01*
X48152550Y58562454D01*
X48014467Y58602999D01*
X48014461Y58603000D01*
X47870539Y58603000D01*
X47870538Y58603000D01*
X47870532Y58602999D01*
X47732449Y58562454D01*
X47732445Y58562453D01*
X47611375Y58484646D01*
X47611370Y58484642D01*
X47517122Y58375872D01*
X47457335Y58244957D01*
X47457333Y58244951D01*
X47436853Y58102504D01*
X13652504Y58102504D01*
X15214255Y59664255D01*
X15268749Y59689666D01*
X15276410Y59690000D01*
X48223590Y59690000D01*
X48280091Y59669435D01*
G37*
%TD.AperFunction*%
%TD*%
M02*
