%TF.GenerationSoftware,KiCad,Pcbnew,8.0.6*%
%TF.CreationDate,2024-11-21T20:47:18-07:00*%
%TF.ProjectId,SparkFun_Serial_MP3_Player_Shield_MY1690X,53706172-6b46-4756-9e5f-53657269616c,rev?*%
%TF.SameCoordinates,Original*%
%TF.FileFunction,Paste,Top*%
%TF.FilePolarity,Positive*%
%FSLAX46Y46*%
G04 Gerber Fmt 4.6, Leading zero omitted, Abs format (unit mm)*
G04 Created by KiCad (PCBNEW 8.0.6) date 2024-11-21 20:47:18*
%MOMM*%
%LPD*%
G01*
G04 APERTURE LIST*
G04 Aperture macros list*
%AMRoundRect*
0 Rectangle with rounded corners*
0 $1 Rounding radius*
0 $2 $3 $4 $5 $6 $7 $8 $9 X,Y pos of 4 corners*
0 Add a 4 corners polygon primitive as box body*
4,1,4,$2,$3,$4,$5,$6,$7,$8,$9,$2,$3,0*
0 Add four circle primitives for the rounded corners*
1,1,$1+$1,$2,$3*
1,1,$1+$1,$4,$5*
1,1,$1+$1,$6,$7*
1,1,$1+$1,$8,$9*
0 Add four rect primitives between the rounded corners*
20,1,$1+$1,$2,$3,$4,$5,0*
20,1,$1+$1,$4,$5,$6,$7,0*
20,1,$1+$1,$6,$7,$8,$9,0*
20,1,$1+$1,$8,$9,$2,$3,0*%
G04 Aperture macros list end*
%ADD10R,0.762000X1.524000*%
%ADD11RoundRect,0.225000X0.225000X0.250000X-0.225000X0.250000X-0.225000X-0.250000X0.225000X-0.250000X0*%
%ADD12RoundRect,0.200000X-0.200000X-0.275000X0.200000X-0.275000X0.200000X0.275000X-0.200000X0.275000X0*%
%ADD13R,0.600000X1.200000*%
%ADD14R,2.500000X1.200000*%
%ADD15RoundRect,0.200000X0.200000X0.275000X-0.200000X0.275000X-0.200000X-0.275000X0.200000X-0.275000X0*%
%ADD16R,0.800000X0.900000*%
%ADD17R,0.700000X1.600000*%
%ADD18R,1.200000X1.600000*%
%ADD19R,1.200000X2.200000*%
%ADD20R,1.600000X1.400000*%
%ADD21RoundRect,0.218750X-0.218750X-0.256250X0.218750X-0.256250X0.218750X0.256250X-0.218750X0.256250X0*%
%ADD22R,0.600000X1.000000*%
%ADD23O,1.000000X1.600000*%
%ADD24O,1.000000X2.100000*%
%ADD25R,0.300000X1.000000*%
%ADD26RoundRect,0.225000X-0.225000X-0.250000X0.225000X-0.250000X0.225000X0.250000X-0.225000X0.250000X0*%
G04 APERTURE END LIST*
D10*
%TO.C,SW1*%
X51435000Y15811500D03*
X51435000Y10223500D03*
X47625000Y15811500D03*
X47625000Y10223500D03*
%TD*%
D11*
%TO.C,C8*%
X27445000Y22860000D03*
X25895000Y22860000D03*
%TD*%
D12*
%TO.C,R1*%
X17272500Y25082500D03*
X18922500Y25082500D03*
%TD*%
D13*
%TO.C,U2*%
X22225000Y25140000D03*
X23495000Y25140000D03*
X24765000Y25140000D03*
X26035000Y25140000D03*
X27305000Y25140000D03*
X28575000Y25140000D03*
X29845000Y25140000D03*
X31115000Y25140000D03*
X31115000Y30740000D03*
X29845000Y30740000D03*
X28575000Y30740000D03*
X27305000Y30740000D03*
X26035000Y30740000D03*
X24765000Y30740000D03*
X23495000Y30740000D03*
X22225000Y30740000D03*
%TD*%
D11*
%TO.C,C7*%
X31255000Y33020000D03*
X29705000Y33020000D03*
%TD*%
D14*
%TO.C,J1*%
X17705000Y6180000D03*
X17705000Y3180000D03*
X24205000Y11280000D03*
X17705000Y10180000D03*
%TD*%
D15*
%TO.C,R2*%
X14477500Y9525000D03*
X12827500Y9525000D03*
%TD*%
D12*
%TO.C,R6*%
X29655000Y22860000D03*
X31305000Y22860000D03*
%TD*%
%TO.C,R9*%
X41720000Y27940000D03*
X43370000Y27940000D03*
%TD*%
D16*
%TO.C,Q1*%
X17147500Y26940000D03*
X19047500Y26940000D03*
X18097500Y29040000D03*
%TD*%
D17*
%TO.C,J6*%
X37175000Y14627500D03*
X36075000Y14627500D03*
X34975000Y14627500D03*
X33875000Y14627500D03*
X32775000Y14627500D03*
X31675000Y14627500D03*
X30575000Y14627500D03*
X29475000Y14627500D03*
X28375000Y14627500D03*
D18*
X27175000Y14027500D03*
D19*
X27175000Y4527500D03*
X42675000Y4527500D03*
D20*
X41775000Y14127500D03*
%TD*%
D15*
%TO.C,R4*%
X18922500Y30797500D03*
X17272500Y30797500D03*
%TD*%
D11*
%TO.C,C1*%
X23635000Y33020000D03*
X22085000Y33020000D03*
%TD*%
D21*
%TO.C,D4*%
X41757500Y29845000D03*
X43332500Y29845000D03*
%TD*%
D15*
%TO.C,R3*%
X8762500Y9525000D03*
X7112500Y9525000D03*
%TD*%
D22*
%TO.C,J4*%
X13245000Y6010000D03*
X8345000Y6010000D03*
D23*
X15113000Y1255000D03*
D24*
X15113000Y5435000D03*
X6477000Y5435000D03*
D23*
X6477000Y1255000D03*
D22*
X14020000Y6010000D03*
X7570000Y6010000D03*
D25*
X9045000Y6010000D03*
X10045000Y6010000D03*
X11545000Y6010000D03*
X12545000Y6010000D03*
X12045000Y6010000D03*
X11045000Y6010000D03*
X10545000Y6010000D03*
X9545000Y6010000D03*
%TD*%
D26*
%TO.C,C3*%
X34150000Y20002500D03*
X35700000Y20002500D03*
%TD*%
%TO.C,C2*%
X34150000Y17462500D03*
X35700000Y17462500D03*
%TD*%
M02*
