%TF.GenerationSoftware,KiCad,Pcbnew,8.0.6*%
%TF.CreationDate,2024-11-21T20:47:19-07:00*%
%TF.ProjectId,SparkFun_Serial_MP3_Player_Shield_MY1690X,53706172-6b46-4756-9e5f-53657269616c,rev?*%
%TF.SameCoordinates,Original*%
%TF.FileFunction,Soldermask,Top*%
%TF.FilePolarity,Negative*%
%FSLAX46Y46*%
G04 Gerber Fmt 4.6, Leading zero omitted, Abs format (unit mm)*
G04 Created by KiCad (PCBNEW 8.0.6) date 2024-11-21 20:47:19*
%MOMM*%
%LPD*%
G01*
G04 APERTURE LIST*
G04 Aperture macros list*
%AMRoundRect*
0 Rectangle with rounded corners*
0 $1 Rounding radius*
0 $2 $3 $4 $5 $6 $7 $8 $9 X,Y pos of 4 corners*
0 Add a 4 corners polygon primitive as box body*
4,1,4,$2,$3,$4,$5,$6,$7,$8,$9,$2,$3,0*
0 Add four circle primitives for the rounded corners*
1,1,$1+$1,$2,$3*
1,1,$1+$1,$4,$5*
1,1,$1+$1,$6,$7*
1,1,$1+$1,$8,$9*
0 Add four rect primitives between the rounded corners*
20,1,$1+$1,$2,$3,$4,$5,0*
20,1,$1+$1,$4,$5,$6,$7,0*
20,1,$1+$1,$6,$7,$8,$9,0*
20,1,$1+$1,$8,$9,$2,$3,0*%
G04 Aperture macros list end*
%ADD10RoundRect,0.050000X-0.381000X-0.762000X0.381000X-0.762000X0.381000X0.762000X-0.381000X0.762000X0*%
%ADD11C,0.600000*%
%ADD12C,1.979600*%
%ADD13C,2.082800*%
%ADD14RoundRect,0.250000X0.250000X0.275000X-0.250000X0.275000X-0.250000X-0.275000X0.250000X-0.275000X0*%
%ADD15RoundRect,0.225000X-0.225000X-0.300000X0.225000X-0.300000X0.225000X0.300000X-0.225000X0.300000X0*%
%ADD16RoundRect,0.050000X-0.300000X-0.600000X0.300000X-0.600000X0.300000X0.600000X-0.300000X0.600000X0*%
%ADD17C,1.300000*%
%ADD18RoundRect,0.050000X1.250000X-0.600000X1.250000X0.600000X-1.250000X0.600000X-1.250000X-0.600000X0*%
%ADD19RoundRect,0.050000X-1.250000X0.600000X-1.250000X-0.600000X1.250000X-0.600000X1.250000X0.600000X0*%
%ADD20RoundRect,0.225000X0.225000X0.300000X-0.225000X0.300000X-0.225000X-0.300000X0.225000X-0.300000X0*%
%ADD21RoundRect,0.050000X-0.400000X-0.450000X0.400000X-0.450000X0.400000X0.450000X-0.400000X0.450000X0*%
%ADD22C,1.100000*%
%ADD23RoundRect,0.050000X0.350000X-0.800000X0.350000X0.800000X-0.350000X0.800000X-0.350000X-0.800000X0*%
%ADD24RoundRect,0.050000X-0.600000X-0.800000X0.600000X-0.800000X0.600000X0.800000X-0.600000X0.800000X0*%
%ADD25RoundRect,0.050000X-0.600000X-1.100000X0.600000X-1.100000X0.600000X1.100000X-0.600000X1.100000X0*%
%ADD26RoundRect,0.050000X-0.800000X-0.700000X0.800000X-0.700000X0.800000X0.700000X-0.800000X0.700000X0*%
%ADD27RoundRect,0.243750X-0.243750X-0.281250X0.243750X-0.281250X0.243750X0.281250X-0.243750X0.281250X0*%
%ADD28RoundRect,0.050000X-0.300000X-0.500000X0.300000X-0.500000X0.300000X0.500000X-0.300000X0.500000X0*%
%ADD29RoundRect,0.050000X0.300000X0.500000X-0.300000X0.500000X-0.300000X-0.500000X0.300000X-0.500000X0*%
%ADD30O,1.100000X1.700000*%
%ADD31O,1.100000X2.200000*%
%ADD32RoundRect,0.050000X0.150000X0.500000X-0.150000X0.500000X-0.150000X-0.500000X0.150000X-0.500000X0*%
%ADD33RoundRect,0.050000X-0.150000X-0.500000X0.150000X-0.500000X0.150000X0.500000X-0.150000X0.500000X0*%
%ADD34C,0.750000*%
%ADD35RoundRect,0.250000X-0.250000X-0.275000X0.250000X-0.275000X0.250000X0.275000X-0.250000X0.275000X0*%
G04 APERTURE END LIST*
D10*
%TO.C,SW1*%
X51435000Y15811500D03*
X51435000Y10223500D03*
X47625000Y15811500D03*
X47625000Y10223500D03*
%TD*%
D11*
%TO.C,FID3*%
X2540000Y1905000D03*
%TD*%
D12*
%TO.C,J3*%
X18415000Y13970000D03*
X20955000Y13970000D03*
X23495000Y13970000D03*
%TD*%
D13*
%TO.C,B1*%
X50800000Y26670000D03*
X50800000Y29210000D03*
X50800000Y41910000D03*
X50800000Y44450000D03*
X50800000Y46990000D03*
X50800000Y49530000D03*
X2540000Y12700000D03*
X50800000Y52070000D03*
X2540000Y10160000D03*
X50800000Y54610000D03*
X2540000Y15240000D03*
X2540000Y54610000D03*
X2540000Y52070000D03*
X2540000Y49530000D03*
X2540000Y46990000D03*
X2540000Y44450000D03*
X2540000Y41910000D03*
X2540000Y39370000D03*
X2540000Y36830000D03*
X2540000Y33020000D03*
X2540000Y30480000D03*
X2540000Y27940000D03*
X2540000Y25400000D03*
X2540000Y22860000D03*
X2540000Y20320000D03*
X2540000Y17780000D03*
X50800000Y34290000D03*
X50800000Y31750000D03*
X50800000Y21590000D03*
X50800000Y19050000D03*
X50800000Y36830000D03*
X50800000Y24130000D03*
%TD*%
D14*
%TO.C,C8*%
X27445000Y22860000D03*
X25895000Y22860000D03*
%TD*%
D15*
%TO.C,R1*%
X17272500Y25082500D03*
X18922500Y25082500D03*
%TD*%
D16*
%TO.C,U2*%
X22225000Y25140000D03*
X23495000Y25140000D03*
X24765000Y25140000D03*
X26035000Y25140000D03*
X27305000Y25140000D03*
X28575000Y25140000D03*
X29845000Y25140000D03*
X31115000Y25140000D03*
X31115000Y30740000D03*
X29845000Y30740000D03*
X28575000Y30740000D03*
X27305000Y30740000D03*
X26035000Y30740000D03*
X24765000Y30740000D03*
X23495000Y30740000D03*
X22225000Y30740000D03*
%TD*%
D14*
%TO.C,C7*%
X31255000Y33020000D03*
X29705000Y33020000D03*
%TD*%
D11*
%TO.C,FID4*%
X47942500Y58102500D03*
%TD*%
D17*
%TO.C,J1*%
X20955000Y1580000D03*
X20955000Y8580000D03*
D18*
X17705000Y6180000D03*
D19*
X17705000Y3180000D03*
D18*
X24205000Y11280000D03*
X17705000Y10180000D03*
%TD*%
D20*
%TO.C,R2*%
X14477500Y9525000D03*
X12827500Y9525000D03*
%TD*%
D15*
%TO.C,R6*%
X29655000Y22860000D03*
X31305000Y22860000D03*
%TD*%
%TO.C,R9*%
X41720000Y27940000D03*
X43370000Y27940000D03*
%TD*%
D21*
%TO.C,Q1*%
X17147500Y26940000D03*
X19047500Y26940000D03*
X18097500Y29040000D03*
%TD*%
D22*
%TO.C,J6*%
X29975000Y4127500D03*
X37975000Y4127500D03*
D23*
X37175000Y14627500D03*
X36075000Y14627500D03*
X34975000Y14627500D03*
X33875000Y14627500D03*
X32775000Y14627500D03*
X31675000Y14627500D03*
X30575000Y14627500D03*
X29475000Y14627500D03*
X28375000Y14627500D03*
D24*
X27175000Y14027500D03*
D25*
X27175000Y4527500D03*
X42675000Y4527500D03*
D26*
X41775000Y14127500D03*
%TD*%
D20*
%TO.C,R4*%
X18922500Y30797500D03*
X17272500Y30797500D03*
%TD*%
D14*
%TO.C,C1*%
X23635000Y33020000D03*
X22085000Y33020000D03*
%TD*%
D27*
%TO.C,D4*%
X41757500Y29845000D03*
X43332500Y29845000D03*
%TD*%
D20*
%TO.C,R3*%
X8762500Y9525000D03*
X7112500Y9525000D03*
%TD*%
D28*
%TO.C,J4*%
X13245000Y6010000D03*
D29*
X8345000Y6010000D03*
D30*
X15113000Y1255000D03*
D31*
X15113000Y5435000D03*
X6477000Y5435000D03*
D30*
X6477000Y1255000D03*
D28*
X14020000Y6010000D03*
D29*
X7570000Y6010000D03*
D32*
X9045000Y6010000D03*
X10045000Y6010000D03*
D33*
X11545000Y6010000D03*
X12545000Y6010000D03*
X12045000Y6010000D03*
X11045000Y6010000D03*
D32*
X10545000Y6010000D03*
X9545000Y6010000D03*
D34*
X13685000Y4905000D03*
X7905000Y4905000D03*
%TD*%
D35*
%TO.C,C3*%
X34150000Y20002500D03*
X35700000Y20002500D03*
%TD*%
%TO.C,C2*%
X34150000Y17462500D03*
X35700000Y17462500D03*
%TD*%
M02*
