%TF.GenerationSoftware,KiCad,Pcbnew,8.0.6*%
%TF.CreationDate,2024-11-21T20:47:18-07:00*%
%TF.ProjectId,SparkFun_Serial_MP3_Player_Shield_MY1690X,53706172-6b46-4756-9e5f-53657269616c,rev?*%
%TF.SameCoordinates,Original*%
%TF.FileFunction,Copper,L2,Bot*%
%TF.FilePolarity,Positive*%
%FSLAX46Y46*%
G04 Gerber Fmt 4.6, Leading zero omitted, Abs format (unit mm)*
G04 Created by KiCad (PCBNEW 8.0.6) date 2024-11-21 20:47:18*
%MOMM*%
%LPD*%
G01*
G04 APERTURE LIST*
%ADD10C,0.250000*%
%TA.AperFunction,EtchedComponent*%
%ADD11C,0.000000*%
%TD*%
%TA.AperFunction,ComponentPad*%
%ADD12C,1.879600*%
%TD*%
%TA.AperFunction,ComponentPad*%
%ADD13O,1.000000X1.600000*%
%TD*%
%TA.AperFunction,ComponentPad*%
%ADD14O,1.000000X2.100000*%
%TD*%
%TA.AperFunction,SMDPad,CuDef*%
%ADD15C,0.500000*%
%TD*%
%TA.AperFunction,SMDPad,CuDef*%
%ADD16R,0.660400X1.270000*%
%TD*%
%TA.AperFunction,ViaPad*%
%ADD17C,0.560000*%
%TD*%
%TA.AperFunction,Conductor*%
%ADD18C,0.177800*%
%TD*%
%TA.AperFunction,Conductor*%
%ADD19C,0.558800*%
%TD*%
%TA.AperFunction,Conductor*%
%ADD20C,0.152400*%
%TD*%
G04 APERTURE END LIST*
D10*
G36*
X10006668Y1352531D02*
G01*
X10025600Y1333598D01*
X10058010Y1268777D01*
X10098570Y1106540D01*
X10098570Y899223D01*
X10058010Y736987D01*
X10025599Y672164D01*
X10006668Y653232D01*
X9955967Y627881D01*
X9919746Y627881D01*
X9869044Y653232D01*
X9850112Y672164D01*
X9817701Y736985D01*
X9777142Y899223D01*
X9777142Y1106540D01*
X9817701Y1268778D01*
X9850111Y1333599D01*
X9869044Y1352531D01*
X9919746Y1377881D01*
X9955967Y1377881D01*
X10006668Y1352531D01*
G37*
G36*
X12234132Y252881D02*
G01*
X9402142Y252881D01*
X9402142Y1121929D01*
X9527142Y1121929D01*
X9527142Y883834D01*
X9527561Y879580D01*
X9527290Y877758D01*
X9528639Y868630D01*
X9529544Y859448D01*
X9530248Y857747D01*
X9530874Y853517D01*
X9578493Y663041D01*
X9579136Y661242D01*
X9579200Y660342D01*
X9583082Y650196D01*
X9586738Y639966D01*
X9587274Y639242D01*
X9587958Y637456D01*
X9635576Y542219D01*
X9642183Y531723D01*
X9643446Y528675D01*
X9646263Y525242D01*
X9648631Y521481D01*
X9651125Y519318D01*
X9658991Y509733D01*
X9706610Y462113D01*
X9716198Y454244D01*
X9718360Y451751D01*
X9722114Y449388D01*
X9725551Y446567D01*
X9728604Y445303D01*
X9739097Y438697D01*
X9834335Y391078D01*
X9857221Y382320D01*
X9861701Y382002D01*
X9865851Y380283D01*
X9890237Y377881D01*
X9985475Y377881D01*
X10009861Y380283D01*
X10014009Y382002D01*
X10018491Y382320D01*
X10041377Y391078D01*
X10136614Y438696D01*
X10147110Y445304D01*
X10150160Y446567D01*
X10153593Y449386D01*
X10157352Y451751D01*
X10159514Y454245D01*
X10169102Y462113D01*
X10216721Y509732D01*
X10224588Y519320D01*
X10227081Y521481D01*
X10229447Y525241D01*
X10231110Y527267D01*
X10481925Y527267D01*
X10481925Y478495D01*
X10500589Y433435D01*
X10535077Y398947D01*
X10580137Y380283D01*
X10604523Y377881D01*
X11175951Y377881D01*
X11200337Y380283D01*
X11245397Y398947D01*
X11279885Y433435D01*
X11298549Y478495D01*
X11298549Y527267D01*
X11279885Y572327D01*
X11245397Y606815D01*
X11200337Y625479D01*
X11175951Y627881D01*
X11015237Y627881D01*
X11015237Y1159010D01*
X11024811Y1152983D01*
X11120049Y1105364D01*
X11142935Y1096606D01*
X11191584Y1093149D01*
X11237855Y1108572D01*
X11274700Y1140528D01*
X11280075Y1151279D01*
X11385627Y1151279D01*
X11391567Y1127506D01*
X11629662Y460839D01*
X11640126Y438682D01*
X11644336Y434031D01*
X11647023Y428359D01*
X11660582Y416084D01*
X11672858Y402524D01*
X11678530Y399838D01*
X11683181Y395627D01*
X11700405Y389476D01*
X11716936Y381645D01*
X11723201Y381334D01*
X11729111Y379223D01*
X11747386Y380132D01*
X11765649Y379224D01*
X11771555Y381334D01*
X11777823Y381645D01*
X11794355Y389476D01*
X11811579Y395627D01*
X11816230Y399838D01*
X11821902Y402524D01*
X11834177Y416084D01*
X11847737Y428359D01*
X11850423Y434031D01*
X11854634Y438682D01*
X11865098Y460839D01*
X12103193Y1127506D01*
X12109132Y1151279D01*
X12106711Y1199991D01*
X12085832Y1244070D01*
X12049674Y1276802D01*
X12003744Y1293205D01*
X11955031Y1290784D01*
X11910953Y1269905D01*
X11878221Y1233747D01*
X11867757Y1211590D01*
X11747380Y874534D01*
X11627003Y1211590D01*
X11616539Y1233747D01*
X11583807Y1269905D01*
X11539728Y1290784D01*
X11491016Y1293206D01*
X11445086Y1276802D01*
X11408928Y1244070D01*
X11388049Y1199991D01*
X11385627Y1151279D01*
X11280075Y1151279D01*
X11296511Y1184151D01*
X11299969Y1232801D01*
X11284546Y1279071D01*
X11252590Y1315916D01*
X11231852Y1328971D01*
X11154756Y1367519D01*
X11082615Y1439660D01*
X10994243Y1572219D01*
X10994187Y1572287D01*
X10994171Y1572327D01*
X10994080Y1572418D01*
X10978718Y1591177D01*
X10968433Y1598065D01*
X10959683Y1606815D01*
X10948370Y1611501D01*
X10938194Y1618316D01*
X10926055Y1620744D01*
X10914623Y1625479D01*
X10902378Y1625479D01*
X10890367Y1627881D01*
X10878225Y1625479D01*
X10865851Y1625479D01*
X10854537Y1620794D01*
X10842522Y1618416D01*
X10832223Y1611551D01*
X10820791Y1606815D01*
X10812132Y1598156D01*
X10801941Y1591362D01*
X10795053Y1581078D01*
X10786303Y1572327D01*
X10781617Y1561015D01*
X10774802Y1550838D01*
X10772374Y1538700D01*
X10767639Y1527267D01*
X10765262Y1503138D01*
X10765237Y1503011D01*
X10765245Y1502968D01*
X10765237Y1502881D01*
X10765237Y627881D01*
X10604523Y627881D01*
X10580137Y625479D01*
X10535077Y606815D01*
X10500589Y572327D01*
X10481925Y527267D01*
X10231110Y527267D01*
X10232266Y528675D01*
X10233528Y531724D01*
X10240135Y542218D01*
X10287754Y637456D01*
X10288437Y639242D01*
X10288974Y639966D01*
X10292629Y650196D01*
X10296512Y660342D01*
X10296575Y661242D01*
X10297219Y663041D01*
X10344838Y853517D01*
X10345463Y857747D01*
X10346168Y859448D01*
X10347072Y868628D01*
X10348422Y877757D01*
X10348150Y879580D01*
X10348570Y883834D01*
X10348570Y1121929D01*
X10348150Y1126184D01*
X10348422Y1128006D01*
X10347072Y1137136D01*
X10346168Y1146315D01*
X10345463Y1148017D01*
X10344838Y1152246D01*
X10297219Y1342722D01*
X10296575Y1344522D01*
X10296512Y1345421D01*
X10292629Y1355568D01*
X10288974Y1365797D01*
X10288437Y1366522D01*
X10287754Y1368307D01*
X10240135Y1463545D01*
X10233528Y1474040D01*
X10232265Y1477090D01*
X10229446Y1480525D01*
X10227081Y1484282D01*
X10224589Y1486444D01*
X10216720Y1496032D01*
X10169101Y1543650D01*
X10159515Y1551517D01*
X10157352Y1554011D01*
X10153590Y1556380D01*
X10150159Y1559195D01*
X10147112Y1560457D01*
X10136614Y1567066D01*
X10041377Y1614684D01*
X10018491Y1623442D01*
X10014009Y1623761D01*
X10009861Y1625479D01*
X9985475Y1627881D01*
X9890237Y1627881D01*
X9865851Y1625479D01*
X9861701Y1623761D01*
X9857221Y1623442D01*
X9834335Y1614684D01*
X9739097Y1567065D01*
X9728602Y1560459D01*
X9725552Y1559195D01*
X9722117Y1556377D01*
X9718360Y1554011D01*
X9716198Y1551520D01*
X9706610Y1543650D01*
X9658992Y1496031D01*
X9651125Y1486446D01*
X9648631Y1484282D01*
X9646262Y1480521D01*
X9643447Y1477089D01*
X9642185Y1474043D01*
X9635576Y1463544D01*
X9587958Y1368307D01*
X9587274Y1366522D01*
X9586738Y1365797D01*
X9583082Y1355568D01*
X9579200Y1345421D01*
X9579136Y1344522D01*
X9578493Y1342722D01*
X9530874Y1152246D01*
X9530248Y1148017D01*
X9529544Y1146315D01*
X9528639Y1137134D01*
X9527290Y1128005D01*
X9527561Y1126184D01*
X9527142Y1121929D01*
X9402142Y1121929D01*
X9402142Y1752881D01*
X12234132Y1752881D01*
X12234132Y252881D01*
G37*
D11*
%TA.AperFunction,EtchedComponent*%
%TO.C,JP2*%
G36*
X42795000Y27790000D02*
G01*
X42295000Y27790000D01*
X42295000Y28090000D01*
X42795000Y28090000D01*
X42795000Y27790000D01*
G37*
%TD.AperFunction*%
%TD*%
D12*
%TO.P,J3,1,Pin_1*%
%TO.N,DAC_L*%
X18415000Y13970000D03*
%TO.P,J3,2,Pin_2*%
%TO.N,DAC_R*%
X20955000Y13970000D03*
%TO.P,J3,3,Pin_3*%
%TO.N,GND*%
X23495000Y13970000D03*
%TD*%
%TO.P,B1,3.3V,3.3V*%
%TO.N,unconnected-(B1-Pad3.3V)*%
X50800000Y26670000D03*
%TO.P,B1,5V,5V*%
%TO.N,5V*%
X50800000Y29210000D03*
%TO.P,B1,A0,A0*%
%TO.N,unconnected-(B1-PadA0)*%
X50800000Y41910000D03*
%TO.P,B1,A1,A1*%
%TO.N,unconnected-(B1-PadA1)*%
X50800000Y44450000D03*
%TO.P,B1,A2,A2*%
%TO.N,unconnected-(B1-PadA2)*%
X50800000Y46990000D03*
%TO.P,B1,A3,A3*%
%TO.N,unconnected-(B1-PadA3)*%
X50800000Y49530000D03*
%TO.P,B1,A4/SDA,A4/SDA*%
%TO.N,unconnected-(B1-PadA4{slash}SDA)*%
X2540000Y12700000D03*
X50800000Y52070000D03*
%TO.P,B1,A5/SCL,A5/SCL*%
%TO.N,unconnected-(B1-PadA5{slash}SCL)*%
X2540000Y10160000D03*
X50800000Y54610000D03*
%TO.P,B1,AREF,AREF*%
%TO.N,unconnected-(B1-PadAREF)*%
X2540000Y15240000D03*
%TO.P,B1,D0/TXO,D0/TXO*%
%TO.N,unconnected-(B1-PadD0{slash}TXO)*%
X2540000Y54610000D03*
%TO.P,B1,D1/RXI,D1/RXI*%
%TO.N,unconnected-(B1-PadD1{slash}RXI)*%
X2540000Y52070000D03*
%TO.P,B1,D2,D2*%
%TO.N,MY_TX*%
X2540000Y49530000D03*
%TO.P,B1,D3,\u002AD3*%
%TO.N,MY_RX*%
X2540000Y46990000D03*
%TO.P,B1,D4,D4*%
%TO.N,BUSY*%
X2540000Y44450000D03*
%TO.P,B1,D5,\u002AD5*%
%TO.N,unconnected-(B1-\u002AD5-PadD5)*%
X2540000Y41910000D03*
%TO.P,B1,D6,\u002AD6*%
%TO.N,unconnected-(B1-\u002AD6-PadD6)*%
X2540000Y39370000D03*
%TO.P,B1,D7,D7*%
%TO.N,unconnected-(B1-PadD7)*%
X2540000Y36830000D03*
%TO.P,B1,D8,D8*%
%TO.N,unconnected-(B1-PadD8)*%
X2540000Y33020000D03*
%TO.P,B1,D9,\u002AD9*%
%TO.N,unconnected-(B1-\u002AD9-PadD9)*%
X2540000Y30480000D03*
%TO.P,B1,D10,\u002AD10*%
%TO.N,unconnected-(B1-\u002AD10-PadD10)*%
X2540000Y27940000D03*
%TO.P,B1,D11,\u002AD11/PICO*%
%TO.N,unconnected-(B1-\u002AD11{slash}PICO-PadD11)*%
X2540000Y25400000D03*
%TO.P,B1,D12,D12/POCI*%
%TO.N,unconnected-(B1-D12{slash}POCI-PadD12)*%
X2540000Y22860000D03*
%TO.P,B1,D13,D13/SCK*%
%TO.N,unconnected-(B1-D13{slash}SCK-PadD13)*%
X2540000Y20320000D03*
%TO.P,B1,GND,GND*%
%TO.N,GND*%
X2540000Y17780000D03*
X50800000Y34290000D03*
X50800000Y31750000D03*
%TO.P,B1,IOREF,IOREF*%
%TO.N,unconnected-(B1-PadIOREF)*%
X50800000Y21590000D03*
%TO.P,B1,NC,NC*%
%TO.N,unconnected-(B1-PadNC)*%
X50800000Y19050000D03*
%TO.P,B1,VIN,VIN*%
%TO.N,unconnected-(B1-PadVIN)*%
X50800000Y36830000D03*
%TO.P,B1,~{RESET},~{RESET}*%
%TO.N,Net-(B1-Pad~{RESET})*%
X50800000Y24130000D03*
%TD*%
D13*
%TO.P,J4,S,SHIELD*%
%TO.N,GND*%
X15113000Y1255000D03*
D14*
%TO.P,J4,NC3,NC*%
%TO.N,unconnected-(J4-NC-PadNC3)*%
X15113000Y5435000D03*
%TO.P,J4,NC2,NC*%
%TO.N,unconnected-(J4-NC-PadNC2)*%
X6477000Y5435000D03*
D13*
%TO.P,J4,NC1,NC*%
%TO.N,unconnected-(J4-NC-PadNC1)*%
X6477000Y1255000D03*
%TD*%
D15*
%TO.P,FID2,*%
%TO.N,*%
X2540000Y1905000D03*
%TD*%
%TO.P,FID1,*%
%TO.N,*%
X47942500Y58102500D03*
%TD*%
D16*
%TO.P,JP2,1,A*%
%TO.N,Net-(JP2-A)*%
X42024300Y27940000D03*
%TO.P,JP2,2,B*%
%TO.N,3.3V_P*%
X43065700Y27940000D03*
%TD*%
D17*
%TO.N,GND*%
X7620000Y7302500D03*
X27305000Y16510000D03*
X6985000Y11112500D03*
X19685000Y3175000D03*
X24447500Y22860000D03*
X28257500Y33020000D03*
X51435000Y13017500D03*
X37147500Y17462500D03*
X40322500Y29845000D03*
X14922500Y11112500D03*
X32702500Y22860000D03*
X24765000Y32067500D03*
X13970000Y7302500D03*
X24765000Y26987500D03*
X20637500Y33020000D03*
X37147500Y20002500D03*
X31750000Y16510000D03*
X31750000Y13017500D03*
%TO.N,3.3V_P*%
X19050000Y23336250D03*
X27622500Y21113750D03*
%TO.N,unconnected-(B1-PadA5{slash}SCL)*%
X5715000Y42862500D03*
%TO.N,unconnected-(B1-PadA4{slash}SDA)*%
X5715000Y41910000D03*
%TO.N,BUSY*%
X23495000Y23495000D03*
%TO.N,5V*%
X26035000Y29368750D03*
X26035000Y26987500D03*
%TO.N,DAC_L*%
X20637500Y30638750D03*
%TO.N,Net-(U2-DM)*%
X10001250Y7143750D03*
X11066300Y7143750D03*
%TO.N,SD_CLK*%
X32702500Y19685000D03*
X28575000Y21907500D03*
%TO.N,SD_DAT*%
X30638750Y26828750D03*
X30638750Y20320000D03*
%TO.N,Net-(JP2-A)*%
X41751250Y26352500D03*
%TD*%
D18*
%TO.N,3.3V_P*%
X27622500Y26352500D02*
X27622500Y21113750D01*
X28620050Y27350050D02*
X27622500Y26352500D01*
X34131250Y25717500D02*
X32498700Y27350050D01*
X43065700Y26079450D02*
X42703750Y25717500D01*
X32498700Y27350050D02*
X28620050Y27350050D01*
X43065700Y27940000D02*
X43065700Y26079450D01*
D19*
X21272500Y21113750D02*
X19050000Y23336250D01*
D18*
X42703750Y25717500D02*
X34131250Y25717500D01*
D19*
X27622500Y21113750D02*
X21272500Y21113750D01*
D18*
%TO.N,unconnected-(B1-PadA5{slash}SCL)*%
X5715000Y42862500D02*
X17462500Y54610000D01*
X17462500Y54610000D02*
X50800000Y54610000D01*
%TO.N,unconnected-(B1-PadA4{slash}SDA)*%
X5715000Y41910000D02*
X15875000Y52070000D01*
X15875000Y52070000D02*
X50800000Y52070000D01*
%TO.N,BUSY*%
X4921250Y32543750D02*
X4921250Y43338750D01*
X4921250Y43338750D02*
X3810000Y44450000D01*
X23495000Y23495000D02*
X23495000Y28733750D01*
X6191250Y31273750D02*
X4921250Y32543750D01*
X23495000Y28733750D02*
X20955000Y31273750D01*
X20955000Y31273750D02*
X6191250Y31273750D01*
X3810000Y44450000D02*
X2540000Y44450000D01*
D20*
%TO.N,5V*%
X26035000Y29368750D02*
X26035000Y26987500D01*
D18*
%TO.N,DAC_L*%
X18415000Y28416250D02*
X20637500Y30638750D01*
X18415000Y13970000D02*
X18415000Y28416250D01*
%TO.N,Net-(U2-DM)*%
X10001250Y7143750D02*
X11066300Y7143750D01*
%TO.N,SD_CLK*%
X29368750Y19685000D02*
X32702500Y19685000D01*
X28575000Y20478750D02*
X29368750Y19685000D01*
X28575000Y21907500D02*
X28575000Y20478750D01*
%TO.N,SD_DAT*%
X30638750Y20320000D02*
X30638750Y26828750D01*
%TO.N,Net-(JP2-A)*%
X41751250Y26352500D02*
X42024300Y26625550D01*
X42024300Y26625550D02*
X42024300Y27940000D01*
%TD*%
%TA.AperFunction,Conductor*%
%TO.N,GND*%
G36*
X48280091Y59669435D02*
G01*
X48285745Y59664255D01*
X50800000Y57150000D01*
X53252100Y57150000D01*
X53308601Y57129435D01*
X53338665Y57077364D01*
X53340000Y57062100D01*
X53340000Y2576410D01*
X53319435Y2519909D01*
X53314255Y2514255D01*
X53048245Y2248245D01*
X52993751Y2222834D01*
X52986090Y2222500D01*
X39687500Y2222500D01*
X39687500Y2222499D01*
X39687500Y87900D01*
X39666935Y31399D01*
X39614864Y1335D01*
X39599600Y0D01*
X2576410Y0D01*
X2519909Y20565D01*
X2514255Y25745D01*
X634996Y1905004D01*
X2034353Y1905004D01*
X2034353Y1904997D01*
X2054833Y1762550D01*
X2054834Y1762545D01*
X2054835Y1762543D01*
X2114623Y1631627D01*
X2208872Y1522857D01*
X2329947Y1445047D01*
X2468039Y1404500D01*
X2468040Y1404500D01*
X2611960Y1404500D01*
X2611961Y1404500D01*
X2750053Y1445047D01*
X2871128Y1522857D01*
X2956868Y1621807D01*
X5798700Y1621807D01*
X5798700Y888193D01*
X5805172Y855656D01*
X5824765Y757151D01*
X5824768Y757143D01*
X5875895Y633710D01*
X5875895Y633708D01*
X5949109Y524137D01*
X5950130Y522609D01*
X6044609Y428130D01*
X6155704Y353898D01*
X6155706Y353897D01*
X6155708Y353896D01*
X6279142Y302769D01*
X6279150Y302766D01*
X6345116Y289645D01*
X6410193Y276700D01*
X6410195Y276700D01*
X6543805Y276700D01*
X6543807Y276700D01*
X6630380Y293921D01*
X6674849Y302766D01*
X6674850Y302767D01*
X6674853Y302767D01*
X6798291Y353896D01*
X6798292Y353896D01*
X6798293Y353897D01*
X6798296Y353898D01*
X6824558Y371446D01*
X9519898Y371446D01*
X9519899Y371446D01*
X12116548Y371446D01*
X12116549Y371446D01*
X12116549Y1624258D01*
X14409800Y1624258D01*
X14409800Y1343901D01*
X14409801Y1343900D01*
X14813000Y1343900D01*
X14813000Y1166100D01*
X14409801Y1166100D01*
X14409800Y1166099D01*
X14409800Y885743D01*
X14436821Y749893D01*
X14436824Y749885D01*
X14489835Y621907D01*
X14566785Y506741D01*
X14664740Y408786D01*
X14779906Y331836D01*
X14907884Y278825D01*
X14907890Y278823D01*
X15024099Y255707D01*
X15024100Y255707D01*
X15024100Y668238D01*
X15073504Y655000D01*
X15152496Y655000D01*
X15201900Y668238D01*
X15201900Y255707D01*
X15318109Y278823D01*
X15318115Y278825D01*
X15446093Y331836D01*
X15561259Y408786D01*
X15659214Y506741D01*
X15736164Y621907D01*
X15789175Y749885D01*
X15789178Y749893D01*
X15816200Y885743D01*
X15816200Y1166099D01*
X15816199Y1166100D01*
X15413000Y1166100D01*
X15413000Y1343900D01*
X15816199Y1343900D01*
X15816200Y1343901D01*
X15816200Y1624258D01*
X15808341Y1663766D01*
X20104500Y1663766D01*
X20104500Y1496235D01*
X20137181Y1331927D01*
X20137183Y1331921D01*
X20137184Y1331918D01*
X20201297Y1177137D01*
X20294374Y1037838D01*
X20412838Y919374D01*
X20552137Y826297D01*
X20706918Y762184D01*
X20706923Y762183D01*
X20706926Y762182D01*
X20790190Y745621D01*
X20871233Y729500D01*
X20871235Y729500D01*
X21038765Y729500D01*
X21038767Y729500D01*
X21146339Y750898D01*
X21203073Y762182D01*
X21203074Y762183D01*
X21203082Y762184D01*
X21357863Y826297D01*
X21497162Y919374D01*
X21615626Y1037838D01*
X21708703Y1177137D01*
X21772816Y1331918D01*
X21775200Y1343900D01*
X21787254Y1404502D01*
X21805500Y1496233D01*
X21805500Y1663767D01*
X21790495Y1739205D01*
X21772818Y1828074D01*
X21772817Y1828077D01*
X21772816Y1828082D01*
X21708703Y1982863D01*
X21615626Y2122162D01*
X21497162Y2240626D01*
X21357863Y2333703D01*
X21203082Y2397816D01*
X21203079Y2397817D01*
X21203073Y2397819D01*
X21079424Y2422413D01*
X21038767Y2430500D01*
X20871233Y2430500D01*
X20835052Y2423304D01*
X20706926Y2397819D01*
X20706918Y2397816D01*
X20552137Y2333703D01*
X20412840Y2240628D01*
X20294372Y2122160D01*
X20201297Y1982863D01*
X20137184Y1828082D01*
X20137181Y1828074D01*
X20104500Y1663766D01*
X15808341Y1663766D01*
X15789178Y1760108D01*
X15789175Y1760116D01*
X15736164Y1888094D01*
X15659214Y2003260D01*
X15561259Y2101215D01*
X15446093Y2178165D01*
X15318122Y2231173D01*
X15318113Y2231176D01*
X15201900Y2254294D01*
X15201900Y1841763D01*
X15152496Y1855000D01*
X15073504Y1855000D01*
X15024100Y1841763D01*
X15024100Y2254294D01*
X14907886Y2231176D01*
X14907877Y2231173D01*
X14779906Y2178165D01*
X14664740Y2101215D01*
X14566785Y2003260D01*
X14489835Y1888094D01*
X14436824Y1760116D01*
X14436821Y1760108D01*
X14409800Y1624258D01*
X12116549Y1624258D01*
X12116549Y1635235D01*
X9519898Y1635235D01*
X9519898Y371446D01*
X6824558Y371446D01*
X6909391Y428130D01*
X7003870Y522609D01*
X7078102Y633704D01*
X7129233Y757147D01*
X7155300Y888193D01*
X7155300Y1621807D01*
X7129233Y1752853D01*
X7078104Y1876292D01*
X7078104Y1876293D01*
X7058920Y1905004D01*
X7003870Y1987391D01*
X6909391Y2081870D01*
X6798296Y2156102D01*
X6798294Y2156103D01*
X6798291Y2156105D01*
X6674857Y2207232D01*
X6674849Y2207235D01*
X6576344Y2226828D01*
X6543807Y2233300D01*
X6410193Y2233300D01*
X6381249Y2227543D01*
X6279150Y2207235D01*
X6279142Y2207232D01*
X6155709Y2156105D01*
X6155707Y2156105D01*
X6044611Y2081872D01*
X5950128Y1987389D01*
X5875895Y1876293D01*
X5875895Y1876291D01*
X5824768Y1752858D01*
X5824765Y1752850D01*
X5807046Y1663767D01*
X5798700Y1621807D01*
X2956868Y1621807D01*
X2965377Y1631627D01*
X3025165Y1762543D01*
X3038458Y1855000D01*
X3045647Y1904997D01*
X3045647Y1905004D01*
X3025166Y2047451D01*
X3025165Y2047452D01*
X3025165Y2047457D01*
X2965377Y2178373D01*
X2871128Y2287143D01*
X2871126Y2287144D01*
X2871124Y2287146D01*
X2750054Y2364953D01*
X2750050Y2364954D01*
X2611967Y2405499D01*
X2611961Y2405500D01*
X2468039Y2405500D01*
X2468038Y2405500D01*
X2468032Y2405499D01*
X2329949Y2364954D01*
X2329945Y2364953D01*
X2208875Y2287146D01*
X2208870Y2287142D01*
X2114622Y2178372D01*
X2054835Y2047457D01*
X2054833Y2047451D01*
X2034353Y1905004D01*
X634996Y1905004D01*
X25745Y2514255D01*
X334Y2568749D01*
X0Y2576410D01*
X0Y4201417D01*
X29224500Y4201417D01*
X29224500Y4053584D01*
X29253340Y3908591D01*
X29253342Y3908587D01*
X29309914Y3772007D01*
X29309916Y3772004D01*
X29392045Y3649089D01*
X29392046Y3649088D01*
X29392049Y3649084D01*
X29496584Y3544549D01*
X29496587Y3544547D01*
X29496588Y3544546D01*
X29619503Y3462417D01*
X29619506Y3462415D01*
X29687796Y3434129D01*
X29756087Y3405842D01*
X29756088Y3405842D01*
X29756090Y3405841D01*
X29829076Y3391324D01*
X29901082Y3377000D01*
X29901084Y3377000D01*
X30048916Y3377000D01*
X30048918Y3377000D01*
X30144708Y3396055D01*
X30193909Y3405841D01*
X30193909Y3405842D01*
X30193913Y3405842D01*
X30330495Y3462416D01*
X30453416Y3544549D01*
X30557951Y3649084D01*
X30640084Y3772005D01*
X30696658Y3908587D01*
X30725500Y4053582D01*
X30725500Y4201417D01*
X37224500Y4201417D01*
X37224500Y4053584D01*
X37253340Y3908591D01*
X37253342Y3908587D01*
X37309914Y3772007D01*
X37309916Y3772004D01*
X37392045Y3649089D01*
X37392046Y3649088D01*
X37392049Y3649084D01*
X37496584Y3544549D01*
X37496587Y3544547D01*
X37496588Y3544546D01*
X37619503Y3462417D01*
X37619506Y3462415D01*
X37687796Y3434129D01*
X37756087Y3405842D01*
X37756088Y3405842D01*
X37756090Y3405841D01*
X37829076Y3391324D01*
X37901082Y3377000D01*
X37901084Y3377000D01*
X38048916Y3377000D01*
X38048918Y3377000D01*
X38144708Y3396055D01*
X38193909Y3405841D01*
X38193909Y3405842D01*
X38193913Y3405842D01*
X38330495Y3462416D01*
X38453416Y3544549D01*
X38557951Y3649084D01*
X38640084Y3772005D01*
X38696658Y3908587D01*
X38725500Y4053582D01*
X38725500Y4201418D01*
X38709093Y4283898D01*
X38696659Y4346410D01*
X38696658Y4346412D01*
X38696658Y4346413D01*
X38656036Y4444484D01*
X38640085Y4482994D01*
X38640083Y4482997D01*
X38557954Y4605912D01*
X38557953Y4605913D01*
X38557951Y4605916D01*
X38453416Y4710451D01*
X38453412Y4710454D01*
X38453411Y4710455D01*
X38330496Y4792584D01*
X38330493Y4792586D01*
X38193913Y4849158D01*
X38193909Y4849160D01*
X38084919Y4870839D01*
X38048918Y4878000D01*
X37901082Y4878000D01*
X37869056Y4871630D01*
X37756090Y4849160D01*
X37756086Y4849158D01*
X37619506Y4792586D01*
X37619503Y4792584D01*
X37496588Y4710455D01*
X37392045Y4605912D01*
X37309916Y4482997D01*
X37309914Y4482994D01*
X37253342Y4346414D01*
X37253340Y4346410D01*
X37224500Y4201417D01*
X30725500Y4201417D01*
X30725500Y4201418D01*
X30709093Y4283898D01*
X30696659Y4346410D01*
X30696658Y4346412D01*
X30696658Y4346413D01*
X30656036Y4444484D01*
X30640085Y4482994D01*
X30640083Y4482997D01*
X30557954Y4605912D01*
X30557953Y4605913D01*
X30557951Y4605916D01*
X30453416Y4710451D01*
X30453412Y4710454D01*
X30453411Y4710455D01*
X30330496Y4792584D01*
X30330493Y4792586D01*
X30193913Y4849158D01*
X30193909Y4849160D01*
X30084919Y4870839D01*
X30048918Y4878000D01*
X29901082Y4878000D01*
X29869056Y4871630D01*
X29756090Y4849160D01*
X29756086Y4849158D01*
X29619506Y4792586D01*
X29619503Y4792584D01*
X29496588Y4710455D01*
X29392045Y4605912D01*
X29309916Y4482997D01*
X29309914Y4482994D01*
X29253342Y4346414D01*
X29253340Y4346410D01*
X29224500Y4201417D01*
X0Y4201417D01*
X0Y6051806D01*
X5798700Y6051806D01*
X5798700Y4818195D01*
X5824765Y4687151D01*
X5824768Y4687143D01*
X5875895Y4563710D01*
X5875895Y4563708D01*
X5929827Y4482994D01*
X5950130Y4452609D01*
X6044609Y4358130D01*
X6155704Y4283898D01*
X6155706Y4283897D01*
X6155708Y4283896D01*
X6279142Y4232769D01*
X6279150Y4232766D01*
X6345116Y4219645D01*
X6410193Y4206700D01*
X6410195Y4206700D01*
X6543805Y4206700D01*
X6543807Y4206700D01*
X6630380Y4223921D01*
X6674849Y4232766D01*
X6674850Y4232767D01*
X6674853Y4232767D01*
X6798291Y4283896D01*
X6798292Y4283896D01*
X6798293Y4283897D01*
X6798296Y4283898D01*
X6909391Y4358130D01*
X7003870Y4452609D01*
X7078102Y4563704D01*
X7129233Y4687147D01*
X7155300Y4818193D01*
X7155300Y4818204D01*
X7155578Y4821022D01*
X7156063Y4822036D01*
X7156142Y4822428D01*
X7156242Y4822408D01*
X7181576Y4875238D01*
X7236342Y4900057D01*
X7294248Y4883868D01*
X7327850Y4834757D01*
X7328009Y4834799D01*
X7328129Y4834348D01*
X7328201Y4834244D01*
X7328315Y4833654D01*
X7368718Y4682867D01*
X7437514Y4563708D01*
X7444485Y4551635D01*
X7551635Y4444485D01*
X7682865Y4368719D01*
X7829234Y4329500D01*
X7980765Y4329500D01*
X7980766Y4329500D01*
X8127135Y4368719D01*
X8258365Y4444485D01*
X8365515Y4551635D01*
X8441281Y4682865D01*
X8480500Y4829234D01*
X8480500Y4980766D01*
X13109500Y4980766D01*
X13109500Y4829234D01*
X13119320Y4792586D01*
X13148718Y4682867D01*
X13217514Y4563708D01*
X13224485Y4551635D01*
X13331635Y4444485D01*
X13462865Y4368719D01*
X13609234Y4329500D01*
X13760765Y4329500D01*
X13760766Y4329500D01*
X13907135Y4368719D01*
X14038365Y4444485D01*
X14145515Y4551635D01*
X14221281Y4682865D01*
X14260500Y4829234D01*
X14260500Y4829235D01*
X14261991Y4834799D01*
X14265051Y4833979D01*
X14287550Y4877212D01*
X14343097Y4900230D01*
X14400444Y4882157D01*
X14432758Y4831451D01*
X14434420Y4821034D01*
X14434699Y4818198D01*
X14460765Y4687151D01*
X14460768Y4687143D01*
X14511895Y4563710D01*
X14511895Y4563708D01*
X14565827Y4482994D01*
X14586130Y4452609D01*
X14680609Y4358130D01*
X14791704Y4283898D01*
X14791706Y4283897D01*
X14791708Y4283896D01*
X14915142Y4232769D01*
X14915150Y4232766D01*
X14981116Y4219645D01*
X15046193Y4206700D01*
X15046195Y4206700D01*
X15179805Y4206700D01*
X15179807Y4206700D01*
X15266380Y4223921D01*
X15310849Y4232766D01*
X15310850Y4232767D01*
X15310853Y4232767D01*
X15434291Y4283896D01*
X15434292Y4283896D01*
X15434293Y4283897D01*
X15434296Y4283898D01*
X15545391Y4358130D01*
X15639870Y4452609D01*
X15714102Y4563704D01*
X15765233Y4687147D01*
X15791300Y4818193D01*
X15791300Y6051807D01*
X15765233Y6182853D01*
X15714104Y6306292D01*
X15714104Y6306293D01*
X15639871Y6417389D01*
X15639870Y6417391D01*
X15545391Y6511870D01*
X15434296Y6586102D01*
X15434294Y6586103D01*
X15434291Y6586105D01*
X15310857Y6637232D01*
X15310849Y6637235D01*
X15212344Y6656828D01*
X15179807Y6663300D01*
X15046193Y6663300D01*
X15017249Y6657543D01*
X14915150Y6637235D01*
X14915142Y6637232D01*
X14791709Y6586105D01*
X14791707Y6586105D01*
X14680611Y6511872D01*
X14586128Y6417389D01*
X14511895Y6306293D01*
X14511895Y6306291D01*
X14460768Y6182858D01*
X14460765Y6182850D01*
X14434700Y6051806D01*
X14434700Y4998310D01*
X14414135Y4941809D01*
X14362064Y4911745D01*
X14302850Y4922186D01*
X14264201Y4968246D01*
X14261895Y4975560D01*
X14221281Y5127134D01*
X14221281Y5127135D01*
X14145515Y5258365D01*
X14038365Y5365515D01*
X13907135Y5441281D01*
X13907134Y5441282D01*
X13907133Y5441282D01*
X13760766Y5480500D01*
X13609234Y5480500D01*
X13462866Y5441282D01*
X13331637Y5365517D01*
X13224483Y5258363D01*
X13148718Y5127134D01*
X13114201Y4998310D01*
X13109500Y4980766D01*
X8480500Y4980766D01*
X8441281Y5127135D01*
X8365515Y5258365D01*
X8258365Y5365515D01*
X8127135Y5441281D01*
X8127134Y5441282D01*
X8127133Y5441282D01*
X7980766Y5480500D01*
X7829234Y5480500D01*
X7682866Y5441282D01*
X7551637Y5365517D01*
X7444483Y5258363D01*
X7368718Y5127134D01*
X7328105Y4975560D01*
X7293618Y4926307D01*
X7235539Y4910744D01*
X7181046Y4936155D01*
X7155635Y4990649D01*
X7155300Y4998310D01*
X7155300Y6051806D01*
X7129234Y6182850D01*
X7129231Y6182858D01*
X7078104Y6306291D01*
X7078104Y6306293D01*
X7003871Y6417389D01*
X7003870Y6417391D01*
X6909391Y6511870D01*
X6798296Y6586102D01*
X6798294Y6586103D01*
X6798291Y6586105D01*
X6674857Y6637232D01*
X6674849Y6637235D01*
X6576344Y6656828D01*
X6543807Y6663300D01*
X6410193Y6663300D01*
X6381249Y6657543D01*
X6279150Y6637235D01*
X6279142Y6637232D01*
X6155709Y6586105D01*
X6155707Y6586105D01*
X6044611Y6511872D01*
X5950128Y6417389D01*
X5875895Y6306293D01*
X5875895Y6306291D01*
X5824768Y6182858D01*
X5824765Y6182850D01*
X5798700Y6051806D01*
X0Y6051806D01*
X0Y7143754D01*
X9538237Y7143754D01*
X9538237Y7143747D01*
X9556990Y7013311D01*
X9556992Y7013305D01*
X9611739Y6893425D01*
X9652650Y6846212D01*
X9698041Y6793828D01*
X9698043Y6793827D01*
X9698044Y6793826D01*
X9808903Y6722581D01*
X9808904Y6722581D01*
X9808907Y6722579D01*
X9895032Y6697291D01*
X9935351Y6685451D01*
X9935354Y6685451D01*
X9935356Y6685450D01*
X9935357Y6685450D01*
X10067143Y6685450D01*
X10067144Y6685450D01*
X10067146Y6685451D01*
X10067148Y6685451D01*
X10082177Y6689865D01*
X10193593Y6722579D01*
X10304459Y6793828D01*
X10349850Y6846212D01*
X10402392Y6875446D01*
X10416280Y6876550D01*
X10651270Y6876550D01*
X10707771Y6855985D01*
X10717700Y6846212D01*
X10763091Y6793828D01*
X10763093Y6793827D01*
X10763094Y6793826D01*
X10873953Y6722581D01*
X10873954Y6722581D01*
X10873957Y6722579D01*
X10960082Y6697291D01*
X11000401Y6685451D01*
X11000404Y6685451D01*
X11000406Y6685450D01*
X11000407Y6685450D01*
X11132193Y6685450D01*
X11132194Y6685450D01*
X11132196Y6685451D01*
X11132198Y6685451D01*
X11147227Y6689865D01*
X11258643Y6722579D01*
X11369509Y6793828D01*
X11455811Y6893426D01*
X11510558Y7013304D01*
X11529313Y7143750D01*
X11529313Y7143754D01*
X11510559Y7274190D01*
X11510558Y7274191D01*
X11510558Y7274196D01*
X11455811Y7394074D01*
X11455810Y7394075D01*
X11455810Y7394076D01*
X11412660Y7443873D01*
X11369509Y7493672D01*
X11369506Y7493674D01*
X11369505Y7493675D01*
X11258646Y7564920D01*
X11258643Y7564921D01*
X11233353Y7572347D01*
X11132198Y7602050D01*
X11132194Y7602050D01*
X11000406Y7602050D01*
X11000401Y7602050D01*
X10873957Y7564921D01*
X10873953Y7564920D01*
X10763094Y7493675D01*
X10763089Y7493670D01*
X10717700Y7441288D01*
X10665158Y7412054D01*
X10651270Y7410950D01*
X10416280Y7410950D01*
X10359779Y7431515D01*
X10349850Y7441288D01*
X10348707Y7442607D01*
X10304459Y7493672D01*
X10304456Y7493674D01*
X10304455Y7493675D01*
X10193596Y7564920D01*
X10193593Y7564921D01*
X10168303Y7572347D01*
X10067148Y7602050D01*
X10067144Y7602050D01*
X9935356Y7602050D01*
X9935351Y7602050D01*
X9808907Y7564921D01*
X9808903Y7564920D01*
X9698044Y7493675D01*
X9698039Y7493670D01*
X9611739Y7394076D01*
X9556992Y7274196D01*
X9556990Y7274190D01*
X9538237Y7143754D01*
X0Y7143754D01*
X0Y8663766D01*
X20104500Y8663766D01*
X20104500Y8496235D01*
X20137181Y8331927D01*
X20137183Y8331921D01*
X20137184Y8331918D01*
X20201297Y8177137D01*
X20294374Y8037838D01*
X20412838Y7919374D01*
X20552137Y7826297D01*
X20706918Y7762184D01*
X20706923Y7762183D01*
X20706926Y7762182D01*
X20790190Y7745621D01*
X20871233Y7729500D01*
X20871235Y7729500D01*
X21038765Y7729500D01*
X21038767Y7729500D01*
X21146339Y7750898D01*
X21203073Y7762182D01*
X21203074Y7762183D01*
X21203082Y7762184D01*
X21357863Y7826297D01*
X21497162Y7919374D01*
X21615626Y8037838D01*
X21708703Y8177137D01*
X21772816Y8331918D01*
X21805500Y8496233D01*
X21805500Y8663767D01*
X21772816Y8828082D01*
X21708703Y8982863D01*
X21615626Y9122162D01*
X21497162Y9240626D01*
X21357863Y9333703D01*
X21203082Y9397816D01*
X21203079Y9397817D01*
X21203073Y9397819D01*
X21079424Y9422413D01*
X21038767Y9430500D01*
X20871233Y9430500D01*
X20835052Y9423304D01*
X20706926Y9397819D01*
X20706918Y9397816D01*
X20552137Y9333703D01*
X20412840Y9240628D01*
X20294372Y9122160D01*
X20201297Y8982863D01*
X20137184Y8828082D01*
X20137181Y8828074D01*
X20104500Y8663766D01*
X0Y8663766D01*
X0Y10160001D01*
X1417110Y10160001D01*
X1417110Y10160000D01*
X1436229Y9953667D01*
X1436229Y9953666D01*
X1492934Y9754372D01*
X1492936Y9754365D01*
X1585300Y9568875D01*
X1710174Y9403514D01*
X1786753Y9333703D01*
X1863305Y9263916D01*
X1863308Y9263914D01*
X2039485Y9154830D01*
X2232707Y9079976D01*
X2232711Y9079976D01*
X2232715Y9079974D01*
X2341601Y9059620D01*
X2436393Y9041900D01*
X2436394Y9041900D01*
X2643606Y9041900D01*
X2643607Y9041900D01*
X2778741Y9067162D01*
X2847284Y9079974D01*
X2847286Y9079975D01*
X2847293Y9079976D01*
X3040515Y9154830D01*
X3216692Y9263914D01*
X3369826Y9403514D01*
X3494700Y9568875D01*
X3587064Y9754365D01*
X3643771Y9953670D01*
X3662890Y10160000D01*
X3643771Y10366330D01*
X3587064Y10565635D01*
X3494700Y10751125D01*
X3369826Y10916486D01*
X3285837Y10993052D01*
X3216694Y11056085D01*
X3216685Y11056091D01*
X3040517Y11165169D01*
X3040511Y11165172D01*
X2847296Y11240023D01*
X2847284Y11240027D01*
X2643609Y11278100D01*
X2643607Y11278100D01*
X2436393Y11278100D01*
X2436390Y11278100D01*
X2232715Y11240027D01*
X2232703Y11240023D01*
X2039488Y11165172D01*
X2039482Y11165169D01*
X1863314Y11056091D01*
X1863305Y11056085D01*
X1710173Y10916485D01*
X1585302Y10751129D01*
X1492936Y10565634D01*
X1492934Y10565629D01*
X1436229Y10366335D01*
X1436229Y10366334D01*
X1417110Y10160001D01*
X0Y10160001D01*
X0Y12700001D01*
X1417110Y12700001D01*
X1417110Y12700000D01*
X1436229Y12493667D01*
X1436229Y12493666D01*
X1492934Y12294372D01*
X1492936Y12294365D01*
X1585300Y12108875D01*
X1710174Y11943514D01*
X1801584Y11860182D01*
X1863305Y11803916D01*
X1863308Y11803914D01*
X2039485Y11694830D01*
X2232707Y11619976D01*
X2232711Y11619976D01*
X2232715Y11619974D01*
X2341601Y11599620D01*
X2436393Y11581900D01*
X2436394Y11581900D01*
X2643606Y11581900D01*
X2643607Y11581900D01*
X2778741Y11607162D01*
X2847284Y11619974D01*
X2847286Y11619975D01*
X2847293Y11619976D01*
X3040515Y11694830D01*
X3216692Y11803914D01*
X3369826Y11943514D01*
X3494700Y12108875D01*
X3587064Y12294365D01*
X3643771Y12493670D01*
X3662890Y12700000D01*
X3643771Y12906330D01*
X3587064Y13105635D01*
X3494700Y13291125D01*
X3369826Y13456486D01*
X3261393Y13555336D01*
X3216694Y13596085D01*
X3216685Y13596091D01*
X3040517Y13705169D01*
X3040511Y13705172D01*
X2847296Y13780023D01*
X2847284Y13780027D01*
X2643609Y13818100D01*
X2643607Y13818100D01*
X2436393Y13818100D01*
X2436390Y13818100D01*
X2232715Y13780027D01*
X2232703Y13780023D01*
X2039488Y13705172D01*
X2039482Y13705169D01*
X1863314Y13596091D01*
X1863305Y13596085D01*
X1710173Y13456485D01*
X1585302Y13291129D01*
X1492936Y13105634D01*
X1492934Y13105629D01*
X1436229Y12906335D01*
X1436229Y12906334D01*
X1417110Y12700001D01*
X0Y12700001D01*
X0Y15240001D01*
X1417110Y15240001D01*
X1417110Y15240000D01*
X1436229Y15033667D01*
X1436229Y15033666D01*
X1483911Y14866085D01*
X1492936Y14834365D01*
X1585300Y14648875D01*
X1710174Y14483514D01*
X1754198Y14443381D01*
X1863305Y14343916D01*
X1863308Y14343914D01*
X2039485Y14234830D01*
X2232707Y14159976D01*
X2232711Y14159976D01*
X2232715Y14159974D01*
X2341601Y14139620D01*
X2436393Y14121900D01*
X2436394Y14121900D01*
X2643606Y14121900D01*
X2643607Y14121900D01*
X2778741Y14147162D01*
X2847284Y14159974D01*
X2847286Y14159975D01*
X2847293Y14159976D01*
X3040515Y14234830D01*
X3216692Y14343914D01*
X3369826Y14483514D01*
X3494700Y14648875D01*
X3587064Y14834365D01*
X3643771Y15033670D01*
X3662890Y15240000D01*
X3643771Y15446330D01*
X3587064Y15645635D01*
X3494700Y15831125D01*
X3369826Y15996486D01*
X3285837Y16073052D01*
X3216694Y16136085D01*
X3216685Y16136091D01*
X3040517Y16245169D01*
X3040511Y16245172D01*
X2847296Y16320023D01*
X2847284Y16320027D01*
X2643609Y16358100D01*
X2643607Y16358100D01*
X2436393Y16358100D01*
X2436390Y16358100D01*
X2232715Y16320027D01*
X2232703Y16320023D01*
X2039488Y16245172D01*
X2039482Y16245169D01*
X1863314Y16136091D01*
X1863305Y16136085D01*
X1710173Y15996485D01*
X1585302Y15831129D01*
X1492936Y15645634D01*
X1492934Y15645629D01*
X1436229Y15446335D01*
X1436229Y15446334D01*
X1417110Y15240001D01*
X0Y15240001D01*
X0Y17868901D01*
X1400340Y17868901D01*
X1400341Y17868900D01*
X2037900Y17868900D01*
X2032000Y17846880D01*
X2032000Y17713120D01*
X2037900Y17691100D01*
X1400341Y17691100D01*
X1411648Y17569071D01*
X1411648Y17569070D01*
X1469616Y17365336D01*
X1564039Y17175709D01*
X1691691Y17006671D01*
X1691695Y17006667D01*
X1848235Y16863960D01*
X1848244Y16863954D01*
X2028333Y16752448D01*
X2028347Y16752442D01*
X2225859Y16675925D01*
X2225873Y16675921D01*
X2434080Y16637001D01*
X2434086Y16637000D01*
X2451099Y16637000D01*
X2451100Y16637001D01*
X2451100Y17277901D01*
X2473120Y17272000D01*
X2606880Y17272000D01*
X2628900Y17277901D01*
X2628900Y16637001D01*
X2628901Y16637000D01*
X2645914Y16637000D01*
X2645919Y16637001D01*
X2854126Y16675921D01*
X2854140Y16675925D01*
X3051652Y16752442D01*
X3051666Y16752448D01*
X3231755Y16863954D01*
X3231764Y16863960D01*
X3388304Y17006667D01*
X3388308Y17006671D01*
X3515960Y17175709D01*
X3610383Y17365336D01*
X3668351Y17569070D01*
X3668351Y17569071D01*
X3679659Y17691100D01*
X3042100Y17691100D01*
X3048000Y17713120D01*
X3048000Y17846880D01*
X3042100Y17868900D01*
X3679659Y17868900D01*
X3679659Y17868901D01*
X3668351Y17990930D01*
X3668351Y17990931D01*
X3610383Y18194665D01*
X3515960Y18384292D01*
X3388308Y18553330D01*
X3388304Y18553334D01*
X3231764Y18696041D01*
X3231755Y18696047D01*
X3051666Y18807553D01*
X3051652Y18807559D01*
X2854140Y18884076D01*
X2854126Y18884080D01*
X2645919Y18923000D01*
X2628901Y18923000D01*
X2628900Y18922999D01*
X2628900Y18282100D01*
X2606880Y18288000D01*
X2473120Y18288000D01*
X2451100Y18282100D01*
X2451100Y18922999D01*
X2451099Y18923000D01*
X2434080Y18923000D01*
X2225873Y18884080D01*
X2225859Y18884076D01*
X2028347Y18807559D01*
X2028333Y18807553D01*
X1848244Y18696047D01*
X1848235Y18696041D01*
X1691695Y18553334D01*
X1691691Y18553330D01*
X1564039Y18384292D01*
X1469616Y18194665D01*
X1411648Y17990931D01*
X1411648Y17990930D01*
X1400340Y17868901D01*
X0Y17868901D01*
X0Y20320001D01*
X1417110Y20320001D01*
X1417110Y20320000D01*
X1436229Y20113667D01*
X1436229Y20113666D01*
X1483911Y19946085D01*
X1492936Y19914365D01*
X1585300Y19728875D01*
X1710174Y19563514D01*
X1801584Y19480182D01*
X1863305Y19423916D01*
X1863314Y19423910D01*
X1873182Y19417800D01*
X2039485Y19314830D01*
X2232707Y19239976D01*
X2232711Y19239976D01*
X2232715Y19239974D01*
X2341601Y19219620D01*
X2436393Y19201900D01*
X2436394Y19201900D01*
X2643606Y19201900D01*
X2643607Y19201900D01*
X2778741Y19227162D01*
X2847284Y19239974D01*
X2847286Y19239975D01*
X2847293Y19239976D01*
X3040515Y19314830D01*
X3216692Y19423914D01*
X3369826Y19563514D01*
X3494700Y19728875D01*
X3587064Y19914365D01*
X3643771Y20113670D01*
X3662890Y20320000D01*
X3643771Y20526330D01*
X3642186Y20531899D01*
X3617638Y20618177D01*
X3587064Y20725635D01*
X3494700Y20911125D01*
X3369826Y21076486D01*
X3281518Y21156989D01*
X3216694Y21216085D01*
X3216685Y21216091D01*
X3040517Y21325169D01*
X3040511Y21325172D01*
X2847296Y21400023D01*
X2847284Y21400027D01*
X2643609Y21438100D01*
X2643607Y21438100D01*
X2436393Y21438100D01*
X2436390Y21438100D01*
X2232715Y21400027D01*
X2232703Y21400023D01*
X2039488Y21325172D01*
X2039482Y21325169D01*
X1863314Y21216091D01*
X1863305Y21216085D01*
X1710173Y21076485D01*
X1585302Y20911129D01*
X1585300Y20911126D01*
X1585300Y20911125D01*
X1494116Y20728003D01*
X1492936Y20725634D01*
X1492934Y20725629D01*
X1436229Y20526335D01*
X1436229Y20526334D01*
X1417110Y20320001D01*
X0Y20320001D01*
X0Y22860001D01*
X1417110Y22860001D01*
X1417110Y22860000D01*
X1436229Y22653667D01*
X1436229Y22653666D01*
X1483911Y22486085D01*
X1492936Y22454365D01*
X1585300Y22268875D01*
X1585301Y22268874D01*
X1585302Y22268872D01*
X1593949Y22257422D01*
X1710174Y22103514D01*
X1801584Y22020182D01*
X1863305Y21963916D01*
X1863308Y21963914D01*
X2039485Y21854830D01*
X2232707Y21779976D01*
X2232711Y21779976D01*
X2232715Y21779974D01*
X2341601Y21759620D01*
X2436393Y21741900D01*
X2436394Y21741900D01*
X2643606Y21741900D01*
X2643607Y21741900D01*
X2778741Y21767162D01*
X2847284Y21779974D01*
X2847286Y21779975D01*
X2847293Y21779976D01*
X3040515Y21854830D01*
X3216692Y21963914D01*
X3369826Y22103514D01*
X3494700Y22268875D01*
X3587064Y22454365D01*
X3643771Y22653670D01*
X3662890Y22860000D01*
X3643771Y23066330D01*
X3641637Y23073829D01*
X3621364Y23145081D01*
X3587064Y23265635D01*
X3494700Y23451125D01*
X3369826Y23616486D01*
X3254073Y23722009D01*
X3216694Y23756085D01*
X3216685Y23756091D01*
X3040517Y23865169D01*
X3040511Y23865172D01*
X2847296Y23940023D01*
X2847284Y23940027D01*
X2643609Y23978100D01*
X2643607Y23978100D01*
X2436393Y23978100D01*
X2436390Y23978100D01*
X2232715Y23940027D01*
X2232703Y23940023D01*
X2039488Y23865172D01*
X2039482Y23865169D01*
X1863314Y23756091D01*
X1863305Y23756085D01*
X1741201Y23644771D01*
X1711051Y23617285D01*
X1710173Y23616485D01*
X1585302Y23451129D01*
X1585300Y23451126D01*
X1585300Y23451125D01*
X1542193Y23364554D01*
X1492936Y23265634D01*
X1492934Y23265629D01*
X1436229Y23066335D01*
X1436229Y23066334D01*
X1417110Y22860001D01*
X0Y22860001D01*
X0Y25400001D01*
X1417110Y25400001D01*
X1417110Y25400000D01*
X1436229Y25193667D01*
X1436229Y25193666D01*
X1483911Y25026085D01*
X1492936Y24994365D01*
X1585300Y24808875D01*
X1710174Y24643514D01*
X1801584Y24560182D01*
X1863305Y24503916D01*
X1863308Y24503914D01*
X2039485Y24394830D01*
X2232707Y24319976D01*
X2232711Y24319976D01*
X2232715Y24319974D01*
X2341601Y24299620D01*
X2436393Y24281900D01*
X2436394Y24281900D01*
X2643606Y24281900D01*
X2643607Y24281900D01*
X2778741Y24307162D01*
X2847284Y24319974D01*
X2847286Y24319975D01*
X2847293Y24319976D01*
X3040515Y24394830D01*
X3216692Y24503914D01*
X3369826Y24643514D01*
X3494700Y24808875D01*
X3587064Y24994365D01*
X3643771Y25193670D01*
X3662890Y25400000D01*
X3643771Y25606330D01*
X3587064Y25805635D01*
X3494700Y25991125D01*
X3369826Y26156486D01*
X3254178Y26261913D01*
X3216694Y26296085D01*
X3216685Y26296091D01*
X3040517Y26405169D01*
X3040511Y26405172D01*
X2847296Y26480023D01*
X2847284Y26480027D01*
X2643609Y26518100D01*
X2643607Y26518100D01*
X2436393Y26518100D01*
X2436390Y26518100D01*
X2232715Y26480027D01*
X2232703Y26480023D01*
X2039488Y26405172D01*
X2039482Y26405169D01*
X1863314Y26296091D01*
X1863305Y26296085D01*
X1710173Y26156485D01*
X1585302Y25991129D01*
X1585300Y25991126D01*
X1585300Y25991125D01*
X1553914Y25928093D01*
X1492936Y25805634D01*
X1492934Y25805629D01*
X1436229Y25606335D01*
X1436229Y25606334D01*
X1417110Y25400001D01*
X0Y25400001D01*
X0Y27940001D01*
X1417110Y27940001D01*
X1417110Y27940000D01*
X1436229Y27733667D01*
X1436229Y27733666D01*
X1483911Y27566085D01*
X1492936Y27534365D01*
X1585300Y27348875D01*
X1710174Y27183514D01*
X1801146Y27100582D01*
X1863305Y27043916D01*
X1863314Y27043910D01*
X1871086Y27039098D01*
X2039485Y26934830D01*
X2232707Y26859976D01*
X2232711Y26859976D01*
X2232715Y26859974D01*
X2335390Y26840781D01*
X2436393Y26821900D01*
X2436394Y26821900D01*
X2643606Y26821900D01*
X2643607Y26821900D01*
X2778741Y26847162D01*
X2847284Y26859974D01*
X2847286Y26859975D01*
X2847293Y26859976D01*
X3040515Y26934830D01*
X3216692Y27043914D01*
X3369826Y27183514D01*
X3494700Y27348875D01*
X3587064Y27534365D01*
X3643771Y27733670D01*
X3662890Y27940000D01*
X3643771Y28146330D01*
X3587064Y28345635D01*
X3494700Y28531125D01*
X3369826Y28696486D01*
X3270648Y28786899D01*
X3216694Y28836085D01*
X3216685Y28836091D01*
X3040517Y28945169D01*
X3040511Y28945172D01*
X2847296Y29020023D01*
X2847284Y29020027D01*
X2643609Y29058100D01*
X2643607Y29058100D01*
X2436393Y29058100D01*
X2436390Y29058100D01*
X2232715Y29020027D01*
X2232703Y29020023D01*
X2039488Y28945172D01*
X2039482Y28945169D01*
X1863314Y28836091D01*
X1863305Y28836085D01*
X1710173Y28696485D01*
X1585302Y28531129D01*
X1492936Y28345634D01*
X1492934Y28345629D01*
X1436229Y28146335D01*
X1436229Y28146334D01*
X1417110Y27940001D01*
X0Y27940001D01*
X0Y30480001D01*
X1417110Y30480001D01*
X1417110Y30480000D01*
X1436229Y30273667D01*
X1436229Y30273666D01*
X1483911Y30106085D01*
X1492936Y30074365D01*
X1585300Y29888875D01*
X1710174Y29723514D01*
X1801584Y29640182D01*
X1863305Y29583916D01*
X1863308Y29583914D01*
X2039485Y29474830D01*
X2232707Y29399976D01*
X2232711Y29399976D01*
X2232715Y29399974D01*
X2341601Y29379620D01*
X2436393Y29361900D01*
X2436394Y29361900D01*
X2643606Y29361900D01*
X2643607Y29361900D01*
X2778741Y29387162D01*
X2847284Y29399974D01*
X2847286Y29399975D01*
X2847293Y29399976D01*
X3040515Y29474830D01*
X3216692Y29583914D01*
X3369826Y29723514D01*
X3494700Y29888875D01*
X3587064Y30074365D01*
X3643771Y30273670D01*
X3662890Y30480000D01*
X3643771Y30686330D01*
X3587064Y30885635D01*
X3494700Y31071125D01*
X3369826Y31236486D01*
X3261393Y31335336D01*
X3216694Y31376085D01*
X3216685Y31376091D01*
X3040517Y31485169D01*
X3040511Y31485172D01*
X2847296Y31560023D01*
X2847284Y31560027D01*
X2643609Y31598100D01*
X2643607Y31598100D01*
X2436393Y31598100D01*
X2436390Y31598100D01*
X2232715Y31560027D01*
X2232703Y31560023D01*
X2039488Y31485172D01*
X2039482Y31485169D01*
X1863314Y31376091D01*
X1863305Y31376085D01*
X1710173Y31236485D01*
X1585302Y31071129D01*
X1585300Y31071126D01*
X1585300Y31071125D01*
X1494649Y30889074D01*
X1492936Y30885634D01*
X1492934Y30885629D01*
X1436229Y30686335D01*
X1436229Y30686334D01*
X1417110Y30480001D01*
X0Y30480001D01*
X0Y33020001D01*
X1417110Y33020001D01*
X1417110Y33020000D01*
X1436229Y32813667D01*
X1436229Y32813666D01*
X1473357Y32683177D01*
X1492936Y32614365D01*
X1585300Y32428875D01*
X1710174Y32263514D01*
X1754198Y32223381D01*
X1863305Y32123916D01*
X1863308Y32123914D01*
X2039485Y32014830D01*
X2232707Y31939976D01*
X2232711Y31939976D01*
X2232715Y31939974D01*
X2341601Y31919620D01*
X2436393Y31901900D01*
X2436394Y31901900D01*
X2643606Y31901900D01*
X2643607Y31901900D01*
X2778741Y31927162D01*
X2847284Y31939974D01*
X2847286Y31939975D01*
X2847293Y31939976D01*
X3040515Y32014830D01*
X3216692Y32123914D01*
X3369826Y32263514D01*
X3494700Y32428875D01*
X3587064Y32614365D01*
X3643771Y32813670D01*
X3662890Y33020000D01*
X3643771Y33226330D01*
X3587064Y33425635D01*
X3494700Y33611125D01*
X3369826Y33776486D01*
X3261393Y33875336D01*
X3216694Y33916085D01*
X3216685Y33916091D01*
X3040517Y34025169D01*
X3040511Y34025172D01*
X2847296Y34100023D01*
X2847284Y34100027D01*
X2643609Y34138100D01*
X2643607Y34138100D01*
X2436393Y34138100D01*
X2436390Y34138100D01*
X2232715Y34100027D01*
X2232703Y34100023D01*
X2039488Y34025172D01*
X2039482Y34025169D01*
X1863314Y33916091D01*
X1863305Y33916085D01*
X1710173Y33776485D01*
X1585302Y33611129D01*
X1492936Y33425634D01*
X1492934Y33425629D01*
X1436229Y33226335D01*
X1436229Y33226334D01*
X1417110Y33020001D01*
X0Y33020001D01*
X0Y36830001D01*
X1417110Y36830001D01*
X1417110Y36830000D01*
X1436229Y36623667D01*
X1436229Y36623666D01*
X1492934Y36424372D01*
X1492936Y36424365D01*
X1585300Y36238875D01*
X1710174Y36073514D01*
X1801584Y35990182D01*
X1863305Y35933916D01*
X1863308Y35933914D01*
X2039485Y35824830D01*
X2232707Y35749976D01*
X2232711Y35749976D01*
X2232715Y35749974D01*
X2341601Y35729620D01*
X2436393Y35711900D01*
X2436394Y35711900D01*
X2643606Y35711900D01*
X2643607Y35711900D01*
X2778741Y35737162D01*
X2847284Y35749974D01*
X2847286Y35749975D01*
X2847293Y35749976D01*
X3040515Y35824830D01*
X3216692Y35933914D01*
X3369826Y36073514D01*
X3494700Y36238875D01*
X3587064Y36424365D01*
X3643771Y36623670D01*
X3662890Y36830000D01*
X3643771Y37036330D01*
X3587064Y37235635D01*
X3494700Y37421125D01*
X3369826Y37586486D01*
X3285837Y37663052D01*
X3216694Y37726085D01*
X3216685Y37726091D01*
X3040517Y37835169D01*
X3040511Y37835172D01*
X2847296Y37910023D01*
X2847284Y37910027D01*
X2643609Y37948100D01*
X2643607Y37948100D01*
X2436393Y37948100D01*
X2436390Y37948100D01*
X2232715Y37910027D01*
X2232703Y37910023D01*
X2039488Y37835172D01*
X2039482Y37835169D01*
X1863314Y37726091D01*
X1863305Y37726085D01*
X1710173Y37586485D01*
X1585302Y37421129D01*
X1492936Y37235634D01*
X1492934Y37235629D01*
X1436229Y37036335D01*
X1436229Y37036334D01*
X1417110Y36830001D01*
X0Y36830001D01*
X0Y39370001D01*
X1417110Y39370001D01*
X1417110Y39370000D01*
X1436229Y39163667D01*
X1436229Y39163666D01*
X1492934Y38964372D01*
X1492936Y38964365D01*
X1585300Y38778875D01*
X1710174Y38613514D01*
X1801584Y38530182D01*
X1863305Y38473916D01*
X1863308Y38473914D01*
X2039485Y38364830D01*
X2232707Y38289976D01*
X2232711Y38289976D01*
X2232715Y38289974D01*
X2341601Y38269620D01*
X2436393Y38251900D01*
X2436394Y38251900D01*
X2643606Y38251900D01*
X2643607Y38251900D01*
X2778741Y38277162D01*
X2847284Y38289974D01*
X2847286Y38289975D01*
X2847293Y38289976D01*
X3040515Y38364830D01*
X3216692Y38473914D01*
X3369826Y38613514D01*
X3494700Y38778875D01*
X3587064Y38964365D01*
X3643771Y39163670D01*
X3662890Y39370000D01*
X3643771Y39576330D01*
X3587064Y39775635D01*
X3494700Y39961125D01*
X3369826Y40126486D01*
X3285837Y40203052D01*
X3216694Y40266085D01*
X3216685Y40266091D01*
X3040517Y40375169D01*
X3040511Y40375172D01*
X2847296Y40450023D01*
X2847284Y40450027D01*
X2643609Y40488100D01*
X2643607Y40488100D01*
X2436393Y40488100D01*
X2436390Y40488100D01*
X2232715Y40450027D01*
X2232703Y40450023D01*
X2039488Y40375172D01*
X2039482Y40375169D01*
X1863314Y40266091D01*
X1863305Y40266085D01*
X1710173Y40126485D01*
X1585302Y39961129D01*
X1492936Y39775634D01*
X1492934Y39775629D01*
X1436229Y39576335D01*
X1436229Y39576334D01*
X1417110Y39370001D01*
X0Y39370001D01*
X0Y41910001D01*
X1417110Y41910001D01*
X1417110Y41910000D01*
X1436229Y41703667D01*
X1436229Y41703666D01*
X1477083Y41560081D01*
X1492936Y41504365D01*
X1585300Y41318875D01*
X1710174Y41153514D01*
X1801584Y41070182D01*
X1863305Y41013916D01*
X1863308Y41013914D01*
X2039485Y40904830D01*
X2232707Y40829976D01*
X2232711Y40829976D01*
X2232715Y40829974D01*
X2341601Y40809620D01*
X2436393Y40791900D01*
X2436394Y40791900D01*
X2643606Y40791900D01*
X2643607Y40791900D01*
X2778741Y40817162D01*
X2847284Y40829974D01*
X2847286Y40829975D01*
X2847293Y40829976D01*
X3040515Y40904830D01*
X3216692Y41013914D01*
X3369826Y41153514D01*
X3494700Y41318875D01*
X3587064Y41504365D01*
X3643771Y41703670D01*
X3662890Y41910000D01*
X3643771Y42116330D01*
X3633893Y42151046D01*
X3609198Y42237842D01*
X3587064Y42315635D01*
X3494700Y42501125D01*
X3369826Y42666486D01*
X3285837Y42743052D01*
X3216694Y42806085D01*
X3216685Y42806091D01*
X3040517Y42915169D01*
X3040511Y42915172D01*
X2847296Y42990023D01*
X2847284Y42990027D01*
X2643609Y43028100D01*
X2643607Y43028100D01*
X2436393Y43028100D01*
X2436390Y43028100D01*
X2232715Y42990027D01*
X2232703Y42990023D01*
X2039488Y42915172D01*
X2039482Y42915169D01*
X1863314Y42806091D01*
X1863305Y42806085D01*
X1710173Y42666485D01*
X1585302Y42501129D01*
X1585300Y42501126D01*
X1585300Y42501125D01*
X1500673Y42331171D01*
X1492936Y42315634D01*
X1492934Y42315629D01*
X1436229Y42116335D01*
X1436229Y42116334D01*
X1417110Y41910001D01*
X0Y41910001D01*
X0Y44450001D01*
X1417110Y44450001D01*
X1417110Y44450000D01*
X1436229Y44243667D01*
X1436229Y44243666D01*
X1492934Y44044372D01*
X1492936Y44044365D01*
X1585300Y43858875D01*
X1710174Y43693514D01*
X1801584Y43610182D01*
X1863305Y43553916D01*
X1863308Y43553914D01*
X2039485Y43444830D01*
X2232707Y43369976D01*
X2232711Y43369976D01*
X2232715Y43369974D01*
X2341601Y43349620D01*
X2436393Y43331900D01*
X2436394Y43331900D01*
X2643606Y43331900D01*
X2643607Y43331900D01*
X2778741Y43357162D01*
X2847284Y43369974D01*
X2847286Y43369975D01*
X2847293Y43369976D01*
X3040515Y43444830D01*
X3216692Y43553914D01*
X3369826Y43693514D01*
X3494700Y43858875D01*
X3587064Y44044365D01*
X3601660Y44095667D01*
X3636899Y44144379D01*
X3695210Y44159046D01*
X3748358Y44133764D01*
X4628305Y43253817D01*
X4653716Y43199323D01*
X4654050Y43191662D01*
X4654050Y32596899D01*
X4654050Y32490601D01*
X4694729Y32392393D01*
X5964729Y31122393D01*
X5964728Y31122393D01*
X6015993Y31071129D01*
X6039893Y31047229D01*
X6138101Y31006550D01*
X20164863Y31006550D01*
X20221364Y30985985D01*
X20251428Y30933914D01*
X20244820Y30882135D01*
X20193242Y30769196D01*
X20193240Y30769190D01*
X20174487Y30638754D01*
X20174487Y30638752D01*
X20174487Y30638750D01*
X20174615Y30637861D01*
X20178927Y30607869D01*
X20166611Y30549017D01*
X20154076Y30533206D01*
X18263643Y28642771D01*
X18263642Y28642772D01*
X18188480Y28567609D01*
X18188478Y28567607D01*
X18147800Y28469399D01*
X18147800Y15125769D01*
X18127235Y15069268D01*
X18091653Y15043805D01*
X17914488Y14975172D01*
X17914482Y14975169D01*
X17738314Y14866091D01*
X17738305Y14866085D01*
X17585173Y14726485D01*
X17460302Y14561129D01*
X17460300Y14561126D01*
X17460300Y14561125D01*
X17372433Y14384665D01*
X17367936Y14375634D01*
X17367934Y14375629D01*
X17311229Y14176335D01*
X17311229Y14176334D01*
X17292110Y13970001D01*
X17292110Y13970000D01*
X17311229Y13763667D01*
X17311229Y13763666D01*
X17358911Y13596085D01*
X17367936Y13564365D01*
X17460300Y13378875D01*
X17585174Y13213514D01*
X17676584Y13130182D01*
X17738305Y13073916D01*
X17738314Y13073910D01*
X17855759Y13001192D01*
X17914485Y12964830D01*
X18107707Y12889976D01*
X18107711Y12889976D01*
X18107715Y12889974D01*
X18216601Y12869620D01*
X18311393Y12851900D01*
X18311394Y12851900D01*
X18518606Y12851900D01*
X18518607Y12851900D01*
X18653741Y12877162D01*
X18722284Y12889974D01*
X18722286Y12889975D01*
X18722293Y12889976D01*
X18915515Y12964830D01*
X19091692Y13073914D01*
X19244826Y13213514D01*
X19369700Y13378875D01*
X19462064Y13564365D01*
X19517462Y13759070D01*
X19518770Y13763666D01*
X19518770Y13763667D01*
X19518769Y13763667D01*
X19518771Y13763670D01*
X19537890Y13970000D01*
X19537890Y13970001D01*
X19832110Y13970001D01*
X19832110Y13970000D01*
X19851229Y13763667D01*
X19851229Y13763666D01*
X19898911Y13596085D01*
X19907936Y13564365D01*
X20000300Y13378875D01*
X20125174Y13213514D01*
X20216584Y13130182D01*
X20278305Y13073916D01*
X20278314Y13073910D01*
X20395759Y13001192D01*
X20454485Y12964830D01*
X20647707Y12889976D01*
X20647711Y12889976D01*
X20647715Y12889974D01*
X20756601Y12869620D01*
X20851393Y12851900D01*
X20851394Y12851900D01*
X21058606Y12851900D01*
X21058607Y12851900D01*
X21193741Y12877162D01*
X21262284Y12889974D01*
X21262286Y12889975D01*
X21262293Y12889976D01*
X21455515Y12964830D01*
X21631692Y13073914D01*
X21784826Y13213514D01*
X21909700Y13378875D01*
X22002064Y13564365D01*
X22057462Y13759070D01*
X22058770Y13763666D01*
X22058770Y13763667D01*
X22058769Y13763667D01*
X22058771Y13763670D01*
X22077890Y13970000D01*
X22069652Y14058901D01*
X22355340Y14058901D01*
X22355341Y14058900D01*
X22992900Y14058900D01*
X22987000Y14036880D01*
X22987000Y13903120D01*
X22992900Y13881100D01*
X22355341Y13881100D01*
X22366648Y13759071D01*
X22366648Y13759070D01*
X22424616Y13555336D01*
X22519039Y13365709D01*
X22646691Y13196671D01*
X22646695Y13196667D01*
X22803235Y13053960D01*
X22803244Y13053954D01*
X22983333Y12942448D01*
X22983347Y12942442D01*
X23180859Y12865925D01*
X23180873Y12865921D01*
X23389080Y12827001D01*
X23389086Y12827000D01*
X23406099Y12827000D01*
X23406100Y12827001D01*
X23406100Y13467901D01*
X23428120Y13462000D01*
X23561880Y13462000D01*
X23583900Y13467901D01*
X23583900Y12827001D01*
X23583901Y12827000D01*
X23600914Y12827000D01*
X23600919Y12827001D01*
X23809126Y12865921D01*
X23809140Y12865925D01*
X24006652Y12942442D01*
X24006666Y12942448D01*
X24186755Y13053954D01*
X24186764Y13053960D01*
X24343304Y13196667D01*
X24343308Y13196671D01*
X24470960Y13365709D01*
X24565383Y13555336D01*
X24623351Y13759070D01*
X24623351Y13759071D01*
X24634659Y13881100D01*
X23997100Y13881100D01*
X24003000Y13903120D01*
X24003000Y14036880D01*
X23997100Y14058900D01*
X24634659Y14058900D01*
X24634659Y14058901D01*
X24623351Y14180930D01*
X24623351Y14180931D01*
X24565383Y14384665D01*
X24470960Y14574292D01*
X24343308Y14743330D01*
X24343304Y14743334D01*
X24186764Y14886041D01*
X24186755Y14886047D01*
X24006666Y14997553D01*
X24006652Y14997559D01*
X23809140Y15074076D01*
X23809126Y15074080D01*
X23600919Y15113000D01*
X23583901Y15113000D01*
X23583900Y15112999D01*
X23583900Y14472100D01*
X23561880Y14478000D01*
X23428120Y14478000D01*
X23406100Y14472100D01*
X23406100Y15112999D01*
X23406099Y15113000D01*
X23389080Y15113000D01*
X23180873Y15074080D01*
X23180859Y15074076D01*
X22983347Y14997559D01*
X22983333Y14997553D01*
X22803244Y14886047D01*
X22803235Y14886041D01*
X22646695Y14743334D01*
X22646691Y14743330D01*
X22519039Y14574292D01*
X22424616Y14384665D01*
X22366648Y14180931D01*
X22366648Y14180930D01*
X22355340Y14058901D01*
X22069652Y14058901D01*
X22058771Y14176330D01*
X22057462Y14180930D01*
X22028728Y14281920D01*
X22002064Y14375635D01*
X21909700Y14561125D01*
X21784826Y14726486D01*
X21700837Y14803052D01*
X21631694Y14866085D01*
X21631685Y14866091D01*
X21455517Y14975169D01*
X21455511Y14975172D01*
X21262296Y15050023D01*
X21262284Y15050027D01*
X21058609Y15088100D01*
X21058607Y15088100D01*
X20851393Y15088100D01*
X20851390Y15088100D01*
X20647715Y15050027D01*
X20647703Y15050023D01*
X20454488Y14975172D01*
X20454482Y14975169D01*
X20278314Y14866091D01*
X20278305Y14866085D01*
X20125173Y14726485D01*
X20000302Y14561129D01*
X20000300Y14561126D01*
X20000300Y14561125D01*
X19912433Y14384665D01*
X19907936Y14375634D01*
X19907934Y14375629D01*
X19851229Y14176335D01*
X19851229Y14176334D01*
X19832110Y13970001D01*
X19537890Y13970001D01*
X19518771Y14176330D01*
X19517462Y14180930D01*
X19488728Y14281920D01*
X19462064Y14375635D01*
X19369700Y14561125D01*
X19244826Y14726486D01*
X19160837Y14803052D01*
X19091694Y14866085D01*
X19091685Y14866091D01*
X18915517Y14975169D01*
X18915511Y14975172D01*
X18738347Y15043805D01*
X18693090Y15083391D01*
X18682200Y15125769D01*
X18682200Y19050001D01*
X49677110Y19050001D01*
X49677110Y19050000D01*
X49696229Y18843667D01*
X49696229Y18843666D01*
X49738231Y18696047D01*
X49752936Y18644365D01*
X49845300Y18458875D01*
X49970174Y18293514D01*
X50014198Y18253381D01*
X50123305Y18153916D01*
X50123308Y18153914D01*
X50299485Y18044830D01*
X50492707Y17969976D01*
X50492711Y17969976D01*
X50492715Y17969974D01*
X50601601Y17949620D01*
X50696393Y17931900D01*
X50696394Y17931900D01*
X50903606Y17931900D01*
X50903607Y17931900D01*
X51038741Y17957162D01*
X51107284Y17969974D01*
X51107286Y17969975D01*
X51107293Y17969976D01*
X51300515Y18044830D01*
X51476692Y18153914D01*
X51629826Y18293514D01*
X51754700Y18458875D01*
X51847064Y18644365D01*
X51903771Y18843670D01*
X51922890Y19050000D01*
X51903771Y19256330D01*
X51901637Y19263829D01*
X51863680Y19397235D01*
X51847064Y19455635D01*
X51754700Y19641125D01*
X51629826Y19806486D01*
X51545837Y19883052D01*
X51476694Y19946085D01*
X51476685Y19946091D01*
X51300517Y20055169D01*
X51300511Y20055172D01*
X51107296Y20130023D01*
X51107284Y20130027D01*
X50903609Y20168100D01*
X50903607Y20168100D01*
X50696393Y20168100D01*
X50696390Y20168100D01*
X50492715Y20130027D01*
X50492703Y20130023D01*
X50299488Y20055172D01*
X50299482Y20055169D01*
X50123314Y19946091D01*
X50123305Y19946085D01*
X49970173Y19806485D01*
X49845302Y19641129D01*
X49845300Y19641126D01*
X49845300Y19641125D01*
X49754353Y19458479D01*
X49752936Y19455634D01*
X49752934Y19455629D01*
X49696229Y19256335D01*
X49696229Y19256334D01*
X49677110Y19050001D01*
X18682200Y19050001D01*
X18682200Y22844555D01*
X18702765Y22901056D01*
X18754836Y22931120D01*
X18814050Y22920679D01*
X18832255Y22906710D01*
X20906249Y20832716D01*
X20991466Y20747499D01*
X21095835Y20687242D01*
X21212243Y20656050D01*
X27546145Y20656050D01*
X27554532Y20655450D01*
X27556606Y20655450D01*
X27688395Y20655450D01*
X27688395Y20655451D01*
X27769640Y20679307D01*
X27771606Y20679858D01*
X27799162Y20687241D01*
X27799163Y20687242D01*
X27799165Y20687242D01*
X27799166Y20687243D01*
X27800883Y20687954D01*
X27809760Y20691087D01*
X27814843Y20692579D01*
X27869988Y20728020D01*
X27873516Y20730170D01*
X27903534Y20747499D01*
X27903538Y20747504D01*
X27907951Y20750890D01*
X27917297Y20758423D01*
X27925709Y20763828D01*
X27961610Y20805263D01*
X27965860Y20809827D01*
X27988751Y20832716D01*
X27991242Y20837033D01*
X28000934Y20850644D01*
X28012011Y20863426D01*
X28031213Y20905475D01*
X28035019Y20912857D01*
X28049008Y20937085D01*
X28051875Y20947789D01*
X28056822Y20961549D01*
X28066758Y20983304D01*
X28072226Y21021342D01*
X28074324Y21031566D01*
X28080200Y21053493D01*
X28080200Y21070513D01*
X28081095Y21083023D01*
X28085513Y21113749D01*
X28085513Y21113752D01*
X28081095Y21144480D01*
X28080200Y21156989D01*
X28080200Y21174008D01*
X28074324Y21195937D01*
X28072225Y21206166D01*
X28066758Y21244196D01*
X28056820Y21265958D01*
X28051876Y21279711D01*
X28049008Y21290415D01*
X28035030Y21314626D01*
X28031201Y21322053D01*
X28012011Y21364073D01*
X28012011Y21364074D01*
X28000932Y21376860D01*
X27991246Y21390463D01*
X27988751Y21394784D01*
X27965865Y21417670D01*
X27961603Y21422248D01*
X27925709Y21463672D01*
X27925708Y21463673D01*
X27920959Y21467787D01*
X27923001Y21470145D01*
X27893649Y21508760D01*
X27889700Y21534811D01*
X27889700Y26205412D01*
X27910265Y26261913D01*
X27915445Y26267567D01*
X28704983Y27057105D01*
X28759477Y27082516D01*
X28767138Y27082850D01*
X30114188Y27082850D01*
X30170689Y27062285D01*
X30200753Y27010214D01*
X30195055Y26965581D01*
X30196263Y26965226D01*
X30194490Y26959190D01*
X30175737Y26828754D01*
X30175737Y26828747D01*
X30194490Y26698311D01*
X30194491Y26698306D01*
X30194492Y26698304D01*
X30249239Y26578426D01*
X30301512Y26518100D01*
X30335540Y26478829D01*
X30340292Y26474712D01*
X30338236Y26472340D01*
X30367574Y26433828D01*
X30371550Y26407690D01*
X30371550Y20741061D01*
X30350985Y20684560D01*
X30339750Y20674667D01*
X30340293Y20674040D01*
X30335542Y20669924D01*
X30249238Y20570323D01*
X30194492Y20450446D01*
X30194490Y20450440D01*
X30175737Y20320004D01*
X30175737Y20319997D01*
X30194490Y20189561D01*
X30194491Y20189556D01*
X30194492Y20189554D01*
X30229149Y20113667D01*
X30246070Y20076615D01*
X30250835Y20016677D01*
X30215958Y19967699D01*
X30166113Y19952200D01*
X29515838Y19952200D01*
X29459337Y19972765D01*
X29453683Y19977945D01*
X28867945Y20563683D01*
X28842534Y20618177D01*
X28842200Y20625838D01*
X28842200Y21486440D01*
X28862765Y21542941D01*
X28874003Y21552833D01*
X28873458Y21553462D01*
X28878204Y21557576D01*
X28878209Y21557578D01*
X28964511Y21657176D01*
X29019258Y21777054D01*
X29030440Y21854829D01*
X29038013Y21907497D01*
X29038013Y21907504D01*
X29019259Y22037940D01*
X29019258Y22037941D01*
X29019258Y22037946D01*
X28964511Y22157824D01*
X28964510Y22157825D01*
X28964510Y22157826D01*
X28921360Y22207623D01*
X28878209Y22257422D01*
X28878206Y22257424D01*
X28878205Y22257425D01*
X28767346Y22328670D01*
X28767343Y22328671D01*
X28742053Y22336097D01*
X28640898Y22365800D01*
X28640894Y22365800D01*
X28509106Y22365800D01*
X28509101Y22365800D01*
X28382657Y22328671D01*
X28382653Y22328670D01*
X28271794Y22257425D01*
X28271789Y22257420D01*
X28185489Y22157826D01*
X28130742Y22037946D01*
X28130740Y22037940D01*
X28111987Y21907504D01*
X28111987Y21907497D01*
X28130740Y21777061D01*
X28130741Y21777056D01*
X28130742Y21777054D01*
X28185489Y21657176D01*
X28243697Y21590000D01*
X28271790Y21557579D01*
X28276542Y21553462D01*
X28274486Y21551090D01*
X28303824Y21512578D01*
X28307800Y21486440D01*
X28307800Y20531899D01*
X28307800Y20425601D01*
X28348479Y20327393D01*
X29217393Y19458479D01*
X29315601Y19417800D01*
X29421899Y19417800D01*
X32287470Y19417800D01*
X32343971Y19397235D01*
X32353900Y19387462D01*
X32399291Y19335078D01*
X32399293Y19335077D01*
X32399294Y19335076D01*
X32510153Y19263831D01*
X32510154Y19263831D01*
X32510157Y19263829D01*
X32591399Y19239974D01*
X32636601Y19226701D01*
X32636604Y19226701D01*
X32636606Y19226700D01*
X32636607Y19226700D01*
X32768393Y19226700D01*
X32768394Y19226700D01*
X32768396Y19226701D01*
X32768398Y19226701D01*
X32783427Y19231115D01*
X32894843Y19263829D01*
X33005709Y19335078D01*
X33092011Y19434676D01*
X33146758Y19554554D01*
X33159205Y19641125D01*
X33165513Y19684997D01*
X33165513Y19685004D01*
X33146759Y19815440D01*
X33146758Y19815441D01*
X33146758Y19815446D01*
X33092011Y19935324D01*
X33092010Y19935325D01*
X33092010Y19935326D01*
X33021518Y20016677D01*
X33005709Y20034922D01*
X33005706Y20034924D01*
X33005705Y20034925D01*
X32894846Y20106170D01*
X32894843Y20106171D01*
X32869304Y20113670D01*
X32768398Y20143300D01*
X32768394Y20143300D01*
X32636606Y20143300D01*
X32636601Y20143300D01*
X32510157Y20106171D01*
X32510153Y20106170D01*
X32399294Y20034925D01*
X32399289Y20034920D01*
X32353900Y19982538D01*
X32301358Y19953304D01*
X32287470Y19952200D01*
X31111387Y19952200D01*
X31054886Y19972765D01*
X31024822Y20024836D01*
X31031430Y20076615D01*
X31044928Y20106171D01*
X31083008Y20189554D01*
X31101763Y20320000D01*
X31101763Y20320001D01*
X31101763Y20320004D01*
X31083009Y20450440D01*
X31083008Y20450441D01*
X31083008Y20450446D01*
X31028261Y20570324D01*
X30941959Y20669922D01*
X30941958Y20669923D01*
X30941957Y20669924D01*
X30937207Y20674040D01*
X30939255Y20676405D01*
X30909912Y20714969D01*
X30905950Y20741061D01*
X30905950Y21590001D01*
X49677110Y21590001D01*
X49677110Y21590000D01*
X49696229Y21383667D01*
X49696229Y21383666D01*
X49743911Y21216085D01*
X49752936Y21184365D01*
X49845300Y20998875D01*
X49845301Y20998874D01*
X49845302Y20998872D01*
X49857059Y20983303D01*
X49970174Y20833514D01*
X50001184Y20805245D01*
X50123305Y20693916D01*
X50123314Y20693910D01*
X50233255Y20625838D01*
X50299485Y20584830D01*
X50492707Y20509976D01*
X50492711Y20509976D01*
X50492715Y20509974D01*
X50601601Y20489620D01*
X50696393Y20471900D01*
X50696394Y20471900D01*
X50903606Y20471900D01*
X50903607Y20471900D01*
X51038741Y20497162D01*
X51107284Y20509974D01*
X51107286Y20509975D01*
X51107293Y20509976D01*
X51300515Y20584830D01*
X51476692Y20693914D01*
X51629826Y20833514D01*
X51754700Y20998875D01*
X51847064Y21184365D01*
X51898195Y21364073D01*
X51903770Y21383666D01*
X51903770Y21383667D01*
X51903769Y21383667D01*
X51903771Y21383670D01*
X51922890Y21590000D01*
X51903771Y21796330D01*
X51847064Y21995635D01*
X51754700Y22181125D01*
X51629826Y22346486D01*
X51545837Y22423052D01*
X51476694Y22486085D01*
X51476685Y22486091D01*
X51300517Y22595169D01*
X51300511Y22595172D01*
X51107296Y22670023D01*
X51107284Y22670027D01*
X50903609Y22708100D01*
X50903607Y22708100D01*
X50696393Y22708100D01*
X50696390Y22708100D01*
X50492715Y22670027D01*
X50492703Y22670023D01*
X50299488Y22595172D01*
X50299482Y22595169D01*
X50123314Y22486091D01*
X50123305Y22486085D01*
X49970173Y22346485D01*
X49845302Y22181129D01*
X49752936Y21995634D01*
X49752934Y21995629D01*
X49696229Y21796335D01*
X49696229Y21796334D01*
X49677110Y21590001D01*
X30905950Y21590001D01*
X30905950Y24130001D01*
X49677110Y24130001D01*
X49677110Y24130000D01*
X49696229Y23923667D01*
X49696229Y23923666D01*
X49743911Y23756085D01*
X49752936Y23724365D01*
X49845300Y23538875D01*
X49970174Y23373514D01*
X50061584Y23290182D01*
X50123305Y23233916D01*
X50123308Y23233914D01*
X50299485Y23124830D01*
X50492707Y23049976D01*
X50492711Y23049976D01*
X50492715Y23049974D01*
X50598969Y23030112D01*
X50696393Y23011900D01*
X50696394Y23011900D01*
X50903606Y23011900D01*
X50903607Y23011900D01*
X51038741Y23037162D01*
X51107284Y23049974D01*
X51107286Y23049975D01*
X51107293Y23049976D01*
X51300515Y23124830D01*
X51476692Y23233914D01*
X51629826Y23373514D01*
X51754700Y23538875D01*
X51847064Y23724365D01*
X51903771Y23923670D01*
X51922890Y24130000D01*
X51903771Y24336330D01*
X51847064Y24535635D01*
X51754700Y24721125D01*
X51629826Y24886486D01*
X51545837Y24963052D01*
X51476694Y25026085D01*
X51476685Y25026091D01*
X51300517Y25135169D01*
X51300511Y25135172D01*
X51107296Y25210023D01*
X51107284Y25210027D01*
X50903609Y25248100D01*
X50903607Y25248100D01*
X50696393Y25248100D01*
X50696390Y25248100D01*
X50492715Y25210027D01*
X50492703Y25210023D01*
X50299488Y25135172D01*
X50299482Y25135169D01*
X50123314Y25026091D01*
X50123305Y25026085D01*
X49970173Y24886485D01*
X49845302Y24721129D01*
X49752936Y24535634D01*
X49752934Y24535629D01*
X49696229Y24336335D01*
X49696229Y24336334D01*
X49677110Y24130001D01*
X30905950Y24130001D01*
X30905950Y26407690D01*
X30926515Y26464191D01*
X30937753Y26474083D01*
X30937208Y26474712D01*
X30941954Y26478826D01*
X30941959Y26478828D01*
X31028261Y26578426D01*
X31083008Y26698304D01*
X31093844Y26773671D01*
X31101763Y26828747D01*
X31101763Y26828754D01*
X31083009Y26959190D01*
X31083008Y26959191D01*
X31083008Y26959196D01*
X31083005Y26959201D01*
X31081237Y26965226D01*
X31082780Y26965680D01*
X31078589Y27018370D01*
X31113465Y27067349D01*
X31163312Y27082850D01*
X32351612Y27082850D01*
X32408113Y27062285D01*
X32413767Y27057105D01*
X33979893Y25490979D01*
X34078101Y25450300D01*
X34078102Y25450300D01*
X42756898Y25450300D01*
X42756899Y25450300D01*
X42855107Y25490979D01*
X43292221Y25928093D01*
X43332900Y26026301D01*
X43332900Y26132599D01*
X43332900Y26670001D01*
X49677110Y26670001D01*
X49677110Y26670000D01*
X49696229Y26463667D01*
X49696229Y26463666D01*
X49743911Y26296085D01*
X49752936Y26264365D01*
X49845300Y26078875D01*
X49970174Y25913514D01*
X50061584Y25830182D01*
X50123305Y25773916D01*
X50123308Y25773914D01*
X50299485Y25664830D01*
X50492707Y25589976D01*
X50492711Y25589976D01*
X50492715Y25589974D01*
X50601601Y25569620D01*
X50696393Y25551900D01*
X50696394Y25551900D01*
X50903606Y25551900D01*
X50903607Y25551900D01*
X51038741Y25577162D01*
X51107284Y25589974D01*
X51107286Y25589975D01*
X51107293Y25589976D01*
X51300515Y25664830D01*
X51476692Y25773914D01*
X51629826Y25913514D01*
X51754700Y26078875D01*
X51847064Y26264365D01*
X51903771Y26463670D01*
X51922890Y26670000D01*
X51903771Y26876330D01*
X51847064Y27075635D01*
X51754700Y27261125D01*
X51629826Y27426486D01*
X51545837Y27503052D01*
X51476694Y27566085D01*
X51476685Y27566091D01*
X51300517Y27675169D01*
X51300511Y27675172D01*
X51107296Y27750023D01*
X51107284Y27750027D01*
X50903609Y27788100D01*
X50903607Y27788100D01*
X50696393Y27788100D01*
X50696390Y27788100D01*
X50492715Y27750027D01*
X50492703Y27750023D01*
X50299488Y27675172D01*
X50299482Y27675169D01*
X50123314Y27566091D01*
X50123305Y27566085D01*
X49970173Y27426485D01*
X49845302Y27261129D01*
X49845300Y27261126D01*
X49845300Y27261125D01*
X49754649Y27079074D01*
X49752936Y27075634D01*
X49752934Y27075629D01*
X49696229Y26876335D01*
X49696229Y26876334D01*
X49677110Y26670001D01*
X43332900Y26670001D01*
X43332900Y27039099D01*
X43353465Y27095600D01*
X43405536Y27125664D01*
X43412197Y27126577D01*
X43413451Y27126701D01*
X43413460Y27126701D01*
X43413469Y27126703D01*
X43413471Y27126703D01*
X43465465Y27137044D01*
X43465466Y27137044D01*
X43465466Y27137045D01*
X43465469Y27137045D01*
X43524447Y27176453D01*
X43563855Y27235431D01*
X43574200Y27287439D01*
X43574199Y28592560D01*
X43574199Y28592561D01*
X43574199Y28592564D01*
X43574198Y28592566D01*
X43563856Y28644566D01*
X43563856Y28644567D01*
X43563855Y28644569D01*
X43524447Y28703547D01*
X43465469Y28742955D01*
X43413461Y28753300D01*
X43413459Y28753300D01*
X42717936Y28753300D01*
X42717934Y28753299D01*
X42665934Y28742957D01*
X42665933Y28742957D01*
X42625797Y28716139D01*
X42606955Y28703548D01*
X42599755Y28698737D01*
X42598960Y28699927D01*
X42552661Y28678337D01*
X42494583Y28693900D01*
X42483233Y28703422D01*
X42483047Y28703546D01*
X42483047Y28703547D01*
X42424069Y28742955D01*
X42372061Y28753300D01*
X42372059Y28753300D01*
X41676536Y28753300D01*
X41676534Y28753299D01*
X41624534Y28742957D01*
X41624533Y28742957D01*
X41565554Y28703548D01*
X41565553Y28703547D01*
X41526145Y28644569D01*
X41516151Y28594323D01*
X41515800Y28592560D01*
X41515800Y27287437D01*
X41515801Y27287435D01*
X41526143Y27235435D01*
X41526143Y27235434D01*
X41526144Y27235432D01*
X41526145Y27235431D01*
X41565553Y27176453D01*
X41624531Y27137045D01*
X41676539Y27126700D01*
X41676545Y27126701D01*
X41677800Y27126576D01*
X41678253Y27126359D01*
X41680775Y27125857D01*
X41680646Y27125212D01*
X41732018Y27100582D01*
X41756843Y27045819D01*
X41757100Y27039098D01*
X41757100Y26897282D01*
X41736535Y26840781D01*
X41690850Y26814405D01*
X41691389Y26812572D01*
X41558907Y26773671D01*
X41558903Y26773670D01*
X41448044Y26702425D01*
X41448039Y26702420D01*
X41361739Y26602826D01*
X41306992Y26482946D01*
X41306990Y26482940D01*
X41288237Y26352504D01*
X41288237Y26352497D01*
X41306990Y26222061D01*
X41306991Y26222056D01*
X41306992Y26222054D01*
X41330748Y26170037D01*
X41358570Y26109115D01*
X41363335Y26049177D01*
X41328458Y26000199D01*
X41278613Y25984700D01*
X34278338Y25984700D01*
X34221837Y26005265D01*
X34216183Y26010445D01*
X33452957Y26773671D01*
X32650057Y27576571D01*
X32650055Y27576572D01*
X32650056Y27576572D01*
X32577319Y27606700D01*
X32551849Y27617250D01*
X28673199Y27617250D01*
X28566901Y27617250D01*
X28541431Y27606700D01*
X28468694Y27576572D01*
X27471143Y26579021D01*
X27471142Y26579022D01*
X27395980Y26503859D01*
X27395978Y26503857D01*
X27355300Y26405649D01*
X27355300Y21659350D01*
X27334735Y21602849D01*
X27282664Y21572785D01*
X27267400Y21571450D01*
X21498495Y21571450D01*
X21441994Y21592015D01*
X21436340Y21597195D01*
X19393358Y23640178D01*
X19389083Y23644771D01*
X19353209Y23686172D01*
X19353206Y23686174D01*
X19353205Y23686175D01*
X19344805Y23691573D01*
X19335380Y23699167D01*
X19331038Y23702499D01*
X19331035Y23702501D01*
X19300998Y23719843D01*
X19297463Y23721997D01*
X19244422Y23756085D01*
X19242342Y23757422D01*
X19237269Y23758911D01*
X19228402Y23762039D01*
X19226666Y23762758D01*
X19199127Y23770138D01*
X19197117Y23770702D01*
X19115896Y23794550D01*
X19115894Y23794550D01*
X18984106Y23794550D01*
X18984103Y23794550D01*
X18902891Y23770705D01*
X18900883Y23770141D01*
X18873326Y23762756D01*
X18871586Y23762035D01*
X18862736Y23758914D01*
X18857664Y23757425D01*
X18857655Y23757421D01*
X18817621Y23731693D01*
X18758971Y23718447D01*
X18705528Y23746000D01*
X18682299Y23801459D01*
X18682200Y23805640D01*
X18682200Y28269163D01*
X18702765Y28325664D01*
X18707934Y28331307D01*
X20531332Y30154706D01*
X20585826Y30180116D01*
X20593487Y30180450D01*
X20703393Y30180450D01*
X20703394Y30180450D01*
X20703396Y30180451D01*
X20703398Y30180451D01*
X20718427Y30184865D01*
X20829843Y30217579D01*
X20940709Y30288828D01*
X21027011Y30388426D01*
X21081758Y30508304D01*
X21089552Y30562513D01*
X21117947Y30615513D01*
X21173767Y30637861D01*
X21230892Y30619100D01*
X21238712Y30612160D01*
X23202055Y28648817D01*
X23227466Y28594323D01*
X23227800Y28586662D01*
X23227800Y23916061D01*
X23207235Y23859560D01*
X23196000Y23849667D01*
X23196543Y23849040D01*
X23191792Y23844924D01*
X23105488Y23745323D01*
X23050742Y23625446D01*
X23050740Y23625440D01*
X23031987Y23495004D01*
X23031987Y23494997D01*
X23050740Y23364561D01*
X23050742Y23364555D01*
X23105489Y23244675D01*
X23156497Y23185809D01*
X23191791Y23145078D01*
X23191793Y23145077D01*
X23191794Y23145076D01*
X23302653Y23073831D01*
X23302654Y23073831D01*
X23302657Y23073829D01*
X23383899Y23049974D01*
X23429101Y23036701D01*
X23429104Y23036701D01*
X23429106Y23036700D01*
X23429107Y23036700D01*
X23560893Y23036700D01*
X23560894Y23036700D01*
X23560896Y23036701D01*
X23560898Y23036701D01*
X23575927Y23041115D01*
X23687343Y23073829D01*
X23798209Y23145078D01*
X23884511Y23244676D01*
X23939258Y23364554D01*
X23951705Y23451125D01*
X23958013Y23494997D01*
X23958013Y23495004D01*
X23939259Y23625440D01*
X23939258Y23625441D01*
X23939258Y23625446D01*
X23884511Y23745324D01*
X23798209Y23844922D01*
X23798208Y23844923D01*
X23798207Y23844924D01*
X23793457Y23849040D01*
X23795505Y23851405D01*
X23766162Y23889969D01*
X23762200Y23916061D01*
X23762200Y28786898D01*
X23762200Y28786899D01*
X23721521Y28885107D01*
X23721519Y28885109D01*
X23646357Y28960272D01*
X23646357Y28960271D01*
X23237874Y29368754D01*
X25571987Y29368754D01*
X25571987Y29368747D01*
X25590740Y29238311D01*
X25590741Y29238306D01*
X25590742Y29238304D01*
X25645489Y29118426D01*
X25697762Y29058100D01*
X25731792Y29018827D01*
X25735859Y29016214D01*
X25740118Y29013477D01*
X25776534Y28965632D01*
X25780500Y28939528D01*
X25780500Y27416723D01*
X25759935Y27360222D01*
X25740124Y27342778D01*
X25731792Y27337424D01*
X25645488Y27237823D01*
X25590742Y27117946D01*
X25590740Y27117940D01*
X25571987Y26987504D01*
X25571987Y26987497D01*
X25590740Y26857061D01*
X25590741Y26857056D01*
X25590742Y26857054D01*
X25611866Y26810800D01*
X25645489Y26737175D01*
X25696160Y26678699D01*
X25731791Y26637578D01*
X25731793Y26637577D01*
X25731794Y26637576D01*
X25842653Y26566331D01*
X25842654Y26566331D01*
X25842657Y26566329D01*
X25928782Y26541041D01*
X25969101Y26529201D01*
X25969104Y26529201D01*
X25969106Y26529200D01*
X25969107Y26529200D01*
X26100893Y26529200D01*
X26100894Y26529200D01*
X26100896Y26529201D01*
X26100898Y26529201D01*
X26115927Y26533615D01*
X26227343Y26566329D01*
X26338209Y26637578D01*
X26424511Y26737176D01*
X26479258Y26857054D01*
X26490440Y26934829D01*
X26498013Y26987497D01*
X26498013Y26987504D01*
X26479259Y27117940D01*
X26479258Y27117941D01*
X26479258Y27117946D01*
X26424511Y27237824D01*
X26338209Y27337422D01*
X26338208Y27337423D01*
X26338207Y27337424D01*
X26329876Y27342778D01*
X26293464Y27390625D01*
X26289500Y27416723D01*
X26289500Y28939528D01*
X26310065Y28996029D01*
X26329880Y29013476D01*
X26338209Y29018828D01*
X26424511Y29118426D01*
X26466332Y29210001D01*
X49677110Y29210001D01*
X49677110Y29210000D01*
X49696229Y29003667D01*
X49696229Y29003666D01*
X49743911Y28836085D01*
X49752936Y28804365D01*
X49845300Y28618875D01*
X49845301Y28618874D01*
X49845302Y28618872D01*
X49865169Y28592564D01*
X49970174Y28453514D01*
X50061584Y28370182D01*
X50123305Y28313916D01*
X50123314Y28313910D01*
X50188902Y28273300D01*
X50299485Y28204830D01*
X50492707Y28129976D01*
X50492711Y28129976D01*
X50492715Y28129974D01*
X50601601Y28109620D01*
X50696393Y28091900D01*
X50696394Y28091900D01*
X50903606Y28091900D01*
X50903607Y28091900D01*
X51038741Y28117162D01*
X51107284Y28129974D01*
X51107286Y28129975D01*
X51107293Y28129976D01*
X51300515Y28204830D01*
X51476692Y28313914D01*
X51629826Y28453514D01*
X51754700Y28618875D01*
X51847064Y28804365D01*
X51903771Y29003670D01*
X51922890Y29210000D01*
X51903771Y29416330D01*
X51847064Y29615635D01*
X51754700Y29801125D01*
X51629826Y29966486D01*
X51545837Y30043052D01*
X51476694Y30106085D01*
X51476685Y30106091D01*
X51300517Y30215169D01*
X51300511Y30215172D01*
X51107296Y30290023D01*
X51107284Y30290027D01*
X50903609Y30328100D01*
X50903607Y30328100D01*
X50696393Y30328100D01*
X50696390Y30328100D01*
X50492715Y30290027D01*
X50492703Y30290023D01*
X50299488Y30215172D01*
X50299482Y30215169D01*
X50123314Y30106091D01*
X50123305Y30106085D01*
X49970173Y29966485D01*
X49845302Y29801129D01*
X49845300Y29801126D01*
X49845300Y29801125D01*
X49754649Y29619074D01*
X49752936Y29615634D01*
X49752934Y29615629D01*
X49696229Y29416335D01*
X49696229Y29416334D01*
X49677110Y29210001D01*
X26466332Y29210001D01*
X26479258Y29238304D01*
X26479534Y29240228D01*
X26498013Y29368747D01*
X26498013Y29368754D01*
X26479259Y29499190D01*
X26479258Y29499191D01*
X26479258Y29499196D01*
X26424511Y29619074D01*
X26424510Y29619075D01*
X26424510Y29619076D01*
X26381360Y29668873D01*
X26338209Y29718672D01*
X26338206Y29718674D01*
X26338205Y29718675D01*
X26227346Y29789920D01*
X26227343Y29789921D01*
X26189186Y29801125D01*
X26100898Y29827050D01*
X26100894Y29827050D01*
X25969106Y29827050D01*
X25969101Y29827050D01*
X25842657Y29789921D01*
X25842653Y29789920D01*
X25731794Y29718675D01*
X25731789Y29718670D01*
X25645489Y29619076D01*
X25590742Y29499196D01*
X25590740Y29499190D01*
X25571987Y29368754D01*
X23237874Y29368754D01*
X21106357Y31500271D01*
X21008149Y31540950D01*
X21008148Y31540950D01*
X6338338Y31540950D01*
X6281837Y31561515D01*
X6276183Y31566695D01*
X6003977Y31838901D01*
X49660340Y31838901D01*
X49660341Y31838900D01*
X50297900Y31838900D01*
X50292000Y31816880D01*
X50292000Y31683120D01*
X50297900Y31661100D01*
X49660341Y31661100D01*
X49671648Y31539071D01*
X49671648Y31539070D01*
X49729616Y31335336D01*
X49824039Y31145709D01*
X49951691Y30976671D01*
X49951695Y30976667D01*
X50108235Y30833960D01*
X50108244Y30833954D01*
X50288333Y30722448D01*
X50288347Y30722442D01*
X50485859Y30645925D01*
X50485873Y30645921D01*
X50694080Y30607001D01*
X50694086Y30607000D01*
X50711099Y30607000D01*
X50711100Y30607001D01*
X50711100Y31247901D01*
X50733120Y31242000D01*
X50866880Y31242000D01*
X50888900Y31247901D01*
X50888900Y30607001D01*
X50888901Y30607000D01*
X50905914Y30607000D01*
X50905919Y30607001D01*
X51114126Y30645921D01*
X51114140Y30645925D01*
X51311652Y30722442D01*
X51311666Y30722448D01*
X51491755Y30833954D01*
X51491764Y30833960D01*
X51648304Y30976667D01*
X51648308Y30976671D01*
X51775960Y31145709D01*
X51870383Y31335336D01*
X51928351Y31539070D01*
X51928351Y31539071D01*
X51939659Y31661100D01*
X51302100Y31661100D01*
X51308000Y31683120D01*
X51308000Y31816880D01*
X51302100Y31838900D01*
X51939659Y31838900D01*
X51939659Y31838901D01*
X51928351Y31960930D01*
X51928351Y31960931D01*
X51870383Y32164665D01*
X51775960Y32354292D01*
X51648308Y32523330D01*
X51648304Y32523334D01*
X51491764Y32666041D01*
X51491755Y32666047D01*
X51311666Y32777553D01*
X51311652Y32777559D01*
X51114140Y32854076D01*
X51114126Y32854080D01*
X50905919Y32893000D01*
X50888901Y32893000D01*
X50888900Y32892999D01*
X50888900Y32252100D01*
X50866880Y32258000D01*
X50733120Y32258000D01*
X50711100Y32252100D01*
X50711100Y32892999D01*
X50711099Y32893000D01*
X50694080Y32893000D01*
X50485873Y32854080D01*
X50485859Y32854076D01*
X50288347Y32777559D01*
X50288333Y32777553D01*
X50108244Y32666047D01*
X50108235Y32666041D01*
X49951695Y32523334D01*
X49951691Y32523330D01*
X49824039Y32354292D01*
X49729616Y32164665D01*
X49671648Y31960931D01*
X49671648Y31960930D01*
X49660340Y31838901D01*
X6003977Y31838901D01*
X5214195Y32628683D01*
X5188784Y32683177D01*
X5188450Y32690838D01*
X5188450Y34378901D01*
X49660340Y34378901D01*
X49660341Y34378900D01*
X50297900Y34378900D01*
X50292000Y34356880D01*
X50292000Y34223120D01*
X50297900Y34201100D01*
X49660341Y34201100D01*
X49671648Y34079071D01*
X49671648Y34079070D01*
X49729616Y33875336D01*
X49824039Y33685709D01*
X49951691Y33516671D01*
X49951695Y33516667D01*
X50108235Y33373960D01*
X50108244Y33373954D01*
X50288333Y33262448D01*
X50288347Y33262442D01*
X50485859Y33185925D01*
X50485873Y33185921D01*
X50694080Y33147001D01*
X50694086Y33147000D01*
X50711099Y33147000D01*
X50711100Y33147001D01*
X50711100Y33787901D01*
X50733120Y33782000D01*
X50866880Y33782000D01*
X50888900Y33787901D01*
X50888900Y33147001D01*
X50888901Y33147000D01*
X50905914Y33147000D01*
X50905919Y33147001D01*
X51114126Y33185921D01*
X51114140Y33185925D01*
X51311652Y33262442D01*
X51311666Y33262448D01*
X51491755Y33373954D01*
X51491764Y33373960D01*
X51648304Y33516667D01*
X51648308Y33516671D01*
X51775960Y33685709D01*
X51870383Y33875336D01*
X51928351Y34079070D01*
X51928351Y34079071D01*
X51939659Y34201100D01*
X51302100Y34201100D01*
X51308000Y34223120D01*
X51308000Y34356880D01*
X51302100Y34378900D01*
X51939659Y34378900D01*
X51939659Y34378901D01*
X51928351Y34500930D01*
X51928351Y34500931D01*
X51870383Y34704665D01*
X51775960Y34894292D01*
X51648308Y35063330D01*
X51648304Y35063334D01*
X51491764Y35206041D01*
X51491755Y35206047D01*
X51311666Y35317553D01*
X51311652Y35317559D01*
X51114140Y35394076D01*
X51114126Y35394080D01*
X50905919Y35433000D01*
X50888901Y35433000D01*
X50888900Y35432999D01*
X50888900Y34792100D01*
X50866880Y34798000D01*
X50733120Y34798000D01*
X50711100Y34792100D01*
X50711100Y35432999D01*
X50711099Y35433000D01*
X50694080Y35433000D01*
X50485873Y35394080D01*
X50485859Y35394076D01*
X50288347Y35317559D01*
X50288333Y35317553D01*
X50108244Y35206047D01*
X50108235Y35206041D01*
X49951695Y35063334D01*
X49951691Y35063330D01*
X49824039Y34894292D01*
X49729616Y34704665D01*
X49671648Y34500931D01*
X49671648Y34500930D01*
X49660340Y34378901D01*
X5188450Y34378901D01*
X5188450Y36830001D01*
X49677110Y36830001D01*
X49677110Y36830000D01*
X49696229Y36623667D01*
X49696229Y36623666D01*
X49752934Y36424372D01*
X49752936Y36424365D01*
X49845300Y36238875D01*
X49970174Y36073514D01*
X50061584Y35990182D01*
X50123305Y35933916D01*
X50123308Y35933914D01*
X50299485Y35824830D01*
X50492707Y35749976D01*
X50492711Y35749976D01*
X50492715Y35749974D01*
X50601601Y35729620D01*
X50696393Y35711900D01*
X50696394Y35711900D01*
X50903606Y35711900D01*
X50903607Y35711900D01*
X51038741Y35737162D01*
X51107284Y35749974D01*
X51107286Y35749975D01*
X51107293Y35749976D01*
X51300515Y35824830D01*
X51476692Y35933914D01*
X51629826Y36073514D01*
X51754700Y36238875D01*
X51847064Y36424365D01*
X51903771Y36623670D01*
X51922890Y36830000D01*
X51903771Y37036330D01*
X51847064Y37235635D01*
X51754700Y37421125D01*
X51629826Y37586486D01*
X51545837Y37663052D01*
X51476694Y37726085D01*
X51476685Y37726091D01*
X51300517Y37835169D01*
X51300511Y37835172D01*
X51107296Y37910023D01*
X51107284Y37910027D01*
X50903609Y37948100D01*
X50903607Y37948100D01*
X50696393Y37948100D01*
X50696390Y37948100D01*
X50492715Y37910027D01*
X50492703Y37910023D01*
X50299488Y37835172D01*
X50299482Y37835169D01*
X50123314Y37726091D01*
X50123305Y37726085D01*
X49970173Y37586485D01*
X49845302Y37421129D01*
X49752936Y37235634D01*
X49752934Y37235629D01*
X49696229Y37036335D01*
X49696229Y37036334D01*
X49677110Y36830001D01*
X5188450Y36830001D01*
X5188450Y41582159D01*
X5209015Y41638660D01*
X5261086Y41668724D01*
X5320300Y41658283D01*
X5342780Y41639721D01*
X5411791Y41560078D01*
X5411793Y41560077D01*
X5411794Y41560076D01*
X5522653Y41488831D01*
X5522654Y41488831D01*
X5522657Y41488829D01*
X5608782Y41463541D01*
X5649101Y41451701D01*
X5649104Y41451701D01*
X5649106Y41451700D01*
X5649107Y41451700D01*
X5780893Y41451700D01*
X5780894Y41451700D01*
X5780896Y41451701D01*
X5780898Y41451701D01*
X5795927Y41456115D01*
X5907343Y41488829D01*
X6018209Y41560078D01*
X6104511Y41659676D01*
X6159258Y41779554D01*
X6178013Y41910000D01*
X6178013Y41910001D01*
X49677110Y41910001D01*
X49677110Y41910000D01*
X49696229Y41703667D01*
X49696229Y41703666D01*
X49737083Y41560081D01*
X49752936Y41504365D01*
X49845300Y41318875D01*
X49970174Y41153514D01*
X50061584Y41070182D01*
X50123305Y41013916D01*
X50123308Y41013914D01*
X50299485Y40904830D01*
X50492707Y40829976D01*
X50492711Y40829976D01*
X50492715Y40829974D01*
X50601601Y40809620D01*
X50696393Y40791900D01*
X50696394Y40791900D01*
X50903606Y40791900D01*
X50903607Y40791900D01*
X51038741Y40817162D01*
X51107284Y40829974D01*
X51107286Y40829975D01*
X51107293Y40829976D01*
X51300515Y40904830D01*
X51476692Y41013914D01*
X51629826Y41153514D01*
X51754700Y41318875D01*
X51847064Y41504365D01*
X51903771Y41703670D01*
X51922890Y41910000D01*
X51903771Y42116330D01*
X51893893Y42151046D01*
X51869198Y42237842D01*
X51847064Y42315635D01*
X51754700Y42501125D01*
X51629826Y42666486D01*
X51545837Y42743052D01*
X51476694Y42806085D01*
X51476685Y42806091D01*
X51300517Y42915169D01*
X51300511Y42915172D01*
X51107296Y42990023D01*
X51107284Y42990027D01*
X50903609Y43028100D01*
X50903607Y43028100D01*
X50696393Y43028100D01*
X50696390Y43028100D01*
X50492715Y42990027D01*
X50492703Y42990023D01*
X50299488Y42915172D01*
X50299482Y42915169D01*
X50123314Y42806091D01*
X50123305Y42806085D01*
X49970173Y42666485D01*
X49845302Y42501129D01*
X49845300Y42501126D01*
X49845300Y42501125D01*
X49760673Y42331171D01*
X49752936Y42315634D01*
X49752934Y42315629D01*
X49696229Y42116335D01*
X49696229Y42116334D01*
X49677110Y41910001D01*
X6178013Y41910001D01*
X6173573Y41940882D01*
X6185887Y41999735D01*
X6198419Y42015543D01*
X8632877Y44450001D01*
X49677110Y44450001D01*
X49677110Y44450000D01*
X49696229Y44243667D01*
X49696229Y44243666D01*
X49752934Y44044372D01*
X49752936Y44044365D01*
X49845300Y43858875D01*
X49970174Y43693514D01*
X50061584Y43610182D01*
X50123305Y43553916D01*
X50123308Y43553914D01*
X50299485Y43444830D01*
X50492707Y43369976D01*
X50492711Y43369976D01*
X50492715Y43369974D01*
X50601601Y43349620D01*
X50696393Y43331900D01*
X50696394Y43331900D01*
X50903606Y43331900D01*
X50903607Y43331900D01*
X51038741Y43357162D01*
X51107284Y43369974D01*
X51107286Y43369975D01*
X51107293Y43369976D01*
X51300515Y43444830D01*
X51476692Y43553914D01*
X51629826Y43693514D01*
X51754700Y43858875D01*
X51847064Y44044365D01*
X51903771Y44243670D01*
X51922890Y44450000D01*
X51903771Y44656330D01*
X51847064Y44855635D01*
X51754700Y45041125D01*
X51629826Y45206486D01*
X51545837Y45283052D01*
X51476694Y45346085D01*
X51476685Y45346091D01*
X51300517Y45455169D01*
X51300511Y45455172D01*
X51107296Y45530023D01*
X51107284Y45530027D01*
X50903609Y45568100D01*
X50903607Y45568100D01*
X50696393Y45568100D01*
X50696390Y45568100D01*
X50492715Y45530027D01*
X50492703Y45530023D01*
X50299488Y45455172D01*
X50299482Y45455169D01*
X50123314Y45346091D01*
X50123305Y45346085D01*
X49970173Y45206485D01*
X49845302Y45041129D01*
X49752936Y44855634D01*
X49752934Y44855629D01*
X49696229Y44656335D01*
X49696229Y44656334D01*
X49677110Y44450001D01*
X8632877Y44450001D01*
X11172878Y46990001D01*
X49677110Y46990001D01*
X49677110Y46990000D01*
X49696229Y46783667D01*
X49696229Y46783666D01*
X49752934Y46584372D01*
X49752936Y46584365D01*
X49845300Y46398875D01*
X49970174Y46233514D01*
X50061584Y46150182D01*
X50123305Y46093916D01*
X50123308Y46093914D01*
X50299485Y45984830D01*
X50492707Y45909976D01*
X50492711Y45909976D01*
X50492715Y45909974D01*
X50601601Y45889620D01*
X50696393Y45871900D01*
X50696394Y45871900D01*
X50903606Y45871900D01*
X50903607Y45871900D01*
X51038741Y45897162D01*
X51107284Y45909974D01*
X51107286Y45909975D01*
X51107293Y45909976D01*
X51300515Y45984830D01*
X51476692Y46093914D01*
X51629826Y46233514D01*
X51754700Y46398875D01*
X51847064Y46584365D01*
X51903771Y46783670D01*
X51922890Y46990000D01*
X51903771Y47196330D01*
X51847064Y47395635D01*
X51754700Y47581125D01*
X51629826Y47746486D01*
X51545837Y47823052D01*
X51476694Y47886085D01*
X51476685Y47886091D01*
X51300517Y47995169D01*
X51300511Y47995172D01*
X51107296Y48070023D01*
X51107284Y48070027D01*
X50903609Y48108100D01*
X50903607Y48108100D01*
X50696393Y48108100D01*
X50696390Y48108100D01*
X50492715Y48070027D01*
X50492703Y48070023D01*
X50299488Y47995172D01*
X50299482Y47995169D01*
X50123314Y47886091D01*
X50123305Y47886085D01*
X49970173Y47746485D01*
X49845302Y47581129D01*
X49752936Y47395634D01*
X49752934Y47395629D01*
X49696229Y47196335D01*
X49696229Y47196334D01*
X49677110Y46990001D01*
X11172878Y46990001D01*
X13712879Y49530001D01*
X49677110Y49530001D01*
X49677110Y49530000D01*
X49696229Y49323667D01*
X49696229Y49323666D01*
X49752934Y49124372D01*
X49752936Y49124365D01*
X49845300Y48938875D01*
X49970174Y48773514D01*
X50061584Y48690182D01*
X50123305Y48633916D01*
X50123308Y48633914D01*
X50299485Y48524830D01*
X50492707Y48449976D01*
X50492711Y48449976D01*
X50492715Y48449974D01*
X50601601Y48429620D01*
X50696393Y48411900D01*
X50696394Y48411900D01*
X50903606Y48411900D01*
X50903607Y48411900D01*
X51038741Y48437162D01*
X51107284Y48449974D01*
X51107286Y48449975D01*
X51107293Y48449976D01*
X51300515Y48524830D01*
X51476692Y48633914D01*
X51629826Y48773514D01*
X51754700Y48938875D01*
X51847064Y49124365D01*
X51903771Y49323670D01*
X51922890Y49530000D01*
X51903771Y49736330D01*
X51847064Y49935635D01*
X51754700Y50121125D01*
X51629826Y50286486D01*
X51545837Y50363052D01*
X51476694Y50426085D01*
X51476685Y50426091D01*
X51300517Y50535169D01*
X51300511Y50535172D01*
X51107296Y50610023D01*
X51107284Y50610027D01*
X50903609Y50648100D01*
X50903607Y50648100D01*
X50696393Y50648100D01*
X50696390Y50648100D01*
X50492715Y50610027D01*
X50492703Y50610023D01*
X50299488Y50535172D01*
X50299482Y50535169D01*
X50123314Y50426091D01*
X50123305Y50426085D01*
X49970173Y50286485D01*
X49845302Y50121129D01*
X49752936Y49935634D01*
X49752934Y49935629D01*
X49696229Y49736335D01*
X49696229Y49736334D01*
X49677110Y49530001D01*
X13712879Y49530001D01*
X15959933Y51777055D01*
X16014427Y51802466D01*
X16022088Y51802800D01*
X49647169Y51802800D01*
X49703670Y51782235D01*
X49731713Y51738955D01*
X49752936Y51664365D01*
X49845300Y51478875D01*
X49970174Y51313514D01*
X50061584Y51230182D01*
X50123305Y51173916D01*
X50123308Y51173914D01*
X50299485Y51064830D01*
X50492707Y50989976D01*
X50492711Y50989976D01*
X50492715Y50989974D01*
X50601601Y50969620D01*
X50696393Y50951900D01*
X50696394Y50951900D01*
X50903606Y50951900D01*
X50903607Y50951900D01*
X51038741Y50977162D01*
X51107284Y50989974D01*
X51107286Y50989975D01*
X51107293Y50989976D01*
X51300515Y51064830D01*
X51476692Y51173914D01*
X51629826Y51313514D01*
X51754700Y51478875D01*
X51847064Y51664365D01*
X51903771Y51863670D01*
X51922890Y52070000D01*
X51903771Y52276330D01*
X51847064Y52475635D01*
X51754700Y52661125D01*
X51629826Y52826486D01*
X51545837Y52903052D01*
X51476694Y52966085D01*
X51476685Y52966091D01*
X51300517Y53075169D01*
X51300511Y53075172D01*
X51107296Y53150023D01*
X51107284Y53150027D01*
X50903609Y53188100D01*
X50903607Y53188100D01*
X50696393Y53188100D01*
X50696390Y53188100D01*
X50492715Y53150027D01*
X50492703Y53150023D01*
X50299488Y53075172D01*
X50299482Y53075169D01*
X50123314Y52966091D01*
X50123305Y52966085D01*
X49970173Y52826485D01*
X49845302Y52661129D01*
X49752936Y52475634D01*
X49752934Y52475629D01*
X49731713Y52401045D01*
X49696471Y52352329D01*
X49647169Y52337200D01*
X15821848Y52337200D01*
X15796044Y52326511D01*
X15735974Y52323889D01*
X15688272Y52360492D01*
X15675259Y52419194D01*
X15700251Y52469874D01*
X17547433Y54317055D01*
X17601927Y54342466D01*
X17609588Y54342800D01*
X49647169Y54342800D01*
X49703670Y54322235D01*
X49731713Y54278955D01*
X49752936Y54204365D01*
X49845300Y54018875D01*
X49970174Y53853514D01*
X50061584Y53770182D01*
X50123305Y53713916D01*
X50123308Y53713914D01*
X50299485Y53604830D01*
X50492707Y53529976D01*
X50492711Y53529976D01*
X50492715Y53529974D01*
X50601601Y53509620D01*
X50696393Y53491900D01*
X50696394Y53491900D01*
X50903606Y53491900D01*
X50903607Y53491900D01*
X51038741Y53517162D01*
X51107284Y53529974D01*
X51107286Y53529975D01*
X51107293Y53529976D01*
X51300515Y53604830D01*
X51476692Y53713914D01*
X51629826Y53853514D01*
X51754700Y54018875D01*
X51847064Y54204365D01*
X51903771Y54403670D01*
X51922890Y54610000D01*
X51903771Y54816330D01*
X51847064Y55015635D01*
X51754700Y55201125D01*
X51629826Y55366486D01*
X51545837Y55443052D01*
X51476694Y55506085D01*
X51476685Y55506091D01*
X51300517Y55615169D01*
X51300511Y55615172D01*
X51107296Y55690023D01*
X51107284Y55690027D01*
X50903609Y55728100D01*
X50903607Y55728100D01*
X50696393Y55728100D01*
X50696390Y55728100D01*
X50492715Y55690027D01*
X50492703Y55690023D01*
X50299488Y55615172D01*
X50299482Y55615169D01*
X50123314Y55506091D01*
X50123305Y55506085D01*
X49970173Y55366485D01*
X49845302Y55201129D01*
X49752936Y55015634D01*
X49752934Y55015629D01*
X49731713Y54941045D01*
X49696471Y54892329D01*
X49647169Y54877200D01*
X17515649Y54877200D01*
X17409351Y54877200D01*
X17368673Y54860351D01*
X17311144Y54836522D01*
X5821166Y43346545D01*
X5766672Y43321134D01*
X5759011Y43320800D01*
X5649101Y43320800D01*
X5522657Y43283671D01*
X5522653Y43283670D01*
X5411794Y43212425D01*
X5411792Y43212423D01*
X5342780Y43132779D01*
X5290238Y43103546D01*
X5231197Y43114926D01*
X5193284Y43161593D01*
X5188450Y43190342D01*
X5188450Y43391898D01*
X5188450Y43391899D01*
X5147771Y43490107D01*
X5147769Y43490109D01*
X5072607Y43565272D01*
X5072607Y43565271D01*
X3961357Y44676521D01*
X3961355Y44676522D01*
X3961356Y44676522D01*
X3903827Y44700351D01*
X3863149Y44717200D01*
X3863148Y44717200D01*
X3692831Y44717200D01*
X3636330Y44737765D01*
X3608287Y44781045D01*
X3600645Y44807902D01*
X3587064Y44855635D01*
X3494700Y45041125D01*
X3369826Y45206486D01*
X3285837Y45283052D01*
X3216694Y45346085D01*
X3216685Y45346091D01*
X3040517Y45455169D01*
X3040511Y45455172D01*
X2847296Y45530023D01*
X2847284Y45530027D01*
X2643609Y45568100D01*
X2643607Y45568100D01*
X2436393Y45568100D01*
X2436390Y45568100D01*
X2232715Y45530027D01*
X2232703Y45530023D01*
X2039488Y45455172D01*
X2039482Y45455169D01*
X1863314Y45346091D01*
X1863305Y45346085D01*
X1710173Y45206485D01*
X1585302Y45041129D01*
X1492936Y44855634D01*
X1492934Y44855629D01*
X1436229Y44656335D01*
X1436229Y44656334D01*
X1417110Y44450001D01*
X0Y44450001D01*
X0Y46990001D01*
X1417110Y46990001D01*
X1417110Y46990000D01*
X1436229Y46783667D01*
X1436229Y46783666D01*
X1492934Y46584372D01*
X1492936Y46584365D01*
X1585300Y46398875D01*
X1710174Y46233514D01*
X1801584Y46150182D01*
X1863305Y46093916D01*
X1863308Y46093914D01*
X2039485Y45984830D01*
X2232707Y45909976D01*
X2232711Y45909976D01*
X2232715Y45909974D01*
X2341601Y45889620D01*
X2436393Y45871900D01*
X2436394Y45871900D01*
X2643606Y45871900D01*
X2643607Y45871900D01*
X2778741Y45897162D01*
X2847284Y45909974D01*
X2847286Y45909975D01*
X2847293Y45909976D01*
X3040515Y45984830D01*
X3216692Y46093914D01*
X3369826Y46233514D01*
X3494700Y46398875D01*
X3587064Y46584365D01*
X3643771Y46783670D01*
X3662890Y46990000D01*
X3643771Y47196330D01*
X3587064Y47395635D01*
X3494700Y47581125D01*
X3369826Y47746486D01*
X3285837Y47823052D01*
X3216694Y47886085D01*
X3216685Y47886091D01*
X3040517Y47995169D01*
X3040511Y47995172D01*
X2847296Y48070023D01*
X2847284Y48070027D01*
X2643609Y48108100D01*
X2643607Y48108100D01*
X2436393Y48108100D01*
X2436390Y48108100D01*
X2232715Y48070027D01*
X2232703Y48070023D01*
X2039488Y47995172D01*
X2039482Y47995169D01*
X1863314Y47886091D01*
X1863305Y47886085D01*
X1710173Y47746485D01*
X1585302Y47581129D01*
X1492936Y47395634D01*
X1492934Y47395629D01*
X1436229Y47196335D01*
X1436229Y47196334D01*
X1417110Y46990001D01*
X0Y46990001D01*
X0Y49530001D01*
X1417110Y49530001D01*
X1417110Y49530000D01*
X1436229Y49323667D01*
X1436229Y49323666D01*
X1492934Y49124372D01*
X1492936Y49124365D01*
X1585300Y48938875D01*
X1710174Y48773514D01*
X1801584Y48690182D01*
X1863305Y48633916D01*
X1863308Y48633914D01*
X2039485Y48524830D01*
X2232707Y48449976D01*
X2232711Y48449976D01*
X2232715Y48449974D01*
X2341601Y48429620D01*
X2436393Y48411900D01*
X2436394Y48411900D01*
X2643606Y48411900D01*
X2643607Y48411900D01*
X2778741Y48437162D01*
X2847284Y48449974D01*
X2847286Y48449975D01*
X2847293Y48449976D01*
X3040515Y48524830D01*
X3216692Y48633914D01*
X3369826Y48773514D01*
X3494700Y48938875D01*
X3587064Y49124365D01*
X3643771Y49323670D01*
X3662890Y49530000D01*
X3643771Y49736330D01*
X3587064Y49935635D01*
X3494700Y50121125D01*
X3369826Y50286486D01*
X3285837Y50363052D01*
X3216694Y50426085D01*
X3216685Y50426091D01*
X3040517Y50535169D01*
X3040511Y50535172D01*
X2847296Y50610023D01*
X2847284Y50610027D01*
X2643609Y50648100D01*
X2643607Y50648100D01*
X2436393Y50648100D01*
X2436390Y50648100D01*
X2232715Y50610027D01*
X2232703Y50610023D01*
X2039488Y50535172D01*
X2039482Y50535169D01*
X1863314Y50426091D01*
X1863305Y50426085D01*
X1710173Y50286485D01*
X1585302Y50121129D01*
X1492936Y49935634D01*
X1492934Y49935629D01*
X1436229Y49736335D01*
X1436229Y49736334D01*
X1417110Y49530001D01*
X0Y49530001D01*
X0Y52070001D01*
X1417110Y52070001D01*
X1417110Y52070000D01*
X1436229Y51863667D01*
X1436229Y51863666D01*
X1471713Y51738955D01*
X1492936Y51664365D01*
X1585300Y51478875D01*
X1710174Y51313514D01*
X1801584Y51230182D01*
X1863305Y51173916D01*
X1863308Y51173914D01*
X2039485Y51064830D01*
X2232707Y50989976D01*
X2232711Y50989976D01*
X2232715Y50989974D01*
X2341601Y50969620D01*
X2436393Y50951900D01*
X2436394Y50951900D01*
X2643606Y50951900D01*
X2643607Y50951900D01*
X2778741Y50977162D01*
X2847284Y50989974D01*
X2847286Y50989975D01*
X2847293Y50989976D01*
X3040515Y51064830D01*
X3216692Y51173914D01*
X3369826Y51313514D01*
X3494700Y51478875D01*
X3587064Y51664365D01*
X3643771Y51863670D01*
X3662890Y52070000D01*
X3643771Y52276330D01*
X3587064Y52475635D01*
X3494700Y52661125D01*
X3369826Y52826486D01*
X3285837Y52903052D01*
X3216694Y52966085D01*
X3216685Y52966091D01*
X3040517Y53075169D01*
X3040511Y53075172D01*
X2847296Y53150023D01*
X2847284Y53150027D01*
X2643609Y53188100D01*
X2643607Y53188100D01*
X2436393Y53188100D01*
X2436390Y53188100D01*
X2232715Y53150027D01*
X2232703Y53150023D01*
X2039488Y53075172D01*
X2039482Y53075169D01*
X1863314Y52966091D01*
X1863305Y52966085D01*
X1710173Y52826485D01*
X1585302Y52661129D01*
X1492936Y52475634D01*
X1492934Y52475629D01*
X1436229Y52276335D01*
X1436229Y52276334D01*
X1417110Y52070001D01*
X0Y52070001D01*
X0Y54610001D01*
X1417110Y54610001D01*
X1417110Y54610000D01*
X1436229Y54403667D01*
X1436229Y54403666D01*
X1471713Y54278955D01*
X1492936Y54204365D01*
X1585300Y54018875D01*
X1710174Y53853514D01*
X1801584Y53770182D01*
X1863305Y53713916D01*
X1863308Y53713914D01*
X2039485Y53604830D01*
X2232707Y53529976D01*
X2232711Y53529976D01*
X2232715Y53529974D01*
X2341601Y53509620D01*
X2436393Y53491900D01*
X2436394Y53491900D01*
X2643606Y53491900D01*
X2643607Y53491900D01*
X2778741Y53517162D01*
X2847284Y53529974D01*
X2847286Y53529975D01*
X2847293Y53529976D01*
X3040515Y53604830D01*
X3216692Y53713914D01*
X3369826Y53853514D01*
X3494700Y54018875D01*
X3587064Y54204365D01*
X3643771Y54403670D01*
X3662890Y54610000D01*
X3643771Y54816330D01*
X3587064Y55015635D01*
X3494700Y55201125D01*
X3369826Y55366486D01*
X3285837Y55443052D01*
X3216694Y55506085D01*
X3216685Y55506091D01*
X3040517Y55615169D01*
X3040511Y55615172D01*
X2847296Y55690023D01*
X2847284Y55690027D01*
X2643609Y55728100D01*
X2643607Y55728100D01*
X2436393Y55728100D01*
X2436390Y55728100D01*
X2232715Y55690027D01*
X2232703Y55690023D01*
X2039488Y55615172D01*
X2039482Y55615169D01*
X1863314Y55506091D01*
X1863305Y55506085D01*
X1710173Y55366485D01*
X1585302Y55201129D01*
X1492936Y55015634D01*
X1492934Y55015629D01*
X1436229Y54816335D01*
X1436229Y54816334D01*
X1417110Y54610001D01*
X0Y54610001D01*
X0Y55843590D01*
X20565Y55900091D01*
X25745Y55905745D01*
X1244255Y57124255D01*
X1298749Y57149666D01*
X1306410Y57150000D01*
X12699999Y57150000D01*
X12700000Y57150000D01*
X13652504Y58102504D01*
X47436853Y58102504D01*
X47436853Y58102497D01*
X47457333Y57960050D01*
X47457334Y57960045D01*
X47457335Y57960043D01*
X47517123Y57829127D01*
X47611372Y57720357D01*
X47732447Y57642547D01*
X47870539Y57602000D01*
X47870540Y57602000D01*
X48014460Y57602000D01*
X48014461Y57602000D01*
X48152553Y57642547D01*
X48273628Y57720357D01*
X48367877Y57829127D01*
X48427665Y57960043D01*
X48448147Y58102500D01*
X48448147Y58102504D01*
X48427666Y58244951D01*
X48427665Y58244952D01*
X48427665Y58244957D01*
X48367877Y58375873D01*
X48273628Y58484643D01*
X48273626Y58484644D01*
X48273624Y58484646D01*
X48152554Y58562453D01*
X48152550Y58562454D01*
X48014467Y58602999D01*
X48014461Y58603000D01*
X47870539Y58603000D01*
X47870538Y58603000D01*
X47870532Y58602999D01*
X47732449Y58562454D01*
X47732445Y58562453D01*
X47611375Y58484646D01*
X47611370Y58484642D01*
X47517122Y58375872D01*
X47457335Y58244957D01*
X47457333Y58244951D01*
X47436853Y58102504D01*
X13652504Y58102504D01*
X15214255Y59664255D01*
X15268749Y59689666D01*
X15276410Y59690000D01*
X48223590Y59690000D01*
X48280091Y59669435D01*
G37*
%TD.AperFunction*%
%TD*%
M02*
