%TF.GenerationSoftware,KiCad,Pcbnew,8.0.7*%
%TF.CreationDate,2025-01-17T14:39:43-07:00*%
%TF.ProjectId,SparkFun_Serial_MP3_Player_Shield_MY1690X_panelized,53706172-6b46-4756-9e5f-53657269616c,rev?*%
%TF.SameCoordinates,Original*%
%TF.FileFunction,Paste,Top*%
%TF.FilePolarity,Positive*%
%FSLAX46Y46*%
G04 Gerber Fmt 4.6, Leading zero omitted, Abs format (unit mm)*
G04 Created by KiCad (PCBNEW 8.0.7) date 2025-01-17 14:39:43*
%MOMM*%
%LPD*%
G01*
G04 APERTURE LIST*
G04 Aperture macros list*
%AMRoundRect*
0 Rectangle with rounded corners*
0 $1 Rounding radius*
0 $2 $3 $4 $5 $6 $7 $8 $9 X,Y pos of 4 corners*
0 Add a 4 corners polygon primitive as box body*
4,1,4,$2,$3,$4,$5,$6,$7,$8,$9,$2,$3,0*
0 Add four circle primitives for the rounded corners*
1,1,$1+$1,$2,$3*
1,1,$1+$1,$4,$5*
1,1,$1+$1,$6,$7*
1,1,$1+$1,$8,$9*
0 Add four rect primitives between the rounded corners*
20,1,$1+$1,$2,$3,$4,$5,0*
20,1,$1+$1,$4,$5,$6,$7,0*
20,1,$1+$1,$6,$7,$8,$9,0*
20,1,$1+$1,$8,$9,$2,$3,0*%
G04 Aperture macros list end*
%ADD10R,0.600000X1.200000*%
%ADD11RoundRect,0.225000X-0.225000X-0.250000X0.225000X-0.250000X0.225000X0.250000X-0.225000X0.250000X0*%
%ADD12R,0.300000X1.000000*%
%ADD13R,0.600000X1.000000*%
%ADD14O,1.000000X1.600000*%
%ADD15O,1.000000X2.100000*%
%ADD16RoundRect,0.200000X-0.200000X-0.275000X0.200000X-0.275000X0.200000X0.275000X-0.200000X0.275000X0*%
%ADD17RoundRect,0.218750X-0.218750X-0.256250X0.218750X-0.256250X0.218750X0.256250X-0.218750X0.256250X0*%
%ADD18RoundRect,0.225000X0.225000X0.250000X-0.225000X0.250000X-0.225000X-0.250000X0.225000X-0.250000X0*%
%ADD19R,0.700000X1.600000*%
%ADD20R,1.200000X1.600000*%
%ADD21R,1.200000X2.200000*%
%ADD22R,1.600000X1.400000*%
%ADD23R,0.800000X0.900000*%
%ADD24RoundRect,0.200000X0.200000X0.275000X-0.200000X0.275000X-0.200000X-0.275000X0.200000X-0.275000X0*%
%ADD25R,2.500000X1.200000*%
%ADD26R,0.762000X1.524000*%
%ADD27R,0.830000X0.630000*%
%ADD28RoundRect,0.225000X0.250000X-0.225000X0.250000X0.225000X-0.250000X0.225000X-0.250000X-0.225000X0*%
%ADD29R,0.630000X0.830000*%
G04 APERTURE END LIST*
D10*
%TO.C,U2*%
X76065000Y150600000D03*
X77335000Y150600000D03*
X78605000Y150600000D03*
X79875000Y150600000D03*
X81145000Y150600000D03*
X82415000Y150600000D03*
X83685000Y150600000D03*
X84955000Y150600000D03*
X84955000Y156200000D03*
X83685000Y156200000D03*
X82415000Y156200000D03*
X81145000Y156200000D03*
X79875000Y156200000D03*
X78605000Y156200000D03*
X77335000Y156200000D03*
X76065000Y156200000D03*
%TD*%
%TO.C,U2*%
X76065000Y87870000D03*
X77335000Y87870000D03*
X78605000Y87870000D03*
X79875000Y87870000D03*
X81145000Y87870000D03*
X82415000Y87870000D03*
X83685000Y87870000D03*
X84955000Y87870000D03*
X84955000Y93470000D03*
X83685000Y93470000D03*
X82415000Y93470000D03*
X81145000Y93470000D03*
X79875000Y93470000D03*
X78605000Y93470000D03*
X77335000Y93470000D03*
X76065000Y93470000D03*
%TD*%
%TO.C,U2*%
X76065000Y25140000D03*
X77335000Y25140000D03*
X78605000Y25140000D03*
X79875000Y25140000D03*
X81145000Y25140000D03*
X82415000Y25140000D03*
X83685000Y25140000D03*
X84955000Y25140000D03*
X84955000Y30740000D03*
X83685000Y30740000D03*
X82415000Y30740000D03*
X81145000Y30740000D03*
X79875000Y30740000D03*
X78605000Y30740000D03*
X77335000Y30740000D03*
X76065000Y30740000D03*
%TD*%
%TO.C,U2*%
X22225000Y150600000D03*
X23495000Y150600000D03*
X24765000Y150600000D03*
X26035000Y150600000D03*
X27305000Y150600000D03*
X28575000Y150600000D03*
X29845000Y150600000D03*
X31115000Y150600000D03*
X31115000Y156200000D03*
X29845000Y156200000D03*
X28575000Y156200000D03*
X27305000Y156200000D03*
X26035000Y156200000D03*
X24765000Y156200000D03*
X23495000Y156200000D03*
X22225000Y156200000D03*
%TD*%
%TO.C,U2*%
X22225000Y87870000D03*
X23495000Y87870000D03*
X24765000Y87870000D03*
X26035000Y87870000D03*
X27305000Y87870000D03*
X28575000Y87870000D03*
X29845000Y87870000D03*
X31115000Y87870000D03*
X31115000Y93470000D03*
X29845000Y93470000D03*
X28575000Y93470000D03*
X27305000Y93470000D03*
X26035000Y93470000D03*
X24765000Y93470000D03*
X23495000Y93470000D03*
X22225000Y93470000D03*
%TD*%
D11*
%TO.C,C2*%
X87990000Y142922500D03*
X89540000Y142922500D03*
%TD*%
%TO.C,C2*%
X87990000Y80192500D03*
X89540000Y80192500D03*
%TD*%
%TO.C,C2*%
X87990000Y17462500D03*
X89540000Y17462500D03*
%TD*%
%TO.C,C2*%
X34150000Y142922500D03*
X35700000Y142922500D03*
%TD*%
%TO.C,C2*%
X34150000Y80192500D03*
X35700000Y80192500D03*
%TD*%
%TO.C,C3*%
X87990000Y145462500D03*
X89540000Y145462500D03*
%TD*%
%TO.C,C3*%
X87990000Y82732500D03*
X89540000Y82732500D03*
%TD*%
%TO.C,C3*%
X87990000Y20002500D03*
X89540000Y20002500D03*
%TD*%
%TO.C,C3*%
X34150000Y145462500D03*
X35700000Y145462500D03*
%TD*%
%TO.C,C3*%
X34150000Y82732500D03*
X35700000Y82732500D03*
%TD*%
D12*
%TO.C,J4*%
X63385000Y131470000D03*
X64385000Y131470000D03*
X64885000Y131470000D03*
X65885000Y131470000D03*
X66385000Y131470000D03*
X65385000Y131470000D03*
X63885000Y131470000D03*
X62885000Y131470000D03*
D13*
X61410000Y131470000D03*
X67860000Y131470000D03*
D14*
X60317000Y126715000D03*
D15*
X60317000Y130895000D03*
X68953000Y130895000D03*
D14*
X68953000Y126715000D03*
D13*
X62185000Y131470000D03*
X67085000Y131470000D03*
%TD*%
D12*
%TO.C,J4*%
X63385000Y68740000D03*
X64385000Y68740000D03*
X64885000Y68740000D03*
X65885000Y68740000D03*
X66385000Y68740000D03*
X65385000Y68740000D03*
X63885000Y68740000D03*
X62885000Y68740000D03*
D13*
X61410000Y68740000D03*
X67860000Y68740000D03*
D14*
X60317000Y63985000D03*
D15*
X60317000Y68165000D03*
X68953000Y68165000D03*
D14*
X68953000Y63985000D03*
D13*
X62185000Y68740000D03*
X67085000Y68740000D03*
%TD*%
D12*
%TO.C,J4*%
X63385000Y6010000D03*
X64385000Y6010000D03*
X64885000Y6010000D03*
X65885000Y6010000D03*
X66385000Y6010000D03*
X65385000Y6010000D03*
X63885000Y6010000D03*
X62885000Y6010000D03*
D13*
X61410000Y6010000D03*
X67860000Y6010000D03*
D14*
X60317000Y1255000D03*
D15*
X60317000Y5435000D03*
X68953000Y5435000D03*
D14*
X68953000Y1255000D03*
D13*
X62185000Y6010000D03*
X67085000Y6010000D03*
%TD*%
D12*
%TO.C,J4*%
X9545000Y131470000D03*
X10545000Y131470000D03*
X11045000Y131470000D03*
X12045000Y131470000D03*
X12545000Y131470000D03*
X11545000Y131470000D03*
X10045000Y131470000D03*
X9045000Y131470000D03*
D13*
X7570000Y131470000D03*
X14020000Y131470000D03*
D14*
X6477000Y126715000D03*
D15*
X6477000Y130895000D03*
X15113000Y130895000D03*
D14*
X15113000Y126715000D03*
D13*
X8345000Y131470000D03*
X13245000Y131470000D03*
%TD*%
D12*
%TO.C,J4*%
X9545000Y68740000D03*
X10545000Y68740000D03*
X11045000Y68740000D03*
X12045000Y68740000D03*
X12545000Y68740000D03*
X11545000Y68740000D03*
X10045000Y68740000D03*
X9045000Y68740000D03*
D13*
X7570000Y68740000D03*
X14020000Y68740000D03*
D14*
X6477000Y63985000D03*
D15*
X6477000Y68165000D03*
X15113000Y68165000D03*
D14*
X15113000Y63985000D03*
D13*
X8345000Y68740000D03*
X13245000Y68740000D03*
%TD*%
D16*
%TO.C,R3*%
X60952500Y134985000D03*
X62602500Y134985000D03*
%TD*%
%TO.C,R3*%
X60952500Y72255000D03*
X62602500Y72255000D03*
%TD*%
%TO.C,R3*%
X60952500Y9525000D03*
X62602500Y9525000D03*
%TD*%
%TO.C,R3*%
X7112500Y134985000D03*
X8762500Y134985000D03*
%TD*%
%TO.C,R3*%
X7112500Y72255000D03*
X8762500Y72255000D03*
%TD*%
D17*
%TO.C,D4*%
X95597500Y155305000D03*
X97172500Y155305000D03*
%TD*%
%TO.C,D4*%
X95597500Y92575000D03*
X97172500Y92575000D03*
%TD*%
%TO.C,D4*%
X95597500Y29845000D03*
X97172500Y29845000D03*
%TD*%
%TO.C,D4*%
X41757500Y155305000D03*
X43332500Y155305000D03*
%TD*%
%TO.C,D4*%
X41757500Y92575000D03*
X43332500Y92575000D03*
%TD*%
D18*
%TO.C,C1*%
X77475000Y158480000D03*
X75925000Y158480000D03*
%TD*%
%TO.C,C1*%
X77475000Y95750000D03*
X75925000Y95750000D03*
%TD*%
%TO.C,C1*%
X77475000Y33020000D03*
X75925000Y33020000D03*
%TD*%
%TO.C,C1*%
X23635000Y158480000D03*
X22085000Y158480000D03*
%TD*%
%TO.C,C1*%
X23635000Y95750000D03*
X22085000Y95750000D03*
%TD*%
D16*
%TO.C,R4*%
X71112500Y156257500D03*
X72762500Y156257500D03*
%TD*%
%TO.C,R4*%
X71112500Y93527500D03*
X72762500Y93527500D03*
%TD*%
%TO.C,R4*%
X71112500Y30797500D03*
X72762500Y30797500D03*
%TD*%
%TO.C,R4*%
X17272500Y156257500D03*
X18922500Y156257500D03*
%TD*%
%TO.C,R4*%
X17272500Y93527500D03*
X18922500Y93527500D03*
%TD*%
D19*
%TO.C,J6*%
X91015000Y140087500D03*
X89915000Y140087500D03*
X88815000Y140087500D03*
X87715000Y140087500D03*
X86615000Y140087500D03*
X85515000Y140087500D03*
X84415000Y140087500D03*
X83315000Y140087500D03*
X82215000Y140087500D03*
D20*
X81015000Y139487500D03*
D21*
X81015000Y129987500D03*
X96515000Y129987500D03*
D22*
X95615000Y139587500D03*
%TD*%
D19*
%TO.C,J6*%
X91015000Y77357500D03*
X89915000Y77357500D03*
X88815000Y77357500D03*
X87715000Y77357500D03*
X86615000Y77357500D03*
X85515000Y77357500D03*
X84415000Y77357500D03*
X83315000Y77357500D03*
X82215000Y77357500D03*
D20*
X81015000Y76757500D03*
D21*
X81015000Y67257500D03*
X96515000Y67257500D03*
D22*
X95615000Y76857500D03*
%TD*%
D19*
%TO.C,J6*%
X91015000Y14627500D03*
X89915000Y14627500D03*
X88815000Y14627500D03*
X87715000Y14627500D03*
X86615000Y14627500D03*
X85515000Y14627500D03*
X84415000Y14627500D03*
X83315000Y14627500D03*
X82215000Y14627500D03*
D20*
X81015000Y14027500D03*
D21*
X81015000Y4527500D03*
X96515000Y4527500D03*
D22*
X95615000Y14127500D03*
%TD*%
D19*
%TO.C,J6*%
X37175000Y140087500D03*
X36075000Y140087500D03*
X34975000Y140087500D03*
X33875000Y140087500D03*
X32775000Y140087500D03*
X31675000Y140087500D03*
X30575000Y140087500D03*
X29475000Y140087500D03*
X28375000Y140087500D03*
D20*
X27175000Y139487500D03*
D21*
X27175000Y129987500D03*
X42675000Y129987500D03*
D22*
X41775000Y139587500D03*
%TD*%
D19*
%TO.C,J6*%
X37175000Y77357500D03*
X36075000Y77357500D03*
X34975000Y77357500D03*
X33875000Y77357500D03*
X32775000Y77357500D03*
X31675000Y77357500D03*
X30575000Y77357500D03*
X29475000Y77357500D03*
X28375000Y77357500D03*
D20*
X27175000Y76757500D03*
D21*
X27175000Y67257500D03*
X42675000Y67257500D03*
D22*
X41775000Y76857500D03*
%TD*%
D23*
%TO.C,Q1*%
X70987500Y152400000D03*
X72887500Y152400000D03*
X71937500Y154500000D03*
%TD*%
%TO.C,Q1*%
X70987500Y89670000D03*
X72887500Y89670000D03*
X71937500Y91770000D03*
%TD*%
%TO.C,Q1*%
X70987500Y26940000D03*
X72887500Y26940000D03*
X71937500Y29040000D03*
%TD*%
%TO.C,Q1*%
X17147500Y152400000D03*
X19047500Y152400000D03*
X18097500Y154500000D03*
%TD*%
%TO.C,Q1*%
X17147500Y89670000D03*
X19047500Y89670000D03*
X18097500Y91770000D03*
%TD*%
D24*
%TO.C,R9*%
X97210000Y153400000D03*
X95560000Y153400000D03*
%TD*%
%TO.C,R9*%
X97210000Y90670000D03*
X95560000Y90670000D03*
%TD*%
%TO.C,R9*%
X97210000Y27940000D03*
X95560000Y27940000D03*
%TD*%
%TO.C,R9*%
X43370000Y153400000D03*
X41720000Y153400000D03*
%TD*%
%TO.C,R9*%
X43370000Y90670000D03*
X41720000Y90670000D03*
%TD*%
%TO.C,R6*%
X85145000Y148320000D03*
X83495000Y148320000D03*
%TD*%
%TO.C,R6*%
X85145000Y85590000D03*
X83495000Y85590000D03*
%TD*%
%TO.C,R6*%
X85145000Y22860000D03*
X83495000Y22860000D03*
%TD*%
%TO.C,R6*%
X31305000Y148320000D03*
X29655000Y148320000D03*
%TD*%
%TO.C,R6*%
X31305000Y85590000D03*
X29655000Y85590000D03*
%TD*%
D16*
%TO.C,R2*%
X66667500Y134985000D03*
X68317500Y134985000D03*
%TD*%
%TO.C,R2*%
X66667500Y72255000D03*
X68317500Y72255000D03*
%TD*%
%TO.C,R2*%
X66667500Y9525000D03*
X68317500Y9525000D03*
%TD*%
%TO.C,R2*%
X12827500Y134985000D03*
X14477500Y134985000D03*
%TD*%
%TO.C,R2*%
X12827500Y72255000D03*
X14477500Y72255000D03*
%TD*%
D25*
%TO.C,J1*%
X71545000Y131640000D03*
X71545000Y128640000D03*
X78045000Y136740000D03*
X71545000Y135640000D03*
%TD*%
%TO.C,J1*%
X71545000Y68910000D03*
X71545000Y65910000D03*
X78045000Y74010000D03*
X71545000Y72910000D03*
%TD*%
%TO.C,J1*%
X71545000Y6180000D03*
X71545000Y3180000D03*
X78045000Y11280000D03*
X71545000Y10180000D03*
%TD*%
%TO.C,J1*%
X17705000Y131640000D03*
X17705000Y128640000D03*
X24205000Y136740000D03*
X17705000Y135640000D03*
%TD*%
%TO.C,J1*%
X17705000Y68910000D03*
X17705000Y65910000D03*
X24205000Y74010000D03*
X17705000Y72910000D03*
%TD*%
D18*
%TO.C,C7*%
X85095000Y158480000D03*
X83545000Y158480000D03*
%TD*%
%TO.C,C7*%
X85095000Y95750000D03*
X83545000Y95750000D03*
%TD*%
%TO.C,C7*%
X85095000Y33020000D03*
X83545000Y33020000D03*
%TD*%
%TO.C,C7*%
X31255000Y158480000D03*
X29705000Y158480000D03*
%TD*%
%TO.C,C7*%
X31255000Y95750000D03*
X29705000Y95750000D03*
%TD*%
D24*
%TO.C,R1*%
X72762500Y150542500D03*
X71112500Y150542500D03*
%TD*%
%TO.C,R1*%
X72762500Y87812500D03*
X71112500Y87812500D03*
%TD*%
%TO.C,R1*%
X72762500Y25082500D03*
X71112500Y25082500D03*
%TD*%
%TO.C,R1*%
X18922500Y150542500D03*
X17272500Y150542500D03*
%TD*%
%TO.C,R1*%
X18922500Y87812500D03*
X17272500Y87812500D03*
%TD*%
D18*
%TO.C,C8*%
X81285000Y148320000D03*
X79735000Y148320000D03*
%TD*%
%TO.C,C8*%
X81285000Y85590000D03*
X79735000Y85590000D03*
%TD*%
%TO.C,C8*%
X81285000Y22860000D03*
X79735000Y22860000D03*
%TD*%
%TO.C,C8*%
X27445000Y148320000D03*
X25895000Y148320000D03*
%TD*%
%TO.C,C8*%
X27445000Y85590000D03*
X25895000Y85590000D03*
%TD*%
D26*
%TO.C,SW1*%
X105275000Y141271500D03*
X105275000Y135683500D03*
X101465000Y141271500D03*
X101465000Y135683500D03*
%TD*%
%TO.C,SW1*%
X105275000Y78541500D03*
X105275000Y72953500D03*
X101465000Y78541500D03*
X101465000Y72953500D03*
%TD*%
%TO.C,SW1*%
X105275000Y15811500D03*
X105275000Y10223500D03*
X101465000Y15811500D03*
X101465000Y10223500D03*
%TD*%
%TO.C,SW1*%
X51435000Y141271500D03*
X51435000Y135683500D03*
X47625000Y141271500D03*
X47625000Y135683500D03*
%TD*%
%TO.C,SW1*%
X51435000Y78541500D03*
X51435000Y72953500D03*
X47625000Y78541500D03*
X47625000Y72953500D03*
%TD*%
D17*
%TO.C,D1*%
X63847500Y155305000D03*
X65422500Y155305000D03*
%TD*%
%TO.C,D1*%
X63847500Y92575000D03*
X65422500Y92575000D03*
%TD*%
%TO.C,D1*%
X63847500Y29845000D03*
X65422500Y29845000D03*
%TD*%
%TO.C,D1*%
X10007500Y155305000D03*
X11582500Y155305000D03*
%TD*%
%TO.C,D1*%
X10007500Y92575000D03*
X11582500Y92575000D03*
%TD*%
D24*
%TO.C,R5*%
X63810000Y153400000D03*
X65460000Y153400000D03*
%TD*%
%TO.C,R5*%
X63810000Y90670000D03*
X65460000Y90670000D03*
%TD*%
%TO.C,R5*%
X63810000Y27940000D03*
X65460000Y27940000D03*
%TD*%
%TO.C,R5*%
X9970000Y153400000D03*
X11620000Y153400000D03*
%TD*%
%TO.C,R5*%
X9970000Y90670000D03*
X11620000Y90670000D03*
%TD*%
D27*
%TO.C,D2*%
X90035000Y151932500D03*
X90035000Y154232500D03*
%TD*%
%TO.C,D2*%
X90035000Y89202500D03*
X90035000Y91502500D03*
%TD*%
%TO.C,D2*%
X90035000Y26472500D03*
X90035000Y28772500D03*
%TD*%
%TO.C,D2*%
X36195000Y151932500D03*
X36195000Y154232500D03*
%TD*%
%TO.C,D2*%
X36195000Y89202500D03*
X36195000Y91502500D03*
%TD*%
D28*
%TO.C,L1*%
X88130000Y152307500D03*
X88130000Y153857500D03*
%TD*%
%TO.C,L1*%
X88130000Y89577500D03*
X88130000Y91127500D03*
%TD*%
%TO.C,L1*%
X88130000Y26847500D03*
X88130000Y28397500D03*
%TD*%
%TO.C,L1*%
X34290000Y152307500D03*
X34290000Y153857500D03*
%TD*%
%TO.C,L1*%
X34290000Y89577500D03*
X34290000Y91127500D03*
%TD*%
D29*
%TO.C,D3*%
X65785000Y137207500D03*
X63485000Y137207500D03*
%TD*%
%TO.C,D3*%
X65785000Y74477500D03*
X63485000Y74477500D03*
%TD*%
%TO.C,D3*%
X65785000Y11747500D03*
X63485000Y11747500D03*
%TD*%
%TO.C,D3*%
X11945000Y137207500D03*
X9645000Y137207500D03*
%TD*%
%TO.C,D3*%
X11945000Y74477500D03*
X9645000Y74477500D03*
%TD*%
%TO.C,D3*%
X11945000Y11747500D03*
X9645000Y11747500D03*
%TD*%
D28*
%TO.C,L1*%
X34290000Y26847500D03*
X34290000Y28397500D03*
%TD*%
D27*
%TO.C,D2*%
X36195000Y26472500D03*
X36195000Y28772500D03*
%TD*%
D24*
%TO.C,R5*%
X9970000Y27940000D03*
X11620000Y27940000D03*
%TD*%
D17*
%TO.C,D1*%
X10007500Y29845000D03*
X11582500Y29845000D03*
%TD*%
D26*
%TO.C,SW1*%
X51435000Y15811500D03*
X51435000Y10223500D03*
X47625000Y15811500D03*
X47625000Y10223500D03*
%TD*%
D18*
%TO.C,C8*%
X27445000Y22860000D03*
X25895000Y22860000D03*
%TD*%
D24*
%TO.C,R1*%
X18922500Y25082500D03*
X17272500Y25082500D03*
%TD*%
D18*
%TO.C,C7*%
X31255000Y33020000D03*
X29705000Y33020000D03*
%TD*%
D25*
%TO.C,J1*%
X17705000Y6180000D03*
X17705000Y3180000D03*
X24205000Y11280000D03*
X17705000Y10180000D03*
%TD*%
D16*
%TO.C,R2*%
X12827500Y9525000D03*
X14477500Y9525000D03*
%TD*%
D24*
%TO.C,R6*%
X31305000Y22860000D03*
X29655000Y22860000D03*
%TD*%
%TO.C,R9*%
X43370000Y27940000D03*
X41720000Y27940000D03*
%TD*%
D23*
%TO.C,Q1*%
X17147500Y26940000D03*
X19047500Y26940000D03*
X18097500Y29040000D03*
%TD*%
D19*
%TO.C,J6*%
X37175000Y14627500D03*
X36075000Y14627500D03*
X34975000Y14627500D03*
X33875000Y14627500D03*
X32775000Y14627500D03*
X31675000Y14627500D03*
X30575000Y14627500D03*
X29475000Y14627500D03*
X28375000Y14627500D03*
D20*
X27175000Y14027500D03*
D21*
X27175000Y4527500D03*
X42675000Y4527500D03*
D22*
X41775000Y14127500D03*
%TD*%
D16*
%TO.C,R4*%
X17272500Y30797500D03*
X18922500Y30797500D03*
%TD*%
D18*
%TO.C,C1*%
X23635000Y33020000D03*
X22085000Y33020000D03*
%TD*%
D17*
%TO.C,D4*%
X41757500Y29845000D03*
X43332500Y29845000D03*
%TD*%
D16*
%TO.C,R3*%
X7112500Y9525000D03*
X8762500Y9525000D03*
%TD*%
D12*
%TO.C,J4*%
X9545000Y6010000D03*
X10545000Y6010000D03*
X11045000Y6010000D03*
X12045000Y6010000D03*
X12545000Y6010000D03*
X11545000Y6010000D03*
X10045000Y6010000D03*
X9045000Y6010000D03*
D13*
X7570000Y6010000D03*
X14020000Y6010000D03*
D14*
X6477000Y1255000D03*
D15*
X6477000Y5435000D03*
X15113000Y5435000D03*
D14*
X15113000Y1255000D03*
D13*
X8345000Y6010000D03*
X13245000Y6010000D03*
%TD*%
D11*
%TO.C,C3*%
X34150000Y20002500D03*
X35700000Y20002500D03*
%TD*%
%TO.C,C2*%
X34150000Y17462500D03*
X35700000Y17462500D03*
%TD*%
D10*
%TO.C,U2*%
X22225000Y25140000D03*
X23495000Y25140000D03*
X24765000Y25140000D03*
X26035000Y25140000D03*
X27305000Y25140000D03*
X28575000Y25140000D03*
X29845000Y25140000D03*
X31115000Y25140000D03*
X31115000Y30740000D03*
X29845000Y30740000D03*
X28575000Y30740000D03*
X27305000Y30740000D03*
X26035000Y30740000D03*
X24765000Y30740000D03*
X23495000Y30740000D03*
X22225000Y30740000D03*
%TD*%
M02*
