%TF.GenerationSoftware,KiCad,Pcbnew,8.0.7*%
%TF.CreationDate,2025-01-17T14:39:43-07:00*%
%TF.ProjectId,SparkFun_Serial_MP3_Player_Shield_MY1690X_panelized,53706172-6b46-4756-9e5f-53657269616c,rev?*%
%TF.SameCoordinates,Original*%
%TF.FileFunction,Soldermask,Bot*%
%TF.FilePolarity,Negative*%
%FSLAX46Y46*%
G04 Gerber Fmt 4.6, Leading zero omitted, Abs format (unit mm)*
G04 Created by KiCad (PCBNEW 8.0.7) date 2025-01-17 14:39:43*
%MOMM*%
%LPD*%
G01*
G04 APERTURE LIST*
%TA.AperFunction,Profile*%
%ADD10C,0.100000*%
%TD*%
%TA.AperFunction,Profile*%
%ADD11C,0.177800*%
%TD*%
%ADD12C,0.250000*%
%ADD13C,0.500000*%
G04 APERTURE END LIST*
D10*
X-500000Y-3040000D02*
X-500000Y188190000D01*
X107680000Y-3040000D02*
X-500000Y-3040000D01*
X107680000Y188190000D02*
X107680000Y-3040000D01*
X-500000Y188190000D02*
X107680000Y188190000D01*
X-6850000Y-9390000D02*
X-6850000Y194540000D01*
X114030000Y-9390000D02*
X-6850000Y-9390000D01*
X114030000Y194540000D02*
X114030000Y-9390000D01*
X-6850000Y194540000D02*
X114030000Y194540000D01*
D11*
X106862500Y128000000D02*
X107180000Y128317500D01*
X106862500Y65270000D02*
X107180000Y65587500D01*
X106862500Y2540000D02*
X107180000Y2857500D01*
X53022500Y128000000D02*
X53340000Y128317500D01*
X53022500Y65270000D02*
X53340000Y65587500D01*
X93527500Y125460000D02*
X93527500Y128000000D01*
X93527500Y62730000D02*
X93527500Y65270000D01*
X93527500Y0D02*
X93527500Y2540000D01*
X39687500Y125460000D02*
X39687500Y128000000D01*
X39687500Y62730000D02*
X39687500Y65270000D01*
X56380000Y125460000D02*
X93527500Y125460000D01*
X56380000Y62730000D02*
X93527500Y62730000D01*
X56380000Y0D02*
X93527500Y0D01*
X2540000Y125460000D02*
X39687500Y125460000D01*
X2540000Y62730000D02*
X39687500Y62730000D01*
X55110000Y182610000D02*
X53840000Y181340000D01*
X55110000Y119880000D02*
X53840000Y118610000D01*
X55110000Y57150000D02*
X53840000Y55880000D01*
X1270000Y182610000D02*
X0Y181340000D01*
X1270000Y119880000D02*
X0Y118610000D01*
X66540000Y182610000D02*
X55110000Y182610000D01*
X66540000Y119880000D02*
X55110000Y119880000D01*
X66540000Y57150000D02*
X55110000Y57150000D01*
X12700000Y182610000D02*
X1270000Y182610000D01*
X12700000Y119880000D02*
X1270000Y119880000D01*
X107180000Y182610000D02*
X104640000Y182610000D01*
X107180000Y119880000D02*
X104640000Y119880000D01*
X107180000Y57150000D02*
X104640000Y57150000D01*
X53340000Y182610000D02*
X50800000Y182610000D01*
X53340000Y119880000D02*
X50800000Y119880000D01*
X69080000Y185150000D02*
X66540000Y182610000D01*
X69080000Y122420000D02*
X66540000Y119880000D01*
X69080000Y59690000D02*
X66540000Y57150000D01*
X15240000Y185150000D02*
X12700000Y182610000D01*
X15240000Y122420000D02*
X12700000Y119880000D01*
X53840000Y181340000D02*
X53840000Y128000000D01*
X53840000Y118610000D02*
X53840000Y65270000D01*
X53840000Y55880000D02*
X53840000Y2540000D01*
X0Y181340000D02*
X0Y128000000D01*
X0Y118610000D02*
X0Y65270000D01*
X102100000Y185150000D02*
X69080000Y185150000D01*
X102100000Y122420000D02*
X69080000Y122420000D01*
X102100000Y59690000D02*
X69080000Y59690000D01*
X48260000Y185150000D02*
X15240000Y185150000D01*
X48260000Y122420000D02*
X15240000Y122420000D01*
X104640000Y182610000D02*
X102100000Y185150000D01*
X104640000Y119880000D02*
X102100000Y122420000D01*
X104640000Y57150000D02*
X102100000Y59690000D01*
X50800000Y182610000D02*
X48260000Y185150000D01*
X50800000Y119880000D02*
X48260000Y122420000D01*
X107180000Y128317500D02*
X107180000Y182610000D01*
X107180000Y65587500D02*
X107180000Y119880000D01*
X107180000Y2857500D02*
X107180000Y57150000D01*
X53340000Y128317500D02*
X53340000Y182610000D01*
X53340000Y65587500D02*
X53340000Y119880000D01*
X53840000Y128000000D02*
X56380000Y125460000D01*
X53840000Y65270000D02*
X56380000Y62730000D01*
X53840000Y2540000D02*
X56380000Y0D01*
X0Y128000000D02*
X2540000Y125460000D01*
X0Y65270000D02*
X2540000Y62730000D01*
X93527500Y128000000D02*
X106862500Y128000000D01*
X93527500Y65270000D02*
X106862500Y65270000D01*
X93527500Y2540000D02*
X106862500Y2540000D01*
X39687500Y128000000D02*
X53022500Y128000000D01*
X39687500Y65270000D02*
X53022500Y65270000D01*
X39687500Y2540000D02*
X53022500Y2540000D01*
X0Y2540000D02*
X2540000Y0D01*
X53340000Y2857500D02*
X53340000Y57150000D01*
X50800000Y57150000D02*
X48260000Y59690000D01*
X48260000Y59690000D02*
X15240000Y59690000D01*
X0Y55880000D02*
X0Y2540000D01*
X15240000Y59690000D02*
X12700000Y57150000D01*
X53340000Y57150000D02*
X50800000Y57150000D01*
X12700000Y57150000D02*
X1270000Y57150000D01*
X1270000Y57150000D02*
X0Y55880000D01*
X2540000Y0D02*
X39687500Y0D01*
X39687500Y0D02*
X39687500Y2540000D01*
X53022500Y2540000D02*
X53340000Y2857500D01*
D12*
X46828094Y-2432238D02*
X46161427Y-1479857D01*
X45685237Y-2432238D02*
X45685237Y-432238D01*
X45685237Y-432238D02*
X46447142Y-432238D01*
X46447142Y-432238D02*
X46637618Y-527476D01*
X46637618Y-527476D02*
X46732856Y-622714D01*
X46732856Y-622714D02*
X46828094Y-813190D01*
X46828094Y-813190D02*
X46828094Y-1098904D01*
X46828094Y-1098904D02*
X46732856Y-1289380D01*
X46732856Y-1289380D02*
X46637618Y-1384619D01*
X46637618Y-1384619D02*
X46447142Y-1479857D01*
X46447142Y-1479857D02*
X45685237Y-1479857D01*
X48066189Y-432238D02*
X48447142Y-432238D01*
X48447142Y-432238D02*
X48637618Y-527476D01*
X48637618Y-527476D02*
X48828094Y-717952D01*
X48828094Y-717952D02*
X48923332Y-1098904D01*
X48923332Y-1098904D02*
X48923332Y-1765571D01*
X48923332Y-1765571D02*
X48828094Y-2146523D01*
X48828094Y-2146523D02*
X48637618Y-2337000D01*
X48637618Y-2337000D02*
X48447142Y-2432238D01*
X48447142Y-2432238D02*
X48066189Y-2432238D01*
X48066189Y-2432238D02*
X47875713Y-2337000D01*
X47875713Y-2337000D02*
X47685237Y-2146523D01*
X47685237Y-2146523D02*
X47589999Y-1765571D01*
X47589999Y-1765571D02*
X47589999Y-1098904D01*
X47589999Y-1098904D02*
X47685237Y-717952D01*
X47685237Y-717952D02*
X47875713Y-527476D01*
X47875713Y-527476D02*
X48066189Y-432238D01*
X49780475Y-432238D02*
X49780475Y-2051285D01*
X49780475Y-2051285D02*
X49875713Y-2241761D01*
X49875713Y-2241761D02*
X49970951Y-2337000D01*
X49970951Y-2337000D02*
X50161427Y-2432238D01*
X50161427Y-2432238D02*
X50542380Y-2432238D01*
X50542380Y-2432238D02*
X50732856Y-2337000D01*
X50732856Y-2337000D02*
X50828094Y-2241761D01*
X50828094Y-2241761D02*
X50923332Y-2051285D01*
X50923332Y-2051285D02*
X50923332Y-432238D01*
X51589999Y-432238D02*
X52732856Y-432238D01*
X52161427Y-2432238D02*
X52161427Y-432238D01*
X53399523Y-1384619D02*
X54066190Y-1384619D01*
X54351904Y-2432238D02*
X53399523Y-2432238D01*
X53399523Y-2432238D02*
X53399523Y-432238D01*
X53399523Y-432238D02*
X54351904Y-432238D01*
X57113809Y-432238D02*
X57494762Y-432238D01*
X57494762Y-432238D02*
X57685238Y-527476D01*
X57685238Y-527476D02*
X57875714Y-717952D01*
X57875714Y-717952D02*
X57970952Y-1098904D01*
X57970952Y-1098904D02*
X57970952Y-1765571D01*
X57970952Y-1765571D02*
X57875714Y-2146523D01*
X57875714Y-2146523D02*
X57685238Y-2337000D01*
X57685238Y-2337000D02*
X57494762Y-2432238D01*
X57494762Y-2432238D02*
X57113809Y-2432238D01*
X57113809Y-2432238D02*
X56923333Y-2337000D01*
X56923333Y-2337000D02*
X56732857Y-2146523D01*
X56732857Y-2146523D02*
X56637619Y-1765571D01*
X56637619Y-1765571D02*
X56637619Y-1098904D01*
X56637619Y-1098904D02*
X56732857Y-717952D01*
X56732857Y-717952D02*
X56923333Y-527476D01*
X56923333Y-527476D02*
X57113809Y-432238D01*
X58828095Y-432238D02*
X58828095Y-2051285D01*
X58828095Y-2051285D02*
X58923333Y-2241761D01*
X58923333Y-2241761D02*
X59018571Y-2337000D01*
X59018571Y-2337000D02*
X59209047Y-2432238D01*
X59209047Y-2432238D02*
X59590000Y-2432238D01*
X59590000Y-2432238D02*
X59780476Y-2337000D01*
X59780476Y-2337000D02*
X59875714Y-2241761D01*
X59875714Y-2241761D02*
X59970952Y-2051285D01*
X59970952Y-2051285D02*
X59970952Y-432238D01*
X60637619Y-432238D02*
X61780476Y-432238D01*
X61209047Y-2432238D02*
X61209047Y-432238D01*
X46828094Y60297762D02*
X46161427Y61250143D01*
X45685237Y60297762D02*
X45685237Y62297762D01*
X45685237Y62297762D02*
X46447142Y62297762D01*
X46447142Y62297762D02*
X46637618Y62202524D01*
X46637618Y62202524D02*
X46732856Y62107286D01*
X46732856Y62107286D02*
X46828094Y61916810D01*
X46828094Y61916810D02*
X46828094Y61631096D01*
X46828094Y61631096D02*
X46732856Y61440620D01*
X46732856Y61440620D02*
X46637618Y61345381D01*
X46637618Y61345381D02*
X46447142Y61250143D01*
X46447142Y61250143D02*
X45685237Y61250143D01*
X48066189Y62297762D02*
X48447142Y62297762D01*
X48447142Y62297762D02*
X48637618Y62202524D01*
X48637618Y62202524D02*
X48828094Y62012048D01*
X48828094Y62012048D02*
X48923332Y61631096D01*
X48923332Y61631096D02*
X48923332Y60964429D01*
X48923332Y60964429D02*
X48828094Y60583477D01*
X48828094Y60583477D02*
X48637618Y60393000D01*
X48637618Y60393000D02*
X48447142Y60297762D01*
X48447142Y60297762D02*
X48066189Y60297762D01*
X48066189Y60297762D02*
X47875713Y60393000D01*
X47875713Y60393000D02*
X47685237Y60583477D01*
X47685237Y60583477D02*
X47589999Y60964429D01*
X47589999Y60964429D02*
X47589999Y61631096D01*
X47589999Y61631096D02*
X47685237Y62012048D01*
X47685237Y62012048D02*
X47875713Y62202524D01*
X47875713Y62202524D02*
X48066189Y62297762D01*
X49780475Y62297762D02*
X49780475Y60678715D01*
X49780475Y60678715D02*
X49875713Y60488239D01*
X49875713Y60488239D02*
X49970951Y60393000D01*
X49970951Y60393000D02*
X50161427Y60297762D01*
X50161427Y60297762D02*
X50542380Y60297762D01*
X50542380Y60297762D02*
X50732856Y60393000D01*
X50732856Y60393000D02*
X50828094Y60488239D01*
X50828094Y60488239D02*
X50923332Y60678715D01*
X50923332Y60678715D02*
X50923332Y62297762D01*
X51589999Y62297762D02*
X52732856Y62297762D01*
X52161427Y60297762D02*
X52161427Y62297762D01*
X53399523Y61345381D02*
X54066190Y61345381D01*
X54351904Y60297762D02*
X53399523Y60297762D01*
X53399523Y60297762D02*
X53399523Y62297762D01*
X53399523Y62297762D02*
X54351904Y62297762D01*
X57113809Y62297762D02*
X57494762Y62297762D01*
X57494762Y62297762D02*
X57685238Y62202524D01*
X57685238Y62202524D02*
X57875714Y62012048D01*
X57875714Y62012048D02*
X57970952Y61631096D01*
X57970952Y61631096D02*
X57970952Y60964429D01*
X57970952Y60964429D02*
X57875714Y60583477D01*
X57875714Y60583477D02*
X57685238Y60393000D01*
X57685238Y60393000D02*
X57494762Y60297762D01*
X57494762Y60297762D02*
X57113809Y60297762D01*
X57113809Y60297762D02*
X56923333Y60393000D01*
X56923333Y60393000D02*
X56732857Y60583477D01*
X56732857Y60583477D02*
X56637619Y60964429D01*
X56637619Y60964429D02*
X56637619Y61631096D01*
X56637619Y61631096D02*
X56732857Y62012048D01*
X56732857Y62012048D02*
X56923333Y62202524D01*
X56923333Y62202524D02*
X57113809Y62297762D01*
X58828095Y62297762D02*
X58828095Y60678715D01*
X58828095Y60678715D02*
X58923333Y60488239D01*
X58923333Y60488239D02*
X59018571Y60393000D01*
X59018571Y60393000D02*
X59209047Y60297762D01*
X59209047Y60297762D02*
X59590000Y60297762D01*
X59590000Y60297762D02*
X59780476Y60393000D01*
X59780476Y60393000D02*
X59875714Y60488239D01*
X59875714Y60488239D02*
X59970952Y60678715D01*
X59970952Y60678715D02*
X59970952Y62297762D01*
X60637619Y62297762D02*
X61780476Y62297762D01*
X61209047Y60297762D02*
X61209047Y62297762D01*
X46828094Y123027761D02*
X46161427Y123980142D01*
X45685237Y123027761D02*
X45685237Y125027761D01*
X45685237Y125027761D02*
X46447142Y125027761D01*
X46447142Y125027761D02*
X46637618Y124932523D01*
X46637618Y124932523D02*
X46732856Y124837285D01*
X46732856Y124837285D02*
X46828094Y124646809D01*
X46828094Y124646809D02*
X46828094Y124361095D01*
X46828094Y124361095D02*
X46732856Y124170619D01*
X46732856Y124170619D02*
X46637618Y124075380D01*
X46637618Y124075380D02*
X46447142Y123980142D01*
X46447142Y123980142D02*
X45685237Y123980142D01*
X48066189Y125027761D02*
X48447142Y125027761D01*
X48447142Y125027761D02*
X48637618Y124932523D01*
X48637618Y124932523D02*
X48828094Y124742047D01*
X48828094Y124742047D02*
X48923332Y124361095D01*
X48923332Y124361095D02*
X48923332Y123694428D01*
X48923332Y123694428D02*
X48828094Y123313476D01*
X48828094Y123313476D02*
X48637618Y123123000D01*
X48637618Y123123000D02*
X48447142Y123027761D01*
X48447142Y123027761D02*
X48066189Y123027761D01*
X48066189Y123027761D02*
X47875713Y123123000D01*
X47875713Y123123000D02*
X47685237Y123313476D01*
X47685237Y123313476D02*
X47589999Y123694428D01*
X47589999Y123694428D02*
X47589999Y124361095D01*
X47589999Y124361095D02*
X47685237Y124742047D01*
X47685237Y124742047D02*
X47875713Y124932523D01*
X47875713Y124932523D02*
X48066189Y125027761D01*
X49780475Y125027761D02*
X49780475Y123408714D01*
X49780475Y123408714D02*
X49875713Y123218238D01*
X49875713Y123218238D02*
X49970951Y123123000D01*
X49970951Y123123000D02*
X50161427Y123027761D01*
X50161427Y123027761D02*
X50542380Y123027761D01*
X50542380Y123027761D02*
X50732856Y123123000D01*
X50732856Y123123000D02*
X50828094Y123218238D01*
X50828094Y123218238D02*
X50923332Y123408714D01*
X50923332Y123408714D02*
X50923332Y125027761D01*
X51589999Y125027761D02*
X52732856Y125027761D01*
X52161427Y123027761D02*
X52161427Y125027761D01*
X53399523Y124075380D02*
X54066190Y124075380D01*
X54351904Y123027761D02*
X53399523Y123027761D01*
X53399523Y123027761D02*
X53399523Y125027761D01*
X53399523Y125027761D02*
X54351904Y125027761D01*
X57113809Y125027761D02*
X57494762Y125027761D01*
X57494762Y125027761D02*
X57685238Y124932523D01*
X57685238Y124932523D02*
X57875714Y124742047D01*
X57875714Y124742047D02*
X57970952Y124361095D01*
X57970952Y124361095D02*
X57970952Y123694428D01*
X57970952Y123694428D02*
X57875714Y123313476D01*
X57875714Y123313476D02*
X57685238Y123123000D01*
X57685238Y123123000D02*
X57494762Y123027761D01*
X57494762Y123027761D02*
X57113809Y123027761D01*
X57113809Y123027761D02*
X56923333Y123123000D01*
X56923333Y123123000D02*
X56732857Y123313476D01*
X56732857Y123313476D02*
X56637619Y123694428D01*
X56637619Y123694428D02*
X56637619Y124361095D01*
X56637619Y124361095D02*
X56732857Y124742047D01*
X56732857Y124742047D02*
X56923333Y124932523D01*
X56923333Y124932523D02*
X57113809Y125027761D01*
X58828095Y125027761D02*
X58828095Y123408714D01*
X58828095Y123408714D02*
X58923333Y123218238D01*
X58923333Y123218238D02*
X59018571Y123123000D01*
X59018571Y123123000D02*
X59209047Y123027761D01*
X59209047Y123027761D02*
X59590000Y123027761D01*
X59590000Y123027761D02*
X59780476Y123123000D01*
X59780476Y123123000D02*
X59875714Y123218238D01*
X59875714Y123218238D02*
X59970952Y123408714D01*
X59970952Y123408714D02*
X59970952Y125027761D01*
X60637619Y125027761D02*
X61780476Y125027761D01*
X61209047Y123027761D02*
X61209047Y125027761D01*
X46828094Y185757761D02*
X46161427Y186710142D01*
X45685237Y185757761D02*
X45685237Y187757761D01*
X45685237Y187757761D02*
X46447142Y187757761D01*
X46447142Y187757761D02*
X46637618Y187662523D01*
X46637618Y187662523D02*
X46732856Y187567285D01*
X46732856Y187567285D02*
X46828094Y187376809D01*
X46828094Y187376809D02*
X46828094Y187091095D01*
X46828094Y187091095D02*
X46732856Y186900619D01*
X46732856Y186900619D02*
X46637618Y186805380D01*
X46637618Y186805380D02*
X46447142Y186710142D01*
X46447142Y186710142D02*
X45685237Y186710142D01*
X48066189Y187757761D02*
X48447142Y187757761D01*
X48447142Y187757761D02*
X48637618Y187662523D01*
X48637618Y187662523D02*
X48828094Y187472047D01*
X48828094Y187472047D02*
X48923332Y187091095D01*
X48923332Y187091095D02*
X48923332Y186424428D01*
X48923332Y186424428D02*
X48828094Y186043476D01*
X48828094Y186043476D02*
X48637618Y185853000D01*
X48637618Y185853000D02*
X48447142Y185757761D01*
X48447142Y185757761D02*
X48066189Y185757761D01*
X48066189Y185757761D02*
X47875713Y185853000D01*
X47875713Y185853000D02*
X47685237Y186043476D01*
X47685237Y186043476D02*
X47589999Y186424428D01*
X47589999Y186424428D02*
X47589999Y187091095D01*
X47589999Y187091095D02*
X47685237Y187472047D01*
X47685237Y187472047D02*
X47875713Y187662523D01*
X47875713Y187662523D02*
X48066189Y187757761D01*
X49780475Y187757761D02*
X49780475Y186138714D01*
X49780475Y186138714D02*
X49875713Y185948238D01*
X49875713Y185948238D02*
X49970951Y185853000D01*
X49970951Y185853000D02*
X50161427Y185757761D01*
X50161427Y185757761D02*
X50542380Y185757761D01*
X50542380Y185757761D02*
X50732856Y185853000D01*
X50732856Y185853000D02*
X50828094Y185948238D01*
X50828094Y185948238D02*
X50923332Y186138714D01*
X50923332Y186138714D02*
X50923332Y187757761D01*
X51589999Y187757761D02*
X52732856Y187757761D01*
X52161427Y185757761D02*
X52161427Y187757761D01*
X53399523Y186805380D02*
X54066190Y186805380D01*
X54351904Y185757761D02*
X53399523Y185757761D01*
X53399523Y185757761D02*
X53399523Y187757761D01*
X53399523Y187757761D02*
X54351904Y187757761D01*
X57113809Y187757761D02*
X57494762Y187757761D01*
X57494762Y187757761D02*
X57685238Y187662523D01*
X57685238Y187662523D02*
X57875714Y187472047D01*
X57875714Y187472047D02*
X57970952Y187091095D01*
X57970952Y187091095D02*
X57970952Y186424428D01*
X57970952Y186424428D02*
X57875714Y186043476D01*
X57875714Y186043476D02*
X57685238Y185853000D01*
X57685238Y185853000D02*
X57494762Y185757761D01*
X57494762Y185757761D02*
X57113809Y185757761D01*
X57113809Y185757761D02*
X56923333Y185853000D01*
X56923333Y185853000D02*
X56732857Y186043476D01*
X56732857Y186043476D02*
X56637619Y186424428D01*
X56637619Y186424428D02*
X56637619Y187091095D01*
X56637619Y187091095D02*
X56732857Y187472047D01*
X56732857Y187472047D02*
X56923333Y187662523D01*
X56923333Y187662523D02*
X57113809Y187757761D01*
X58828095Y187757761D02*
X58828095Y186138714D01*
X58828095Y186138714D02*
X58923333Y185948238D01*
X58923333Y185948238D02*
X59018571Y185853000D01*
X59018571Y185853000D02*
X59209047Y185757761D01*
X59209047Y185757761D02*
X59590000Y185757761D01*
X59590000Y185757761D02*
X59780476Y185853000D01*
X59780476Y185853000D02*
X59875714Y185948238D01*
X59875714Y185948238D02*
X59970952Y186138714D01*
X59970952Y186138714D02*
X59970952Y187757761D01*
X60637619Y187757761D02*
X61780476Y187757761D01*
X61209047Y185757761D02*
X61209047Y187757761D01*
X106342238Y197106049D02*
X108342238Y197772715D01*
X108342238Y197772715D02*
X106342238Y198439382D01*
X107580333Y199106049D02*
X107580333Y200629859D01*
X108247000Y201487001D02*
X108342238Y201772715D01*
X108342238Y201772715D02*
X108342238Y202248906D01*
X108342238Y202248906D02*
X108247000Y202439382D01*
X108247000Y202439382D02*
X108151761Y202534620D01*
X108151761Y202534620D02*
X107961285Y202629858D01*
X107961285Y202629858D02*
X107770809Y202629858D01*
X107770809Y202629858D02*
X107580333Y202534620D01*
X107580333Y202534620D02*
X107485095Y202439382D01*
X107485095Y202439382D02*
X107389857Y202248906D01*
X107389857Y202248906D02*
X107294619Y201867953D01*
X107294619Y201867953D02*
X107199380Y201677477D01*
X107199380Y201677477D02*
X107104142Y201582239D01*
X107104142Y201582239D02*
X106913666Y201487001D01*
X106913666Y201487001D02*
X106723190Y201487001D01*
X106723190Y201487001D02*
X106532714Y201582239D01*
X106532714Y201582239D02*
X106437476Y201677477D01*
X106437476Y201677477D02*
X106342238Y201867953D01*
X106342238Y201867953D02*
X106342238Y202344144D01*
X106342238Y202344144D02*
X106437476Y202629858D01*
X108151761Y204629858D02*
X108247000Y204534620D01*
X108247000Y204534620D02*
X108342238Y204248906D01*
X108342238Y204248906D02*
X108342238Y204058430D01*
X108342238Y204058430D02*
X108247000Y203772715D01*
X108247000Y203772715D02*
X108056523Y203582239D01*
X108056523Y203582239D02*
X107866047Y203487001D01*
X107866047Y203487001D02*
X107485095Y203391763D01*
X107485095Y203391763D02*
X107199380Y203391763D01*
X107199380Y203391763D02*
X106818428Y203487001D01*
X106818428Y203487001D02*
X106627952Y203582239D01*
X106627952Y203582239D02*
X106437476Y203772715D01*
X106437476Y203772715D02*
X106342238Y204058430D01*
X106342238Y204058430D02*
X106342238Y204248906D01*
X106342238Y204248906D02*
X106437476Y204534620D01*
X106437476Y204534620D02*
X106532714Y204629858D01*
X106342238Y205867953D02*
X106342238Y206248906D01*
X106342238Y206248906D02*
X106437476Y206439382D01*
X106437476Y206439382D02*
X106627952Y206629858D01*
X106627952Y206629858D02*
X107008904Y206725096D01*
X107008904Y206725096D02*
X107675571Y206725096D01*
X107675571Y206725096D02*
X108056523Y206629858D01*
X108056523Y206629858D02*
X108247000Y206439382D01*
X108247000Y206439382D02*
X108342238Y206248906D01*
X108342238Y206248906D02*
X108342238Y205867953D01*
X108342238Y205867953D02*
X108247000Y205677477D01*
X108247000Y205677477D02*
X108056523Y205487001D01*
X108056523Y205487001D02*
X107675571Y205391763D01*
X107675571Y205391763D02*
X107008904Y205391763D01*
X107008904Y205391763D02*
X106627952Y205487001D01*
X106627952Y205487001D02*
X106437476Y205677477D01*
X106437476Y205677477D02*
X106342238Y205867953D01*
X108342238Y208725096D02*
X107389857Y208058429D01*
X108342238Y207582239D02*
X106342238Y207582239D01*
X106342238Y207582239D02*
X106342238Y208344144D01*
X106342238Y208344144D02*
X106437476Y208534620D01*
X106437476Y208534620D02*
X106532714Y208629858D01*
X106532714Y208629858D02*
X106723190Y208725096D01*
X106723190Y208725096D02*
X107008904Y208725096D01*
X107008904Y208725096D02*
X107199380Y208629858D01*
X107199380Y208629858D02*
X107294619Y208534620D01*
X107294619Y208534620D02*
X107389857Y208344144D01*
X107389857Y208344144D02*
X107389857Y207582239D01*
X107294619Y209582239D02*
X107294619Y210248906D01*
X108342238Y210534620D02*
X108342238Y209582239D01*
X108342238Y209582239D02*
X106342238Y209582239D01*
X106342238Y209582239D02*
X106342238Y210534620D01*
D13*
X107430000Y194751100D02*
X107430000Y-9601100D01*
D12*
X52502238Y197106049D02*
X54502238Y197772715D01*
X54502238Y197772715D02*
X52502238Y198439382D01*
X53740333Y199106049D02*
X53740333Y200629859D01*
X54407000Y201487001D02*
X54502238Y201772715D01*
X54502238Y201772715D02*
X54502238Y202248906D01*
X54502238Y202248906D02*
X54407000Y202439382D01*
X54407000Y202439382D02*
X54311761Y202534620D01*
X54311761Y202534620D02*
X54121285Y202629858D01*
X54121285Y202629858D02*
X53930809Y202629858D01*
X53930809Y202629858D02*
X53740333Y202534620D01*
X53740333Y202534620D02*
X53645095Y202439382D01*
X53645095Y202439382D02*
X53549857Y202248906D01*
X53549857Y202248906D02*
X53454619Y201867953D01*
X53454619Y201867953D02*
X53359380Y201677477D01*
X53359380Y201677477D02*
X53264142Y201582239D01*
X53264142Y201582239D02*
X53073666Y201487001D01*
X53073666Y201487001D02*
X52883190Y201487001D01*
X52883190Y201487001D02*
X52692714Y201582239D01*
X52692714Y201582239D02*
X52597476Y201677477D01*
X52597476Y201677477D02*
X52502238Y201867953D01*
X52502238Y201867953D02*
X52502238Y202344144D01*
X52502238Y202344144D02*
X52597476Y202629858D01*
X54311761Y204629858D02*
X54407000Y204534620D01*
X54407000Y204534620D02*
X54502238Y204248906D01*
X54502238Y204248906D02*
X54502238Y204058430D01*
X54502238Y204058430D02*
X54407000Y203772715D01*
X54407000Y203772715D02*
X54216523Y203582239D01*
X54216523Y203582239D02*
X54026047Y203487001D01*
X54026047Y203487001D02*
X53645095Y203391763D01*
X53645095Y203391763D02*
X53359380Y203391763D01*
X53359380Y203391763D02*
X52978428Y203487001D01*
X52978428Y203487001D02*
X52787952Y203582239D01*
X52787952Y203582239D02*
X52597476Y203772715D01*
X52597476Y203772715D02*
X52502238Y204058430D01*
X52502238Y204058430D02*
X52502238Y204248906D01*
X52502238Y204248906D02*
X52597476Y204534620D01*
X52597476Y204534620D02*
X52692714Y204629858D01*
X52502238Y205867953D02*
X52502238Y206248906D01*
X52502238Y206248906D02*
X52597476Y206439382D01*
X52597476Y206439382D02*
X52787952Y206629858D01*
X52787952Y206629858D02*
X53168904Y206725096D01*
X53168904Y206725096D02*
X53835571Y206725096D01*
X53835571Y206725096D02*
X54216523Y206629858D01*
X54216523Y206629858D02*
X54407000Y206439382D01*
X54407000Y206439382D02*
X54502238Y206248906D01*
X54502238Y206248906D02*
X54502238Y205867953D01*
X54502238Y205867953D02*
X54407000Y205677477D01*
X54407000Y205677477D02*
X54216523Y205487001D01*
X54216523Y205487001D02*
X53835571Y205391763D01*
X53835571Y205391763D02*
X53168904Y205391763D01*
X53168904Y205391763D02*
X52787952Y205487001D01*
X52787952Y205487001D02*
X52597476Y205677477D01*
X52597476Y205677477D02*
X52502238Y205867953D01*
X54502238Y208725096D02*
X53549857Y208058429D01*
X54502238Y207582239D02*
X52502238Y207582239D01*
X52502238Y207582239D02*
X52502238Y208344144D01*
X52502238Y208344144D02*
X52597476Y208534620D01*
X52597476Y208534620D02*
X52692714Y208629858D01*
X52692714Y208629858D02*
X52883190Y208725096D01*
X52883190Y208725096D02*
X53168904Y208725096D01*
X53168904Y208725096D02*
X53359380Y208629858D01*
X53359380Y208629858D02*
X53454619Y208534620D01*
X53454619Y208534620D02*
X53549857Y208344144D01*
X53549857Y208344144D02*
X53549857Y207582239D01*
X53454619Y209582239D02*
X53454619Y210248906D01*
X54502238Y210534620D02*
X54502238Y209582239D01*
X54502238Y209582239D02*
X52502238Y209582239D01*
X52502238Y209582239D02*
X52502238Y210534620D01*
D13*
X53590000Y194751100D02*
X53590000Y-9601100D01*
D12*
X-1337762Y197106049D02*
X662238Y197772715D01*
X662238Y197772715D02*
X-1337762Y198439382D01*
X-99667Y199106049D02*
X-99667Y200629859D01*
X567000Y201487001D02*
X662238Y201772715D01*
X662238Y201772715D02*
X662238Y202248906D01*
X662238Y202248906D02*
X567000Y202439382D01*
X567000Y202439382D02*
X471761Y202534620D01*
X471761Y202534620D02*
X281285Y202629858D01*
X281285Y202629858D02*
X90809Y202629858D01*
X90809Y202629858D02*
X-99667Y202534620D01*
X-99667Y202534620D02*
X-194905Y202439382D01*
X-194905Y202439382D02*
X-290143Y202248906D01*
X-290143Y202248906D02*
X-385381Y201867953D01*
X-385381Y201867953D02*
X-480620Y201677477D01*
X-480620Y201677477D02*
X-575858Y201582239D01*
X-575858Y201582239D02*
X-766334Y201487001D01*
X-766334Y201487001D02*
X-956810Y201487001D01*
X-956810Y201487001D02*
X-1147286Y201582239D01*
X-1147286Y201582239D02*
X-1242524Y201677477D01*
X-1242524Y201677477D02*
X-1337762Y201867953D01*
X-1337762Y201867953D02*
X-1337762Y202344144D01*
X-1337762Y202344144D02*
X-1242524Y202629858D01*
X471761Y204629858D02*
X567000Y204534620D01*
X567000Y204534620D02*
X662238Y204248906D01*
X662238Y204248906D02*
X662238Y204058430D01*
X662238Y204058430D02*
X567000Y203772715D01*
X567000Y203772715D02*
X376523Y203582239D01*
X376523Y203582239D02*
X186047Y203487001D01*
X186047Y203487001D02*
X-194905Y203391763D01*
X-194905Y203391763D02*
X-480620Y203391763D01*
X-480620Y203391763D02*
X-861572Y203487001D01*
X-861572Y203487001D02*
X-1052048Y203582239D01*
X-1052048Y203582239D02*
X-1242524Y203772715D01*
X-1242524Y203772715D02*
X-1337762Y204058430D01*
X-1337762Y204058430D02*
X-1337762Y204248906D01*
X-1337762Y204248906D02*
X-1242524Y204534620D01*
X-1242524Y204534620D02*
X-1147286Y204629858D01*
X-1337762Y205867953D02*
X-1337762Y206248906D01*
X-1337762Y206248906D02*
X-1242524Y206439382D01*
X-1242524Y206439382D02*
X-1052048Y206629858D01*
X-1052048Y206629858D02*
X-671096Y206725096D01*
X-671096Y206725096D02*
X-4429Y206725096D01*
X-4429Y206725096D02*
X376523Y206629858D01*
X376523Y206629858D02*
X567000Y206439382D01*
X567000Y206439382D02*
X662238Y206248906D01*
X662238Y206248906D02*
X662238Y205867953D01*
X662238Y205867953D02*
X567000Y205677477D01*
X567000Y205677477D02*
X376523Y205487001D01*
X376523Y205487001D02*
X-4429Y205391763D01*
X-4429Y205391763D02*
X-671096Y205391763D01*
X-671096Y205391763D02*
X-1052048Y205487001D01*
X-1052048Y205487001D02*
X-1242524Y205677477D01*
X-1242524Y205677477D02*
X-1337762Y205867953D01*
X662238Y208725096D02*
X-290143Y208058429D01*
X662238Y207582239D02*
X-1337762Y207582239D01*
X-1337762Y207582239D02*
X-1337762Y208344144D01*
X-1337762Y208344144D02*
X-1242524Y208534620D01*
X-1242524Y208534620D02*
X-1147286Y208629858D01*
X-1147286Y208629858D02*
X-956810Y208725096D01*
X-956810Y208725096D02*
X-671096Y208725096D01*
X-671096Y208725096D02*
X-480620Y208629858D01*
X-480620Y208629858D02*
X-385381Y208534620D01*
X-385381Y208534620D02*
X-290143Y208344144D01*
X-290143Y208344144D02*
X-290143Y207582239D01*
X-385381Y209582239D02*
X-385381Y210248906D01*
X662238Y210534620D02*
X662238Y209582239D01*
X662238Y209582239D02*
X-1337762Y209582239D01*
X-1337762Y209582239D02*
X-1337762Y210534620D01*
D13*
X-250000Y194751100D02*
X-250000Y-9601100D01*
M02*
