%TF.GenerationSoftware,KiCad,Pcbnew,8.0.7*%
%TF.CreationDate,2025-02-05T15:45:41-07:00*%
%TF.ProjectId,SparkFun_Serial_MP3_Player_Shield_MY1690X_panelized,53706172-6b46-4756-9e5f-53657269616c,rev?*%
%TF.SameCoordinates,Original*%
%TF.FileFunction,Paste,Top*%
%TF.FilePolarity,Positive*%
%FSLAX46Y46*%
G04 Gerber Fmt 4.6, Leading zero omitted, Abs format (unit mm)*
G04 Created by KiCad (PCBNEW 8.0.7) date 2025-02-05 15:45:41*
%MOMM*%
%LPD*%
G01*
G04 APERTURE LIST*
G04 Aperture macros list*
%AMRoundRect*
0 Rectangle with rounded corners*
0 $1 Rounding radius*
0 $2 $3 $4 $5 $6 $7 $8 $9 X,Y pos of 4 corners*
0 Add a 4 corners polygon primitive as box body*
4,1,4,$2,$3,$4,$5,$6,$7,$8,$9,$2,$3,0*
0 Add four circle primitives for the rounded corners*
1,1,$1+$1,$2,$3*
1,1,$1+$1,$4,$5*
1,1,$1+$1,$6,$7*
1,1,$1+$1,$8,$9*
0 Add four rect primitives between the rounded corners*
20,1,$1+$1,$2,$3,$4,$5,0*
20,1,$1+$1,$4,$5,$6,$7,0*
20,1,$1+$1,$6,$7,$8,$9,0*
20,1,$1+$1,$8,$9,$2,$3,0*%
G04 Aperture macros list end*
%ADD10RoundRect,0.225000X0.225000X0.250000X-0.225000X0.250000X-0.225000X-0.250000X0.225000X-0.250000X0*%
%ADD11R,0.300000X1.000000*%
%ADD12R,0.400000X1.000000*%
%ADD13O,1.000000X1.600000*%
%ADD14O,1.000000X2.100000*%
%ADD15RoundRect,0.200000X0.200000X0.275000X-0.200000X0.275000X-0.200000X-0.275000X0.200000X-0.275000X0*%
%ADD16R,0.800000X1.200000*%
%ADD17RoundRect,0.218750X0.218750X0.256250X-0.218750X0.256250X-0.218750X-0.256250X0.218750X-0.256250X0*%
%ADD18RoundRect,0.225000X-0.225000X-0.250000X0.225000X-0.250000X0.225000X0.250000X-0.225000X0.250000X0*%
%ADD19R,0.830000X0.630000*%
%ADD20R,0.700000X1.600000*%
%ADD21R,1.200000X1.600000*%
%ADD22R,1.200000X2.200000*%
%ADD23R,1.600000X1.400000*%
%ADD24R,0.600000X1.350000*%
%ADD25R,1.200000X2.000000*%
%ADD26R,0.800000X0.900000*%
%ADD27RoundRect,0.200000X-0.200000X-0.275000X0.200000X-0.275000X0.200000X0.275000X-0.200000X0.275000X0*%
%ADD28R,0.630000X0.830000*%
%ADD29R,2.500000X1.200000*%
%ADD30R,0.600000X1.200000*%
%ADD31RoundRect,0.250000X0.475000X-0.250000X0.475000X0.250000X-0.475000X0.250000X-0.475000X-0.250000X0*%
%ADD32RoundRect,0.225000X-0.250000X0.225000X-0.250000X-0.225000X0.250000X-0.225000X0.250000X0.225000X0*%
%ADD33R,1.524000X0.762000*%
%ADD34R,1.200000X0.550000*%
G04 APERTURE END LIST*
D10*
%TO.C,C2*%
X73030000Y167687500D03*
X71480000Y167687500D03*
%TD*%
%TO.C,C2*%
X73030000Y104957500D03*
X71480000Y104957500D03*
%TD*%
%TO.C,C2*%
X73030000Y42227500D03*
X71480000Y42227500D03*
%TD*%
%TO.C,C2*%
X19190000Y167687500D03*
X17640000Y167687500D03*
%TD*%
%TO.C,C2*%
X19190000Y104957500D03*
X17640000Y104957500D03*
%TD*%
%TO.C,C3*%
X73030000Y165147500D03*
X71480000Y165147500D03*
%TD*%
%TO.C,C3*%
X73030000Y102417500D03*
X71480000Y102417500D03*
%TD*%
%TO.C,C3*%
X73030000Y39687500D03*
X71480000Y39687500D03*
%TD*%
%TO.C,C3*%
X19190000Y165147500D03*
X17640000Y165147500D03*
%TD*%
%TO.C,C3*%
X19190000Y102417500D03*
X17640000Y102417500D03*
%TD*%
D11*
%TO.C,J4*%
X97635000Y179140000D03*
X96635000Y179140000D03*
X96135000Y179140000D03*
X95135000Y179140000D03*
X94635000Y179140000D03*
X95635000Y179140000D03*
X97135000Y179140000D03*
X98135000Y179140000D03*
D12*
X99610000Y179140000D03*
X93160000Y179140000D03*
D13*
X100703000Y183895000D03*
D14*
X100703000Y179715000D03*
X92067000Y179715000D03*
D13*
X92067000Y183895000D03*
D12*
X98835000Y179140000D03*
X93935000Y179140000D03*
%TD*%
D11*
%TO.C,J4*%
X97635000Y116410000D03*
X96635000Y116410000D03*
X96135000Y116410000D03*
X95135000Y116410000D03*
X94635000Y116410000D03*
X95635000Y116410000D03*
X97135000Y116410000D03*
X98135000Y116410000D03*
D12*
X99610000Y116410000D03*
X93160000Y116410000D03*
D13*
X100703000Y121165000D03*
D14*
X100703000Y116985000D03*
X92067000Y116985000D03*
D13*
X92067000Y121165000D03*
D12*
X98835000Y116410000D03*
X93935000Y116410000D03*
%TD*%
D11*
%TO.C,J4*%
X97635000Y53680000D03*
X96635000Y53680000D03*
X96135000Y53680000D03*
X95135000Y53680000D03*
X94635000Y53680000D03*
X95635000Y53680000D03*
X97135000Y53680000D03*
X98135000Y53680000D03*
D12*
X99610000Y53680000D03*
X93160000Y53680000D03*
D13*
X100703000Y58435000D03*
D14*
X100703000Y54255000D03*
X92067000Y54255000D03*
D13*
X92067000Y58435000D03*
D12*
X98835000Y53680000D03*
X93935000Y53680000D03*
%TD*%
D11*
%TO.C,J4*%
X43795000Y179140000D03*
X42795000Y179140000D03*
X42295000Y179140000D03*
X41295000Y179140000D03*
X40795000Y179140000D03*
X41795000Y179140000D03*
X43295000Y179140000D03*
X44295000Y179140000D03*
D12*
X45770000Y179140000D03*
X39320000Y179140000D03*
D13*
X46863000Y183895000D03*
D14*
X46863000Y179715000D03*
X38227000Y179715000D03*
D13*
X38227000Y183895000D03*
D12*
X44995000Y179140000D03*
X40095000Y179140000D03*
%TD*%
D11*
%TO.C,J4*%
X43795000Y116410000D03*
X42795000Y116410000D03*
X42295000Y116410000D03*
X41295000Y116410000D03*
X40795000Y116410000D03*
X41795000Y116410000D03*
X43295000Y116410000D03*
X44295000Y116410000D03*
D12*
X45770000Y116410000D03*
X39320000Y116410000D03*
D13*
X46863000Y121165000D03*
D14*
X46863000Y116985000D03*
X38227000Y116985000D03*
D13*
X38227000Y121165000D03*
D12*
X44995000Y116410000D03*
X40095000Y116410000D03*
%TD*%
D15*
%TO.C,R3*%
X100067500Y175625000D03*
X98417500Y175625000D03*
%TD*%
%TO.C,R3*%
X100067500Y112895000D03*
X98417500Y112895000D03*
%TD*%
%TO.C,R3*%
X100067500Y50165000D03*
X98417500Y50165000D03*
%TD*%
%TO.C,R3*%
X46227500Y175625000D03*
X44577500Y175625000D03*
%TD*%
%TO.C,R3*%
X46227500Y112895000D03*
X44577500Y112895000D03*
%TD*%
D16*
%TO.C,F1*%
X95485000Y173402500D03*
X97285000Y173402500D03*
%TD*%
%TO.C,F1*%
X95485000Y110672500D03*
X97285000Y110672500D03*
%TD*%
%TO.C,F1*%
X95485000Y47942500D03*
X97285000Y47942500D03*
%TD*%
%TO.C,F1*%
X41645000Y173402500D03*
X43445000Y173402500D03*
%TD*%
%TO.C,F1*%
X41645000Y110672500D03*
X43445000Y110672500D03*
%TD*%
D17*
%TO.C,D4*%
X65422500Y155305000D03*
X63847500Y155305000D03*
%TD*%
%TO.C,D4*%
X65422500Y92575000D03*
X63847500Y92575000D03*
%TD*%
%TO.C,D4*%
X65422500Y29845000D03*
X63847500Y29845000D03*
%TD*%
%TO.C,D4*%
X11582500Y155305000D03*
X10007500Y155305000D03*
%TD*%
%TO.C,D4*%
X11582500Y92575000D03*
X10007500Y92575000D03*
%TD*%
D18*
%TO.C,C1*%
X83545000Y152130000D03*
X85095000Y152130000D03*
%TD*%
%TO.C,C1*%
X83545000Y89400000D03*
X85095000Y89400000D03*
%TD*%
%TO.C,C1*%
X83545000Y26670000D03*
X85095000Y26670000D03*
%TD*%
%TO.C,C1*%
X29705000Y152130000D03*
X31255000Y152130000D03*
%TD*%
%TO.C,C1*%
X29705000Y89400000D03*
X31255000Y89400000D03*
%TD*%
D19*
%TO.C,D2*%
X70985000Y158677500D03*
X70985000Y156377500D03*
%TD*%
%TO.C,D2*%
X70985000Y95947500D03*
X70985000Y93647500D03*
%TD*%
%TO.C,D2*%
X70985000Y33217500D03*
X70985000Y30917500D03*
%TD*%
%TO.C,D2*%
X17145000Y158677500D03*
X17145000Y156377500D03*
%TD*%
%TO.C,D2*%
X17145000Y95947500D03*
X17145000Y93647500D03*
%TD*%
D15*
%TO.C,R4*%
X89907500Y154352500D03*
X88257500Y154352500D03*
%TD*%
%TO.C,R4*%
X89907500Y91622500D03*
X88257500Y91622500D03*
%TD*%
%TO.C,R4*%
X89907500Y28892500D03*
X88257500Y28892500D03*
%TD*%
%TO.C,R4*%
X36067500Y154352500D03*
X34417500Y154352500D03*
%TD*%
%TO.C,R4*%
X36067500Y91622500D03*
X34417500Y91622500D03*
%TD*%
D20*
%TO.C,J6*%
X70005000Y170522500D03*
X71105000Y170522500D03*
X72205000Y170522500D03*
X73305000Y170522500D03*
X74405000Y170522500D03*
X75505000Y170522500D03*
X76605000Y170522500D03*
X77705000Y170522500D03*
X78805000Y170522500D03*
D21*
X80005000Y171122500D03*
D22*
X80005000Y180622500D03*
X64505000Y180622500D03*
D23*
X65405000Y171022500D03*
%TD*%
D20*
%TO.C,J6*%
X70005000Y107792500D03*
X71105000Y107792500D03*
X72205000Y107792500D03*
X73305000Y107792500D03*
X74405000Y107792500D03*
X75505000Y107792500D03*
X76605000Y107792500D03*
X77705000Y107792500D03*
X78805000Y107792500D03*
D21*
X80005000Y108392500D03*
D22*
X80005000Y117892500D03*
X64505000Y117892500D03*
D23*
X65405000Y108292500D03*
%TD*%
D20*
%TO.C,J6*%
X70005000Y45062500D03*
X71105000Y45062500D03*
X72205000Y45062500D03*
X73305000Y45062500D03*
X74405000Y45062500D03*
X75505000Y45062500D03*
X76605000Y45062500D03*
X77705000Y45062500D03*
X78805000Y45062500D03*
D21*
X80005000Y45662500D03*
D22*
X80005000Y55162500D03*
X64505000Y55162500D03*
D23*
X65405000Y45562500D03*
%TD*%
D20*
%TO.C,J6*%
X16165000Y170522500D03*
X17265000Y170522500D03*
X18365000Y170522500D03*
X19465000Y170522500D03*
X20565000Y170522500D03*
X21665000Y170522500D03*
X22765000Y170522500D03*
X23865000Y170522500D03*
X24965000Y170522500D03*
D21*
X26165000Y171122500D03*
D22*
X26165000Y180622500D03*
X10665000Y180622500D03*
D23*
X11565000Y171022500D03*
%TD*%
D20*
%TO.C,J6*%
X16165000Y107792500D03*
X17265000Y107792500D03*
X18365000Y107792500D03*
X19465000Y107792500D03*
X20565000Y107792500D03*
X21665000Y107792500D03*
X22765000Y107792500D03*
X23865000Y107792500D03*
X24965000Y107792500D03*
D21*
X26165000Y108392500D03*
D22*
X26165000Y117892500D03*
X10665000Y117892500D03*
D23*
X11565000Y108292500D03*
%TD*%
D17*
%TO.C,D1*%
X97172500Y155305000D03*
X95597500Y155305000D03*
%TD*%
%TO.C,D1*%
X97172500Y92575000D03*
X95597500Y92575000D03*
%TD*%
%TO.C,D1*%
X97172500Y29845000D03*
X95597500Y29845000D03*
%TD*%
%TO.C,D1*%
X43332500Y155305000D03*
X41757500Y155305000D03*
%TD*%
%TO.C,D1*%
X43332500Y92575000D03*
X41757500Y92575000D03*
%TD*%
D24*
%TO.C,J3*%
X60737500Y177847500D03*
X59737500Y177847500D03*
X58737500Y177847500D03*
X57737500Y177847500D03*
D25*
X56437500Y181522500D03*
X62037500Y181522500D03*
%TD*%
D24*
%TO.C,J3*%
X60737500Y115117500D03*
X59737500Y115117500D03*
X58737500Y115117500D03*
X57737500Y115117500D03*
D25*
X56437500Y118792500D03*
X62037500Y118792500D03*
%TD*%
D24*
%TO.C,J3*%
X60737500Y52387500D03*
X59737500Y52387500D03*
X58737500Y52387500D03*
X57737500Y52387500D03*
D25*
X56437500Y56062500D03*
X62037500Y56062500D03*
%TD*%
D24*
%TO.C,J3*%
X6897500Y177847500D03*
X5897500Y177847500D03*
X4897500Y177847500D03*
X3897500Y177847500D03*
D25*
X2597500Y181522500D03*
X8197500Y181522500D03*
%TD*%
D24*
%TO.C,J3*%
X6897500Y115117500D03*
X5897500Y115117500D03*
X4897500Y115117500D03*
X3897500Y115117500D03*
D25*
X2597500Y118792500D03*
X8197500Y118792500D03*
%TD*%
D26*
%TO.C,Q1*%
X90032500Y158210000D03*
X88132500Y158210000D03*
X89082500Y156110000D03*
%TD*%
%TO.C,Q1*%
X90032500Y95480000D03*
X88132500Y95480000D03*
X89082500Y93380000D03*
%TD*%
%TO.C,Q1*%
X90032500Y32750000D03*
X88132500Y32750000D03*
X89082500Y30650000D03*
%TD*%
%TO.C,Q1*%
X36192500Y158210000D03*
X34292500Y158210000D03*
X35242500Y156110000D03*
%TD*%
%TO.C,Q1*%
X36192500Y95480000D03*
X34292500Y95480000D03*
X35242500Y93380000D03*
%TD*%
D27*
%TO.C,R9*%
X63810000Y157210000D03*
X65460000Y157210000D03*
%TD*%
%TO.C,R9*%
X63810000Y94480000D03*
X65460000Y94480000D03*
%TD*%
%TO.C,R9*%
X63810000Y31750000D03*
X65460000Y31750000D03*
%TD*%
%TO.C,R9*%
X9970000Y157210000D03*
X11620000Y157210000D03*
%TD*%
%TO.C,R9*%
X9970000Y94480000D03*
X11620000Y94480000D03*
%TD*%
%TO.C,R7*%
X77780000Y167687500D03*
X79430000Y167687500D03*
%TD*%
%TO.C,R7*%
X77780000Y104957500D03*
X79430000Y104957500D03*
%TD*%
%TO.C,R7*%
X77780000Y42227500D03*
X79430000Y42227500D03*
%TD*%
%TO.C,R7*%
X23940000Y167687500D03*
X25590000Y167687500D03*
%TD*%
%TO.C,R7*%
X23940000Y104957500D03*
X25590000Y104957500D03*
%TD*%
D15*
%TO.C,R2*%
X94352500Y175625000D03*
X92702500Y175625000D03*
%TD*%
%TO.C,R2*%
X94352500Y112895000D03*
X92702500Y112895000D03*
%TD*%
%TO.C,R2*%
X94352500Y50165000D03*
X92702500Y50165000D03*
%TD*%
%TO.C,R2*%
X40512500Y175625000D03*
X38862500Y175625000D03*
%TD*%
%TO.C,R2*%
X40512500Y112895000D03*
X38862500Y112895000D03*
%TD*%
D27*
%TO.C,R5*%
X95560000Y157210000D03*
X97210000Y157210000D03*
%TD*%
%TO.C,R5*%
X95560000Y94480000D03*
X97210000Y94480000D03*
%TD*%
%TO.C,R5*%
X95560000Y31750000D03*
X97210000Y31750000D03*
%TD*%
%TO.C,R5*%
X41720000Y157210000D03*
X43370000Y157210000D03*
%TD*%
%TO.C,R5*%
X41720000Y94480000D03*
X43370000Y94480000D03*
%TD*%
D28*
%TO.C,D3*%
X97535000Y171180000D03*
X95235000Y171180000D03*
%TD*%
%TO.C,D3*%
X97535000Y108450000D03*
X95235000Y108450000D03*
%TD*%
%TO.C,D3*%
X97535000Y45720000D03*
X95235000Y45720000D03*
%TD*%
%TO.C,D3*%
X43695000Y171180000D03*
X41395000Y171180000D03*
%TD*%
%TO.C,D3*%
X43695000Y108450000D03*
X41395000Y108450000D03*
%TD*%
D29*
%TO.C,J1*%
X89475000Y178970000D03*
X89475000Y181970000D03*
X82975000Y173870000D03*
X89475000Y174970000D03*
%TD*%
%TO.C,J1*%
X89475000Y116240000D03*
X89475000Y119240000D03*
X82975000Y111140000D03*
X89475000Y112240000D03*
%TD*%
%TO.C,J1*%
X89475000Y53510000D03*
X89475000Y56510000D03*
X82975000Y48410000D03*
X89475000Y49510000D03*
%TD*%
%TO.C,J1*%
X35635000Y178970000D03*
X35635000Y181970000D03*
X29135000Y173870000D03*
X35635000Y174970000D03*
%TD*%
%TO.C,J1*%
X35635000Y116240000D03*
X35635000Y119240000D03*
X29135000Y111140000D03*
X35635000Y112240000D03*
%TD*%
D18*
%TO.C,C7*%
X75925000Y152130000D03*
X77475000Y152130000D03*
%TD*%
%TO.C,C7*%
X75925000Y89400000D03*
X77475000Y89400000D03*
%TD*%
%TO.C,C7*%
X75925000Y26670000D03*
X77475000Y26670000D03*
%TD*%
%TO.C,C7*%
X22085000Y152130000D03*
X23635000Y152130000D03*
%TD*%
%TO.C,C7*%
X22085000Y89400000D03*
X23635000Y89400000D03*
%TD*%
D30*
%TO.C,U2*%
X84955000Y160010000D03*
X83685000Y160010000D03*
X82415000Y160010000D03*
X81145000Y160010000D03*
X79875000Y160010000D03*
X78605000Y160010000D03*
X77335000Y160010000D03*
X76065000Y160010000D03*
X76065000Y154410000D03*
X77335000Y154410000D03*
X78605000Y154410000D03*
X79875000Y154410000D03*
X81145000Y154410000D03*
X82415000Y154410000D03*
X83685000Y154410000D03*
X84955000Y154410000D03*
%TD*%
%TO.C,U2*%
X84955000Y97280000D03*
X83685000Y97280000D03*
X82415000Y97280000D03*
X81145000Y97280000D03*
X79875000Y97280000D03*
X78605000Y97280000D03*
X77335000Y97280000D03*
X76065000Y97280000D03*
X76065000Y91680000D03*
X77335000Y91680000D03*
X78605000Y91680000D03*
X79875000Y91680000D03*
X81145000Y91680000D03*
X82415000Y91680000D03*
X83685000Y91680000D03*
X84955000Y91680000D03*
%TD*%
%TO.C,U2*%
X84955000Y34550000D03*
X83685000Y34550000D03*
X82415000Y34550000D03*
X81145000Y34550000D03*
X79875000Y34550000D03*
X78605000Y34550000D03*
X77335000Y34550000D03*
X76065000Y34550000D03*
X76065000Y28950000D03*
X77335000Y28950000D03*
X78605000Y28950000D03*
X79875000Y28950000D03*
X81145000Y28950000D03*
X82415000Y28950000D03*
X83685000Y28950000D03*
X84955000Y28950000D03*
%TD*%
%TO.C,U2*%
X31115000Y160010000D03*
X29845000Y160010000D03*
X28575000Y160010000D03*
X27305000Y160010000D03*
X26035000Y160010000D03*
X24765000Y160010000D03*
X23495000Y160010000D03*
X22225000Y160010000D03*
X22225000Y154410000D03*
X23495000Y154410000D03*
X24765000Y154410000D03*
X26035000Y154410000D03*
X27305000Y154410000D03*
X28575000Y154410000D03*
X29845000Y154410000D03*
X31115000Y154410000D03*
%TD*%
%TO.C,U2*%
X31115000Y97280000D03*
X29845000Y97280000D03*
X28575000Y97280000D03*
X27305000Y97280000D03*
X26035000Y97280000D03*
X24765000Y97280000D03*
X23495000Y97280000D03*
X22225000Y97280000D03*
X22225000Y91680000D03*
X23495000Y91680000D03*
X24765000Y91680000D03*
X26035000Y91680000D03*
X27305000Y91680000D03*
X28575000Y91680000D03*
X29845000Y91680000D03*
X31115000Y91680000D03*
%TD*%
D27*
%TO.C,R1*%
X88257500Y160067500D03*
X89907500Y160067500D03*
%TD*%
%TO.C,R1*%
X88257500Y97337500D03*
X89907500Y97337500D03*
%TD*%
%TO.C,R1*%
X88257500Y34607500D03*
X89907500Y34607500D03*
%TD*%
%TO.C,R1*%
X34417500Y160067500D03*
X36067500Y160067500D03*
%TD*%
%TO.C,R1*%
X34417500Y97337500D03*
X36067500Y97337500D03*
%TD*%
D31*
%TO.C,C5*%
X88765000Y162927500D03*
X88765000Y164827500D03*
%TD*%
%TO.C,C5*%
X88765000Y100197500D03*
X88765000Y102097500D03*
%TD*%
%TO.C,C5*%
X88765000Y37467500D03*
X88765000Y39367500D03*
%TD*%
%TO.C,C5*%
X34925000Y162927500D03*
X34925000Y164827500D03*
%TD*%
%TO.C,C5*%
X34925000Y100197500D03*
X34925000Y102097500D03*
%TD*%
%TO.C,C4*%
X86225000Y162927500D03*
X86225000Y164827500D03*
%TD*%
%TO.C,C4*%
X86225000Y100197500D03*
X86225000Y102097500D03*
%TD*%
%TO.C,C4*%
X86225000Y37467500D03*
X86225000Y39367500D03*
%TD*%
%TO.C,C4*%
X32385000Y162927500D03*
X32385000Y164827500D03*
%TD*%
%TO.C,C4*%
X32385000Y100197500D03*
X32385000Y102097500D03*
%TD*%
D18*
%TO.C,C8*%
X79735000Y162290000D03*
X81285000Y162290000D03*
%TD*%
%TO.C,C8*%
X79735000Y99560000D03*
X81285000Y99560000D03*
%TD*%
%TO.C,C8*%
X79735000Y36830000D03*
X81285000Y36830000D03*
%TD*%
%TO.C,C8*%
X25895000Y162290000D03*
X27445000Y162290000D03*
%TD*%
%TO.C,C8*%
X25895000Y99560000D03*
X27445000Y99560000D03*
%TD*%
D32*
%TO.C,L1*%
X72890000Y158302500D03*
X72890000Y156752500D03*
%TD*%
%TO.C,L1*%
X72890000Y95572500D03*
X72890000Y94022500D03*
%TD*%
%TO.C,L1*%
X72890000Y32842500D03*
X72890000Y31292500D03*
%TD*%
%TO.C,L1*%
X19050000Y158302500D03*
X19050000Y156752500D03*
%TD*%
%TO.C,L1*%
X19050000Y95572500D03*
X19050000Y94022500D03*
%TD*%
D33*
%TO.C,SW1*%
X61841000Y165782500D03*
X67429000Y165782500D03*
X61841000Y161972500D03*
X67429000Y161972500D03*
%TD*%
%TO.C,SW1*%
X61841000Y103052500D03*
X67429000Y103052500D03*
X61841000Y99242500D03*
X67429000Y99242500D03*
%TD*%
%TO.C,SW1*%
X61841000Y40322500D03*
X67429000Y40322500D03*
X61841000Y36512500D03*
X67429000Y36512500D03*
%TD*%
%TO.C,SW1*%
X8001000Y165782500D03*
X13589000Y165782500D03*
X8001000Y161972500D03*
X13589000Y161972500D03*
%TD*%
%TO.C,SW1*%
X8001000Y103052500D03*
X13589000Y103052500D03*
X8001000Y99242500D03*
X13589000Y99242500D03*
%TD*%
D34*
%TO.C,D5*%
X95084900Y169272500D03*
X95084900Y168322500D03*
X95084900Y167372500D03*
X97685100Y167372500D03*
X97685000Y168322500D03*
X97685100Y169272500D03*
%TD*%
%TO.C,D5*%
X95084900Y106542500D03*
X95084900Y105592500D03*
X95084900Y104642500D03*
X97685100Y104642500D03*
X97685000Y105592500D03*
X97685100Y106542500D03*
%TD*%
%TO.C,D5*%
X95084900Y43812500D03*
X95084900Y42862500D03*
X95084900Y41912500D03*
X97685100Y41912500D03*
X97685000Y42862500D03*
X97685100Y43812500D03*
%TD*%
%TO.C,D5*%
X41244900Y169272500D03*
X41244900Y168322500D03*
X41244900Y167372500D03*
X43845100Y167372500D03*
X43845000Y168322500D03*
X43845100Y169272500D03*
%TD*%
%TO.C,D5*%
X41244900Y106542500D03*
X41244900Y105592500D03*
X41244900Y104642500D03*
X43845100Y104642500D03*
X43845000Y105592500D03*
X43845100Y106542500D03*
%TD*%
%TO.C,D5*%
X41244900Y43812500D03*
X41244900Y42862500D03*
X41244900Y41912500D03*
X43845100Y41912500D03*
X43845000Y42862500D03*
X43845100Y43812500D03*
%TD*%
D33*
%TO.C,SW1*%
X8001000Y40322500D03*
X13589000Y40322500D03*
X8001000Y36512500D03*
X13589000Y36512500D03*
%TD*%
D32*
%TO.C,L1*%
X19050000Y32842500D03*
X19050000Y31292500D03*
%TD*%
D18*
%TO.C,C8*%
X25895000Y36830000D03*
X27445000Y36830000D03*
%TD*%
D31*
%TO.C,C4*%
X32385000Y37467500D03*
X32385000Y39367500D03*
%TD*%
%TO.C,C5*%
X34925000Y37467500D03*
X34925000Y39367500D03*
%TD*%
D27*
%TO.C,R1*%
X34417500Y34607500D03*
X36067500Y34607500D03*
%TD*%
D30*
%TO.C,U2*%
X31115000Y34550000D03*
X29845000Y34550000D03*
X28575000Y34550000D03*
X27305000Y34550000D03*
X26035000Y34550000D03*
X24765000Y34550000D03*
X23495000Y34550000D03*
X22225000Y34550000D03*
X22225000Y28950000D03*
X23495000Y28950000D03*
X24765000Y28950000D03*
X26035000Y28950000D03*
X27305000Y28950000D03*
X28575000Y28950000D03*
X29845000Y28950000D03*
X31115000Y28950000D03*
%TD*%
D18*
%TO.C,C7*%
X22085000Y26670000D03*
X23635000Y26670000D03*
%TD*%
D29*
%TO.C,J1*%
X35635000Y53510000D03*
X35635000Y56510000D03*
X29135000Y48410000D03*
X35635000Y49510000D03*
%TD*%
D28*
%TO.C,D3*%
X43695000Y45720000D03*
X41395000Y45720000D03*
%TD*%
D27*
%TO.C,R5*%
X41720000Y31750000D03*
X43370000Y31750000D03*
%TD*%
D15*
%TO.C,R2*%
X40512500Y50165000D03*
X38862500Y50165000D03*
%TD*%
D27*
%TO.C,R7*%
X23940000Y42227500D03*
X25590000Y42227500D03*
%TD*%
%TO.C,R9*%
X9970000Y31750000D03*
X11620000Y31750000D03*
%TD*%
D26*
%TO.C,Q1*%
X36192500Y32750000D03*
X34292500Y32750000D03*
X35242500Y30650000D03*
%TD*%
D24*
%TO.C,J3*%
X6897500Y52387500D03*
X5897500Y52387500D03*
X4897500Y52387500D03*
X3897500Y52387500D03*
D25*
X2597500Y56062500D03*
X8197500Y56062500D03*
%TD*%
D17*
%TO.C,D1*%
X43332500Y29845000D03*
X41757500Y29845000D03*
%TD*%
D20*
%TO.C,J6*%
X16165000Y45062500D03*
X17265000Y45062500D03*
X18365000Y45062500D03*
X19465000Y45062500D03*
X20565000Y45062500D03*
X21665000Y45062500D03*
X22765000Y45062500D03*
X23865000Y45062500D03*
X24965000Y45062500D03*
D21*
X26165000Y45662500D03*
D22*
X26165000Y55162500D03*
X10665000Y55162500D03*
D23*
X11565000Y45562500D03*
%TD*%
D15*
%TO.C,R4*%
X36067500Y28892500D03*
X34417500Y28892500D03*
%TD*%
D19*
%TO.C,D2*%
X17145000Y33217500D03*
X17145000Y30917500D03*
%TD*%
D18*
%TO.C,C1*%
X29705000Y26670000D03*
X31255000Y26670000D03*
%TD*%
D17*
%TO.C,D4*%
X11582500Y29845000D03*
X10007500Y29845000D03*
%TD*%
D16*
%TO.C,F1*%
X41645000Y47942500D03*
X43445000Y47942500D03*
%TD*%
D15*
%TO.C,R3*%
X46227500Y50165000D03*
X44577500Y50165000D03*
%TD*%
D11*
%TO.C,J4*%
X43795000Y53680000D03*
X42795000Y53680000D03*
X42295000Y53680000D03*
X41295000Y53680000D03*
X40795000Y53680000D03*
X41795000Y53680000D03*
X43295000Y53680000D03*
X44295000Y53680000D03*
D12*
X45770000Y53680000D03*
X39320000Y53680000D03*
D13*
X46863000Y58435000D03*
D14*
X46863000Y54255000D03*
X38227000Y54255000D03*
D13*
X38227000Y58435000D03*
D12*
X44995000Y53680000D03*
X40095000Y53680000D03*
%TD*%
D10*
%TO.C,C3*%
X19190000Y39687500D03*
X17640000Y39687500D03*
%TD*%
%TO.C,C2*%
X19190000Y42227500D03*
X17640000Y42227500D03*
%TD*%
M02*
