%TF.GenerationSoftware,KiCad,Pcbnew,8.0.7*%
%TF.CreationDate,2025-01-17T14:39:43-07:00*%
%TF.ProjectId,SparkFun_Serial_MP3_Player_Shield_MY1690X_panelized,53706172-6b46-4756-9e5f-53657269616c,rev?*%
%TF.SameCoordinates,Original*%
%TF.FileFunction,Soldermask,Bot*%
%TF.FilePolarity,Negative*%
%FSLAX46Y46*%
G04 Gerber Fmt 4.6, Leading zero omitted, Abs format (unit mm)*
G04 Created by KiCad (PCBNEW 8.0.7) date 2025-01-17 14:39:43*
%MOMM*%
%LPD*%
G01*
G04 APERTURE LIST*
G04 Aperture macros list*
%AMRoundRect*
0 Rectangle with rounded corners*
0 $1 Rounding radius*
0 $2 $3 $4 $5 $6 $7 $8 $9 X,Y pos of 4 corners*
0 Add a 4 corners polygon primitive as box body*
4,1,4,$2,$3,$4,$5,$6,$7,$8,$9,$2,$3,0*
0 Add four circle primitives for the rounded corners*
1,1,$1+$1,$2,$3*
1,1,$1+$1,$4,$5*
1,1,$1+$1,$6,$7*
1,1,$1+$1,$8,$9*
0 Add four rect primitives between the rounded corners*
20,1,$1+$1,$2,$3,$4,$5,0*
20,1,$1+$1,$4,$5,$6,$7,0*
20,1,$1+$1,$6,$7,$8,$9,0*
20,1,$1+$1,$8,$9,$2,$3,0*%
G04 Aperture macros list end*
%ADD10C,0.000000*%
%ADD11C,3.000000*%
%ADD12RoundRect,0.050000X-0.330200X-0.635000X0.330200X-0.635000X0.330200X0.635000X-0.330200X0.635000X0*%
%ADD13C,0.600000*%
%ADD14C,0.750000*%
%ADD15O,1.100000X1.700000*%
%ADD16O,1.100000X2.200000*%
%ADD17C,1.100000*%
%ADD18C,1.300000*%
%ADD19C,2.082800*%
%ADD20C,1.979600*%
G04 APERTURE END LIST*
D10*
%TO.C,JP2*%
G36*
X96639000Y153159500D02*
G01*
X96131000Y153159500D01*
X96131000Y153640500D01*
X96639000Y153640500D01*
X96639000Y153159500D01*
G37*
G36*
X96639000Y90429500D02*
G01*
X96131000Y90429500D01*
X96131000Y90910500D01*
X96639000Y90910500D01*
X96639000Y90429500D01*
G37*
G36*
X96639000Y27699500D02*
G01*
X96131000Y27699500D01*
X96131000Y28180500D01*
X96639000Y28180500D01*
X96639000Y27699500D01*
G37*
G36*
X42799000Y153159500D02*
G01*
X42291000Y153159500D01*
X42291000Y153640500D01*
X42799000Y153640500D01*
X42799000Y153159500D01*
G37*
G36*
X42799000Y90429500D02*
G01*
X42291000Y90429500D01*
X42291000Y90910500D01*
X42799000Y90910500D01*
X42799000Y90429500D01*
G37*
%TO.C,JP1*%
G36*
X64889000Y153159500D02*
G01*
X64381000Y153159500D01*
X64381000Y153640500D01*
X64889000Y153640500D01*
X64889000Y153159500D01*
G37*
G36*
X64889000Y90429500D02*
G01*
X64381000Y90429500D01*
X64381000Y90910500D01*
X64889000Y90910500D01*
X64889000Y90429500D01*
G37*
G36*
X64889000Y27699500D02*
G01*
X64381000Y27699500D01*
X64381000Y28180500D01*
X64889000Y28180500D01*
X64889000Y27699500D01*
G37*
G36*
X11049000Y153159500D02*
G01*
X10541000Y153159500D01*
X10541000Y153640500D01*
X11049000Y153640500D01*
X11049000Y153159500D01*
G37*
G36*
X11049000Y90429500D02*
G01*
X10541000Y90429500D01*
X10541000Y90910500D01*
X11049000Y90910500D01*
X11049000Y90429500D01*
G37*
G36*
X11049000Y27699500D02*
G01*
X10541000Y27699500D01*
X10541000Y28180500D01*
X11049000Y28180500D01*
X11049000Y27699500D01*
G37*
%TO.C,JP2*%
G36*
X42799000Y27699500D02*
G01*
X42291000Y27699500D01*
X42291000Y28180500D01*
X42799000Y28180500D01*
X42799000Y27699500D01*
G37*
%TD*%
D11*
%TO.C,*%
X109228600Y185651100D03*
%TD*%
%TO.C,*%
X-2048600Y185651100D03*
%TD*%
%TO.C,*%
X-2048600Y-501100D03*
%TD*%
D12*
%TO.C,JP2*%
X95864300Y153400000D03*
X96905700Y153400000D03*
%TD*%
%TO.C,JP2*%
X95864300Y90670000D03*
X96905700Y90670000D03*
%TD*%
%TO.C,JP2*%
X95864300Y27940000D03*
X96905700Y27940000D03*
%TD*%
%TO.C,JP2*%
X42024300Y153400000D03*
X43065700Y153400000D03*
%TD*%
%TO.C,JP2*%
X42024300Y90670000D03*
X43065700Y90670000D03*
%TD*%
D13*
%TO.C,FID1*%
X101782500Y183562500D03*
%TD*%
%TO.C,FID1*%
X101782500Y120832500D03*
%TD*%
%TO.C,FID1*%
X101782500Y58102500D03*
%TD*%
%TO.C,FID1*%
X47942500Y183562500D03*
%TD*%
%TO.C,FID1*%
X47942500Y120832500D03*
%TD*%
%TO.C,FID2*%
X56380000Y127365000D03*
%TD*%
%TO.C,FID2*%
X56380000Y64635000D03*
%TD*%
%TO.C,FID2*%
X56380000Y1905000D03*
%TD*%
%TO.C,FID2*%
X2540000Y127365000D03*
%TD*%
%TO.C,FID2*%
X2540000Y64635000D03*
%TD*%
D14*
%TO.C,J4*%
X61745000Y130365000D03*
X67525000Y130365000D03*
D15*
X60317000Y126715000D03*
D16*
X60317000Y130895000D03*
X68953000Y130895000D03*
D15*
X68953000Y126715000D03*
%TD*%
D14*
%TO.C,J4*%
X61745000Y67635000D03*
X67525000Y67635000D03*
D15*
X60317000Y63985000D03*
D16*
X60317000Y68165000D03*
X68953000Y68165000D03*
D15*
X68953000Y63985000D03*
%TD*%
D14*
%TO.C,J4*%
X61745000Y4905000D03*
X67525000Y4905000D03*
D15*
X60317000Y1255000D03*
D16*
X60317000Y5435000D03*
X68953000Y5435000D03*
D15*
X68953000Y1255000D03*
%TD*%
D14*
%TO.C,J4*%
X7905000Y130365000D03*
X13685000Y130365000D03*
D15*
X6477000Y126715000D03*
D16*
X6477000Y130895000D03*
X15113000Y130895000D03*
D15*
X15113000Y126715000D03*
%TD*%
D14*
%TO.C,J4*%
X7905000Y67635000D03*
X13685000Y67635000D03*
D15*
X6477000Y63985000D03*
D16*
X6477000Y68165000D03*
X15113000Y68165000D03*
D15*
X15113000Y63985000D03*
%TD*%
D17*
%TO.C,J6*%
X83815000Y129587500D03*
X91815000Y129587500D03*
%TD*%
%TO.C,J6*%
X83815000Y66857500D03*
X91815000Y66857500D03*
%TD*%
%TO.C,J6*%
X83815000Y4127500D03*
X91815000Y4127500D03*
%TD*%
%TO.C,J6*%
X29975000Y129587500D03*
X37975000Y129587500D03*
%TD*%
%TO.C,J6*%
X29975000Y66857500D03*
X37975000Y66857500D03*
%TD*%
D18*
%TO.C,J1*%
X74795000Y127040000D03*
X74795000Y134040000D03*
%TD*%
%TO.C,J1*%
X74795000Y64310000D03*
X74795000Y71310000D03*
%TD*%
%TO.C,J1*%
X74795000Y1580000D03*
X74795000Y8580000D03*
%TD*%
%TO.C,J1*%
X20955000Y127040000D03*
X20955000Y134040000D03*
%TD*%
%TO.C,J1*%
X20955000Y64310000D03*
X20955000Y71310000D03*
%TD*%
D19*
%TO.C,B1*%
X104640000Y149590000D03*
X104640000Y162290000D03*
X104640000Y144510000D03*
X104640000Y147050000D03*
X104640000Y157210000D03*
X104640000Y159750000D03*
X56380000Y143240000D03*
X56380000Y145780000D03*
X56380000Y148320000D03*
X56380000Y150860000D03*
X56380000Y153400000D03*
X56380000Y155940000D03*
X56380000Y158480000D03*
X56380000Y162290000D03*
X56380000Y164830000D03*
X56380000Y167370000D03*
X56380000Y169910000D03*
X56380000Y172450000D03*
X56380000Y174990000D03*
X56380000Y177530000D03*
X56380000Y180070000D03*
X56380000Y140700000D03*
X104640000Y180070000D03*
X56380000Y135620000D03*
X104640000Y177530000D03*
X56380000Y138160000D03*
X104640000Y174990000D03*
X104640000Y172450000D03*
X104640000Y169910000D03*
X104640000Y167370000D03*
X104640000Y154670000D03*
X104640000Y152130000D03*
%TD*%
%TO.C,B1*%
X104640000Y86860000D03*
X104640000Y99560000D03*
X104640000Y81780000D03*
X104640000Y84320000D03*
X104640000Y94480000D03*
X104640000Y97020000D03*
X56380000Y80510000D03*
X56380000Y83050000D03*
X56380000Y85590000D03*
X56380000Y88130000D03*
X56380000Y90670000D03*
X56380000Y93210000D03*
X56380000Y95750000D03*
X56380000Y99560000D03*
X56380000Y102100000D03*
X56380000Y104640000D03*
X56380000Y107180000D03*
X56380000Y109720000D03*
X56380000Y112260000D03*
X56380000Y114800000D03*
X56380000Y117340000D03*
X56380000Y77970000D03*
X104640000Y117340000D03*
X56380000Y72890000D03*
X104640000Y114800000D03*
X56380000Y75430000D03*
X104640000Y112260000D03*
X104640000Y109720000D03*
X104640000Y107180000D03*
X104640000Y104640000D03*
X104640000Y91940000D03*
X104640000Y89400000D03*
%TD*%
%TO.C,B1*%
X104640000Y24130000D03*
X104640000Y36830000D03*
X104640000Y19050000D03*
X104640000Y21590000D03*
X104640000Y31750000D03*
X104640000Y34290000D03*
X56380000Y17780000D03*
X56380000Y20320000D03*
X56380000Y22860000D03*
X56380000Y25400000D03*
X56380000Y27940000D03*
X56380000Y30480000D03*
X56380000Y33020000D03*
X56380000Y36830000D03*
X56380000Y39370000D03*
X56380000Y41910000D03*
X56380000Y44450000D03*
X56380000Y46990000D03*
X56380000Y49530000D03*
X56380000Y52070000D03*
X56380000Y54610000D03*
X56380000Y15240000D03*
X104640000Y54610000D03*
X56380000Y10160000D03*
X104640000Y52070000D03*
X56380000Y12700000D03*
X104640000Y49530000D03*
X104640000Y46990000D03*
X104640000Y44450000D03*
X104640000Y41910000D03*
X104640000Y29210000D03*
X104640000Y26670000D03*
%TD*%
%TO.C,B1*%
X50800000Y149590000D03*
X50800000Y162290000D03*
X50800000Y144510000D03*
X50800000Y147050000D03*
X50800000Y157210000D03*
X50800000Y159750000D03*
X2540000Y143240000D03*
X2540000Y145780000D03*
X2540000Y148320000D03*
X2540000Y150860000D03*
X2540000Y153400000D03*
X2540000Y155940000D03*
X2540000Y158480000D03*
X2540000Y162290000D03*
X2540000Y164830000D03*
X2540000Y167370000D03*
X2540000Y169910000D03*
X2540000Y172450000D03*
X2540000Y174990000D03*
X2540000Y177530000D03*
X2540000Y180070000D03*
X2540000Y140700000D03*
X50800000Y180070000D03*
X2540000Y135620000D03*
X50800000Y177530000D03*
X2540000Y138160000D03*
X50800000Y174990000D03*
X50800000Y172450000D03*
X50800000Y169910000D03*
X50800000Y167370000D03*
X50800000Y154670000D03*
X50800000Y152130000D03*
%TD*%
%TO.C,B1*%
X50800000Y86860000D03*
X50800000Y99560000D03*
X50800000Y81780000D03*
X50800000Y84320000D03*
X50800000Y94480000D03*
X50800000Y97020000D03*
X2540000Y80510000D03*
X2540000Y83050000D03*
X2540000Y85590000D03*
X2540000Y88130000D03*
X2540000Y90670000D03*
X2540000Y93210000D03*
X2540000Y95750000D03*
X2540000Y99560000D03*
X2540000Y102100000D03*
X2540000Y104640000D03*
X2540000Y107180000D03*
X2540000Y109720000D03*
X2540000Y112260000D03*
X2540000Y114800000D03*
X2540000Y117340000D03*
X2540000Y77970000D03*
X50800000Y117340000D03*
X2540000Y72890000D03*
X50800000Y114800000D03*
X2540000Y75430000D03*
X50800000Y112260000D03*
X50800000Y109720000D03*
X50800000Y107180000D03*
X50800000Y104640000D03*
X50800000Y91940000D03*
X50800000Y89400000D03*
%TD*%
D20*
%TO.C,J3*%
X72255000Y139430000D03*
X74795000Y139430000D03*
X77335000Y139430000D03*
%TD*%
%TO.C,J3*%
X72255000Y76700000D03*
X74795000Y76700000D03*
X77335000Y76700000D03*
%TD*%
%TO.C,J3*%
X72255000Y13970000D03*
X74795000Y13970000D03*
X77335000Y13970000D03*
%TD*%
%TO.C,J3*%
X18415000Y139430000D03*
X20955000Y139430000D03*
X23495000Y139430000D03*
%TD*%
%TO.C,J3*%
X18415000Y76700000D03*
X20955000Y76700000D03*
X23495000Y76700000D03*
%TD*%
D12*
%TO.C,JP1*%
X64114300Y153400000D03*
X65155700Y153400000D03*
%TD*%
%TO.C,JP1*%
X64114300Y90670000D03*
X65155700Y90670000D03*
%TD*%
%TO.C,JP1*%
X64114300Y27940000D03*
X65155700Y27940000D03*
%TD*%
%TO.C,JP1*%
X10274300Y153400000D03*
X11315700Y153400000D03*
%TD*%
%TO.C,JP1*%
X10274300Y90670000D03*
X11315700Y90670000D03*
%TD*%
%TO.C,JP1*%
X10274300Y27940000D03*
X11315700Y27940000D03*
%TD*%
D20*
%TO.C,J3*%
X18415000Y13970000D03*
X20955000Y13970000D03*
X23495000Y13970000D03*
%TD*%
D19*
%TO.C,B1*%
X50800000Y24130000D03*
X50800000Y36830000D03*
X50800000Y19050000D03*
X50800000Y21590000D03*
X50800000Y31750000D03*
X50800000Y34290000D03*
X2540000Y17780000D03*
X2540000Y20320000D03*
X2540000Y22860000D03*
X2540000Y25400000D03*
X2540000Y27940000D03*
X2540000Y30480000D03*
X2540000Y33020000D03*
X2540000Y36830000D03*
X2540000Y39370000D03*
X2540000Y41910000D03*
X2540000Y44450000D03*
X2540000Y46990000D03*
X2540000Y49530000D03*
X2540000Y52070000D03*
X2540000Y54610000D03*
X2540000Y15240000D03*
X50800000Y54610000D03*
X2540000Y10160000D03*
X50800000Y52070000D03*
X2540000Y12700000D03*
X50800000Y49530000D03*
X50800000Y46990000D03*
X50800000Y44450000D03*
X50800000Y41910000D03*
X50800000Y29210000D03*
X50800000Y26670000D03*
%TD*%
D18*
%TO.C,J1*%
X20955000Y1580000D03*
X20955000Y8580000D03*
%TD*%
D17*
%TO.C,J6*%
X29975000Y4127500D03*
X37975000Y4127500D03*
%TD*%
D14*
%TO.C,J4*%
X7905000Y4905000D03*
X13685000Y4905000D03*
D15*
X6477000Y1255000D03*
D16*
X6477000Y5435000D03*
X15113000Y5435000D03*
D15*
X15113000Y1255000D03*
%TD*%
D13*
%TO.C,FID2*%
X2540000Y1905000D03*
%TD*%
%TO.C,FID1*%
X47942500Y58102500D03*
%TD*%
D12*
%TO.C,JP2*%
X42024300Y27940000D03*
X43065700Y27940000D03*
%TD*%
M02*
