%TF.GenerationSoftware,KiCad,Pcbnew,8.0.7*%
%TF.CreationDate,2025-02-05T15:45:42-07:00*%
%TF.ProjectId,SparkFun_Serial_MP3_Player_Shield_MY1690X_panelized,53706172-6b46-4756-9e5f-53657269616c,rev?*%
%TF.SameCoordinates,Original*%
%TF.FileFunction,Soldermask,Bot*%
%TF.FilePolarity,Negative*%
%FSLAX46Y46*%
G04 Gerber Fmt 4.6, Leading zero omitted, Abs format (unit mm)*
G04 Created by KiCad (PCBNEW 8.0.7) date 2025-02-05 15:45:42*
%MOMM*%
%LPD*%
G01*
G04 APERTURE LIST*
G04 Aperture macros list*
%AMRoundRect*
0 Rectangle with rounded corners*
0 $1 Rounding radius*
0 $2 $3 $4 $5 $6 $7 $8 $9 X,Y pos of 4 corners*
0 Add a 4 corners polygon primitive as box body*
4,1,4,$2,$3,$4,$5,$6,$7,$8,$9,$2,$3,0*
0 Add four circle primitives for the rounded corners*
1,1,$1+$1,$2,$3*
1,1,$1+$1,$4,$5*
1,1,$1+$1,$6,$7*
1,1,$1+$1,$8,$9*
0 Add four rect primitives between the rounded corners*
20,1,$1+$1,$2,$3,$4,$5,0*
20,1,$1+$1,$4,$5,$6,$7,0*
20,1,$1+$1,$6,$7,$8,$9,0*
20,1,$1+$1,$8,$9,$2,$3,0*%
G04 Aperture macros list end*
%ADD10C,0.000000*%
%ADD11C,3.000000*%
%ADD12RoundRect,0.050000X0.330200X0.635000X-0.330200X0.635000X-0.330200X-0.635000X0.330200X-0.635000X0*%
%ADD13C,1.979600*%
%ADD14RoundRect,0.050000X0.317500X0.635000X-0.317500X0.635000X-0.317500X-0.635000X0.317500X-0.635000X0*%
%ADD15RoundRect,0.050000X-0.330200X-0.635000X0.330200X-0.635000X0.330200X0.635000X-0.330200X0.635000X0*%
%ADD16C,0.600000*%
%ADD17C,0.750000*%
%ADD18O,1.100000X1.700000*%
%ADD19O,1.100000X2.200000*%
%ADD20C,1.100000*%
%ADD21C,2.082800*%
%ADD22C,1.300000*%
G04 APERTURE END LIST*
D10*
%TO.C,JP2*%
G36*
X64889000Y156969500D02*
G01*
X64381000Y156969500D01*
X64381000Y157450500D01*
X64889000Y157450500D01*
X64889000Y156969500D01*
G37*
G36*
X64889000Y94239500D02*
G01*
X64381000Y94239500D01*
X64381000Y94720500D01*
X64889000Y94720500D01*
X64889000Y94239500D01*
G37*
G36*
X64889000Y31509500D02*
G01*
X64381000Y31509500D01*
X64381000Y31990500D01*
X64889000Y31990500D01*
X64889000Y31509500D01*
G37*
G36*
X11049000Y156969500D02*
G01*
X10541000Y156969500D01*
X10541000Y157450500D01*
X11049000Y157450500D01*
X11049000Y156969500D01*
G37*
G36*
X11049000Y94239500D02*
G01*
X10541000Y94239500D01*
X10541000Y94720500D01*
X11049000Y94720500D01*
X11049000Y94239500D01*
G37*
%TO.C,JP4*%
G36*
X95369000Y139976100D02*
G01*
X94861000Y139976100D01*
X94861000Y141423900D01*
X95369000Y141423900D01*
X95369000Y139976100D01*
G37*
G36*
X95369000Y77246100D02*
G01*
X94861000Y77246100D01*
X94861000Y78693900D01*
X95369000Y78693900D01*
X95369000Y77246100D01*
G37*
G36*
X95369000Y14516100D02*
G01*
X94861000Y14516100D01*
X94861000Y15963900D01*
X95369000Y15963900D01*
X95369000Y14516100D01*
G37*
G36*
X41529000Y139976100D02*
G01*
X41021000Y139976100D01*
X41021000Y141423900D01*
X41529000Y141423900D01*
X41529000Y139976100D01*
G37*
G36*
X41529000Y77246100D02*
G01*
X41021000Y77246100D01*
X41021000Y78693900D01*
X41529000Y78693900D01*
X41529000Y77246100D01*
G37*
%TO.C,JP7*%
G36*
X82669000Y178877000D02*
G01*
X82161000Y178877000D01*
X82161000Y179358000D01*
X82669000Y179358000D01*
X82669000Y178877000D01*
G37*
G36*
X82669000Y116147000D02*
G01*
X82161000Y116147000D01*
X82161000Y116628000D01*
X82669000Y116628000D01*
X82669000Y116147000D01*
G37*
G36*
X82669000Y53417000D02*
G01*
X82161000Y53417000D01*
X82161000Y53898000D01*
X82669000Y53898000D01*
X82669000Y53417000D01*
G37*
G36*
X28829000Y178877000D02*
G01*
X28321000Y178877000D01*
X28321000Y179358000D01*
X28829000Y179358000D01*
X28829000Y178877000D01*
G37*
G36*
X28829000Y116147000D02*
G01*
X28321000Y116147000D01*
X28321000Y116628000D01*
X28829000Y116628000D01*
X28829000Y116147000D01*
G37*
%TO.C,JP5*%
G36*
X95369000Y145056100D02*
G01*
X94861000Y145056100D01*
X94861000Y146503900D01*
X95369000Y146503900D01*
X95369000Y145056100D01*
G37*
G36*
X95369000Y82326100D02*
G01*
X94861000Y82326100D01*
X94861000Y83773900D01*
X95369000Y83773900D01*
X95369000Y82326100D01*
G37*
G36*
X95369000Y19596100D02*
G01*
X94861000Y19596100D01*
X94861000Y21043900D01*
X95369000Y21043900D01*
X95369000Y19596100D01*
G37*
G36*
X41529000Y145056100D02*
G01*
X41021000Y145056100D01*
X41021000Y146503900D01*
X41529000Y146503900D01*
X41529000Y145056100D01*
G37*
G36*
X41529000Y82326100D02*
G01*
X41021000Y82326100D01*
X41021000Y83773900D01*
X41529000Y83773900D01*
X41529000Y82326100D01*
G37*
%TO.C,JP1*%
G36*
X96639000Y156969500D02*
G01*
X96131000Y156969500D01*
X96131000Y157450500D01*
X96639000Y157450500D01*
X96639000Y156969500D01*
G37*
G36*
X96639000Y94239500D02*
G01*
X96131000Y94239500D01*
X96131000Y94720500D01*
X96639000Y94720500D01*
X96639000Y94239500D01*
G37*
G36*
X96639000Y31509500D02*
G01*
X96131000Y31509500D01*
X96131000Y31990500D01*
X96639000Y31990500D01*
X96639000Y31509500D01*
G37*
G36*
X42799000Y156969500D02*
G01*
X42291000Y156969500D01*
X42291000Y157450500D01*
X42799000Y157450500D01*
X42799000Y156969500D01*
G37*
G36*
X42799000Y94239500D02*
G01*
X42291000Y94239500D01*
X42291000Y94720500D01*
X42799000Y94720500D01*
X42799000Y94239500D01*
G37*
%TO.C,JP3*%
G36*
X95369000Y142516100D02*
G01*
X94861000Y142516100D01*
X94861000Y143963900D01*
X95369000Y143963900D01*
X95369000Y142516100D01*
G37*
G36*
X95369000Y79786100D02*
G01*
X94861000Y79786100D01*
X94861000Y81233900D01*
X95369000Y81233900D01*
X95369000Y79786100D01*
G37*
G36*
X95369000Y17056100D02*
G01*
X94861000Y17056100D01*
X94861000Y18503900D01*
X95369000Y18503900D01*
X95369000Y17056100D01*
G37*
G36*
X41529000Y142516100D02*
G01*
X41021000Y142516100D01*
X41021000Y143963900D01*
X41529000Y143963900D01*
X41529000Y142516100D01*
G37*
G36*
X41529000Y79786100D02*
G01*
X41021000Y79786100D01*
X41021000Y81233900D01*
X41529000Y81233900D01*
X41529000Y79786100D01*
G37*
%TO.C,JP6*%
G36*
X95369000Y147596100D02*
G01*
X94861000Y147596100D01*
X94861000Y149043900D01*
X95369000Y149043900D01*
X95369000Y147596100D01*
G37*
G36*
X95369000Y84866100D02*
G01*
X94861000Y84866100D01*
X94861000Y86313900D01*
X95369000Y86313900D01*
X95369000Y84866100D01*
G37*
G36*
X95369000Y22136100D02*
G01*
X94861000Y22136100D01*
X94861000Y23583900D01*
X95369000Y23583900D01*
X95369000Y22136100D01*
G37*
G36*
X41529000Y147596100D02*
G01*
X41021000Y147596100D01*
X41021000Y149043900D01*
X41529000Y149043900D01*
X41529000Y147596100D01*
G37*
G36*
X41529000Y84866100D02*
G01*
X41021000Y84866100D01*
X41021000Y86313900D01*
X41529000Y86313900D01*
X41529000Y84866100D01*
G37*
G36*
X41529000Y22136100D02*
G01*
X41021000Y22136100D01*
X41021000Y23583900D01*
X41529000Y23583900D01*
X41529000Y22136100D01*
G37*
%TO.C,JP3*%
G36*
X41529000Y17056100D02*
G01*
X41021000Y17056100D01*
X41021000Y18503900D01*
X41529000Y18503900D01*
X41529000Y17056100D01*
G37*
%TO.C,JP1*%
G36*
X42799000Y31509500D02*
G01*
X42291000Y31509500D01*
X42291000Y31990500D01*
X42799000Y31990500D01*
X42799000Y31509500D01*
G37*
%TO.C,JP5*%
G36*
X41529000Y19596100D02*
G01*
X41021000Y19596100D01*
X41021000Y21043900D01*
X41529000Y21043900D01*
X41529000Y19596100D01*
G37*
%TO.C,JP7*%
G36*
X28829000Y53417000D02*
G01*
X28321000Y53417000D01*
X28321000Y53898000D01*
X28829000Y53898000D01*
X28829000Y53417000D01*
G37*
%TO.C,JP4*%
G36*
X41529000Y14516100D02*
G01*
X41021000Y14516100D01*
X41021000Y15963900D01*
X41529000Y15963900D01*
X41529000Y14516100D01*
G37*
%TO.C,JP2*%
G36*
X11049000Y31509500D02*
G01*
X10541000Y31509500D01*
X10541000Y31990500D01*
X11049000Y31990500D01*
X11049000Y31509500D01*
G37*
%TD*%
D11*
%TO.C,*%
X109228600Y185651100D03*
%TD*%
%TO.C,*%
X-2048600Y185651100D03*
%TD*%
%TO.C,*%
X-2048600Y-501100D03*
%TD*%
D12*
%TO.C,JP2*%
X65155700Y157210000D03*
X64114300Y157210000D03*
%TD*%
%TO.C,JP2*%
X65155700Y94480000D03*
X64114300Y94480000D03*
%TD*%
%TO.C,JP2*%
X65155700Y31750000D03*
X64114300Y31750000D03*
%TD*%
%TO.C,JP2*%
X11315700Y157210000D03*
X10274300Y157210000D03*
%TD*%
%TO.C,JP2*%
X11315700Y94480000D03*
X10274300Y94480000D03*
%TD*%
D13*
%TO.C,JP4*%
X96385000Y140700000D03*
D14*
X95623000Y140700000D03*
X94607000Y140700000D03*
D13*
X93845000Y140700000D03*
%TD*%
%TO.C,JP4*%
X96385000Y77970000D03*
D14*
X95623000Y77970000D03*
X94607000Y77970000D03*
D13*
X93845000Y77970000D03*
%TD*%
%TO.C,JP4*%
X96385000Y15240000D03*
D14*
X95623000Y15240000D03*
X94607000Y15240000D03*
D13*
X93845000Y15240000D03*
%TD*%
%TO.C,JP4*%
X42545000Y140700000D03*
D14*
X41783000Y140700000D03*
X40767000Y140700000D03*
D13*
X40005000Y140700000D03*
%TD*%
%TO.C,JP4*%
X42545000Y77970000D03*
D14*
X41783000Y77970000D03*
X40767000Y77970000D03*
D13*
X40005000Y77970000D03*
%TD*%
D15*
%TO.C,JP7*%
X81894300Y179117500D03*
X82935700Y179117500D03*
%TD*%
%TO.C,JP7*%
X81894300Y116387500D03*
X82935700Y116387500D03*
%TD*%
%TO.C,JP7*%
X81894300Y53657500D03*
X82935700Y53657500D03*
%TD*%
%TO.C,JP7*%
X28054300Y179117500D03*
X29095700Y179117500D03*
%TD*%
%TO.C,JP7*%
X28054300Y116387500D03*
X29095700Y116387500D03*
%TD*%
D16*
%TO.C,FID1*%
X59237500Y127047500D03*
%TD*%
%TO.C,FID1*%
X59237500Y64317500D03*
%TD*%
%TO.C,FID1*%
X59237500Y1587500D03*
%TD*%
%TO.C,FID1*%
X5397500Y127047500D03*
%TD*%
%TO.C,FID1*%
X5397500Y64317500D03*
%TD*%
%TO.C,FID2*%
X104640000Y183245000D03*
%TD*%
%TO.C,FID2*%
X104640000Y120515000D03*
%TD*%
%TO.C,FID2*%
X104640000Y57785000D03*
%TD*%
%TO.C,FID2*%
X50800000Y183245000D03*
%TD*%
%TO.C,FID2*%
X50800000Y120515000D03*
%TD*%
D13*
%TO.C,JP5*%
X96385000Y145780000D03*
D14*
X95623000Y145780000D03*
X94607000Y145780000D03*
D13*
X93845000Y145780000D03*
%TD*%
%TO.C,JP5*%
X96385000Y83050000D03*
D14*
X95623000Y83050000D03*
X94607000Y83050000D03*
D13*
X93845000Y83050000D03*
%TD*%
%TO.C,JP5*%
X96385000Y20320000D03*
D14*
X95623000Y20320000D03*
X94607000Y20320000D03*
D13*
X93845000Y20320000D03*
%TD*%
%TO.C,JP5*%
X42545000Y145780000D03*
D14*
X41783000Y145780000D03*
X40767000Y145780000D03*
D13*
X40005000Y145780000D03*
%TD*%
%TO.C,JP5*%
X42545000Y83050000D03*
D14*
X41783000Y83050000D03*
X40767000Y83050000D03*
D13*
X40005000Y83050000D03*
%TD*%
D12*
%TO.C,JP1*%
X96905700Y157210000D03*
X95864300Y157210000D03*
%TD*%
%TO.C,JP1*%
X96905700Y94480000D03*
X95864300Y94480000D03*
%TD*%
%TO.C,JP1*%
X96905700Y31750000D03*
X95864300Y31750000D03*
%TD*%
%TO.C,JP1*%
X43065700Y157210000D03*
X42024300Y157210000D03*
%TD*%
%TO.C,JP1*%
X43065700Y94480000D03*
X42024300Y94480000D03*
%TD*%
D13*
%TO.C,JP3*%
X96385000Y143240000D03*
D14*
X95623000Y143240000D03*
X94607000Y143240000D03*
D13*
X93845000Y143240000D03*
%TD*%
%TO.C,JP3*%
X96385000Y80510000D03*
D14*
X95623000Y80510000D03*
X94607000Y80510000D03*
D13*
X93845000Y80510000D03*
%TD*%
%TO.C,JP3*%
X96385000Y17780000D03*
D14*
X95623000Y17780000D03*
X94607000Y17780000D03*
D13*
X93845000Y17780000D03*
%TD*%
%TO.C,JP3*%
X42545000Y143240000D03*
D14*
X41783000Y143240000D03*
X40767000Y143240000D03*
D13*
X40005000Y143240000D03*
%TD*%
%TO.C,JP3*%
X42545000Y80510000D03*
D14*
X41783000Y80510000D03*
X40767000Y80510000D03*
D13*
X40005000Y80510000D03*
%TD*%
%TO.C,JP6*%
X96385000Y148320000D03*
D14*
X95623000Y148320000D03*
X94607000Y148320000D03*
D13*
X93845000Y148320000D03*
%TD*%
%TO.C,JP6*%
X96385000Y85590000D03*
D14*
X95623000Y85590000D03*
X94607000Y85590000D03*
D13*
X93845000Y85590000D03*
%TD*%
%TO.C,JP6*%
X96385000Y22860000D03*
D14*
X95623000Y22860000D03*
X94607000Y22860000D03*
D13*
X93845000Y22860000D03*
%TD*%
%TO.C,JP6*%
X42545000Y148320000D03*
D14*
X41783000Y148320000D03*
X40767000Y148320000D03*
D13*
X40005000Y148320000D03*
%TD*%
%TO.C,JP6*%
X42545000Y85590000D03*
D14*
X41783000Y85590000D03*
X40767000Y85590000D03*
D13*
X40005000Y85590000D03*
%TD*%
D17*
%TO.C,J4*%
X99275000Y180245000D03*
X93495000Y180245000D03*
D18*
X100703000Y183895000D03*
D19*
X100703000Y179715000D03*
X92067000Y179715000D03*
D18*
X92067000Y183895000D03*
%TD*%
D17*
%TO.C,J4*%
X99275000Y117515000D03*
X93495000Y117515000D03*
D18*
X100703000Y121165000D03*
D19*
X100703000Y116985000D03*
X92067000Y116985000D03*
D18*
X92067000Y121165000D03*
%TD*%
D17*
%TO.C,J4*%
X99275000Y54785000D03*
X93495000Y54785000D03*
D18*
X100703000Y58435000D03*
D19*
X100703000Y54255000D03*
X92067000Y54255000D03*
D18*
X92067000Y58435000D03*
%TD*%
D17*
%TO.C,J4*%
X45435000Y180245000D03*
X39655000Y180245000D03*
D18*
X46863000Y183895000D03*
D19*
X46863000Y179715000D03*
X38227000Y179715000D03*
D18*
X38227000Y183895000D03*
%TD*%
D17*
%TO.C,J4*%
X45435000Y117515000D03*
X39655000Y117515000D03*
D18*
X46863000Y121165000D03*
D19*
X46863000Y116985000D03*
X38227000Y116985000D03*
D18*
X38227000Y121165000D03*
%TD*%
D13*
%TO.C,J2*%
X91305000Y171180000D03*
X88765000Y171180000D03*
X86225000Y171180000D03*
X83685000Y171180000D03*
%TD*%
%TO.C,J2*%
X91305000Y108450000D03*
X88765000Y108450000D03*
X86225000Y108450000D03*
X83685000Y108450000D03*
%TD*%
%TO.C,J2*%
X91305000Y45720000D03*
X88765000Y45720000D03*
X86225000Y45720000D03*
X83685000Y45720000D03*
%TD*%
%TO.C,J2*%
X37465000Y171180000D03*
X34925000Y171180000D03*
X32385000Y171180000D03*
X29845000Y171180000D03*
%TD*%
%TO.C,J2*%
X37465000Y108450000D03*
X34925000Y108450000D03*
X32385000Y108450000D03*
X29845000Y108450000D03*
%TD*%
D20*
%TO.C,J6*%
X77205000Y181022500D03*
X69205000Y181022500D03*
%TD*%
%TO.C,J6*%
X77205000Y118292500D03*
X69205000Y118292500D03*
%TD*%
%TO.C,J6*%
X77205000Y55562500D03*
X69205000Y55562500D03*
%TD*%
%TO.C,J6*%
X23365000Y181022500D03*
X15365000Y181022500D03*
%TD*%
%TO.C,J6*%
X23365000Y118292500D03*
X15365000Y118292500D03*
%TD*%
D21*
%TO.C,J5*%
X84320000Y130540000D03*
X84320000Y128000000D03*
X81780000Y130540000D03*
X81780000Y128000000D03*
X79240000Y130540000D03*
X79240000Y128000000D03*
%TD*%
%TO.C,J5*%
X84320000Y67810000D03*
X84320000Y65270000D03*
X81780000Y67810000D03*
X81780000Y65270000D03*
X79240000Y67810000D03*
X79240000Y65270000D03*
%TD*%
%TO.C,J5*%
X84320000Y5080000D03*
X84320000Y2540000D03*
X81780000Y5080000D03*
X81780000Y2540000D03*
X79240000Y5080000D03*
X79240000Y2540000D03*
%TD*%
%TO.C,J5*%
X30480000Y130540000D03*
X30480000Y128000000D03*
X27940000Y130540000D03*
X27940000Y128000000D03*
X25400000Y130540000D03*
X25400000Y128000000D03*
%TD*%
%TO.C,J5*%
X30480000Y67810000D03*
X30480000Y65270000D03*
X27940000Y67810000D03*
X27940000Y65270000D03*
X25400000Y67810000D03*
X25400000Y65270000D03*
%TD*%
D22*
%TO.C,J1*%
X86225000Y183570000D03*
X86225000Y176570000D03*
%TD*%
%TO.C,J1*%
X86225000Y120840000D03*
X86225000Y113840000D03*
%TD*%
%TO.C,J1*%
X86225000Y58110000D03*
X86225000Y51110000D03*
%TD*%
%TO.C,J1*%
X32385000Y183570000D03*
X32385000Y176570000D03*
%TD*%
%TO.C,J1*%
X32385000Y120840000D03*
X32385000Y113840000D03*
%TD*%
D21*
%TO.C,B1*%
X56380000Y158480000D03*
X56380000Y155940000D03*
X56380000Y143240000D03*
X56380000Y140700000D03*
X56380000Y138160000D03*
X56380000Y135620000D03*
X104640000Y172450000D03*
X56380000Y133080000D03*
X104640000Y174990000D03*
X56380000Y130540000D03*
X104640000Y169910000D03*
X104640000Y130540000D03*
X104640000Y133080000D03*
X104640000Y135620000D03*
X104640000Y138160000D03*
X104640000Y140700000D03*
X104640000Y143240000D03*
X104640000Y145780000D03*
X104640000Y148320000D03*
X104640000Y152130000D03*
X104640000Y154670000D03*
X104640000Y157210000D03*
X104640000Y159750000D03*
X104640000Y162290000D03*
X104640000Y164830000D03*
X104640000Y167370000D03*
X56380000Y150860000D03*
X56380000Y153400000D03*
X56380000Y163560000D03*
X56380000Y166100000D03*
X56380000Y148320000D03*
X56380000Y161020000D03*
%TD*%
%TO.C,B1*%
X56380000Y95750000D03*
X56380000Y93210000D03*
X56380000Y80510000D03*
X56380000Y77970000D03*
X56380000Y75430000D03*
X56380000Y72890000D03*
X104640000Y109720000D03*
X56380000Y70350000D03*
X104640000Y112260000D03*
X56380000Y67810000D03*
X104640000Y107180000D03*
X104640000Y67810000D03*
X104640000Y70350000D03*
X104640000Y72890000D03*
X104640000Y75430000D03*
X104640000Y77970000D03*
X104640000Y80510000D03*
X104640000Y83050000D03*
X104640000Y85590000D03*
X104640000Y89400000D03*
X104640000Y91940000D03*
X104640000Y94480000D03*
X104640000Y97020000D03*
X104640000Y99560000D03*
X104640000Y102100000D03*
X104640000Y104640000D03*
X56380000Y88130000D03*
X56380000Y90670000D03*
X56380000Y100830000D03*
X56380000Y103370000D03*
X56380000Y85590000D03*
X56380000Y98290000D03*
%TD*%
%TO.C,B1*%
X56380000Y33020000D03*
X56380000Y30480000D03*
X56380000Y17780000D03*
X56380000Y15240000D03*
X56380000Y12700000D03*
X56380000Y10160000D03*
X104640000Y46990000D03*
X56380000Y7620000D03*
X104640000Y49530000D03*
X56380000Y5080000D03*
X104640000Y44450000D03*
X104640000Y5080000D03*
X104640000Y7620000D03*
X104640000Y10160000D03*
X104640000Y12700000D03*
X104640000Y15240000D03*
X104640000Y17780000D03*
X104640000Y20320000D03*
X104640000Y22860000D03*
X104640000Y26670000D03*
X104640000Y29210000D03*
X104640000Y31750000D03*
X104640000Y34290000D03*
X104640000Y36830000D03*
X104640000Y39370000D03*
X104640000Y41910000D03*
X56380000Y25400000D03*
X56380000Y27940000D03*
X56380000Y38100000D03*
X56380000Y40640000D03*
X56380000Y22860000D03*
X56380000Y35560000D03*
%TD*%
%TO.C,B1*%
X2540000Y158480000D03*
X2540000Y155940000D03*
X2540000Y143240000D03*
X2540000Y140700000D03*
X2540000Y138160000D03*
X2540000Y135620000D03*
X50800000Y172450000D03*
X2540000Y133080000D03*
X50800000Y174990000D03*
X2540000Y130540000D03*
X50800000Y169910000D03*
X50800000Y130540000D03*
X50800000Y133080000D03*
X50800000Y135620000D03*
X50800000Y138160000D03*
X50800000Y140700000D03*
X50800000Y143240000D03*
X50800000Y145780000D03*
X50800000Y148320000D03*
X50800000Y152130000D03*
X50800000Y154670000D03*
X50800000Y157210000D03*
X50800000Y159750000D03*
X50800000Y162290000D03*
X50800000Y164830000D03*
X50800000Y167370000D03*
X2540000Y150860000D03*
X2540000Y153400000D03*
X2540000Y163560000D03*
X2540000Y166100000D03*
X2540000Y148320000D03*
X2540000Y161020000D03*
%TD*%
%TO.C,B1*%
X2540000Y95750000D03*
X2540000Y93210000D03*
X2540000Y80510000D03*
X2540000Y77970000D03*
X2540000Y75430000D03*
X2540000Y72890000D03*
X50800000Y109720000D03*
X2540000Y70350000D03*
X50800000Y112260000D03*
X2540000Y67810000D03*
X50800000Y107180000D03*
X50800000Y67810000D03*
X50800000Y70350000D03*
X50800000Y72890000D03*
X50800000Y75430000D03*
X50800000Y77970000D03*
X50800000Y80510000D03*
X50800000Y83050000D03*
X50800000Y85590000D03*
X50800000Y89400000D03*
X50800000Y91940000D03*
X50800000Y94480000D03*
X50800000Y97020000D03*
X50800000Y99560000D03*
X50800000Y102100000D03*
X50800000Y104640000D03*
X2540000Y88130000D03*
X2540000Y90670000D03*
X2540000Y100830000D03*
X2540000Y103370000D03*
X2540000Y85590000D03*
X2540000Y98290000D03*
%TD*%
%TO.C,B1*%
X2540000Y33020000D03*
X2540000Y30480000D03*
X2540000Y17780000D03*
X2540000Y15240000D03*
X2540000Y12700000D03*
X2540000Y10160000D03*
X50800000Y46990000D03*
X2540000Y7620000D03*
X50800000Y49530000D03*
X2540000Y5080000D03*
X50800000Y44450000D03*
X50800000Y5080000D03*
X50800000Y7620000D03*
X50800000Y10160000D03*
X50800000Y12700000D03*
X50800000Y15240000D03*
X50800000Y17780000D03*
X50800000Y20320000D03*
X50800000Y22860000D03*
X50800000Y26670000D03*
X50800000Y29210000D03*
X50800000Y31750000D03*
X50800000Y34290000D03*
X50800000Y36830000D03*
X50800000Y39370000D03*
X50800000Y41910000D03*
X2540000Y25400000D03*
X2540000Y27940000D03*
X2540000Y38100000D03*
X2540000Y40640000D03*
X2540000Y22860000D03*
X2540000Y35560000D03*
%TD*%
D22*
%TO.C,J1*%
X32385000Y58110000D03*
X32385000Y51110000D03*
%TD*%
D21*
%TO.C,J5*%
X30480000Y5080000D03*
X30480000Y2540000D03*
X27940000Y5080000D03*
X27940000Y2540000D03*
X25400000Y5080000D03*
X25400000Y2540000D03*
%TD*%
D20*
%TO.C,J6*%
X23365000Y55562500D03*
X15365000Y55562500D03*
%TD*%
D13*
%TO.C,J2*%
X37465000Y45720000D03*
X34925000Y45720000D03*
X32385000Y45720000D03*
X29845000Y45720000D03*
%TD*%
D17*
%TO.C,J4*%
X45435000Y54785000D03*
X39655000Y54785000D03*
D18*
X46863000Y58435000D03*
D19*
X46863000Y54255000D03*
X38227000Y54255000D03*
D18*
X38227000Y58435000D03*
%TD*%
D13*
%TO.C,JP6*%
X42545000Y22860000D03*
D14*
X41783000Y22860000D03*
X40767000Y22860000D03*
D13*
X40005000Y22860000D03*
%TD*%
%TO.C,JP3*%
X42545000Y17780000D03*
D14*
X41783000Y17780000D03*
X40767000Y17780000D03*
D13*
X40005000Y17780000D03*
%TD*%
D12*
%TO.C,JP1*%
X43065700Y31750000D03*
X42024300Y31750000D03*
%TD*%
D13*
%TO.C,JP5*%
X42545000Y20320000D03*
D14*
X41783000Y20320000D03*
X40767000Y20320000D03*
D13*
X40005000Y20320000D03*
%TD*%
D16*
%TO.C,FID2*%
X50800000Y57785000D03*
%TD*%
%TO.C,FID1*%
X5397500Y1587500D03*
%TD*%
D15*
%TO.C,JP7*%
X28054300Y53657500D03*
X29095700Y53657500D03*
%TD*%
D13*
%TO.C,JP4*%
X42545000Y15240000D03*
D14*
X41783000Y15240000D03*
X40767000Y15240000D03*
D13*
X40005000Y15240000D03*
%TD*%
D12*
%TO.C,JP2*%
X11315700Y31750000D03*
X10274300Y31750000D03*
%TD*%
M02*
